<svg id="Grupo_162208" data-name="Grupo 162208" xmlns="http://www.w3.org/2000/svg" width="119.198" height="88.385" viewBox="0 0 119.198 88.385">
  <path id="Trazado_118782" data-name="Trazado 118782" d="M-104.534,97c5.165-5.783,13.339-7.479,20.595-8.617a355.875,355.875,0,0,1,68.485-4c7.3.282,14.7,1.235,19.343,6.26,4.083,4.41,4.743,10.6,5.039,16.059A231.328,231.328,0,0,1,8.9,132.224c-.28,4.951-.813,10.132-3.911,14.288-4.221,5.666-11.719,7.461-19.194,8.554a354.3,354.3,0,0,1-42.422,3.608,31.228,31.228,0,0,1-26.093,13.833,36.247,36.247,0,0,1-6.808-.66l-4.153-.795,3.732-1.988A27.119,27.119,0,0,0-79.113,158.41c-6.445-.5-14-1.909-19.7-6.736-8.207-6.943-9.794-18.238-10.714-29.211C-110.3,113.275-110.552,103.74-104.534,97Z" transform="translate(109.931 -84.122)" fill="#fff"/>
  <g id="Grupo_84976" data-name="Grupo 84976">
    <g id="Grupo_84972" data-name="Grupo 84972">
      <path id="Trazado_118783" data-name="Trazado 118783" d="M-104.534,97c5.165-5.783,13.339-7.479,20.595-8.617a355.886,355.886,0,0,1,68.485-4c7.3.282,14.7,1.235,19.343,6.26,4.083,4.41,4.743,10.6,5.041,16.059A231.905,231.905,0,0,1,8.9,132.224c-.28,4.951-.813,10.132-3.911,14.288-4.219,5.666-11.719,7.461-19.194,8.554a354.257,354.257,0,0,1-42.422,3.608,31.228,31.228,0,0,1-26.093,13.833,36.247,36.247,0,0,1-6.808-.66l-4.153-.795,3.734-1.988A27.119,27.119,0,0,0-79.11,158.41c-6.447-.5-14-1.909-19.7-6.736-8.209-6.943-9.8-18.238-10.717-29.211C-110.3,113.275-110.552,103.74-104.534,97Zm7.647,52.4c5.71,4.832,13.8,5.843,20.21,6.183l2.191.114-.914,2a30.311,30.311,0,0,1-9.561,11.752,28.119,28.119,0,0,0,26.279-13.059l.429-.655.785-.019a351.1,351.1,0,0,0,42.832-3.6c6.838-1,13.661-2.589,17.234-7.382,2.6-3.494,3.067-8.179,3.324-12.677a228.78,228.78,0,0,0,.026-25.191C5.68,101.927,5.107,96.351,1.7,92.669c-3.909-4.226-10.61-5.046-17.269-5.3-4.48-.17-9.025-.259-13.514-.259a352.714,352.714,0,0,0-54.393,4.228,54.82,54.82,0,0,0-11.281,2.739l15.19,10.29a1.122,1.122,0,0,1,.3,1.559,1.123,1.123,0,0,1-.93.492,1.122,1.122,0,0,1-.629-.193L-97.157,95.156a17.867,17.867,0,0,0-4.682,3.389,55.054,55.054,0,0,1,4.341,3.662c.83.8.708,1.3.355,1.731s-.957.751-1.766,0c-.952-.6-2.343-1.94-4.349-3.654a17.382,17.382,0,0,0-2.557,5.33l14.849,11.234a1.12,1.12,0,0,1,.217,1.571,1.117,1.117,0,0,1-.895.445,1.115,1.115,0,0,1-.676-.228L-106.38,108a37.625,37.625,0,0,0-.545,6.841c3.3,2.438,6.484,4.69,9.565,6.852,2.869,2.018,5.577,3.925,8.057,5.769a1.122,1.122,0,0,1,.228,1.569,1.12,1.12,0,0,1-.9.452,1.128,1.128,0,0,1-.669-.221c-2.461-1.832-5.156-3.727-8.006-5.731-2.648-1.86-5.391-3.808-8.2-5.862.07,1.513.168,3.032.294,4.545.049.564.1,1.13.149,1.695L-92.023,134.8a1.12,1.12,0,0,1,.217,1.571,1.117,1.117,0,0,1-.9.445,1.113,1.113,0,0,1-.676-.226l-12.719-9.624C-105.1,135.706-103.106,144.137-96.887,149.4Z" transform="translate(109.931 -84.122)"/>
    </g>
    <path id="Trazado_143421" data-name="Trazado 143421" d="M.542,20.788a1.439,1.439,0,0,1,.1-.539A.439.439,0,0,1,1.1,20a1,1,0,0,1,.665.231q.273.231.609.5a4.1,4.1,0,0,0,.819.5,3.036,3.036,0,0,0,1.3.231A4.03,4.03,0,0,0,6.2,21.131a4.381,4.381,0,0,0,1.253-.847,3.71,3.71,0,0,0,.777-1.078A2.5,2.5,0,0,0,8.5,18.17a2,2,0,0,0-.539-1.316,10.685,10.685,0,0,0-1.351-1.3q-.812-.665-1.75-1.4A13.789,13.789,0,0,1,3.1,12.52a8.668,8.668,0,0,1-1.351-2.009A5.648,5.648,0,0,1,1.214,8a5.822,5.822,0,0,1,.6-2.653A6.763,6.763,0,0,1,3.342,3.328a6.915,6.915,0,0,1,2.093-1.3,6.178,6.178,0,0,1,2.275-.455,2.848,2.848,0,0,1,1.2.259A3.426,3.426,0,0,1,10.6,3.524a2.708,2.708,0,0,1,.259,1.148,3.559,3.559,0,0,1-.056.539,3.926,3.926,0,0,1-.175.679,1.978,1.978,0,0,1-.315.581.591.591,0,0,1-.476.245A.725.725,0,0,1,9.468,6.6a1.2,1.2,0,0,1-.336-.3,1.82,1.82,0,0,1-.245-.427,1.311,1.311,0,0,1-.1-.5,1.941,1.941,0,0,0-.021-.252,1.359,1.359,0,0,0-.077-.3.73.73,0,0,0-.168-.259.4.4,0,0,0-.294-.112,2.681,2.681,0,0,0-.665.112,5.392,5.392,0,0,0-.875.329,6.63,6.63,0,0,0-.931.539,4.558,4.558,0,0,0-.84.742,3.813,3.813,0,0,0-.609.938,2.65,2.65,0,0,0-.238,1.12,2.756,2.756,0,0,0,.3,1.274,4.838,4.838,0,0,0,.805,1.12,10.791,10.791,0,0,0,1.141,1.036l1.3,1.022q.658.518,1.3,1.071a9.072,9.072,0,0,1,1.141,1.183,5.532,5.532,0,0,1,.805,1.365,4.228,4.228,0,0,1,.3,1.617,5.005,5.005,0,0,1-.287,1.68,5.993,5.993,0,0,1-.791,1.512,7.36,7.36,0,0,1-1.169,1.274,8.278,8.278,0,0,1-1.414.987,7.26,7.26,0,0,1-1.547.637,5.738,5.738,0,0,1-1.554.224,4.492,4.492,0,0,1-1.519-.252,3.668,3.668,0,0,1-1.225-.714,3.342,3.342,0,0,1-.812-1.092A3.237,3.237,0,0,1,.542,20.788Zm11.72-.476q0-.308.007-1.281t.021-2.352q.014-1.379.042-3.052t.07-3.388q.042-1.715.112-3.346t.154-2.94q.084-1.309.2-2.17A2.663,2.663,0,0,1,13.116.751,1.166,1.166,0,0,1,13.48.534,1.651,1.651,0,0,1,14.166.4a1.076,1.076,0,0,1,.882.357,2.02,2.02,0,0,1,.406.861,4.861,4.861,0,0,1,.112,1.057v.931q0,.644-.021,1.561T15.5,7.122q-.028,1.036-.063,2.114T15.384,11.3q-.014.987-.014,1.8t.042,1.316q.042.56.238.56t.406-.462q.21-.434.511-1.064a7.778,7.778,0,0,1,.728-1.218,4.43,4.43,0,0,1,1-1,2.218,2.218,0,0,1,1.33-.413,2.343,2.343,0,0,1,1.169.28,2.552,2.552,0,0,1,.826.735A3.11,3.11,0,0,1,22.1,12.87a4.6,4.6,0,0,1,.154,1.183q0,1.148-.049,2.2T22.1,18.338q-.063,1.036-.112,2.093t-.049,2.205q0,.434-.252.539a1.6,1.6,0,0,1-.616.105,2.005,2.005,0,0,1-1.148-.266,1.337,1.337,0,0,1-.518-.735,3.549,3.549,0,0,1-.126-1.092q.014-.623.014-1.337,0-.518.021-1.12t.049-1.2q.028-.6.049-1.162t.014-.987a5.881,5.881,0,0,0-.042-.679q-.035-.252-.133-.252a.952.952,0,0,0-.567.322,6.129,6.129,0,0,0-.742.875,14.112,14.112,0,0,0-.826,1.309q-.427.756-.826,1.617t-.749,1.785a18.127,18.127,0,0,0-.588,1.834,1.954,1.954,0,0,1-.378.714.894.894,0,0,1-.728.322,1.212,1.212,0,0,1-.861-.294,1.858,1.858,0,0,1-.476-.735,3.632,3.632,0,0,1-.2-.952Q12.262,20.732,12.262,20.312ZM27.719,10.5a3.443,3.443,0,0,1,1.925.553,4.989,4.989,0,0,1,1.442,1.456A7.154,7.154,0,0,1,32,14.543a8.593,8.593,0,0,1,.315,2.31,7.108,7.108,0,0,1-.448,2.576,6.442,6.442,0,0,1-1.183,1.988A5.286,5.286,0,0,1,28.987,22.7a4.542,4.542,0,0,1-1.967.455,3.24,3.24,0,0,1-1.806-.483,3.8,3.8,0,0,1-1.2-1.239,5.531,5.531,0,0,1-.658-1.687,8.562,8.562,0,0,1-.2-1.827,9.581,9.581,0,0,1,.161-1.722,10.728,10.728,0,0,1,.455-1.7,9.922,9.922,0,0,1,.707-1.547,6.67,6.67,0,0,1,.924-1.274,4.275,4.275,0,0,1,1.1-.861A2.548,2.548,0,0,1,27.719,10.5Zm.238,2.66a.96.96,0,0,0-.693.441,4.679,4.679,0,0,0-.651,1.148,9.077,9.077,0,0,0-.483,1.6,8.563,8.563,0,0,0-.189,1.785q0,.14.014.546a4.185,4.185,0,0,0,.119.84,2.15,2.15,0,0,0,.35.77.807.807,0,0,0,.693.336A1.369,1.369,0,0,0,28,20.256a3.655,3.655,0,0,0,.777-.938,5.5,5.5,0,0,0,.553-1.3,5.232,5.232,0,0,0,.21-1.456q0-.238-.014-.588a6.837,6.837,0,0,0-.07-.728,5.95,5.95,0,0,0-.161-.749,2.9,2.9,0,0,0-.28-.672,1.5,1.5,0,0,0-.434-.483A1.056,1.056,0,0,0,27.958,13.157Zm6.469,17.236a.757.757,0,0,1-.623-.315,2.416,2.416,0,0,1-.385-.749,4.434,4.434,0,0,1-.189-.9,5.246,5.246,0,0,1-.035-.763q.056-1.848.1-3.283t.063-2.632q.021-1.2.028-2.275t.007-2.233V14.753q0-1.33-.014-3.038a1.267,1.267,0,0,1,.077-.385,1.429,1.429,0,0,1,.245-.441,1.56,1.56,0,0,1,.427-.364,1.2,1.2,0,0,1,.623-.154.946.946,0,0,1,.686.231,1.44,1.44,0,0,1,.357.581,3.734,3.734,0,0,1,.168.77q.049.42.105.812a2.222,2.222,0,0,0,.112.476.209.209,0,0,0,.21.126q.1,0,.231-.189t.322-.476q.189-.287.427-.616a4.472,4.472,0,0,1,.539-.616,2.889,2.889,0,0,1,.665-.476,1.706,1.706,0,0,1,.8-.189,3.189,3.189,0,0,1,2.723,1.365,4.494,4.494,0,0,1,.679,1.505A7.551,7.551,0,0,1,43,15.565a9.607,9.607,0,0,1-.357,2.6,8.514,8.514,0,0,1-.98,2.261,5.693,5.693,0,0,1-1.449,1.589,2.941,2.941,0,0,1-1.764.6,3.256,3.256,0,0,1-.623-.056,5.287,5.287,0,0,1-.518-.126q-.231-.07-.434-.126a1.405,1.405,0,0,0-.371-.056.385.385,0,0,0-.315.147,1.063,1.063,0,0,0-.182.336,1.834,1.834,0,0,0-.084.378q-.021.189-.035.273a12.126,12.126,0,0,0-.126,1.715q0,.833-.007,1.617t-.077,1.526a5.5,5.5,0,0,1-.336,1.442,1.388,1.388,0,0,1-.322.476A.8.8,0,0,1,34.426,30.393Zm5.979-14.828a2.252,2.252,0,0,0-.112-.784,1.223,1.223,0,0,0-.28-.455.817.817,0,0,0-.35-.21,1.221,1.221,0,0,0-.308-.049,1.238,1.238,0,0,0-.7.238,3.576,3.576,0,0,0-.679.616,6.277,6.277,0,0,0-.616.847,7.991,7.991,0,0,0-.5.945,7.757,7.757,0,0,0-.336.9,3.066,3.066,0,0,0-.14.7,1.65,1.65,0,0,0,.084.511,1.551,1.551,0,0,0,.245.469,1.317,1.317,0,0,0,.392.343,1.006,1.006,0,0,0,.511.133,2.172,2.172,0,0,0,1.113-.266,2.581,2.581,0,0,0,.763-.672,3.413,3.413,0,0,0,.49-.91,6.62,6.62,0,0,0,.273-.966,7.1,7.1,0,0,0,.119-.84Q40.405,15.733,40.405,15.565Zm4.859,14.828a.757.757,0,0,1-.623-.315,2.416,2.416,0,0,1-.385-.749,4.435,4.435,0,0,1-.189-.9,5.248,5.248,0,0,1-.035-.763q.056-1.848.1-3.283t.063-2.632q.021-1.2.028-2.275t.007-2.233V14.753q0-1.33-.014-3.038a1.267,1.267,0,0,1,.077-.385,1.428,1.428,0,0,1,.245-.441,1.56,1.56,0,0,1,.427-.364,1.2,1.2,0,0,1,.623-.154.946.946,0,0,1,.686.231,1.44,1.44,0,0,1,.357.581,3.734,3.734,0,0,1,.168.77q.049.42.105.812a2.222,2.222,0,0,0,.112.476.209.209,0,0,0,.21.126q.1,0,.231-.189t.322-.476q.189-.287.427-.616a4.472,4.472,0,0,1,.539-.616,2.889,2.889,0,0,1,.665-.476,1.706,1.706,0,0,1,.8-.189A3.189,3.189,0,0,1,52.93,12.17a4.494,4.494,0,0,1,.679,1.505,7.552,7.552,0,0,1,.224,1.89,9.607,9.607,0,0,1-.357,2.6,8.514,8.514,0,0,1-.98,2.261,5.693,5.693,0,0,1-1.449,1.589,2.941,2.941,0,0,1-1.764.6,3.256,3.256,0,0,1-.623-.056,5.287,5.287,0,0,1-.518-.126q-.231-.07-.434-.126a1.405,1.405,0,0,0-.371-.056.385.385,0,0,0-.315.147,1.063,1.063,0,0,0-.182.336,1.833,1.833,0,0,0-.084.378q-.021.189-.035.273a12.127,12.127,0,0,0-.126,1.715q0,.833-.007,1.617t-.077,1.526a5.5,5.5,0,0,1-.336,1.442,1.388,1.388,0,0,1-.322.476A.8.8,0,0,1,45.264,30.393Zm5.979-14.828a2.252,2.252,0,0,0-.112-.784,1.223,1.223,0,0,0-.28-.455.817.817,0,0,0-.35-.21,1.221,1.221,0,0,0-.308-.049,1.238,1.238,0,0,0-.7.238,3.577,3.577,0,0,0-.679.616,6.276,6.276,0,0,0-.616.847,7.991,7.991,0,0,0-.5.945,7.756,7.756,0,0,0-.336.9,3.066,3.066,0,0,0-.14.7,1.65,1.65,0,0,0,.084.511,1.551,1.551,0,0,0,.245.469,1.317,1.317,0,0,0,.392.343,1.006,1.006,0,0,0,.511.133,2.172,2.172,0,0,0,1.113-.266,2.581,2.581,0,0,0,.763-.672,3.413,3.413,0,0,0,.49-.91,6.62,6.62,0,0,0,.273-.966,7.1,7.1,0,0,0,.119-.84Q51.243,15.733,51.243,15.565Zm3.934,3.388q0-.49-.021-1.3t-.014-1.736q.007-.924.07-1.869a14.007,14.007,0,0,1,.21-1.708,4.136,4.136,0,0,1,.42-1.246.806.806,0,0,1,.707-.483,1.785,1.785,0,0,1,.833.161,1.029,1.029,0,0,1,.427.735,6.357,6.357,0,0,1,.091.707q.035.427.035,1.029,0,.322.014,1.092t.021,1.75q.007.98.014,2.051t-.007,2.023q-.014.952-.056,1.652a4.782,4.782,0,0,1-.112.924.451.451,0,0,1-.224.259,1.657,1.657,0,0,1-.343.14,1.839,1.839,0,0,1-.336.063q-.161.014-.217.014a.842.842,0,0,1-.658-.329,2.673,2.673,0,0,1-.469-.91,7.423,7.423,0,0,1-.287-1.358A13.28,13.28,0,0,1,55.177,18.954Zm.28-13.9a2.692,2.692,0,0,1,.105-.763,1.824,1.824,0,0,1,.315-.623,1.414,1.414,0,0,1,.532-.413,1.77,1.77,0,0,1,.742-.147,2.059,2.059,0,0,1,.581.084,1.337,1.337,0,0,1,.511.28,1.461,1.461,0,0,1,.364.5,1.862,1.862,0,0,1,.14.77,2.141,2.141,0,0,1-.154.84,1.663,1.663,0,0,1-.42.6,1.778,1.778,0,0,1-.609.357,2.142,2.142,0,0,1-.707.119,1.43,1.43,0,0,1-.707-.154,1.224,1.224,0,0,1-.427-.385,1.41,1.41,0,0,1-.21-.518A2.887,2.887,0,0,1,55.457,5.05Zm3.935,8.569a2.262,2.262,0,0,1,.112-.637,2.924,2.924,0,0,1,.322-.707,2.177,2.177,0,0,1,.518-.574,1.224,1.224,0,0,1,1.281-.105.835.835,0,0,1,.329.385,1.874,1.874,0,0,1,.14.616q.028.364.028.812,0,.854.266.854.14,0,.28-.21l.588-.882a6.531,6.531,0,0,1,.784-.959,4.486,4.486,0,0,1,1.029-.777,2.713,2.713,0,0,1,1.337-.322,1.994,1.994,0,0,1,1.218.343,2.138,2.138,0,0,1,.707.98,5.191,5.191,0,0,1,.3,1.533,14.386,14.386,0,0,1-.028,1.988q-.07.938-.084,2.394t.112,3.584a1.7,1.7,0,0,1-.021.4,1.339,1.339,0,0,1-.133.406,1.073,1.073,0,0,1-.252.322.578.578,0,0,1-.392.133,1.594,1.594,0,0,1-1.155-.4,2.506,2.506,0,0,1-.616-.952,4.334,4.334,0,0,1-.252-1.134q-.049-.581-.049-.931,0-.616.049-1.106t.1-.952q.049-.462.1-.917a9.25,9.25,0,0,0,.049-.987,6.437,6.437,0,0,0-.035-.749,1.912,1.912,0,0,0-.1-.448.483.483,0,0,0-.14-.217.253.253,0,0,0-.147-.056.953.953,0,0,0-.553.322,7.213,7.213,0,0,0-.735.826q-.392.5-.8,1.113t-.742,1.169a3.242,3.242,0,0,0-.245.56q-.091.28-.119.406a4.612,4.612,0,0,0-.042.693v.9q0,.476-.021.959a4.806,4.806,0,0,1-.112.875,1.871,1.871,0,0,1-.259.637.544.544,0,0,1-.476.245h-.28a1.3,1.3,0,0,1-.42-.077,2.159,2.159,0,0,1-.42-.2,2.065,2.065,0,0,1-.357-.273,1.022,1.022,0,0,1-.231-.308,4.135,4.135,0,0,1-.231-.931q-.091-.6-.147-1.337t-.07-1.568q-.014-.826-.014-1.61,0-.98.014-1.813T59.392,13.619ZM74.514,10.8a4.276,4.276,0,0,1,.728.056q.322.056.588.126t.462.126a1.291,1.291,0,0,0,.35.056.186.186,0,0,0,.126-.049q.056-.049.133-.112a.937.937,0,0,1,.175-.112.683.683,0,0,1,.238-.063h.112A.97.97,0,0,1,78,11a1.457,1.457,0,0,1,.4.427,1.855,1.855,0,0,1,.231.553,2.367,2.367,0,0,1,.07.546q0,1.134-.007,2.345t-.014,2.289q-.007,1.078-.014,1.9t-.007,1.155a18.893,18.893,0,0,1-.4,4.208,8.482,8.482,0,0,1-1.113,2.786,4.338,4.338,0,0,1-1.687,1.547,4.762,4.762,0,0,1-2.121.476,4.5,4.5,0,0,1-1.421-.2,3.047,3.047,0,0,1-1.015-.546,2.262,2.262,0,0,1-.609-.784,2.169,2.169,0,0,1-.2-.917,1.167,1.167,0,0,1,.231-.707.7.7,0,0,1,.581-.315A.553.553,0,0,1,71.37,26q.175.238.378.518a2.551,2.551,0,0,0,.511.518,1.392,1.392,0,0,0,.868.238,1.949,1.949,0,0,0,1.288-.455,3.441,3.441,0,0,0,.91-1.274,7.907,7.907,0,0,0,.546-1.946,15.646,15.646,0,0,0,.182-2.485v-.175a1.434,1.434,0,0,0-.014-.2A.735.735,0,0,0,76,20.564q-.028-.07-.084-.07a.94.94,0,0,0-.574.287q-.266.259-.6.553a4.241,4.241,0,0,1-.77.539,2.176,2.176,0,0,1-1.071.245,2.531,2.531,0,0,1-1.449-.42,3.541,3.541,0,0,1-1.043-1.106,5.48,5.48,0,0,1-.637-1.582,7.765,7.765,0,0,1-.217-1.834,8.324,8.324,0,0,1,.329-2.317,6.867,6.867,0,0,1,.959-2.044A5.026,5.026,0,0,1,72.4,11.358,4.037,4.037,0,0,1,74.514,10.8Zm-1.652,8.527a1.507,1.507,0,0,0,.742-.2A3.161,3.161,0,0,0,74.3,18.6a4.894,4.894,0,0,0,.609-.749,6.212,6.212,0,0,0,.805-1.743,2.918,2.918,0,0,0,.119-.777q0-.014-.014-.238a1.623,1.623,0,0,0-.119-.49,1.487,1.487,0,0,0-.322-.49.828.828,0,0,0-.623-.224,1.443,1.443,0,0,0-.945.371,3.344,3.344,0,0,0-.763.952,5.725,5.725,0,0,0-.511,1.274,5.076,5.076,0,0,0-.189,1.337A3.125,3.125,0,0,0,72.5,18.9Q72.665,19.332,72.861,19.332Z" transform="translate(27.207 25.065)"/>
  </g>
</svg>
