<svg xmlns="http://www.w3.org/2000/svg" width="97.117" height="99.177" viewBox="0 0 97.117 99.177">
  <g id="Grupo_157023" data-name="Grupo 157023" transform="translate(97.117 72.594) rotate(159)">
    <path id="Trazado_114980" data-name="Trazado 114980" d="M73.149,43.763c0,.264.332.544.3.788a26.759,26.759,0,0,1-.649,3.593c-.31,1.1.141,2.5-1.164,3.255-.146.8-.264,1.6-.447,2.39-.194.834.009,1.854-1.007,2.338.16.25.321.5.469.733-.062.219-.064.526-.18.576-.674.3-.7.9-.82,1.5-.191.948-.109,2.016-1.087,2.643.086.793-.656,1.153-.909,1.752-.3.7-.045,1.654-.994,2.041-.262.818,0,1.871-1.052,2.335-.121,1.13-.33,2.189-1.579,2.684-.173.07-.271.524-.267.8.005.62-.692.676-.836,1.144s-.02,1.03-.587,1.3a1.769,1.769,0,0,0-1.207,1.884c.121.882-1.158.88-.971,1.734l-2.19.515c-.8-.144-1.6-.273-2.4-.438-.275-.057-.676-.139-.77-.33-.346-.715-1.03-.67-1.574-.667-.749.007-.815-.813-1.438-.932-.561-.109-1.274.073-1.647-.536-.463-.758-1.394-.315-1.868-.731a4.882,4.882,0,0,0-2.011-1.048c-.44-1.08-1.866-.362-2.267-1.1-.476-.88-1.551-.319-1.978-1.169-.351-.7-1.674-.107-1.921-1.189a1.554,1.554,0,0,0-.8.114,2.342,2.342,0,0,0-.863.774,5.826,5.826,0,0,1-2.107,2.331,9.061,9.061,0,0,0-1.5,1.043c-.476.4-1.132.105-1.622.561-.877.816-2.146.725-3.185,1.192-.815.367-1.569-.126-2.346-.223-1.308-.16-2.6-.44-3.9-.683a1.248,1.248,0,0,1-.793-.333,9.323,9.323,0,0,0-1.795-1.36c-.738-.467-.9-1.508-1.889-1.77-.3-.08-.474-.627-.706-.961-.465-.667-.932-1.33-1.385-2-.043-.062.055-.207.025-.291-.291-.8-.506-1.626-.756-2.431a13.923,13.923,0,0,1-.736-2.707,18.807,18.807,0,0,1,.449-2.994c.046-.561,1.346-.857.33-1.6.823-.335.643-.813.148-1.276a1.357,1.357,0,0,0-.749-.378c-.921-.064-1.283-1.324-2.34-1.071-.037.009-.1-.176-.175-.235-.6-.453-1.159-1.16-1.821-1.283-1-.184-1.2-.978-1.725-1.531-.117-.123-.364-.119-.549-.18-.075-.023-2.085-1.355-2.108-1.4-.471-.909-1.426-1.248-2.164-1.839a7.53,7.53,0,0,1-1.524-1.251,6.506,6.506,0,0,0-2.167-1.85c-.5-.282-.618-.763-.973-1.093.353-.658-.5-1.048-.364-1.645a.761.761,0,0,1,.291-.469A1.163,1.163,0,0,0,.891,41.8c.08-.6.221-1.191.335-1.786,1.486-.706.356-2.791,1.841-3.5a8.075,8.075,0,0,1,.547-2.659,6.106,6.106,0,0,0,.941-2.076c.134-.749-.048-1.683.92-2.077a12.641,12.641,0,0,1,.446-2.059c.269-.7,1.037-1.137.986-2.053a1.6,1.6,0,0,1,.907-1.741,2.458,2.458,0,0,1,.895-1.782c.3-.278.167-.975.317-1.454.169-.54.859-.733.895-1.446.039-.765,1.184-1.1.955-2.044.469-.353.645-1.018,1.057-1.3.536-.369.455-1.089,1.068-1.36s.075-1.212.724-1.527c.692-.339.54-1.028.645-1.585.086-.449.513-.631.634-.93.324-.8,1.257-1.224,1.233-2.253-.007-.4.864-.522.779-1.141-.105-.74.791-.859.87-1.445.068-.5.558-.537.775-.847.162-.228.2-.558.394-.745.285-.282.693-.437.975-.722.258-.26.481-.914.608-.888.856.187,1.237-.606,1.868-.779.547-.15,1.078-.353,1.622-.483A25.018,25.018,0,0,0,27.633.055c.54-.218.394.28.61.358A11.165,11.165,0,0,1,30.5,1.593c.469.307,1.262-.025,1.606.611.356.663,1.249.23,1.524.727.324.583.932.668,1.36,1.055C36.1,4.993,37.465,5.7,38.538,6.772c.943-.216,1.294.889,2.044.957,1.021.093,1.192.97,1.709,1.533.057.062.18.068.275.089.478.1,1.007.057,1.276.627.216.458.994.241,1.114.859a12.772,12.772,0,0,1,2.959,2.117,25.607,25.607,0,0,0,3.01,2.654c.41.387,1.076.5,1.278,1.123.21.647.984.588,1.308,1.1.312.492,1.018.5,1.335,1.087.118.219.658.26.923.615.209.282.784.353.893.636.355.916,1.251,1.264,1.9,1.782.617.494,1.2,1.358,2.237,1.226a1.529,1.529,0,0,1,.253.72c.029.34.114.585.478.613a1.471,1.471,0,0,1,1.44.886c.381.97,1.322,1.426,2.03,2.066a5.811,5.811,0,0,1,1.262,1.146c.267.43.511,1.1.884,1.191.834.21.912,1.1,1.472,1.376a4.468,4.468,0,0,1,1.622,1.65c.413.578.795,1.18,1.228,1.741.168.216.471.321.661.522,1.082,1.151,2.39,2.217,1.684,4.106a.384.384,0,0,0,.014.282,2.2,2.2,0,0,1-.472,2.893C73.088,42.654,73.143,43.291,73.149,43.763ZM33.119,65.885a2.271,2.271,0,0,1-1.472-.847c-.351-.355-1.2-.034-1.506-.757-.055-.132-.31-.2-.485-.26-.626-.219-1.372-.021-1.841-.788-.34-.558-1.442-.064-1.686-.973-1.169-.162-1.927-1.2-3.075-1.451-.258-.057-.355-.652-.841-.233-.374.321-1.014.684-.613,1.126.615.675-.087,1.44.294,1.952a1.768,1.768,0,0,1,.148,1.7,3.947,3.947,0,0,0,.474,2.191,7.589,7.589,0,0,0,1.339,2c.105.143.312.33.447.312.827-.112,1.094.788,1.736.934,1.084.244,2.185.4,3.278.6.413-.522,1.306-.2,1.54-.6a2.553,2.553,0,0,1,1.162-1.235c.569-.226.4-.934.848-1.125.615-.258.43-1.126,1.091-1.312.062-.018.1-.121.16-.2C33.74,66.614,33.729,65.937,33.119,65.885Z" transform="translate(0 0)"/>
    <path id="Trazado_114981" data-name="Trazado 114981" d="M60.236,39.194c.25-1.4.508-2.8.747-4.2.06-.348.291-.747-.18-1.009-.128.251-.194.6-.4.734a1.815,1.815,0,0,0-.879,1.462c-.069.706-.26,1.4-.356,2.1-.123.889-1.248,1.3-1.082,2.321-.558.435-1.091.87-1.9.57-.335-.123-.57-.28-.519-.586.536-3.1,1.066-6.21,1.679-9.3a1.7,1.7,0,0,0-.522-1.613,1.144,1.144,0,0,0-.777-.23c-.109,0-.283.266-.321.433a10.08,10.08,0,0,0-.362,2.1c0,.891-.676,1.371-.979,2.059-.278.633-.153,1.451-.463,2.057-.192.378-.661.633-.855,1.128-.077.194-.706.134-1.048.273-.323.13-.733.633-.711-.175.02-.7.28-1.4.342-2.1.073-.856.686-1.743-.084-2.574A22.016,22.016,0,0,0,52,29.658c.014-.683,1.363-1.061.388-1.895,1.319-.474-.253-1.314.239-1.891-.176-.918-1.28-.882-1.661-1.6-.025-.046-.39-.005-.415.061a3.2,3.2,0,0,0-.189.884,1.542,1.542,0,0,1-.866,1.438c.317.389.617.709-.064,1.116-.246.148-.257.713-.346,1.093a8.065,8.065,0,0,1-.237,1.192c-.123.307-.463.524-.593.831-.08.187.57.488.16.652-.991.4-.2,1.948-1.453,2.107-.184.023-.36.176-.535.168a1.113,1.113,0,0,1-.508-.237.312.312,0,0,1-.107-.255c.112-.839.479-1.684-.078-2.5,1.055-.528-.194-1.29.209-1.984a6.542,6.542,0,0,0,.419-2.076l.43-2.4c.126-.7.271-1.4.369-2.1.053-.381.182-.879,0-1.134-.25-.358-.9-.342-1.093-.88-.011-.027-.15-.039-.2-.012-.085.041-.2.112-.219.187a16.567,16.567,0,0,1-.406,2.091c-.205.617-.93.948-.934,1.752a11.769,11.769,0,0,1-.355,2.1,2.335,2.335,0,0,1-.173.558.482.482,0,0,1-.242.175c-.692.312-.253,1.208-.732,1.522-.463.3-.551.781-.847,1.146a1.655,1.655,0,0,1-.5.349,3.4,3.4,0,0,1-.467.18,1.874,1.874,0,0,1-.112-.551,6.33,6.33,0,0,1,.214-1.2,1.635,1.635,0,0,0-.3-1.64c1.281-.453-.173-1.26.255-1.957a7.016,7.016,0,0,0,.483-2.367q.187-1.051.376-2.1c.144-.8.255-1.608.442-2.4a1.638,1.638,0,0,0-.3-1.389c-.41-.622-1.011-.561-1.584-.572-.287-.005-.291.187-.15.4a1.335,1.335,0,0,1,.282.791c-.232,1.506-.567,3-.765,4.506-.079.608-.611.756-.818,1.157-.221.433-.134,1.016-.319,1.476a3.858,3.858,0,0,1-.813,1.144,6.153,6.153,0,0,1-1.118.891c-.118.077-.661-1.258-.6-1.579.139-.8.285-1.6.428-2.4l.431-2.4c-.738-.69-.333-1.492-.212-2.258.128-.8.285-1.6.426-2.4a5.466,5.466,0,0,0,.3-2.082C37.392,12.794,36.4,12.7,36.11,12c-.061-.146-.116-.734-.565-.333-.125.112-.143.351-.2.535a.548.548,0,0,0-.05.3c.727,2.231-.344,4.31-.554,6.459a5.667,5.667,0,0,1-1.9,2.454c-.317.164-.928-.153-.918-.476.027-.765.642-1.551-.082-2.289a16.536,16.536,0,0,1,.262-2.066c.182-.724-.668-1.189-.317-1.978a9.138,9.138,0,0,0,.406-2.085c-.731-.929-.21-1.9-.111-2.861.039-.385.182-.87.011-1.139-.237-.369-.912-.332-1.094-.877-.011-.032-.146-.052-.2-.029-.087.037-.21.109-.225.182-.175.9-.276,1.814-.512,2.693a2.027,2.027,0,0,0,.289,1.631c-.838.323-.738,1.114-.875,1.779a10.85,10.85,0,0,0-.308,1.8c-.025.77-.667,1.171-.9,1.761-.273.677-.611.608-1.135.54a1.161,1.161,0,0,1-.925-.659c-.1-.176-.234-.332-.335-.508a.807.807,0,0,1,.223-.168c.4-.2.747-.635.519-.936a1.872,1.872,0,0,1-.266-1.691c.184-.9.36-1.795.481-2.7.141-1.052.722-2.117-.045-3.158a15.969,15.969,0,0,1,.394-2.094,1.42,1.42,0,0,0-.718-1.779c-.479-.233-.706-.654-1.121-.871a.633.633,0,0,0-.56-.016c-.421.369-.465,1.052-1.057,1.294.95,1.28-.005,2.519-.116,3.764-.114,1.31-.554,2.6-.633,3.905-.053.927-.964,1.175-1.175,1.966-.1.365-.952-.084-1.3.424-.127.182-.387.093-.38-.178a6.832,6.832,0,0,1,.223-1.49c.155-.62-.668-.982-.353-1.67a6.235,6.235,0,0,0,.29-1.49,9.23,9.23,0,0,1,.342-1.793c.4-1-.638-1.834-.167-2.886a5.629,5.629,0,0,0,.47-2.677,3.826,3.826,0,0,0-.87-2.4c-.064-.066-.127-.2-.182-.191a.32.32,0,0,0-.242.162A5.815,5.815,0,0,1,19.185,1.9c-.307.476-.843.7-.23,1.362.164.176.005.854-.216,1.139-.273.353-.9.492-.3,1.075.027.025-.155.244-.219.383C17.859,6.625,17.157,7.14,16.84,8a10.868,10.868,0,0,0-1.021,2.358c-.057.412-.545.75-.777,1.155-.189.328.032.84-.435,1.059-.421.2-.49.572-.576.977-.055.266-.2.645-.4.725-1.255.494-1.169,1.969-2.06,2.711.121.811-.752,1.121-.9,1.75s-.283,1.157-.905,1.437c.1.818-1.077.9-.984,1.711-.65.193-.738.875-1.084,1.315C6.012,25.34,4.408,27.55,2.773,29.735c-.112.152-.367.3-.356.428.078,1.019-.7,1.374-1.362,1.813-.428.283-.24.993-.852,1.135-.259.061-.28.3-.011.413a5.746,5.746,0,0,0,1.16.28c1.2.223,2.392.517,3.6.62.861.073,1.38.642,2.059.977a8.035,8.035,0,0,0,2.082.413l2.4.43c.556,1.151,1.732.807,2.647,1.084.57.171.7.932,1.442.918a1.8,1.8,0,0,1,1.365.458c.925.88,2.2.773,3.36.848a1.275,1.275,0,0,0,.936-.692,1.554,1.554,0,0,1,1.766-1.173c1.06-1.1,2.317-.955,3.62-.6.481.134,1.1.077,1.433.364.381.324.649.718,1.21.743.184.007.5.084.524.189.273,1.011,1.526.4,1.939,1.2.107.207.492.255.718.419a1.093,1.093,0,0,1,.374.453c.348.891,1.335,1.091,1.907,1.761a2.641,2.641,0,0,0,.882.663,3.137,3.137,0,0,1,1.609,1.659,6.415,6.415,0,0,1,.638,1.87c.152.774-.672,1.151-.871,1.756s-1.039.692-.925,1.431c.045.28-.078.708.071.829.506.41,1.1,1.005,1.658,1,1.217-.021,1.747,1.381,2.946,1.207.276,1.091,1.528.647,2.15,1.383a6.927,6.927,0,0,0,2.018,1.5c.754.4,1.2,1.26,2.151,1.351.178.016.439.109.5.241.511,1.121,1.8,1.5,2.388,2.584.328.611.105,1.394.7,1.875-.308.788.827,1.431.232,2.271-.064.089.109.344.171.522l.492-.3c.346-.212.72-.433.67-.9-.08-.729.72-.893.879-1.447.134-.467.05-1.027.631-1.273.091-.037.228-.1.242-.173.141-.7.221-1.406.4-2.092.168-.643,1-.918.937-1.749-.077-1.028,1.16-1.52,1.116-2.645a12.891,12.891,0,0,1,.444-2.7c1.313-1.214.966-2.955,1.415-4.443.221-.733-.027-1.674.921-2.087.128-.585.273-1.169.383-1.759C59.813,41.595,60.02,40.393,60.236,39.194Z" transform="translate(9.765 3.974)" fill="#fff"/>
    <path id="Trazado_114982" data-name="Trazado 114982" d="M7.573.59l-.3-.053L4.276,0,1.26,2.012.066,3.921c-.078.39-.187.745.341.979.421.185.736.618,1.158.786.626.246.889,1.048,1.736.977.61-.053.713.8,1.4.954.561.123.929.966,1.5,1.257.674.342,1.474.44,1.962,1.114.8-.1,1.143.674,1.749.913.627.248.9.989,1.736.994.626,0,.916.932,1.741.921.551-.007.711.943,1.442.848.618-.08.7.715,1.148.8.711.125.886,1.044,1.739.986.681-.046.9.97,1.739.948.374-.009.729.583,1.152.754.447.182,1.016.091,1.244.679a.362.362,0,0,0,.191.214,6.85,6.85,0,0,1,1.759.392A8.171,8.171,0,0,1,25.3,19.755c.437.408,1.235.027,1.549.711s1.232.193,1.522.727a1.425,1.425,0,0,0,1.542.7c.886-.094.893,1.055,1.749,1.007a1.441,1.441,0,0,1,1.568.659c.266.51.922.433,1.369.417,1.192-.039,1.739,1.3,2.907,1.257a.806.806,0,0,1,.132.519c-.08.355.061.7.337.693,1.075-.037,1.75.845,2.656,1.066.658.16.884.768,1.433.918.585.159,1.2.217,1.793.335.672.134.9,1.048,1.745.948.638-.075,1.041.353,1.481.82.28.3.961.2,1.458.312.577.123.7.936,1.444.895a3.6,3.6,0,0,1,1.488.271c.33.134.531.579.863.722a3.044,3.044,0,0,0,1.167.132c.185,0,.631-1.11.437-1.342a1.992,1.992,0,0,1-.328-1.681c.037-.438-.274-.9-.328-1.356-.045-.374.012-.736-.062-1.139a7.738,7.738,0,0,0-1.5-2.839c-.111-.171-.2-.447-.351-.483-.889-.214-1.093-1.094-1.667-1.592-.258-.225-.665-.285-.938-.626-.481-.6-1.65-.153-1.909-1.178C45,19.675,43.6,18.069,41.8,17.048c-.228-.588-.806-.479-1.249-.665a4.16,4.16,0,0,1-1.144-.811,20.42,20.42,0,0,0-1.788-1.392c-.576-.419-1.385-.547-1.959-1.114-.533-.524-1.3-.8-1.772-1.385-.431-.531-1.175-.1-1.586-.686-.258-.365-.82-.519-1.078-.886-.431-.61-1.066-.494-1.624-.6-.46-.087-.6-.487-.907-.681a6.341,6.341,0,0,0-2.567-1.249c-.7-.1-1.132-1.094-2.048-.936-.333-.772-1.044-.813-1.74-.943a3.712,3.712,0,0,1-2.4-.98c-.453-.492-1.59,0-2.091-.9-.107-.187-.522-.2-.8-.294-.836-.269-1.827-.043-2.522-.756s-1.839-.3-2.474-.82A4.11,4.11,0,0,0,9.97,1.016C9.168.889,8.372.732,7.573.59Z" transform="translate(3.483 40.277)" fill="#fff"/>
  </g>
</svg>
