<svg id="Grupo_162235" data-name="Grupo 162235" xmlns="http://www.w3.org/2000/svg" width="70.372" height="63.663" viewBox="0 0 70.372 63.663">
  <g id="Grupo_81065" data-name="Grupo 81065" transform="translate(0 2.049)" style="mix-blend-mode: overlay;isolation: isolate">
    <path id="Trazado_115015" data-name="Trazado 115015" d="M142.276,217.349c4.163,4.26,8.465,8.363,12.85,12.394-1.9-4.286-3.939-8.5-5.739-12.834-2.04-4.91-4.412-11.6-1.84-16.752,5.862-11.738,20.68-.22,26.133,5.688.581.63,1.135,1.287,1.7,1.937-1.948-4.771-3.7-9.674-3.239-14.829.637-7.088,7.135-8.788,12.729-5.495,6.007,3.536,10.832,9.654,14.86,15.211,3.422,4.72-4.408,9.213-7.8,4.561a61.376,61.376,0,0,0-6.1-7.135q.486.89.982,1.777a132.442,132.442,0,0,1,6.134,11.951c3.415,7.879,8.465,18.788,4.169,27.076-2.165,4.177-7.243,4.6-11.065,2.9-5.139-2.285-8.7-7.328-12.129-11.6-3.582-4.457-6.736-9.189-10.052-13.84a67.35,67.35,0,0,0-4.356-5.7c-.036-.041-.074-.079-.111-.12l.04.125c.88,2.737,2.012,5.364,3.159,8,2.133,4.9,4.884,10.058,5.665,15.389.69,4.714-1.218,10-6.888,9.656-5.33-.321-9.6-5.456-13.166-8.884-4.315-4.153-8.553-8.387-12.792-12.618C130.988,219.793,137.9,212.875,142.276,217.349Z" transform="translate(-133.123 -184.977)" fill="#3c384f"/>
    <path id="Trazado_115016" data-name="Trazado 115016" d="M161.736,246.456a6.774,6.774,0,0,0,5.159-2.141c1.8-1.955,2.571-5.14,2.076-8.52-.645-4.406-2.567-8.626-4.425-12.706-.445-.977-.886-1.945-1.3-2.9-.395-.908-.811-1.862-1.223-2.849q.378.528.749,1.049l.245.345c.861,1.208,1.712,2.421,2.561,3.634,2.386,3.4,4.853,6.925,7.521,10.245.39.485.781.98,1.177,1.48,3.06,3.869,6.527,8.254,11.274,10.364,4.232,1.879,9.775,1.353,12.182-3.293,4.326-8.346-.345-19.085-3.756-26.927l-.387-.892c-1-2.317-2.128-4.578-3.321-6.829q.415.54.814,1.089a5.752,5.752,0,0,0,8.117,1.128,4.56,4.56,0,0,0,1.084-6.706c-4.3-5.932-9.109-11.909-15.122-15.449-3.337-1.964-6.989-2.283-9.773-.853-2.45,1.259-3.962,3.75-4.255,7.015a26.464,26.464,0,0,0,1.681,10.992c-4.437-4.335-12.643-10.483-19.226-9.551-3.024.429-5.365,2.265-6.957,5.454-2.62,5.245-.553,11.775,1.815,17.47,1.127,2.711,2.366,5.416,3.564,8.032l.424.925c-3.566-3.344-6.756-6.459-9.684-9.454h0a5.192,5.192,0,0,0-5.172-1.536,6.367,6.367,0,0,0-4.405,4.373,5.239,5.239,0,0,0,1.488,5.24l.482.48c4.014,4.006,8.164,8.148,12.322,12.148.512.493,1.039,1.021,1.581,1.566,3.228,3.236,7.245,7.264,12.131,7.559C161.365,246.45,161.552,246.456,161.736,246.456Zm-2.479-34.874a.816.816,0,0,0-.418.111.841.841,0,0,0-.408.981l.041.126c.923,2.87,2.126,5.636,3.188,8.076.421.967.866,1.943,1.314,2.928,1.808,3.971,3.677,8.077,4.287,12.241.414,2.827-.214,5.548-1.639,7.1a5.187,5.187,0,0,1-4.341,1.568c-4.23-.256-7.834-3.868-11.013-7.055-.551-.552-1.086-1.089-1.606-1.59-4.147-3.989-8.292-8.126-12.3-12.126l-.481-.48a3.514,3.514,0,0,1-1.041-3.563,4.651,4.651,0,0,1,3.172-3.153,3.462,3.462,0,0,1,3.5,1.071h0c3.782,3.868,8,7.933,12.884,12.425a.864.864,0,0,0,1.375-.986c-.716-1.62-1.454-3.23-2.192-4.84-1.192-2.6-2.425-5.293-3.539-7.976-2.218-5.335-4.173-11.412-1.865-16.034,1.342-2.689,3.192-4.166,5.655-4.515,6.137-.869,14.769,5.743,19.069,10.4.459.5.9,1.011,1.343,1.526l.334.39a.864.864,0,0,0,1.454-.891c-1.855-4.545-3.629-9.4-3.178-14.426.242-2.692,1.391-4.639,3.323-5.632,2.253-1.158,5.284-.856,8.107.8,5.739,3.379,10.409,9.194,14.6,14.974a2.865,2.865,0,0,1-.7,4.294,4,4,0,0,1-5.7-.75,62.575,62.575,0,0,0-6.185-7.236.864.864,0,0,0-1.371,1.024q.489.894.988,1.785A132.2,132.2,0,0,1,192,214.031l.388.893c3.273,7.523,7.754,17.827,3.807,25.442-1.917,3.7-6.455,4.06-9.947,2.509-4.357-1.936-7.542-5.963-10.62-9.857-.4-.5-.793-1-1.186-1.491-2.632-3.276-5.082-6.773-7.452-10.154q-1.278-1.825-2.569-3.645l-.245-.344a64.287,64.287,0,0,0-4.168-5.43l-.077-.084A.943.943,0,0,0,159.257,211.581Zm-17.126,5.631h0Z" transform="translate(-132.979 -184.841)" fill="#3c384f"/>
    <path id="Trazado_115017" data-name="Trazado 115017" d="M140.253,223.2c3.183,6.4,4.98,13.9,2.183,20.774-.413,1.017-2.085.572-1.666-.46,2.625-6.456.985-13.425-2.009-19.442C138.266,223.085,139.757,222.208,140.253,223.2Z" transform="translate(-80.408 -189.996)" fill="#3c384f"/>
    <path id="Trazado_115018" data-name="Trazado 115018" d="M143.382,243.645c.015,0,.029-.006.042-.009.024-.047.046-.1.054-.111l0-.005c0-.007,0,0,0-.012.111-.386.191-.777.276-1.17q.293-1.367.587-2.735a.87.87,0,0,1,1.063-.6.884.884,0,0,1,.6,1.063q-.332,1.546-.664,3.093c-.184.858-.479,1.984-1.507,2.156a.885.885,0,0,1-1.063-.6A.874.874,0,0,1,143.382,243.645Z" transform="translate(-86.161 -192.198)" fill="#3c384f"/>
    <path id="Trazado_115019" data-name="Trazado 115019" d="M189.622,201.706c.981-.524,1.854.968.872,1.492a4,4,0,0,0-1.824,3.646,24.991,24.991,0,0,0,.39,4.954,32.876,32.876,0,0,0,3,9.282c.493.993-1,1.869-1.492.872a34.581,34.581,0,0,1-3.354-10.931C186.806,207.906,186.318,203.469,189.622,201.706Z" transform="translate(-170.444 -187.118)" fill="#3c384f"/>
  </g>
  <g id="Grupo_81068" data-name="Grupo 81068" transform="translate(2.049 0)">
    <g id="Grupo_81067" data-name="Grupo 81067">
      <g id="Grupo_81066" data-name="Grupo 81066">
        <path id="Trazado_115020" data-name="Trazado 115020" d="M139.9,214.977c4.163,4.26,8.465,8.363,12.85,12.393-1.9-4.285-3.94-8.5-5.74-12.833-2.04-4.91-4.411-11.6-1.84-16.752,5.862-11.738,20.68-.221,26.133,5.688.582.629,1.135,1.287,1.7,1.937-1.948-4.771-3.7-9.674-3.239-14.829.637-7.088,7.135-8.788,12.729-5.5,6.008,3.537,10.832,9.655,14.861,15.212,3.422,4.72-4.408,9.213-7.8,4.561a61.451,61.451,0,0,0-6.1-7.135q.486.89.982,1.778a132.547,132.547,0,0,1,6.134,11.95c3.416,7.88,8.465,18.788,4.169,27.077-2.165,4.177-7.242,4.6-11.065,2.9-5.139-2.285-8.7-7.328-12.129-11.6-3.582-4.457-6.735-9.189-10.051-13.84a67.878,67.878,0,0,0-4.356-5.7c-.036-.041-.075-.079-.111-.12l.04.126c.88,2.737,2.013,5.364,3.159,8,2.133,4.9,4.884,10.057,5.665,15.389.691,4.714-1.218,10-6.888,9.656-5.33-.321-9.6-5.456-13.165-8.884-4.316-4.153-8.554-8.388-12.793-12.619C128.616,217.422,135.532,210.5,139.9,214.977Z" transform="translate(-130.751 -182.606)" fill="#3c3fa7"/>
        <path id="Trazado_115021" data-name="Trazado 115021" d="M159.365,244.084a6.771,6.771,0,0,0,5.158-2.14c1.8-1.955,2.571-5.14,2.076-8.521-.645-4.4-2.566-8.625-4.425-12.706-.444-.977-.885-1.944-1.3-2.9-.395-.908-.81-1.862-1.223-2.849.252.351.5.7.749,1.049l.245.344c.861,1.208,1.712,2.422,2.562,3.634,2.385,3.405,4.852,6.926,7.52,10.245.39.486.781.981,1.177,1.481,3.06,3.868,6.527,8.254,11.274,10.364,4.233,1.879,9.775,1.352,12.182-3.294,4.326-8.345-.345-19.085-3.755-26.927l-.388-.891c-1-2.317-2.128-4.578-3.321-6.829q.413.54.814,1.088a5.75,5.75,0,0,0,8.116,1.129,4.56,4.56,0,0,0,1.084-6.706c-4.3-5.932-9.109-11.909-15.121-15.449-3.338-1.963-6.989-2.282-9.773-.852-2.45,1.259-3.961,3.749-4.255,7.014a26.448,26.448,0,0,0,1.682,10.992c-4.438-4.334-12.643-10.482-19.226-9.55-3.024.429-5.366,2.265-6.958,5.454-2.619,5.245-.552,11.774,1.815,17.47,1.127,2.711,2.366,5.416,3.564,8.031l.424.925c-3.566-3.343-6.756-6.458-9.684-9.453h0a5.191,5.191,0,0,0-5.172-1.535,6.364,6.364,0,0,0-4.4,4.373,5.235,5.235,0,0,0,1.487,5.239l.482.481c4.014,4.006,8.164,8.147,12.322,12.148.512.493,1.039,1.021,1.582,1.566,3.227,3.236,7.244,7.264,12.131,7.559C158.995,244.078,159.181,244.084,159.365,244.084Zm-2.479-34.874a.814.814,0,0,0-.418.112.84.84,0,0,0-.409.981l.041.126c.923,2.87,2.126,5.636,3.188,8.076.421.966.866,1.942,1.314,2.928,1.809,3.971,3.678,8.077,4.288,12.24.414,2.827-.214,5.548-1.64,7.1a5.189,5.189,0,0,1-4.341,1.568c-4.23-.256-7.834-3.868-11.012-7.055-.551-.553-1.087-1.09-1.607-1.59-4.147-3.989-8.292-8.126-12.3-12.126l-.481-.481a3.513,3.513,0,0,1-1.04-3.563,4.649,4.649,0,0,1,3.172-3.152,3.461,3.461,0,0,1,3.5,1.071h0c3.782,3.868,8,7.933,12.884,12.426a.864.864,0,0,0,1.375-.986c-.716-1.62-1.454-3.23-2.191-4.84-1.192-2.6-2.425-5.292-3.54-7.975-2.217-5.335-4.173-11.412-1.865-16.034,1.343-2.688,3.193-4.165,5.655-4.515,6.137-.868,14.769,5.743,19.07,10.4.458.5.9,1.012,1.342,1.526l.335.391a.864.864,0,0,0,1.454-.892c-1.856-4.544-3.63-9.4-3.179-14.426.242-2.692,1.391-4.64,3.323-5.633,2.254-1.157,5.284-.855,8.107.805,5.74,3.378,10.409,9.194,14.6,14.974a2.863,2.863,0,0,1-.7,4.294,4,4,0,0,1-5.7-.749,62.418,62.418,0,0,0-6.185-7.236.864.864,0,0,0-1.37,1.023q.489.9.987,1.786a132.207,132.207,0,0,1,6.1,11.872l.388.893c3.272,7.523,7.753,17.827,3.806,25.441-1.917,3.7-6.455,4.061-9.947,2.51-4.357-1.936-7.542-5.964-10.62-9.857q-.6-.756-1.185-1.491c-2.633-3.275-5.082-6.772-7.453-10.154-.852-1.217-1.7-2.434-2.569-3.646l-.245-.343a64.314,64.314,0,0,0-4.167-5.43l-.078-.084A.942.942,0,0,0,156.886,209.209Zm-17.126,5.632h0Z" transform="translate(-130.608 -182.47)"/>
      </g>
      <path id="Trazado_115022" data-name="Trazado 115022" d="M137.881,220.834c3.184,6.4,4.98,13.9,2.184,20.774-.414,1.016-2.086.572-1.667-.46,2.626-6.457.986-13.425-2.009-19.442C135.9,220.713,137.385,219.837,137.881,220.834Z" transform="translate(-78.037 -187.625)"/>
      <path id="Trazado_115023" data-name="Trazado 115023" d="M141.011,241.274c.015,0,.029-.006.042-.009.024-.048.047-.1.054-.111l0-.005c0-.007,0,0,0-.013.111-.385.192-.777.276-1.169q.294-1.367.587-2.735a.871.871,0,0,1,1.064-.6.884.884,0,0,1,.6,1.063l-.664,3.092c-.185.859-.48,1.985-1.508,2.157a.886.886,0,0,1-1.063-.6A.875.875,0,0,1,141.011,241.274Z" transform="translate(-83.791 -189.827)"/>
      <path id="Trazado_115024" data-name="Trazado 115024" d="M187.251,199.335c.981-.524,1.855.968.872,1.492a4,4,0,0,0-1.824,3.645,25,25,0,0,0,.39,4.955,32.877,32.877,0,0,0,3,9.282c.494.993-1,1.869-1.492.872a34.616,34.616,0,0,1-3.354-10.931C184.434,205.534,183.947,201.1,187.251,199.335Z" transform="translate(-168.073 -184.747)"/>
    </g>
  </g>
</svg>
