<svg xmlns="http://www.w3.org/2000/svg" xmlns:xlink="http://www.w3.org/1999/xlink" width="398.171" height="983.369" viewBox="0 0 398.171 983.369">
  <defs>
    <clipPath id="clip-path">
      <rect id="Rect치ngulo_38876" data-name="Rect치ngulo 38876" width="398.17" height="979.369" rx="23" transform="translate(-6116 -9532.369)" fill="#fff0f1"/>
    </clipPath>
  </defs>
  <g id="Grupo_162279" data-name="Grupo 162279" transform="translate(6198 9021.369)">
    <rect id="Rect치ngulo_4933" data-name="Rect치ngulo 4933" width="398.17" height="983.369" rx="23" transform="translate(-6198 -9021.369)" fill="#fff0f1"/>
    <g id="Enmascarar_grupo_167" data-name="Enmascarar grupo 167" transform="translate(-82 515)" clip-path="url(#clip-path)">
      <g id="Grupo_161185" data-name="Grupo 161185" transform="translate(-5810.673 -8622.591)">
        <g id="Grupo_161181" data-name="Grupo 161181" transform="translate(3.998)" style="isolation: isolate">
          <path id="Trazado_140685" data-name="Trazado 140685" d="M247.769,242.538c-8.125-8.51-16.522-16.707-25.078-24.76,3.7,8.562,7.688,16.987,11.2,25.639,3.982,9.808,8.611,23.177,3.59,33.465-11.441,23.45-40.361.44-51-11.363-1.133-1.258-2.216-2.572-3.312-3.87,3.8,9.532,7.226,19.326,6.322,29.624-1.243,14.16-13.925,17.557-24.842,10.977-11.724-7.063-21.141-19.286-29-30.387-6.678-9.428,8.6-18.4,15.228-9.111A121.9,121.9,0,0,0,162.776,277q-.949-1.779-1.917-3.551a266.971,266.971,0,0,1-11.972-23.874c-6.665-15.741-16.522-37.534-8.137-54.091,4.226-8.344,14.135-9.192,21.6-5.8,10.029,4.564,16.975,14.64,23.672,23.167,6.99,8.9,13.147,18.358,19.618,27.648a134.274,134.274,0,0,0,8.5,11.389c.071.083.145.159.216.24l-.078-.25c-1.718-5.468-3.928-10.716-6.165-15.977-4.162-9.789-9.532-20.092-11.056-30.743-1.347-9.418,2.378-19.973,13.444-19.29,10.4.642,18.741,10.9,25.7,17.748,8.422,8.3,16.694,16.756,24.967,25.207C269.8,237.655,256.3,251.474,247.769,242.538Z" transform="translate(-132.285 -184.118)" fill="#ffc1c3"/>
          <path id="Trazado_140686" data-name="Trazado 140686" d="M210.2,184.841a13.073,13.073,0,0,0-10.07,4.277c-3.5,3.906-5.019,10.269-4.052,17.02,1.26,8.8,5.01,17.232,8.636,25.383.868,1.952,1.729,3.886,2.541,5.8.771,1.814,1.582,3.72,2.386,5.691q-.739-1.054-1.462-2.1l-.479-.689q-2.522-3.62-5-7.26c-4.656-6.8-9.471-13.835-14.678-20.467-.761-.968-1.525-1.957-2.3-2.957-5.972-7.73-12.739-16.49-22-20.705-8.26-3.754-19.078-2.7-23.777,6.578-8.444,16.673.673,38.127,7.331,53.792l.756,1.781c1.958,4.628,4.154,9.145,6.483,13.642q-.81-1.08-1.589-2.175c-4.1-5.745-11.27-5.658-15.842-2.254-3.781,2.815-5.9,8.049-2.115,13.4,8.393,11.85,17.778,23.792,29.514,30.862,6.513,3.924,13.641,4.56,19.073,1.7,4.783-2.515,7.732-7.492,8.3-14.015.671-7.65-.943-14.973-3.282-21.958,8.66,8.66,24.675,20.942,37.524,19.081,5.9-.858,10.471-4.524,13.579-10.9,5.113-10.478,1.079-23.522-3.541-34.9-2.2-5.417-4.617-10.82-6.956-16.046l-.828-1.849c6.96,6.68,13.186,12.9,18.9,18.886v0a9.985,9.985,0,0,0,10.095,3.069,12.572,12.572,0,0,0,8.6-8.736,10.628,10.628,0,0,0-2.9-10.467l-.941-.96c-7.833-8-15.933-16.278-24.048-24.268-1-.986-2.027-2.04-3.086-3.128-6.3-6.464-14.141-14.512-23.677-15.1C210.926,184.851,210.562,184.841,210.2,184.841Zm4.838,69.669a1.564,1.564,0,0,0,.816-.223,1.7,1.7,0,0,0,.8-1.959l-.079-.252c-1.8-5.734-4.15-11.26-6.223-16.134-.821-1.932-1.69-3.882-2.565-5.85-3.528-7.933-7.177-16.136-8.368-24.454-.808-5.648.418-11.084,3.2-14.184a9.994,9.994,0,0,1,8.472-3.133c8.257.511,15.289,7.726,21.493,14.094,1.076,1.1,2.12,2.175,3.135,3.176,8.093,7.97,16.183,16.233,24.006,24.225l.939.96a7.132,7.132,0,0,1,2.032,7.119,9.186,9.186,0,0,1-6.191,6.3,6.655,6.655,0,0,1-6.833-2.139v0c-7.381-7.728-15.606-15.848-25.146-24.822a1.655,1.655,0,0,0-2.123-.131,1.749,1.749,0,0,0-.56,2.1c1.4,3.237,2.838,6.452,4.278,9.668,2.326,5.2,4.732,10.574,6.907,15.934,4.329,10.657,8.145,22.8,3.639,32.031-2.619,5.372-6.23,8.322-11.038,9.019-11.979,1.737-28.824-11.472-37.217-20.783-.9-.991-1.757-2.02-2.621-3.048l-.653-.779a1.656,1.656,0,0,0-2.159-.344,1.746,1.746,0,0,0-.68,2.123c3.621,9.08,7.083,18.784,6.2,28.82-.472,5.377-2.715,9.268-6.486,11.251-4.4,2.313-10.312,1.711-15.822-1.607-11.2-6.751-20.314-18.366-28.493-29.914-2.584-3.649-.988-6.825,1.368-8.579,3.191-2.373,8.176-2.653,11.134,1.5a124.28,124.28,0,0,0,12.071,14.455,1.657,1.657,0,0,0,2.2.166,1.755,1.755,0,0,0,.472-2.211q-.954-1.787-1.928-3.566c-4.324-7.909-8.489-15.675-11.894-23.717l-.757-1.785c-6.388-15.03-15.134-35.614-7.43-50.827,3.742-7.39,12.6-8.111,19.414-5.013,8.5,3.868,14.719,11.912,20.728,19.692.777,1,1.548,2,2.315,2.978,5.137,6.544,9.918,13.53,14.544,20.286q2.494,3.646,5.014,7.283l.479.687a128.131,128.131,0,0,0,8.135,10.847l.15.167A1.821,1.821,0,0,0,215.041,254.51Zm33.425-11.249h0Z" transform="translate(-132.979 -184.841)" fill="#ffc1c3"/>
          <path id="Trazado_140687" data-name="Trazado 140687" d="M145.627,265.414c-6.213-12.78-9.719-27.764-4.26-41.5.806-2.032,4.069-1.143,3.251.918-5.123,12.9-1.923,26.819,3.921,38.84C149.5,265.654,146.6,267.406,145.627,265.414Z" transform="translate(-129.079 -208.667)" fill="#ffc1c3"/>
          <path id="Trazado_140688" data-name="Trazado 140688" d="M147.938,242.326c-.029,0-.056.012-.083.017-.047.093-.089.2-.1.223l-.008.01c0,.014,0,0,0,.024-.218.772-.373,1.552-.538,2.337q-.572,2.732-1.145,5.463a1.694,1.694,0,0,1-2.074,1.2,1.772,1.772,0,0,1-1.179-2.123q.648-3.089,1.3-6.18c.359-1.714.934-3.963,2.941-4.307a1.723,1.723,0,0,1,2.074,1.207A1.751,1.751,0,0,1,147.938,242.326Z" transform="translate(-126.268 -222.013)" fill="#ffc1c3"/>
          <path id="Trazado_140689" data-name="Trazado 140689" d="M191.87,242.92c-1.914,1.046-3.619-1.933-1.7-2.981,2.648-1.447,3.455-4.391,3.56-7.284a51.075,51.075,0,0,0-.761-9.9,66.781,66.781,0,0,0-5.854-18.542c-.963-1.983,1.944-3.734,2.912-1.742a70.277,70.277,0,0,1,6.547,21.838C197.368,230.533,198.319,239.4,191.87,242.92Z" transform="translate(-95.953 -148.972)" fill="#ffc1c3"/>
        </g>
        <g id="Grupo_161184" data-name="Grupo 161184" transform="translate(0 4.094)">
          <g id="Grupo_161183" data-name="Grupo 161183">
            <g id="Grupo_161182" data-name="Grupo 161182">
              <path id="Trazado_140690" data-name="Trazado 140690" d="M245.4,240.167c-8.125-8.51-16.522-16.707-25.08-24.758,3.7,8.56,7.69,16.987,11.2,25.637,3.982,9.808,8.609,23.177,3.59,33.465-11.441,23.45-40.361.442-51-11.363-1.135-1.257-2.216-2.57-3.312-3.87,3.8,9.532,7.225,19.326,6.322,29.624-1.243,14.16-13.925,17.557-24.842,10.978-11.726-7.065-21.141-19.288-29-30.389-6.678-9.428,8.6-18.4,15.23-9.111a122.044,122.044,0,0,0,11.9,14.255q-.949-1.779-1.916-3.552c-4.272-7.811-8.491-15.653-11.972-23.873-6.666-15.743-16.522-37.534-8.137-54.092,4.226-8.344,14.134-9.192,21.6-5.8,10.029,4.564,16.975,14.64,23.672,23.167,6.99,8.9,13.146,18.358,19.616,27.648a135.3,135.3,0,0,0,8.5,11.391c.071.081.147.157.218.24l-.078-.252c-1.718-5.468-3.929-10.716-6.165-15.977-4.164-9.787-9.532-20.091-11.056-30.743-1.349-9.418,2.378-19.973,13.444-19.29,10.4.642,18.739,10.9,25.694,17.748,8.424,8.3,16.7,16.757,24.969,25.209C267.428,235.283,253.932,249.1,245.4,240.167Z" transform="translate(-129.915 -181.748)" fill="#ff9fa3"/>
              <path id="Trazado_140691" data-name="Trazado 140691" d="M207.83,182.47a13.068,13.068,0,0,0-10.068,4.276c-3.5,3.906-5.019,10.269-4.052,17.022,1.258,8.8,5.009,17.23,8.636,25.383.867,1.952,1.727,3.884,2.541,5.8.771,1.814,1.582,3.72,2.386,5.691-.492-.7-.98-1.4-1.462-2.1l-.479-.687c-1.681-2.413-3.341-4.838-5-7.26-4.654-6.8-9.469-13.837-14.677-20.467q-1.141-1.455-2.3-2.959c-5.972-7.728-12.739-16.488-22-20.705-8.262-3.754-19.078-2.7-23.777,6.58-8.444,16.671.673,38.126,7.329,53.792l.757,1.78c1.958,4.628,4.154,9.145,6.481,13.642q-.807-1.08-1.589-2.173c-4.095-5.746-11.269-5.66-15.84-2.256-3.781,2.815-5.9,8.049-2.115,13.4,8.393,11.85,17.778,23.792,29.512,30.864,6.515,3.922,13.641,4.559,19.075,1.7,4.783-2.515,7.73-7.49,8.3-14.013.671-7.65-.943-14.974-3.283-21.958,8.661,8.658,24.675,20.94,37.524,19.079,5.9-.858,10.473-4.524,13.581-10.9,5.111-10.478,1.078-23.521-3.541-34.9-2.2-5.415-4.617-10.819-6.956-16.045l-.828-1.849c6.96,6.679,13.186,12.9,18.9,18.884h0a9.984,9.984,0,0,0,10.095,3.067,12.567,12.567,0,0,0,8.6-8.736,10.62,10.62,0,0,0-2.9-10.466l-.941-.962c-7.833-8-15.933-16.276-24.048-24.268-1-.986-2.027-2.04-3.088-3.128-6.3-6.464-14.139-14.512-23.675-15.1C208.553,182.48,208.191,182.47,207.83,182.47Zm4.838,69.669a1.562,1.562,0,0,0,.816-.224,1.693,1.693,0,0,0,.8-1.959l-.079-.252c-1.8-5.733-4.15-11.26-6.223-16.134-.821-1.93-1.69-3.88-2.565-5.85-3.53-7.933-7.179-16.136-8.37-24.453-.808-5.648.418-11.084,3.2-14.186a10,10,0,0,1,8.472-3.133c8.257.511,15.289,7.726,21.492,14.094,1.076,1.1,2.121,2.177,3.137,3.176,8.093,7.97,16.183,16.233,24.006,24.225l.939.961a7.13,7.13,0,0,1,2.03,7.119,9.18,9.18,0,0,1-6.191,6.3,6.653,6.653,0,0,1-6.832-2.139h0c-7.381-7.728-15.606-15.848-25.146-24.824a1.655,1.655,0,0,0-2.123-.131,1.747,1.747,0,0,0-.56,2.1c1.4,3.237,2.838,6.452,4.277,9.67,2.327,5.2,4.732,10.573,6.909,15.932,4.327,10.657,8.145,22.8,3.639,32.032-2.621,5.37-6.231,8.32-11.037,9.019-11.979,1.735-28.826-11.474-37.219-20.783-.894-.993-1.756-2.021-2.619-3.048l-.654-.78a1.653,1.653,0,0,0-2.157-.344,1.748,1.748,0,0,0-.681,2.125c3.622,9.078,7.085,18.784,6.2,28.818-.472,5.379-2.715,9.269-6.486,11.253-4.4,2.311-10.312,1.709-15.822-1.609-11.2-6.749-20.314-18.366-28.493-29.914-2.585-3.649-.988-6.823,1.368-8.577,3.191-2.375,8.176-2.655,11.134,1.5A123.97,123.97,0,0,0,159.9,276.573a1.655,1.655,0,0,0,2.2.166,1.751,1.751,0,0,0,.472-2.21q-.954-1.789-1.926-3.568c-4.326-7.909-8.489-15.675-11.9-23.717L148,245.459c-6.386-15.03-15.132-35.614-7.429-50.825,3.742-7.391,12.6-8.113,19.414-5.014,8.5,3.868,14.719,11.914,20.728,19.692q1.166,1.51,2.314,2.979c5.138,6.542,9.919,13.528,14.545,20.284q2.494,3.646,5.014,7.284l.479.685a128.2,128.2,0,0,0,8.134,10.847l.152.167A1.819,1.819,0,0,0,212.668,252.139Zm33.424-11.251h0Z" transform="translate(-130.608 -182.47)" fill="#fc5f65"/>
            </g>
            <path id="Trazado_140692" data-name="Trazado 140692" d="M143.257,263.042c-6.214-12.78-9.719-27.762-4.262-41.5.808-2.03,4.071-1.143,3.253.918-5.125,12.9-1.924,26.819,3.921,38.84C147.132,263.284,144.224,265.034,143.257,263.042Z" transform="translate(-126.708 -206.296)" fill="#fc5f65"/>
            <path id="Trazado_140693" data-name="Trazado 140693" d="M145.567,239.955c-.029,0-.056.012-.083.017-.047.095-.091.2-.106.223l-.007.01c0,.014,0,.005,0,.026-.218.77-.374,1.552-.538,2.336q-.574,2.732-1.145,5.463a1.7,1.7,0,0,1-2.076,1.2,1.772,1.772,0,0,1-1.177-2.123l1.3-6.178c.361-1.716.936-3.965,2.943-4.308a1.724,1.724,0,0,1,2.074,1.207A1.753,1.753,0,0,1,145.567,239.955Z" transform="translate(-123.897 -219.643)" fill="#fc5f65"/>
            <path id="Trazado_140694" data-name="Trazado 140694" d="M189.5,240.549c-1.914,1.046-3.621-1.933-1.7-2.981,2.648-1.447,3.454-4.391,3.56-7.283a51.089,51.089,0,0,0-.761-9.9,66.779,66.779,0,0,0-5.854-18.542c-.965-1.983,1.944-3.734,2.912-1.742a70.349,70.349,0,0,1,6.547,21.838C195,228.164,195.948,237.027,189.5,240.549Z" transform="translate(-93.582 -146.603)" fill="#fc5f65"/>
          </g>
        </g>
      </g>
      <g id="Grupo_161190" data-name="Grupo 161190" transform="translate(-6132.221 -9548.725)">
        <g id="Grupo_161186" data-name="Grupo 161186" transform="translate(2.354)" style="isolation: isolate">
          <path id="Trazado_140695" data-name="Trazado 140695" d="M200.98,219.223c-4.784-5.01-9.727-9.837-14.765-14.578,2.178,5.041,4.527,10,6.595,15.1,2.344,5.775,5.07,13.646,2.114,19.7-6.736,13.806-23.763.259-30.029-6.69-.667-.741-1.3-1.514-1.95-2.279,2.239,5.612,4.255,11.378,3.722,17.442-.732,8.337-8.2,10.337-14.626,6.463-6.9-4.159-12.447-11.355-17.076-17.891-3.932-5.551,5.065-10.836,8.966-5.364a71.778,71.778,0,0,0,7.009,8.392q-.558-1.047-1.129-2.091a157.184,157.184,0,0,1-7.049-14.056c-3.924-9.268-9.727-22.1-4.791-31.847,2.488-4.913,8.322-5.412,12.715-3.413,5.9,2.687,9.995,8.619,13.937,13.64,4.116,5.242,7.741,10.808,11.55,16.278a79.044,79.044,0,0,0,5.005,6.706c.042.049.085.094.127.141l-.046-.147c-1.012-3.22-2.312-6.309-3.63-9.407-2.45-5.763-5.612-11.83-6.509-18.1-.793-5.545,1.4-11.76,7.915-11.357,6.125.378,11.034,6.417,15.129,10.45,4.959,4.884,9.829,9.865,14.7,14.841C213.951,216.348,206,224.485,200.98,219.223Z" transform="translate(-132.987 -184.828)" fill="#ffc1c3"/>
          <path id="Trazado_140696" data-name="Trazado 140696" d="M178.446,184.841a7.7,7.7,0,0,0-5.929,2.518c-2.063,2.3-2.955,6.046-2.386,10.021.742,5.182,2.95,10.146,5.085,14.945.511,1.149,1.018,2.288,1.5,3.414.454,1.068.931,2.19,1.4,3.351q-.435-.62-.861-1.234l-.282-.406q-1.485-2.131-2.943-4.275c-2.741-4-5.576-8.146-8.642-12.05-.448-.57-.9-1.152-1.352-1.741-3.516-4.551-7.5-9.709-12.955-12.191-4.863-2.21-11.233-1.592-14,3.873-4.971,9.816.4,22.448,4.316,31.671l.445,1.049c1.153,2.725,2.446,5.384,3.817,8.032q-.477-.636-.935-1.281a6.509,6.509,0,0,0-9.327-1.327,5.439,5.439,0,0,0-1.245,7.888c4.942,6.977,10.467,14.008,17.377,18.17,3.835,2.31,8.032,2.685,11.23,1,2.816-1.481,4.552-4.411,4.889-8.251a31.8,31.8,0,0,0-1.932-12.928c5.1,5.1,14.528,12.33,22.093,11.234,3.475-.505,6.165-2.664,7.995-6.415,3.01-6.169.635-13.849-2.085-20.548-1.295-3.189-2.719-6.37-4.1-9.448l-.488-1.088c4.1,3.933,7.763,7.6,11.127,11.119h0a5.879,5.879,0,0,0,5.943,1.807,7.4,7.4,0,0,0,5.062-5.144,6.257,6.257,0,0,0-1.71-6.163l-.554-.565c-4.612-4.712-9.381-9.584-14.159-14.288-.589-.58-1.193-1.2-1.817-1.842-3.709-3.806-8.325-8.544-13.94-8.891C178.872,184.847,178.657,184.841,178.446,184.841Zm2.849,41.019a.921.921,0,0,0,.481-.131,1,1,0,0,0,.469-1.153l-.047-.148c-1.06-3.376-2.444-6.629-3.664-9.5-.484-1.137-.995-2.286-1.51-3.444-2.077-4.671-4.226-9.5-4.927-14.4-.476-3.325.246-6.526,1.883-8.351a5.884,5.884,0,0,1,4.988-1.845c4.861.3,9,4.549,12.654,8.3.633.649,1.248,1.281,1.846,1.87,4.765,4.692,9.528,9.557,14.134,14.263l.553.565a4.2,4.2,0,0,1,1.2,4.191,5.408,5.408,0,0,1-3.645,3.708,3.918,3.918,0,0,1-4.023-1.259h0c-4.346-4.55-9.188-9.331-14.805-14.614a.974.974,0,0,0-1.25-.077,1.03,1.03,0,0,0-.33,1.237c.823,1.906,1.671,3.8,2.519,5.692,1.369,3.061,2.786,6.226,4.067,9.382,2.549,6.275,4.8,13.422,2.143,18.859-1.542,3.163-3.668,4.9-6.5,5.31-7.053,1.022-16.971-6.754-21.912-12.236-.527-.583-1.035-1.189-1.543-1.795l-.384-.458a.975.975,0,0,0-1.271-.2,1.028,1.028,0,0,0-.4,1.25c2.132,5.346,4.17,11.059,3.652,16.968-.278,3.166-1.6,5.457-3.819,6.624-2.589,1.362-6.072,1.007-9.315-.946-6.595-3.975-11.96-10.813-16.776-17.613a3.416,3.416,0,0,1,.805-5.051,4.524,4.524,0,0,1,6.555.882,73.167,73.167,0,0,0,7.107,8.511.976.976,0,0,0,1.3.1,1.033,1.033,0,0,0,.278-1.3q-.561-1.052-1.135-2.1c-2.546-4.657-5-9.229-7-13.964l-.446-1.051c-3.761-8.849-8.91-20.968-4.375-29.925,2.2-4.351,7.418-4.776,11.43-2.951,5.007,2.278,8.666,7.014,12.2,11.594.458.591.911,1.179,1.363,1.753,3.024,3.853,5.839,7.966,8.563,11.944q1.469,2.146,2.952,4.288l.282.4a75.442,75.442,0,0,0,4.79,6.386l.088.1A1.072,1.072,0,0,0,181.294,225.86Zm19.679-6.623h0Z" transform="translate(-132.979 -184.841)" fill="#ffc1c3"/>
          <path id="Trazado_140697" data-name="Trazado 140697" d="M142.763,247.876c-3.658-7.525-5.722-16.346-2.508-24.434.475-1.2,2.4-.673,1.914.541-3.016,7.594-1.132,15.79,2.308,22.868C145.045,248.017,143.332,249.048,142.763,247.876Z" transform="translate(-133.02 -214.465)" fill="#ffc1c3"/>
          <path id="Trazado_140698" data-name="Trazado 140698" d="M145.807,240.944c-.017,0-.033.007-.049.01-.028.055-.053.115-.062.131l0,.006c0,.008,0,0,0,.014-.128.454-.219.914-.317,1.376q-.337,1.608-.674,3.217a1,1,0,0,1-1.221.709,1.043,1.043,0,0,1-.694-1.25q.381-1.819.764-3.638c.211-1.009.55-2.333,1.732-2.536a1.014,1.014,0,0,1,1.221.71A1.031,1.031,0,0,1,145.807,240.944Z" transform="translate(-133.049 -228.984)" fill="#ffc1c3"/>
          <path id="Trazado_140699" data-name="Trazado 140699" d="M189.835,225.926c-1.127.616-2.131-1.138-1-1.755,1.559-.852,2.034-2.585,2.1-4.289a30.071,30.071,0,0,0-.448-5.826,39.319,39.319,0,0,0-3.446-10.917c-.567-1.168,1.145-2.2,1.715-1.025A41.377,41.377,0,0,1,192.6,214.97C193.072,218.633,193.632,223.852,189.835,225.926Z" transform="translate(-133.362 -170.613)" fill="#ffc1c3"/>
        </g>
        <g id="Grupo_161189" data-name="Grupo 161189" transform="translate(0 2.411)">
          <g id="Grupo_161188" data-name="Grupo 161188">
            <g id="Grupo_161187" data-name="Grupo 161187">
              <path id="Trazado_140700" data-name="Trazado 140700" d="M198.609,216.852c-4.784-5.01-9.727-9.837-14.766-14.577,2.178,5.04,4.528,10,6.6,15.094,2.344,5.775,5.069,13.646,2.114,19.7-6.736,13.806-23.763.26-30.029-6.69-.668-.74-1.3-1.513-1.95-2.279,2.238,5.612,4.254,11.379,3.722,17.442-.732,8.337-8.2,10.337-14.626,6.464-6.9-4.16-12.447-11.356-17.077-17.892-3.932-5.551,5.066-10.836,8.967-5.364a71.853,71.853,0,0,0,7.008,8.393q-.559-1.047-1.128-2.092c-2.515-4.6-5-9.216-7.049-14.055-3.925-9.269-9.727-22.1-4.791-31.848,2.488-4.913,8.321-5.412,12.715-3.413,5.9,2.687,9.995,8.619,13.937,13.64,4.116,5.242,7.74,10.808,11.549,16.278a79.658,79.658,0,0,0,5.005,6.707c.042.048.086.092.128.141l-.046-.148c-1.012-3.22-2.313-6.309-3.63-9.407-2.451-5.762-5.612-11.829-6.509-18.1-.794-5.545,1.4-11.76,7.915-11.357,6.124.378,11.033,6.417,15.128,10.45,4.96,4.884,9.83,9.866,14.7,14.842C211.579,213.977,203.633,222.113,198.609,216.852Z" transform="translate(-130.615 -182.457)" fill="#ff9fa3"/>
              <path id="Trazado_140701" data-name="Trazado 140701" d="M176.074,182.47a7.694,7.694,0,0,0-5.928,2.517c-2.063,2.3-2.955,6.046-2.386,10.022.741,5.181,2.949,10.145,5.085,14.945.51,1.149,1.017,2.287,1.5,3.413.454,1.068.931,2.19,1.4,3.351-.29-.413-.577-.825-.861-1.234l-.282-.4c-.99-1.421-1.967-2.849-2.944-4.275-2.74-4.005-5.575-8.147-8.641-12.05q-.672-.857-1.352-1.742c-3.516-4.55-7.5-9.708-12.955-12.191-4.864-2.21-11.233-1.591-14,3.874-4.971,9.815.4,22.447,4.315,31.671l.446,1.048c1.153,2.725,2.445,5.384,3.816,8.032q-.475-.636-.935-1.279a6.507,6.507,0,0,0-9.326-1.328,5.439,5.439,0,0,0-1.245,7.888c4.942,6.977,10.467,14.008,17.376,18.171,3.836,2.309,8.032,2.684,11.231,1,2.816-1.481,4.551-4.41,4.889-8.25a31.776,31.776,0,0,0-1.933-12.928c5.1,5.1,14.528,12.329,22.093,11.233,3.475-.505,6.166-2.664,8-6.415,3.009-6.169.634-13.848-2.085-20.548-1.295-3.188-2.719-6.37-4.1-9.447l-.487-1.088c4.1,3.932,7.763,7.6,11.127,11.118h0a5.878,5.878,0,0,0,5.943,1.806,7.4,7.4,0,0,0,5.061-5.143,6.253,6.253,0,0,0-1.709-6.162l-.554-.566c-4.612-4.712-9.381-9.583-14.159-14.288-.589-.58-1.193-1.2-1.818-1.842-3.708-3.806-8.324-8.544-13.939-8.891C176.5,182.476,176.286,182.47,176.074,182.47Zm2.849,41.019a.919.919,0,0,0,.481-.132,1,1,0,0,0,.47-1.153l-.047-.148c-1.06-3.375-2.444-6.629-3.664-9.5-.484-1.136-.995-2.285-1.51-3.444-2.078-4.671-4.227-9.5-4.928-14.4-.476-3.325.246-6.526,1.885-8.352a5.886,5.886,0,0,1,4.988-1.845c4.861.3,9,4.549,12.654,8.3.633.65,1.249,1.282,1.847,1.87,4.765,4.692,9.528,9.557,14.134,14.263l.553.566a4.2,4.2,0,0,1,1.2,4.191,5.4,5.4,0,0,1-3.645,3.707,3.917,3.917,0,0,1-4.022-1.259h0c-4.346-4.55-9.188-9.331-14.805-14.615a.974.974,0,0,0-1.25-.077,1.029,1.029,0,0,0-.33,1.237c.823,1.906,1.671,3.8,2.518,5.693,1.37,3.06,2.786,6.225,4.068,9.38,2.548,6.275,4.8,13.422,2.143,18.86-1.543,3.162-3.669,4.9-6.5,5.31-7.053,1.021-16.972-6.755-21.913-12.236-.526-.584-1.034-1.19-1.542-1.795l-.385-.459a.973.973,0,0,0-1.27-.2,1.029,1.029,0,0,0-.4,1.251c2.133,5.345,4.171,11.059,3.653,16.967-.278,3.167-1.6,5.458-3.819,6.625-2.59,1.361-6.072,1.006-9.315-.947-6.6-3.974-11.96-10.813-16.776-17.613a3.414,3.414,0,0,1,.805-5.05,4.523,4.523,0,0,1,6.555.881,72.986,72.986,0,0,0,7.107,8.51.974.974,0,0,0,1.3.1,1.031,1.031,0,0,0,.278-1.3q-.561-1.053-1.134-2.1c-2.547-4.657-5-9.229-7-13.964l-.446-1.051c-3.76-8.849-8.909-20.968-4.374-29.924,2.2-4.352,7.418-4.777,11.43-2.952,5.007,2.278,8.666,7.015,12.2,11.594q.687.889,1.362,1.754c3.025,3.852,5.84,7.965,8.564,11.943q1.469,2.146,2.952,4.289l.282.4a75.492,75.492,0,0,0,4.789,6.386l.089.1A1.071,1.071,0,0,0,178.922,223.488Zm19.679-6.624h0Z" transform="translate(-130.608 -182.47)" fill="#fc5f65"/>
            </g>
            <path id="Trazado_140702" data-name="Trazado 140702" d="M140.392,245.5c-3.659-7.525-5.722-16.345-2.509-24.434.476-1.2,2.4-.673,1.915.541-3.017,7.595-1.133,15.79,2.308,22.868C142.673,245.646,140.962,246.677,140.392,245.5Z" transform="translate(-130.649 -212.094)" fill="#fc5f65"/>
            <path id="Trazado_140703" data-name="Trazado 140703" d="M143.436,238.573c-.017,0-.033.007-.049.01-.028.056-.054.115-.063.131l0,.006c0,.008,0,0,0,.015-.128.453-.22.914-.317,1.375q-.338,1.608-.674,3.217a1,1,0,0,1-1.222.709,1.043,1.043,0,0,1-.693-1.25l.763-3.637c.212-1.01.551-2.334,1.733-2.537a1.015,1.015,0,0,1,1.221.71A1.032,1.032,0,0,1,143.436,238.573Z" transform="translate(-130.678 -226.614)" fill="#fc5f65"/>
            <path id="Trazado_140704" data-name="Trazado 140704" d="M187.464,223.555c-1.127.616-2.132-1.138-1-1.755,1.559-.852,2.033-2.585,2.1-4.288a30.081,30.081,0,0,0-.448-5.827,39.318,39.318,0,0,0-3.446-10.917c-.568-1.168,1.145-2.2,1.715-1.025a41.419,41.419,0,0,1,3.854,12.857C190.7,216.263,191.261,221.482,187.464,223.555Z" transform="translate(-130.991 -168.243)" fill="#fc5f65"/>
          </g>
        </g>
      </g>
    </g>
  </g>
</svg>
