<svg xmlns="http://www.w3.org/2000/svg" xmlns:xlink="http://www.w3.org/1999/xlink" width="1238.79" height="609.563" viewBox="0 0 1238.79 609.563">
  <defs>
    <clipPath id="clip-path">
      <rect id="Rect치ngulo_38294" data-name="Rect치ngulo 38294" width="1238.79" height="609.562" rx="23" transform="translate(0 0)" fill="#ffdfe0"/>
    </clipPath>
  </defs>
  <g id="Grupo_161192" data-name="Grupo 161192" transform="translate(-180 -5055.445)">
    <g id="Grupo_161191" data-name="Grupo 161191" transform="translate(0 -14.038)">
      <rect id="Rect치ngulo_4933" data-name="Rect치ngulo 4933" width="1238.79" height="609.563" rx="23" transform="translate(180 5069.483)" fill="#fff0f1"/>
      <g id="Enmascarar_grupo_164" data-name="Enmascarar grupo 164" transform="translate(180 5069.483)" clip-path="url(#clip-path)">
        <g id="Grupo_161185" data-name="Grupo 161185" transform="translate(1066.308 476.981)">
          <g id="Grupo_161181" data-name="Grupo 161181" transform="translate(8.336)" style="isolation: isolate">
            <path id="Trazado_140685" data-name="Trazado 140685" d="M371.208,304.046c-16.94-17.742-34.446-34.833-52.286-51.622,7.714,17.85,16.029,35.417,23.353,53.454,8.3,20.449,17.953,48.322,7.486,69.771-23.852,48.891-84.148.918-106.338-23.691-2.363-2.624-4.62-5.362-6.905-8.069,7.929,19.873,15.066,40.293,13.181,61.764-2.591,29.522-29.032,36.6-51.794,22.885-24.443-14.727-44.076-40.21-60.468-63.354-13.923-19.657,17.935-38.371,31.749-18.995A254.162,254.162,0,0,0,194.006,375.9q-1.978-3.709-4-7.4c-8.906-16.285-17.7-32.634-24.96-49.776-13.9-32.818-34.446-78.254-16.965-112.774,8.811-17.4,29.471-19.164,45.026-12.085,20.91,9.516,35.392,30.522,49.354,48.3,14.574,18.563,27.411,38.274,40.9,57.643,5.636,8.094,11.269,16.3,17.724,23.745.148.173.3.331.45.5l-.162-.522c-3.583-11.4-8.189-22.342-12.854-33.311-8.677-20.409-19.872-41.891-23.051-64.1-2.809-19.636,4.958-41.643,28.03-40.217,21.69,1.339,39.073,22.723,53.573,37,17.559,17.3,34.8,34.934,52.054,52.554C417.141,293.865,389,322.677,371.208,304.046Z" transform="translate(-130.434 -182.246)" fill="#ffc1c3"/>
            <path id="Trazado_140686" data-name="Trazado 140686" d="M293.982,184.841c-8.512,0-15.738,3.059-20.994,8.918-7.306,8.144-10.464,21.41-8.449,35.485,2.626,18.351,10.446,35.927,18.005,52.921,1.811,4.07,3.6,8.1,5.3,12.089,1.607,3.782,3.3,7.756,4.975,11.865q-1.54-2.2-3.048-4.369l-1-1.436q-5.258-7.547-10.421-15.137c-9.708-14.18-19.746-28.845-30.6-42.672-1.586-2.019-3.179-4.081-4.789-6.165-12.45-16.116-26.56-34.38-45.877-43.168-17.221-7.828-39.776-5.636-49.572,13.715-17.6,34.762,1.4,79.492,15.284,112.152l1.575,3.714c4.082,9.648,8.66,19.067,13.516,28.442q-1.688-2.251-3.312-4.535c-8.54-11.977-23.5-11.8-33.029-4.7-7.883,5.87-12.306,16.781-4.409,27.931,17.5,24.706,37.066,49.6,61.533,64.344,13.579,8.18,28.441,9.508,39.766,3.552,9.971-5.243,16.121-15.619,17.313-29.219,1.4-15.95-1.965-31.217-6.842-45.781,18.055,18.056,51.446,43.661,78.234,39.782,12.306-1.789,21.831-9.433,28.311-22.716,10.66-21.845,2.25-49.042-7.384-72.762-4.585-11.293-9.627-22.558-14.5-33.455l-1.726-3.854c14.51,13.928,27.492,26.9,39.4,39.375v0c5.889,6.172,13.371,8.439,21.047,6.4a26.212,26.212,0,0,0,17.925-18.214c2.1-7.935-.046-15.687-6.055-21.824l-1.962-2c-16.332-16.684-33.219-33.937-50.138-50.6-2.085-2.055-4.226-4.254-6.434-6.521-13.136-13.478-29.482-30.256-49.365-31.483C295.491,184.862,294.731,184.841,293.982,184.841ZM304.07,330.095a3.261,3.261,0,0,0,1.7-.464,3.535,3.535,0,0,0,1.66-4.085l-.165-.525c-3.755-11.955-8.653-23.475-12.974-33.639-1.712-4.027-3.523-8.094-5.348-12.2-7.355-16.54-14.964-33.642-17.446-50.985-1.684-11.775.872-23.108,6.67-29.572,4.3-4.794,10.235-6.964,17.664-6.532,17.214,1.065,31.876,16.109,44.811,29.385,2.243,2.3,4.42,4.535,6.536,6.622,16.873,16.616,33.739,33.844,50.05,50.507l1.958,2c5.316,5.427,5.235,11.067,4.237,14.842a19.151,19.151,0,0,1-12.907,13.132c-3.639.972-9.057.979-14.247-4.459v0c-15.39-16.112-32.537-33.041-52.427-51.752a3.45,3.45,0,0,0-4.427-.274,3.647,3.647,0,0,0-1.167,4.38c2.915,6.748,5.917,13.453,8.92,20.157,4.849,10.84,9.866,22.047,14.4,33.221,9.026,22.219,16.982,47.53,7.588,66.781-5.46,11.2-12.988,17.35-23.012,18.8-24.974,3.62-60.1-23.918-77.594-43.33-1.867-2.066-3.664-4.211-5.464-6.356l-1.361-1.623a3.452,3.452,0,0,0-4.5-.716,3.641,3.641,0,0,0-1.417,4.427c7.549,18.93,14.767,39.163,12.932,60.087-.984,11.21-5.661,19.322-13.523,23.457-9.17,4.823-21.5,3.567-32.987-3.351-23.353-14.075-42.354-38.292-59.406-62.368-5.386-7.608-2.06-14.23,2.852-17.886,6.652-4.948,17.046-5.532,23.213,3.124a259.109,259.109,0,0,0,25.167,30.137,3.455,3.455,0,0,0,4.6.345,3.658,3.658,0,0,0,.984-4.61q-1.988-3.725-4.019-7.435c-9.015-16.49-17.7-32.681-24.8-49.449l-1.579-3.721c-13.319-31.335-31.552-74.252-15.492-105.969,7.8-15.407,26.268-16.911,40.476-10.451,17.731,8.065,30.688,24.836,43.215,41.056,1.621,2.095,3.228,4.175,4.827,6.208,10.71,13.643,20.678,28.208,30.322,42.294q5.2,7.6,10.453,15.184l1,1.432A267.147,267.147,0,0,0,301,328.54l.313.349A3.8,3.8,0,0,0,304.07,330.095Zm69.687-23.454h0Z" transform="translate(-132.979 -184.841)" fill="#ffc1c3"/>
            <path id="Trazado_140687" data-name="Trazado 140687" d="M153.184,311.684c-12.953-26.646-20.263-57.884-8.881-86.524,1.681-4.236,8.484-2.382,6.779,1.915-10.682,26.891-4.008,55.916,8.175,80.978C161.267,312.184,155.2,315.837,153.184,311.684Z" transform="translate(-118.683 -193.371)" fill="#ffc1c3"/>
            <path id="Trazado_140688" data-name="Trazado 140688" d="M153.558,245.972c-.06.007-.116.025-.172.036-.1.194-.186.407-.218.464l-.018.022c-.007.029,0,.007-.007.05-.454,1.609-.777,3.235-1.122,4.873q-1.192,5.7-2.387,11.39a3.531,3.531,0,0,1-4.325,2.512,3.7,3.7,0,0,1-2.458-4.427q1.35-6.44,2.7-12.884c.749-3.574,1.948-8.263,6.132-8.979a3.592,3.592,0,0,1,4.325,2.516C156.4,243.284,155.5,245.641,153.558,245.972Z" transform="translate(-108.379 -203.621)" fill="#ffc1c3"/>
            <path id="Trazado_140689" data-name="Trazado 140689" d="M197.239,287.752c-3.991,2.181-7.545-4.031-3.548-6.215,5.52-3.016,7.2-9.156,7.422-15.187a106.485,106.485,0,0,0-1.586-20.632,139.23,139.23,0,0,0-12.2-38.659c-2.008-4.135,4.054-7.784,6.072-3.631a146.521,146.521,0,0,1,13.649,45.529C208.7,261.927,210.684,280.407,197.239,287.752Z" transform="translate(2.739 -91.88)" fill="#ffc1c3"/>
          </g>
          <g id="Grupo_161184" data-name="Grupo 161184" transform="translate(0 8.537)">
            <g id="Grupo_161183" data-name="Grupo 161183">
              <g id="Grupo_161182" data-name="Grupo 161182">
                <path id="Trazado_140690" data-name="Trazado 140690" d="M368.84,301.675c-16.94-17.742-34.446-34.833-52.29-51.619,7.714,17.847,16.033,35.416,23.357,53.45,8.3,20.449,17.949,48.322,7.486,69.771-23.853,48.891-84.148.921-106.338-23.691-2.366-2.62-4.62-5.359-6.905-8.069,7.925,19.873,15.063,40.293,13.181,61.764-2.591,29.522-29.032,36.6-51.794,22.889-24.447-14.73-44.077-40.214-60.472-63.358-13.923-19.657,17.939-38.371,31.753-18.995a254.453,254.453,0,0,0,24.816,29.719q-1.978-3.709-3.994-7.406c-8.906-16.285-17.7-32.635-24.96-49.772-13.9-32.822-34.446-78.254-16.965-112.778,8.811-17.4,29.468-19.164,45.026-12.085,20.91,9.515,35.392,30.522,49.354,48.3,14.574,18.563,27.407,38.274,40.9,57.643,5.64,8.094,11.272,16.3,17.724,23.749.148.169.306.328.454.5l-.162-.525c-3.583-11.4-8.192-22.342-12.854-33.311-8.681-20.406-19.872-41.887-23.051-64.1-2.813-19.635,4.958-41.643,28.03-40.217,21.687,1.339,39.07,22.723,53.57,37,17.562,17.3,34.808,34.938,52.058,52.558C414.769,291.493,386.631,320.306,368.84,301.675Z" transform="translate(-128.066 -179.878)" fill="#ff9fa3"/>
                <path id="Trazado_140691" data-name="Trazado 140691" d="M291.608,182.47c-8.512,0-15.734,3.055-20.99,8.914-7.306,8.144-10.464,21.41-8.449,35.488,2.623,18.347,10.443,35.924,18.005,52.921,1.807,4.07,3.6,8.1,5.3,12.085,1.607,3.782,3.3,7.756,4.975,11.865-1.027-1.461-2.043-2.922-3.048-4.369l-1-1.432c-3.505-5.031-6.965-10.088-10.425-15.137-9.7-14.183-19.742-28.849-30.6-42.672q-2.379-3.034-4.789-6.168c-12.45-16.112-26.56-34.376-45.877-43.168-17.225-7.828-39.776-5.632-49.572,13.719-17.6,34.758,1.4,79.488,15.281,112.152l1.579,3.71c4.082,9.649,8.66,19.067,13.512,28.442q-1.682-2.251-3.312-4.531c-8.537-11.981-23.494-11.8-33.026-4.7-7.883,5.87-12.306,16.781-4.409,27.931,17.5,24.706,37.066,49.6,61.53,64.348,13.582,8.177,28.441,9.5,39.769,3.548,9.971-5.244,16.117-15.616,17.313-29.216,1.4-15.95-1.965-31.22-6.846-45.781,18.058,18.052,51.446,43.658,78.234,39.778,12.306-1.789,21.834-9.433,28.314-22.716,10.657-21.845,2.247-49.038-7.384-72.762-4.585-11.29-9.627-22.558-14.5-33.452l-1.726-3.854c14.51,13.924,27.492,26.9,39.4,39.372h0c5.889,6.172,13.371,8.436,21.047,6.4a26.2,26.2,0,0,0,17.921-18.214c2.106-7.935-.042-15.684-6.051-21.82l-1.962-2c-16.332-16.684-33.219-33.934-50.138-50.6-2.085-2.055-4.226-4.254-6.438-6.521-13.132-13.478-29.478-30.256-49.361-31.483C293.116,182.491,292.36,182.47,291.608,182.47ZM301.7,327.724a3.256,3.256,0,0,0,1.7-.468,3.53,3.53,0,0,0,1.663-4.085l-.165-.525c-3.755-11.952-8.653-23.475-12.974-33.639-1.712-4.024-3.523-8.09-5.348-12.2-7.359-16.541-14.967-33.642-17.45-50.982-1.684-11.776.872-23.108,6.673-29.576,4.3-4.79,10.235-6.964,17.664-6.532,17.214,1.065,31.876,16.109,44.808,29.385,2.243,2.3,4.423,4.538,6.54,6.622,16.873,16.616,33.74,33.844,50.05,50.507l1.958,2c5.313,5.424,5.235,11.063,4.233,14.842a19.14,19.14,0,0,1-12.907,13.129c-3.636.972-9.054.979-14.243-4.459h0C358.51,285.638,341.363,268.709,321.473,250a3.451,3.451,0,0,0-4.427-.273,3.642,3.642,0,0,0-1.167,4.38c2.915,6.748,5.917,13.453,8.917,20.161,4.852,10.836,9.866,22.043,14.405,33.218,9.022,22.219,16.982,47.53,7.587,66.784-5.464,11.2-12.992,17.346-23.012,18.8-24.974,3.617-60.1-23.922-77.6-43.33-1.863-2.069-3.66-4.214-5.46-6.356l-1.364-1.627a3.447,3.447,0,0,0-4.5-.716,3.645,3.645,0,0,0-1.42,4.43c7.552,18.926,14.771,39.163,12.935,60.083-.984,11.214-5.661,19.326-13.523,23.461-9.173,4.819-21.5,3.563-32.987-3.354-23.357-14.072-42.354-38.292-59.406-62.368-5.39-7.608-2.06-14.226,2.852-17.883,6.652-4.952,17.046-5.535,23.213,3.12a258.462,258.462,0,0,0,25.167,30.137,3.45,3.45,0,0,0,4.592.346,3.65,3.65,0,0,0,.984-4.607q-1.988-3.73-4.015-7.439c-9.019-16.49-17.7-32.681-24.8-49.448l-1.579-3.721c-13.315-31.335-31.549-74.252-15.488-105.965,7.8-15.41,26.268-16.915,40.476-10.455,17.731,8.065,30.688,24.839,43.215,41.056q2.431,3.147,4.824,6.212c10.713,13.64,20.681,28.2,30.325,42.29q5.2,7.6,10.453,15.187l1,1.429a267.284,267.284,0,0,0,16.958,22.615l.316.349A3.793,3.793,0,0,0,301.7,327.724Zm69.687-23.457h0Z" transform="translate(-130.608 -182.47)" fill="#fc5f65"/>
              </g>
              <path id="Trazado_140692" data-name="Trazado 140692" d="M150.815,309.311c-12.957-26.646-20.263-57.881-8.885-86.524,1.684-4.232,8.488-2.382,6.782,1.915-10.685,26.894-4.012,55.916,8.175,80.978C158.894,309.815,152.833,313.464,150.815,309.311Z" transform="translate(-116.313 -191.002)" fill="#fc5f65"/>
              <path id="Trazado_140693" data-name="Trazado 140693" d="M151.187,243.6c-.06.007-.116.025-.172.036-.1.2-.19.407-.222.464l-.014.022c-.007.029,0,.011-.007.054-.454,1.605-.781,3.235-1.122,4.869q-1.2,5.7-2.387,11.39a3.534,3.534,0,0,1-4.328,2.512,3.694,3.694,0,0,1-2.454-4.427l2.7-12.88c.752-3.577,1.951-8.267,6.135-8.983a3.6,3.6,0,0,1,4.325,2.516C154.028,240.912,153.124,243.269,151.187,243.6Z" transform="translate(-106.008 -201.252)" fill="#fc5f65"/>
              <path id="Trazado_140694" data-name="Trazado 140694" d="M194.868,285.381c-3.991,2.181-7.549-4.031-3.548-6.215,5.52-3.016,7.2-9.156,7.422-15.184a106.513,106.513,0,0,0-1.586-20.636,139.228,139.228,0,0,0-12.2-38.659c-2.011-4.135,4.054-7.784,6.072-3.631a146.671,146.671,0,0,1,13.649,45.529C206.331,259.559,208.314,278.039,194.868,285.381Z" transform="translate(5.109 -89.513)" fill="#fc5f65"/>
            </g>
          </g>
        </g>
        <g id="Grupo_161190" data-name="Grupo 161190" transform="translate(-37.989 -57.033)">
          <g id="Grupo_161186" data-name="Grupo 161186" transform="translate(4.908)" style="isolation: isolate">
            <path id="Trazado_140695" data-name="Trazado 140695" d="M273.657,255.437c-9.974-10.446-20.281-20.509-30.784-30.394,4.542,10.51,9.438,20.852,13.75,31.472,4.888,12.04,10.57,28.45,4.407,41.079-14.044,28.785-49.544.54-62.608-13.949-1.391-1.545-2.72-3.157-4.066-4.751,4.668,11.7,8.87,23.723,7.761,36.364-1.526,17.381-17.093,21.551-30.495,13.474-14.391-8.671-25.951-23.674-35.6-37.3-8.2-11.573,10.56-22.592,18.693-11.184a149.645,149.645,0,0,0,14.613,17.5q-1.164-2.184-2.354-4.359a327.708,327.708,0,0,1-14.7-29.306c-8.181-19.322-20.281-46.073-9.988-66.4,5.188-10.243,17.352-11.283,26.51-7.115,12.311,5.6,20.838,17.97,29.058,28.438,8.581,10.929,16.139,22.534,24.082,33.938a164.793,164.793,0,0,0,10.435,13.98c.087.1.178.2.265.295l-.1-.307c-2.109-6.713-4.821-13.154-7.568-19.612-5.109-12.016-11.7-24.664-13.572-37.738-1.654-11.561,2.919-24.518,16.5-23.679,12.77.788,23,13.379,31.542,21.787,10.338,10.183,20.492,20.568,30.648,30.942C300.7,249.443,284.133,266.407,273.657,255.437Z" transform="translate(-131.897 -183.725)" fill="#ffc1c3"/>
            <path id="Trazado_140696" data-name="Trazado 140696" d="M227.773,184.841a16.047,16.047,0,0,0-12.361,5.251c-4.3,4.8-6.161,12.605-4.974,20.892,1.546,10.8,6.15,21.153,10.6,31.158,1.066,2.4,2.122,4.77,3.12,7.117.946,2.227,1.942,4.566,2.929,6.986q-.907-1.294-1.795-2.572l-.588-.845q-3.1-4.443-6.136-8.912c-5.716-8.348-11.626-16.983-18.018-25.124-.934-1.189-1.871-2.4-2.819-3.63-7.33-9.488-15.638-20.242-27.011-25.416-10.139-4.609-23.419-3.318-29.186,8.075-10.365,20.466.826,46.8,9,66.031l.927,2.187c2.4,5.681,5.1,11.226,7.957,16.746q-.994-1.325-1.95-2.67c-5.028-7.052-13.834-6.946-19.447-2.767-4.641,3.456-7.245,9.88-2.6,16.445,10.3,14.546,21.823,29.2,36.229,37.884,7.995,4.816,16.745,5.6,23.413,2.091,5.871-3.087,9.491-9.2,10.193-17.2.824-9.391-1.157-18.379-4.028-26.954,10.63,10.63,30.29,25.706,46.062,23.422,7.245-1.053,12.853-5.554,16.668-13.375,6.277-12.862,1.325-28.874-4.347-42.84-2.7-6.649-5.668-13.281-8.539-19.7l-1.016-2.269c8.543,8.2,16.186,15.839,23.2,23.183v0A12.256,12.256,0,0,0,285.65,261.8,15.433,15.433,0,0,0,296.2,251.075a13.046,13.046,0,0,0-3.565-12.849l-1.155-1.178c-9.616-9.823-19.558-19.981-29.52-29.79-1.228-1.21-2.488-2.5-3.788-3.839-7.734-7.935-17.358-17.814-29.064-18.536C228.661,184.853,228.213,184.841,227.773,184.841Zm5.939,85.521a1.92,1.92,0,0,0,1-.273,2.081,2.081,0,0,0,.977-2.4l-.1-.309c-2.211-7.039-5.095-13.822-7.639-19.805-1.008-2.371-2.074-4.765-3.149-7.181-4.331-9.738-8.81-19.807-10.272-30.018-.992-6.933.513-13.605,3.927-17.411,2.532-2.822,6.026-4.1,10.4-3.846,10.135.627,18.768,9.484,26.383,17.3,1.321,1.354,2.6,2.67,3.848,3.9,9.934,9.783,19.865,19.926,29.468,29.737l1.153,1.178a8.755,8.755,0,0,1,2.494,8.738,11.276,11.276,0,0,1-7.6,7.732,8.169,8.169,0,0,1-8.388-2.625v0c-9.061-9.486-19.157-19.454-30.867-30.47a2.031,2.031,0,0,0-2.606-.161,2.147,2.147,0,0,0-.687,2.579c1.716,3.973,3.484,7.92,5.252,11.868,2.855,6.382,5.809,12.98,8.479,19.56,5.314,13.082,10,27.984,4.467,39.318-3.215,6.594-7.647,10.215-13.549,11.071-14.7,2.132-35.382-14.082-45.685-25.512-1.1-1.216-2.157-2.479-3.217-3.742l-.8-.956a2.032,2.032,0,0,0-2.65-.422,2.143,2.143,0,0,0-.834,2.606c4.445,11.145,8.694,23.058,7.614,35.377-.58,6.6-3.333,11.376-7.962,13.811-5.4,2.839-12.659,2.1-19.422-1.973-13.75-8.287-24.936-22.545-34.976-36.72-3.171-4.479-1.213-8.378,1.679-10.531,3.917-2.914,10.036-3.257,13.667,1.839a152.545,152.545,0,0,0,14.818,17.744,2.034,2.034,0,0,0,2.706.2,2.154,2.154,0,0,0,.58-2.714q-1.171-2.193-2.366-4.378c-5.308-9.709-10.421-19.242-14.6-29.114l-.93-2.191c-7.842-18.449-18.577-43.717-9.121-62.391,4.594-9.071,15.466-9.957,23.831-6.153,10.44,4.748,18.068,14.623,25.444,24.172.954,1.233,1.9,2.458,2.842,3.655,6.305,8.033,12.174,16.608,17.852,24.9q3.062,4.475,6.154,8.94l.588.843a157.279,157.279,0,0,0,9.986,13.315l.184.206A2.235,2.235,0,0,0,233.712,270.361Zm41.029-13.809h0Z" transform="translate(-132.979 -184.841)" fill="#ffc1c3"/>
            <path id="Trazado_140697" data-name="Trazado 140697" d="M147.212,275.117c-7.626-15.688-11.93-34.08-5.229-50.942.99-2.494,5-1.4,3.991,1.127-6.289,15.832-2.36,32.921,4.813,47.677C151.971,275.412,148.4,277.563,147.212,275.117Z" transform="translate(-126.899 -205.459)" fill="#ffc1c3"/>
            <path id="Trazado_140698" data-name="Trazado 140698" d="M149.116,243.091c-.035,0-.068.015-.1.021-.058.114-.11.239-.128.273l-.01.013c0,.017,0,0,0,.03-.267.947-.457,1.9-.66,2.869q-.7,3.353-1.406,6.706a2.079,2.079,0,0,1-2.546,1.479,2.175,2.175,0,0,1-1.447-2.606q.795-3.792,1.592-7.586c.441-2.1,1.147-4.865,3.61-5.287a2.115,2.115,0,0,1,2.546,1.481A2.15,2.15,0,0,1,149.116,243.091Z" transform="translate(-122.516 -218.156)" fill="#ffc1c3"/>
            <path id="Trazado_140699" data-name="Trazado 140699" d="M193,252.322c-2.35,1.284-4.442-2.373-2.089-3.659,3.25-1.776,4.242-5.391,4.37-8.942a62.7,62.7,0,0,0-.934-12.148,81.976,81.976,0,0,0-7.185-22.761c-1.182-2.435,2.387-4.583,3.575-2.138a86.267,86.267,0,0,1,8.036,26.806C199.744,237.117,200.912,248,193,252.322Z" transform="translate(-75.256 -136.999)" fill="#ffc1c3"/>
          </g>
          <g id="Grupo_161189" data-name="Grupo 161189" transform="translate(0 5.026)">
            <g id="Grupo_161188" data-name="Grupo 161188">
              <g id="Grupo_161187" data-name="Grupo 161187">
                <path id="Trazado_140700" data-name="Trazado 140700" d="M271.286,253.066c-9.974-10.446-20.281-20.509-30.786-30.391,4.542,10.508,9.44,20.852,13.752,31.47,4.887,12.04,10.568,28.45,4.407,41.079-14.044,28.785-49.544.542-62.608-13.949-1.393-1.543-2.72-3.155-4.066-4.751,4.666,11.7,8.868,23.723,7.761,36.364-1.526,17.381-17.093,21.551-30.495,13.476-14.393-8.673-25.951-23.677-35.6-37.3-8.2-11.573,10.562-22.592,18.7-11.184a149.81,149.81,0,0,0,14.611,17.5q-1.164-2.183-2.352-4.361c-5.244-9.588-10.423-19.214-14.7-29.3-8.183-19.324-20.281-46.073-9.988-66.4,5.188-10.243,17.349-11.283,26.51-7.115,12.311,5.6,20.838,17.97,29.058,28.438,8.581,10.929,16.136,22.534,24.079,33.938A166.09,166.09,0,0,0,230,264.555c.087.1.18.193.267.295l-.1-.309c-2.109-6.713-4.823-13.154-7.568-19.613-5.111-12.014-11.7-24.662-13.572-37.738-1.656-11.561,2.919-24.518,16.5-23.679,12.768.788,23,13.379,31.54,21.786,10.34,10.183,20.494,20.57,30.65,30.944C298.328,247.072,281.761,264.035,271.286,253.066Z" transform="translate(-129.527 -181.356)" fill="#ff9fa3"/>
                <path id="Trazado_140701" data-name="Trazado 140701" d="M225.4,182.47a16.041,16.041,0,0,0-12.358,5.248c-4.3,4.8-6.161,12.605-4.974,20.894,1.544,10.8,6.148,21.151,10.6,31.158,1.064,2.4,2.12,4.767,3.12,7.115.946,2.227,1.942,4.566,2.929,6.986-.6-.86-1.2-1.721-1.795-2.572l-.588-.843c-2.064-2.962-4.1-5.939-6.138-8.912-5.713-8.351-11.624-16.985-18.016-25.124q-1.4-1.786-2.819-3.632c-7.33-9.486-15.638-20.24-27.011-25.416-10.141-4.609-23.419-3.316-29.186,8.077-10.365,20.464.826,46.8,9,66.031l.929,2.185c2.4,5.681,5.1,11.226,7.955,16.746q-.991-1.325-1.95-2.668c-5.026-7.054-13.832-6.948-19.444-2.769-4.641,3.456-7.245,9.88-2.6,16.445,10.3,14.546,21.823,29.2,36.227,37.886,8,4.814,16.745,5.6,23.415,2.089,5.871-3.087,9.489-9.194,10.193-17.2.824-9.391-1.157-18.381-4.03-26.955,10.632,10.628,30.29,25.7,46.062,23.42,7.245-1.053,12.855-5.554,16.671-13.374,6.274-12.862,1.323-28.872-4.347-42.84-2.7-6.647-5.668-13.281-8.539-19.7l-1.016-2.269c8.543,8.2,16.186,15.837,23.2,23.181h0a12.255,12.255,0,0,0,12.392,3.765A15.426,15.426,0,0,0,293.831,248.7a13.037,13.037,0,0,0-3.563-12.847l-1.155-1.18c-9.616-9.823-19.558-19.979-29.52-29.79-1.228-1.21-2.488-2.5-3.79-3.839-7.732-7.935-17.356-17.814-29.062-18.536C226.288,182.482,225.843,182.47,225.4,182.47Zm5.939,85.521a1.917,1.917,0,0,0,1-.275,2.079,2.079,0,0,0,.979-2.4l-.1-.309c-2.211-7.037-5.094-13.822-7.639-19.805-1.008-2.369-2.074-4.763-3.149-7.181-4.333-9.739-8.812-19.807-10.274-30.016-.992-6.933.513-13.605,3.929-17.413,2.53-2.82,6.026-4.1,10.4-3.846,10.135.627,18.768,9.484,26.381,17.3,1.321,1.356,2.6,2.672,3.85,3.9,9.934,9.783,19.865,19.926,29.468,29.737l1.153,1.18a8.751,8.751,0,0,1,2.492,8.738,11.269,11.269,0,0,1-7.6,7.73,8.167,8.167,0,0,1-8.386-2.625h0c-9.061-9.486-19.157-19.454-30.867-30.472a2.032,2.032,0,0,0-2.606-.161,2.144,2.144,0,0,0-.687,2.579c1.716,3.973,3.484,7.92,5.25,11.87,2.857,6.38,5.809,12.978,8.481,19.557,5.312,13.082,10,27.984,4.467,39.32-3.217,6.592-7.649,10.213-13.549,11.071-14.7,2.129-35.384-14.084-45.687-25.512-1.1-1.218-2.155-2.481-3.215-3.742l-.8-.958a2.029,2.029,0,0,0-2.648-.422,2.146,2.146,0,0,0-.836,2.608c4.447,11.143,8.7,23.058,7.616,35.375-.58,6.6-3.333,11.378-7.962,13.813-5.4,2.837-12.659,2.1-19.422-1.975-13.752-8.285-24.936-22.545-34.976-36.721-3.173-4.479-1.213-8.376,1.679-10.529,3.917-2.916,10.036-3.259,13.667,1.837a152.172,152.172,0,0,0,14.818,17.744,2.031,2.031,0,0,0,2.7.2,2.149,2.149,0,0,0,.58-2.712q-1.171-2.2-2.364-4.38c-5.31-9.709-10.421-19.242-14.6-29.114l-.929-2.191c-7.839-18.449-18.575-43.717-9.119-62.389,4.594-9.073,15.466-9.959,23.831-6.155,10.439,4.749,18.068,14.625,25.444,24.172q1.431,1.853,2.84,3.657c6.308,8.031,12.176,16.606,17.855,24.9q3.062,4.475,6.154,8.942l.588.841a157.382,157.382,0,0,0,9.984,13.315l.186.206A2.233,2.233,0,0,0,231.339,267.99Zm41.029-13.811h0Z" transform="translate(-130.608 -182.47)" fill="#fc5f65"/>
              </g>
              <path id="Trazado_140702" data-name="Trazado 140702" d="M144.842,272.745c-7.628-15.688-11.93-34.078-5.231-50.942.992-2.492,5-1.4,3.993,1.127-6.291,15.835-2.362,32.921,4.813,47.677C149.6,273.042,146.03,275.191,144.842,272.745Z" transform="translate(-124.528 -203.089)" fill="#fc5f65"/>
              <path id="Trazado_140703" data-name="Trazado 140703" d="M146.745,240.719c-.035,0-.068.015-.1.021-.058.116-.112.239-.13.273l-.008.013c0,.017,0,.006,0,.032-.267.945-.46,1.9-.66,2.867q-.7,3.353-1.406,6.706a2.08,2.08,0,0,1-2.548,1.479,2.175,2.175,0,0,1-1.445-2.606l1.59-7.584c.443-2.106,1.149-4.867,3.612-5.289a2.117,2.117,0,0,1,2.546,1.481A2.151,2.151,0,0,1,146.745,240.719Z" transform="translate(-120.145 -215.786)" fill="#fc5f65"/>
              <path id="Trazado_140704" data-name="Trazado 140704" d="M190.625,249.951c-2.35,1.284-4.445-2.373-2.089-3.659,3.25-1.776,4.24-5.39,4.37-8.94a62.712,62.712,0,0,0-.934-12.15,81.974,81.974,0,0,0-7.185-22.761c-1.184-2.435,2.387-4.583,3.575-2.138a86.356,86.356,0,0,1,8.036,26.806C197.374,234.748,198.541,245.628,190.625,249.951Z" transform="translate(-72.885 -134.63)" fill="#fc5f65"/>
            </g>
          </g>
        </g>
      </g>
    </g>
  </g>
</svg>
