<svg xmlns="http://www.w3.org/2000/svg" xmlns:xlink="http://www.w3.org/1999/xlink" width="1238.79" height="389" viewBox="0 0 1238.79 389">
  <defs>
    <clipPath id="clip-path">
      <rect id="Rect치ngulo_38294" data-name="Rect치ngulo 38294" width="1238.79" height="389" rx="23" transform="translate(0 0)" fill="#ffdfe0"/>
    </clipPath>
  </defs>
  <g id="Grupo_161757" data-name="Grupo 161757" transform="translate(-169.209 -404)">
    <g id="Grupo_161192" data-name="Grupo 161192" transform="translate(-10.791 -4651.445)">
      <g id="Grupo_161191" data-name="Grupo 161191" transform="translate(180 5055.445)">
        <rect id="Rect치ngulo_4933" data-name="Rect치ngulo 4933" width="1238.79" height="389" rx="23" fill="#ffdfe0"/>
        <g id="Enmascarar_grupo_164" data-name="Enmascarar grupo 164" clip-path="url(#clip-path)">
          <g id="Grupo_161185" data-name="Grupo 161185" transform="translate(1066.308 241.849)">
            <g id="Grupo_161181" data-name="Grupo 161181" transform="translate(8.336)" style="isolation: isolate">
              <path id="Trazado_140685" data-name="Trazado 140685" d="M371.208,306.985c-16.94-18.184-34.446-35.7-52.286-52.906,7.714,18.294,16.029,36.3,23.353,54.783,8.3,20.957,17.953,49.524,7.486,71.506-23.852,50.106-84.148.94-106.338-24.28-2.363-2.689-4.62-5.5-6.905-8.269,7.929,20.367,15.066,41.295,13.181,63.3-2.591,30.256-29.032,37.514-51.794,23.454-24.443-15.093-44.076-41.21-60.468-64.93-13.923-20.146,17.935-39.325,31.749-19.467a259.1,259.1,0,0,0,24.819,30.455q-1.978-3.8-4-7.587c-8.906-16.69-17.7-33.446-24.96-51.014-13.9-33.634-34.446-80.2-16.965-115.578,8.811-17.829,29.471-19.64,45.026-12.386,20.91,9.752,35.392,31.281,49.354,49.5,14.574,19.024,27.411,39.226,40.9,59.076,5.636,8.3,11.269,16.708,17.724,24.336.148.177.3.339.45.513l-.162-.535c-3.583-11.685-8.189-22.9-12.854-34.139-8.677-20.917-19.872-42.932-23.051-65.69C262.663,207,270.43,184.45,293.5,185.911c21.69,1.372,39.073,23.288,53.573,37.924,17.559,17.726,34.8,35.8,52.054,53.861C417.141,296.551,389,326.079,371.208,306.985Z" transform="translate(-130.434 -182.156)" fill="#ffc1c3"/>
              <path id="Trazado_140686" data-name="Trazado 140686" d="M293.982,184.841c-8.512,0-15.738,3.135-20.994,9.14-7.306,8.347-10.464,21.942-8.449,36.367,2.626,18.807,10.446,36.821,18.005,54.237,1.811,4.171,3.6,8.3,5.3,12.389,1.607,3.876,3.3,7.948,4.975,12.16q-1.54-2.252-3.048-4.478l-1-1.472q-5.258-7.735-10.421-15.513c-9.708-14.532-19.746-29.562-30.6-43.733-1.586-2.069-3.179-4.183-4.789-6.318-12.45-16.516-26.56-35.235-45.877-44.242-17.221-8.022-39.776-5.776-49.572,14.056-17.6,35.626,1.4,81.468,15.284,114.94l1.575,3.806c4.082,9.888,8.66,19.541,13.516,29.149q-1.688-2.307-3.312-4.647c-8.54-12.275-23.5-12.09-33.029-4.817-7.883,6.016-12.306,17.2-4.409,28.625,17.5,25.32,37.066,50.837,61.533,65.944,13.579,8.384,28.441,9.745,39.766,3.64,9.971-5.374,16.121-16.007,17.313-29.946,1.4-16.347-1.965-31.993-6.842-46.919,18.055,18.5,51.446,44.747,78.234,40.771,12.306-1.833,21.831-9.667,28.311-23.281,10.66-22.388,2.25-50.261-7.384-74.571-4.585-11.574-9.627-23.119-14.5-34.287l-1.726-3.95c14.51,14.274,27.492,27.571,39.4,40.354v0c5.889,6.326,13.371,8.649,21.047,6.558,8.428-2.3,15.632-9.8,17.925-18.667,2.1-8.133-.046-16.077-6.055-22.366l-1.962-2.051c-16.332-17.1-33.219-34.781-50.138-51.855-2.085-2.106-4.226-4.36-6.434-6.683-13.136-13.813-29.482-31.008-49.365-32.266C295.491,184.863,294.731,184.841,293.982,184.841ZM304.07,333.706a3.2,3.2,0,0,0,1.7-.476,3.661,3.661,0,0,0,1.66-4.186l-.165-.538c-3.755-12.253-8.653-24.059-12.974-34.475-1.712-4.127-3.523-8.3-5.348-12.5-7.355-16.952-14.964-34.479-17.446-52.253-1.684-12.068.872-23.683,6.67-30.307,4.3-4.913,10.235-7.137,17.664-6.694,17.214,1.092,31.876,16.509,44.811,30.115,2.243,2.357,4.42,4.647,6.536,6.787,16.873,17.029,33.739,34.685,50.05,51.762l1.958,2.051c5.316,5.562,5.235,11.342,4.237,15.211-1.628,6.3-6.937,11.829-12.907,13.459-3.639,1-9.057,1-14.247-4.57v0c-15.39-16.513-32.537-33.863-52.427-53.038a3.387,3.387,0,0,0-4.427-.28,3.8,3.8,0,0,0-1.167,4.489c2.915,6.916,5.917,13.787,8.92,20.658,4.849,11.109,9.866,22.595,14.4,34.047,9.026,22.772,16.982,48.712,7.588,68.441-5.46,11.478-12.988,17.782-23.012,19.272-24.974,3.711-60.1-24.513-77.594-44.408-1.867-2.117-3.664-4.315-5.464-6.514l-1.361-1.664a3.4,3.4,0,0,0-4.5-.734,3.781,3.781,0,0,0-1.417,4.537c7.549,19.4,14.767,40.137,12.932,61.581-.984,11.489-5.661,19.8-13.523,24.041-9.17,4.942-21.5,3.655-32.987-3.434-23.353-14.425-42.354-39.244-59.406-63.919-5.386-7.8-2.06-14.584,2.852-18.331,6.652-5.072,17.046-5.669,23.213,3.2a264.15,264.15,0,0,0,25.167,30.886,3.394,3.394,0,0,0,4.6.354,3.811,3.811,0,0,0,.984-4.725q-1.988-3.817-4.019-7.62c-9.015-16.9-17.7-33.494-24.8-50.678l-1.579-3.814c-13.319-32.114-31.552-76.1-15.492-108.6,7.8-15.79,26.268-17.332,40.476-10.711,17.731,8.266,30.688,25.453,43.215,42.077,1.621,2.147,3.228,4.279,4.827,6.363,10.71,13.983,20.678,28.909,30.322,43.345q5.2,7.79,10.453,15.561l1,1.468A273.363,273.363,0,0,0,301,332.113l.313.358A3.754,3.754,0,0,0,304.07,333.706Zm69.687-24.037h0Z" transform="translate(-132.979 -184.841)" fill="#ffc1c3"/>
              <path id="Trazado_140687" data-name="Trazado 140687" d="M153.184,313.894c-12.953-27.309-20.263-59.324-8.881-88.675,1.681-4.341,8.484-2.442,6.779,1.962-10.682,27.559-4.008,57.306,8.175,82.992C161.267,314.407,155.2,318.151,153.184,313.894Z" transform="translate(-118.683 -192.64)" fill="#ffc1c3"/>
              <path id="Trazado_140688" data-name="Trazado 140688" d="M153.558,246.147c-.06.007-.116.026-.172.037-.1.2-.186.417-.218.476l-.018.022c-.007.029,0,.007-.007.052-.454,1.649-.777,3.316-1.122,4.994q-1.192,5.837-2.387,11.674a3.523,3.523,0,0,1-4.325,2.574,3.8,3.8,0,0,1-2.458-4.537q1.35-6.6,2.7-13.2c.749-3.662,1.948-8.468,6.132-9.2a3.584,3.584,0,0,1,4.325,2.578C156.4,243.391,155.5,245.807,153.558,246.147Z" transform="translate(-108.379 -202.742)" fill="#ffc1c3"/>
              <path id="Trazado_140689" data-name="Trazado 140689" d="M197.239,289.894c-3.991,2.235-7.545-4.131-3.548-6.37,5.52-3.091,7.2-9.383,7.422-15.565a111.787,111.787,0,0,0-1.586-21.145,145.257,145.257,0,0,0-12.2-39.62c-2.008-4.238,4.054-7.978,6.072-3.722a152.945,152.945,0,0,1,13.649,46.661C208.7,263.427,210.684,282.366,197.239,289.894Z" transform="translate(2.739 -89.152)" fill="#ffc1c3"/>
            </g>
            <g id="Grupo_161184" data-name="Grupo 161184" transform="translate(0 8.749)">
              <g id="Grupo_161183" data-name="Grupo 161183">
                <g id="Grupo_161182" data-name="Grupo 161182">
                  <path id="Trazado_140690" data-name="Trazado 140690" d="M368.84,304.614c-16.94-18.184-34.446-35.7-52.29-52.9,7.714,18.291,16.033,36.3,23.357,54.779,8.3,20.957,17.949,49.524,7.486,71.506-23.853,50.106-84.148.944-106.338-24.281-2.366-2.685-4.62-5.492-6.905-8.269,7.925,20.367,15.063,41.295,13.181,63.3C244.739,439,218.3,446.261,195.536,432.2c-24.447-15.1-44.077-41.214-60.472-64.933C121.141,347.126,153,327.946,166.818,347.8a259.4,259.4,0,0,0,24.816,30.458q-1.978-3.8-3.994-7.591c-8.906-16.69-17.7-33.446-24.96-51.01-13.9-33.638-34.446-80.2-16.965-115.582,8.811-17.83,29.468-19.641,45.026-12.386,20.91,9.752,35.392,31.281,49.354,49.5,14.574,19.024,27.407,39.226,40.9,59.076,5.64,8.3,11.272,16.708,17.724,24.339.148.173.306.336.454.513l-.162-.539c-3.583-11.685-8.192-22.9-12.854-34.139-8.681-20.913-19.872-42.929-23.051-65.69-2.813-20.124,4.958-42.678,28.03-41.217,21.687,1.372,39.07,23.288,53.57,37.924,17.562,17.726,34.808,35.806,52.058,53.865C414.769,294.179,386.631,323.708,368.84,304.614Z" transform="translate(-128.066 -179.789)" fill="#ff9fa3"/>
                  <path id="Trazado_140691" data-name="Trazado 140691" d="M291.608,182.47c-8.512,0-15.734,3.131-20.99,9.136-7.306,8.347-10.464,21.942-8.449,36.371,2.623,18.8,10.443,36.817,18.005,54.237,1.807,4.171,3.6,8.3,5.3,12.386,1.607,3.876,3.3,7.948,4.975,12.16-1.027-1.5-2.043-3-3.048-4.478l-1-1.468c-3.505-5.156-6.965-10.339-10.425-15.513-9.7-14.536-19.742-29.566-30.6-43.733-1.586-2.073-3.178-4.186-4.789-6.322-12.45-16.513-26.56-35.231-45.877-44.242-17.225-8.022-39.776-5.772-49.572,14.06-17.6,35.622,1.4,81.465,15.281,114.94l1.579,3.8c4.082,9.888,8.66,19.541,13.512,29.149q-1.682-2.307-3.312-4.644c-8.537-12.279-23.494-12.094-33.026-4.821-7.883,6.016-12.306,17.2-4.409,28.625,17.5,25.32,37.066,50.836,61.53,65.948,13.582,8.38,28.441,9.741,39.769,3.637,9.971-5.374,16.117-16,17.313-29.942,1.4-16.347-1.965-32-6.846-46.92,18.058,18.5,51.446,44.743,78.234,40.767,12.306-1.833,21.834-9.667,28.314-23.281,10.657-22.388,2.247-50.258-7.384-74.571-4.585-11.57-9.627-23.119-14.5-34.283l-1.726-3.95c14.51,14.27,27.492,27.567,39.4,40.351h0c5.889,6.326,13.371,8.646,21.047,6.554,8.428-2.3,15.632-9.8,17.921-18.667,2.106-8.133-.042-16.074-6.051-22.362l-1.962-2.054c-16.332-17.1-33.219-34.777-50.138-51.854-2.085-2.106-4.226-4.36-6.438-6.683-13.132-13.813-29.478-31.008-49.361-32.266C293.116,182.492,292.36,182.47,291.608,182.47ZM301.7,331.335a3.2,3.2,0,0,0,1.7-.479,3.656,3.656,0,0,0,1.663-4.186l-.165-.538c-3.755-12.249-8.653-24.059-12.974-34.475-1.712-4.124-3.523-8.291-5.348-12.5-7.359-16.952-14.967-34.479-17.45-52.249-1.684-12.068.872-23.683,6.673-30.311,4.3-4.909,10.235-7.137,17.664-6.694,17.214,1.092,31.876,16.509,44.808,30.115,2.243,2.361,4.423,4.651,6.54,6.787,16.873,17.029,33.74,34.685,50.05,51.762l1.958,2.054c5.313,5.558,5.235,11.338,4.233,15.211-1.628,6.292-6.934,11.829-12.907,13.455-3.636,1-9.054,1-14.243-4.57h0c-15.389-16.513-32.537-33.863-52.427-53.042a3.387,3.387,0,0,0-4.427-.28,3.79,3.79,0,0,0-1.167,4.489c2.915,6.916,5.917,13.787,8.917,20.662,4.852,11.106,9.866,22.591,14.405,34.044,9.022,22.772,16.982,48.712,7.587,68.445-5.464,11.474-12.992,17.778-23.012,19.272-24.974,3.707-60.1-24.516-77.6-44.408-1.863-2.121-3.66-4.319-5.46-6.514l-1.364-1.667a3.389,3.389,0,0,0-4.5-.734,3.786,3.786,0,0,0-1.42,4.54c7.552,19.4,14.771,40.137,12.935,61.577-.984,11.493-5.661,19.806-13.523,24.044-9.173,4.939-21.5,3.651-32.987-3.438-23.357-14.422-42.354-39.244-59.406-63.919-5.39-7.8-2.06-14.58,2.852-18.327,6.652-5.075,17.046-5.673,23.213,3.2a263.493,263.493,0,0,0,25.167,30.886,3.389,3.389,0,0,0,4.592.354,3.8,3.8,0,0,0,.984-4.721q-1.988-3.823-4.015-7.624c-9.019-16.9-17.7-33.494-24.8-50.678l-1.579-3.814c-13.315-32.115-31.549-76.1-15.488-108.6,7.8-15.794,26.268-17.335,40.476-10.715,17.731,8.266,30.688,25.457,43.215,42.077q2.431,3.225,4.824,6.366c10.713,13.979,20.681,28.906,30.325,43.342q5.2,7.79,10.453,15.565l1,1.464a273.5,273.5,0,0,0,16.958,23.178l.316.358A3.751,3.751,0,0,0,301.7,331.335Zm69.687-24.041h0Z" transform="translate(-130.608 -182.47)" fill="#fc5f65"/>
                </g>
                <path id="Trazado_140692" data-name="Trazado 140692" d="M150.815,311.522c-12.957-27.309-20.263-59.32-8.885-88.675,1.684-4.338,8.488-2.442,6.782,1.962-10.685,27.563-4.012,57.306,8.175,82.992C158.894,312.038,152.833,315.778,150.815,311.522Z" transform="translate(-116.313 -190.271)" fill="#fc5f65"/>
                <path id="Trazado_140693" data-name="Trazado 140693" d="M151.187,243.775c-.06.007-.116.026-.172.037-.1.2-.19.417-.222.476l-.014.022c-.007.03,0,.011-.007.055-.454,1.645-.781,3.316-1.122,4.99q-1.2,5.837-2.387,11.674a3.526,3.526,0,0,1-4.328,2.574,3.8,3.8,0,0,1-2.454-4.537l2.7-13.2c.752-3.666,1.951-8.472,6.135-9.206a3.587,3.587,0,0,1,4.325,2.578C154.028,241.019,153.124,243.435,151.187,243.775Z" transform="translate(-106.008 -200.374)" fill="#fc5f65"/>
                <path id="Trazado_140694" data-name="Trazado 140694" d="M194.868,287.523c-3.991,2.235-7.549-4.131-3.548-6.37,5.52-3.091,7.2-9.383,7.422-15.561a111.816,111.816,0,0,0-1.586-21.149,145.255,145.255,0,0,0-12.2-39.62c-2.011-4.238,4.054-7.978,6.072-3.722a153.1,153.1,0,0,1,13.649,46.661C206.331,261.059,208.314,280,194.868,287.523Z" transform="translate(5.109 -86.785)" fill="#fc5f65"/>
              </g>
            </g>
          </g>
        </g>
      </g>
    </g>
  </g>
</svg>
