<svg xmlns="http://www.w3.org/2000/svg" xmlns:xlink="http://www.w3.org/1999/xlink" width="1238.79" height="609.563" viewBox="0 0 1238.79 609.563">
  <defs>
    <clipPath id="clip-path">
      <rect id="Rect치ngulo_38294" data-name="Rect치ngulo 38294" width="1238.79" height="609.562" rx="23" transform="translate(0 0)" fill="#ffdfe0"/>
    </clipPath>
  </defs>
  <g id="Grupo_161192" data-name="Grupo 161192" transform="translate(-180 -5055.445)">
    <g id="Grupo_161191" data-name="Grupo 161191" transform="translate(0 -14.038)">
      <rect id="Rect치ngulo_4933" data-name="Rect치ngulo 4933" width="1238.79" height="609.563" rx="23" transform="translate(180 5069.483)" fill="#e1e8ff"/>
      <g id="Enmascarar_grupo_164" data-name="Enmascarar grupo 164" transform="translate(180 5069.483)" clip-path="url(#clip-path)">
        <g id="Grupo_161844" data-name="Grupo 161844" transform="translate(1065 469.149)">
          <g id="Grupo_161181" data-name="Grupo 161181" transform="translate(7.889 0)" style="isolation: isolate">
            <path id="Trazado_140685" data-name="Trazado 140685" d="M358.465,300.476c-16.03-17.207-32.6-33.781-49.477-50.063,7.3,17.311,15.168,34.347,22.1,51.84,7.855,19.831,16.988,46.863,7.083,67.664-22.571,47.414-79.628.89-100.625-22.976-2.236-2.545-4.372-5.2-6.535-7.825,7.5,19.273,14.257,39.076,12.473,59.9-2.452,28.63-27.472,35.5-49.012,22.194-23.13-14.282-41.709-39-57.22-61.441-13.175-19.063,16.972-37.212,30.044-18.421a245.184,245.184,0,0,0,23.486,28.819q-1.871-3.6-3.783-7.18c-8.428-15.793-16.752-31.649-23.619-48.273-13.149-31.827-32.6-75.891-16.053-109.369,8.338-16.872,27.888-18.585,42.607-11.72,19.786,9.228,33.491,29.6,46.7,46.842,13.791,18,25.938,37.118,38.7,55.9,5.333,7.849,10.663,15.811,16.772,23.028.14.168.286.321.426.485l-.153-.506c-3.39-11.057-7.749-21.667-12.164-32.305-8.211-19.793-18.8-40.626-21.813-62.16-2.658-19.043,4.691-40.385,26.524-39,20.525,1.3,36.974,22.037,50.7,35.886,16.616,16.774,32.935,33.879,49.258,50.967C401.93,290.6,375.3,318.545,358.465,300.476Z" transform="translate(-130.625 -182.354)" fill="#acade1"/>
            <path id="Trazado_140686" data-name="Trazado 140686" d="M285.333,184.841c-8.055,0-14.892,2.967-19.866,8.649-6.914,7.9-9.9,20.763-8,34.413,2.485,17.8,9.885,34.842,17.038,51.323,1.714,3.947,3.41,7.856,5.014,11.724,1.521,3.668,3.121,7.521,4.708,11.507q-1.457-2.131-2.885-4.237l-.945-1.393q-4.976-7.319-9.862-14.68c-9.186-13.751-18.685-27.974-28.959-41.383-1.5-1.958-3.008-3.958-4.532-5.979-11.781-15.629-25.133-33.342-43.412-41.865-16.3-7.591-37.64-5.466-46.909,13.3-16.659,33.712,1.328,77.091,14.463,108.765l1.491,3.6c3.863,9.357,8.195,18.491,12.789,27.583q-1.6-2.183-3.134-4.4c-8.082-11.615-22.235-11.441-31.255-4.558-7.459,5.693-11.645,16.275-4.172,27.087,16.559,23.96,35.074,48.105,58.228,62.4,12.849,7.933,26.913,9.221,37.63,3.445,9.436-5.085,15.255-15.147,16.383-28.337,1.324-15.468-1.86-30.274-6.474-44.4,17.085,17.51,48.682,42.343,74.032,38.581,11.645-1.735,20.658-9.148,26.79-22.03,10.088-21.185,2.129-47.561-6.987-70.565-4.339-10.952-9.11-21.877-13.724-32.445l-1.634-3.738c13.731,13.507,26.015,26.089,37.287,38.186v0c5.573,5.986,12.653,8.185,19.916,6.206,7.975-2.178,14.792-9.273,16.962-17.664a21.848,21.848,0,0,0-5.729-21.164l-1.856-1.941c-15.454-16.18-31.435-32.912-47.445-49.069-1.973-1.993-4-4.125-6.089-6.324-12.43-13.071-27.9-29.342-46.713-30.532C286.761,184.861,286.042,184.841,285.333,184.841Zm9.545,140.868a3.029,3.029,0,0,0,1.61-.45,3.464,3.464,0,0,0,1.57-3.961l-.156-.509c-3.553-11.594-8.188-22.767-12.277-32.623-1.62-3.906-3.334-7.849-5.06-11.828-6.96-16.041-14.16-32.626-16.509-49.445-1.594-11.42.825-22.411,6.311-28.679,4.069-4.649,9.685-6.754,16.715-6.335,16.289,1.033,30.164,15.622,42.4,28.5,2.123,2.23,4.182,4.4,6.185,6.422,15.967,16.114,31.927,32.822,47.361,48.981l1.853,1.94c5.031,5.263,4.954,10.732,4.009,14.394-1.54,5.958-6.564,11.193-12.214,12.736-3.444.942-8.571.949-13.481-4.324v0c-14.563-15.626-30.789-32.044-49.611-50.189a3.2,3.2,0,0,0-4.189-.265,3.591,3.591,0,0,0-1.1,4.247c2.758,6.544,5.6,13.046,8.441,19.549,4.588,10.513,9.336,21.381,13.628,32.218,8.541,21.548,16.07,46.1,7.18,64.764-5.167,10.861-12.29,16.826-21.776,18.236-23.633,3.511-56.867-23.2-73.426-42.022-1.767-2-3.467-4.084-5.17-6.164l-1.288-1.574a3.212,3.212,0,0,0-4.259-.695,3.578,3.578,0,0,0-1.341,4.293c7.143,18.358,13.974,37.98,12.237,58.272-.932,10.872-5.357,18.739-12.8,22.749-8.677,4.677-20.345,3.459-31.215-3.249-22.1-13.65-40.078-37.136-56.215-60.485-5.1-7.378-1.95-13.8,2.7-17.346,6.295-4.8,16.13-5.364,21.966,3.029a249.951,249.951,0,0,0,23.815,29.227,3.211,3.211,0,0,0,4.349.335,3.606,3.606,0,0,0,.932-4.471q-1.881-3.612-3.8-7.211c-8.531-15.992-16.749-31.694-23.466-47.955l-1.494-3.609c-12.6-30.389-29.857-72.01-14.659-102.769,7.383-14.942,24.857-16.4,38.3-10.135,16.779,7.822,29.039,24.086,40.894,39.816,1.534,2.031,3.054,4.049,4.568,6.021,10.134,13.231,19.567,27.356,28.693,41.017q4.921,7.371,9.892,14.725l.945,1.389a258.652,258.652,0,0,0,16.05,21.932l.3.339A3.552,3.552,0,0,0,294.879,325.708Zm65.943-22.746h0Z" transform="translate(-132.979 -184.841)" fill="#acade1"/>
            <path id="Trazado_140687" data-name="Trazado 140687" d="M152.4,309c-12.257-25.841-19.174-56.136-8.4-83.911,1.59-4.108,8.028-2.31,6.415,1.857-10.108,26.079-3.793,54.227,7.736,78.533C160.053,309.484,154.314,313.026,152.4,309Z" transform="translate(-119.756 -194.258)" fill="#acade1"/>
            <path id="Trazado_140688" data-name="Trazado 140688" d="M152.978,245.761c-.057.007-.11.025-.163.035-.093.188-.176.394-.206.45l-.017.021c-.007.028,0,.007-.007.049-.429,1.56-.735,3.138-1.061,4.726q-1.128,5.523-2.259,11.046a3.334,3.334,0,0,1-4.092,2.436,3.6,3.6,0,0,1-2.326-4.293q1.278-6.246,2.559-12.495c.709-3.466,1.843-8.013,5.8-8.708a3.392,3.392,0,0,1,4.092,2.44C155.666,243.154,154.814,245.44,152.978,245.761Z" transform="translate(-110.226 -204.688)" fill="#acade1"/>
            <path id="Trazado_140689" data-name="Trazado 140689" d="M196.684,285.15c-3.776,2.115-7.14-3.909-3.357-6.028,5.224-2.925,6.817-8.879,7.024-14.729a105.781,105.781,0,0,0-1.5-20.009A137.451,137.451,0,0,0,187.3,206.893c-1.9-4.01,3.836-7.549,5.746-3.522a144.727,144.727,0,0,1,12.916,44.154C207.531,260.1,209.407,278.027,196.684,285.15Z" transform="translate(-7.449 -95.193)" fill="#acade1"/>
          </g>
          <g id="Grupo_161184" data-name="Grupo 161184" transform="translate(0 8.279)">
            <g id="Grupo_161183" data-name="Grupo 161183">
              <g id="Grupo_161182" data-name="Grupo 161182">
                <path id="Trazado_140690" data-name="Trazado 140690" d="M356.1,298.105c-16.03-17.207-32.6-33.781-49.481-50.06,7.3,17.308,15.172,34.347,22.1,51.836,7.855,19.831,16.985,46.863,7.084,67.664-22.571,47.414-79.628.893-100.625-22.976-2.239-2.541-4.372-5.2-6.534-7.825,7.5,19.273,14.253,39.076,12.473,59.9-2.452,28.63-27.472,35.5-49.012,22.2-23.133-14.285-41.709-39-57.223-61.445-13.175-19.063,16.975-37.212,30.047-18.421A245.465,245.465,0,0,0,188.409,367.8q-1.872-3.6-3.78-7.183c-8.428-15.793-16.752-31.649-23.619-48.269-13.152-31.831-32.6-75.891-16.053-109.372,8.338-16.872,27.885-18.585,42.607-11.72,19.786,9.228,33.491,29.6,46.7,46.842,13.791,18,25.935,37.118,38.7,55.9,5.337,7.849,10.667,15.811,16.772,23.032.14.164.289.318.429.485l-.153-.51c-3.39-11.057-7.752-21.667-12.164-32.305-8.215-19.789-18.8-40.622-21.813-62.16-2.662-19.043,4.691-40.385,26.524-39,20.522,1.3,36.971,22.037,50.692,35.886,16.619,16.774,32.938,33.883,49.261,50.971C399.558,288.231,372.931,316.174,356.1,298.105Z" transform="translate(-128.256 -179.986)" fill="#a6bbff"/>
                <path id="Trazado_140691" data-name="Trazado 140691" d="M282.959,182.47c-8.055,0-14.889,2.963-19.863,8.645-6.914,7.9-9.9,20.763-8,34.417,2.482,17.793,9.882,34.839,17.038,51.323,1.71,3.947,3.407,7.853,5.014,11.72,1.52,3.668,3.121,7.521,4.708,11.507-.972-1.417-1.933-2.834-2.885-4.237l-.945-1.389c-3.317-4.879-6.591-9.783-9.865-14.68-9.183-13.755-18.682-27.977-28.956-41.383-1.5-1.961-3.008-3.961-4.531-5.982-11.781-15.626-25.133-33.338-43.412-41.865-16.3-7.591-37.64-5.462-46.909,13.3-16.659,33.708,1.328,77.088,14.46,108.765l1.494,3.6c3.863,9.357,8.195,18.491,12.786,27.583q-1.592-2.183-3.134-4.394c-8.078-11.619-22.232-11.444-31.252-4.562-7.459,5.692-11.645,16.275-4.172,27.087,16.559,23.96,35.075,48.105,58.225,62.4,12.853,7.93,26.913,9.218,37.633,3.441,9.436-5.085,15.251-15.144,16.383-28.333,1.324-15.469-1.86-30.278-6.478-44.4,17.088,17.507,48.682,42.339,74.032,38.577,11.645-1.735,20.661-9.148,26.793-22.03,10.085-21.186,2.126-47.557-6.987-70.565-4.339-10.949-9.11-21.876-13.724-32.441l-1.634-3.738c13.731,13.5,26.015,26.086,37.287,38.183h0c5.573,5.986,12.653,8.181,19.916,6.2,7.975-2.178,14.792-9.273,16.958-17.664a21.833,21.833,0,0,0-5.726-21.161l-1.857-1.944c-15.455-16.181-31.435-32.909-47.445-49.069-1.973-1.993-4-4.126-6.092-6.324C319.4,200,303.93,183.726,285.115,182.536,284.386,182.49,283.671,182.47,282.959,182.47ZM292.5,323.337a3.024,3.024,0,0,0,1.61-.454,3.46,3.46,0,0,0,1.574-3.961l-.156-.51c-3.553-11.591-8.188-22.767-12.277-32.623-1.62-3.9-3.334-7.846-5.061-11.828-6.964-16.041-14.163-32.626-16.512-49.442-1.594-11.42.825-22.411,6.315-28.683,4.066-4.645,9.685-6.753,16.715-6.335,16.29,1.033,30.164,15.622,42.4,28.5,2.123,2.234,4.185,4.4,6.188,6.422,15.967,16.114,31.927,32.822,47.362,48.981l1.853,1.944c5.027,5.26,4.954,10.729,4.006,14.394-1.54,5.954-6.561,11.193-12.214,12.732-3.44.942-8.567.949-13.478-4.324h0c-14.563-15.626-30.789-32.043-49.611-50.192a3.205,3.205,0,0,0-4.189-.265,3.586,3.586,0,0,0-1.1,4.247c2.758,6.544,5.6,13.046,8.438,19.552C318.955,282,323.7,292.868,327.995,303.7c8.537,21.548,16.07,46.095,7.18,64.768C330,379.33,322.881,385.295,313.4,386.708c-23.632,3.508-56.87-23.2-73.429-42.022-1.763-2.007-3.464-4.087-5.167-6.164l-1.291-1.578a3.207,3.207,0,0,0-4.255-.695,3.582,3.582,0,0,0-1.344,4.3c7.147,18.355,13.977,37.98,12.24,58.269-.932,10.875-5.357,18.742-12.8,22.753-8.68,4.673-20.345,3.455-31.215-3.253-22.1-13.647-40.078-37.136-56.215-60.485-5.1-7.378-1.95-13.8,2.7-17.343,6.295-4.8,16.13-5.368,21.966,3.026a249.348,249.348,0,0,0,23.815,29.227,3.207,3.207,0,0,0,4.345.335,3.6,3.6,0,0,0,.932-4.467q-1.881-3.618-3.8-7.214c-8.534-15.992-16.749-31.694-23.469-47.955l-1.494-3.609c-12.6-30.389-29.854-72.01-14.656-102.765,7.383-14.945,24.857-16.4,38.3-10.139,16.779,7.822,29.039,24.089,40.894,39.816q2.3,3.052,4.565,6.024c10.138,13.228,19.57,27.353,28.7,41.013q4.921,7.371,9.892,14.729l.945,1.386A258.808,258.808,0,0,0,289.6,321.826l.3.339A3.549,3.549,0,0,0,292.5,323.337Zm65.943-22.749h0Z" transform="translate(-130.608 -182.47)" fill="#3c3fa7"/>
              </g>
              <path id="Trazado_140692" data-name="Trazado 140692" d="M150.034,306.626c-12.26-25.841-19.174-56.133-8.408-83.911,1.594-4.1,8.032-2.31,6.418,1.857-10.111,26.082-3.8,54.227,7.736,78.533C157.68,307.114,151.944,310.653,150.034,306.626Z" transform="translate(-117.387 -191.889)" fill="#3c3fa7"/>
              <path id="Trazado_140693" data-name="Trazado 140693" d="M150.607,243.389c-.057.007-.11.024-.163.035-.093.192-.18.394-.21.45l-.013.021c-.007.028,0,.01-.007.052-.429,1.557-.739,3.138-1.061,4.722q-1.133,5.523-2.259,11.046a3.336,3.336,0,0,1-4.1,2.436,3.6,3.6,0,0,1-2.322-4.293l2.555-12.491c.712-3.469,1.846-8.017,5.806-8.711a3.394,3.394,0,0,1,4.092,2.44C153.295,240.782,152.44,243.068,150.607,243.389Z" transform="translate(-107.855 -202.32)" fill="#3c3fa7"/>
              <path id="Trazado_140694" data-name="Trazado 140694" d="M194.314,282.779c-3.776,2.115-7.143-3.909-3.357-6.028,5.224-2.925,6.814-8.879,7.023-14.725a105.819,105.819,0,0,0-1.5-20.013,137.449,137.449,0,0,0-11.548-37.492c-1.9-4.01,3.836-7.549,5.746-3.522a144.876,144.876,0,0,1,12.916,44.154C205.161,257.737,207.037,275.659,194.314,282.779Z" transform="translate(-5.079 -92.826)" fill="#3c3fa7"/>
            </g>
          </g>
        </g>
        <g id="Grupo_161845" data-name="Grupo 161845" transform="translate(-34.951 -48.453)">
          <g id="Grupo_161181-2" data-name="Grupo 161181" transform="translate(4.731 0)" style="isolation: isolate">
            <path id="Trazado_140685-2" data-name="Trazado 140685" d="M268.624,254.6c-9.614-10.32-19.55-20.261-29.675-30.027,4.378,10.383,9.1,20.6,13.254,31.092,4.711,11.894,10.189,28.107,4.248,40.583-13.538,28.438-47.759.534-60.352-13.78-1.341-1.526-2.622-3.119-3.919-4.693,4.5,11.559,8.551,23.437,7.481,35.925-1.471,17.172-16.477,21.291-29.4,13.311-13.873-8.566-25.016-23.389-34.319-36.851-7.9-11.434,10.179-22.319,18.019-11.048a147.055,147.055,0,0,0,14.086,17.285q-1.122-2.157-2.269-4.306c-5.055-9.472-10.047-18.982-14.166-28.953-7.886-19.089-19.55-45.517-9.628-65.6,5-10.119,16.726-11.147,25.555-7.029,11.867,5.535,20.087,17.753,28.011,28.094,8.271,10.8,15.557,22.262,23.214,33.529a162.573,162.573,0,0,0,10.059,13.812c.084.1.172.193.255.291l-.092-.3c-2.033-6.632-4.648-13-7.3-19.376-4.925-11.871-11.279-24.366-13.083-37.282-1.594-11.421,2.814-24.222,15.908-23.393,12.31.779,22.176,13.217,30.406,21.523,9.966,10.06,19.754,20.32,29.543,30.569C294.693,248.675,278.723,265.434,268.624,254.6Z" transform="translate(-131.972 -183.751)" fill="#acade1"/>
            <path id="Trazado_140686-2" data-name="Trazado 140686" d="M224.357,184.841a15.294,15.294,0,0,0-11.915,5.187c-4.147,4.737-5.939,12.453-4.8,20.64,1.491,10.674,5.929,20.9,10.219,30.782,1.028,2.368,2.045,4.712,3.007,7.031.912,2.2,1.872,4.511,2.824,6.9q-.874-1.278-1.73-2.541l-.567-.835q-2.984-4.39-5.915-8.8c-5.51-8.248-11.207-16.778-17.369-24.82-.9-1.174-1.8-2.374-2.718-3.586-7.066-9.374-15.074-20-26.037-25.109-9.774-4.553-22.575-3.278-28.135,7.978-9.992,20.219.8,46.237,8.674,65.234l.894,2.16c2.317,5.612,4.915,11.09,7.671,16.543q-.958-1.309-1.88-2.638c-4.847-6.966-13.336-6.862-18.746-2.734-4.474,3.414-6.984,9.761-2.5,16.246,9.932,14.371,21.037,28.852,34.923,37.426,7.707,4.758,16.142,5.531,22.569,2.066,5.659-3.05,9.149-9.085,9.826-17,.794-9.278-1.116-18.157-3.883-26.629,10.247,10.5,29.2,25.4,44.4,23.14,6.984-1.04,12.39-5.487,16.068-13.213,6.05-12.706,1.277-28.526-4.191-42.323-2.6-6.569-5.464-13.121-8.232-19.459l-.98-2.242c8.235,8.1,15.6,15.648,22.364,22.9v0c3.342,3.59,7.589,4.909,11.945,3.722a15.073,15.073,0,0,0,10.173-10.594,13.1,13.1,0,0,0-3.436-12.694l-1.113-1.164c-9.269-9.7-18.854-19.74-28.456-29.43-1.183-1.2-2.4-2.474-3.652-3.793-7.455-7.839-16.732-17.6-28.017-18.312C225.213,184.853,224.782,184.841,224.357,184.841Zm5.725,84.488a1.816,1.816,0,0,0,.966-.27,2.078,2.078,0,0,0,.942-2.376l-.094-.306c-2.131-6.954-4.911-13.655-7.363-19.566-.972-2.342-2-4.708-3.035-7.094-4.175-9.621-8.493-19.568-9.9-29.656-.956-6.849.495-13.441,3.785-17.2,2.441-2.788,5.809-4.051,10.025-3.8,9.77.62,18.091,9.37,25.433,17.092,1.273,1.338,2.508,2.638,3.71,3.852,9.576,9.665,19.149,19.686,28.406,29.378l1.112,1.164a8.8,8.8,0,0,1,2.4,8.633,11.013,11.013,0,0,1-7.325,7.639c-2.065.565-5.14.569-8.086-2.594v0c-8.734-9.372-18.467-19.219-29.755-30.1a1.922,1.922,0,0,0-2.512-.159,2.154,2.154,0,0,0-.663,2.548c1.654,3.925,3.358,7.825,5.063,11.725,2.752,6.305,5.6,12.824,8.174,19.323C256.489,270.48,261,285.2,255.672,296.4c-3.1,6.514-7.371,10.092-13.061,10.938-14.174,2.106-34.107-13.912-44.039-25.2-1.06-1.2-2.079-2.449-3.1-3.7l-.772-.944a1.927,1.927,0,0,0-2.554-.417,2.146,2.146,0,0,0-.8,2.575c4.284,11.011,8.381,22.779,7.34,34.95-.559,6.521-3.213,11.239-7.675,13.644-5.2,2.805-12.2,2.075-18.722-1.949-13.254-8.187-24.038-22.273-33.716-36.277-3.057-4.425-1.169-8.277,1.618-10.4,3.776-2.878,9.674-3.217,13.174,1.817a149.912,149.912,0,0,0,14.284,17.53,1.926,1.926,0,0,0,2.608.2,2.163,2.163,0,0,0,.559-2.682q-1.128-2.167-2.281-4.325c-5.117-9.592-10.045-19.009-14.074-28.762l-.9-2.165C146,243,135.653,218.041,144.768,199.592c4.428-8.962,14.909-9.837,22.972-6.079,10.063,4.691,17.417,14.446,24.527,23.881.92,1.218,1.832,2.428,2.74,3.611,6.078,7.936,11.736,16.407,17.209,24.6q2.951,4.421,5.933,8.832l.567.833a155.134,155.134,0,0,0,9.626,13.154l.178.2A2.131,2.131,0,0,0,230.082,269.329Zm39.551-13.642h0Z" transform="translate(-132.979 -184.841)" fill="#acade1"/>
            <path id="Trazado_140687-2" data-name="Trazado 140687" d="M146.9,274.486c-7.351-15.5-11.5-33.669-5.041-50.328.954-2.464,4.815-1.386,3.847,1.114-6.062,15.641-2.275,32.524,4.64,47.1C151.491,274.777,148.049,276.9,146.9,274.486Z" transform="translate(-127.323 -205.668)" fill="#acade1"/>
            <path id="Trazado_140688-2" data-name="Trazado 140688" d="M148.887,243.041c-.034,0-.066.015-.1.021-.056.113-.106.237-.124.27l-.01.013c0,.017,0,0,0,.029-.257.936-.441,1.882-.637,2.834q-.676,3.313-1.355,6.625a2,2,0,0,1-2.454,1.461,2.157,2.157,0,0,1-1.395-2.575q.766-3.746,1.535-7.494c.425-2.079,1.105-4.806,3.48-5.223a2.034,2.034,0,0,1,2.454,1.463A2.131,2.131,0,0,1,148.887,243.041Z" transform="translate(-123.246 -218.407)" fill="#acade1"/>
            <path id="Trazado_140689-2" data-name="Trazado 140689" d="M192.777,251.709c-2.265,1.269-4.282-2.345-2.014-3.615,3.133-1.754,4.089-5.325,4.213-8.834a63.444,63.444,0,0,0-.9-12,82.439,82.439,0,0,0-6.926-22.486c-1.139-2.405,2.3-4.528,3.446-2.112a86.8,86.8,0,0,1,7.747,26.483C199.282,236.688,200.408,247.437,192.777,251.709Z" transform="translate(-79.279 -137.778)" fill="#acade1"/>
          </g>
          <g id="Grupo_161184-2" data-name="Grupo 161184" transform="translate(0 4.965)">
            <g id="Grupo_161183-2" data-name="Grupo 161183">
              <g id="Grupo_161182-2" data-name="Grupo 161182">
                <path id="Trazado_140690-2" data-name="Trazado 140690" d="M266.254,252.226c-9.614-10.32-19.55-20.261-29.677-30.024,4.378,10.381,9.1,20.6,13.256,31.09,4.711,11.894,10.187,28.107,4.249,40.583-13.538,28.438-47.759.536-60.352-13.78-1.343-1.524-2.622-3.117-3.919-4.693,4.5,11.559,8.549,23.437,7.481,35.925-1.471,17.172-16.477,21.291-29.4,13.314-13.875-8.568-25.016-23.391-34.321-36.853-7.9-11.434,10.181-22.319,18.021-11.049a147.22,147.22,0,0,0,14.084,17.287q-1.122-2.157-2.267-4.308c-5.055-9.472-10.047-18.982-14.166-28.951-7.888-19.091-19.55-45.517-9.628-65.6,5-10.119,16.724-11.147,25.554-7.029,11.867,5.535,20.087,17.753,28.011,28.094,8.271,10.8,15.555,22.262,23.212,33.529a163.87,163.87,0,0,0,10.059,13.814c.084.1.174.19.257.291l-.092-.306c-2.033-6.632-4.649-13-7.3-19.376-4.927-11.869-11.279-24.364-13.083-37.282-1.6-11.421,2.814-24.222,15.908-23.393,12.308.779,22.174,13.217,30.4,21.524,9.968,10.06,19.756,20.322,29.546,30.571C292.321,246.3,276.351,263.063,266.254,252.226Z" transform="translate(-129.602 -181.382)" fill="#6b8dfc"/>
                <path id="Trazado_140691-2" data-name="Trazado 140691" d="M221.984,182.47a15.289,15.289,0,0,0-11.913,5.185c-4.147,4.737-5.939,12.453-4.8,20.642,1.489,10.672,5.927,20.9,10.219,30.782,1.026,2.367,2.043,4.71,3.007,7.029.912,2.2,1.872,4.511,2.824,6.9-.583-.85-1.159-1.7-1.73-2.541l-.567-.833c-1.99-2.927-3.953-5.868-5.917-8.8-5.508-8.25-11.2-16.78-17.367-24.82-.9-1.176-1.8-2.376-2.718-3.588-7.066-9.372-15.074-20-26.037-25.109-9.776-4.553-22.575-3.276-28.135,7.98-9.991,20.217.8,46.235,8.673,65.234l.9,2.158c2.317,5.612,4.915,11.09,7.669,16.543q-.955-1.309-1.88-2.635c-4.845-6.969-13.334-6.864-18.744-2.736-4.474,3.414-6.984,9.761-2.5,16.246,9.932,14.371,21.037,28.852,34.921,37.429,7.709,4.756,16.142,5.528,22.571,2.064,5.659-3.05,9.147-9.083,9.826-16.994.794-9.278-1.115-18.16-3.885-26.629,10.249,10.5,29.2,25.394,44.4,23.137,6.984-1.04,12.392-5.487,16.07-13.213,6.048-12.707,1.275-28.524-4.191-42.323-2.6-6.567-5.464-13.121-8.232-19.457l-.98-2.242c8.235,8.1,15.6,15.646,22.364,22.9h0c3.342,3.59,7.589,4.907,11.945,3.72A15.067,15.067,0,0,0,287.95,247.9a13.1,13.1,0,0,0-3.434-12.692l-1.113-1.166c-9.269-9.7-18.854-19.738-28.456-29.43-1.183-1.2-2.4-2.474-3.654-3.793-7.453-7.839-16.73-17.6-28.015-18.312C222.84,182.482,222.411,182.47,221.984,182.47Zm5.725,84.488a1.814,1.814,0,0,0,.966-.272,2.075,2.075,0,0,0,.944-2.376l-.094-.306c-2.131-6.952-4.911-13.655-7.363-19.566-.972-2.34-2-4.706-3.035-7.094-4.177-9.621-8.495-19.568-9.9-29.654-.956-6.849.495-13.441,3.787-17.2,2.439-2.786,5.809-4.051,10.025-3.8,9.77.62,18.091,9.37,25.431,17.092,1.273,1.34,2.51,2.64,3.712,3.852,9.577,9.665,19.149,19.686,28.406,29.378l1.111,1.166a8.794,8.794,0,0,1,2.4,8.633,11.006,11.006,0,0,1-7.325,7.636c-2.063.565-5.138.569-8.084-2.594h0c-8.734-9.372-18.466-19.219-29.755-30.1a1.923,1.923,0,0,0-2.512-.159,2.151,2.151,0,0,0-.662,2.548c1.654,3.925,3.358,7.825,5.061,11.727,2.754,6.3,5.6,12.822,8.176,19.321,5.12,12.924,9.638,27.646,4.306,38.846-3.1,6.512-7.373,10.09-13.061,10.938-14.174,2.1-34.109-13.914-44.041-25.2-1.058-1.2-2.077-2.451-3.1-3.7l-.774-.946a1.924,1.924,0,0,0-2.552-.417,2.149,2.149,0,0,0-.806,2.577c4.286,11.009,8.383,22.779,7.341,34.948-.559,6.523-3.213,11.241-7.675,13.646-5.206,2.8-12.2,2.072-18.722-1.951-13.256-8.185-24.038-22.273-33.716-36.277-3.059-4.425-1.169-8.275,1.618-10.4,3.776-2.88,9.674-3.22,13.174,1.815a149.553,149.553,0,0,0,14.284,17.529,1.923,1.923,0,0,0,2.606.2,2.158,2.158,0,0,0,.559-2.679q-1.128-2.17-2.279-4.327c-5.118-9.592-10.045-19.009-14.076-28.762l-.9-2.164c-7.557-18.227-17.906-43.189-8.79-61.636,4.428-8.964,14.908-9.839,22.972-6.081,10.063,4.691,17.417,14.448,24.527,23.881q1.38,1.831,2.738,3.613c6.08,7.934,11.738,16.405,17.211,24.6q2.951,4.421,5.933,8.834l.567.831a155.225,155.225,0,0,0,9.624,13.154l.18.2A2.129,2.129,0,0,0,227.709,266.958Zm39.551-13.644h0Z" transform="translate(-130.608 -182.47)" fill="#3c3fa7"/>
              </g>
              <path id="Trazado_140692-2" data-name="Trazado 140692" d="M144.533,272.113c-7.353-15.5-11.5-33.667-5.043-50.327.956-2.462,4.817-1.386,3.849,1.114-6.064,15.643-2.277,32.524,4.64,47.1C149.119,272.406,145.679,274.529,144.533,272.113Z" transform="translate(-124.952 -203.298)" fill="#3c3fa7"/>
              <path id="Trazado_140693-2" data-name="Trazado 140693" d="M146.516,240.67c-.034,0-.066.015-.1.021-.056.115-.108.237-.126.27l-.008.013c0,.017,0,.006,0,.031-.257.934-.443,1.882-.637,2.832q-.679,3.313-1.355,6.625a2,2,0,0,1-2.456,1.461,2.157,2.157,0,0,1-1.393-2.575l1.533-7.492c.427-2.081,1.107-4.808,3.482-5.225a2.036,2.036,0,0,1,2.455,1.463A2.133,2.133,0,0,1,146.516,240.67Z" transform="translate(-120.875 -216.038)" fill="#3c3fa7"/>
              <path id="Trazado_140694-2" data-name="Trazado 140694" d="M190.406,249.338c-2.265,1.269-4.284-2.344-2.013-3.615,3.133-1.754,4.087-5.325,4.213-8.832a63.468,63.468,0,0,0-.9-12,82.438,82.438,0,0,0-6.926-22.486c-1.141-2.405,2.3-4.528,3.446-2.112a86.893,86.893,0,0,1,7.747,26.483C196.912,234.319,198.037,245.068,190.406,249.338Z" transform="translate(-76.908 -135.41)" fill="#3c3fa7"/>
            </g>
          </g>
        </g>
      </g>
    </g>
  </g>
</svg>
