<svg xmlns="http://www.w3.org/2000/svg" xmlns:xlink="http://www.w3.org/1999/xlink" width="946" height="296" viewBox="0 0 946 296">
  <defs>
    <clipPath id="clip-path">
      <rect id="Rect치ngulo_38294" data-name="Rect치ngulo 38294" width="119.79" height="114" transform="translate(1119 275)" fill="#ffdfe0"/>
    </clipPath>
  </defs>
  <g id="Grupo_162281" data-name="Grupo 162281" transform="translate(-474.5 -424)">
    <rect id="Rect치ngulo_37572" data-name="Rect치ngulo 37572" width="946" height="296" transform="translate(474.5 424)" fill="#e1e8ff"/>
    <g id="Enmascarar_grupo_164" data-name="Enmascarar grupo 164" transform="translate(181.5 331)" clip-path="url(#clip-path)">
      <g id="Grupo_161185" data-name="Grupo 161185" transform="translate(1149.337 303.951)">
        <g id="Grupo_161181" data-name="Grupo 161181" transform="translate(3.851 0)" style="isolation: isolate">
          <path id="Trazado_140685" data-name="Trazado 140685" d="M243.586,241.811c-7.826-8.4-15.914-16.493-24.156-24.442,3.564,8.452,7.406,16.769,10.789,25.31,3.835,9.682,8.294,22.88,3.458,33.036-11.02,23.149-38.877.434-49.128-11.217-1.092-1.242-2.135-2.539-3.19-3.82,3.663,9.41,6.961,19.078,6.09,29.244-1.2,13.978-13.413,17.332-23.929,10.836-11.293-6.973-20.363-19.039-27.936-30-6.433-9.307,8.286-18.168,14.668-8.994a119.705,119.705,0,0,0,11.467,14.07q-.914-1.756-1.847-3.505c-4.115-7.711-8.179-15.452-11.532-23.568-6.42-15.539-15.914-37.052-7.838-53.4,4.071-8.237,13.616-9.074,20.8-5.722,9.66,4.505,16.351,14.452,22.8,22.87,6.733,8.789,12.664,18.122,18.9,27.293a132.344,132.344,0,0,0,8.189,11.243c.068.082.14.157.208.237l-.075-.247c-1.655-5.4-3.783-10.579-5.939-15.772-4.009-9.664-9.181-19.835-10.65-30.348-1.3-9.3,2.29-19.717,12.95-19.042,10.021.634,18.052,10.759,24.751,17.521,8.112,8.189,16.08,16.541,24.049,24.884C264.807,236.99,251.807,250.632,243.586,241.811Z" transform="translate(-132.348 -184.14)" fill="#acade1"/>
          <path id="Trazado_140686" data-name="Trazado 140686" d="M207.363,184.841a12.45,12.45,0,0,0-9.7,4.223c-3.375,3.856-4.834,10.137-3.9,16.8,1.213,8.689,4.826,17.011,8.319,25.058.837,1.927,1.665,3.836,2.448,5.724.742,1.791,1.524,3.672,2.3,5.618q-.712-1.04-1.408-2.069l-.461-.68q-2.429-3.573-4.815-7.167c-4.485-6.714-9.123-13.658-14.139-20.2-.733-.956-1.468-1.932-2.212-2.919-5.752-7.631-12.271-16.278-21.2-20.44-7.956-3.706-18.377-2.668-22.9,6.494-8.133,16.459.648,37.638,7.061,53.1l.728,1.759c1.886,4.568,4,9.028,6.244,13.467q-.78-1.066-1.53-2.147c-3.946-5.671-10.856-5.586-15.26-2.225-3.642,2.779-5.685,7.946-2.037,13.225,8.085,11.7,17.124,23.486,28.429,30.466,6.273,3.873,13.14,4.5,18.372,1.682,4.607-2.483,7.448-7.4,8-13.835.647-7.552-.908-14.781-3.161-21.677,8.341,8.549,23.768,20.673,36.144,18.836,5.685-.847,10.086-4.466,13.08-10.756,4.925-10.343,1.04-23.221-3.411-34.452-2.118-5.347-4.448-10.681-6.7-15.84l-.8-1.825c6.7,6.595,12.7,12.738,18.2,18.644v0a9.473,9.473,0,0,0,9.724,3.03,12.27,12.27,0,0,0,8.281-8.624,10.667,10.667,0,0,0-2.8-10.333l-.906-.947c-7.545-7.9-15.347-16.069-23.164-23.957-.963-.973-1.953-2.014-2.973-3.088-6.069-6.382-13.621-14.326-22.807-14.907C208.06,184.851,207.709,184.841,207.363,184.841Zm4.66,68.776a1.479,1.479,0,0,0,.786-.22,1.691,1.691,0,0,0,.767-1.934l-.076-.249c-1.735-5.661-4-11.115-5.994-15.927-.791-1.907-1.628-3.832-2.471-5.775-3.4-7.832-6.913-15.929-8.06-24.141-.778-5.576.4-10.942,3.081-14a9.5,9.5,0,0,1,8.161-3.093c7.953.5,14.727,7.627,20.7,13.913,1.036,1.089,2.042,2.147,3.02,3.135,7.8,7.867,15.588,16.025,23.123,23.914l.9.947a7.162,7.162,0,0,1,1.957,7.027,8.965,8.965,0,0,1-5.963,6.218,6.311,6.311,0,0,1-6.582-2.111v0c-7.11-7.629-15.032-15.645-24.221-24.5a1.565,1.565,0,0,0-2.045-.13,1.753,1.753,0,0,0-.539,2.074c1.347,3.2,2.734,6.37,4.121,9.544,2.24,5.133,4.558,10.439,6.653,15.73,4.17,10.521,7.846,22.5,3.505,31.62-2.523,5.3-6,8.215-10.632,8.9-11.538,1.714-27.764-11.325-35.849-20.516-.863-.978-1.693-1.994-2.524-3.009l-.629-.768a1.568,1.568,0,0,0-2.079-.339,1.747,1.747,0,0,0-.655,2.1c3.488,8.963,6.822,18.543,5.975,28.45-.455,5.308-2.615,9.149-6.247,11.107-4.236,2.283-9.933,1.689-15.24-1.586-10.789-6.664-19.567-18.131-27.446-29.531-2.489-3.6-.952-6.738,1.317-8.469,3.073-2.343,7.875-2.619,10.724,1.479A122.033,122.033,0,0,0,161.2,277.738a1.568,1.568,0,0,0,2.123.164,1.761,1.761,0,0,0,.455-2.183q-.919-1.764-1.857-3.52c-4.165-7.808-8.177-15.474-11.457-23.413l-.729-1.762c-6.153-14.837-14.577-35.157-7.157-50.175,3.6-7.295,12.136-8.007,18.7-4.948,8.192,3.819,14.178,11.759,19.965,19.439.749.992,1.491,1.977,2.23,2.939,4.948,6.46,9.553,13.356,14.009,20.026q2.4,3.6,4.829,7.189l.461.678a126.277,126.277,0,0,0,7.836,10.708l.145.165A1.734,1.734,0,0,0,212.023,253.616Zm32.2-11.105h0Z" transform="translate(-132.979 -184.841)" fill="#acade1"/>
          <path id="Trazado_140687" data-name="Trazado 140687" d="M145.371,264.867c-5.984-12.617-9.361-27.407-4.1-40.968.776-2.006,3.92-1.128,3.132.907-4.935,12.732-1.852,26.475,3.777,38.342C149.105,265.1,146.3,266.833,145.371,264.867Z" transform="translate(-129.431 -208.847)" fill="#acade1"/>
          <path id="Trazado_140688" data-name="Trazado 140688" d="M147.747,242.283c-.028,0-.054.012-.08.017-.046.092-.086.193-.1.22l-.008.01c0,.014,0,0,0,.024-.21.762-.359,1.532-.518,2.307q-.551,2.7-1.1,5.393a1.628,1.628,0,0,1-2,1.189,1.756,1.756,0,0,1-1.135-2.1q.624-3.049,1.249-6.1c.346-1.692.9-3.912,2.833-4.251a1.656,1.656,0,0,1,2,1.191A1.735,1.735,0,0,1,147.747,242.283Z" transform="translate(-126.874 -222.23)" fill="#acade1"/>
          <path id="Trazado_140689" data-name="Trazado 140689" d="M191.688,242.39c-1.844,1.033-3.486-1.909-1.639-2.943,2.55-1.428,3.328-4.335,3.429-7.191a51.646,51.646,0,0,0-.733-9.769,67.108,67.108,0,0,0-5.638-18.3c-.927-1.958,1.873-3.686,2.805-1.719a70.66,70.66,0,0,1,6.306,21.557C196.984,230.162,197.9,238.912,191.688,242.39Z" transform="translate(-99.298 -149.647)" fill="#acade1"/>
        </g>
        <g id="Grupo_161184" data-name="Grupo 161184" transform="translate(0 4.042)">
          <g id="Grupo_161183" data-name="Grupo 161183">
            <g id="Grupo_161182" data-name="Grupo 161182">
              <path id="Trazado_140690" data-name="Trazado 140690" d="M241.215,239.439c-7.826-8.4-15.914-16.493-24.158-24.441,3.564,8.45,7.407,16.769,10.791,25.308,3.835,9.682,8.293,22.88,3.458,33.036-11.02,23.149-38.877.436-49.128-11.218-1.093-1.24-2.134-2.537-3.19-3.82,3.661,9.41,6.959,19.078,6.09,29.244-1.2,13.978-13.413,17.332-23.929,10.838-11.294-6.975-20.363-19.041-27.938-30-6.433-9.307,8.288-18.168,14.67-8.994a119.844,119.844,0,0,0,11.465,14.072q-.914-1.756-1.845-3.507c-4.115-7.711-8.179-15.452-11.532-23.566-6.421-15.541-15.914-37.052-7.838-53.4,4.071-8.237,13.614-9.074,20.8-5.722,9.66,4.505,16.351,14.452,22.8,22.87,6.733,8.789,12.662,18.122,18.895,27.293a133.386,133.386,0,0,0,8.189,11.245c.068.08.141.155.21.237l-.075-.249c-1.655-5.4-3.785-10.579-5.939-15.772-4.011-9.662-9.181-19.833-10.65-30.349-1.3-9.3,2.29-19.717,12.95-19.042,10.019.634,18.05,10.759,24.749,17.521,8.114,8.189,16.082,16.543,24.051,24.885C262.435,234.619,249.435,248.261,241.215,239.439Z" transform="translate(-129.977 -181.77)" fill="#6b8dfc"/>
              <path id="Trazado_140691" data-name="Trazado 140691" d="M204.99,182.47a12.445,12.445,0,0,0-9.7,4.221c-3.375,3.856-4.834,10.137-3.9,16.8,1.212,8.687,4.824,17.009,8.319,25.058.835,1.927,1.663,3.834,2.448,5.722.742,1.791,1.524,3.672,2.3,5.618-.474-.692-.944-1.384-1.408-2.069l-.461-.678c-1.62-2.382-3.218-4.776-4.816-7.167-4.483-6.716-9.121-13.659-14.137-20.2-.733-.958-1.468-1.934-2.212-2.921-5.752-7.629-12.271-16.277-21.2-20.44-7.958-3.706-18.377-2.667-22.9,6.5-8.133,16.457.648,37.637,7.06,53.1l.729,1.757c1.886,4.568,4,9.028,6.243,13.467q-.777-1.066-1.53-2.145c-3.944-5.673-10.854-5.587-15.258-2.227-3.642,2.779-5.685,7.946-2.037,13.225,8.085,11.7,17.124,23.486,28.427,30.468,6.275,3.872,13.14,4.5,18.374,1.68,4.607-2.483,7.446-7.394,8-13.833.647-7.552-.908-14.782-3.163-21.677,8.343,8.547,23.768,20.671,36.144,18.834,5.685-.847,10.088-4.466,13.081-10.756,4.924-10.343,1.038-23.219-3.411-34.452-2.118-5.345-4.448-10.681-6.7-15.839l-.8-1.825c6.7,6.593,12.7,12.736,18.2,18.642h0a9.471,9.471,0,0,0,9.724,3.028,12.265,12.265,0,0,0,8.28-8.624,10.659,10.659,0,0,0-2.8-10.331l-.906-.949c-7.545-7.9-15.347-16.067-23.164-23.957-.963-.973-1.953-2.014-2.974-3.088-6.067-6.382-13.619-14.326-22.8-14.907C205.687,182.48,205.338,182.47,204.99,182.47Zm4.66,68.776a1.477,1.477,0,0,0,.786-.221,1.689,1.689,0,0,0,.768-1.934l-.076-.249c-1.735-5.659-4-11.115-5.994-15.927-.791-1.905-1.628-3.831-2.471-5.775-3.4-7.832-6.915-15.929-8.062-24.139-.778-5.576.4-10.941,3.083-14a9.5,9.5,0,0,1,8.161-3.093c7.953.5,14.727,7.627,20.7,13.913,1.036,1.091,2.043,2.149,3.021,3.135,7.8,7.867,15.588,16.025,23.123,23.914l.9.949a7.159,7.159,0,0,1,1.956,7.027,8.96,8.96,0,0,1-5.963,6.216,6.309,6.309,0,0,1-6.58-2.111h0c-7.11-7.629-15.032-15.645-24.221-24.505a1.565,1.565,0,0,0-2.045-.129,1.751,1.751,0,0,0-.539,2.074c1.347,3.2,2.734,6.37,4.119,9.546,2.242,5.131,4.558,10.437,6.655,15.728,4.168,10.521,7.846,22.5,3.505,31.621-2.524,5.3-6,8.213-10.632,8.9-11.538,1.713-27.766-11.327-35.85-20.516-.861-.98-1.691-2-2.523-3.009l-.63-.77a1.566,1.566,0,0,0-2.078-.339,1.749,1.749,0,0,0-.656,2.1c3.489,8.961,6.824,18.543,5.976,28.449-.455,5.31-2.615,9.151-6.247,11.108-4.238,2.282-9.933,1.687-15.24-1.588-10.791-6.663-19.567-18.131-27.446-29.531-2.49-3.6-.952-6.736,1.317-8.467,3.073-2.345,7.875-2.621,10.724,1.477a121.739,121.739,0,0,0,11.627,14.269,1.566,1.566,0,0,0,2.121.164,1.757,1.757,0,0,0,.455-2.181q-.919-1.766-1.855-3.522c-4.167-7.808-8.177-15.474-11.458-23.413l-.729-1.762c-6.152-14.837-14.576-35.157-7.155-50.173,3.6-7.3,12.136-8.009,18.7-4.95,8.192,3.819,14.178,11.761,19.965,19.439q1.123,1.49,2.229,2.941c4.95,6.458,9.555,13.354,14.01,20.024q2.4,3.6,4.829,7.191l.461.677a126.357,126.357,0,0,0,7.834,10.708l.146.165A1.733,1.733,0,0,0,209.651,251.245Zm32.2-11.107h0Z" transform="translate(-130.608 -182.47)" fill="#3c3fa7"/>
            </g>
            <path id="Trazado_140692" data-name="Trazado 140692" d="M143,262.5c-5.986-12.616-9.361-27.406-4.1-40.968.778-2,3.921-1.128,3.133.907-4.937,12.734-1.853,26.475,3.777,38.342C146.733,262.734,143.933,264.462,143,262.5Z" transform="translate(-127.061 -206.477)" fill="#3c3fa7"/>
            <path id="Trazado_140693" data-name="Trazado 140693" d="M145.376,239.912c-.028,0-.054.012-.08.017-.045.094-.088.193-.1.22l-.007.01c0,.014,0,.005,0,.026-.21.76-.361,1.532-.518,2.306q-.553,2.7-1.1,5.393a1.629,1.629,0,0,1-2,1.189,1.756,1.756,0,0,1-1.134-2.1l1.248-6.1c.348-1.694.9-3.914,2.835-4.253a1.657,1.657,0,0,1,2,1.191A1.736,1.736,0,0,1,145.376,239.912Z" transform="translate(-124.503 -219.861)" fill="#3c3fa7"/>
            <path id="Trazado_140694" data-name="Trazado 140694" d="M189.317,240.019c-1.844,1.033-3.488-1.908-1.639-2.943,2.55-1.428,3.327-4.335,3.429-7.189a51.663,51.663,0,0,0-.733-9.771,67.106,67.106,0,0,0-5.638-18.3c-.929-1.958,1.873-3.686,2.805-1.719a70.733,70.733,0,0,1,6.306,21.558C194.613,227.792,195.529,236.542,189.317,240.019Z" transform="translate(-96.927 -147.278)" fill="#3c3fa7"/>
          </g>
        </g>
      </g>
    </g>
  </g>
</svg>
