<svg xmlns="http://www.w3.org/2000/svg" xmlns:xlink="http://www.w3.org/1999/xlink" width="1240.5" height="510.821" viewBox="0 0 1240.5 510.821">
  <defs>
    <clipPath id="clip-path">
      <rect id="Rect치ngulo_38222" data-name="Rect치ngulo 38222" width="1240.5" height="508.776" fill="#ffdfe0"/>
    </clipPath>
  </defs>
  <g id="Grupo_161055" data-name="Grupo 161055" transform="translate(-180.538 -2638)">
    <g id="Rect치ngulo_4933" data-name="Rect치ngulo 4933" transform="translate(180.538 2638)" fill="#fff0f1" stroke="#ff9fa3" stroke-width="1">
      <rect width="1240" height="510.821" stroke="none"/>
      <rect x="0.5" y="0.5" width="1239" height="509.821" fill="none"/>
    </g>
    <g id="Enmascarar_grupo_163" data-name="Enmascarar grupo 163" transform="translate(180.538 2640.045)" clip-path="url(#clip-path)">
      <g id="Grupo_161054" data-name="Grupo 161054" transform="translate(-377.54 -77.512)" opacity="0.706">
        <g id="Grupo_161050" data-name="Grupo 161050" transform="translate(51.336 51.335)" style="isolation: isolate">
          <path id="Trazado_140330" data-name="Trazado 140330" d="M1594.793,975.26C1490.475,1082,1382.671,1184.817,1272.81,1285.817c47.5-107.388,98.71-213.064,143.81-321.577,51.12-123.019,110.554-290.7,46.1-419.742-146.885-294.125-518.191-5.52-654.834,142.526-14.551,15.784-28.451,32.259-42.524,48.54C814.183,616.011,858.136,493.165,846.53,364,830.573,186.4,667.752,143.788,527.579,226.32c-150.523,88.594-271.426,241.9-372.367,381.138C69.471,725.715,265.658,838.3,350.727,721.731a1537.987,1537.987,0,0,1,152.84-178.77q-12.179,22.311-24.618,44.536c-54.844,97.969-109.017,196.328-153.706,299.45-85.568,197.432-212.122,470.772-104.47,678.445,54.26,104.659,181.485,115.289,277.272,72.7,128.763-57.245,217.947-183.62,303.925-290.574,89.746-111.674,168.8-230.255,251.875-346.779,34.708-48.692,69.393-98.078,109.146-142.851.909-1.04,1.862-1.992,2.771-3.01l-1,3.139c-22.063,68.589-50.427,134.407-79.159,200.4-53.437,122.781-122.376,252.014-141.949,385.6-17.3,118.127,30.529,250.52,172.608,241.947,133.57-8.053,240.615-136.7,329.908-222.612,108.129-104.053,214.331-210.163,320.553-316.164C1877.651,1036.51,1704.372,863.175,1594.793,975.26Z" transform="translate(-112.09 -164.133)" fill="#fde2e3"/>
          <path id="Trazado_140331" data-name="Trazado 140331" d="M1124.447,1728.713c-52.419,0-96.913-18.4-129.283-53.65-44.992-49-64.435-128.8-52.029-213.476,16.174-110.4,64.328-216.138,110.878-318.373,11.151-24.487,22.193-48.736,32.629-72.724,9.9-22.755,20.309-46.657,30.637-71.382q-9.484,13.217-18.772,26.284l-6.149,8.638q-32.379,45.4-64.176,91.062c-59.781,85.3-121.6,173.531-188.456,256.712-9.765,12.146-19.574,24.551-29.49,37.088-76.668,96.951-163.557,206.828-282.512,259.7-106.05,47.091-244.946,33.9-305.268-82.51-108.411-209.124,8.639-478.22,94.12-674.7l9.7-22.343c25.137-58.045,53.328-114.7,83.23-171.105q-10.393,13.543-20.4,27.28c-52.592,72.053-144.7,70.97-203.4,28.275-48.543-35.312-75.781-100.957-27.151-168.031C266.324,466.826,386.816,317.046,537.49,228.365c83.619-49.212,175.141-57.2,244.881-21.369,61.4,31.545,99.273,93.964,106.613,175.782,8.618,95.955-12.1,187.8-42.134,275.418,111.182-108.621,316.808-262.666,481.773-239.327,75.781,10.761,134.436,56.747,174.34,136.66,65.648,131.419,13.857,295.033-45.469,437.732-28.234,67.94-59.283,135.706-89.313,201.265l-10.631,23.188c89.357-83.788,169.3-161.839,242.651-236.88v.021c36.267-37.13,82.341-50.77,129.607-38.495,51.9,13.51,96.264,57.526,110.381,109.574,12.948,47.739-.282,94.375-37.284,131.289l-12.082,12.038c-100.572,100.372-204.566,204.166-308.754,304.387-12.84,12.362-26.025,25.591-39.623,39.231-80.891,81.082-181.55,182.017-303.99,189.4C1133.736,1728.583,1129.059,1728.713,1124.447,1728.713Zm62.119-873.843a20.442,20.442,0,0,1,10.479,2.794c8.7,5.153,13.338,14.96,10.219,24.573l-1.017,3.161c-23.124,71.924-53.285,141.227-79.9,202.369-10.544,24.227-21.695,48.693-32.932,73.375-45.3,99.506-92.15,202.391-107.435,306.725-10.372,70.84,5.369,139.019,41.073,177.9,26.48,28.839,63.028,41.894,108.778,39.3,106.007-6.409,196.294-96.909,275.951-176.777,13.813-13.835,27.216-27.28,40.251-39.838,103.906-99.961,207.77-203.6,308.212-303.846l12.06-12.037c32.737-32.65,32.24-66.576,26.09-89.287-10.025-36.958-42.719-69.433-79.483-79-22.41-5.846-55.775-5.889-87.733,26.825v.021c-94.77,96.93-200.365,198.775-322.849,311.336a21.653,21.653,0,0,1-34.448-24.7c17.949-40.6,36.439-80.93,54.93-121.266,29.858-65.212,60.755-132.632,88.685-199.857,55.58-133.671,104.579-285.941,46.725-401.75-33.625-67.377-79.982-104.378-141.711-113.124-153.792-21.781-370.072,143.89-477.832,260.674-11.5,12.427-22.561,25.331-33.647,38.235l-8.379,9.765a21.651,21.651,0,0,1-36.44-22.322c46.486-113.883,90.937-235.6,79.635-361.48-6.063-67.442-34.859-116.242-83.272-141.118-56.468-29.012-132.4-21.456-203.137,20.157C415.634,350.345,298.628,496.032,193.617,640.875c-33.17,45.769-12.687,85.607,17.56,107.6,40.965,29.77,104.967,33.277,142.945-18.793A1567.918,1567.918,0,0,1,509.1,548.384a21.659,21.659,0,0,1,34.361,25.656q-12.243,22.408-24.748,44.73c-55.515,99.2-109,196.61-152.71,297.481l-9.722,22.387c-82.017,188.512-194.3,446.7-95.4,637.5,48.045,92.687,161.76,101.736,249.255,62.873,109.19-48.519,188.976-149.411,266.121-246.99,9.982-12.6,19.877-25.116,29.728-37.348,65.951-82.078,127.334-169.7,186.724-254.438q32.023-45.727,64.371-91.344l6.149-8.617c32.586-45.748,66.276-93.033,104.448-136.053l1.927-2.1A23.638,23.638,0,0,1,1186.566,854.87Zm429.137,141.1h0Z" transform="translate(-132.979 -184.84)" fill="#fde2e3"/>
          <path id="Trazado_140332" data-name="Trazado 140332" d="M228.094,233.777C148.329,394.078,103.315,582.006,173.4,754.3c10.35,25.482,52.246,14.332,41.744-11.518C149.368,581.01,190.463,406.4,265.486,255.622,277.871,230.767,240.522,208.791,228.094,233.777Z" transform="translate(-15.634 598.33)" fill="#fde2e3"/>
          <path id="Trazado_140333" data-name="Trazado 140333" d="M209.269,356.212c-.368-.043-.714-.152-1.061-.216-.606-1.169-1.147-2.447-1.342-2.793l-.108-.13c-.043-.173.022-.044-.043-.3-2.793-9.678-4.785-19.464-6.907-29.315q-7.34-34.262-14.7-68.524c-2.382-11.085-15.957-18.577-26.631-15.112-11.692,3.788-17.69,14.744-15.135,26.63q8.314,38.744,16.65,77.51c4.612,21.5,11.995,49.71,37.76,54.018,11.129,1.862,23.861-2.923,26.632-15.134C226.764,372.386,221.221,358.2,209.269,356.212Z" transform="translate(68.947 932.874)" fill="#fde2e3"/>
          <path id="Trazado_140334" data-name="Trazado 140334" d="M250.455,204.346c-24.575-13.12-46.465,24.248-21.847,37.39,33.993,18.143,44.365,55.08,45.707,91.366,1.559,41.2-3.075,83.55-9.765,124.123A823.76,823.76,0,0,1,189.4,689.8c-12.363,24.877,24.965,46.83,37.393,21.846,42.892-86.257,71.559-178.315,84.052-273.9C321.039,359.711,333.251,248.535,250.455,204.346Z" transform="translate(981.022 161.167)" fill="#fde2e3"/>
        </g>
        <g id="Grupo_161053" data-name="Grupo 161053" transform="translate(0)">
          <g id="Grupo_161052" data-name="Grupo 161052">
            <g id="Grupo_161051" data-name="Grupo 161051">
              <path id="Trazado_140335" data-name="Trazado 140335" d="M1592.44,972.9c-104.318,106.738-212.122,209.557-322,310.535,47.5-107.365,98.732-213.064,143.832-321.555,51.12-123.019,110.532-290.7,46.1-419.741C1313.479,248.01,942.174,536.591,805.53,684.661c-14.572,15.761-28.451,32.238-42.524,48.541,48.8-119.555,92.756-242.4,81.173-371.569-15.957-177.6-178.778-220.209-318.952-137.7C374.682,312.55,253.8,465.859,152.838,605.094,67.1,723.35,263.305,835.933,348.375,719.366A1539.777,1539.777,0,0,1,501.193,540.576q-12.179,22.311-24.6,44.557C421.753,683.1,367.58,781.46,322.891,884.561c-85.589,197.454-212.122,470.772-104.47,678.467,54.259,104.659,181.463,115.29,277.272,72.7,128.762-57.244,217.946-183.619,303.925-290.574,89.746-111.674,168.775-230.255,251.853-346.779,34.729-48.692,69.416-98.078,109.146-142.872.91-1.018,1.884-1.971,2.793-3.01l-1,3.161c-22.063,68.589-50.448,134.407-79.158,200.4-53.458,122.759-122.376,251.992-141.949,385.6-17.322,118.126,30.529,250.52,172.608,241.946,133.548-8.054,240.594-136.7,329.886-222.613,108.15-104.053,214.352-210.184,320.576-316.186C1875.277,1034.145,1702,860.81,1592.44,972.9Z" transform="translate(-109.738 -161.767)" fill="#ffdfe0"/>
              <path id="Trazado_140336" data-name="Trazado 140336" d="M1122.055,1726.321c-52.419,0-96.892-18.381-129.261-53.628-44.993-49-64.436-128.8-52.029-213.5,16.152-110.375,64.306-216.117,110.879-318.374,11.129-24.487,22.171-48.714,32.629-72.7,9.894-22.754,20.309-46.657,30.637-71.382-6.322,8.79-12.579,17.581-18.772,26.284l-6.149,8.617c-21.587,30.268-42.892,60.687-64.2,91.062-59.759,85.326-121.575,173.552-188.435,256.712q-14.647,18.251-29.489,37.109c-76.669,96.93-163.557,206.807-282.512,259.7-106.072,47.09-244.946,33.884-305.268-82.532-108.41-209.1,8.639-478.2,94.1-674.7l9.722-22.322c25.138-58.046,53.328-114.706,83.208-171.105q-10.36,13.542-20.4,27.258c-52.57,72.075-144.677,70.992-203.374,28.3-48.543-35.312-75.781-100.956-27.152-168.031C263.953,464.456,384.445,314.676,535.1,225.973c83.641-49.19,175.141-57.179,244.9-21.347,61.4,31.545,99.251,93.943,106.613,175.76,8.618,95.956-12.1,187.82-42.155,275.419,111.2-108.6,316.808-262.644,481.773-239.3,75.781,10.76,134.457,56.746,174.361,136.659,65.627,131.42,13.835,295.012-45.469,437.733-28.234,67.918-59.282,135.706-89.313,201.243l-10.631,23.188c89.356-83.767,169.295-161.817,242.651-236.858h0c36.267-37.131,82.341-50.749,129.607-38.473,51.9,13.51,96.264,57.526,110.359,109.574,12.969,47.739-.26,94.353-37.262,131.268l-12.082,12.06c-100.572,100.372-204.566,204.143-308.754,304.386-12.839,12.362-26.026,25.591-39.644,39.231-80.869,81.082-181.528,182.018-303.968,189.4C1131.343,1726.192,1126.688,1726.321,1122.055,1726.321Zm62.119-873.842a20.41,20.41,0,0,1,10.479,2.814c8.726,5.153,13.36,14.939,10.242,24.574l-1.018,3.161c-23.124,71.9-53.285,141.227-79.894,202.369-10.545,24.205-21.7,48.67-32.933,73.374-45.317,99.507-92.171,202.391-107.457,306.7-10.371,70.841,5.37,139.019,41.1,177.926,26.458,28.816,63.028,41.894,108.778,39.295,106.008-6.408,196.3-96.908,275.93-176.777,13.814-13.856,27.238-27.3,40.272-39.837,103.907-99.961,207.771-203.6,308.213-303.845l12.06-12.06c32.715-32.628,32.24-66.554,26.069-89.287-10.025-36.936-42.7-69.434-79.484-78.982-22.388-5.845-55.753-5.889-87.711,26.825h0c-94.769,96.93-200.365,198.775-322.849,311.358a21.653,21.653,0,0,1-34.448-24.7c17.949-40.595,36.439-80.93,54.908-121.287,29.88-65.19,60.755-132.611,88.707-199.836,55.558-133.671,104.578-285.94,46.724-401.771-33.646-67.355-80-104.356-141.711-113.125C1166.354,437.609,950.053,603.28,842.292,720.042c-11.476,12.448-22.54,25.353-33.625,38.235l-8.4,9.786a21.658,21.658,0,0,1-36.44-22.343c46.508-113.861,90.958-235.6,79.656-361.458C837.421,316.8,808.624,268,760.211,243.121c-56.489-28.99-132.4-21.434-203.137,20.178C413.242,347.954,296.258,493.663,191.246,638.506c-33.192,45.77-12.688,85.584,17.56,107.582,40.965,29.792,104.967,33.3,142.945-18.772a1564.017,1564.017,0,0,1,154.983-181.3,21.644,21.644,0,0,1,34.339,25.634Q528.829,594.09,516.347,616.4C460.81,715.6,407.352,813.01,363.616,913.88l-9.722,22.386c-82,188.512-194.281,446.7-95.376,637.482,48.045,92.708,161.76,101.758,249.254,62.9,109.19-48.52,188.976-149.433,266.122-246.991q14.972-18.934,29.706-37.369c65.973-82.057,127.356-169.676,186.746-254.417,21.349-30.484,42.719-60.99,64.37-91.366l6.149-8.6c32.586-45.748,66.276-93.054,104.426-136.052l1.949-2.1A23.613,23.613,0,0,1,1184.173,852.479ZM1613.311,993.6h0Z" transform="translate(-130.608 -182.469)" fill="#ffbfc1" opacity="0.403"/>
            </g>
            <path id="Trazado_140337" data-name="Trazado 140337" d="M225.734,231.409c-79.787,160.3-124.779,348.208-54.714,520.526,10.371,25.461,52.268,14.332,41.767-11.518-65.8-161.8-24.7-336.387,50.34-487.162C275.489,228.378,238.161,206.425,225.734,231.409Z" transform="translate(-13.274 600.698)" fill="#fc5f65"/>
            <path id="Trazado_140338" data-name="Trazado 140338" d="M206.9,353.842c-.368-.044-.714-.151-1.061-.216-.606-1.191-1.169-2.447-1.364-2.793l-.087-.13c-.043-.173.022-.065-.043-.325-2.793-9.656-4.807-19.464-6.907-29.294q-7.372-34.261-14.7-68.524c-2.382-11.085-15.957-18.576-26.653-15.112-11.67,3.767-17.668,14.744-15.113,26.63L157.6,341.566c4.634,21.52,12.017,49.732,37.782,54.04,11.129,1.841,23.86-2.922,26.632-15.133C224.393,370.015,218.828,355.833,206.9,353.842Z" transform="translate(71.318 935.247)" fill="#fc5f65"/>
            <path id="Trazado_140339" data-name="Trazado 140339" d="M248.091,201.976c-24.575-13.121-46.486,24.249-21.847,37.39,33.993,18.144,44.343,55.079,45.707,91.344,1.559,41.2-3.074,83.571-9.765,124.144a823.752,823.752,0,0,1-75.153,232.572C174.648,712.3,212,734.257,224.425,709.272c42.87-86.278,71.559-178.337,84.052-273.9C318.675,357.319,330.887,246.143,248.091,201.976Z" transform="translate(983.387 163.539)" fill="#ffbfc1" opacity="0.488"/>
          </g>
        </g>
      </g>
    </g>
  </g>
</svg>
