<svg xmlns="http://www.w3.org/2000/svg" xmlns:xlink="http://www.w3.org/1999/xlink" width="820" height="835.445" viewBox="0 0 820 835.445">
  <defs>
    <clipPath id="clip-path">
      <rect id="Rectángulo_37918" data-name="Rectángulo 37918" width="820" height="834.445" rx="13" transform="translate(0 0)" fill="#ff9fa3"/>
    </clipPath>
  </defs>
  <g id="Grupo_161679" data-name="Grupo 161679" transform="translate(-180 -2910.461)">
    <g id="Grupo_161424" data-name="Grupo 161424" transform="translate(-420 997.461)">
      <path id="Trazado_141803" data-name="Trazado 141803" d="M13.112,0H806.888A13.067,13.067,0,0,1,820,13.023v809.4a13.067,13.067,0,0,1-13.112,13.023H13.112A13.067,13.067,0,0,1,0,822.423V13.023A13.067,13.067,0,0,1,13.112,0Z" transform="translate(600 1913)" fill="#ffdfe0"/>
      <g id="Enmascarar_grupo_160" data-name="Enmascarar grupo 160" transform="translate(600 1913)" clip-path="url(#clip-path)">
        <g id="Grupo_160414" data-name="Grupo 160414" transform="translate(-176.507 -30.313)" opacity="0.48">
          <g id="Grupo_82657" data-name="Grupo 82657" transform="translate(0 31.064)" style="isolation: isolate">
            <path id="Trazado_115694" data-name="Trazado 115694" d="M260.476,663.537c63.555,64.589,129.234,126.807,196.167,187.925C427.7,786.48,396.5,722.533,369.027,656.869c-31.145-74.442-67.354-175.911-28.084-254,89.489-177.981,315.706-3.34,398.955,86.246,8.865,9.551,17.334,19.521,25.908,29.373-29.746-72.345-56.524-146.682-49.454-224.844,9.722-107.47,108.92-133.253,194.32-83.311,91.705,53.61,165.365,146.381,226.863,230.635,52.237,71.559-67.289,139.686-119.117,69.148A932.4,932.4,0,0,0,925.3,401.943q7.42,13.5,15,26.95c33.413,59.283,66.418,118.8,93.645,181.2,52.132,119.471,129.234,284.875,63.648,410.543-33.057,63.331-110.569,69.764-168.927,43.994C850.216,1029.994,795.882,953.521,743.5,888.8c-54.678-67.576-102.839-139.332-153.454-209.844-21.146-29.465-42.278-59.349-66.5-86.442-.554-.629-1.135-1.205-1.688-1.821l.607,1.9c13.442,41.5,30.722,81.333,48.227,121.266,32.556,74.3,74.557,152.5,86.482,233.334,10.539,71.481-18.6,151.6-105.161,146.407-81.377-4.873-146.594-82.722-200.995-134.708-65.877-62.965-130.58-127.174-195.3-191.318C88.146,700.6,193.715,595.712,260.476,663.537Z" transform="translate(-120.747 -172.706)" fill="#ff898d"/>
            <path id="Trazado_115695" data-name="Trazado 115695" d="M571.991,1119.073c31.936,0,59.044-11.136,78.765-32.465,27.411-29.648,39.257-77.94,31.7-129.179-9.854-66.8-39.192-130.79-67.552-192.655-6.794-14.817-13.521-29.491-19.879-44.007-6.029-13.769-12.373-28.233-18.666-43.195q5.778,8,11.437,15.9l3.746,5.227c13.151,18.316,26.132,36.71,39.1,55.1,36.421,51.619,74.082,105.007,114.816,155.342,5.949,7.35,11.925,14.857,17.966,22.443,46.71,58.667,99.647,125.156,172.119,157.15,64.61,28.5,149.232,20.516,185.983-49.929,66.048-126.545-5.264-289.382-57.342-408.276l-5.91-13.521c-15.315-35.124-32.49-69.411-50.707-103.54q6.332,8.2,12.426,16.508c32.041,43.6,88.157,42.946,123.918,17.11,29.575-21.368,46.169-61.091,16.542-101.679-65.653-89.94-139.062-180.575-230.86-234.238-50.945-29.779-106.7-34.613-149.193-12.931-37.41,19.089-60.482,56.86-64.953,106.37-5.25,58.065,7.374,113.641,25.67,166.662C673.378,405.549,548.1,312.334,447.6,326.456c-46.17,6.512-81.9,34.339-106.216,82.7-40,79.525-8.443,178.531,27.7,264.882,17.2,41.112,36.118,82.119,54.414,121.79l6.477,14.032c-54.44-50.7-103.143-97.932-147.834-143.341v.013c-22.1-22.468-50.166-30.722-78.963-23.294-31.62,8.175-58.648,34.81-67.249,66.306-7.888,28.888.172,57.108,22.716,79.446L166,796.27c61.273,60.738,124.631,123.545,188.107,184.191,7.823,7.481,15.856,15.486,24.14,23.74,49.283,49.065,110.609,110.143,185.2,114.61C566.332,1118.994,569.181,1119.073,571.991,1119.073ZM534.145,590.29a12.52,12.52,0,0,0-6.384,1.691c-5.3,3.118-8.126,9.053-6.226,14.87l.62,1.913c14.088,43.523,32.464,85.46,48.676,122.458,6.424,14.66,13.217,29.465,20.064,44.4,27.6,60.213,56.142,122.471,65.454,185.606,6.319,42.867-3.271,84.124-25.023,107.654-16.133,17.451-38.4,25.351-66.273,23.779-64.584-3.878-119.592-58.642-168.122-106.972-8.416-8.372-16.581-16.508-24.523-24.106-63.3-60.489-126.583-123.2-187.777-183.864l-7.348-7.284c-19.945-19.757-19.642-40.287-15.9-54.03,6.107-22.364,26.026-42.016,48.425-47.807,13.653-3.537,33.981-3.563,53.451,16.233v.013C321,743.5,385.335,805.126,459.957,873.239a13.244,13.244,0,0,0,16.608,1,13.037,13.037,0,0,0,4.38-15.944c-10.936-24.565-22.2-48.973-33.466-73.38-18.191-39.461-37.015-80.259-54.031-120.938-33.862-80.888-63.714-173.029-28.467-243.108,20.486-40.771,48.728-63.162,86.337-68.454,93.7-13.18,225.465,87.071,291.117,157.74,7,7.52,13.745,15.329,20.5,23.137l5.105,5.909a13.227,13.227,0,0,0,16.885,2.607,13.046,13.046,0,0,0,5.316-16.115c-28.322-68.913-55.4-142.568-48.517-218.739,3.694-40.811,21.238-70.341,50.734-85.394,34.4-17.556,80.664-12.984,123.76,12.2,87.616,51.239,158.9,139.4,222.879,227.045,20.209,27.7,7.73,51.8-10.7,65.113-24.958,18.014-63.951,20.137-87.088-11.372a950.527,950.527,0,0,0-94.423-109.71,13.252,13.252,0,0,0-17.241-1.258,13.061,13.061,0,0,0-3.694,16.783q7.459,13.559,15.078,27.067c33.822,60.03,66.4,118.973,93.037,180.012l5.923,13.547c49.968,114.073,118.378,270.306,58.121,385.768-29.271,56.087-98.552,61.563-151.857,38.046-66.523-29.36-115.133-90.412-162.134-149.459-6.081-7.625-12.109-15.2-18.112-22.6-40.18-49.667-77.578-102.688-113.761-153.966q-19.51-27.67-39.218-55.274l-3.746-5.215c-19.853-27.683-40.379-56.3-63.634-82.329l-1.174-1.271A14.449,14.449,0,0,0,534.145,590.29Zm-261.45,85.381h0Z" transform="translate(-132.979 -184.841)" fill="#ff898d"/>
            <path id="Trazado_115696" data-name="Trazado 115696" d="M162.955,229.429c48.6,97,76.021,210.721,33.321,314.982-6.305,15.42-31.83,8.673-25.433-6.97,40.075-97.893,15.038-203.555-30.67-294.793C132.628,227.607,155.383,214.309,162.955,229.429Z" transform="translate(750.664 274.098)" fill="#ff898d"/>
            <path id="Trazado_115697" data-name="Trazado 115697" d="M152.3,309.914c.224-.026.435-.092.646-.131.369-.708.7-1.481.818-1.69l.066-.079c.026-.1-.013-.026.026-.183,1.7-5.856,2.915-11.778,4.208-17.739q4.472-20.733,8.957-41.466c1.451-6.708,9.722-11.241,16.225-9.145a13.4,13.4,0,0,1,9.221,16.114q-5.065,23.445-10.144,46.9c-2.81,13.009-7.308,30.08-23.005,32.688-6.78,1.127-14.537-1.769-16.225-9.158C141.636,319.7,145.013,311.12,152.3,309.914Z" transform="translate(721.262 470.141)" fill="#ff898d"/>
            <path id="Trazado_115698" data-name="Trazado 115698" d="M228.153,203.26c14.972-7.939,28.308,14.673,13.31,22.626-20.71,10.979-27.029,33.33-27.847,55.287-.95,24.932,1.873,50.558,5.949,75.11a496.1,496.1,0,0,0,45.787,140.734c7.532,15.054-15.21,28.338-22.781,13.219a521.717,521.717,0,0,1-51.208-165.745C185.15,297.275,177.71,230,228.153,203.26Z" transform="translate(64.633 17.92)" fill="#ff898d"/>
          </g>
          <g id="Grupo_82660" data-name="Grupo 82660" transform="translate(31.282 0)">
            <g id="Grupo_82659" data-name="Grupo 82659">
              <g id="Grupo_82658" data-name="Grupo 82658">
                <path id="Trazado_115699" data-name="Trazado 115699" d="M258.1,661.17c63.555,64.589,129.234,126.807,196.18,187.912-28.942-64.969-60.152-128.93-87.629-194.58C335.5,580.06,299.307,478.59,338.564,400.507c89.49-177.981,315.706-3.354,398.956,86.246,8.878,9.537,17.333,19.508,25.908,29.373-29.733-72.346-56.511-146.682-49.454-224.845,9.722-107.47,108.92-133.253,194.32-83.324,91.719,53.624,165.365,146.394,226.876,230.648,52.237,71.559-67.3,139.686-119.13,69.149a933.445,933.445,0,0,0-93.1-108.19q7.42,13.5,14.985,26.962c33.414,59.283,66.418,118.8,93.644,181.191,52.145,119.484,129.234,284.875,63.648,410.555-33.057,63.332-110.556,69.765-168.927,43.994-78.448-34.64-132.783-111.112-185.165-175.833C686.443,818.858,638.295,747.1,587.68,676.59c-21.159-29.465-42.291-59.349-66.5-86.455-.554-.616-1.148-1.192-1.7-1.821l.607,1.913c13.442,41.5,30.735,81.333,48.227,121.266,32.569,74.285,74.557,152.486,86.482,233.334,10.553,71.481-18.6,151.6-105.16,146.407-81.364-4.874-146.581-82.722-200.982-134.708-65.89-62.965-130.593-127.187-195.31-191.331C85.78,698.234,191.35,593.345,258.1,661.17Z" transform="translate(-118.374 -170.338)" fill="#ffdfe0"/>
                <path id="Trazado_115700" data-name="Trazado 115700" d="M569.627,1116.689c31.936,0,59.031-11.123,78.752-32.452,27.411-29.648,39.257-77.94,31.7-129.192-9.841-66.79-39.178-130.777-67.552-192.655-6.78-14.817-13.508-29.478-19.879-43.994-6.028-13.77-12.373-28.233-18.666-43.2,3.852,5.319,7.664,10.638,11.437,15.905l3.746,5.214c13.152,18.316,26.132,36.723,39.112,55.1,36.408,51.633,74.069,105.02,114.8,155.342q8.924,11.044,17.966,22.456c46.71,58.654,99.647,125.143,172.119,157.15,64.624,28.5,149.232,20.5,185.983-49.942,66.049-126.533-5.263-289.368-57.329-408.276l-5.923-13.507c-15.315-35.125-32.49-69.411-50.694-103.539q6.312,8.194,12.426,16.494c32.028,43.614,88.144,42.959,123.905,17.123,29.575-21.368,46.169-61.091,16.542-101.679-65.653-89.94-139.062-180.575-230.847-234.251-50.958-29.766-106.7-34.6-149.206-12.918-37.41,19.089-60.469,56.847-64.953,106.357-5.25,58.065,7.374,113.654,25.683,166.662C671,403.179,545.738,309.964,445.234,324.087c-46.169,6.511-81.918,34.338-106.229,82.7-39.983,79.525-8.429,178.518,27.7,264.882,17.2,41.1,36.117,82.119,54.414,121.777l6.477,14.032c-54.44-50.689-103.142-97.919-147.834-143.328h0c-22.1-22.469-50.166-30.71-78.963-23.281-31.62,8.175-58.648,34.81-67.236,66.306-7.9,28.888.158,57.1,22.7,79.433l7.361,7.3C224.9,854.637,288.258,917.432,351.735,978.091c7.822,7.481,15.856,15.486,24.153,23.739,49.269,49.065,110.6,110.143,185.192,114.61C563.968,1116.611,566.8,1116.689,569.627,1116.689ZM531.782,587.908a12.5,12.5,0,0,0-6.384,1.7c-5.316,3.118-8.139,9.04-6.24,14.87l.62,1.913c14.088,43.509,32.463,85.46,48.675,122.458,6.424,14.647,13.218,29.451,20.064,44.4,27.609,60.214,56.155,122.471,65.468,185.593,6.319,42.868-3.271,84.123-25.037,107.667-16.12,17.437-38.4,25.351-66.273,23.778-64.585-3.878-119.592-58.641-168.109-106.972-8.416-8.385-16.594-16.521-24.535-24.106-63.305-60.489-126.583-123.2-187.777-183.864l-7.348-7.3c-19.931-19.744-19.642-40.274-15.882-54.03,6.108-22.351,26.013-42.016,48.425-47.794,13.64-3.537,33.968-3.564,53.438,16.233h0c57.738,58.654,122.072,120.283,196.694,188.41a13.246,13.246,0,0,0,16.608,1,13.021,13.021,0,0,0,4.379-15.944c-10.935-24.565-22.2-48.973-33.453-73.393-18.2-39.448-37.014-80.246-54.044-120.925-33.849-80.887-63.714-173.029-28.467-243.121,20.5-40.758,48.742-63.148,86.336-68.454,93.7-13.167,225.478,87.084,291.13,157.74,6.991,7.533,13.732,15.342,20.486,23.137l5.118,5.922a13.2,13.2,0,0,0,16.872,2.607,13.063,13.063,0,0,0,5.329-16.128c-28.335-68.9-55.416-142.569-48.531-218.726,3.694-40.824,21.238-70.354,50.734-85.407,34.416-17.542,80.664-12.97,123.76,12.211,87.629,51.226,158.9,139.4,222.879,227.046,20.222,27.7,7.73,51.789-10.7,65.1-24.958,18.028-63.951,20.15-87.089-11.359a948.192,948.192,0,0,0-94.423-109.71,13.234,13.234,0,0,0-17.228-1.258,13.033,13.033,0,0,0-3.694,16.77q7.46,13.58,15.064,27.081c33.836,60.03,66.4,118.973,93.051,180.012l5.923,13.547c49.955,114.073,118.365,270.306,58.107,385.755-29.271,56.1-98.551,61.576-151.857,38.059-66.523-29.36-115.133-90.425-162.133-149.46q-9.122-11.457-18.1-22.613C723.45,840.7,686.053,787.677,649.87,736.4c-13.007-18.447-26.026-36.906-39.217-55.287l-3.747-5.2c-19.853-27.683-40.378-56.309-63.621-82.328L542.1,592.31A14.432,14.432,0,0,0,531.782,587.908ZM270.332,673.3h0Z" transform="translate(-130.608 -182.469)" fill="#fc5f65"/>
              </g>
              <path id="Trazado_115701" data-name="Trazado 115701" d="M160.579,227.06c48.61,97,76.021,210.708,33.335,314.982-6.319,15.407-31.844,8.673-25.446-6.97,40.088-97.906,15.051-203.555-30.67-294.792C130.266,225.226,153.008,211.941,160.579,227.06Z" transform="translate(753.034 276.467)" fill="#fc5f65"/>
              <path id="Trazado_115702" data-name="Trazado 115702" d="M149.923,307.543c.224-.026.435-.091.646-.131.369-.721.712-1.481.831-1.69l.053-.078c.026-.1-.013-.039.026-.2,1.7-5.843,2.929-11.778,4.208-17.726q4.491-20.732,8.957-41.465c1.451-6.708,9.722-11.241,16.238-9.145a13.393,13.393,0,0,1,9.207,16.115L179.96,300.115c-2.823,13.023-7.321,30.094-23.019,32.7-6.78,1.114-14.537-1.768-16.225-9.157C139.265,317.33,142.655,308.749,149.923,307.543Z" transform="translate(723.628 472.513)" fill="#fc5f65"/>
              <path id="Trazado_115703" data-name="Trazado 115703" d="M225.782,200.889c14.972-7.94,28.321,14.673,13.31,22.626-20.71,10.979-27.016,33.33-27.847,55.274-.95,24.932,1.873,50.571,5.949,75.123a496.091,496.091,0,0,0,45.787,140.734c7.545,15.053-15.209,28.338-22.781,13.219a522.253,522.253,0,0,1-51.209-165.745C182.779,294.891,175.339,227.616,225.782,200.889Z" transform="translate(66.999 20.292)" fill="#fc5f65"/>
            </g>
          </g>
        </g>
      </g>
    </g>
  </g>
</svg>
