<svg xmlns="http://www.w3.org/2000/svg" xmlns:xlink="http://www.w3.org/1999/xlink" width="1240" height="795" viewBox="0 0 1240 795">
  <defs>
    <clipPath id="clip-path">
      <rect id="Rect치ngulo_37932" data-name="Rect치ngulo 37932" width="1240" height="792" fill="#ff9fa3"/>
    </clipPath>
  </defs>
  <g id="Grupo_160439" data-name="Grupo 160439" transform="translate(-180 -2113)">
    <g id="Grupo_160438" data-name="Grupo 160438">
      <rect id="Rect치ngulo_37546" data-name="Rect치ngulo 37546" width="1240" height="795" transform="translate(180 2113)" fill="#a6bbff"/>
      <g id="Enmascarar_grupo_162" data-name="Enmascarar grupo 162" transform="translate(180 2113)" opacity="0.427" clip-path="url(#clip-path)">
        <g id="Grupo_160437" data-name="Grupo 160437" transform="translate(-216.464 -483.065)">
          <g id="Grupo_160433" data-name="Grupo 160433" transform="translate(0 51.688)" style="mix-blend-mode: overlay;isolation: isolate">
            <path id="Trazado_138747" data-name="Trazado 138747" d="M319.494,980.673c93.21,107.47,189.535,210.994,287.7,312.687-42.445-108.124-88.2-214.525-128.5-323.783-45.677-123.863-98.782-292.7-41.188-422.62,131.244-296.141,463.013-5.558,585.106,143.5,13,15.892,25.422,32.481,38,48.873-43.626-120.374-82.9-244.063-72.529-374.116C1002.338,186.4,1147.821,143.5,1273.068,226.6c134.495,89.2,242.524,243.561,332.716,383.752,76.611,119.067-98.685,232.422-174.7,115.056a1515.328,1515.328,0,0,0-136.565-180q10.882,22.464,22,44.841c49,98.641,97.408,197.674,137.339,301.5,76.456,198.786,189.535,474,93.346,683.1-48.482,105.376-162.16,116.08-247.748,73.2-115.052-57.637-194.739-184.879-271.563-292.566-80.19-112.44-150.823-231.834-225.055-349.157-31.012-49.026-62-98.75-97.524-143.83-.812-1.047-1.664-2.005-2.476-3.03l.89,3.161c19.714,69.06,45.057,135.329,70.73,201.773,47.746,123.623,109.345,253.742,126.834,388.242,15.457,118.937-27.279,252.238-154.228,243.606-119.347-8.109-214.994-137.64-294.779-224.139-96.615-104.767-191.508-211.6-286.42-318.332C66.755,1042.344,221.583,867.819,319.494,980.673Z" transform="translate(-114.568 -163.985)" fill="#3c3fa7"/>
            <path id="Trazado_138748" data-name="Trazado 138748" d="M776.832,1739.3c46.837,0,86.594-18.529,115.516-54.018,40.2-49.331,57.574-129.683,46.489-214.94-14.452-111.154-57.478-217.62-99.072-320.556-9.963-24.655-19.83-49.07-29.154-73.223-8.841-22.911-18.147-46.977-27.375-71.872q8.474,13.308,16.773,26.464l5.495,8.7q28.932,45.713,57.342,91.687c53.415,85.889,108.648,174.72,168.389,258.472,8.725,12.229,17.489,24.72,26.349,37.342,68.505,97.616,146.142,208.246,252.43,261.48,94.757,47.413,218.864,34.137,272.762-83.076,96.867-210.557-7.72-481.5-84.1-679.326l-8.667-22.5c-22.461-58.443-47.65-115.491-74.367-172.279q9.287,13.636,18.224,27.467c46.992,72.547,129.291,71.457,181.738,28.47,43.374-35.554,67.712-101.649,24.26-169.183-96.286-149.651-203.948-300.457-338.578-389.747-74.715-49.549-156.492-57.593-218.806-21.516-54.866,31.761-88.7,94.608-95.26,176.987-7.7,96.613,10.814,189.085,37.648,277.307C925.527,552.075,741.8,396.975,594.4,420.474c-67.712,10.835-120.121,57.136-155.776,137.6C379.964,690.391,426.24,855.127,479.248,998.8c25.228,68.406,52.97,136.637,79.8,202.645l9.5,23.347c-79.842-84.363-151.268-162.949-216.813-238.5v.021c-32.405-37.385-73.573-51.118-115.806-38.759-46.373,13.6-86.013,57.92-98.627,110.326-11.569,48.067.252,95.022,33.314,132.189l10.795,12.121c89.863,101.061,182.783,205.566,275.877,306.474,11.472,12.447,23.254,25.767,35.4,39.5,72.278,81.638,162.218,183.265,271.621,190.7C768.532,1739.169,772.711,1739.3,776.832,1739.3Zm-55.5-879.835a16.711,16.711,0,0,0-9.363,2.813,22.368,22.368,0,0,0-9.131,24.742l.909,3.183c20.661,72.417,47.611,142.2,71.388,203.757,9.421,24.393,19.385,49.027,29.426,73.878,40.472,100.188,82.337,203.778,96,308.828,9.267,71.327-4.8,139.972-36.7,179.124-23.66,29.036-56.317,42.181-97.2,39.565-94.719-6.453-175.393-97.573-246.568-177.99-12.343-13.93-24.318-27.467-35.965-40.11-92.842-100.647-185.646-205-275.393-305.93l-10.776-12.12c-29.252-32.873-28.807-67.033-23.312-89.9,8.957-37.211,38.17-69.909,71.02-79.545,20.023-5.886,49.836-5.929,78.391,27.009v.022c84.679,97.595,179.03,200.138,288.471,313.471a17.688,17.688,0,0,0,24.357,1.657c7.448-6.016,10.138-17.09,6.423-26.529-16.038-40.873-32.56-81.485-49.082-122.1-26.678-65.66-54.286-133.542-79.241-201.227-49.662-134.588-93.443-287.9-41.75-404.505,30.044-67.839,71.465-105.094,126.621-113.9C737.269,441.728,930.518,608.535,1026.8,726.12c10.273,12.513,20.159,25.505,30.064,38.5l7.487,9.832c6.19,8.109,16.657,9.94,24.763,4.338,8.087-5.581,11.375-16.938,7.8-26.813-41.536-114.663-81.254-237.218-71.156-363.958,5.417-67.9,31.147-117.039,74.406-142.086,50.455-29.211,118.3-21.6,181.506,20.295,128.5,85.256,233.044,231.942,326.873,377.779,29.638,46.083,11.337,86.194-15.69,108.341-36.6,29.974-93.79,33.506-127.724-18.921a1544.877,1544.877,0,0,0-138.48-182.546c-6.791-7.695-17.586-8.589-25.286-2.093-7.719,6.5-10.021,18.4-5.417,27.925q10.94,22.561,22.113,45.037c49.6,99.884,97.389,197.958,136.449,299.521l8.687,22.54c73.284,189.8,173.613,449.76,85.24,641.875-42.93,93.322-144.536,102.434-222.714,63.3-97.563-48.851-168.854-150.436-237.784-248.684-8.919-12.688-17.76-25.287-26.562-37.6-58.928-82.641-113.775-170.861-166.841-256.183q-28.613-46.04-57.517-91.97l-5.494-8.676C802.407,959.806,772.3,912.2,738.2,868.882l-1.722-2.115A20.055,20.055,0,0,0,721.328,859.464ZM337.885,1001.53h0Z" transform="translate(-132.979 -184.841)" fill="#3c3fa7"/>
            <path id="Trazado_138749" data-name="Trazado 138749" d="M174.29,233.852c71.272,161.4,111.492,350.617,48.869,524.094-9.248,25.657-46.683,14.431-37.3-11.6,58.774-162.883,22.055-338.694-44.98-490.5C129.813,230.822,163.185,208.7,174.29,233.852Z" transform="translate(1165.62 603.96)" fill="#3c3fa7"/>
            <path id="Trazado_138750" data-name="Trazado 138750" d="M156.745,357.016c.329-.043.638-.153.948-.218.542-1.177,1.025-2.464,1.2-2.812l.1-.131c.039-.174-.019-.044.039-.305,2.5-9.744,4.275-19.6,6.171-29.516q6.558-34.5,13.136-68.994c2.128-11.161,14.258-18.7,23.8-15.216,10.447,3.815,15.806,14.845,13.523,26.813q-7.429,39.009-14.877,78.041c-4.121,21.646-10.718,50.051-33.74,54.389-9.944,1.875-21.32-2.943-23.8-15.238C141.113,373.3,146.066,359.022,156.745,357.016Z" transform="translate(1124.41 940.91)" fill="#3c3fa7"/>
            <path id="Trazado_138751" data-name="Trazado 138751" d="M247.391,204.365c21.958-13.21,41.517,24.415,19.521,37.647C236.538,260.28,227.272,297.47,226.072,334c-1.393,41.484,2.747,84.123,8.725,124.975a905.684,905.684,0,0,0,67.151,234.166c11.047,25.048-22.306,47.151-33.411,22a954.977,954.977,0,0,1-75.1-275.781C184.323,360.8,173.412,248.857,247.391,204.365Z" transform="translate(182.008 163.654)" fill="#3c3fa7"/>
          </g>
          <g id="Grupo_160436" data-name="Grupo 160436" transform="translate(45.878 0)">
            <g id="Grupo_160435" data-name="Grupo 160435">
              <g id="Grupo_160434" data-name="Grupo 160434">
                <path id="Trazado_138752" data-name="Trazado 138752" d="M317.112,978.309c93.21,107.47,189.534,210.994,287.717,312.664-42.446-108.1-88.219-214.525-128.517-323.76-45.676-123.862-98.763-292.7-41.189-422.62,37.667-84.992,91.852-121.659,153.292-127.253C739.533,403.581,933.178,581.8,1020.231,688.1c13.02,15.869,25.421,32.459,38,48.874C1014.62,616.6,975.347,492.908,985.7,362.854c14.258-178.818,159.742-221.719,284.989-138.643C1405.2,313.435,1513.211,467.8,1603.422,607.985c76.611,119.067-98.7,232.423-174.716,115.056a1517.12,1517.12,0,0,0-136.545-180.017q10.882,22.464,21.977,44.862c49,98.64,97.408,197.674,137.339,301.481,76.476,198.808,189.535,474,93.346,683.119-48.482,105.377-162.141,116.081-247.748,73.2-115.051-57.637-194.739-184.878-271.563-292.566-80.19-112.44-150.8-231.834-225.035-349.157-31.031-49.026-62.024-98.75-97.524-143.852-.813-1.025-1.683-1.984-2.5-3.03l.89,3.183c19.714,69.059,45.076,135.329,70.729,201.773,47.766,123.6,109.345,253.72,126.834,388.243,15.477,118.936-27.279,252.237-154.228,243.6-119.328-8.11-214.975-137.64-294.759-224.139-96.634-104.766-191.528-211.625-286.44-318.354C64.392,1039.979,219.22,865.455,317.112,978.309Z" transform="translate(-112.195 -161.618)" fill="#a6bbff"/>
                <path id="Trazado_138753" data-name="Trazado 138753" d="M774.472,1736.908c46.837,0,86.575-18.508,115.5-54,40.2-49.331,57.574-129.683,46.489-214.961-14.432-111.132-57.458-217.6-99.072-320.557-9.944-24.655-19.81-49.048-29.155-73.2-8.841-22.911-18.147-46.977-27.375-71.872,5.649,8.851,11.24,17.7,16.773,26.464l5.494,8.676c19.288,30.476,38.325,61.1,57.362,91.687,53.4,85.911,108.629,174.741,168.37,258.473,8.725,12.251,17.489,24.742,26.349,37.364,68.505,97.594,146.141,208.225,252.43,261.48,94.777,47.413,218.864,34.116,272.762-83.1,96.867-210.537-7.719-481.477-84.079-679.326l-8.686-22.475c-22.461-58.443-47.65-115.492-74.347-172.278q9.257,13.634,18.224,27.445c46.972,72.57,129.271,71.479,181.719,28.491,43.374-35.554,67.712-101.649,24.26-169.183-96.286-149.651-203.948-300.457-338.559-389.768-74.735-49.528-156.492-57.571-218.825-21.494-54.866,31.762-88.683,94.587-95.26,176.966-7.7,96.614,10.814,189.108,37.667,277.307C923.148,549.706,739.436,394.606,592.037,418.105c-67.712,10.833-120.14,57.135-155.8,137.6C377.6,688.022,423.88,852.736,476.869,996.436c25.228,68.383,52.97,136.636,79.8,202.623l9.5,23.347C486.33,1138.065,414.9,1059.479,349.358,983.923h0c-32.4-37.386-73.573-51.1-115.806-38.737-46.373,13.6-86.013,57.92-98.608,110.325-11.588,48.067.232,95,33.294,132.168l10.8,12.142c89.863,101.06,182.783,205.544,275.877,306.474,11.472,12.447,23.255,25.767,35.423,39.5,72.258,81.638,162.2,183.266,271.6,190.7C766.172,1736.777,770.332,1736.908,774.472,1736.908Zm-55.5-879.835a16.692,16.692,0,0,0-9.363,2.834,22.337,22.337,0,0,0-9.151,24.742l.91,3.182c20.661,72.395,47.611,142.2,71.387,203.757,9.422,24.371,19.386,49,29.426,73.877,40.491,100.189,82.356,203.778,96.015,308.807,9.267,71.327-4.8,139.972-36.719,179.146-23.641,29.014-56.317,42.181-97.2,39.564-94.72-6.453-175.393-97.573-246.549-177.989-12.343-13.952-24.337-27.489-35.983-40.11-92.843-100.647-185.647-205-275.393-305.929l-10.776-12.142c-29.231-32.851-28.806-67.011-23.293-89.9,8.958-37.189,38.151-69.91,71.02-79.524,20-5.885,49.817-5.929,78.372,27.01h0c84.678,97.594,179.03,200.138,288.471,313.493,6.771,7,16.928,7.673,24.357,1.656,7.468-6.016,10.137-17.09,6.423-26.529-16.038-40.873-32.56-81.485-49.062-122.119-26.7-65.637-54.285-133.52-79.261-201.206-49.642-134.587-93.442-287.9-41.749-404.526,30.064-67.817,71.484-105.071,126.621-113.9,137.416-21.908,330.685,144.9,426.971,262.462,10.254,12.534,20.139,25.527,30.045,38.5l7.506,9.853c6.171,8.11,16.638,9.941,24.744,4.338,8.087-5.58,11.395-16.938,7.816-26.835C1053,634.941,1013.282,512.364,1023.38,385.646c5.417-67.926,31.147-117.061,74.406-142.109,50.474-29.189,118.3-21.581,181.506,20.317,128.517,85.235,233.044,231.943,326.873,377.779,29.658,46.083,11.337,86.171-15.69,108.319-36.6,30-93.79,33.527-127.724-18.9a1541.064,1541.064,0,0,0-138.48-182.546c-6.771-7.7-17.586-8.588-25.266-2.093-7.719,6.5-10.04,18.4-5.417,27.9q10.94,22.595,22.093,45.059c49.623,99.883,97.389,197.958,136.468,299.519l8.686,22.54c73.264,189.8,173.594,449.76,85.22,641.854-42.929,93.344-144.535,102.456-222.713,63.327-97.563-48.852-168.854-150.458-237.784-248.685-8.919-12.709-17.76-25.287-26.543-37.625-58.948-82.619-113.794-170.84-166.861-256.162q-28.614-46.039-57.516-91.992l-5.495-8.654c-29.116-46.061-59.219-93.692-93.307-136.985L734.1,864.4A20.039,20.039,0,0,0,718.968,857.074ZM335.526,999.161h0Z" transform="translate(-130.608 -182.469)" fill="#6b8dfc"/>
              </g>
              <path id="Trazado_138754" data-name="Trazado 138754" d="M171.913,231.485C243.2,392.886,283.4,582.08,220.8,755.58c-9.267,25.636-46.7,14.43-37.319-11.6,58.793-162.9,22.074-338.693-44.98-490.5C127.455,228.433,160.808,206.329,171.913,231.485Z" transform="translate(1167.989 606.329)" fill="#6b8dfc"/>
              <path id="Trazado_138755" data-name="Trazado 138755" d="M154.373,354.645c.329-.044.638-.152.948-.218.542-1.2,1.045-2.464,1.219-2.812l.077-.131c.039-.175-.02-.065.039-.327,2.5-9.722,4.3-19.6,6.171-29.494q6.587-34.5,13.136-68.994c2.128-11.161,14.258-18.7,23.815-15.216,10.427,3.793,15.786,14.845,13.5,26.813l-14.858,78.019c-4.14,21.668-10.737,50.073-33.759,54.41-9.944,1.854-21.32-2.942-23.8-15.237C138.741,370.929,143.713,356.651,154.373,354.645Z" transform="translate(1126.774 943.282)" fill="#6b8dfc"/>
              <path id="Trazado_138756" data-name="Trazado 138756" d="M245.02,201.995c21.958-13.211,41.536,24.415,19.521,37.647-30.374,18.268-39.621,55.457-40.84,91.971-1.393,41.484,2.747,84.145,8.725,125a905.672,905.672,0,0,0,67.151,234.167c11.066,25.047-22.306,47.151-33.411,22a955.961,955.961,0,0,1-75.1-275.781C181.952,358.4,171.04,246.465,245.02,201.995Z" transform="translate(184.371 166.027)" fill="#6b8dfc"/>
            </g>
          </g>
        </g>
      </g>
    </g>
  </g>
</svg>
