<svg xmlns="http://www.w3.org/2000/svg" width="90" height="90" viewBox="0 0 90 90">
  <g id="Grupo_160002" data-name="Grupo 160002" transform="translate(0.082)">
    <circle id="Elipse_4780" data-name="Elipse 4780" cx="45" cy="45" r="45" transform="translate(-0.082 0)" fill="#c4d1ff"/>
    <g id="Grupo_159042" data-name="Grupo 159042" transform="translate(15.746 14.868)">
      <g id="Grupo_83653" data-name="Grupo 83653" transform="translate(35.058 24.094)">
        <path id="Trazado_117567" data-name="Trazado 117567" d="M462.391,109.848s13.389,10.1,14.385,22.362c1.508,18.56-19.605,10.44-21.925-1.392S462.391,109.848,462.391,109.848Z" transform="translate(-454.498 -109.848)"/>
      </g>
      <g id="Grupo_83664" data-name="Grupo 83664" transform="translate(10.134)">
        <path id="Trazado_117578" data-name="Trazado 117578" d="M495.389,116.9a17.061,17.061,0,0,0,3.44-13.611c-.944-5.61-3.44-7.425-3.44-7.425s3.8-7.656-7.516-7.191S469.9,94.688,469.9,94.688s-5.173-2.54-7.493,3.491,0,14.931,0,14.931Z" transform="translate(-461.372 -88.647)"/>
      </g>
      <g id="Grupo_83676" data-name="Grupo 83676" transform="translate(19.306 31.726)">
        <g id="Grupo_83675" data-name="Grupo 83675" transform="translate(0)">
          <g id="Grupo_83674" data-name="Grupo 83674">
            <g id="Grupo_83673" data-name="Grupo 83673">
              <path id="Trazado_117587" data-name="Trazado 117587" d="M468.3,115.64l.347,13.815s2.591,3.909,10.689,4.364c6.033.338,7.862-2.8,7.862-2.8l-1.762-12.052-14.675-2.844Z" transform="translate(-468.296 -115.64)" fill="#f27e64"/>
            </g>
          </g>
        </g>
      </g>
      <g id="Grupo_83682" data-name="Grupo 83682" transform="translate(19.306 36.73)">
        <g id="Grupo_83681" data-name="Grupo 83681" transform="translate(0)">
          <g id="Grupo_83680" data-name="Grupo 83680">
            <g id="Grupo_83679" data-name="Grupo 83679">
              <path id="Trazado_117590" data-name="Trazado 117590" d="M468.844,115.034a4.563,4.563,0,0,0,.434,1.324c3.264,6.822,14.215,9.421,17.7,9.645l-1-6.8Z" transform="translate(-468.844 -115.034)"/>
            </g>
          </g>
        </g>
      </g>
      <g id="Grupo_83686" data-name="Grupo 83686" transform="translate(9.311 4.404)">
        <g id="Grupo_83685" data-name="Grupo 83685">
          <g id="Grupo_83684" data-name="Grupo 83684">
            <g id="Grupo_83683" data-name="Grupo 83683">
              <path id="Trazado_117591" data-name="Trazado 117591" d="M493.309,96.738s7.684,17.14,5.068,26.836-11.443,8.258-16.731,6.44a17.454,17.454,0,0,1-7.767-5.028,7.433,7.433,0,0,1-8.245-2.83c-3.337-4.548-1.36-9.825,1.441-11.057s6.163.766,6.163.766l-2.669-4.977S481.35,81.361,493.309,96.738Z" transform="translate(-463.885 -91.811)" fill="#f27e64"/>
            </g>
          </g>
        </g>
      </g>
      <g id="Grupo_83690" data-name="Grupo 83690" transform="translate(14.362 1.896)">
        <g id="Grupo_83689" data-name="Grupo 83689">
          <g id="Grupo_83688" data-name="Grupo 83688">
            <g id="Grupo_83687" data-name="Grupo 83687">
              <path id="Trazado_117592" data-name="Trazado 117592" d="M470.39,112.569s7.4,1.494,12.544-6.743S487.6,94.207,487.6,94.207l5.124,8.5s1.144-5.9-1.214-9.655-4.805-2.979-4.805-2.979l-16.32,4.077-4.3,13.081Z" transform="translate(-466.09 -90.01)"/>
            </g>
          </g>
        </g>
      </g>
      <g id="Grupo_83691" data-name="Grupo 83691" transform="translate(36.114 23.038)">
        <path id="Trazado_117593" data-name="Trazado 117593" d="M469.809,113.34a.524.524,0,0,0,.5-.369c1.123-3.671-1.473-7.4-1.584-7.555a.522.522,0,1,0-.852.6c.024.035,2.41,3.469,1.438,6.646a.521.521,0,0,0,.5.674Z" transform="translate(-467.777 -105.197)"/>
      </g>
      <g id="Grupo_83692" data-name="Grupo 83692" transform="translate(12.74 26.52)">
        <path id="Trazado_117594" data-name="Trazado 117594" d="M487.681,113.683a.523.523,0,0,0,.38-.881l-4.69-4.942a.523.523,0,0,0-.759.72l4.69,4.94A.52.52,0,0,0,487.681,113.683Z" transform="translate(-482.469 -107.699)"/>
      </g>
      <g id="Grupo_83693" data-name="Grupo 83693" transform="translate(12.478 29.645)">
        <path id="Trazado_117595" data-name="Trazado 117595" d="M484.228,111.49a.526.526,0,0,0,.079-.007l3.234-.5a.52.52,0,0,0,.434-.594.512.512,0,0,0-.6-.437l-3.232.5a.522.522,0,0,0,.081,1.038Z" transform="translate(-483.706 -109.945)"/>
      </g>
      <g id="Grupo_83694" data-name="Grupo 83694" transform="translate(28.946 30.949)">
        <path id="Trazado_117596" data-name="Trazado 117596" d="M473.3,116.144a9.559,9.559,0,0,0,3.063-.625.521.521,0,0,0,.134-.9l-4.623-3.629a.522.522,0,0,0-.785.171c-.056.107-1.341,2.645.075,4.218A2.787,2.787,0,0,0,473.3,116.144Zm1.774-1.313c-1.068.276-2.56.487-3.135-.149a2.548,2.548,0,0,1-.166-2.442Z" transform="translate(-470.496 -110.881)"/>
      </g>
      <g id="Grupo_83695" data-name="Grupo 83695" transform="translate(37.882 15.511)">
        <path id="Trazado_117597" data-name="Trazado 117597" d="M469.161,101.364a.522.522,0,0,0,.089-1.037l-3.057-.532a.523.523,0,0,0-.18,1.03l3.058.532A.659.659,0,0,0,469.161,101.364Z" transform="translate(-465.582 -99.79)"/>
      </g>
      <g id="Grupo_83696" data-name="Grupo 83696" transform="translate(28.233 15.511)">
        <path id="Trazado_117598" data-name="Trazado 117598" d="M471.63,103.372a.516.516,0,0,0,.237-.057l5.013-2.539a.522.522,0,1,0-.473-.93l-5.013,2.538a.523.523,0,0,0,.237.988Z" transform="translate(-471.108 -99.789)"/>
      </g>
      <g id="Grupo_83697" data-name="Grupo 83697" transform="translate(0 24.057)">
        <path id="Trazado_117599" data-name="Trazado 117599" d="M489.427,109.848s-10.674,9.253-9.167,24.333,16.462,13.145,19.6,7.642c4.758-8.338-.444-23.91-.444-23.91S490.249,119.449,489.427,109.848Z" transform="translate(-480.115 -109.848)"/>
      </g>
      <g id="Grupo_83698" data-name="Grupo 83698" transform="translate(39.985 18.832)">
        <path id="Trazado_117600" data-name="Trazado 117600" d="M467.059,107.495a.538.538,0,0,0,.153-.024.521.521,0,0,0,.345-.651l-.873-2.841.778-.951a.521.521,0,1,0-.807-.66l-.955,1.167a.518.518,0,0,0-.095.483l.955,3.107A.521.521,0,0,0,467.059,107.495Z" transform="translate(-465.582 -102.176)"/>
      </g>
      <g id="Grupo_83699" data-name="Grupo 83699" transform="translate(31.29 19.294)">
        <path id="Trazado_117601" data-name="Trazado 117601" d="M473.043,108.2a.536.536,0,0,0,.153-.022.522.522,0,0,0,.345-.653l-.87-2.833,1.132-1.321a.522.522,0,1,0-.793-.678l-1.318,1.54a.52.52,0,0,0-.1.491l.955,3.107A.52.52,0,0,0,473.043,108.2Z" transform="translate(-471.567 -102.509)"/>
      </g>
      <g id="Grupo_83704" data-name="Grupo 83704" transform="translate(21.232 45.671)">
        <path id="Trazado_117606" data-name="Trazado 117606" d="M476.907,130.1a12.907,12.907,0,0,0,8.347-2.884.522.522,0,0,0-.718-.759c-.246.234-6.187,5.652-15.836.237a.522.522,0,0,0-.511.91A17.719,17.719,0,0,0,476.907,130.1Z" transform="translate(-467.922 -126.312)" fill="#fff"/>
      </g>
    </g>
  </g>
</svg>
