<svg xmlns="http://www.w3.org/2000/svg" xmlns:xlink="http://www.w3.org/1999/xlink" width="90" height="90" viewBox="0 0 90 90">
  <defs>
    <clipPath id="clip-path">
      <rect id="Rectángulo_37368" data-name="Rectángulo 37368" width="4.844" height="3.107" fill="none"/>
    </clipPath>
  </defs>
  <g id="Grupo_160003" data-name="Grupo 160003" transform="translate(0.193 -0.01)">
    <circle id="Elipse_4781" data-name="Elipse 4781" cx="45" cy="45" r="45" transform="translate(-0.193 0.01)" fill="#c4d1ff"/>
    <g id="Grupo_159044" data-name="Grupo 159044" transform="translate(23.962 13.18)">
      <path id="Trazado_128800" data-name="Trazado 128800" d="M51.592,24.451s1.23-6.26-.375-11.455c-1.579-5.112-1.579-8.166-.594-9.073,3.1-2.855,6.014,4.091,6.014,4.091S55.82,1.557,58.5,1.376s4.557,6.077,4.557,6.077-.5-9.166,3.012-7.167S70.875,8.4,70.875,8.4s12.058,2.008,16.493,10.1c0,0,3.629-3.866,5.992-1.586s-2.545,6.054-2.545,6.054S94.586,25.447,94,29.01s-5.062,1.121-5.062,1.121S89.7,49.2,73.5,54.436s-21.91-29.984-21.91-29.984" transform="translate(-46.576 -0.001)" fill="#d65900"/>
      <path id="Trazado_128801" data-name="Trazado 128801" d="M56.249,56.967l-.777,5.771a17.136,17.136,0,0,0,1.722,1.688c8.582,7.281,19.715,1.194,19.715,1.194L79.6,45.613l-20.567,10Z" transform="translate(-46.71 -1.102)" fill="#ff9568"/>
      <path id="Trazado_128802" data-name="Trazado 128802" d="M56.249,57.174l-.777,5.771a17.136,17.136,0,0,0,1.722,1.688c8.451-2.3,15.475-10.471,15.475-10.471L59.034,55.82Z" transform="translate(-46.71 -1.307)" fill="#36251f"/>
      <path id="Trazado_128803" data-name="Trazado 128803" d="M52.618,34.323s-2.583-4.042-4.808-.646-1.877,10.92,2.96,10.347Z" transform="translate(-46.493 -0.781)" fill="#e0693e"/>
      <path id="Trazado_128804" data-name="Trazado 128804" d="M48.079,43.693S46.821,55,58.455,56.538a30.727,30.727,0,0,0,20.452-4.5l.014-.009.442-2.333,2.3-12.11,1.229-6.472s3.055-11.541-7.813-15.183c-7.941-2.661-15.766-2.335-20.2,1.4-.143.12-.283.245-.416.374a10.118,10.118,0,0,0-2.931,5.172L49.6,34.54,49.125,37.4Z" transform="translate(-46.53 -0.343)" fill="#ff9568"/>
      <path id="Trazado_128805" data-name="Trazado 128805" d="M65.4,41.839s-1.678,4.853-5.713,5.517c-4.594.755-5.433-4.988-5.433-4.988Z" transform="translate(-46.68 -1.01)" fill="#f4ece1"/>
      <path id="Trazado_128806" data-name="Trazado 128806" d="M58.049,49.2a2.44,2.44,0,0,1-.268-.1.374.374,0,0,1,.307-.681,2.393,2.393,0,0,0,2.358-.3.374.374,0,0,1,.466.584,3.083,3.083,0,0,1-2.863.494" transform="translate(-46.76 -1.16)" fill="#e0693e"/>
      <path id="Trazado_128807" data-name="Trazado 128807" d="M65.743,33.877c-.15,1.118.235,2.093.861,2.177s1.254-.754,1.405-1.873-.235-2.092-.861-2.177-1.255.754-1.405,1.873" transform="translate(-46.957 -0.773)" fill="#36251f"/>
      <path id="Trazado_128808" data-name="Trazado 128808" d="M54.407,32.352c-.15,1.118.235,2.093.861,2.177s1.254-.754,1.405-1.873-.235-2.092-.861-2.176-1.255.753-1.405,1.872" transform="translate(-46.683 -0.736)" fill="#36251f"/>
      <path id="Trazado_128809" data-name="Trazado 128809" d="M59.358,38.8a3.967,3.967,0,0,1-3.417-2.481A.465.465,0,0,1,56,35.928c2.388-3.6,4.814-7.305,4.837-7.342a.464.464,0,0,1,.777.508c-.023.037-2.36,3.6-4.7,7.139a3.184,3.184,0,0,0,2.574,1.649.464.464,0,0,1-.124.92" transform="translate(-46.721 -0.685)" fill="#36251f"/>
      <path id="Trazado_128810" data-name="Trazado 128810" d="M70.773,20.076a2.725,2.725,0,0,1,2.285,2.554,4.4,4.4,0,0,0,1.85,3.22c3.272,2.753,2.211,5.79,1.045,8.27s3.373,7.965,7.41,1.953S86.3,16.1,76.848,14.171s-22.481-.528-24.116,3.646a21.759,21.759,0,0,0-1.479,7.957,5.136,5.136,0,0,0,1.961-3.836c.243-2.728,2.265-3.543,5.477-3.543a112.235,112.235,0,0,1,12.082,1.681" transform="translate(-46.608 -0.322)" fill="#d65900"/>
      <g id="Grupo_157540" data-name="Grupo 157540" transform="translate(2.594 34.197)">
        <g id="Grupo_157539" data-name="Grupo 157539" clip-path="url(#clip-path)">
          <path id="Trazado_128811" data-name="Trazado 128811" d="M49.151,37.9c.285.067.586.123.9.165,2.066.278,3.832-.157,3.942-.971s-1.478-1.7-3.545-1.979q-.42-.056-.819-.073Z" transform="translate(-49.151 -35.043)" fill="#e0693e"/>
        </g>
      </g>
      <path id="Trazado_128812" data-name="Trazado 128812" d="M64.984,38.583c-.109.814,1.478,1.7,3.547,1.978s3.833-.156,3.943-.97-1.478-1.7-3.547-1.978-3.834.156-3.943.97" transform="translate(-46.939 -0.907)" fill="#e0693e"/>
      <path id="Trazado_128813" data-name="Trazado 128813" d="M72.614,28.891h0A2.653,2.653,0,0,1,69,29.765a14.772,14.772,0,0,0-2.518-1.219A2.438,2.438,0,0,1,65.057,25.3s5.482.232,7.557,3.589" transform="translate(-46.936 -0.611)" fill="#d65900"/>
      <path id="Trazado_128814" data-name="Trazado 128814" d="M51.253,26.038h0a2.654,2.654,0,0,0,3.256,1.8,14.8,14.8,0,0,1,2.749-.51,2.437,2.437,0,0,0,2.231-2.752s-5.348-1.225-8.236,1.465" transform="translate(-46.608 -0.587)" fill="#d65900"/>
      <path id="Trazado_128815" data-name="Trazado 128815" d="M76.565,47.826c.036.131,1.049,3.742,3.031,5.027l.013-.01.442-2.333a8.1,8.1,0,0,1-3.486-2.684" transform="translate(-47.219 -1.155)" fill="#36251f"/>
      <path id="Trazado_128816" data-name="Trazado 128816" d="M79.7,40.089s5.278-5.4,7.919-.244c2.176,4.252-4.29,13.7-9.165,9.509Z" transform="translate(-47.265 -0.909)" fill="#ff9568"/>
      <path id="Trazado_128817" data-name="Trazado 128817" d="M79.323,47.705l-.051-.009a.465.465,0,0,1-.339-.563,8.687,8.687,0,0,1,5.974-6.271.464.464,0,0,1,.226.9,7.756,7.756,0,0,0-5.3,5.595.464.464,0,0,1-.511.348" transform="translate(-47.276 -0.987)" fill="#36251f"/>
      <path id="Trazado_128818" data-name="Trazado 128818" d="M84.04,45.552a.46.46,0,0,1-.276-.141c-.356-.379-1.462-1.338-2.283-1.241a.464.464,0,0,1-.108-.922c1.429-.168,2.9,1.354,3.067,1.527a.464.464,0,0,1-.4.778" transform="translate(-47.325 -1.044)" fill="#36251f"/>
    </g>
  </g>
</svg>
