<svg xmlns="http://www.w3.org/2000/svg" xmlns:xlink="http://www.w3.org/1999/xlink" width="158.932" height="520.505" viewBox="0 0 158.932 520.505">
  <defs>
    <clipPath id="clip-path">
      <rect id="Rectángulo_38838" data-name="Rectángulo 38838" width="116.348" height="412.009" fill="none"/>
    </clipPath>
    <clipPath id="clip-path-3">
      <rect id="Rectángulo_38834" data-name="Rectángulo 38834" width="76.685" height="229.099" fill="none"/>
    </clipPath>
    <clipPath id="clip-path-4">
      <rect id="Rectángulo_38835" data-name="Rectángulo 38835" width="2.808" height="2.266" transform="translate(0)" fill="none"/>
    </clipPath>
    <clipPath id="clip-path-5">
      <rect id="Rectángulo_38836" data-name="Rectángulo 38836" width="7.151" height="2.357" transform="translate(0)" fill="none"/>
    </clipPath>
  </defs>
  <g id="Grupo_159038" data-name="Grupo 159038" transform="translate(-201.898 -2192.5)">
    <g id="Grupo_157971" data-name="Grupo 157971" transform="translate(199 2174.999)">
      <g id="Grupo_157495" data-name="Grupo 157495" transform="translate(2.898 104.02)">
        <g id="Grupo_157493" data-name="Grupo 157493" transform="translate(0 0)">
          <path id="Trazado_114544" data-name="Trazado 114544" d="M144.794,418.088c22.057-11.987,44.932-28.161,53.816-55.211,9.859-30.02-.461-63.639-.213-95.908.2-25.563,7.093-50.25,12.52-74.97s9.412-50.984,3.813-75.648a100.6,100.6,0,0,0-21.986-43.3c-18.1-20.874-44.172-32.17-68.947-27.4S76.515,72.178,69.272,101.033c-10.261,40.881,9.783,84.521,5.523,126.912-1.667,16.587-7,32.273-10.619,48.406a236.074,236.074,0,0,0-5.669,52.665c.135,27.211,5.877,56.243,22.778,74.364C98.332,421.659,123.7,429.551,144.794,418.088Z" transform="translate(-58.504 -44.565)" fill="#ffd947"/>
          <g id="Grupo_162081" data-name="Grupo 162081" transform="translate(21.073 21.977)">
            <g id="Grupo_162092" data-name="Grupo 162092" clip-path="url(#clip-path)">
              <g id="Grupo_162091" data-name="Grupo 162091" transform="translate(0)">
                <g id="Grupo_162090" data-name="Grupo 162090" clip-path="url(#clip-path)">
                  <path id="Trazado_142822" data-name="Trazado 142822" d="M23.423,6.425c12.935-9.8,31.5-8.818,38.337,5.9A19.774,19.774,0,0,1,63,15.764c2.857,11.175-5.523,11.925,3.972,18.514s14.154,9.064,15.159,15.185c1.776,10.812-11.1,8.125,2.132,17.436s15.9,18.352,12.028,25.945c-6.807,13.363-15.9-1.311-20.441,15.464-.028.1-.055.2-.083.3a10.692,10.692,0,0,1-19.528,2.525c-3.844-6.58-7.741-12.818-15.331-8.49-14.025,8-18.024,22.474-28.218,11.76s-1.332-17.829-9.1-24.138S2.033,71.3,10.234,66.448s18.73-5.667,13.845-11.64-6.912-9.884-4.293-14.55-.436-4.194-1.531-11.28c-.638-4.128-2.713-16.584,5.168-22.553" transform="translate(18.395 0)" fill="#181709"/>
                  <path id="Trazado_142823" data-name="Trazado 142823" d="M106.659,141.56q-2.871-3.2-5.56-6.527-3.2-3.962-6.121-8.1c-1.943-2.758-3.792-5.567-5.514-8.416-.862-1.424-1.69-2.86-2.475-4.293l-.15-.274c.2-.43.425-.878.661-1.333.848-1.632,1.878-3.355,2.965-5.078,2.2-3.453,4.67-6.928,7.234-10.363s5.249-6.846,7.987-10.219q2.054-2.531,4.152-5.03l2.1-2.488L113,78.2l1.036-1.191.073-.088A9.145,9.145,0,0,0,100.3,64.933l-1.153,1.326-1.115,1.3-2.2,2.6q-2.191,2.611-4.341,5.258c-2.866,3.53-5.683,7.114-8.44,10.8S77.6,93.685,75.02,97.734c-1.287,2.039-2.546,4.131-3.752,6.445-.6,1.161-1.191,2.375-1.753,3.724a27.991,27.991,0,0,0-1.533,4.768,8.9,8.9,0,0,0,.918,6.29l.037.065c.072.122.1.16.146.234l.12.179.226.334.437.628c.29.409.578.806.868,1.2.575.785,1.156,1.546,1.741,2.294,1.171,1.5,2.362,2.955,3.576,4.382q3.639,4.273,7.526,8.227t7.992,7.639q4.1,3.671,8.4,7.062Z" transform="translate(-67.767 0)" fill="#c9614d"/>
                  <path id="Trazado_142824" data-name="Trazado 142824" d="M97.254,111.276a10.558,10.558,0,0,1,6.554,2.872c.324.3.813-.183.488-.489a11.325,11.325,0,0,0-7.042-3.074c-.444-.031-.442.66,0,.691" transform="translate(-84.977 0)" fill="#722324"/>
                  <path id="Trazado_142825" data-name="Trazado 142825" d="M98.543,108.831l2.471,3.675c.246.367.845.021.6-.349l-2.471-3.675c-.246-.367-.845-.021-.6.349" transform="translate(-83.805 0)" fill="#722324"/>
                  <path id="Trazado_142826" data-name="Trazado 142826" d="M21.925,168.793s9.975.51,25.118-3.775q.313-.087.628-.18a123.468,123.468,0,0,0,17.075-6.359l.579-.267a136,136,0,0,0,14.318-7.725,45.508,45.508,0,0,1-2.582-6.033q-.119-.33-.234-.674a47.619,47.619,0,0,1-2.411-11.265c-.017-.206-.031-.413-.044-.62a34.294,34.294,0,0,1,.056-5.337,25.389,25.389,0,0,1,.537-3.246c.046-.2.093-.406.145-.613.13-.542.279-1.093.442-1.657a91.989,91.989,0,0,1,5.362-13.4c.093-.192.186-.387.279-.581,1.8-3.727,3.777-7.481,5.7-11,.1-.186.205-.372.3-.556,1.467-2.669,2.893-5.194,4.178-7.459l.4-.7.861-1.519q.441-.775.858-1.488c.109-.188.219-.374.324-.553,1.471-2.507,2.614-4.366,2.779-5.4.135-.851.254-1.732.31-2.626.015-.217.025-.436.031-.653a13.418,13.418,0,0,0-.052-1.614c-.024-.273-.059-.543-.107-.816a9.365,9.365,0,0,0-.424-1.63,7.2,7.2,0,0,0-.336-.814,11.421,11.421,0,0,0-4.763-4.893q-.267-.161-.554-.318c-.252-.141-.516-.279-.789-.415s-.578-.281-.884-.42c-.7-.312-1.449-.615-2.265-.9a40.3,40.3,0,0,1-7.089-3.219c-.248-.142-.481-.287-.706-.432a20.849,20.849,0,0,1-2.2-1.582c-.167-.137-.324-.273-.473-.405a7.986,7.986,0,0,1-2.165-2.655l-12,1.4-.781.091-6.83.8a32.824,32.824,0,0,1-5.879,2.81q-.486.167-.979.31c-.411.117-.822.223-1.231.306-.244.051-.486.1-.726.128-.278.043-.555.074-.828.091-2.86.181-5.3.2-6.971,1.646a4.88,4.88,0,0,0-.6.62A7.113,7.113,0,0,0,36.045,65.9c-.066.25-.12.5-.165.754-.015.074-.027.149-.039.223-.023.13-.042.263-.06.393s-.036.285-.05.427a39.225,39.225,0,0,0,.178,6.35,16.926,16.926,0,0,1,0,2.626c-.021.213-.048.419-.085.62a4.128,4.128,0,0,1-.723,1.785c-1.064,1.411-3.015,3.132-4.579,5.45-.064.1-.128.191-.19.29-.105.163-.206.328-.306.5-.041.066-.08.132-.121.2a12.625,12.625,0,0,0-1.618,4.655c-.015.106-.027.211-.037.318-.017.147-.029.294-.04.445,0,.059-.008.119-.008.181a11.013,11.013,0,0,0-.006,1.234,17.688,17.688,0,0,0,.667,3.948c.066.259.145.513.221.773.252.814.542,1.624.852,2.434.117.308.237.618.359.926.37.921.756,1.841,1.134,2.756.083.2.164.4.244.6.1.233.192.467.285.7v0q.2.489.385.979v0c.386,1.015.733,2.025,1.01,3.033.072.26.136.521.2.783a16.147,16.147,0,0,1,.329,1.831,32.581,32.581,0,0,1-.4,8.033c-.025.163-.05.326-.074.49-.007.043-.015.086-.021.13-.227,1.44-.506,2.942-.824,4.463-.071.343-.145.684-.219,1.029v0c-.486,2.213-1.042,4.446-1.622,6.578-.066.238-.131.472-.194.705-.532,1.915-1.081,3.738-1.608,5.374q-.523,1.628-1,3.172v.008c-.227.744-.446,1.463-.657,2.176-.017.053-.031.107-.045.159v.01c-.05.159-.1.312-.141.469-4.8,16.434-5.157,24.883-5.157,24.883" transform="translate(-2.521 0)" fill="#fff"/>
                  <path id="Trazado_142827" data-name="Trazado 142827" d="M25.05,77.29q1.776-.1,3.552-.169l.043,0c.207-.006.411-.014.618-.018q5.584-.183,11.174.027l.657.025h0q5.928.245,11.827.919c.216.023.436.048.654.074h0q7.029.831,13.965,2.271c.31.064.62.13.93.2.214.046.427.091.64.139q6.877,1.5,13.6,3.587c.109-.188.219-.374.324-.554q-6.709-2.089-13.581-3.591c-.215-.05-.428-.1-.642-.14Q61.4,78.46,53.865,77.561h0c-.219-.029-.436-.054-.655-.079q-3.769-.437-7.556-.7-2.157-.148-4.317-.238c-.221-.012-.44-.02-.659-.027q-5.6-.216-11.2-.041c-.207.006-.413.012-.622.021q-1.863.062-3.721.171c-.021.213-.048.42-.085.62" transform="translate(8.257 0)" fill="#e2cec3"/>
                  <path id="Trazado_142828" data-name="Trazado 142828" d="M31.674,91.115q3.561-.663,7.161-1.089c.031,0,.064-.008.1-.01.2-.025.4-.048.6-.07q5.442-.6,10.923-.67c.215,0,.432-.006.647-.008,3.723-.023,7.449.136,11.157.481.211.019.422.04.633.06a112.938,112.938,0,0,1,13.744,2.219l.612.139a111.8,111.8,0,0,1,13.109,3.9c.1-.185.205-.371.3-.555q-1.758-.651-3.537-1.234-4.741-1.562-9.606-2.69c-.2-.048-.407-.093-.611-.138a112.88,112.88,0,0,0-13.792-2.238l-.632-.06q-5.578-.523-11.191-.492c-.217,0-.432,0-.648.006-3.653.042-7.306.259-10.939.657-.2.021-.4.044-.6.069q-3.709.424-7.384,1.1c-.017.147-.029.293-.04.444,0,.06-.008.12-.008.182" transform="translate(-5.989 0)" fill="#e2cec3"/>
                  <path id="Trazado_142829" data-name="Trazado 142829" d="M37.677,103.186c.083.2.163.4.244.6.149-.017.295-.031.444-.045.2-.021.4-.04.6-.056q5.284-.494,10.595-.581h.015c.211,0,.423-.006.634-.008q5.3-.062,10.585.283c.209.012.419.027.628.041q6.531.456,13,1.519c.209.035.418.068.626.105q6.112,1.032,12.118,2.606c.094-.192.186-.387.279-.581-.02-.006-.043-.01-.064-.016q-6.009-1.575-12.14-2.61-.313-.056-.627-.105-6.474-1.066-13.029-1.521l-.628-.043q-5.293-.345-10.6-.29c-.211,0-.424.005-.635.009h0q-5.314.077-10.614.56l-.6.057c-.274.025-.547.052-.822.081" transform="translate(-8.765 0)" fill="#e2cec3"/>
                  <path id="Trazado_142830" data-name="Trazado 142830" d="M43.78,119.634c-.006.043-.014.087-.021.13.533-.066,1.069-.126,1.6-.182q2.622-.271,5.256-.411l.63-.031a102.742,102.742,0,0,1,10.279.044c.209.012.416.022.624.037a102.565,102.565,0,0,1,12.635,1.549c.2.036.407.075.61.114a102.259,102.259,0,0,1,9.94,2.428c.045-.2.093-.407.144-.614a102.094,102.094,0,0,0-9.983-2.432c-.2-.039-.407-.076-.61-.113a102.949,102.949,0,0,0-12.63-1.54q-.313-.021-.622-.037-5.139-.282-10.288-.047l-.63.031q-3.439.176-6.864.584c-.024.164-.049.327-.074.49" transform="translate(-12.892 0)" fill="#e2cec3"/>
                  <path id="Trazado_142831" data-name="Trazado 142831" d="M44.647,131.837c-.066.238-.13.471-.194.705q3.967-.584,7.992-1,.312-.035.626-.064,5.145-.508,10.335-.684l.626-.019a127.56,127.56,0,0,1,13.136.3c.2.016.4.031.608.049a104.317,104.317,0,0,1,10.564,1.393c-.016-.207-.031-.413-.043-.62-2.61-.469-5.236-.827-7.874-1.091q-1.3-.131-2.608-.234c-.2-.016-.4-.03-.607-.047q-6.528-.486-13.1-.333c-.209,0-.417.007-.626.013q-5.166.13-10.325.618c-.21.018-.419.039-.628.059q-3.951.385-7.878.957" transform="translate(-16.445 0)" fill="#e2cec3"/>
                  <path id="Trazado_142832" data-name="Trazado 142832" d="M41.808,143.91l.126-.012.622-.058c3.141-.285,6.283-.55,9.43-.773l.624-.043c3.475-.24,6.953-.424,10.432-.519.209-.008.415-.012.624-.016,3.593-.089,7.186-.083,10.781.057q1.671.066,3.339.172c.205.012.407.025.612.039a111,111,0,0,1,13.389,1.7c-.079-.219-.157-.444-.234-.673a112.309,112.309,0,0,0-13.174-1.641c-.2-.014-.409-.029-.611-.041-4.674-.293-9.366-.341-14.052-.227-.207,0-.416.01-.622.016q-3.787.106-7.565.335-1.431.084-2.859.184c-.209.012-.415.027-.624.041-3.161.221-6.316.486-9.471.771l-.581.054a.259.259,0,0,0-.041,0c0,.051,0,.1,0,.155v.01c-.05.159-.1.312-.141.469" transform="translate(-17.247 0)" fill="#e2cec3"/>
                  <path id="Trazado_142833" data-name="Trazado 142833" d="M21.93,67.267q1.774-.136,3.553-.225,1.924-.1,3.85-.145l.656-.012q5.871-.119,11.739.244c.226.012.451.027.677.043q6.306.413,12.558,1.372c.224.033.449.068.673.1a145.965,145.965,0,0,1,15.587,3.341c.215.058.429.116.644.176h0q5.665,1.57,11.189,3.6c.014-.217.024-.436.031-.653q-3.688-1.354-7.449-2.5-1.677-.512-3.364-.979h0c-.218-.064-.433-.122-.646-.182a146.308,146.308,0,0,0-15.645-3.374c-.225-.035-.45-.07-.674-.1Q49.037,67,42.7,66.575c-.228-.017-.452-.031-.679-.044q-5.881-.364-11.783-.26c-.218,0-.437.008-.658.015q-3.778.083-7.548.365c-.014.075-.027.149-.039.224-.023.13-.041.262-.061.392" transform="translate(11.329 0)" fill="#e2cec3"/>
                  <path id="Trazado_142834" data-name="Trazado 142834" d="M27.666,142.1c0,.207.012.413.018.62a112.126,112.126,0,0,0,1.686,15.761l.579-.267A111.567,111.567,0,0,1,28.3,142.757c-.006-.207-.014-.411-.018-.618q-.147-4.59.088-9.182c.031-.611.069-1.223.11-1.834q.018-.276.039-.552.354-4.869,1.134-9.686c.033-.207.067-.412.1-.618a111.022,111.022,0,0,1,3.669-15.228c.062-.2.126-.4.192-.6a109.367,109.367,0,0,1,4.794-12.271c.089-.194.18-.388.271-.583q.82-1.753,1.706-3.479,1.927-3.756,4.135-7.354c.113-.186.227-.372.345-.557q2.562-4.136,5.479-8.03h0c.132-.179.269-.359.4-.537h0q2.445-3.235,5.13-6.285c-.177-.107-.363-.213-.553-.318Q52.6,68.135,50.1,71.445c-.093.122-.183.244-.274.366-.044.06-.089.118-.131.178q-2.916,3.91-5.477,8.064c-.116.186-.231.372-.343.56a111.485,111.485,0,0,0-5.812,10.833c-.091.194-.182.388-.271.583a110.6,110.6,0,0,0-4.808,12.3l-.192.6q-1.122,3.533-2,7.138-.976,4.011-1.653,8.081c-.035.205-.068.411-.1.618q-.781,4.851-1.132,9.752c-.015.182-.029.366-.04.55q-.372,5.5-.2,11.025" transform="translate(32.855 0)" fill="#e2cec3"/>
                  <path id="Trazado_142835" data-name="Trazado 142835" d="M42.1,165.018c.209-.058.417-.118.628-.18.289-7.457.661-14.911,1.269-22.349.014-.207.031-.412.049-.618q.18-2.191.391-4.383.322-3.355.727-6.71c.023-.2.046-.391.072-.587q.674-5.5,1.6-10.97c.035-.2.068-.4.1-.607.891-5.112,1.969-10.186,3.287-15.2.052-.2.106-.4.16-.6,1.171-4.389,2.524-8.728,4.093-13q.111-.3.223-.6c.045-.122.091-.244.136-.365q2.046-5.443,4.57-10.7h0c.094-.2.187-.39.284-.585h0Q61.92,73,64.539,68.648c.113-.192.229-.385.347-.577a104.086,104.086,0,0,1,6.94-10.018c-.167-.137-.324-.273-.473-.405a103.57,103.57,0,0,0-7.141,10.32q-.175.288-.347.577-.5.83-.983,1.673-2.052,3.567-3.843,7.265c-.1.2-.193.392-.285.589q-2.6,5.426-4.685,11.076c-.074.2-.148.4-.223.6-1.562,4.272-2.917,8.622-4.089,13.019-.053.2-.107.4-.159.605q-1.431,5.442-2.5,10.963-.413,2.117-.779,4.24c-.037.2-.072.4-.107.607q-.936,5.491-1.6,11.019c-.024.2-.047.4-.072.593q-.663,5.532-1.114,11.091-.027.308-.051.618c-.608,7.492-.982,15.007-1.273,22.513" transform="translate(2.426 0)" fill="#e2cec3"/>
                  <path id="Trazado_142836" data-name="Trazado 142836" d="M56.852,57.275a.31.31,0,0,1,0-.62.31.31,0,0,1,0,.62" transform="translate(2.644 0)" fill="#e2cec3"/>
                  <path id="Trazado_142837" data-name="Trazado 142837" d="M56.738,163.179c-.033.4.587.4.62,0,.539-6.721,1.089-13.445,1.75-20.156.019-.206.039-.411.06-.617q.291-2.941.616-5.876.277-2.526.586-5.05c.027-.219.054-.438.083-.659q.726-5.852,1.649-11.68.046-.308.1-.612c.839-5.176,1.818-10.329,2.984-15.438.045-.205.092-.407.14-.612q1.342-5.8,3.027-11.529c.167-.562.335-1.122.508-1.682.062-.2.126-.407.19-.612q1.811-5.823,4.046-11.5h0c.078-.2.157-.4.24-.605q1.9-4.761,4.14-9.375c.1-.2.194-.4.294-.6q2.389-4.862,5.181-9.516c.079-.133.16-.267.242-.4.052-.089.108-.18.161-.269l-.781.091q-2.968,4.9-5.481,10.05-.148.3-.291.6-1.414,2.919-2.689,5.9-.74,1.736-1.436,3.486c-.082.2-.163.405-.239.607Q70.2,82.818,68.4,88.663c-.064.2-.127.409-.189.613q-2,6.537-3.522,13.211h0c-.046.205-.093.409-.139.612h0q-1.407,6.189-2.475,12.447-.261,1.506-.5,3.014c-.035.205-.066.407-.1.612q-.93,5.838-1.647,11.709-.043.332-.081.663-.666,5.445-1.2,10.9c-.021.207-.039.413-.06.62-.659,6.7-1.209,13.407-1.746,20.112" transform="translate(-23.745 0)" fill="#e2cec3"/>
                  <path id="Trazado_142838" data-name="Trazado 142838" d="M72.438,104.481v0q.2.489.384.979.18-.893.37-1.783c.044-.211.089-.421.134-.632q1.414-6.592,3.215-13.1.084-.313.174-.627,1.726-6.163,3.8-12.219.1-.309.215-.622,1.675-4.84,3.582-9.593c.081-.205.163-.409.248-.614q1.131-2.8,2.345-5.568-.364.078-.725.128Q85,63.54,83.9,66.286c-.083.2-.163.409-.244.611q-1.739,4.377-3.281,8.825c-.089.258-.18.519-.268.777q-.106.309-.211.62Q77.835,83.2,76.114,89.388c-.06.208-.118.419-.176.628q-1.791,6.5-3.207,13.089c-.045.211-.091.419-.134.63-.054.248-.107.5-.159.746" transform="translate(-42.997 0)" fill="#e2cec3"/>
                  <path id="Trazado_142839" data-name="Trazado 142839" d="M90.944,146.753a.31.31,0,0,0,.62,0q.018-1.457.06-2.913c0-.207.01-.416.018-.622.021-.707.046-1.416.077-2.122-.228.744-.447,1.463-.657,2.175a.269.269,0,0,0-.042.005c0,.051,0,.1,0,.155v.01c-.006.151-.01.3-.014.457q-.041,1.425-.058,2.855" transform="translate(-66.315 0)" fill="#e2cec3"/>
                  <path id="Trazado_142840" data-name="Trazado 142840" d="M49.684,84.034c-11.371,14.714-20.392,32.4-19.175,51.49a47.827,47.827,0,0,0,3.59,15.5c.186.44-.534.633-.717.2-7.579-18.027-2.695-38.281,6.807-54.56a122.948,122.948,0,0,1,8.969-13.157c.292-.378.815.152.526.526" transform="translate(36.913 0)" fill="#110e0a"/>
                  <path id="Trazado_142841" data-name="Trazado 142841" d="M52.849,374.451s4.319,1.76,4.479,7.838,0,21.755,0,21.755h-2.2l-1.195-5.528s-.76,6.008-3.8,9.847-9.6,4-13.917,3.359-1.12-8.638.64-13.117,5.44-15.2,5.44-15.2Z" transform="translate(24.896 0)" fill="#fca133"/>
                  <path id="Trazado_142842" data-name="Trazado 142842" d="M50.088,365.759s-.137,7.413,1.142,8.692,3.04,5.439,1.76,10.558-2.133,12.584-5.119,15.783S37.1,404.1,36.46,401.539s3.946-12.051,4.159-16.957,1.067-18.129,1.067-18.129Z" transform="translate(26.514 0)" fill="#c9614d"/>
                  <path id="Trazado_142843" data-name="Trazado 142843" d="M25.525,191.206c.008.3.014.6.023.9.01.345.018.692.029,1.043.008.269.014.538.022.81s.017.569.025.856c.161,5.5.376,11.465.606,17.186.012.306.022.612.035.915l.018.453c.013.283.025.566.035.847.294,7.143.6,13.744.848,18.364.024.494.051.963.076,1.409.01.223.023.442.035.653.273,4.854.682,10.453,1.236,16.687.025.268.049.537.074.807q.119,1.308.244,2.653c.031.325.062.649.093.976v.008q.6,6.18,1.37,13.06s-.046.312-.11.917c-.027.269-.06.6-.093.978-.1,1.184-.223,2.909-.293,5.124-.008.279-.017.566-.023.859-.082,3.416-.039,7.868.335,13.209q.024.348.052.705c0,.039.006.078.008.118q.219,2.91.576,6.151c.037.33.077.663.116,1l0,0q.285,2.445.669,5.064c.207,1.4.445,3.058.711,4.922.035.254.073.512.108.774.473,3.337,1.02,7.275,1.609,11.548.046.339.093.678.139,1.021q.291,2.107.591,4.306c.033.256.068.516.1.775.746,5.483,1.529,11.283,2.285,16.928.056.411.112.822.165,1.233.79,5.889,1.542,11.569,2.191,16.5.035.262.068.523.1.781.225,1.723.438,3.347.632,4.851.046.345.089.684.132,1.017.364,2.816.662,5.151.868,6.824a8.883,8.883,0,0,0,4.812.074c.147-.03.294-.065.442-.1.056-.014.114-.031.172-.045.2-.054.409-.114.611-.18.069-.023.137-.045.2-.07s.134-.048.2-.072a8.7,8.7,0,0,0,2.853-1.67c.056-.521.12-1.072.192-1.657.008-.062.015-.122.023-.184.033-.26.068-.527.1-.8l0-.028c.372-2.837.9-6.3,1.511-10.189.039-.252.078-.506.119-.762.567-3.616,1.195-7.575,1.823-11.715.053-.345.1-.69.157-1.04q.291-1.927.578-3.9c.038-.256.075-.512.112-.77.229-1.6.456-3.213.676-4.833.473-3.494.989-7.653,1.467-12.238.045-.436.09-.874.134-1.318.541-5.36,1.02-11.254,1.314-17.327.012-.281.027-.562.039-.843q.056-1.246.1-2.5c.013-.3.023-.607.031-.913.172-5.24.188-10.548-.031-15.7-.012-.308-.024-.616-.041-.921-.037-.8-.081-1.593-.132-2.385q-.025-.416-.054-.828c-.235-3.395-.585-6.7-1.072-9.829-.172-3.349-.225-5.723-.182-7.612l.006-.2c0-.108.006-.215.01-.318.005-.129.009-.253.015-.376s.008-.224.014-.333c0-.079.009-.157.013-.233a49.811,49.811,0,0,1,1.043-7.042q.881-4.657,1.6-8.895c.042-.254.085-.506.126-.756q.534-3.244.947-6.234l0,0c.045-.343.091-.682.136-1.018q.311-2.365.527-4.567c.132-1.347.407-3.029.734-5.047,0-.017.006-.031.008-.048.031-.186.06-.376.091-.57.008-.048.014-.1.022-.143.507-3.14,1.1-7.035,1.474-11.694.008-.089.014-.178.022-.267.013-.157.025-.316.035-.475.007-.07.013-.142.017-.215q.165-2.268.246-4.766c.01-.285.016-.571.023-.86a118.574,118.574,0,0,0-.451-13.4c-.023-.267-.047-.537-.072-.808q-.291-3.029-.76-6.281c-.05-.345-.1-.69-.155-1.039l0,0c-.451-2.944-1.023-6.023-1.738-9.235q-.078-.36-.161-.721c-.825-3.622-1.829-7.414-3.044-11.377l-5.857,1.064-1.077.2-6.938,1.26-.746.136-15.8,2.87-1.208.219-.569.1c-.181-.381-.312-.007-.4.971-.025.268-.046.584-.062.944-.033.647-.054,1.432-.067,2.339-.047,3.32.027,8.262.174,13.934" transform="translate(26.527 0)" fill="#009580"/>
                  <path id="Trazado_142844" data-name="Trazado 142844" d="M58.758,270.639a17.264,17.264,0,0,1-10.322.511.31.31,0,0,1,.165-.6,16.671,16.671,0,0,0,9.992-.511c.375-.138.537.461.165.6" transform="translate(9.162 0)" fill="#110e0a"/>
                  <path id="Trazado_142845" data-name="Trazado 142845" d="M99.131,181.237S96.112,158,85.251,142.785c0,0-28.112,12.3-50.437,5.625,0,0-7.733,24.488-5.759,60.437,0,0,61.639,12.282,70.076-27.61" transform="translate(-11.517 0)" fill="#009580"/>
                  <path id="Trazado_142846" data-name="Trazado 142846" d="M89.688,397.91c2.121-3.421,21.132-21.655,21.132-21.655s3.886,3.046,3.7,6.4c-.179,3.194-.045,20.006-.092,21.777H112.12l-1.3-7.67s-5.256,8.409-9.2,11.288-17.28,2.362-20.479,1.935,6.428-8.655,8.549-12.076" transform="translate(-78.67 0)" fill="#fca133"/>
                  <path id="Trazado_142847" data-name="Trazado 142847" d="M106.26,367.2l-.305,8.229a9.54,9.54,0,0,1,0,6.079c-1.067,3.625-5.1,9.38-8.958,13.65-3.325,3.683-10.451,7.358-12.584,6.4s4.052-8.318,5.865-12.157A65.878,65.878,0,0,0,94.206,378.6c.994-3.663,1.132-12.278,1.132-12.278Z" transform="translate(-74.052 0)" fill="#c9614d"/>
                  <path id="Trazado_142848" data-name="Trazado 142848" d="M64.884,271.357c.008.087.019.176.027.262.016.137.031.273.047.409,0,.042.011.081.015.122.045.418.1.829.149,1.238q.1.811.208,1.7c.038.325.077.658.114,1,.417,3.767.816,8.414,1.194,13.612.019.273.039.548.058.823.149,2.078.293,4.239.434,6.465q.032.468.06.942c.217,3.444.423,7.031.622,10.688.014.279.031.558.045.839.157,2.9.308,5.851.451,8.8.016.31.031.62.047.93.139,2.869.273,5.741.4,8.58.012.283.025.564.039.845.161,3.647.316,7.232.459,10.687.012.307.027.613.037.919.1,2.351.19,4.637.277,6.833,0,.08.006.161.01.24.007.163.013.326.019.487l.006.12c.18,4.579.339,8.756.473,12.316.007.157.013.31.017.463s.012.306.016.455c.077,1.981.143,3.752.2,5.273.006.144.01.289.016.429,0,.1.009.195.013.29,0,.043,0,.084,0,.128.062,1.6.111,2.878.153,3.768a10.628,10.628,0,0,0,10.366.864l0,0c.074-.033.149-.068.221-.107.045-.021.091-.044.136-.069.075-.039.149-.08.223-.121a7.911,7.911,0,0,0,.891-.565c.4-1.638,1.587-7.673,2.87-14.886q.067-.372.132-.75c.219-1.236.44-2.5.659-3.788q.09-.527.18-1.059c.667-3.949,1.314-8,1.837-11.691.037-.26.072-.518.107-.775.056-.4.112-.8.163-1.188.362-2.69.719-5.616,1.054-8.721l0-.014c.031-.3.064-.6.1-.908,0-.022.006-.043.009-.066.214-2.058.421-4.19.611-6.382.023-.269.046-.541.068-.814.364-4.335.666-8.893.86-13.554.012-.308.025-.614.037-.922q.072-1.85.12-3.719c.008-.287.014-.574.021-.861.109-4.872.093-9.806-.1-14.672,0-.023,0-.046,0-.068-.01-.261-.02-.519-.033-.779-.018-.43-.039-.86-.06-1.29q.218-1.117.43-2.167.018-.1.039-.2c.035-.182.073-.362.108-.54,1.316-6.465,2.477-11.122,3.537-15.674.056-.237.112-.477.167-.714.281-1.215.554-2.428.821-3.672q.12-.555.237-1.118c.312-1.5.618-3.054.916-4.721.351-1.965.795-4.151,1.256-6.473.049-.244.1-.49.144-.736.719-3.643,1.461-7.593,1.936-11.537.042-.333.079-.666.116-1q.159-1.47.263-2.924c.029-.425.057-.878.086-1.355.017-.269.033-.546.052-.831.221-3.9.43-9.242.6-15.106q.014-.451.025-.907c.023-.826.046-1.663.068-2.506.006-.285.013-.572.021-.859.132-5.375.227-10.986.264-16.2,0-.3,0-.593.007-.887s0-.56,0-.836c0-.339,0-.676,0-1.011,0-.295,0-.589,0-.88.012-5.7-.056-10.682-.232-13.992-.045-.812-.1-1.523-.152-2.12-.023-.242-.048-.463-.073-.665l-.117-.027-15.569-3.643-.715-.167-4.9-1.147,0,0-1.151-.268-9.515-2.226-.276-.066h0s0,.017-.007.05c0,.014,0,.035-.008.058-.008.068-.021.163-.035.287-.161,1.26-.674,5.384-1.155,10.11-.029.264-.056.531-.083.8-.349,3.492-.669,7.236-.816,10.356a.11.11,0,0,1,0,.025c-.006.148-.012.295-.019.442s-.014.305-.018.456c-.029.775-.044,1.5-.044,2.164,0,.611-.062,2.291-.165,4.706-.012.273-.025.552-.037.843-.145,3.232-.351,7.56-.587,12.331-.014.308-.031.618-.045.928-.083,1.653-.168,3.351-.252,5.07-.015.279-.029.56-.042.841-.243,4.841-.5,9.81-.729,14.323-.017.312-.031.624-.048.932q-.079,1.559-.154,3.027c-.015.283-.029.56-.044.836v0c-.314,6.113-.552,10.735-.6,11.923-.064,1.455-.118,2.918-.157,4.381,0,.031,0,.06,0,.091-.009.27-.015.543-.021.814-.01.4-.019.795-.025,1.194,0,.291-.01.58-.012.872a142.793,142.793,0,0,0,.63,16.554" transform="translate(-49.961 0)" fill="#009580"/>
                  <g id="Grupo_162083" data-name="Grupo 162083" transform="translate(14.293 145.426)" opacity="0.5">
                    <g id="Grupo_162082" data-name="Grupo 162082">
                      <g id="Grupo_162081-2" data-name="Grupo 162081" clip-path="url(#clip-path-3)">
                        <path id="Trazado_142849" data-name="Trazado 142849" d="M61.683,209.854l1.223,1.225c-.008.287-.014.575-.021.86L60.9,209.951c.26-.029.523-.062.785-.1M77.776,366.609l6.864,6.864,3.756-3.756,0,.028c-.035.273-.07.541-.1.8-.008.061-.014.121-.023.184l-3.186,3.185.141.14c-.068.026-.135.05-.2.073l-.2.071q-.3.1-.612.179l-.171.046c-.149.034-.3.069-.442.1l.609-.61-6.289-6.289c-.044-.332-.087-.672-.133-1.017M61.683,209.854l1.223,1.225c-.008.287-.014.575-.021.86L60.9,209.951c.26-.029.523-.062.785-.1M25.37,254.8c0-.291.008-.58.013-.872l9.02,9.023,9.606-9.607L34.4,243.741l-9,9c.006-.27.013-.543.021-.814,0-.031,0-.06,0-.091l8.533-8.533-7.773-7.771v0c.015-.277.029-.554.044-.837l8.169,8.17,9.606-9.606L34.4,223.646l-8.014,8.016c.016-.308.031-.62.047-.932l7.527-7.524-6.8-6.8c.012-.281.027-.562.041-.841l7.2,7.2,9.606-9.6L34.4,203.552,27.459,210.5c.014-.31.031-.62.045-.928l6.459-6.459-5.669-5.667-.2-.2c.013-.291.025-.57.037-.843L34.4,202.67l9.606-9.606L34.4,183.457l-5.971,5.973-.095.1c0-.151.013-.3.019-.457s.012-.293.018-.442a.1.1,0,0,0,0-.025l.091-.091,5.5-5.494-4.77-4.77-.054-.052c.027-.271.052-.539.076-.808l5.188,5.188,9.606-9.6L34.4,163.363l-3.981,3.982c.014-.1.029-.2.043-.3,0-.022.006-.043.009-.058l.006-.049h0q.046-.319.093-.633l3.388-3.388-2.407-2.407c.046-.252.093-.5.139-.743L34.4,162.48l9.606-9.607-3.031-3.031c.339.05.678.1,1.019.136l2.454,2.455,2.089-2.089c.283.013.568.023.851.031l-2.5,2.5L54.5,162.48l9.606-9.607-3.391-3.39.762-.118,3.069,3.068,4.609-4.61c.4-.1.785-.189,1.17-.287l-5.337,5.337,9.6,9.607,9.606-9.607-7.232-7.231.668-.215,7.006,7.006,3.8-3.795c.105.19.206.38.308.572l-3.664,3.663,8.963,8.963c.184.552.362,1.1.531,1.639l-4.758,4.758-4.736,4.736,9.608,9.6,4.029-4.029q.084.363.161.721l-.419.422-3.331,3.328,2.42,2.42,3.068,3.066,0,0c.054.349.105.694.155,1.04l-3.453-3.455-2.632-2.632-9.608,9.607,4.788,4.788,4.82,4.818,6.845-6.845c.025.27.05.541.073.808l-6.478,6.477,6.928,6.928c-.006.289-.012.574-.023.859l-7.345-7.345-9.608,9.606,9.608,9.6,7.1-7.1c0,.072-.01.145-.016.215-.011.159-.023.318-.035.475-.009.089-.015.178-.023.267l-6.585,6.585,5.112,5.109c-.009.048-.015.1-.023.143-.031.194-.06.384-.091.57,0,.016-.006.031-.008.047l-5.43-5.429-9.608,9.607,9.608,9.606,4.169-4.17c-.045.337-.091.676-.136,1.019l0,0L95.128,243.3l2.645,2.645c-.042.25-.085.5-.126.756l-2.959-2.959-9.608,9.606,9.608,9.607.316-.318-.012.234c-.006.109-.011.219-.015.332s-.01.248-.014.375c0,.107-.009.212-.011.319l-.006.2-.258-.258-9.608,9.6,9.608,9.606,1.512-1.512c.019.274.038.551.054.828l-1.126,1.126,1.258,1.257c.017.306.029.615.042.923l-1.74-1.74-9.608,9.6,9.608,9.608,1.771-1.773c-.009.3-.019.609-.031.914l-1.3,1.3,1.2,1.2c-.012.281-.026.561-.039.843l-1.6-1.6-9.608,9.606,9.608,9.606.285-.286c-.043.445-.089.883-.134,1.319l-.151-.152-9.608,9.607L92.7,341.34q-.055.387-.111.771l-7.945-7.944-9.6,9.6,9.6,9.609,7.366-7.368c-.052.349-.1.694-.157,1.039L85.08,353.82l4.947,4.946c-.042.257-.081.511-.12.763l-5.267-5.267-7.5,7.5c-.035-.259-.068-.518-.1-.781L84.2,353.82l-9.347-9.347q-.081-.618-.166-1.235l9.513-9.513-9.606-9.607L72.4,326.311c-.037-.259-.072-.518-.105-.775l1.857-1.858L71.7,321.23c-.046-.343-.093-.681-.139-1.02l3.027,3.027,9.606-9.606-9.606-9.606-4.636,4.636c-.035-.262-.072-.52-.108-.775l4.3-4.3L68.468,297.9l0,0c-.039-.335-.078-.669-.116-1l6.242,6.245,9.606-9.608-9.606-9.6-6.818,6.817c0-.038-.006-.077-.008-.116-.019-.238-.035-.473-.052-.706l6.438-6.435-6.773-6.773q.011-.439.023-.86l7.19,7.191,9.606-9.606-9.606-9.6-6.9,6.9c.034-.383.067-.709.093-.978l6.364-6.362-7.624-7.624-.093-.975,8.157,8.159,9.606-9.607-9.606-9.606-8.4,8.4q-.036-.405-.074-.808l8.035-8.033-9.306-9.306c-.024-.446-.051-.915-.076-1.409l9.382-9.38L64.545,213.6l-.622.622c-.011-.281-.023-.564-.035-.847l.217-.217-.236-.236c-.012-.3-.023-.609-.035-.915l.711.711,9.607-9.608L64.545,193.5l-9.606,9.606,6.744,6.744,1.223,1.225c-.008.287-.014.575-.021.86L54.5,203.552l-7.066,7.064-2.542,2.542,9.608,9.6,8.318-8.318c-.008.3-.016.6-.025.907l-7.853,7.854,7.252,7.252q-.027.428-.051.83L54.5,223.646l-9.608,9.607,9.608,9.606,7.291-7.292c-.037.331-.074.664-.115,1L54.939,243.3l4.8,4.8c-.048.246-.1.491-.145.735l-5.095-5.1-9.608,9.606,9.608,9.607,2.924-2.923c-.079.376-.157.748-.238,1.117l-2.246,2.246,1.426,1.426-.168.715-1.7-1.7-9.608,9.6,7.769,7.767c-.035.178-.072.357-.107.538-.015.067-.027.133-.04.2l-8.062-8.065-9.6,9.608,9.6,9.6,7.692-7.692c.013.26.023.519.034.779,0,.022,0,.046,0,.068l-7.288,7.285,7.387,7.387q-.009.431-.021.862l-7.806-7.806-9.6,9.6,9.6,9.606,7.686-7.685c-.012.308-.024.614-.037.921l-7.209,7.207,6.35,6.348c-.023.272-.046.544-.069.814l-6.721-6.722-9.6,9.607,9.6,9.607,6.11-6.111c0,.024,0,.043-.008.067-.031.3-.065.608-.1.906l0,.015-5.564,5.563,4.347,4.347c-.035.255-.07.513-.107.774l-4.68-4.679-9.6,9.6,9.6,9.609,2.843-2.844q-.09.532-.179,1.06l-2.224,2.224,1.564,1.563c-.043.254-.086.5-.132.75l-1.872-1.871-9.6,9.606,7.717,7.717c-.075.041-.149.082-.224.121a1.335,1.335,0,0,1-.136.069c-.072.039-.146.075-.221.108l0,0L34.4,364.307l-2.944,2.944c0-.043,0-.084,0-.127l-.012-.289c-.007-.14-.011-.286-.017-.431l2.537-2.536-2.737-2.736c-.005-.148-.011-.3-.017-.454s-.01-.306-.016-.464l3.21,3.212,9.606-9.606L34.4,344.214,30.719,347.9l-.006-.119c-.006-.161-.012-.325-.018-.489,0-.078-.007-.158-.011-.239l3.279-3.28-3.556-3.552c-.01-.306-.024-.612-.037-.92l4.033,4.032,9.606-9.606L34.4,324.118l-4.491,4.495c-.015-.282-.027-.563-.04-.845l4.091-4.09-4.492-4.491c-.016-.31-.03-.621-.047-.93l4.979,4.98,9.606-9.606L34.4,304.025l-5.43,5.43c-.014-.281-.03-.559-.045-.838l5.035-5.035-5.657-5.655c-.018-.315-.039-.629-.06-.941l6.157,6.157,9.606-9.608-9.606-9.6-6.591,6.591c-.018-.276-.039-.55-.057-.822l6.208-6.209-7.4-7.4c-.037-.34-.076-.672-.113-1l7.956,7.958,9.606-9.606-9.606-9.6-8.314,8.314c0-.041-.01-.081-.014-.122-.017-.136-.031-.273-.048-.409-.008-.087-.018-.176-.027-.262l7.963-7.964Zm9.476-71.787,9.6,9.606,9.606-9.606-9.606-9.6Zm9.6-29.7-9.6,9.606,6.578,6.581,0,0,3.025,3.025,1.878-1.879,7.728-7.729Zm2.593,17.5-2.153,2.151,9.608,9.6,9.606-9.6L54.5,163.363Zm17.5-17.5-9.606,9.606,9.606,9.608,9.607-9.608ZM65.26,172.7l-.273.273,9.6,9.6,9.606-9.6-3.143-3.143-6.463-6.463Zm23.479-4.267,5.507-5.508-9.606-9.606-9.6,9.606,6.766,6.768,2.839,2.84Zm5.507,14.587-9.606-9.6-9.6,9.6,9.6,9.606Zm0,20.094-4.825-4.824L84.64,193.5l-9.6,9.606,2.646,2.647,6.959,6.961Zm0,20.1L84.64,213.6l-9.6,9.606,9.6,9.605ZM75.035,323.678l9.6,9.607,9.606-9.607-9.606-9.607Zm0-20.1,9.6,9.606,9.606-9.606-9.606-9.6Zm0-20.092,9.6,9.6,9.606-9.6-9.606-9.608Zm0-20.1L84.64,273l9.606-9.606-9.606-9.6Zm9.6-10.487,9.606-9.608-9.606-9.606-9.6,9.608ZM64.987,233.253l9.6,9.606,9.606-9.606-9.606-9.607Zm4.822-24.918-4.822,4.823,9.6,9.6,9.606-9.6-9.606-9.606Zm4.783-5.665,9.606-9.606-9.606-9.607-9.6,9.607Zm-.44-19.654-9.607-9.6-9.606,9.6,8.19,8.191.058.058,1.358,1.357ZM64.1,193.064l-.953-.952L54.5,183.457l-9.608,9.607L54.5,202.67ZM46.567,210.6l7.49-7.492L44.451,193.5l-9.6,9.606,7.312,7.312,2.293,2.3Zm7.49,12.6L44.451,213.6l-9.6,9.606,9.6,9.605Zm0,20.095-9.606-9.608-9.6,9.606,9.6,9.608ZM44.451,273l9.606-9.606-9.606-9.6-9.6,9.6Zm17.232-63.146,1.223,1.225c-.008.287-.014.575-.021.86L60.9,209.951c.26-.029.523-.062.785-.1" transform="translate(-25.371 -145.426)" fill="#13ccae"/>
                      </g>
                    </g>
                  </g>
                  <path id="Trazado_142850" data-name="Trazado 142850" d="M97.676,167.838a48.844,48.844,0,0,1-6.026,7.549c-.335.344-.861-.182-.526-.526a47.851,47.851,0,0,0,5.91-7.4c.259-.4.9-.028.642.375" transform="translate(-72.406 0)" fill="#110e0a"/>
                  <path id="Trazado_142851" data-name="Trazado 142851" d="M71.731,196.005a11.1,11.1,0,0,1-4.218-2.929,18.716,18.716,0,0,1-4.139-5.966c-.184-.436.456-.815.642-.375a18.126,18.126,0,0,0,3.815,5.606,10.657,10.657,0,0,0,4.1,2.947c.456.139.261.858-.2.717" transform="translate(-19.182 0)" fill="#110e0a"/>
                  <path id="Trazado_142852" data-name="Trazado 142852" d="M100.622,275.748a9.881,9.881,0,0,1-9.429-.56c-.338-.211-.027-.747.313-.535a9.238,9.238,0,0,0,8.8.56c.36-.167.675.367.313.535" transform="translate(-75.482 0)" fill="#110e0a"/>
                  <path id="Trazado_142853" data-name="Trazado 142853" d="M31.862,151.775a132.01,132.01,0,0,1,10.546,41.393c.99,12.17.113,24.36-1.465,36.44-.739,5.652-1.609,11.285-2.427,16.925-1.094,7.542-2.27,15.136-2.417,22.767-.158,8.182,1.182,16.3,1.806,24.439q.9,11.776.767,23.6a310.835,310.835,0,0,1-4.266,45.67q-.492,3.036-1.023,6.067c-.082.471-.8.272-.717-.2a332.755,332.755,0,0,0,5.144-46.344q.375-11.46-.261-22.924c-.445-8.067-1.594-16.069-2.063-24.13-.467-8.04.492-15.994,1.58-23.946.779-5.7,1.662-11.378,2.469-17.07,1.673-11.806,2.913-23.7,2.465-35.637a128.307,128.307,0,0,0-8.426-40.881q-1.114-2.924-2.354-5.8c-.187-.436.453-.815.642-.376" transform="translate(42.335 0)" fill="#110e0a"/>
                  <path id="Trazado_142854" data-name="Trazado 142854" d="M85.936,194.879a327.687,327.687,0,0,1-8.527,65.337c-1.474,6.085-3.476,12.05-4.812,18.163-1.389,6.357-1.03,12.784-.721,19.232a225.075,225.075,0,0,1-1.16,37.436c-.691,5.778-1.743,11.5-2.336,17.293-.5,4.82-1.024,9.618-1.783,14.406-.075.471-.791.271-.717-.2.7-4.418,1.221-8.847,1.664-13.3.464-4.655,1.187-9.261,1.858-13.89a221.491,221.491,0,0,0,1.89-37.654c-.169-6.377-.921-12.815-.158-19.179.711-5.932,2.745-11.623,4.261-17.377a290.035,290.035,0,0,0,6.974-35.768c1.517-11.445,2.407-22.967,2.823-34.5.017-.477.761-.479.744,0" transform="translate(-35.463 0)" fill="#110e0a"/>
                  <path id="Trazado_142855" data-name="Trazado 142855" d="M91.536,140.907a11.4,11.4,0,0,1,3.7,9.578c.333.6-22.566,13.733-55.984,4.742A16.56,16.56,0,0,1,42.4,144.383s29.44,7.579,49.132-3.476" transform="translate(-18.114 0)" fill="#005f53"/>
                  <path id="Trazado_142856" data-name="Trazado 142856" d="M38.219,163.433a39.916,39.916,0,0,0,10.8,15.862c.358.32-.17.845-.526.526A40.7,40.7,0,0,1,37.5,163.631c-.167-.45.552-.644.717-.2" transform="translate(29.736 0)" fill="#110e0a"/>
                  <path id="Trazado_142857" data-name="Trazado 142857" d="M73.644,35.459l2.368,12.962s-1.773,1.659-6.309.4l3.258-13.349Z" transform="translate(-29.367 0)" fill="#fff"/>
                  <path id="Trazado_142858" data-name="Trazado 142858" d="M74.386,27.884A3.071,3.071,0,0,0,71.861,30.8c-.4,2.717.987,7.243,3.733,6.676s-1.208-9.588-1.208-9.588" transform="translate(-32.01 0)" fill="#722324"/>
                  <line id="Línea_379" data-name="Línea 379" y2="0.002" transform="translate(49.984 48.939)" fill="#c9614d"/>
                  <path id="Trazado_142859" data-name="Trazado 142859" d="M66.715,56.364a22.128,22.128,0,0,1-11.621,8.2c-9.971,2.863-11.268-2.835-11.268-2.835a19.141,19.141,0,0,0,.781-4.189c.042-.552.066-1.119.07-1.7a46.3,46.3,0,0,0-.323-5.366c-.051-.473-.108-.964-.171-1.47l-.006-.06c6.986-1.695,12.692-4.829,16.581-10.011L61.8,38.3l.7-.428.132.407-.127,1.3c-.613,6.115.793,11.17,4.2,16.785" transform="translate(5.807 0)" fill="#c9614d"/>
                  <path id="Trazado_142860" data-name="Trazado 142860" d="M69.21,55.359c-2.92,6.613-6.081,13.715-12.279,17.909-2.65,1.793-6.3,3.346-9.509,2.237-2.683-.929-4.319-3.626-4.9-6.283-.9-4.116.641-8.254,2.082-12.052.168-.444.887-.251.717.2C44.095,60.6,42.791,64,43.026,67.521c.184,2.763,1.522,5.881,4.171,7.1,3.159,1.449,7.009-.339,9.623-2.174a24.976,24.976,0,0,0,6.482-7.03,74.973,74.973,0,0,0,5.266-10.429c.193-.437.834-.059.642.375" transform="translate(4.848 0)" fill="#110e0a"/>
                  <path id="Trazado_142861" data-name="Trazado 142861" d="M66.357,44.333C64.9,47.681,61.5,53.6,55.093,55.838a46.345,46.345,0,0,0-.323-5.367C54.719,50,54.662,49.508,54.6,49c.138.015.28.026.421.033,3.812.232,7.942-1.755,11.337-4.7" transform="translate(-4.608 0)" fill="#181709"/>
                  <path id="Trazado_142862" data-name="Trazado 142862" d="M76.684,27.748c.26,3.79-2.629,8.65-7.576,9.127l-.026,0h0l-.105.012c-.065.223-.143.443-.225.668-.034.1-.071.2-.109.293a.107.107,0,0,1-.012.027c-2.645,6.65-11.558,11.067-16.51,11.542a11.375,11.375,0,0,1-3.374-.2c-5.337-.781-6.809-7.819-6.357-13.307a20.851,20.851,0,0,1,.314-2.266l.03-.146s-2.284-7.476-2.924-10.762c-1.238-6.369,2-13.149,16-15.4S73.783,13.6,75.091,18.167c.22.761.381,5.377-.339,6.172a3.768,3.768,0,0,1,1.932,3.409" transform="translate(0.082 0)" fill="#c9614d"/>
                  <path id="Trazado_142863" data-name="Trazado 142863" d="M69.52,30.5c.142.927.647,1.62,1.129,1.546s.758-.885.616-1.813-.647-1.62-1.129-1.546-.758.885-.616,1.813" transform="translate(-24.437 0)" fill="#181709"/>
                  <path id="Trazado_142864" data-name="Trazado 142864" d="M72.978,29.466a.249.249,0,0,0,.027-.442c-.1-.058-2.443-1.408-4.321.127a.249.249,0,0,0,.315.385c1.611-1.319,3.733-.1,3.754-.084a.246.246,0,0,0,.225.014" transform="translate(-25.372 0)" fill="#181709"/>
                  <path id="Trazado_142865" data-name="Trazado 142865" d="M61.415,29.4c.142.927.647,1.62,1.129,1.546s.758-.885.616-1.813-.648-1.62-1.13-1.546-.757.885-.615,1.813" transform="translate(-8.227 0)" fill="#181709"/>
                  <path id="Trazado_142866" data-name="Trazado 142866" d="M64.374,28.653a.248.248,0,0,0,.082-.435c-.09-.07-2.244-1.706-4.3-.42a.248.248,0,1,0,.263.421c1.767-1.1,3.715.377,3.734.392a.252.252,0,0,0,.222.042" transform="translate(-8.243 0)" fill="#181709"/>
                  <path id="Trazado_142867" data-name="Trazado 142867" d="M70.542,36.833s-.007,4.449-3.722,4.872a3.836,3.836,0,0,1-4.308-3.212Z" transform="translate(-16.706 0)" fill="#fff"/>
                  <path id="Trazado_142868" data-name="Trazado 142868" d="M65.562,43.338a2,2,0,0,0,1.1-.747.336.336,0,0,0-.558-.375,1.361,1.361,0,0,1-1.449.467.336.336,0,0,0-.152.655,2.183,2.183,0,0,0,1.06,0" transform="translate(-14.611 0)" fill="#722324"/>
                  <path id="Trazado_142869" data-name="Trazado 142869" d="M75.853,24.34a8.241,8.241,0,0,0-1.132.212,8.373,8.373,0,0,0-4.8,3.683c-.2-1.287-1.579-7.194-10.2-8.165-.123-.013-.256-.026-.394-.037a7.355,7.355,0,0,1-.95-3.7c.859-3.506-16.023-1.726-16.59,3.656-.237,2.255-.364,3.724-.432,4.677v0a9.266,9.266,0,0,0-.06,1.751s-1.49,1.552-1.615-5.86a10.064,10.064,0,0,1,2.5-6.612c3.369-4.095,9.766-7.031,16.84-7.937,10.473-1.341,18.106,9.664,18.607,13.68s-1.77,4.651-1.77,4.651" transform="translate(-1.02 0)" fill="#181709"/>
                  <g id="Grupo_162086" data-name="Grupo 162086" transform="translate(42.469 33.642)" opacity="0.5">
                    <g id="Grupo_162085" data-name="Grupo 162085" transform="translate(0)">
                      <g id="Grupo_162084" data-name="Grupo 162084" transform="translate(0)" clip-path="url(#clip-path-4)">
                        <path id="Trazado_142870" data-name="Trazado 142870" d="M73.879,34.623c.028.564-1.178,1.095-2.808,1.285a20.914,20.914,0,0,1,.315-2.266c1.423.083,2.468.467,2.493.981" transform="translate(-71.071 -33.642)" fill="#722324"/>
                      </g>
                    </g>
                  </g>
                  <path id="Trazado_142871" data-name="Trazado 142871" d="M68.969,36.175a.439.439,0,0,1-.237-.042l-2.008-1a.431.431,0,0,1-.053-.74,6.194,6.194,0,0,0,2.593-4.55.43.43,0,0,1,.851.126,7.165,7.165,0,0,1-2.389,4.7l1.389.689a.43.43,0,0,1-.146.813" transform="translate(-20.256 0)" fill="#722324"/>
                  <path id="Trazado_142872" data-name="Trazado 142872" d="M58.819,25.63a1.045,1.045,0,0,1-1.544-1.352,3.037,3.037,0,0,1,1.691-1.29,7.581,7.581,0,0,1,6.672.989s-4.023.134-5.826,1.031a5.928,5.928,0,0,0-.993.622" transform="translate(-6.409 0)" fill="#181709"/>
                  <path id="Trazado_142873" data-name="Trazado 142873" d="M74.613,26.374a1.045,1.045,0,0,0,1.145-1.7,3.03,3.03,0,0,0-1.965-.814c-3.931-.272-4.921,2.312-4.921,2.312a13.875,13.875,0,0,1,4.622-.142,5.789,5.789,0,0,1,1.119.346" transform="translate(-28.602 0)" fill="#181709"/>
                  <g id="Grupo_162089" data-name="Grupo 162089" transform="translate(54.035 32.735)" opacity="0.5">
                    <g id="Grupo_162088" data-name="Grupo 162088" transform="translate(0)">
                      <g id="Grupo_162087" data-name="Grupo 162087" transform="translate(0)" clip-path="url(#clip-path-5)">
                        <path id="Trazado_142874" data-name="Trazado 142874" d="M55.161,34.1c.032.643,1.66,1.083,3.634.983s3.549-.7,3.517-1.346-1.66-1.082-3.635-.982-3.549.7-3.516,1.345" transform="translate(-55.16 -32.735)" fill="#722324"/>
                      </g>
                    </g>
                  </g>
                  <path id="Trazado_142875" data-name="Trazado 142875" d="M50.782,36.875l-.026,0h0l-.1.011c-.064.224-.142.444-.224.669-.035.1-.072.2-.11.293a.107.107,0,0,1-.012.027,4.553,4.553,0,0,1-1.966-.626,3.61,3.61,0,0,1-1.085-1.025.513.513,0,0,1,.841-.588,2.759,2.759,0,0,0,1.293.984,3.752,3.752,0,0,0,.912.218,4.651,4.651,0,0,0,.484.034" transform="translate(18.407 0)" fill="#722324"/>
                  <path id="Trazado_142876" data-name="Trazado 142876" d="M43.133,33.951a.512.512,0,0,0,.391-.437c.438-3.612,4.586-5.448,4.627-5.466a.513.513,0,0,0-.4-.942c-.193.083-4.731,2.082-5.239,6.284a.512.512,0,0,0,.626.561" transform="translate(25.384 0)" fill="#722324"/>
                  <path id="Trazado_142877" data-name="Trazado 142877" d="M46.474,31.655a.5.5,0,0,0,.179-.081.513.513,0,0,0,.121-.715,3.521,3.521,0,0,0-3.193-1.315.513.513,0,0,0,.112,1.02,2.49,2.49,0,0,1,2.245.889.514.514,0,0,0,.536.2" transform="translate(26.354 0)" fill="#722324"/>
                  <path id="Trazado_142878" data-name="Trazado 142878" d="M52.56,44.03c-2.792,2.063-5.644,3.151-8.727.447a26.222,26.222,0,0,1,2.185-12.466c2.457-4.817-1.832-10.755-1.832-10.755,2.733,1.131,5.759,1.1,7.383,4.3-2.71,3.128-1.018,11.62.991,18.478" transform="translate(20.016 0)" fill="#181709"/>
                  <path id="Trazado_142879" data-name="Trazado 142879" d="M41.541,33.979,46.1,46.343s-1.462,1.938-6.148,1.471l.921-13.71Z" transform="translate(30.3 0)" fill="#fff"/>
                  <path id="Trazado_142880" data-name="Trazado 142880" d="M1.351,148.217c-.7-1.627-.19-4.731-1.352-6.27,1.972-1.506,2.822-2.215,4.717-3.8q3.9-3.271,7.568-6.773c2.437-2.332,4.793-4.733,7.032-7.2q1.68-1.848,3.256-3.736l.2-.24c-.117-.461-.247-.944-.391-1.436-.518-1.764-1.2-3.653-1.931-5.553-1.491-3.812-3.248-7.7-5.1-11.563s-3.832-7.729-5.869-11.566q-1.527-2.88-3.1-5.736L4.788,81.5l-.8-1.411L3.2,78.718l-.055-.1a9.146,9.146,0,1,1,15.863-9.107l.876,1.524.844,1.491,1.659,2.98q1.647,2.985,3.247,6c2.132,4.017,4.206,8.077,6.2,12.223s3.906,8.374,5.656,12.844c.87,2.248,1.7,4.544,2.439,7.047.367,1.255.712,2.56,1,3.992a28.008,28.008,0,0,1,.587,4.974,8.9,8.9,0,0,1-2.114,6l-.048.057c-.094.106-.129.138-.189.2l-.152.152-.286.284-.55.532q-.544.518-1.082,1.007c-.716.66-1.432,1.295-2.151,1.917q-2.157,1.867-4.353,3.61c-2.929,2.329-5.923,4.527-8.97,6.623s-6.154,4.079-9.314,5.956q-4.188,2.49-8.487,4.731c-.869-1.789-1.684-3.6-2.475-5.43" transform="translate(74.824 0)" fill="#c9614d"/>
                  <path id="Trazado_142881" data-name="Trazado 142881" d="M18.691,118.889a10.557,10.557,0,0,0-6.984,1.556c-.377.236-.763-.337-.385-.574a11.321,11.321,0,0,1,7.5-1.66c.441.055.306.733-.133.678" transform="translate(86.086 0)" fill="#722324"/>
                  <path id="Trazado_142882" data-name="Trazado 142882" d="M17.165,116.016l-3.132,3.13c-.313.313-.834-.142-.518-.457l3.132-3.13c.313-.313.834.142.518.457" transform="translate(85.668 0)" fill="#722324"/>
                  <path id="Trazado_142883" data-name="Trazado 142883" d="M92.456,137.977s-4.064-.162-4.647,2.769,4.095,8.212,5.863,9.954,1.214-4.078-.281-6.2a5.522,5.522,0,0,1-1.243-3.706Z" transform="translate(-66.186 0)" fill="#c9614d"/>
                  <path id="Trazado_142884" data-name="Trazado 142884" d="M95.427,147.568s-4.373-.271-4.955,2.659,4.095,8.212,5.862,9.954,1.214-4.078-.28-6.2-1.047-3.449-1.047-3.449Z" transform="translate(-71.511 0)" fill="#c9614d"/>
                  <path id="Trazado_142885" data-name="Trazado 142885" d="M97.1,151.968s-3.863-.24-4.377,2.349,3.617,7.254,5.178,8.793,1.073-3.6-.247-5.477-.925-3.047-.925-3.047Z" transform="translate(-75.2 0)" fill="#c9614d"/>
                  <path id="Trazado_142886" data-name="Trazado 142886" d="M93.732,142.882s-4.373-.272-4.956,2.659,4.1,8.212,5.864,9.954,1.213-4.078-.281-6.2-1.047-3.449-1.047-3.449Z" transform="translate(-68.12 0)" fill="#c9614d"/>
                  <path id="Trazado_142887" data-name="Trazado 142887" d="M37.881,141.384s4.487-.471,5.317,2.4-3.382,8.531-5,10.416-1.556-3.959-.247-6.2a5.519,5.519,0,0,0,.924-3.8Z" transform="translate(36.06 0)" fill="#c9614d"/>
                  <path id="Trazado_142888" data-name="Trazado 142888" d="M34.574,150.774s4.334-.642,5.164,2.228-3.382,8.53-4.995,10.417-1.557-3.96-.248-6.2.749-3.526.749-3.526Z" transform="translate(42.981 0)" fill="#c9614d"/>
                  <path id="Trazado_142889" data-name="Trazado 142889" d="M32.682,154.987s3.828-.567,4.561,1.968-2.987,7.535-4.412,9.2-1.375-3.5-.219-5.478.662-3.114.662-3.114Z" transform="translate(47.258 0)" fill="#c9614d"/>
                  <path id="Trazado_142890" data-name="Trazado 142890" d="M36.663,146.25s4.334-.643,5.164,2.228-3.382,8.53-4.995,10.416-1.557-3.959-.248-6.2.749-3.526.749-3.526Z" transform="translate(38.803 0)" fill="#c9614d"/>
                  <path id="Trazado_142891" data-name="Trazado 142891" d="M48.674,368.477a13.171,13.171,0,0,1-9.53,1.307c-.465-.111-.268-.829.2-.717a12.389,12.389,0,0,0,8.956-1.232c.419-.233.795.409.376.642" transform="translate(28.611 0)" fill="#110e0a"/>
                  <path id="Trazado_142892" data-name="Trazado 142892" d="M95.626,365.856A12.386,12.386,0,0,1,82.9,365.7c-.406-.253-.033-.9.375-.642a11.634,11.634,0,0,0,11.977.16.372.372,0,0,1,.375.642" transform="translate(-62.181 0)" fill="#110e0a"/>
                </g>
              </g>
            </g>
          </g>
        </g>
      </g>
      <path id="Unión_15" data-name="Unión 15" d="M25.045,66.338l2.1-7.8H22.938A22.8,22.8,0,0,1,0,35.869v-13.2A22.8,22.8,0,0,1,22.938,0H72A22.8,22.8,0,0,1,94.944,22.666v13.2A22.8,22.8,0,0,1,72,58.535H36.033l-7.6,9.483a1.88,1.88,0,0,1-1.491.737A1.922,1.922,0,0,1,25.045,66.338Z" transform="translate(35.225 18)" fill="#fff7da" stroke="rgba(0,0,0,0)" stroke-miterlimit="10" stroke-width="1"/>
      <path id="Trazado_142983" data-name="Trazado 142983" d="M36.42.732,31.381,5.771,26.387.732l4.994-4.994Zm-18.7,0L12.676,5.771,7.682.732l4.994-4.994Zm-18.7,0L-6.029,5.771-11.023.732l4.994-4.994Z" transform="translate(70.022 51.263)" fill="#12263f"/>
    </g>
  </g>
</svg>
