<svg xmlns="http://www.w3.org/2000/svg" xmlns:xlink="http://www.w3.org/1999/xlink" width="90" height="90" viewBox="0 0 90 90">
  <defs>
    <clipPath id="clip-path">
      <rect id="Rectángulo_38859" data-name="Rectángulo 38859" width="64.911" height="45.523" fill="none"/>
    </clipPath>
  </defs>
  <g id="Grupo_160002" data-name="Grupo 160002" transform="translate(0.082)">
    <circle id="Elipse_4780" data-name="Elipse 4780" cx="45" cy="45" r="45" transform="translate(-0.082 0)" fill="#c4d1ff"/>
    <g id="Grupo_162159" data-name="Grupo 162159" transform="translate(12.918 22)">
      <g id="Grupo_162159-2" data-name="Grupo 162159" clip-path="url(#clip-path)">
        <path id="Trazado_143095" data-name="Trazado 143095" d="M0,27.52a12.618,12.618,0,0,0,.409-1.944,8.183,8.183,0,0,1,1.525-3.3c.176-.206.123-.346.024-.555a8.893,8.893,0,0,1,.095-8.326.7.7,0,0,0-.058-.75,9.09,9.09,0,0,1-.33-7.656,2.981,2.981,0,0,1,2.7-2.119C9.61,2.3,14.844,1.635,20.083,1.006c2.473-.3,4.947-.579,7.416-.9a22.973,22.973,0,0,1,5.681.2Q38.9.986,44.623,1.659q6.194.731,12.387,1.466c2.242.266,4.484.543,6.729.788.6.065,1.035.3,1.121.908a.97.97,0,0,1-.8,1.121.96.96,0,0,0-.614.674,7.66,7.66,0,0,0-.006,5.8,1.064,1.064,0,0,0,.8.727.868.868,0,0,1,.677.888.882.882,0,0,1-.652.97,1.238,1.238,0,0,0-.881.9,7.734,7.734,0,0,0,0,5.506,1.2,1.2,0,0,0,.888.883.857.857,0,0,1,.644.911.876.876,0,0,1-.684.949,2,2,0,0,0-1.447,1.368,12.19,12.19,0,0,0-.849,6.14,9.633,9.633,0,0,0,.965,3.711,1.707,1.707,0,0,0,1.28,1.094A.882.882,0,0,1,64.9,37.5a.988.988,0,0,1-.963.924q-3.111.379-6.223.754c-.817.1-1.634.207-2.454.273-.411.033-.509.211-.5.6.026,1.035-.007,2.071.015,3.105.013.6-.112,1.114-.747,1.307-.617.189-.978-.2-1.308-.65-.609-.832-1.235-1.652-1.911-2.552l-1.877,3.117c-.12.2-.239.4-.363.594a.978.978,0,0,1-1.182.5,1,1,0,0,1-.733-1.058c0-1.14-.015-2.282.01-3.422.009-.389-.071-.49-.483-.437-2.323.3-4.654.539-6.976.845A13.055,13.055,0,0,1,36,41.168c-5.347-.6-10.691-1.241-16.035-1.872-5.2-.614-10.39-1.281-15.6-1.824a3.769,3.769,0,0,1-3.194-2.317A11.507,11.507,0,0,1,.124,31.333c-.012-.1,0-.214-.124-.263Z" transform="translate(0 0)"/>
        <path id="Trazado_143096" data-name="Trazado 143096" d="M17.9,48.054a15.016,15.016,0,0,1-.451-5.7,11.367,11.367,0,0,1,1.165-4.175.548.548,0,0,1,.682-.351c3.851.464,7.7.908,11.556,1.359.481.056.962.119,1.444.176.266.031.364.139.263.418a18.543,18.543,0,0,0-.613,9.788.743.743,0,0,1-.656.128c-4.169-.45-8.334-.928-12.506-1.352a1.451,1.451,0,0,1-.885-.293" transform="translate(-6.231 -13.561)" fill="#fec93a"/>
        <path id="Trazado_143097" data-name="Trazado 143097" d="M81.971,25.9a10.051,10.051,0,0,0,.652,5.691l-4.137.5L67.363,33.423c-2.513.3-5.028.6-7.539.917-.458.058-.592-.264-.729-.561a7.264,7.264,0,0,1-.527-3.962,3.669,3.669,0,0,1,.331-1.407,1.058,1.058,0,0,1,.79-.335c3.368-.425,6.739-.823,10.11-1.223,3.748-.445,7.494-.9,11.242-1.341a1.939,1.939,0,0,1,.629-.034c.22.047.425.116.3.417" transform="translate(-20.977 -9.13)" fill="#e9e9e9"/>
        <path id="Trazado_143098" data-name="Trazado 143098" d="M81.971,11.664a10.231,10.231,0,0,0,.627,5.69c-1.374.171-2.688.34-4,.5Q73,18.52,67.415,19.181q-3.8.455-7.6.927c-.459.058-.591-.269-.727-.564a7.278,7.278,0,0,1-.524-3.959,3.671,3.671,0,0,1,.33-1.405,1.06,1.06,0,0,1,.79-.336c3.368-.424,6.74-.822,10.11-1.222,3.748-.445,7.494-.9,11.242-1.341a1.938,1.938,0,0,1,.629-.033c.219.046.426.115.3.416" transform="translate(-20.977 -4.027)" fill="#e9e9e9"/>
        <path id="Trazado_143099" data-name="Trazado 143099" d="M20.361,9.387q4.644.545,9.288,1.09c3.055.362,6.108.734,9.162,1.1,1.234.146,2.47.279,3.7.423.31.036.616.093.974.148a10.06,10.06,0,0,0-.513,6.059.875.875,0,0,1-.777.148c-4.412-.536-8.828-1.04-13.241-1.566-2.28-.271-4.559-.55-6.841-.8a1.659,1.659,0,0,1-.947-.3,10.108,10.108,0,0,1-.149-3.734c.107-.906,0-1.182-.736-1.6a1.105,1.105,0,0,1,.075-.956" transform="translate(-7.244 -3.366)" fill="#5e5ee9"/>
        <path id="Trazado_143100" data-name="Trazado 143100" d="M4.993,27.432a7.445,7.445,0,0,1,.331-4.885c.191-.459.469-.577.987-.511,3.744.47,7.494.894,11.241,1.335q5.088.6,10.175,1.2c.058.189.158.392-.151.461-.845-.019-1.131.2-1.321,1a11.506,11.506,0,0,0-.123,3.8.774.774,0,0,1-.713.155c-3.373-.4-6.749-.78-10.122-1.172q-4.684-.544-9.37-1.067a1.371,1.371,0,0,1-.935-.316" transform="translate(-1.696 -7.896)" fill="#98dfd3"/>
        <path id="Trazado_143101" data-name="Trazado 143101" d="M75.2,50.483c-.007-1.075.011-2.151-.032-3.225-.019-.477.12-.659.6-.706a.968.968,0,0,0,.924-1.127,1.028,1.028,0,0,0-1.194-.869q-4.3.511-8.6,1.046c-.752.095-1.086.417-1.116.976-.031.58.241.906,1,1.063.275.057.278.181.276.38q-.012,1.8-.021,3.606c-.1.231-.3.273-.515.3-2.424.281-4.845.582-7.268.868a2.1,2.1,0,0,1-2.007-1.146,13.034,13.034,0,0,1,.033-6.111A1.909,1.909,0,0,1,59,44.348c3.517-.441,7.038-.849,10.557-1.271,1.53-.183,3.061-.353,4.588-.555a3.548,3.548,0,0,1,4.223,4.139,4.8,4.8,0,0,1-2.308,3.675c-.258.163-.532.381-.869.147" transform="translate(-20.404 -15.231)" fill="#e9e9e9"/>
        <path id="Trazado_143102" data-name="Trazado 143102" d="M20.582,5c1.578-.194,3.072-.38,4.566-.559,3.349-.4,6.7-.792,10.048-1.2a17.636,17.636,0,0,1,4.229.1q4.019.478,8.037.959,4.647.55,9.3,1.094c1.633.191,3.267.375,4.9.563a.883.883,0,0,1,.5.18c-.786.1-1.57.212-2.356.308-4.185.507-8.376.979-12.555,1.529a20.839,20.839,0,0,1-4.9-.3c-2.7-.276-5.4-.636-8.1-.957q-4.678-.557-9.357-1.109c-1.235-.146-2.472-.28-3.708-.419A.789.789,0,0,1,20.582,5" transform="translate(-7.38 -1.132)" fill="#7070f1"/>
        <path id="Trazado_143103" data-name="Trazado 143103" d="M75.407,49.013a3.63,3.63,0,0,0,2.457-2.094,4.18,4.18,0,0,0,.128-4.108,3.426,3.426,0,0,0-3.435-1.625c-1.216.206-2.448.323-3.673.475q-2.492.308-4.985.608c-1.539.183-3.078.357-4.618.534-.791.091-1.589.142-2.369.285a2.623,2.623,0,0,0-1.417.978,5.957,5.957,0,0,1,.86-2.353,1.428,1.428,0,0,1,1.168-.724q10.836-1.278,21.664-2.6a3.4,3.4,0,0,1,.357,0,15.248,15.248,0,0,0-1.008,4.008,13.833,13.833,0,0,0,1.131,7.529c.235.488.142.575-.364.626-1.825.185-3.645.41-5.464.643-.362.046-.484-.03-.462-.407.035-.589.021-1.18.028-1.771" transform="translate(-20.616 -13.762)" fill="#d9d3d3"/>
        <path id="Trazado_143104" data-name="Trazado 143104" d="M5.138,30.458c2.266.253,4.534.5,6.8.763,2.368.279,4.732.591,7.1.866,2.016.234,4.037.43,6.054.656a5.087,5.087,0,0,0,1.187.114c.083.412.153.828.255,1.236.092.364-.05.443-.384.4q-3.918-.475-7.837-.937-4.077-.48-8.155-.951c-1.192-.139-2.381-.318-3.577-.4a1.287,1.287,0,0,1-1.257-1.024,1.8,1.8,0,0,1-.185-.727" transform="translate(-1.841 -10.921)" fill="#5bd2c6"/>
        <path id="Trazado_143105" data-name="Trazado 143105" d="M49.523,51.531a14.833,14.833,0,0,1-.454-5.89,12.191,12.191,0,0,1,.909-3.734c.134-.331.288-.46.65-.411.836.114,1.676.194,2.515.283.24.026.355.1.224.36a14.733,14.733,0,0,0-.937,9.7.3.3,0,0,1,0,.064c-.2.176-.43.094-.654.088-.561-.017-1.109-.152-1.67-.164a.608.608,0,0,1-.579-.3" transform="translate(-17.563 -14.875)" fill="#fec93a"/>
        <path id="Trazado_143106" data-name="Trazado 143106" d="M3.817,46.463a13.123,13.123,0,0,1,.149-8.8,5.346,5.346,0,0,1,.444-.835,1.086,1.086,0,0,1,1.322-.576,16.2,16.2,0,0,0,1.722.221A17.708,17.708,0,0,0,6.31,40.9a22.42,22.42,0,0,0,.162,5.546c.092.288-.1.411-.316.41a4.048,4.048,0,0,1-2.341-.4" transform="translate(-1.123 -12.984)" fill="#fec93a"/>
        <path id="Trazado_143107" data-name="Trazado 143107" d="M47.957,32.4a9.331,9.331,0,0,1,.427-4.973c.1-.25.183-.427.534-.382,1.461.19,2.926.344,4.475.521a10.082,10.082,0,0,0-.655,5.337.8.8,0,0,1-.71.166c-1.128-.121-2.253-.28-3.383-.389a1.083,1.083,0,0,1-.688-.281" transform="translate(-17.141 -9.694)" fill="#98dfd3"/>
        <path id="Trazado_143108" data-name="Trazado 143108" d="M18.2,53.776q2.122.234,4.243.466c1.311.142,2.623.278,3.935.421,1.394.153,2.787.314,4.181.466.562.062,1.125.109,1.688.164.14.507.251,1.025.428,1.519.14.392-.009.434-.335.4-1.257-.146-2.514-.277-3.77-.426-3.056-.362-6.11-.747-9.169-1.081-.479-.052-.728-.2-.844-.654a6.328,6.328,0,0,1-.356-1.272" transform="translate(-6.525 -19.282)" fill="#f6921e"/>
        <path id="Trazado_143109" data-name="Trazado 143109" d="M5.229,13.943a7.312,7.312,0,0,1,.155-5.766.591.591,0,0,1,.678-.433c.959.137,1.92.257,2.885.355.315.032.416.14.323.437a13.467,13.467,0,0,0-.34,5.639.192.192,0,0,1-.218.238,14.133,14.133,0,0,1-3.483-.47" transform="translate(-1.689 -2.773)" fill="#5e5ee9"/>
        <path id="Trazado_143110" data-name="Trazado 143110" d="M82.192,25.409c-.056-.341-.319-.293-.541-.265-2.592.326-5.182.672-7.776.988-1.931.235-3.867.423-5.8.654-1.951.233-3.9.505-5.849.736-1.038.123-2.084.176-3.108.4a1.337,1.337,0,0,1,1.317-1.244c3.734-.4,7.462-.86,11.192-1.307,3.31-.4,6.619-.806,9.929-1.207a2.769,2.769,0,0,1,.984-.026l-.35,1.268" transform="translate(-21.198 -8.643)" fill="#d9d3d3"/>
        <path id="Trazado_143111" data-name="Trazado 143111" d="M82.192,11.179c-.056-.341-.319-.292-.541-.265-2.593.326-5.182.672-7.776.988-1.931.235-3.867.423-5.8.654-1.951.233-3.9.505-5.849.736a31.272,31.272,0,0,0-3.108.4,1.339,1.339,0,0,1,1.316-1.245c4.049-.438,8.09-.941,12.134-1.425q4.463-.534,8.924-1.078a3.266,3.266,0,0,1,1.048-.04l-.35,1.271" transform="translate(-21.198 -3.542)" fill="#d9d3d3"/>
        <path id="Trazado_143112" data-name="Trazado 143112" d="M11.579,47.384a14.572,14.572,0,0,1,.65-9.891c.161-.353.341-.554.766-.406a3.229,3.229,0,0,0,.628.06c.208.028.414.076.678.126-.277.929-.639,1.817-.837,2.752a18.429,18.429,0,0,0-.16,6.666c.028.187.033.378.049.567.092.254-.065.386-.266.371a2.786,2.786,0,0,1-1.507-.246" transform="translate(-3.951 -13.281)" fill="#f6921e"/>
        <path id="Trazado_143113" data-name="Trazado 143113" d="M43.2,50.872a15.321,15.321,0,0,1,.5-9.783c.128-.322.322-.375.632-.349,1.393.115,1.4.109,1.017,1.441A19.3,19.3,0,0,0,45.055,51a1.931,1.931,0,0,1-1.858-.126" transform="translate(-15.285 -14.606)" fill="#f6921e"/>
        <path id="Trazado_143114" data-name="Trazado 143114" d="M21.713,19.2q1.868.224,3.734.449c1.225.145,2.451.285,3.676.43,1.266.15,2.532.305,3.8.455,1.246.146,2.493.285,3.739.433,1.7.2,3.4.413,5.105.609.582.067,1.169.1,1.752.149.087.278.173.557.281.908a31.526,31.526,0,0,1-3.264-.328c-2.387-.262-4.771-.552-7.156-.832q-3.452-.405-6.9-.812c-1.255-.149-2.507-.317-3.764-.447-.907-.094-.926-.089-1-1.013" transform="translate(-7.786 -6.884)" fill="#5b52d6"/>
        <path id="Trazado_143115" data-name="Trazado 143115" d="M57.444,56.761c.257.037.377.257.539.415a1.812,1.812,0,0,0,1.719.517c1.216-.212,2.453-.3,3.679-.447,1.285-.16,2.568-.335,3.852-.5.006.526-.012,1.055.028,1.578.029.382-.115.516-.48.557-1.861.208-3.719.434-5.579.654a14.388,14.388,0,0,0-1.564.2,1.058,1.058,0,0,1-1.232-.519,6.638,6.638,0,0,1-.964-2.448" transform="translate(-20.597 -20.345)" fill="#d9d3d3"/>
        <path id="Trazado_143116" data-name="Trazado 143116" d="M18.212,9.189c.2.337-.1.634-.074.956-.913.043-1.16.309-1.273,1.217a18.041,18.041,0,0,0,0,3.854,3.167,3.167,0,0,1-2.341-.255,10.416,10.416,0,0,1,.14-5.6c.119-.392.251-.589.732-.509.931.157,1.876.228,2.815.335" transform="translate(-5.095 -3.168)" fill="#98dfd3"/>
        <path id="Trazado_143117" data-name="Trazado 143117" d="M78.956,49.533c.947-.281,1.012-.235,1.012.721,0,2.551,0,5.1,0,7.747a5.982,5.982,0,0,1-1.1-1.312,1.039,1.039,0,0,0-1.907.124,10.607,10.607,0,0,1-1.031,1.5V55.739a1.79,1.79,0,0,1,.559-.589,6.124,6.124,0,0,0,2.3-4.775c.008-.288-.06-.6.165-.842" transform="translate(-27.226 -17.707)" fill="#c0272d"/>
        <path id="Trazado_143118" data-name="Trazado 143118" d="M78.944,49.617a6.792,6.792,0,0,1-1.536,4.977,5.69,5.69,0,0,1-1.491,1.229c-.006-1.827-.01-3.656-.021-5.484,0-.26.033-.436.358-.462.9-.071,1.793-.171,2.69-.26" transform="translate(-27.214 -17.791)" fill="#ec1c24"/>
        <path id="Trazado_143119" data-name="Trazado 143119" d="M40.348,26.464c.144-.123.1-.309.15-.461.94.106,1.879.225,2.82.312.321.03.449.08.33.448a13.659,13.659,0,0,0-.512,4.869.173.173,0,0,1-.094.205,2.56,2.56,0,0,1-2.058-.443A8.555,8.555,0,0,1,41,27.909a1.169,1.169,0,0,0-.653-1.445" transform="translate(-14.467 -9.324)" fill="#706ff1"/>
        <path id="Trazado_143120" data-name="Trazado 143120" d="M48.042,35.394c1.6.155,3.176.446,4.781.5.128.548.255,1.1.4,1.724-1.548-.186-3.046-.37-4.545-.543a.408.408,0,0,1-.407-.385,5.956,5.956,0,0,1-.228-1.3" transform="translate(-17.226 -12.691)" fill="#5bd2c6"/>
        <path id="Trazado_143121" data-name="Trazado 143121" d="M49.827,57.146a7.988,7.988,0,0,0,1.668.217c.393.088.823.1,1.236.154l.708,2.04c-.926-.1-1.79-.192-2.654-.289-.2-.022-.255-.2-.321-.353a8.438,8.438,0,0,1-.637-1.768" transform="translate(-17.866 -20.491)" fill="#f5921e"/>
        <path id="Trazado_143122" data-name="Trazado 143122" d="M4.2,52.186c.7.085,1.4.178,2.109.25.219.022.482.067.547-.263.153.588.3,1.176.46,1.763.067.25,0,.315-.276.314-1.75-.01-2.275-.38-2.84-2.064" transform="translate(-1.506 -18.707)" fill="#f5921e"/>
        <path id="Trazado_143123" data-name="Trazado 143123" d="M43.515,56.538a16.971,16.971,0,0,0,1.858.126q.23.818.459,1.635c.037.132.145.275-.045.382a2.156,2.156,0,0,1-1.706-.548,6.954,6.954,0,0,1-.566-1.595" transform="translate(-15.603 -20.272)" fill="#ef5a24"/>
        <path id="Trazado_143124" data-name="Trazado 143124" d="M41.342,34.41a3.349,3.349,0,0,0,2.151.238c.079.491.16.982.234,1.474.031.2-.042.326-.274.293l-.185-.029c-1.576-.224-1.576-.224-1.926-1.976" transform="translate(-14.824 -12.338)" fill="#5857db"/>
        <path id="Trazado_143125" data-name="Trazado 143125" d="M5.519,17.411a28.225,28.225,0,0,1,3.31.324c.154.013.287.058.391-.092.3,1.028.3,1.029-.692.919-.648-.072-1.3-.191-1.945-.21a1.021,1.021,0,0,1-1.064-.941" transform="translate(-1.979 -6.242)" fill="#5b52d7"/>
        <path id="Trazado_143126" data-name="Trazado 143126" d="M11.893,53.1a5.14,5.14,0,0,1,1.357.105.279.279,0,0,0,.416-.23c.146.566.282,1.134.443,1.7.093.324-.069.339-.319.346-1.134.032-1.338-.1-1.7-1.193-.078-.237-.134-.482-.2-.723" transform="translate(-4.264 -18.994)" fill="#ef5924"/>
        <path id="Trazado_143127" data-name="Trazado 143127" d="M14.7,18.386l2.341.255c.015.083.03.166.047.249.144.691.126.709-.592.611a2.942,2.942,0,0,0-.625-.085.95.95,0,0,1-1.171-1.03" transform="translate(-5.271 -6.593)" fill="#5bd1c5"/>
      </g>
    </g>
  </g>
</svg>
