<svg id="Grupo_162134" data-name="Grupo 162134" xmlns="http://www.w3.org/2000/svg" xmlns:xlink="http://www.w3.org/1999/xlink" width="60" height="60" viewBox="0 0 60 60">
  <defs>
    <clipPath id="clip-path">
      <rect id="Rectángulo_38892" data-name="Rectángulo 38892" width="33.319" height="47.526" fill="none"/>
    </clipPath>
  </defs>
  <g id="Grupo_159045" data-name="Grupo 159045" transform="translate(0 0)">
    <ellipse id="Elipse_4781" data-name="Elipse 4781" cx="30" cy="30" rx="30" ry="30" transform="translate(0)" fill="#c4d1ff"/>
  </g>
  <g id="Grupo_162282" data-name="Grupo 162282" transform="translate(13.681 6)">
    <g id="Grupo_162280" data-name="Grupo 162280" clip-path="url(#clip-path)">
      <path id="Trazado_143483" data-name="Trazado 143483" d="M1.924,24.33s.693-1.771,2.54,0S3.155,32.417,0,31.956c0,0,.922-5.7,1.924-7.626" transform="translate(28.306 0)" fill="#ed875f"/>
      <path id="Trazado_143484" data-name="Trazado 143484" d="M32.82,22.559c-.709-.9-1.619-1.694-2.311-.462s-.609,8.086,2.737,8.01c0,0,.335-6.577-.426-7.548" transform="translate(-30.162 0)" fill="#ed875f"/>
      <path id="Trazado_143485" data-name="Trazado 143485" d="M1.971,16.4c.076-4.543,2.62-11.09,4.622-13.169s2-1.771,2.617-1.465.156,1.541.156,1.541C11.213,2,16.681-1.545,22.38.763a11.934,11.934,0,0,1,7.977,7.549c1.958,6.084-.274,14.479-.816,17.945-.45,2.907-1.1,9.071-2.1,13.43-.191.837-.4,1.613-.613,2.281-2.054,6.264-10.45,5.773-14.378,5.311-3.708-.435-7.744-1.987-9.46-8.152-.1-.366-.2-.741-.282-1.139C1.126,30.569,1.9,20.943,1.971,16.4m1,9.859c1.078,2.541,6.237,5.7,11.321,6.084s9.857.539,11.629-1.694,3.774-9.7,3.158-13.017-2.7-4.617-6.315-4.7C19.3,12.855,14.6,10.777,11.675,9.7s-5.621,1.079-6.854,3.62S1.9,23.716,2.973,26.257" transform="translate(0.455 0)" fill="#7a625d"/>
      <path id="Trazado_143486" data-name="Trazado 143486" d="M15.334,32.341C10.25,31.957,5.09,28.8,4.013,26.257s.614-10.4,1.847-12.939,3.928-4.7,6.855-3.62,7.625,3.157,11.091,3.235c3.618.08,5.7,1.386,6.314,4.7s-1.387,10.782-3.158,13.017-6.545,2.078-11.628,1.694" transform="translate(-0.584 0)" fill="#ed875f"/>
      <path id="Trazado_143487" data-name="Trazado 143487" d="M4.85,20.2c-.455-.317.309-1.95,3.391-1.95S12.348,20.2,12.09,20.5s-2.1-.564-3.954-.461-2.771.513-3.286.152" transform="translate(16.462 0)" fill="#7a625d"/>
      <path id="Trazado_143488" data-name="Trazado 143488" d="M26.918,19.992c.8-.235-.41-2.311-3.234-2.413s-3.851,1.129-3.7,1.59,1.385.066,3.029.24,3.027.841,3.9.583" transform="translate(-13.812 0)" fill="#7a625d"/>
      <path id="Trazado_143489" data-name="Trazado 143489" d="M16.736,32.064a5.4,5.4,0,0,0,2.6-.419c.248-.292-.08-3.726-.975-10.212a.231.231,0,0,0-.457.064c.479,3.48,1.18,9.141,1.061,9.853a9.661,9.661,0,0,1-3.918.1,1.766,1.766,0,0,1-1.182-.59.23.23,0,1,0-.4.232c.293.5,1.068.815,2.3.928.3.027.63.04.965.04m2.22-.676h0Z" transform="translate(0.468 0)" fill="#1f1f1e"/>
      <path id="Trazado_143490" data-name="Trazado 143490" d="M17.8,36.317a12.848,12.848,0,0,0,2.212-.182.231.231,0,0,0-.085-.454,11.176,11.176,0,0,1-5.58-.445.23.23,0,1,0-.186.421,9.2,9.2,0,0,0,3.639.66" transform="translate(-0.911 0)" fill="#1f1f1e"/>
      <path id="Trazado_143491" data-name="Trazado 143491" d="M1.782,28.491a.232.232,0,0,0,.229-.209,3.843,3.843,0,0,1,1.365-1.949.23.23,0,1,0-.289-.359,4.329,4.329,0,0,0-1.536,2.261.235.235,0,0,0,.209.255h.022" transform="translate(28.306 0)" fill="#1f1f1e"/>
      <path id="Trazado_143492" data-name="Trazado 143492" d="M32.334,26.881h.018a.232.232,0,0,0,.212-.249,6.9,6.9,0,0,0-1.44-3.015.231.231,0,1,0-.358.292A6.582,6.582,0,0,1,32.1,26.668a.234.234,0,0,0,.231.213" transform="translate(-29.959 0)" fill="#1f1f1e"/>
      <path id="Trazado_143493" data-name="Trazado 143493" d="M9.738,28.491a2.953,2.953,0,1,0-2.952-2.954,2.957,2.957,0,0,0,2.952,2.954m0-5.444a2.49,2.49,0,1,1-2.49,2.49,2.493,2.493,0,0,1,2.49-2.49" transform="translate(13.843 0)" fill="#1f1f1e"/>
      <path id="Trazado_143494" data-name="Trazado 143494" d="M21.6,27.992a3.278,3.278,0,1,0-3.276-3.277A3.281,3.281,0,0,0,21.6,27.992m0-6.09a2.815,2.815,0,1,1-2.813,2.813A2.819,2.819,0,0,1,21.6,21.9" transform="translate(-9.88 0)" fill="#1f1f1e"/>
      <path id="Trazado_143495" data-name="Trazado 143495" d="M18.554,25.439a.231.231,0,0,0,.082-.448A11.224,11.224,0,0,0,12.4,24.7a.231.231,0,0,0,.114.448,10.943,10.943,0,0,1,5.955.277.26.26,0,0,0,.082.016" transform="translate(2.305 0)" fill="#1f1f1e"/>
      <path id="Trazado_143496" data-name="Trazado 143496" d="M31.638,24.383a.232.232,0,0,0,.213-.144.229.229,0,0,0-.123-.3l-6.994-2.927a.23.23,0,1,0-.178.425l6.994,2.929a.223.223,0,0,0,.088.018" transform="translate(-22.965 0)" fill="#1f1f1e"/>
      <path id="Trazado_143497" data-name="Trazado 143497" d="M2.442,25.439a.321.321,0,0,0,.079-.014L7.1,23.762a.232.232,0,0,0-.158-.437L2.363,24.99a.232.232,0,0,0,.079.449" transform="translate(23.86 0)" fill="#1f1f1e"/>
      <path id="Trazado_143498" data-name="Trazado 143498" d="M9.4,23.439c0,.976.27,1.766.6,1.766s.6-.79.6-1.766-.268-1.768-.6-1.768-.6.79-.6,1.768" transform="translate(13.324 0)" fill="#1f1f1e"/>
      <path id="Trazado_143499" data-name="Trazado 143499" d="M21.255,22.993c0,.975.271,1.768.6,1.768s.6-.793.6-1.768-.27-1.768-.6-1.768-.6.792-.6,1.768" transform="translate(-10.396 0)" fill="#1f1f1e"/>
    </g>
  </g>
</svg>
