<svg xmlns="http://www.w3.org/2000/svg" xmlns:xlink="http://www.w3.org/1999/xlink" width="90" height="90" viewBox="0 0 90 90">
  <defs>
    <clipPath id="clip-path">
      <rect id="Rectángulo_38856" data-name="Rectángulo 38856" width="68.048" height="68" fill="none"/>
    </clipPath>
  </defs>
  <g id="Grupo_161954" data-name="Grupo 161954" transform="translate(0.193 -0.01)">
    <circle id="Elipse_4781" data-name="Elipse 4781" cx="45" cy="45" r="45" transform="translate(-0.193 0.01)" fill="#c4d1ff"/>
    <g id="Grupo_162156" data-name="Grupo 162156" transform="translate(10.807 11.01)">
      <g id="Grupo_162156-2" data-name="Grupo 162156" transform="translate(0 0)" clip-path="url(#clip-path)">
        <path id="Trazado_143041" data-name="Trazado 143041" d="M32,35.61a7.883,7.883,0,0,1-2.732.39c-2.323-.023-4.647-.052-6.968.007A5.488,5.488,0,0,1,17.5,34a5.6,5.6,0,0,1-5.008,2.011c-2.365-.065-4.734-.015-7.1-.016A4.994,4.994,0,0,1,.145,32.2C.116,32.116.1,32.033,0,32.009V30.016a23.425,23.425,0,0,1,2.514-5.809,33.705,33.705,0,0,1,5.761-7.664A36.255,36.255,0,0,1,22.5,7.672,33.684,33.684,0,0,1,29.8,6.067c.934-.092.991-.134.964-1.1a18.219,18.219,0,0,1,.166-2.577A2.806,2.806,0,0,1,33.335,0h1.328a5.5,5.5,0,0,1,1.443.87,3.087,3.087,0,0,1,.879,2.22c0,.8.026,1.594-.007,2.39-.018.451.066.632.583.683A35.921,35.921,0,0,1,67.836,29.816a4.873,4.873,0,0,1-3.674,6.038A5.7,5.7,0,0,1,62.779,36c-2.567-.005-5.135-.038-7.7.009A5.373,5.373,0,0,1,50.5,34c-1.3,1.667-3.05,2.059-5.032,2-2.719-.076-5.442-.04-8.164-.072-.252,0-.315.065-.312.279,0,.177,0,.354,0,.531q0,14.84,0,29.679c0,1.347-.232,1.575-1.584,1.575-1.019,0-2.037,0-3.055,0s-1.336-.316-1.337-1.354q-.007-4.415,0-8.831,0-9.362,0-18.724c0-.938.15-1.136.994-1.387a.923.923,0,0,1,1.094.851,6.284,6.284,0,0,1,.024.927q0,12.632,0,25.265a1.433,1.433,0,0,0,.124.9,1.6,1.6,0,0,0,1.5.019,1,1,0,0,0,.127-.7c-.009-9.622.026-19.243-.019-28.865a2.376,2.376,0,0,0-.08-.788c-.254-.722-.741-.857-1.341-.42-.434.316-.807.781-1.434.721" transform="translate(0 0)"/>
        <path id="Trazado_143042" data-name="Trazado 143042" d="M59.963,94.625a1.285,1.285,0,0,1-.062-.712q-.007-13.042,0-26.084c0-1.025-.123-1.2-.984-1.455l-.007-2.095a5.977,5.977,0,0,0,1.784-1.352c.07-.084.135-.184.267-.158a2.984,2.984,0,0,1,.947,1.34q.009,1.991.011,3.982,0,12.911,0,25.821a1.289,1.289,0,0,1-.061.712c-.332-.352-.222-.793-.223-1.2q-.011-12.473-.006-24.946a6.776,6.776,0,0,0-.033-.927.69.69,0,0,0-1.365,0,6.788,6.788,0,0,0-.034.928q0,12.473,0,24.946c0,.407.108.849-.223,1.2" transform="translate(-26.907 -28.67)" fill="#6ee1f5"/>
        <path id="Trazado_143043" data-name="Trazado 143043" d="M48.778,25.52c0,3.342-.011,6.684.012,10.026,0,.5-.131.626-.626.624q-6.541-.029-13.08,0c-.552,0-.582-.139-.477-.634a41.79,41.79,0,0,1,5.112-13.572,18.47,18.47,0,0,1,4.627-5.245,10.24,10.24,0,0,1,3.748-1.77c.5-.119.7-.046.7.543-.027,3.342-.013,6.684-.013,10.026" transform="translate(-15.786 -6.807)" fill="#fe3a2f"/>
        <path id="Trazado_143044" data-name="Trazado 143044" d="M64.419,25.513c0-3.341.014-6.683-.014-10.024,0-.586.193-.662.689-.545a11.94,11.94,0,0,1,6.39,4.269,31.939,31.939,0,0,1,5.73,11.041,52.539,52.539,0,0,1,1.4,5.381c.084.4.071.532-.393.531q-6.638-.025-13.276,0c-.456,0-.54-.151-.538-.564.015-3.363.008-6.727.008-10.09" transform="translate(-29.419 -6.805)" fill="#feb948"/>
        <path id="Trazado_143045" data-name="Trazado 143045" d="M4.683,36.732c3.178-8.856,12.184-17.971,23.954-20.463-.422.453-.911.976-1.4,1.5A31.808,31.808,0,0,0,20.874,28.99,51.814,51.814,0,0,0,18.9,36.339c-.062.313-.14.452-.489.451Q11.6,36.771,4.8,36.777a.333.333,0,0,1-.114-.045" transform="translate(-2.139 -7.431)" fill="#feb948"/>
        <path id="Trazado_143046" data-name="Trazado 143046" d="M97.351,36.687c-3.651.007-7.3.008-10.953.031-.418,0-.437-.223-.5-.524a50.706,50.706,0,0,0-2.818-9.511A27.471,27.471,0,0,0,75.9,16.108,31.81,31.81,0,0,1,85,19.575a23.886,23.886,0,0,1,4.671,3.978,34.571,34.571,0,0,1,5.019,6.8,35.531,35.531,0,0,1,2.6,5.717c.07.2.238.393.056.616" transform="translate(-34.67 -7.358)" fill="#fe3a2f"/>
        <path id="Trazado_143047" data-name="Trazado 143047" d="M60.852,97.933c.008-.265.021-.53.021-.795q0-13.04,0-26.08c0-.342-.072-.677.359-.9a1.111,1.111,0,0,1,1.176.037.581.581,0,0,1,.307.6c-.006.642,0,1.283,0,1.925q0,12.21,0,24.42c0,.265.015.53.022.795a6.82,6.82,0,0,1-1.887,0" transform="translate(-27.796 -31.978)" fill="#b4eff8"/>
        <path id="Trazado_143048" data-name="Trazado 143048" d="M41.37,57.69c2.21,0,4.42.017,6.63-.011.574-.007.624.17.449.651a2.973,2.973,0,0,1-2.7,2.008q-4.376.032-8.752,0a2.985,2.985,0,0,1-2.746-2.045c-.137-.411-.131-.623.423-.616,2.232.029,4.464.012,6.7.012" transform="translate(-15.611 -26.346)" fill="#da2116"/>
        <path id="Trazado_143049" data-name="Trazado 143049" d="M71.719,57.689c2.234,0,4.468.016,6.7-.012.544-.007.565.188.425.609A2.98,2.98,0,0,1,76.1,60.337q-4.38.031-8.759,0a2.95,2.95,0,0,1-2.7-2.013c-.171-.469-.149-.656.439-.648,2.211.032,4.423.012,6.635.012" transform="translate(-29.486 -26.345)" fill="#fe9942"/>
        <path id="Trazado_143050" data-name="Trazado 143050" d="M3.769,57.72c.174-.01.344-.029.516-.029,4.442,0,8.884.008,13.326-.012.533,0,.645.105.463.617a2.988,2.988,0,0,1-2.744,2.043q-4.342.03-8.685,0A2.912,2.912,0,0,1,3.769,57.72" transform="translate(-1.722 -26.347)" fill="#fe9942"/>
        <path id="Trazado_143051" data-name="Trazado 143051" d="M105.007,39.6a35.35,35.35,0,0,0-6.368-11.435,28.872,28.872,0,0,0-5.62-5.3.921.921,0,0,1-.359-.379,29.8,29.8,0,0,1,6.618,4.7A33.642,33.642,0,0,1,107.6,38.939c.291.681.284.687-.473.684-.707,0-1.413-.014-2.12-.021" transform="translate(-42.325 -10.273)" fill="#da2116"/>
        <path id="Trazado_143052" data-name="Trazado 143052" d="M105.11,60.33c-2.477.007-4.954.037-7.43.01a2.953,2.953,0,0,1-2.712-2.174c-.095-.334-.084-.478.321-.476,3.671.017,7.342.019,11.013.026a.382.382,0,0,1,.141.356,3.127,3.127,0,0,1-1.333,2.259" transform="translate(-43.357 -26.351)" fill="#da2116"/>
        <path id="Trazado_143053" data-name="Trazado 143053" d="M60.76,6c0-.463-.029-.929.007-1.39a.948.948,0,0,1,1-.938.914.914,0,0,1,.952.91,10.724,10.724,0,0,1-.022,2.769c-.157.708-.97.142-1.468.292-.212.064-.5.084-.482-.32.02-.441,0-.883,0-1.324Z" transform="translate(-27.746 -1.679)" fill="#b3eef8"/>
        <path id="Trazado_143054" data-name="Trazado 143054" d="M113.68,60.327a4.1,4.1,0,0,0,1.192-2.615c.862-.007,1.725.007,2.587-.028.454-.018.445.167.347.51a3.011,3.011,0,0,1-2.733,2.15c-.463.015-.928-.01-1.392-.017" transform="translate(-51.927 -26.348)" fill="#a31910"/>
      </g>
    </g>
  </g>
</svg>
