<svg xmlns="http://www.w3.org/2000/svg" xmlns:xlink="http://www.w3.org/1999/xlink" width="90" height="90" viewBox="0 0 90 90">
  <defs>
    <clipPath id="clip-path">
      <rect id="Rectángulo_38857" data-name="Rectángulo 38857" width="53.907" height="64.653" fill="none"/>
    </clipPath>
  </defs>
  <g id="Grupo_160010" data-name="Grupo 160010" transform="translate(0.082)">
    <circle id="Elipse_4780" data-name="Elipse 4780" cx="45" cy="45" r="45" transform="translate(-0.082 0)" fill="#c4d1ff"/>
    <g id="Grupo_162157" data-name="Grupo 162157" transform="translate(17.964 13.173)">
      <g id="Grupo_162157-2" data-name="Grupo 162157" clip-path="url(#clip-path)">
        <path id="Trazado_143055" data-name="Trazado 143055" d="M42.015,0A2.71,2.71,0,0,1,43.8,2.047q3.687,13.074,7.422,26.134c.093.327.221.64.3.974a10.937,10.937,0,0,0,.55,1.677A21.6,21.6,0,0,1,52.8,33.04a17.609,17.609,0,0,1,1.1,5.728A12.324,12.324,0,0,1,48.769,48.98c-5.444,3.895-10.482,8.267-15.536,12.629a10,10,0,0,1-14.462-.832c-.229-.251-.351-.271-.595-.04-.463.438-.968.833-1.437,1.264A9.975,9.975,0,0,1,2.8,47.745q5.594-5.823,11.171-11.661a.848.848,0,0,0,.249-.943Q10.567,21.556,6.955,7.96C6.5,6.271,7.038,5.32,8.7,4.835q8.031-2.346,16.059-4.7c.1-.03.213-.026.272-.135h1.022a2.121,2.121,0,0,1,1.688,1.534,11.229,11.229,0,0,1,.43,1.53c.094.445.3.517.724.389,2.495-.761,5-1.479,7.509-2.2A38.887,38.887,0,0,1,41.121,0Z" transform="translate(0)"/>
        <path id="Trazado_143056" data-name="Trazado 143056" d="M37.29,45.761a17.716,17.716,0,0,0-3.983,3.712c-3.043,4.126-3.243,8.453-.9,12.955.1.186.187.377.28.565.164.3-.073.428-.254.558-2.466,1.769-4.805,3.7-7.127,5.648-1.054.886-2.1,1.785-3.142,2.683-.169.145-.3.379-.584.3a33.677,33.677,0,0,0-5.246-6.709,32.132,32.132,0,0,0-4.991-3.942c1.488-1.555,2.953-3.086,4.419-4.615,1.767-1.844,3.525-3.7,5.309-5.523a2.543,2.543,0,0,0,.673-2.676c-1.308-4.79-2.571-9.593-3.869-14.386-.121-.446-.108-.628.415-.773,4.721-1.311,9.432-2.663,14.146-4a1.356,1.356,0,0,1,.251-.024c.327.145.331.476.412.75q1.48,5.074,2.947,10.151.635,2.2,1.271,4.4a1.009,1.009,0,0,1-.027.917" transform="translate(-5.358 -13.952)" fill="#f4f4f4"/>
        <path id="Trazado_143057" data-name="Trazado 143057" d="M73.08,45.76a17.532,17.532,0,0,0-3.955,3.658c-3.082,4.133-3.308,8.482-.945,13.014l.292.562c.171.3-.075.427-.253.556-2.434,1.75-4.763,3.632-7.05,5.566q-1.532,1.3-3.057,2.6c-.246.209-.463.529-.871.34a32.493,32.493,0,0,0-4.193-5.567c1.384-1.107,2.794-2.127,4.2-3.15A12.936,12.936,0,0,0,62.84,52.186a20.678,20.678,0,0,0-1.186-5.527q-1.948-6.759-3.92-13.513c-.126-.428-.117-.6.384-.738,3.352-.93,6.691-1.906,10.036-2.863a1.218,1.218,0,0,1,.317,0,1.188,1.188,0,0,1,.293.625c1.435,4.913,2.886,9.822,4.318,14.736a.955.955,0,0,1,0,.857" transform="translate(-25.055 -13.949)" fill="#ced7db"/>
        <path id="Trazado_143058" data-name="Trazado 143058" d="M33.481,11.549c-1.589.6-3.244.977-4.869,1.451-3.114.909-6.239,1.781-9.353,2.691-.405.118-.589.09-.7-.359q-.688-2.746-1.439-5.477c-.088-.321-.077-.469.285-.573q6.907-1.987,13.808-4a1.068,1.068,0,0,1,.19-.021c.371-.118.506.129.59.407C32.531,7.442,33.04,9.222,33.541,11a.555.555,0,0,1-.061.546" transform="translate(-8.064 -2.472)" fill="#f4f4f4"/>
        <path id="Trazado_143059" data-name="Trazado 143059" d="M8.894,105.392a7.269,7.269,0,0,1-4.145-5.314,7.533,7.533,0,0,1,1.529-6.472c.175-.226.3-.413.653-.187a28.673,28.673,0,0,1,9.758,10.3.421.421,0,0,1,.025.123c-.128.414-.507.555-.835.733a8.479,8.479,0,0,1-6.985.817" transform="translate(-2.154 -44.076)" fill="#f34335"/>
        <path id="Trazado_143060" data-name="Trazado 143060" d="M90.859,68.132a10.925,10.925,0,0,1-4.487,8.81c-.119.09-.241.176-.36.263-1.244.908-1.244.908-1.94-.444-2.357-4.575-1.295-9.246,2.873-12.625a18,18,0,0,1,2.243-1.572c.188-.11.407-.314.523.1a19.018,19.018,0,0,1,1.149,5.469" transform="translate(-39.128 -29.481)" fill="#c71e1e"/>
        <path id="Trazado_143061" data-name="Trazado 143061" d="M67.225,11.663q-5.1,1.46-10.2,2.924c-.376.109-.544.049-.656-.358-.5-1.817-1.031-3.627-1.564-5.434-.082-.279-.141-.452.235-.559C58.465,7.265,61.882,6.275,65.3,5.29c.375-.018.433.283.511.535.514,1.678.981,3.37,1.462,5.057.074.26.174.534-.049.781" transform="translate(-25.858 -2.498)" fill="#ced7db"/>
        <path id="Trazado_143062" data-name="Trazado 143062" d="M44.328,110.52a7.948,7.948,0,0,1-5.813-2.744c-.232-.261-.265-.418.027-.661q2.792-2.319,5.559-4.67c.256-.217.384-.188.608.056a30.207,30.207,0,0,1,4.249,5.943c.218.4.138.576-.221.8a8.485,8.485,0,0,1-4.41,1.276" transform="translate(-18.105 -48.318)" fill="#c71e1e"/>
        <path id="Trazado_143063" data-name="Trazado 143063" d="M53.857,78.257a9.367,9.367,0,0,1,.955-11.481,11.879,11.879,0,0,1,2.446-2.208c.37.015.414.328.485.576,1.4,4.836.508,9.12-3.1,12.735-.206.206-.383.55-.787.377" transform="translate(-24.717 -30.497)" fill="#f34335"/>
        <path id="Trazado_143064" data-name="Trazado 143064" d="M36.776,23.628l-10.954,3.1c-1.122.318-2.251.614-3.363.963-.441.138-.615.017-.7-.4-.114-.557-.5-1.215-.323-1.633.19-.437,1-.414,1.538-.567q6.273-1.779,12.555-3.525c.122-.034.247-.055.371-.083a.264.264,0,0,1,.41.151,3.92,3.92,0,0,1,.468,1.992" transform="translate(-10.102 -10.124)" fill="#f34335"/>
        <path id="Trazado_143065" data-name="Trazado 143065" d="M86.886,45.291a29.306,29.306,0,0,0-.987-3.6c-1.165-4.045-2.367-8.078-3.55-12.117a3.543,3.543,0,0,1-.072-.5,11.552,11.552,0,0,1,1.567-.5c.408-.149.4.2.46.417q.886,3.019,1.753,6.043c.836,2.891,1.661,5.784,2.518,8.668.121.407.067.613-.315.8-.473.231-.917.523-1.374.788" transform="translate(-38.862 -13.48)" fill="#9d9d9d"/>
        <path id="Trazado_143066" data-name="Trazado 143066" d="M56.4,45.288a15.91,15.91,0,0,0-.821-3.25c-1.215-4.293-2.481-8.572-3.729-12.856a.91.91,0,0,0-.052-.116c.525-.164,1.052-.321,1.574-.5.415-.138.4.2.46.416q.939,3.206,1.862,6.416c.8,2.771,1.592,5.545,2.42,8.308a.55.55,0,0,1-.339.788c-.472.236-.917.524-1.374.79" transform="translate(-24.464 -13.479)" fill="#ced7db"/>
        <path id="Trazado_143067" data-name="Trazado 143067" d="M72.706,22.524c.03.278-.245.234-.393.277q-3.208.932-6.424,1.838c-1.815.516-3.634,1.019-5.444,1.55-.361.106-.539.084-.6-.331-.1-.618-.664-1.33-.36-1.785.263-.395,1.1-.415,1.692-.581,3.389-.953,6.785-1.88,10.165-2.867.653-.191.9-.053,1.013.581.076.436.23.86.357,1.317" transform="translate(-28.052 -9.705)" fill="#c71e1e"/>
        <path id="Trazado_143068" data-name="Trazado 143068" d="M55.224,77.247a7.163,7.163,0,0,0,2.122-2.137,11.871,11.871,0,0,0,2.168-8.292,7.216,7.216,0,0,0-.889-3.259,11.035,11.035,0,0,1,1.523-1.034c.182-.111.325-.177.429.116,1.242,3.485,1.748,6.954-.032,10.44a13.341,13.341,0,0,1-4.557,4.8c-.2.142-.334.142-.452-.087-.1-.188-.208-.368-.312-.551" transform="translate(-26.084 -29.487)" fill="#c71e1e"/>
        <path id="Trazado_143069" data-name="Trazado 143069" d="M30.743,102.132c1.868-1.591,3.716-3.207,5.61-4.766,1.615-1.331,3.252-2.638,4.959-3.854.209-.149.534-.219.539-.572.578.831.577.83-.19,1.42-3.328,2.561-6.468,5.35-9.675,8.055-.8.677-.8.678-1.242-.283" transform="translate(-14.521 -43.898)" fill="#ced7db"/>
        <path id="Trazado_143070" data-name="Trazado 143070" d="M60.993,102.008c.651-.084.98-.649,1.416-1.017,2.23-1.879,4.435-3.787,6.75-5.562.871-.669,1.755-1.322,2.628-1.987.177-.134.441-.2.437-.495.556.847.557.85-.209,1.428-3.445,2.6-6.643,5.491-9.944,8.261a1.25,1.25,0,0,1-.539.365l-.539-.993" transform="translate(-28.809 -43.902)" fill="#9d9d9d"/>
        <path id="Trazado_143071" data-name="Trazado 143071" d="M76.672,11.133a11.221,11.221,0,0,0-.605-2.387c-.327-1.16-.66-2.318-.993-3.476-.058-.2-.084-.425-.326-.51.6-.183,1.21-.35,1.805-.556.283-.1.367,0,.439.251.545,1.908,1.093,3.816,1.661,5.718.092.31.01.415-.275.488-.571.145-1.137.314-1.705.473" transform="translate(-35.306 -1.968)" fill="#9d9d9d"/>
        <path id="Trazado_143072" data-name="Trazado 143072" d="M46.307,11.062c-.4-1.439-.8-2.878-1.2-4.316-.142-.507-.328-1-.444-1.515-.061-.269-.166-.421-.434-.455.015-.015.027-.039.045-.044.691-.191,1.51-.693,2.037-.478.491.2.472,1.227.67,1.892.391,1.32.754,2.648,1.159,3.964.106.342.084.5-.3.575a10.723,10.723,0,0,1-1.533.376" transform="translate(-20.89 -1.985)" fill="#ced7db"/>
        <path id="Trazado_143073" data-name="Trazado 143073" d="M12.775,114.813a18.136,18.136,0,0,1,2,.242,9.389,9.389,0,0,0,5.82-1.792c.537.8.547.817-.261,1.274a7.517,7.517,0,0,1-7.56.276" transform="translate(-6.034 -53.498)" fill="#c71e1e"/>
        <path id="Trazado_143074" data-name="Trazado 143074" d="M49.765,23.147c-.16-.545-.321-1.09-.479-1.636-.065-.224-.105-.465-.4-.508.628-.184,1.261-.355,1.883-.558.269-.088.34.04.4.247.149.531.283,1.068.462,1.589.1.3-.033.373-.27.434-.533.138-1.064.287-1.6.431" transform="translate(-23.091 -9.644)" fill="#c71e1e"/>
      </g>
    </g>
  </g>
</svg>
