<svg xmlns="http://www.w3.org/2000/svg" xmlns:xlink="http://www.w3.org/1999/xlink" width="90" height="90" viewBox="0 0 90 90">
  <defs>
    <clipPath id="clip-path">
      <rect id="Rectángulo_38858" data-name="Rectángulo 38858" width="60.365" height="56.569" fill="none"/>
    </clipPath>
  </defs>
  <g id="Grupo_160003" data-name="Grupo 160003" transform="translate(0.193 -0.01)">
    <g id="Grupo_162280" data-name="Grupo 162280">
      <circle id="Elipse_4781" data-name="Elipse 4781" cx="45" cy="45" r="45" transform="translate(-0.193 0.01)" fill="#c4d1ff"/>
      <g id="Grupo_162158" data-name="Grupo 162158" transform="translate(14.807 17.01)">
        <g id="Grupo_162158-2" data-name="Grupo 162158" transform="translate(0 0)" clip-path="url(#clip-path)">
          <path id="Trazado_143075" data-name="Trazado 143075" d="M53.406,39.95a.922.922,0,0,1-.167,1.4c-1.01,1.017-2.009,2.047-3.049,3.033a1.543,1.543,0,0,0-.569,1.373,3.339,3.339,0,0,1-.346,1.942,2.913,2.913,0,0,1-1.617,1.466c-.351.122-.416.31-.413.643.016,1.375.011,2.749.006,4.124A2.446,2.446,0,0,1,44.6,56.568q-11.254,0-22.507,0a2.407,2.407,0,0,1-2.628-2.582c0-.456-.108-.584-.577-.582-4.576.019-9.152.012-13.728.011a2.464,2.464,0,0,1-2.787-2.782c0-1.335,0-2.671,0-4.007,0-.181.089-.419-.174-.5a3.44,3.44,0,0,1-2.2-2.4V35.585a.9.9,0,0,1,.942-.725c.756.2.992.5,1,1.358.014,2.176.006,4.352,0,6.528a1.482,1.482,0,0,0,.882,1.52,1.4,1.4,0,0,0,.746.119c8.387,0,16.774.01,25.16-.006a2.715,2.715,0,0,0,.988-.127,1.246,1.246,0,0,0,.863-1.091,1.379,1.379,0,0,0,.014-.352,3.5,3.5,0,0,1,1.351-3.191c2.822-2.732,5.572-5.539,8.349-8.316a3.349,3.349,0,0,0,.761-.966,2.582,2.582,0,0,0-.242-2.735,2.646,2.646,0,0,0-2.627-1.11,2.028,2.028,0,0,0-.458.105,3.106,3.106,0,0,0-1.26.841q-1.789,1.793-3.582,3.583c-.125.125-.249.25-.377.373a1.051,1.051,0,0,1-1.892-.67c-.018-.913.015-1.827-.025-2.871-.874.743-1.394,1.738-2.391,2.182a3.687,3.687,0,0,1-4.385-.762c-.439-.424-.779-.936-1.229-1.35a1.588,1.588,0,0,0-2.323-.046c-.465.4-.8.918-1.234,1.344a3.711,3.711,0,0,1-5.551-.029c-.391-.389-.7-.847-1.1-1.226a1.591,1.591,0,0,0-2.4-.055,7.5,7.5,0,0,0-.756.823,4.109,4.109,0,0,1-3.155,1.708,4.107,4.107,0,0,1-3.268-1.72,3.889,3.889,0,0,0-.728-.761c-.23.152-.137.366-.138.542-.012,1.1.011,2.2-.013,3.3A1.08,1.08,0,0,1,.848,33.021.864.864,0,0,1,0,32.285v-17.8a10.863,10.863,0,0,0,.438-1.969A16.281,16.281,0,0,1,14.671.079,15.925,15.925,0,0,1,26.922,3.986a.776.776,0,0,0,.89.124A16.094,16.094,0,0,1,43.793,6.927c.638.506.677.8.3,1.516-.22.411-.574.417-.953.3a2.185,2.185,0,0,1-.691-.436,14.261,14.261,0,0,0-5.9-2.887,3.474,3.474,0,0,0-.753-.094,13.506,13.506,0,0,0-6.181.231c-.711.184-.7.2-.276.76a16.054,16.054,0,0,1,3.355,9.86c.006,1.474,0,2.947,0,4.421,0,.7.254.9.956.763a1.868,1.868,0,0,0,1.122-.711A13.052,13.052,0,0,1,35.9,19.441a3.614,3.614,0,0,1,5.054-.11,9.96,9.96,0,0,1,1.057,1.107c1.007,1.233,2.017,1.269,3.118.123a6.085,6.085,0,0,1,2.2-1.906c.294-.117.325-.331.3-.619a14.208,14.208,0,0,0-2.269-6.5,3.2,3.2,0,0,1-.409-.713A.843.843,0,0,1,45.357,9.7c.685-.262.945-.184,1.382.45a15.919,15.919,0,0,1,2.883,9.1c.025,3.945.006,7.89.006,11.835v.766l2.638-2.686a4.773,4.773,0,0,1,2.349-1.376,4.64,4.64,0,0,1,5.038,2.064,4.546,4.546,0,0,1-.392,5.421c-.988,1.114-2.081,2.136-3.141,3.185a.879.879,0,0,1-1.229.046c-.552-.445-.583-.866-.054-1.428.738-.785,1.518-1.528,2.277-2.293.179-.181.365-.355.535-.545a2.744,2.744,0,0,0-3.025-4.445,3.455,3.455,0,0,0-.977.741q-1.824,1.831-3.654,3.655c-.138.138-.281.272-.424.405a1.082,1.082,0,0,1-1.86-.705c-.007-1-.014-1.991,0-2.963a11.709,11.709,0,0,1-2.447,2.282,3.629,3.629,0,0,1-3.238.036.651.651,0,0,0-.828.211q-1.516,1.522-3.037,3.039c-1.651,1.651-3.3,3.309-4.958,4.948a1.521,1.521,0,0,0-.512,1.251,3.362,3.362,0,0,1-1.957,3.453c-.458.233-.434.625-.368,1.011s.42.286.675.286q6.857.01,13.714,0c.548.014,1.1.021,1.645,0a1.219,1.219,0,0,0,1.3-1.292c.022-.43.011-.862.006-1.293a1.487,1.487,0,0,1,.441-1.114c1.27-1.28,2.539-2.561,3.827-3.821.537-.525,1.029-.5,1.434.022" transform="translate(0 0)"/>
          <path id="Trazado_143076" data-name="Trazado 143076" d="M92.875,65.884c-.609-.381-.9-.361-1.4.134-1.251,1.243-2.492,2.5-3.747,3.737a1.236,1.236,0,0,0-.406.993c.021.45.013.9,0,1.352a1.374,1.374,0,0,1-1.419,1.463c-.548.014-1.1-.012-1.644-.021.27-.924.146-1.9.34-2.829a2.348,2.348,0,0,1,.779-1.15c2.925-2.928,5.825-5.882,8.793-8.766a3.813,3.813,0,0,0,.537-4.447,4.318,4.318,0,0,0-.668-.732,2.86,2.86,0,0,1,3.226,4.588c-.9.953-1.854,1.863-2.779,2.8-.525.53-.546.811-.131,1.436a13.569,13.569,0,0,0-1.485,1.445" transform="translate(-39.469 -25.934)" fill="#3e83ca"/>
          <path id="Trazado_143077" data-name="Trazado 143077" d="M67.41,9.714a12.735,12.735,0,0,1,5.024,1.828,10.481,10.481,0,0,1,1.807,1.3,1.055,1.055,0,0,0,1.431.149c.495.343.8.875,1.26,1.255a.935.935,0,0,0-.1,1.4,14.629,14.629,0,0,1,2.555,7.025c.032.338.005.526-.369.65a6.037,6.037,0,0,0-2.181,1.816c-.359-.275-.271-.677-.256-1.033a13.9,13.9,0,0,0-1.2-6.177,15.116,15.116,0,0,0-7.3-7.664c-.258-.13-.627-.152-.669-.552" transform="translate(-31.575 -4.55)" fill="#3e83ca"/>
          <path id="Trazado_143078" data-name="Trazado 143078" d="M1.586,58.31q0-1.039,0-2.079c.706-.131.923-.385.926-1.113,0-1.391,0-2.782,0-4.236a2.77,2.77,0,0,1,1.011.911,5.767,5.767,0,0,0,1.615,1.442,3.509,3.509,0,0,0,4.082-.618c.451-.435.84-.935,1.277-1.385a1.774,1.774,0,0,1,2.781,0c.424.436.8.92,1.235,1.344a3.487,3.487,0,0,0,5.018,0c.42-.41.785-.878,1.192-1.3a1.8,1.8,0,0,1,2.866.012c.217.227.416.471.62.709a3.725,3.725,0,0,0,4.709,1.278,2.267,2.267,0,0,0,2.041.663.631.631,0,0,1,.537.158c.281,1.049.967,1.235,1.742.465q2-1.992,3.995-3.99a2.343,2.343,0,0,1,1.115-.725c.4-.113.556.2.724.447a3.921,3.921,0,0,1-.52,5.065c-1.425,1.461-2.882,2.89-4.325,4.334-1.526,1.527-3.047,3.059-4.583,4.575a1.662,1.662,0,0,0-.561,1.358,4.435,4.435,0,0,1-.158,1.515.837.837,0,0,1-.931.693c-2.335-.022-4.671-.01-7.006-.01q-8.389,0-16.779,0a1.327,1.327,0,0,1-.636-.05,1.348,1.348,0,0,1-1.058-1.475c0-2.29,0-4.58,0-6.869,0-.727-.214-.974-.923-1.11" transform="translate(-0.741 -23.333)" fill="#5e99d7"/>
          <path id="Trazado_143079" data-name="Trazado 143079" d="M29.787,18.974c-.994,1.283-2.122,1.337-3.2.15-.33-.363-.64-.746-.986-1.092a3.509,3.509,0,0,0-5.19.01c-.387.389-.728.824-1.107,1.221a1.8,1.8,0,0,1-2.87-.021c-.39-.414-.744-.864-1.149-1.263a3.5,3.5,0,0,0-5.062-.008c-.433.426-.81.909-1.234,1.344a1.772,1.772,0,0,1-2.743,0c-.383-.393-.733-.819-1.105-1.223a2.726,2.726,0,0,0-1.181-.852c-.558-.161-.567-.462-.509-.951A14.518,14.518,0,0,1,15.784,3.434a11.609,11.609,0,0,1,4.446.081,10.009,10.009,0,0,1,3.762,2.092,15.282,15.282,0,0,1,5,6.976,13.721,13.721,0,0,1,.825,4.014,15.323,15.323,0,0,1,.12,1.638,1.554,1.554,0,0,1-.15.738" transform="translate(-1.605 -1.527)" fill="#5e99d7"/>
          <path id="Trazado_143080" data-name="Trazado 143080" d="M81.143,55.841a.654.654,0,0,1,.582.324,3.944,3.944,0,0,1-.368,4.991c-2.956,2.846-5.8,5.8-8.735,8.675a2.842,2.842,0,0,0-.9,2.245,2.63,2.63,0,0,1-.359,1.689c-.608.01-1.216.027-1.823.027-4.063,0-8.126-.007-12.189.012-.474,0-.634-.093-.631-.6a1.034,1.034,0,0,1,.669-1.151,2.777,2.777,0,0,0,1.7-2.791,2.661,2.661,0,0,1,.952-2.234c2.605-2.529,5.154-5.115,7.712-7.693a.581.581,0,0,1,.837-.139,3.533,3.533,0,0,0,3.229.021,2.165,2.165,0,0,0,2.045.718.635.635,0,0,1,.545.159c.272.97.977,1.171,1.688.467,1.352-1.34,2.693-2.69,4.041-4.034a2.252,2.252,0,0,1,1.006-.685" transform="translate(-26.568 -26.155)" fill="#5e99d7"/>
          <path id="Trazado_143081" data-name="Trazado 143081" d="M29.714,42.652a1.858,1.858,0,0,1-3.2.123c-.365-.41-.716-.838-1.113-1.216a3.483,3.483,0,0,0-4.888-.012c-.413.389-.769.839-1.154,1.258a1.857,1.857,0,0,1-3.111-.035c-.352-.4-.691-.807-1.071-1.174a3.486,3.486,0,0,0-4.973,0c-.436.422-.812.907-1.234,1.344a1.785,1.785,0,0,1-2.825,0c-.286-.3-.544-.619-.82-.926a2.913,2.913,0,0,0-1.216-1c-.779-.226-.821-.727-.81-1.4.036-2.336.014-4.672.014-7.058A1.452,1.452,0,0,1,4,33.086c.377.4.716.838,1.114,1.214A3.479,3.479,0,0,0,10,34.3c.426-.4.8-.867,1.193-1.3a1.826,1.826,0,0,1,2.995.007c.357.391.691.805,1.067,1.178a3.494,3.494,0,0,0,5.1.024c.406-.4.759-.848,1.148-1.264a1.8,1.8,0,0,1,2.873-.013c.23.241.448.5.659.754a3.764,3.764,0,0,0,4.562,1.3c.324.067.293.344.3.561.024,2.141.016,4.283.006,6.424a1.259,1.259,0,0,1-.188.672" transform="translate(-1.545 -15.095)" fill="#fe7671"/>
          <path id="Trazado_143082" data-name="Trazado 143082" d="M61.113,9.479c.867.56,1.829.949,2.68,1.547a15.343,15.343,0,0,1,5.68,7.218,13.405,13.405,0,0,1,.961,5.264,3.714,3.714,0,0,0,.1,1.4,1.854,1.854,0,0,1-3.2.152c-.37-.407-.715-.838-1.112-1.217a3.484,3.484,0,0,0-4.931.006c-.4.38-.743.809-1.112,1.217a2.312,2.312,0,0,1-1.093.766c-.908.247-1.251-.017-1.269-.932-.039-2.04.114-4.084-.1-6.121a15.965,15.965,0,0,0-3.463-8.359c-.073-.092-.149-.182-.219-.277a.94.94,0,0,1-.069-.16,13.662,13.662,0,0,1,7.147-.5" transform="translate(-25.278 -4.315)" fill="#5e99d7"/>
          <path id="Trazado_143083" data-name="Trazado 143083" d="M30.048,92.4c-1.532.123-1.532.123-1.532-1.386,0-.412.013-.825,0-1.237a.88.88,0,1,0-1.758.006c-.018.746-.013,1.493,0,2.239,0,.272-.023.42-.369.416-1.728-.019-3.456-.016-5.184,0-.308,0-.407-.085-.4-.4.021-.706.016-1.414,0-2.121-.012-.653-.342-1.038-.868-1.05-.546-.013-.886.385-.894,1.072-.009.707-.013,1.414,0,2.121.006.283-.089.374-.371.372q-2.622-.014-5.243,0c-.3,0-.36-.108-.355-.378.015-.726.012-1.453,0-2.18-.008-.629-.368-1.023-.9-1.009a.9.9,0,0,0-.865.992c-.013.727-.018,1.454,0,2.18.009.308-.079.4-.392.4-.785-.022-1.571-.014-2.357-.006-.548.006-.785-.272-.785-.8,0-1.355.019-2.71-.011-4.065-.01-.436.147-.5.536-.5,4.693.012,9.386,0,14.079.009,2.552,0,5.1.016,7.656.026a.9.9,0,0,1,.187.659q.011,1.99,0,3.981a.914.914,0,0,1-.187.659" transform="translate(-3.643 -40.781)" fill="#e9f2fe"/>
          <path id="Trazado_143084" data-name="Trazado 143084" d="M66.74,98.335c-1.425.074-1.425.074-1.425-1.328,0-.432.015-.865-.005-1.3a.865.865,0,0,0-.93-.914.844.844,0,0,0-.829.945c-.012.727-.016,1.454,0,2.181.009.312-.052.445-.408.441-1.709-.019-3.419-.022-5.128,0-.4.005-.445-.152-.435-.482.02-.687.015-1.375,0-2.063s-.321-1.024-.872-1.025-.876.36-.889,1.017c-.015.727-.016,1.454,0,2.181.007.28-.068.369-.359.367q-2.623-.02-5.245,0c-.306,0-.34-.115-.347-.376-.025-1.013-.035-1.012.952-1.016a2.437,2.437,0,0,0,2.7-2.687c0-.411.023-.822.036-1.233a.917.917,0,0,1,.517-.055q6.114,0,12.228,0c.636,0,.718.062.728.689.021,1.313.015,2.626,0,3.939,0,.272,0,.561-.3.713" transform="translate(-23.358 -43.554)" fill="#e9f2fe"/>
          <path id="Trazado_143085" data-name="Trazado 143085" d="M73.842,48.649a1.821,1.821,0,0,1-1.92.84c-.4-.073-.55-.176-.354-.645a4.632,4.632,0,0,0-4.443-6.457,4.544,4.544,0,0,0-3.147,1.394c-.882.886-1.762,1.775-2.762,2.783V43.733c0-.726.01-1.452,0-2.178-.006-.295.054-.416.392-.377a3.673,3.673,0,0,0,3.355-1.453c.267-.314.531-.631.819-.924a1.772,1.772,0,0,1,2.738-.016c.262.264.5.549.742.836a3.76,3.76,0,0,0,4.453,1.328c.317.074.288.348.29.566.022,2.171.018,4.343.006,6.515a2.047,2.047,0,0,1-.164.62" transform="translate(-28.672 -17.867)" fill="#fe7671"/>
          <path id="Trazado_143086" data-name="Trazado 143086" d="M5.319,67.6,29.176,67.6c1.2,0,1.547-.171,1.443-1.335A3.689,3.689,0,0,1,32.129,63.1c2.711-2.647,5.38-5.338,8.046-8.031a3.783,3.783,0,0,0,.347-5.119.57.57,0,0,0-.427-.279,2.856,2.856,0,0,1,3.079,4.669c-1.5,1.527-3.021,3.031-4.533,4.545-1.61,1.611-3.214,3.227-4.837,4.825a1.556,1.556,0,0,0-.542,1.3,11.6,11.6,0,0,1,0,1.177,1.41,1.41,0,0,1-1.466,1.5c-.705.027-1.413.013-2.12.013q-11.778,0-23.557,0a1.326,1.326,0,0,1-.8-.1" transform="translate(-2.491 -23.171)" fill="#3e83ca"/>
          <path id="Trazado_143087" data-name="Trazado 143087" d="M44.593,19.2a19.357,19.357,0,0,0-.719-5.673,15.226,15.226,0,0,0-2.807-5.241,16.363,16.363,0,0,0-6.03-4.545,12.139,12.139,0,0,1,4.939,1.747A14.427,14.427,0,0,1,47.15,16.735c.037.322.012.533-.369.653A5.874,5.874,0,0,0,44.593,19.2" transform="translate(-16.411 -1.752)" fill="#3e83ca"/>
          <path id="Trazado_143088" data-name="Trazado 143088" d="M84.854,48.935q-.009-3.516-.021-7.031c0-.225.082-.473-.112-.669,1.145-.555,1.77-1.689,2.688-2.478.2.117.131.271.131.393,0,2.416,0,4.832.009,7.248,0,.3-.031.5-.375.6a3.752,3.752,0,0,0-1.643,1.2c-.22.249-.451.487-.677.731" transform="translate(-39.684 -18.153)" fill="#fe5149"/>
          <path id="Trazado_143089" data-name="Trazado 143089" d="M52.89,42.856q0-3.523,0-7.046c0-.207.072-.435-.112-.612,1.092-.572,1.7-1.684,2.721-2.536V34.24c0,2.036-.007,4.072.007,6.108,0,.352-.054.555-.439.684a6.061,6.061,0,0,0-2.175,1.824" transform="translate(-24.721 -15.299)" fill="#fe5149"/>
          <path id="Trazado_143090" data-name="Trazado 143090" d="M70,98.29a.95.95,0,0,0,.119-.565c0-1.393-.02-2.787.009-4.179.01-.469-.174-.545-.587-.544-4.238.011-8.476,0-12.714,0,.153-.193.364-.086.542-.086,4.712-.006,9.423,0,14.135-.014.494,0,.623.134.61.618-.035,1.256-.01,2.512-.012,3.769,0,.846-.177,1.018-1.043,1.017-.352,0-.705-.012-1.058-.019" transform="translate(-26.617 -43.509)" fill="#d4e9fe"/>
          <path id="Trazado_143091" data-name="Trazado 143091" d="M49.672,92.331q0-2.65,0-5.3c.644-.039,1.451-.264,1.882.07.379.293.1,1.139.111,1.741.018.882.009,1.765,0,2.648,0,.671-.2.864-.882.868-.372,0-.743-.018-1.115-.028" transform="translate(-23.266 -40.714)" fill="#d4e9fe"/>
          <path id="Trazado_143092" data-name="Trazado 143092" d="M87.713,60.929c-.411,0-.825-.027-1.234,0a1.226,1.226,0,0,1-1.356-.88,6.418,6.418,0,0,0,1.326-1.143,6.639,6.639,0,0,1,1.264-1.283Z" transform="translate(-39.872 -26.992)" fill="#3e83ca"/>
          <path id="Trazado_143093" data-name="Trazado 143093" d="M55.579,54.957c-.413,0-.827-.027-1.237,0A1.232,1.232,0,0,1,53,54.136c1.014-.587,1.6-1.631,2.579-2.466Z" transform="translate(-24.825 -24.202)" fill="#3e83ca"/>
          <path id="Trazado_143094" data-name="Trazado 143094" d="M41.8,101.852c-.431,0-.863.025-1.291-.006a.916.916,0,0,1-.621-1.277c.107-.166.283-.1.428-.1.88-.006,1.761.007,2.64-.009.305-.006.447.04.45.4.009.989.029.989-.961.989H41.8v0" transform="translate(-18.637 -47.054)" fill="#e7f0fc"/>
        </g>
      </g>
    </g>
  </g>
</svg>
