<svg xmlns="http://www.w3.org/2000/svg" xmlns:xlink="http://www.w3.org/1999/xlink" width="60" height="60" viewBox="0 0 60 60">
  <defs>
    <clipPath id="clip-path">
      <rect id="Rectángulo_38855" data-name="Rectángulo 38855" width="32.694" height="42.847" fill="none"/>
    </clipPath>
    <clipPath id="clip-path-2">
      <rect id="Rectángulo_38854" data-name="Rectángulo 38854" width="32.694" height="42.846" fill="none"/>
    </clipPath>
    <clipPath id="clip-path-3">
      <rect id="Rectángulo_38852" data-name="Rectángulo 38852" width="1.851" height="1.493" fill="none"/>
    </clipPath>
    <clipPath id="clip-path-4">
      <rect id="Rectángulo_38853" data-name="Rectángulo 38853" width="4.713" height="1.553" fill="none"/>
    </clipPath>
  </defs>
  <g id="Grupo_162134" data-name="Grupo 162134" transform="translate(-1081 -2971)">
    <g id="Grupo_159045" data-name="Grupo 159045" transform="translate(18 578)">
      <ellipse id="Elipse_4781" data-name="Elipse 4781" cx="30" cy="30" rx="30" ry="30" transform="translate(1063 2393)" fill="#c4d1ff"/>
    </g>
    <g id="Grupo_162133" data-name="Grupo 162133" transform="translate(1094.653 2979.896)">
      <g id="Grupo_162132" data-name="Grupo 162132" clip-path="url(#clip-path)">
        <g id="Grupo_162131" data-name="Grupo 162131" transform="translate(0 0)">
          <g id="Grupo_162130" data-name="Grupo 162130" clip-path="url(#clip-path-2)">
            <path id="Trazado_143016" data-name="Trazado 143016" d="M3.885,4.234C12.41-2.222,24.644-1.577,29.151,8.12a13.052,13.052,0,0,1,.816,2.269c1.41,5.514-1.331,7.178-.171,9.488.8,4.682,3.931,8.216,2.553,13.258a14.586,14.586,0,0,1-5.863,8.058c-3.138.451-6.262.973-9.392,1.47a46.521,46.521,0,0,1-5.7.155c-.479-.113-.958-.233-1.431-.366C8.291,40.84,6.7,39.1,5.062,37.422a3.738,3.738,0,0,0-.745-1.3C1.1,32.185-.238,29.607,1.488,26.532S1.2,23.768.479,19.1c-.42-2.72-1.788-10.93,3.406-14.864" transform="translate(-0.001 0)" fill="#181709"/>
            <path id="Trazado_143017" data-name="Trazado 143017" d="M41.483,35.459,43.044,44s-1.168,1.093-4.158.26l2.147-8.8Z" transform="translate(-35.978 -12.09)" fill="#fff"/>
            <path id="Trazado_143018" data-name="Trazado 143018" d="M42.684,27.884A2.024,2.024,0,0,0,41.02,29.8c-.262,1.791.65,4.774,2.46,4.4s-.8-6.319-.8-6.319" transform="translate(-38.432 -9.507)" fill="#722324"/>
            <line id="Línea_382" data-name="Línea 382" y2="0.001" transform="translate(9.267 32.253)" fill="#c9614d"/>
            <path id="Trazado_143019" data-name="Trazado 143019" d="M20.434,55.465c-.307.088-.589.152-.872.217-1.4.079-2.8.1-4.2.048-.089-.021-.177-.046-.266-.068A3.227,3.227,0,0,1,13.008,53.6a12.576,12.576,0,0,0,.515-2.761c.028-.364.043-.737.046-1.124a30.369,30.369,0,0,0-.213-3.536c-.033-.312-.071-.635-.112-.969l0-.04c4.6-1.117,8.365-3.183,10.928-6.6l.689-.416.465-.282.087.268L25.325,39a16.838,16.838,0,0,0,2.768,11.062,14.584,14.584,0,0,1-7.659,5.406" transform="translate(-3.972 -12.912)" fill="#c9614d"/>
            <path id="Trazado_143020" data-name="Trazado 143020" d="M35.728,60.243l-.391-.4c.279-.94.625-1.862.964-2.755.111-.292.585-.165.473.13-.374.986-.755,2-1.045,3.028" transform="translate(-27.385 -19.407)" fill="#110e0a"/>
            <path id="Trazado_143021" data-name="Trazado 143021" d="M12.062,60.46l-.625.1a60.727,60.727,0,0,0,2.738-5.642c.128-.288.55-.039.424.247-.778,1.762-1.585,3.575-2.537,5.295" transform="translate(10.534 -18.681)" fill="#110e0a"/>
            <path id="Trazado_143022" data-name="Trazado 143022" d="M31.531,44.334c-.962,2.206-3.2,6.109-7.424,7.582a30.525,30.525,0,0,0-.213-3.536c-.034-.311-.071-.635-.113-.968.091.01.185.017.277.022,2.512.152,5.234-1.157,7.472-3.1" transform="translate(-14.511 -15.116)" fill="#181709"/>
            <path id="Trazado_143023" data-name="Trazado 143023" d="M33.212,20.661a5.8,5.8,0,0,1-4.993,6.015l-.017,0h0l-.069.008c-.043.147-.094.292-.148.44-.022.064-.047.129-.072.193a.07.07,0,0,1-.008.018c-1.743,4.383-7.617,7.294-10.881,7.607A7.473,7.473,0,0,1,14.8,34.81c-3.517-.515-4.487-5.153-4.19-8.77a13.582,13.582,0,0,1,.207-1.493l.02-.1S9.33,19.523,8.908,17.358c-.816-4.2,1.317-8.666,10.543-10.149s11.848,4.126,12.71,7.139c.145.5.251,3.544-.223,4.068a2.484,2.484,0,0,1,1.273,2.247" transform="translate(-6.295 -2.374)" fill="#c9614d"/>
            <path id="Trazado_143024" data-name="Trazado 143024" d="M38.69,29.881c.094.612.426,1.068.744,1.019s.5-.583.406-1.195-.426-1.068-.744-1.019-.5.583-.406,1.195" transform="translate(-32.654 -9.779)" fill="#181709"/>
            <path id="Trazado_143025" data-name="Trazado 143025" d="M40.665,29.109a.164.164,0,0,0,.018-.291,2.628,2.628,0,0,0-2.848.084.164.164,0,0,0,.208.254,2.338,2.338,0,0,1,2.474-.055.162.162,0,0,0,.148.009" transform="translate(-32.965 -9.69)" fill="#181709"/>
            <path id="Trazado_143026" data-name="Trazado 143026" d="M30.584,28.783c.094.611.426,1.068.744,1.019s.5-.583.406-1.195-.427-1.068-.745-1.019-.5.584-.405,1.195" transform="translate(-19.206 -9.405)" fill="#181709"/>
            <path id="Trazado_143027" data-name="Trazado 143027" d="M32.079,28.194a.163.163,0,0,0,.054-.287A2.625,2.625,0,0,0,29.3,27.63a.164.164,0,1,0,.173.277,2.333,2.333,0,0,1,2.461.258.166.166,0,0,0,.146.028" transform="translate(-18.761 -9.31)" fill="#181709"/>
            <path id="Trazado_143028" data-name="Trazado 143028" d="M36.986,36.833s0,2.932-2.453,3.211a2.528,2.528,0,0,1-2.839-2.117Z" transform="translate(-25.181 -12.558)" fill="#fff"/>
            <path id="Trazado_143029" data-name="Trazado 143029" d="M34.294,42.906a1.318,1.318,0,0,0,.724-.492.222.222,0,0,0-.368-.247.9.9,0,0,1-.955.308.222.222,0,0,0-.1.432,1.438,1.438,0,0,0,.7,0" transform="translate(-24.389 -14.344)" fill="#722324"/>
            <path id="Trazado_143030" data-name="Trazado 143030" d="M32.7,18.052a5.432,5.432,0,0,0-.746.14,5.518,5.518,0,0,0-3.166,2.427c-.132-.848-1.041-4.741-6.725-5.381-.081-.009-.169-.017-.26-.024a4.847,4.847,0,0,1-.626-2.439c.566-2.311-10.56-1.138-10.934,2.41-.156,1.486-.24,2.454-.285,3.082h0a6.106,6.106,0,0,0-.04,1.154s-.982,1.023-1.064-3.862A6.633,6.633,0,0,1,10.5,11.2c2.22-2.7,6.436-4.634,11.1-5.231,6.9-.884,11.933,6.369,12.263,9.016S32.7,18.052,32.7,18.052" transform="translate(-7.056 -2.011)" fill="#181709"/>
            <g id="Grupo_162126" data-name="Grupo 162126" transform="translate(4.314 22.172)" opacity="0.5">
              <g id="Grupo_162125" data-name="Grupo 162125" transform="translate(0)">
                <g id="Grupo_162124" data-name="Grupo 162124" clip-path="url(#clip-path-3)">
                  <path id="Trazado_143031" data-name="Trazado 143031" d="M42.1,34.289c.018.372-.776.722-1.851.847a13.781,13.781,0,0,1,.208-1.493c.938.055,1.627.308,1.643.647" transform="translate(-40.252 -33.642)" fill="#722324"/>
                </g>
              </g>
            </g>
            <path id="Trazado_143032" data-name="Trazado 143032" d="M37.3,33.892a.289.289,0,0,1-.156-.028l-1.323-.657a.284.284,0,0,1-.035-.488,4.082,4.082,0,0,0,1.709-3,.283.283,0,0,1,.561.083,4.722,4.722,0,0,1-1.574,3.1l.915.454a.284.284,0,0,1-.1.536" transform="translate(-28.874 -10.051)" fill="#722324"/>
            <path id="Trazado_143033" data-name="Trazado 143033" d="M27.421,24.6a.689.689,0,0,1-1.018-.891,2,2,0,0,1,1.114-.85,5,5,0,0,1,4.4.651,12.768,12.768,0,0,0-3.84.68,3.84,3.84,0,0,0-.654.409" transform="translate(-16.556 -7.706)" fill="#181709"/>
            <path id="Trazado_143034" data-name="Trazado 143034" d="M41.838,25.509a.689.689,0,0,0,.755-1.122,2,2,0,0,0-1.3-.536c-2.591-.179-3.243,1.524-3.243,1.524a9.144,9.144,0,0,1,3.046-.094,3.815,3.815,0,0,1,.737.228" transform="translate(-35.189 -8.128)" fill="#181709"/>
            <g id="Grupo_162129" data-name="Grupo 162129" transform="translate(11.937 21.574)" opacity="0.5">
              <g id="Grupo_162128" data-name="Grupo 162128">
                <g id="Grupo_162127" data-name="Grupo 162127" clip-path="url(#clip-path-4)">
                  <path id="Trazado_143035" data-name="Trazado 143035" d="M24.344,33.632c.021.424,1.094.714,2.395.648s2.339-.463,2.317-.887-1.093-.713-2.395-.647-2.339.463-2.317.886" transform="translate(-24.343 -32.736)" fill="#722324"/>
                </g>
              </g>
            </g>
            <path id="Trazado_143036" data-name="Trazado 143036" d="M18.729,36.379l-.017,0h0l-.069.007c-.042.148-.094.293-.148.441-.023.064-.047.129-.072.193a.07.07,0,0,1-.008.018,3,3,0,0,1-1.3-.413,2.379,2.379,0,0,1-.715-.676.338.338,0,0,1,.554-.388,1.815,1.815,0,0,0,.852.649,2.44,2.44,0,0,0,.6.143,2.91,2.91,0,0,0,.319.023" transform="translate(3.195 -12.076)" fill="#722324"/>
            <path id="Trazado_143037" data-name="Trazado 143037" d="M12.1,31.6a.338.338,0,0,0,.258-.288c.289-2.381,3.022-3.591,3.049-3.6a.338.338,0,0,0-.267-.621c-.127.055-3.118,1.372-3.453,4.141a.338.338,0,0,0,.413.37" transform="translate(9.381 -9.228)" fill="#722324"/>
            <path id="Trazado_143038" data-name="Trazado 143038" d="M14.514,30.927a.328.328,0,0,0,.118-.053.338.338,0,0,0,.08-.471,2.321,2.321,0,0,0-2.1-.867.338.338,0,0,0,.074.672,1.643,1.643,0,0,1,1.48.586.339.339,0,0,0,.353.133" transform="translate(9.808 -10.065)" fill="#722324"/>
            <path id="Trazado_143039" data-name="Trazado 143039" d="M18.746,36.265c-1.84,1.36-3.72,2.077-5.752.295a17.282,17.282,0,0,1,1.44-8.216c1.619-3.175-1.207-7.088-1.207-7.088,1.8.745,3.8.724,4.866,2.831-1.786,2.062-.671,7.658.653,12.178" transform="translate(5.411 -7.247)" fill="#181709"/>
            <path id="Trazado_143040" data-name="Trazado 143040" d="M10.182,33.979l3,8.149s-.964,1.277-4.052.969l.607-9.036Z" transform="translate(13.49 -11.585)" fill="#fff"/>
          </g>
        </g>
      </g>
    </g>
  </g>
</svg>
