<svg xmlns="http://www.w3.org/2000/svg" width="87" height="87" viewBox="0 0 87 87">
  <g id="Grupo_162279" data-name="Grupo 162279" transform="translate(-757 -516)">
    <g id="Grupo_161429" data-name="Grupo 161429" transform="translate(757.178 516)">
      <rect id="Rectángulo_37519" data-name="Rectángulo 37519" width="87" height="87" rx="43.5" transform="translate(-0.178)" fill="#6b8dfc"/>
    </g>
    <path id="Trazado_142785" data-name="Trazado 142785" d="M5.959,0H.826L3.674-19.02H8.807ZM9.492-23.572H4.359l.58-3.85h5.133Zm11.795,18.3a1.5,1.5,0,0,0-.606-1.459,7.746,7.746,0,0,0-2.892-1.055,10.461,10.461,0,0,1-4.781-2.021,3.873,3.873,0,0,1-1.23-3.674,6.148,6.148,0,0,1,2.646-4.21A9.52,9.52,0,0,1,20.2-19.371a8.02,8.02,0,0,1,5.458,1.74,4.358,4.358,0,0,1,1.556,4.271l-.035.105H22.219a2.232,2.232,0,0,0-.475-1.881,2.62,2.62,0,0,0-2.039-.7,3.3,3.3,0,0,0-2.013.615,2.221,2.221,0,0,0-.958,1.512,1.47,1.47,0,0,0,.536,1.441,16.126,16.126,0,0,0,2.909.984s3.9,1.157,4.913,2.065a4.013,4.013,0,0,1,1.2,3.753,5.952,5.952,0,0,1-2.786,4.254A10.751,10.751,0,0,1,17.473.369a7.777,7.777,0,0,1-5.66-1.951,4.67,4.67,0,0,1-1.564-4.359l.053-.105h4.693a2.343,2.343,0,0,0,.694,2.215,3.707,3.707,0,0,0,2.382.686,3.888,3.888,0,0,0,2.215-.58A2.185,2.185,0,0,0,21.287-5.273Z" transform="translate(786.174 573.422)"/>
  </g>
</svg>
