<svg xmlns="http://www.w3.org/2000/svg" width="87" height="87" viewBox="0 0 87 87">
  <g id="Grupo_162076" data-name="Grupo 162076" transform="translate(-1072 -516)">
    <g id="Grupo_161429" data-name="Grupo 161429" transform="translate(1072.178 516)">
      <rect id="Rectángulo_37519" data-name="Rectángulo 37519" width="87" height="87" rx="43.5" transform="translate(-0.178)" fill="#6b8dfc"/>
    </g>
    <path id="Trazado_142784" data-name="Trazado 142784" d="M11.777,0A8.334,8.334,0,0,1,11.5-1.38a10.385,10.385,0,0,1-.07-1.485A8.737,8.737,0,0,1,8.991-.545,5.869,5.869,0,0,1,5.766.369,5.614,5.614,0,0,1,1.441-1.187,4.756,4.756,0,0,1,.4-5.361,5.934,5.934,0,0,1,3.182-9.747a12.225,12.225,0,0,1,6.539-1.485H12.6l.229-1.512a2.66,2.66,0,0,0-.4-2.153,2.529,2.529,0,0,0-2.048-.729,3.207,3.207,0,0,0-2,.606,2.392,2.392,0,0,0-.94,1.661H2.514L2.5-13.465a5.788,5.788,0,0,1,2.716-4.2,10.381,10.381,0,0,1,6.073-1.705,7.473,7.473,0,0,1,5.221,1.74,5.189,5.189,0,0,1,1.441,4.922L16.77-4.852a14.082,14.082,0,0,0-.176,2.531,12.344,12.344,0,0,0,.3,2.32ZM7.594-3.428A4.87,4.87,0,0,0,10.055-4.1,4.581,4.581,0,0,0,11.76-5.66l.4-2.672H9.281a3.866,3.866,0,0,0-2.558.826A3.138,3.138,0,0,0,5.555-5.537a1.714,1.714,0,0,0,.387,1.556A2.225,2.225,0,0,0,7.594-3.428Zm24.5-11.18-1.881-.053a3.656,3.656,0,0,0-1.934.5,4.025,4.025,0,0,0-1.371,1.415L25.014,0H19.9l2.848-19.02H27.51l-.176,2.725a7.035,7.035,0,0,1,2.057-2.276,4.5,4.5,0,0,1,2.584-.8,4.023,4.023,0,0,1,.712.062,6.087,6.087,0,0,1,.642.149ZM40.43.369a7.391,7.391,0,0,1-6.17-2.646A8.263,8.263,0,0,1,32.8-8.965l.105-.7a12.021,12.021,0,0,1,3.349-7.075,9.249,9.249,0,0,1,6.794-2.628A6.359,6.359,0,0,1,48.507-17a8.131,8.131,0,0,1,1.169,6.293l-.387,2.654H37.934l-.035.088a4.461,4.461,0,0,0,.668,3.208,3.479,3.479,0,0,0,2.988,1.187,11.275,11.275,0,0,0,2.971-.36A13.564,13.564,0,0,0,47.2-4.992l.914,3.164a11.661,11.661,0,0,1-3.34,1.564A14.569,14.569,0,0,1,40.43.369Zm2.039-15.785a3.284,3.284,0,0,0-2.487,1.072,6.37,6.37,0,0,0-1.468,2.795l.035.105h6.223l.053-.387a4.1,4.1,0,0,0-.272-2.654A2.194,2.194,0,0,0,42.469-15.416Z" transform="translate(1090 572)"/>
  </g>
</svg>
