<svg xmlns="http://www.w3.org/2000/svg" xmlns:xlink="http://www.w3.org/1999/xlink" width="87" height="87" viewBox="0 0 87 87">
  <defs>
    <clipPath id="clip-path">
      <rect id="Rect치ngulo_38830" data-name="Rect치ngulo 38830" width="37.55" height="49" fill="none"/>
    </clipPath>
  </defs>
  <g id="Grupo_162280" data-name="Grupo 162280" transform="translate(0.178)">
    <rect id="Rect치ngulo_37519" data-name="Rect치ngulo 37519" width="87" height="87" rx="43.5" transform="translate(-0.178)" fill="#ff9fa3"/>
    <g id="Grupo_162078" data-name="Grupo 162078" transform="translate(24.822 19)">
      <g id="Grupo_162078-2" data-name="Grupo 162078" transform="translate(0 0)" clip-path="url(#clip-path)">
        <path id="Trazado_142786" data-name="Trazado 142786" d="M31.5,49H.687a1.29,1.29,0,0,1-.679-1.292q.018-23.213,0-46.427A1.3,1.3,0,0,1,.688,0H31.505c.113.189.315.091.471.134a4.8,4.8,0,0,1,3.642,4.782q.008,8.2,0,16.4a.605.605,0,0,0,.369.653,2.721,2.721,0,0,1,1.545,2.507q.033,1.936,0,3.874a2.725,2.725,0,0,1-1.54,2.508.607.607,0,0,0-.372.652q.013,6.311,0,12.624a4.81,4.81,0,0,1-3.32,4.643c-.267.086-.562.049-.8.223M6.723,27.837c.725.16.95.443.951,1.2V46.642c0,.277-.02.453.377.453q11.387-.02,22.774-.014a2.844,2.844,0,0,0,2.88-2.808c0-.027,0-.055,0-.081.011-4.21,0-8.424.011-12.631,0-.294-.069-.373-.362-.37-1.4.017-2.808,0-4.21.013a1.329,1.329,0,0,1-1.025-.412c-1.189-1.2-2.392-2.389-3.582-3.59a.969.969,0,0,1,0-1.577c1.19-1.2,2.393-2.389,3.582-3.59a1.328,1.328,0,0,1,1.025-.411c1.372.015,2.744-.01,4.114.015.378.008.464-.1.463-.468Q33.7,13.083,33.711,5a2.879,2.879,0,0,0-3.073-3.08Q19.4,1.916,8.149,1.9c-.416,0-.479.124-.477.5q.02,8.78.009,17.56c0,.755-.227,1.035-.951,1.2a1.007,1.007,0,0,1-.979-1.033,1.034,1.034,0,0,1,.016-.152q0-8.778.011-17.557c0-.433-.117-.53-.528-.516-.906.033-1.818.04-2.725,0-.48-.022-.6.108-.6.593Q1.95,24.51,1.938,46.51a1.72,1.72,0,0,1,0,.239c-.039.271.08.351.347.346.972-.015,1.946-.032,2.918.006.453.017.577-.1.575-.566q-.028-8.753-.011-17.509a1.006,1.006,0,0,1,.805-1.172.994.994,0,0,1,.149-.016M32.1,29.287c.815,0,1.626.006,2.438,0a.966.966,0,0,0,1.074-1.061q.013-1.793,0-3.587a.973.973,0,0,0-.843-1.087.985.985,0,0,0-.244,0c-1.626-.006-3.253,0-4.879-.007a.693.693,0,0,0-.543.216c-.792.809-1.589,1.614-2.4,2.4-.223.215-.19.331.012.529q1.2,1.167,2.368,2.367a.73.73,0,0,0,.585.239c.806-.02,1.618-.012,2.433-.012Z" transform="translate(0 0)" fill="#010101"/>
        <path id="Trazado_142787" data-name="Trazado 142787" d="M13.317,23.032c.725-.162.95-.443.951-1.2q0-8.78-.009-17.56c0-.379.061-.5.477-.5q11.244.023,22.488.012A2.878,2.878,0,0,1,40.3,6.865q0,8.086.009,16.173c0,.369-.083.476-.463.468-1.372-.025-2.744,0-4.114-.015A1.329,1.329,0,0,0,34.7,23.9c-1.189,1.2-2.392,2.39-3.582,3.59a.969.969,0,0,0,0,1.577c1.19,1.2,2.393,2.388,3.582,3.59a1.329,1.329,0,0,0,1.025.412c1.4-.014,2.808,0,4.21-.013.3,0,.368.076.362.369-.011,4.211,0,8.424-.011,12.632a2.844,2.844,0,0,1-2.8,2.889h-.081q-11.387.011-22.774.014c-.4,0-.377-.181-.377-.453q.007-8.8,0-17.608c0-.754-.228-1.037-.951-1.2V27.34c.643-.141.962-.476.95-1-.013-.5-.324-.811-.95-.947ZM27.281,7.612H19.917c-.923,0-1.244.317-1.244,1.225v7.078c0,.956.308,1.268,1.25,1.268h14.73c.924,0,1.244-.317,1.246-1.225V8.833c0-.89-.325-1.219-1.2-1.219q-3.708,0-7.414,0Zm0,29.285h5.594c.7,0,1.4.016,2.1-.009a.94.94,0,0,0,.918-.962V35.92a.959.959,0,0,0-.906-.933c-.128-.01-.255,0-.384,0H19.977a3.711,3.711,0,0,0-.43.007.958.958,0,0,0-.867,1.016.98.98,0,0,0,1.06.894l.038,0h7.5Zm0,1.914H20.3c-.238,0-.479-.011-.716.006a.953.953,0,0,0,.006,1.9c.112.01.223,0,.335,0H34.65a2.661,2.661,0,0,0,.43-.015.953.953,0,0,0-.005-1.887,3.353,3.353,0,0,0-.477-.013Zm-2.869,4.77A.955.955,0,0,0,22.5,43.6v.013a.955.955,0,0,0,1.911-.022v-.01Zm2.878.972a.956.956,0,0,0,0-1.913h-.009a.956.956,0,0,0,0,1.912h.01Zm4.778-.948a.956.956,0,0,0-1.912-.025v.008a.956.956,0,0,0,1.912.024v-.007Z" transform="translate(-6.593 -1.869)" fill="#d9a171"/>
        <path id="Trazado_142788" data-name="Trazado 142788" d="M8.6,27.338V29.7a1,1,0,0,0-.978,1.032.977.977,0,0,0,.016.153q0,8.756.011,17.509c0,.47-.12.583-.575.566-.972-.038-1.945-.021-2.918-.006-.271,0-.386-.071-.347-.346a1.892,1.892,0,0,0,0-.239q0-22-.012-44.011c0-.485.118-.615.6-.593.906.043,1.819.035,2.726,0,.411-.014.529.083.528.516q-.024,8.778-.011,17.557a1.006,1.006,0,0,0,.81,1.17,1.035,1.035,0,0,0,.152.016v2.366c-.634.12-.962.449-.962.969s.318.842.962.975" transform="translate(-1.882 -1.866)" fill="#908686"/>
        <path id="Trazado_142789" data-name="Trazado 142789" d="M58.164,52.392c-.815,0-1.63-.009-2.439.006a.731.731,0,0,1-.585-.239q-1.17-1.2-2.368-2.367c-.2-.2-.235-.313-.012-.529.815-.787,1.61-1.592,2.4-2.4a.693.693,0,0,1,.543-.216c1.626.009,3.253,0,4.879.006a.973.973,0,0,1,1.087.843.985.985,0,0,1,0,.244q.01,1.792,0,3.587A.965.965,0,0,1,60.6,52.386c-.807.011-1.619.006-2.432.006m-1.291-3.826a.955.955,0,0,0,.032,1.911h.01a.965.965,0,0,0,.935-1v-.006A.966.966,0,0,0,56.873,48.565Z" transform="translate(-26.059 -23.106)" fill="#fd9155"/>
        <path id="Trazado_142790" data-name="Trazado 142790" d="M32.542,11.378h7.413c.879,0,1.2.329,1.2,1.219v7.125c0,.906-.322,1.226-1.246,1.226H25.183c-.942,0-1.25-.312-1.25-1.268V12.6c0-.906.322-1.225,1.244-1.226Zm0,7.657c2.106,0,4.21-.007,6.316.007.313,0,.394-.08.391-.391q-.024-2.487,0-4.976c0-.313-.081-.391-.391-.39q-6.315.014-12.631,0c-.312,0-.394.08-.39.392q.023,2.487,0,4.976c0,.314.082.393.393.39,2.106-.015,4.211-.008,6.316-.008Z" transform="translate(-11.856 -5.635)"/>
        <path id="Trazado_142791" data-name="Trazado 142791" d="M32.545,67.533H25.039a.981.981,0,0,1-1.094-.851c0-.013,0-.025,0-.038a.958.958,0,0,1,.867-1.016,3.83,3.83,0,0,1,.43-.007h14.63c.129,0,.255-.006.383,0a.96.96,0,0,1,.906.933.94.94,0,0,1-.911.968h-.006c-.7.023-1.4.009-2.1.009Z" transform="translate(-11.859 -32.505)" fill="#000101"/>
        <path id="Trazado_142792" data-name="Trazado 142792" d="M32.544,73.2h7.315a3.348,3.348,0,0,1,.477.013.953.953,0,0,1,.006,1.887,2.724,2.724,0,0,1-.43.015H25.186c-.111,0-.223.006-.334,0a.953.953,0,0,1-.007-1.9c.238-.017.477-.006.717-.006Z" transform="translate(-11.857 -36.261)" fill="#000101"/>
        <path id="Trazado_142793" data-name="Trazado 142793" d="M33.433,81.734a.964.964,0,0,1-.956.972h-.01a.956.956,0,0,1,.005-1.912h.013a.964.964,0,0,1,.948.94" transform="translate(-15.615 -40.023)" fill="#050707"/>
        <path id="Trazado_142794" data-name="Trazado 142794" d="M40.068,82.706a.962.962,0,0,1-.961-.963v-.011a.956.956,0,0,1,1.911.025v.01a.966.966,0,0,1-.95.939" transform="translate(-19.372 -40.023)" fill="#050707"/>
        <path id="Trazado_142795" data-name="Trazado 142795" d="M48.605,81.759a.966.966,0,0,1-.983.948h-.006a.957.957,0,0,1,.058-1.913h.008a.965.965,0,0,1,.924.965" transform="translate(-23.13 -40.023)" fill="#050707"/>
        <path id="Trazado_142796" data-name="Trazado 142796" d="M12.38,48.569c-.647-.133-.963-.453-.962-.972s.326-.85.962-.969c.626.136.937.447.95.947.012.518-.309.853-.95.995" transform="translate(-5.656 -23.098)" fill="#050707"/>
        <path id="Trazado_142797" data-name="Trazado 142797" d="M60.145,50.452a.954.954,0,1,1,.047,1.906h-.006a.963.963,0,0,1-.976-.949V51.4a.963.963,0,0,1,.935-.948" transform="translate(-29.331 -24.992)" fill="#070402"/>
        <path id="Trazado_142798" data-name="Trazado 142798" d="M34.416,20.907c-2.1,0-4.21-.006-6.314.008-.31,0-.4-.076-.393-.39q.026-2.487,0-4.976c0-.313.078-.392.391-.392q6.315.017,12.63,0c.31,0,.4.076.392.39q-.025,2.487,0,4.976c0,.312-.078.394-.391.391-2.1-.013-4.209-.007-6.314-.007" transform="translate(-13.726 -7.508)" fill="#edf9fe"/>
      </g>
    </g>
  </g>
</svg>
