<svg xmlns="http://www.w3.org/2000/svg" xmlns:xlink="http://www.w3.org/1999/xlink" width="87" height="87" viewBox="0 0 87 87">
  <defs>
    <clipPath id="clip-path">
      <rect id="Rect치ngulo_38831" data-name="Rect치ngulo 38831" width="53.098" height="49" fill="none"/>
    </clipPath>
  </defs>
  <g id="Grupo_162281" data-name="Grupo 162281" transform="translate(0.178)">
    <rect id="Rect치ngulo_37519" data-name="Rect치ngulo 37519" width="87" height="87" rx="43.5" transform="translate(-0.178)" fill="#ff9fa3"/>
    <g id="Grupo_162079" data-name="Grupo 162079" transform="translate(16.822 19)">
      <g id="Grupo_162079-2" data-name="Grupo 162079" clip-path="url(#clip-path)">
        <path id="Trazado_142799" data-name="Trazado 142799" d="M53.1,33.308v1.036a2.753,2.753,0,0,1-2.923,2.421c-1.216.013-1.208.015-1.513,1.2a8.129,8.129,0,0,0,.16,4.536.756.756,0,0,0,.856.623,3.41,3.41,0,0,1,2.745.952,2.512,2.512,0,0,1,.675,1.46v1.036A2.8,2.8,0,0,1,50.219,49c-.121,0-.242,0-.362,0H4.949a4.888,4.888,0,0,1-3.625-1.38A4.158,4.158,0,0,1,0,44.575Q0,39.939,0,35.3a4.165,4.165,0,0,1,2.027-3.579.662.662,0,0,0,.326-.918A2.9,2.9,0,0,1,5.01,26.951c.155-.013.311-.011.466-.012.894-.007.947-.043,1.192-.881a7.871,7.871,0,0,0-.037-4.689c-.232-.731-.254-.751-1.012-.754A3.556,3.556,0,0,1,3.365,20a2.757,2.757,0,0,1-1.127-2.825,2.789,2.789,0,0,1,2.064-2.3,4.849,4.849,0,0,0,.8-.208,10.9,10.9,0,0,1-1.072-1.125,8.215,8.215,0,0,1-.1-10.306A8.073,8.073,0,0,1,9.511.1,14.79,14.79,0,0,1,11.318,0q12.405,0,24.81,0a4,4,0,0,1,1.815.333A3.007,3.007,0,0,1,39.62,3.294a2.944,2.944,0,0,1-2.549,2.612c-1.219.175-1.2.178-1.437,1.4a6.36,6.36,0,0,0,.165,2.715.753.753,0,0,0,.824.665,2.959,2.959,0,0,1,3,2.675,2.162,2.162,0,0,1-.063.922c-.088.327.031.436.355.435a14.451,14.451,0,0,1,2.118.087A4.674,4.674,0,0,1,46.1,19.484c.006,2.831-.007,5.663.006,8.494a4.819,4.819,0,0,1-.664,2.519c-.255.436-.226.479.28.481,1.537.005,3.073.011,4.61,0a2.919,2.919,0,0,1,2.3,1.1,2.408,2.408,0,0,1,.463,1.236" transform="translate(0 -0.001)"/>
        <path id="Trazado_142800" data-name="Trazado 142800" d="M28.563,108.63c.376.348.748.7,1.131,1.041s.782.647,1.333.41.614-.729.615-1.247a1.51,1.51,0,0,1,.026-.2.942.942,0,0,1,.686-.169q11.852,0,23.7,0c.694,0,.744.059.7.617a10.2,10.2,0,0,0,.5,3.566c.092.284.062.42-.269.371a1.431,1.431,0,0,0-.207,0q-20.229,0-40.458,0c-.207,0-.449.1-.62-.117-.094-1.323-.017-2.647-.041-3.971,0-.231.146-.336.338-.4a2.142,2.142,0,0,1,.666-.061q3,0,5.994,0c.821,0,.821,0,.906.787.292.976,1.014,1.2,1.794.542.447-.377.866-.785,1.3-1.18a2.639,2.639,0,0,1,1.9.015" transform="translate(-10.066 -69.731)" fill="#f8f6f7"/>
        <path id="Trazado_142801" data-name="Trazado 142801" d="M7.045,105.985a2.875,2.875,0,0,1-2.556-2.791q-.04-4.451,0-8.9a2.869,2.869,0,0,1,2.8-2.839c2.915-.05,5.832-.02,8.747-.032.276,0,.356.1.347.361-.016.517-.029,1.036,0,1.552.024.392-.075.526-.5.522-2.312-.023-4.624-.012-6.936-.01a1.824,1.824,0,0,0-2.064,2.066q0,2.847,0,5.693a1.838,1.838,0,0,0,1.431,2.007,2.025,2.025,0,0,0,.617.031q16.592,0,33.185,0c.138,0,.277.007.414,0,.331-.021.4.158.3.42a8.731,8.731,0,0,1-.966,1.766.452.452,0,0,1-.4.195c-.138,0-.276,0-.414,0q-16.722,0-33.443,0a1.47,1.47,0,0,1-.563-.037" transform="translate(-2.873 -58.783)" fill="#fedf7c"/>
        <path id="Trazado_142802" data-name="Trazado 142802" d="M29.107,7.425a.856.856,0,0,0-.557.751,3.373,3.373,0,0,1-2.238,0,.873.873,0,0,0-.983-.774c-2.638.012-5.277-.017-7.915.015a4.026,4.026,0,0,0-4.022,3.636,4.092,4.092,0,0,0,2.89,4.318,5.049,5.049,0,0,0,1.118.184,1.828,1.828,0,0,0,.564.03q8.138,0,16.277,0c.663,0,.715.046.5.662a3.6,3.6,0,0,1-.874,1.777c-.1.009-.2.027-.307.027-5.346,0-10.693.019-16.039-.006a6.529,6.529,0,0,1-6.492-5.107c-.918-3.83,2.028-7.881,5.81-7.988a1.442,1.442,0,0,1,.513-.034c5.5,0,11,.006,16.5-.013a.78.78,0,0,1,.894.638c.116.414.263.821.356,1.242.109.494,0,.614-.51.615-1.638,0-3.275,0-4.913,0a2.046,2.046,0,0,0-.566.026" transform="translate(-6.983 -3.152)" fill="#fedf7c"/>
        <path id="Trazado_142803" data-name="Trazado 142803" d="M54.278,65.868c-.241.008-.482.022-.723.022q-8.053,0-16.106.011c-.406,0-.534-.1-.5-.506a10.059,10.059,0,0,0,0-1.552c-.038-.456.139-.532.552-.525,1.5.025,3,.011,4.505.009a3.221,3.221,0,0,0,.516-.024.709.709,0,0,0,.636-.758.7.7,0,0,0-.6-.733,3.39,3.39,0,0,0-.618-.037q-8.571,0-17.142.007c-.505,0-.876-.024-.82-.667a2.514,2.514,0,0,0-.059-.511c.011-.245.211-.241.372-.267a4.18,4.18,0,0,1,.672-.021H52.614c1.52,0,1.831.308,1.833,1.809,0,1,0,2,0,3a1.006,1.006,0,0,1-.167.738" transform="translate(-15.375 -38.782)" fill="#f8f6f7"/>
        <path id="Trazado_142804" data-name="Trazado 142804" d="M30.289,58.353c.153-.175.356-.08.53-.08q8.857-.007,17.713,0c1.5,0,2.142-.647,2.143-2.143q0-2.823,0-5.645A1.789,1.789,0,0,0,48.692,48.5q-17.221,0-34.443,0a1.385,1.385,0,0,1-.76-.081c.277-.252.621-.17.94-.17q9.838-.008,19.675,0h8.284c.172,0,.345,0,.518-.007.265-.01.382-.128.306-.4-.01-.033-.019-.066-.027-.1-.342-1.359-.444-1.439-1.854-1.439q-13.384,0-26.769,0c-.333,0-.7.1-.986-.178a1.047,1.047,0,0,1,.558-.059c11.88,0,23.76.016,35.64-.011A3.161,3.161,0,0,1,53.1,49.374q-.111,4.011,0,8.027a3.139,3.139,0,0,1-3.284,3.309c-6.354-.033-12.709-.009-19.063-.01-.149,0-.311.059-.446-.061.245-.229.552-.162.838-.163,3.364-.005,6.729-.022,10.093.012a1.249,1.249,0,0,0,1.339-.854c.491-1.126.518-1.115-.678-1.115q-5.383,0-10.767,0a1.124,1.124,0,0,1-.84-.165" transform="translate(-8.673 -29.609)" fill="#7edaad"/>
        <path id="Trazado_142805" data-name="Trazado 142805" d="M48.4,21.886a9.319,9.319,0,0,0,.407,2.841c-.136.111-.277.065-.406.065q-11.59,0-23.179,0A2.443,2.443,0,0,1,22.7,23.136a.648.648,0,0,1,.3-.755,2.909,2.909,0,0,1,1.867-.659c1.157-.005,2.313,0,3.47,0q9.556,0,19.112,0a1.349,1.349,0,0,1,.946.164" transform="translate(-14.574 -13.962)" fill="#f8f6f7"/>
        <path id="Trazado_142806" data-name="Trazado 142806" d="M11.9,46.243c.224.006.448.018.672.018q13.928,0,27.855-.012c.492,0,.759.141.9.593s.288.884.456,1.316c.107.276.044.391-.252.379-.138-.005-.276,0-.414,0H12.172c-.121,0-.241,0-.362.007a1.167,1.167,0,0,1,.087-2.3" transform="translate(-6.994 -29.734)" fill="#a6e8a5"/>
        <path id="Trazado_142807" data-name="Trazado 142807" d="M85.525,103.54c.04-.469-.265-.452-.6-.452q-12.245.006-24.491,0c-.009-.568.007-1.137-.035-1.7-.034-.449.077-.6.571-.6,3.362.025,6.724.007,10.085.02a.944.944,0,0,0,1.056-.7c0-.221.171-.245.32-.256a10.8,10.8,0,0,1,1.6,0c.152.011.318.046.323.259a.936.936,0,0,0,1.059.694c3.366-.012,6.732-.006,10.1-.006h.623a14.232,14.232,0,0,0-.613,2.737" transform="translate(-38.835 -64.189)" fill="#dcd9eb"/>
        <path id="Trazado_142808" data-name="Trazado 142808" d="M48.166,16.974q-11.775,0-23.551,0a2.827,2.827,0,0,0-1.764.621c-.2.155-.413.327-.383.632A2.468,2.468,0,0,1,24.356,14.9a5.28,5.28,0,0,1,.774-.041q3.728,0,7.455,0c.709,0,.875-.127,1.084-.783h2.238c.163.65.346.783,1.119.783,3.667,0,7.335.01,11-.01.491,0,.563.1.423.56a13.068,13.068,0,0,0-.286,1.568" transform="translate(-14.34 -9.049)" fill="#dedbec"/>
        <path id="Trazado_142809" data-name="Trazado 142809" d="M53.55,63.884q0-2.072,0-4.143c0-.917-.327-1.239-1.244-1.239q-14.244,0-28.488,0c-.213,0-.454-.089-.634.116l-.4-1.381h.539q15.557,0,31.115-.011c.513,0,.685.114.675.654-.034,1.829-.022,3.658-.005,5.487,0,.393-.09.586-.52.543-.342-.034-.688-.021-1.032-.029" transform="translate(-14.647 -36.798)" fill="#dcd9eb"/>
        <path id="Trazado_142810" data-name="Trazado 142810" d="M74.358,94.7c-.166-.222-.411-.14-.613-.122-.543.049-1.106-.157-1.631.119-.136-.7-.322-.862-1.04-.862-3.381,0-6.763-.01-10.144.01-.443,0-.562-.12-.528-.544a9.748,9.748,0,0,0,0-1.448c-.026-.38.122-.447.468-.446,3.985.011,7.97,0,11.955.009,2.086,0,4.173.02,6.259.03a5.3,5.3,0,0,1,.682,1.979c.068.316-.126.368-.393.366-1.237-.008-2.474,0-3.711,0a1.59,1.59,0,0,0-.512.029.834.834,0,0,0-.8.881" transform="translate(-38.835 -58.778)" fill="#fedf7c"/>
        <path id="Trazado_142811" data-name="Trazado 142811" d="M45.712,80.973c-1.121-.911-1.12-.91-2.184.114-.409.394-.825.783-1.231,1.167-.139-.027-.109-.128-.109-.2q0-6.491,0-12.981a1.463,1.463,0,0,1,.042-.251c1.1-.112,2.2-.019,3.3-.05.224-.006.3.141.332.321a3.059,3.059,0,0,1,.033.618q0,5.192,0,10.384c0,.3.071.627-.176.883" transform="translate(-27.125 -44.212)" fill="#ea5468"/>
        <path id="Trazado_142812" data-name="Trazado 142812" d="M11.685,127.942c.207,0,.414-.014.621-.014q16.678,0,33.357.013a.911.911,0,0,0,.951-.594c.206-.435.441-.858.684-1.274.212-.363.074-.452-.282-.42-.12.011-.242,0-.363,0q-16.523,0-33.046,0c-.217,0-.451.075-.65-.084.483,0,.966.009,1.449.009q21.436,0,42.872.006a4.457,4.457,0,0,1,.823.054,1.174,1.174,0,0,1,.954,1.133,1.211,1.211,0,0,1-.846,1.173,2.075,2.075,0,0,1-.665.073q-22.6,0-45.2,0a1.229,1.229,0,0,1-.658-.074" transform="translate(-7.514 -80.741)" fill="#fecf64"/>
        <path id="Trazado_142813" data-name="Trazado 142813" d="M60.461,80.516l12.367.006c.62,0,.616,0,.377.593-.227.559-.366,1.253-.819,1.581s-1.135.093-1.717.095c-3.4.012-6.8.01-10.193.012a11.77,11.77,0,0,1-.015-2.287" transform="translate(-38.845 -51.772)" fill="#a6e7a5"/>
        <path id="Trazado_142814" data-name="Trazado 142814" d="M39.876,7.371c.165-.142.363-.08.547-.081,1.622,0,3.244,0,4.866,0,.527,0,.563-.056.407-.577-.128-.428-.281-.85-.38-1.285C45.222,5.01,45,4.9,44.585,4.9q-8.179.022-16.358.009c-.207,0-.413-.011-.62-.017a1.369,1.369,0,0,1,.662-.071q12.948,0,25.9,0c.994,0,1.615.591,1.5,1.413a1.209,1.209,0,0,1-1.033,1.072,4.64,4.64,0,0,1-.722.041q-7.018.012-14.036.02" transform="translate(-17.751 -3.098)" fill="#fdcf63"/>
        <path id="Trazado_142815" data-name="Trazado 142815" d="M45.648,37.18a19.3,19.3,0,0,0,.8-2.011c.094-.284.058-.388-.275-.384-1.327.016-2.655.007-3.982.007q-6.205,0-12.411,0c-.2,0-.416.069-.6-.078.172-.006.345-.016.517-.016H55.08a2.139,2.139,0,0,1,.816.1,1.25,1.25,0,0,1,.782,1.321,1.214,1.214,0,0,1-1.088,1.075,5.8,5.8,0,0,1-.621.019q-4.4,0-8.806,0c-.172,0-.343-.017-.515-.027" transform="translate(-18.764 -22.308)" fill="#fecf64"/>
        <path id="Trazado_142816" data-name="Trazado 142816" d="M101.734,93.832a1.715,1.715,0,0,1,.906-.076c1.03-.013,2.062-.036,3.09.008.528.022.54-.164.432-.583a13.4,13.4,0,0,1-.5-1.721c1.016-.011,2.033-.029,3.049-.03,2.294,0,4.588-.009,6.882,0a1.2,1.2,0,0,1,1.254,1.675,1.177,1.177,0,0,1-1.148.735q-6.986,0-13.97-.012" transform="translate(-65.415 -58.787)" fill="#fecf64"/>
        <path id="Trazado_142817" data-name="Trazado 142817" d="M16.165,80.277c1.312,0,2.624.01,3.936-.007.322,0,.421.091.407.409-.023.551-.016,1.1,0,1.656.007.257-.057.372-.341.371-2.676-.008-5.351,0-8.026-.012a1.186,1.186,0,0,1-1.259-1.222,1.215,1.215,0,0,1,1.3-1.191c1.329-.013,2.658,0,3.987,0" transform="translate(-6.996 -51.614)" fill="#a6e8a5"/>
        <path id="Trazado_142818" data-name="Trazado 142818" d="M45.79,80.915q0-5.862.016-11.724c0-.349-.125-.438-.452-.433-1.016.015-2.032,0-3.047,0a3.619,3.619,0,0,1,1.268-.065c1.068-.015,2.138.006,3.206-.006.317,0,.458.064.457.425q-.019,6.438-.012,12.876c0,.063-.009.126-.024.325l-1.413-1.4" transform="translate(-27.204 -44.154)" fill="#e3384e"/>
        <path id="Trazado_142819" data-name="Trazado 142819" d="M23.495,105.453c-.022-.594-.383-.638-.883-.631-2.086.028-4.172.011-6.258.012-.68,0-.7.027-.706.694q-.007,1.784-.016,3.567c-.136-.127-.075-.292-.075-.439,0-1.846.015-3.693-.005-5.539-.005-.46.143-.585.593-.581q3.443.031,6.886,0c.392,0,.5.1.48.486-.033.809-.013,1.621-.015,2.432" transform="translate(-9.994 -65.93)" fill="#dcd9eb"/>
        <path id="Trazado_142820" data-name="Trazado 142820" d="M22.767,71.315a10.727,10.727,0,0,0,.516-2.3c.017-.206.107-.26.293-.26q2.144,0,4.287,0c.233,0,.287.1.284.314-.009.654-.006,1.308,0,1.962,0,.177-.022.293-.243.293-1.7-.005-3.4,0-5.135,0" transform="translate(-14.639 -44.206)" fill="#f8f6f7"/>
        <path id="Trazado_142821" data-name="Trazado 142821" d="M48.383,107.508l-1.9-.015a.157.157,0,0,1,.02-.046c.932-1.006.932-1.006,1.884.061" transform="translate(-29.886 -68.608)" fill="#d9d6e8"/>
      </g>
    </g>
  </g>
</svg>
