<svg xmlns="http://www.w3.org/2000/svg" xmlns:xlink="http://www.w3.org/1999/xlink" width="158.932" height="516.5" viewBox="0 0 158.932 516.5">
  <defs>
    <clipPath id="clip-path">
      <rect id="Rect치ngulo_38891" data-name="Rect치ngulo 38891" width="157.464" height="416" fill="none"/>
    </clipPath>
  </defs>
  <g id="Grupo_159038" data-name="Grupo 159038" transform="translate(0 0.5)">
    <g id="Grupo_157971" data-name="Grupo 157971" transform="translate(0 0)">
      <g id="Grupo_157495" data-name="Grupo 157495" transform="translate(0 86.02)">
        <g id="Grupo_157493" data-name="Grupo 157493" transform="translate(0 0)">
          <path id="Trazado_114544" data-name="Trazado 114544" d="M131.147,418.088C109.09,406.1,86.214,389.927,77.331,362.877c-9.859-30.02.461-63.639.213-95.908-.2-25.563-7.093-50.25-12.52-74.97s-9.412-50.984-3.813-75.648A100.6,100.6,0,0,1,83.2,73.047c18.1-20.874,44.172-32.17,68.947-27.4s47.282,26.527,54.524,55.382c10.261,40.881-9.783,84.521-5.523,126.912,1.667,16.587,7,32.273,10.619,48.406a236.076,236.076,0,0,1,5.669,52.665c-.135,27.211-5.877,56.244-22.777,74.364C177.608,421.66,152.239,429.551,131.147,418.088Z" transform="translate(-58.504 -44.565)" fill="#ffd947"/>
          <g id="Grupo_162279" data-name="Grupo 162279" transform="translate(1.468 13.98)">
            <g id="Grupo_162279-2" data-name="Grupo 162279" clip-path="url(#clip-path)">
              <path id="Trazado_143442" data-name="Trazado 143442" d="M1.369,148.577c4.007,23.74,19.363,42.837,19.363,42.837,3.338-2.727,11.8-14.094,11.8-14.094-2.52-5.375-6.527-22.96-5.937-37.941s7.719-39.023,7.719-39.023v.081c-.045,1.2-.579,15.268-.605,24.954-.012,1.345-.012,2.62.009,3.748.153,9.64,0,37.24,0,37.24s12.462,10.239,40.807,10.906,47.924-8.236,47.924-8.236-.295-9.642.295-21.214c.276-5.366.711-14.26,1.113-22.32.462-9.32.89-17.5.97-17.741.012-.026.026-.012.052.043.49.837,3.625,11.413,5.433,28.15,1.93,17.8-2.966,39.36-2.966,39.36,9.35,4.628,13.8,14.458,13.8,14.458,7.862-8.492,16.14-36.983,16.32-58.269.2-23.52-5.031-54.108-23.442-71.22C119.953,47.22,109.2,42.947,102.11,40.933c-.221-.061-.436-.124-.649-.176-1.185-.322-2.245-.59-3.2-.819-.275,1.209-.571,2.331-.892,3.293C94.4,52.284,82.274,51.574,76.6,50.9c-5.359-.627-11.189-2.864-13.665-11.776a.9.9,0,0,1-.152.017c-.933.134-1.868.277-2.777.445-.223.036-.436.081-.65.126C39.83,43.491,25.336,56.21,14.571,75.13,2.261,96.8-2.636,124.842,1.369,148.577" transform="translate(-0.001 17.408)" fill="#e9632e"/>
              <path id="Trazado_143443" data-name="Trazado 143443" d="M38.331,24.68s1-2.559,3.67,0S40.109,36.365,35.549,35.7c0,0,1.332-8.235,2.781-11.019" transform="translate(63.305 10.475)" fill="#ed875f"/>
              <path id="Trazado_143444" data-name="Trazado 143444" d="M69.552,23.046c-1.024-1.3-2.339-2.448-3.339-.668s-.88,11.684,3.955,11.574c0,0,.484-9.5-.616-10.906" transform="translate(-7.756 9.55)" fill="#ed875f"/>
              <path id="Trazado_143445" data-name="Trazado 143445" d="M11.9,278.514c6.379,1.782,13.948,1.63,14.39,0a2.944,2.944,0,0,0,.061-.316c5.291,1.943,20.018,12.4,20.714,13.373.743,1.037-21.367,1.49-37.837-.444,0,0,.139-10.022,1.74-13.464a4.228,4.228,0,0,0,.932.851" transform="translate(97.039 123.537)" fill="#c54325"/>
              <path id="Trazado_143446" data-name="Trazado 143446" d="M89.75,276.082a4.739,4.739,0,0,0,2.679,2.247c3.45,1.113,11.461,2.172,14.874-2.115,0,0,1.485,12.5.594,14.432s-34.275,2.631-37.094,2.481c-2.565-.133,15.66-14.474,18.947-17.044" transform="translate(-52.667 122.834)" fill="#e9632e"/>
              <path id="Trazado_143447" data-name="Trazado 143447" d="M18.56,255.259c.152,16.614,6.678,72.7,7.717,78.345.24,1.28.472,2.429.721,3.445.062.259.134.516.2.756a13.224,13.224,0,0,0,1.263,3.2,4.75,4.75,0,0,0,2.673,2.244c3.453,1.113,11.465,2.17,14.875-2.12a10.236,10.236,0,0,0,.66-3.3l.078-.715c1.594-15.534,2.526-70.638,2.526-80.219,0-10.977,6.681-45.7,10.533-60.386s7.425-28.79,10.4-28.605,4.293,4.122,5.628,11.984,11.724,46,12.764,60.536,3.856,47.48,4.593,66.475a164.653,164.653,0,0,0,4.684,32.4c.062.25.121.507.188.74.185.666.354,1.253.514,1.773a4.1,4.1,0,0,0,.811,1.478,4.432,4.432,0,0,0,.923.853c6.385,1.783,13.954,1.628,14.4,0a2.4,2.4,0,0,0,.064-.321c.071-.444.188-1.316.329-2.53.035-.238.061-.5.1-.761,1.537-12.991,6.08-56.847,6.339-70.129.292-15.435,1.032-50.155,0-72.259-.571-12.119-1.941-30.242-3.413-44.579-.025-.221-.043-.442-.069-.665-1.183-11.5-2.43-20.4-3.348-21.528a51.254,51.254,0,0,1-13.745,11.523c-.2.114-.409.23-.621.342a44.443,44.443,0,0,1-4.924,2.378c-5.956,2.449-14.165,3.767-22.64,4.043-.233.007-.452.007-.685.016q-2.659.069-5.332,0c-.233,0-.465-.009-.694-.016a79.371,79.371,0,0,1-20.8-3.151A36.425,36.425,0,0,1,33.7,139.652c-.186-.162-.374-.314-.561-.471-5.189-4.426-8.821-9-9.091-9,0,0-1.272,14.77-2.474,28.531-.027.259-.053.526-.072.785-.62,7.158-1.228,13.961-1.611,18.163-1.13,12.4-1.485,60.981-1.334,77.6" transform="translate(8.627 57.918)" fill="#4c5346"/>
              <path id="Trazado_143448" data-name="Trazado 143448" d="M37.633,23.692c.11-6.564,3.786-16.024,6.678-19.028S47.2,2.105,48.092,2.548s.225,2.227.225,2.227c2.669-1.89,10.57-7.008,18.8-3.672,0,0,8.694,2.115,11.526,10.906s-.4,20.921-1.179,25.929c-.65,4.2-1.6,13.107-3.042,19.405-.276,1.209-.572,2.331-.886,3.3-2.968,9.051-15.1,8.342-20.775,7.674C47.409,67.684,41.577,65.44,39.1,56.534c-.144-.529-.286-1.071-.407-1.646-2.279-10.72-1.166-24.629-1.058-31.2M39.08,37.938c1.558,3.672,9.012,8.236,16.358,8.791s14.243.779,16.8-2.448S77.694,30.26,76.8,25.473s-3.9-6.671-9.125-6.787c-5.008-.113-11.8-3.115-16.026-4.674s-8.122,1.559-9.9,5.231-4.226,15.024-2.67,18.7" transform="translate(23.828 0)" fill="#7a625d"/>
              <path id="Trazado_143449" data-name="Trazado 143449" d="M56.073,42.541c-7.346-.555-14.8-5.119-16.358-8.791s.887-15.024,2.669-18.7,5.677-6.787,9.9-5.231S63.307,14.385,68.315,14.5c5.229.116,8.233,2,9.123,6.787s-2,15.579-4.562,18.808-9.458,3-16.8,2.448" transform="translate(23.193 4.188)" fill="#ed875f"/>
              <path id="Trazado_143450" data-name="Trazado 143450" d="M79.682,156.722c6.313-2.9,10.718-15.186,12.2-19.842-.186-.162-.374-.314-.562-.471-1.352,4.264-5.654,16.432-11.565,19.528-.026.26-.052.526-.071.785" transform="translate(-49.55 60.691)" fill="#1f1f1e"/>
              <path id="Trazado_143451" data-name="Trazado 143451" d="M80.258,148.862a42.469,42.469,0,0,0,3,9.5c2.011,4.007,5.342,8.349,6.348,7.352.472-.471.205-1.344-.215-2.128l-.007-.009a11.438,11.438,0,0,0-1.085-1.628,18.462,18.462,0,0,0,2.465,1.842.349.349,0,0,0,.052.026c.748.429,1.452.668,1.79.331.384-.383.152-1.335-.223-2.323-.188-.472-.409-.945-.616-1.361-.007-.02-.007-.02-.016-.02-.338-.694-.64-1.209-.686-1.287.16.2,3.143,4.067,4.55,2.767.873-.811-.081-2.591-.981-3.874a17.69,17.69,0,0,0-1.113-1.441c.179.15.348.295.516.416a5.3,5.3,0,0,0,1.417.8c1.627.568,2.3-.642,1.085-2.468-1.637-2.448-4.265-10.458-3.7-11.241s7.23,4.342,8.12,3.115-7.3-11.36-8.9-12.465c0,0-8.459,11.369-11.8,14.094" transform="translate(-59.527 59.961)" fill="#ed875f"/>
              <path id="Trazado_143452" data-name="Trazado 143452" d="M40.453,21.064c-.659-.458.445-2.818,4.9-2.818s5.936,2.818,5.564,3.264-3.043-.813-5.716-.666-4,.741-4.747.22" transform="translate(48.297 8.118)" fill="#7a625d"/>
              <path id="Trazado_143453" data-name="Trazado 143453" d="M65.557,21.068c1.15-.34-.592-3.339-4.673-3.487s-5.564,1.631-5.34,2.3,2,.1,4.377.347,4.374,1.215,5.637.842" transform="translate(11.336 7.819)" fill="#7a625d"/>
              <path id="Trazado_143454" data-name="Trazado 143454" d="M38.309,39.573A25.35,25.35,0,0,0,43.74,50.805c3.917,4.505,9.22,6.785,15.784,6.785h.337c9.953-.116,15.268-5.047,17.965-9.169a23.7,23.7,0,0,0,3.241-7.631c-.221-.061-.436-.124-.649-.176-.945,4.014-5.075,16.128-20.564,16.309-6.42.081-11.6-2.065-15.429-6.356a24.842,24.842,0,0,1-5.468-11.12c-.221.036-.435.081-.649.126" transform="translate(21.044 17.551)" fill="#1f1f1e"/>
              <path id="Trazado_143455" data-name="Trazado 143455" d="M53.755,36.881c1.667,0,3.423-.223,3.757-.605.358-.422-.116-5.384-1.409-14.755a.333.333,0,0,0-.66.092c.692,5.028,1.705,13.208,1.533,14.237a13.959,13.959,0,0,1-5.661.15,2.551,2.551,0,0,1-1.708-.853.333.333,0,1,0-.575.335c.423.728,1.543,1.178,3.329,1.341.432.039.91.058,1.394.058m3.208-.977h0Z" transform="translate(29.057 9.447)" fill="#1f1f1e"/>
              <path id="Trazado_143456" data-name="Trazado 143456" d="M55.033,36.807a18.564,18.564,0,0,0,3.2-.263.334.334,0,0,0-.123-.656c-.043.009-4.669.853-8.063-.643a.333.333,0,1,0-.269.608,13.3,13.3,0,0,0,5.258.954" transform="translate(27.332 15.668)" fill="#1f1f1e"/>
              <path id="Trazado_143457" data-name="Trazado 143457" d="M37.434,29.634a.336.336,0,0,0,.331-.3c.111-1.1,1.462-2.4,1.972-2.816A.333.333,0,1,0,39.32,26c-.085.065-2.056,1.662-2.219,3.267a.34.34,0,0,0,.3.368h.032" transform="translate(63.996 11.533)" fill="#1f1f1e"/>
              <path id="Trazado_143458" data-name="Trazado 143458" d="M68.6,28.371h.026a.335.335,0,0,0,.306-.36c-.155-1.965-2-4.261-2.081-4.356a.334.334,0,1,0-.517.422c.016.023,1.8,2.235,1.932,3.987a.338.338,0,0,0,.334.308" transform="translate(-7.217 10.47)" fill="#1f1f1e"/>
              <path id="Trazado_143459" data-name="Trazado 143459" d="M46.6,31.119a4.267,4.267,0,1,0-4.265-4.268A4.273,4.273,0,0,0,46.6,31.119m0-7.866a3.6,3.6,0,1,1-3.6,3.6,3.6,3.6,0,0,1,3.6-3.6" transform="translate(45.428 10.048)" fill="#1f1f1e"/>
              <path id="Trazado_143460" data-name="Trazado 143460" d="M58.6,30.908a4.736,4.736,0,1,0-4.732-4.735A4.741,4.741,0,0,0,58.6,30.908m0-8.8a4.067,4.067,0,1,1-4.065,4.065A4.073,4.073,0,0,1,58.6,22.109" transform="translate(16.284 9.538)" fill="#1f1f1e"/>
              <path id="Trazado_143461" data-name="Trazado 143461" d="M56.916,25.908a.334.334,0,0,0,.118-.647,16.217,16.217,0,0,0-9.006-.423.334.334,0,0,0,.165.647,15.81,15.81,0,0,1,8.6.4.375.375,0,0,0,.118.023" transform="translate(31.179 10.849)" fill="#1f1f1e"/>
              <path id="Trazado_143462" data-name="Trazado 143462" d="M70.4,25.891a.335.335,0,0,0,.308-.208.331.331,0,0,0-.178-.435L60.425,21.019a.333.333,0,1,0-.257.614l10.106,4.232a.323.323,0,0,0,.127.026" transform="translate(0.087 9.34)" fill="#1f1f1e"/>
              <path id="Trazado_143463" data-name="Trazado 143463" d="M38.094,26.385a.463.463,0,0,0,.114-.02l6.61-2.4a.336.336,0,0,0-.228-.631l-6.61,2.406a.335.335,0,0,0,.114.649" transform="translate(57.866 10.372)" fill="#1f1f1e"/>
              <path id="Trazado_143464" data-name="Trazado 143464" d="M83.874,88.513a.338.338,0,0,0,.334-.319c.13-3.832,2.134-18.515,2.156-18.661a.338.338,0,0,0-.286-.377.331.331,0,0,0-.377.286c-.082.605-2.027,14.864-2.162,18.728a.334.334,0,0,0,.322.344Z" transform="translate(-49.61 30.767)" fill="#1f1f1e"/>
              <path id="Trazado_143465" data-name="Trazado 143465" d="M21.271,139.367c.007.019.007.045.014.065.519,1.724,5.564,9.89,17.77,10.262-.025-.221-.043-.442-.069-.666-12.046-.409-16.8-8.59-17.056-9.792a.351.351,0,0,0-.038-.212.332.332,0,0,0-.454-.127.394.394,0,0,0-.168.471" transform="translate(87.695 61.778)" fill="#1f1f1e"/>
              <path id="Trazado_143466" data-name="Trazado 143466" d="M11.35,147.072c.889,1.22,7.8-1.9,8.573-.891s-.444,8.683-1.666,11.689c-.881,2.156-.73,3.677.01,3.917a1.241,1.241,0,0,0,1.078-.338,9.058,9.058,0,0,0-.9,1.007c-.4.533-.738,1.147-.525,1.532.337.585,2.636-.088,3.748-.464h.009c.285-.1.488-.169.561-.2-.17.126-1.283.881-1.487,1.487-.126.329.016.614.73.73,2.118.338,7.017-4.449,9.243-7.674s5.889-10.023,5.889-10.023-4.447-9.83-13.8-14.458c-1.335,1.334-12.357,12.462-11.465,13.683" transform="translate(104.525 59.347)" fill="#ed875f"/>
              <path id="Trazado_143467" data-name="Trazado 143467" d="M19.975,157.607c4.247-2.19,6.232-10.968,5.84-13.046a.331.331,0,1,0-.65.127c.338,1.825-1.613,10.12-5.368,12.249a1.235,1.235,0,0,0,1.078-.337,9.058,9.058,0,0,0-.9,1.007" transform="translate(102.994 64.196)" fill="#1f1f1e"/>
              <path id="Trazado_143468" data-name="Trazado 143468" d="M17.459,158.2c4.043-1.9,6.287-6.855,6.953-9.535a.333.333,0,0,0-.241-.409.342.342,0,0,0-.409.241c-.569,2.287-2.323,6.3-5.377,8.412.286-.1.488-.169.561-.2-.17.126-1.282.883-1.487,1.488" transform="translate(107.815 65.959)" fill="#1f1f1e"/>
              <path id="Trazado_143469" data-name="Trazado 143469" d="M84.127,144.721a20.593,20.593,0,0,0,6.124,9.091,17,17,0,0,0-1.139-1.469,6,6,0,0,0,1.958,1.247,20.36,20.36,0,0,1-6.313-9.062.331.331,0,0,0-.418-.225.339.339,0,0,0-.212.419" transform="translate(-55.141 64.196)" fill="#1f1f1e"/>
              <path id="Trazado_143470" data-name="Trazado 143470" d="M86.286,148.058a31.837,31.837,0,0,0,7.069,8.076c-.188-.472-.409-.945-.616-1.361-.007-.022-.007-.022-.017-.022a34.018,34.018,0,0,1-5.868-7.031.33.33,0,1,0-.568.338" transform="translate(-60.496 65.651)" fill="#1f1f1e"/>
              <path id="Trazado_143471" data-name="Trazado 143471" d="M87.379,149.854a19.219,19.219,0,0,0,4.986,7.209,11.365,11.365,0,0,0-1.087-1.628,18.437,18.437,0,0,0,2.465,1.842c-3.854-2.662-5.716-7.6-5.741-7.654a.333.333,0,1,0-.624.231" transform="translate(-62.506 66.473)" fill="#1f1f1e"/>
              <path id="Trazado_143472" data-name="Trazado 143472" d="M52.641,143.653l2.227,8.519a.318.318,0,0,0,.309.251c.045.007.722.026,1.318.026.311,0,.605-.007.774-.026.277-.027.642-.056,2.082-8.771-.233.007-.452.007-.685.014-.6,3.565-1.3,7.368-1.6,8.1-.419.01-1.209,0-1.62-.009l-2.11-8.1c-.233,0-.465-.007-.694-.014" transform="translate(22.051 63.914)" fill="#1f1f1e"/>
              <path id="Trazado_143473" data-name="Trazado 143473" d="M22.26,109.356a99.711,99.711,0,0,1,15.891-2.332c11.715-.89,29.822.588,48.367,2.227a145.447,145.447,0,0,0,25.889.23c.462-9.32.89-17.5.97-17.741.012-.027.026-.012.052.043-.016-4.45.428-8.8.428-8.8-8.269-3.7-33.571-6.829-54.34-7.719a106.911,106.911,0,0,0-36.169,4.469c-.074.6-.251,2.323-.481,4.664-.045,1.2-.579,15.268-.605,24.954" transform="translate(11.444 33.444)" fill="#c54325"/>
              <path id="Trazado_143474" data-name="Trazado 143474" d="M21.52,93.824h.023a.33.33,0,0,0,.309-.355c-.172-2.768.5-9,1.039-14.014.379-3.5.705-6.528.705-7.886a.333.333,0,0,0-.666,0c0,1.322-.324,4.333-.7,7.813-.572,5.3-1.221,11.305-1.042,14.131a.338.338,0,0,0,.332.314" transform="translate(103.298 31.693)" fill="#1f1f1e"/>
              <path id="Trazado_143475" data-name="Trazado 143475" d="M44.944,24.226c0,1.41.39,2.552.87,2.552s.87-1.141.87-2.552-.389-2.555-.87-2.555-.87,1.141-.87,2.555" transform="translate(45.84 9.642)" fill="#1f1f1e"/>
              <path id="Trazado_143476" data-name="Trazado 143476" d="M56.8,23.779c0,1.409.392,2.555.873,2.555s.868-1.146.868-2.555-.39-2.555-.868-2.555-.873,1.144-.873,2.555" transform="translate(16.839 9.443)" fill="#1f1f1e"/>
              <path id="Trazado_143477" data-name="Trazado 143477" d="M24.743,127.2a36.684,36.684,0,0,0,7.905,4.421c6.548,2.859,17.319,6.119,32.9,6.485a127.438,127.438,0,0,0,40.463-5.525,71.083,71.083,0,0,0,7.463-2.709l.89,2.819a51.242,51.242,0,0,1-19.287,14.244c-12.91,5.3-36.353,5.3-50.152.892C34.053,144.353,24.151,131.5,23.7,131.5s1.039-4.306,1.039-4.306" transform="translate(8.971 56.592)" fill="#c9dedc"/>
              <path id="Trazado_143478" data-name="Trazado 143478" d="M24.8,215.207a.334.334,0,0,0,.236-.1l5.949-5.936a.334.334,0,0,0-.47-.474l-5.952,5.936a.334.334,0,0,0,0,.474.33.33,0,0,0,.237.1" transform="translate(91.023 92.812)" fill="#1f1f1e"/>
              <path id="Trazado_143479" data-name="Trazado 143479" d="M85.8,215.933c.717,0,1.108-.087,1.29-.3a.474.474,0,0,0,.094-.439.332.332,0,0,0-.647.017,17.191,17.191,0,0,1-3.461-.118,19.84,19.84,0,0,0-3.494-.142.333.333,0,1,0,.1.659,20.647,20.647,0,0,1,3.341.146c1.238.111,2.138.181,2.78.181" transform="translate(-44.323 95.616)" fill="#1f1f1e"/>
              <path id="Trazado_143480" data-name="Trazado 143480" d="M23.281,274.907c.062.25.123.5.188.73a47.894,47.894,0,0,0,12.025,1.842,18.963,18.963,0,0,0,5.014-.59c.035-.238.061-.5.1-.761-2.948.891-8.188,1.218-17.325-1.221" transform="translate(83.219 122.311)" fill="#1f1f1e"/>
              <path id="Trazado_143481" data-name="Trazado 143481" d="M70.656,273.349c.062.259.134.516.2.756a32.853,32.853,0,0,0,19.473.019c.025-.225.051-.464.077-.714a32.148,32.148,0,0,1-19.746-.061" transform="translate(-35.03 121.618)" fill="#1f1f1e"/>
              <path id="Trazado_143482" data-name="Trazado 143482" d="M40.977,39.143c.652,4.158,3.143,14,17.947,13.88C76.6,52.871,75.856,42.8,76.453,39.937c-.273,1.209-.569,2.332-.89,3.294C72.6,52.285,60.472,51.573,54.793,50.9c-5.359-.629-11.189-2.865-13.665-11.778a.788.788,0,0,1-.152.017" transform="translate(21.803 17.408)" fill="#1f1f1e"/>
            </g>
          </g>
        </g>
      </g>
      <path id="Uni칩n_15" data-name="Uni칩n 15" d="M25.045,2.417l2.1,7.8H22.938A22.8,22.8,0,0,0,0,32.886v13.2A22.8,22.8,0,0,0,22.938,68.755H72A22.8,22.8,0,0,0,94.944,46.089v-13.2A22.8,22.8,0,0,0,72,10.22H36.033L28.438.737A1.88,1.88,0,0,0,26.947,0,1.922,1.922,0,0,0,25.045,2.417Z" transform="translate(126.606 68.755) rotate(180)" fill="#fff7da" stroke="rgba(0,0,0,0)" stroke-miterlimit="10" stroke-width="1"/>
      <path id="Trazado_142983" data-name="Trazado 142983" d="M-11.023.732l5.039,5.039L-.989.732-5.984-4.262Zm18.7,0,5.039,5.039L17.715.732,12.721-4.262Zm18.7,0,5.039,5.039L36.42.732,31.426-4.262Z" transform="translate(66.41 33.262)" fill="#12263f"/>
    </g>
  </g>
</svg>
