<svg id="Grupo_159037" data-name="Grupo 159037" xmlns="http://www.w3.org/2000/svg" xmlns:xlink="http://www.w3.org/1999/xlink" width="151.766" height="151.775" viewBox="0 0 151.766 151.775">
  <defs>
    <clipPath id="clip-path">
      <rect id="Rectángulo_37590" data-name="Rectángulo 37590" width="151.766" height="151.775" fill="none"/>
    </clipPath>
  </defs>
  <g id="Grupo_159037-2" data-name="Grupo 159037" transform="translate(0 0)" clip-path="url(#clip-path)">
    <path id="Trazado_136076" data-name="Trazado 136076" d="M0,83.377a.2.2,0,0,1,.25-.063c.108.545.232,1.094-.25,1.545Z" transform="translate(0 32.52)" fill="#444"/>
    <path id="Trazado_136077" data-name="Trazado 136077" d="M0,85.486A1.774,1.774,0,0,1,.264,87,.59.59,0,0,0,0,86.968Z" transform="translate(0 33.375)" fill="#686868"/>
    <path id="Trazado_136078" data-name="Trazado 136078" d="M42.179,77.853c-1.6-1.986-2.653-2.175-4.958-.944a21.328,21.328,0,0,0-4.388,2.981c-5.022,4.563-4.793,10.435.565,14.638,4.287,3.361,9.3,5.108,14.483,6.389a110.942,110.942,0,0,0,30.837,2.836c8.751-.318,17.4-1.276,25.78-3.978,4.239-1.368,8.345-3.056,11.6-6.253,4.271-4.2,4.111-9.587-.4-13.547-4.153-3.642-9.235-5.371-14.445-6.771a89.407,89.407,0,0,0-12.368-2.34c2.087-2.615,4.057-5.086,6.029-7.556l7.664,1.194c.488.239.414.737.506,1.147a2.346,2.346,0,0,0,1.826,1.9,2.442,2.442,0,0,0,2.635-.847c.311-.366.509-.851,1.032-1l7.376,2.051c-.065,2.417.364,3.094,2.707,3.927,6.433,2.287,12.667,4.967,18.081,9.234,3.309,2.607,6.105,5.623,7.123,9.889.961,4.02-.555,7.368-2.984,10.4-3.311,4.138-7.685,6.916-12.351,9.231-9.542,4.736-19.741,7.3-30.217,8.9a160.483,160.483,0,0,1-38.262,1.178c-13.728-1.2-27.145-3.793-39.676-9.84a37.312,37.312,0,0,1-12.4-8.936c-4.985-5.761-4.883-12.023.293-17.642,3.96-4.3,8.882-7.17,14.136-9.515,10.178-4.54,20.936-6.884,31.934-8.3a2.079,2.079,0,0,1,2.247.915c1.58,2.2,3.265,4.323,4.908,6.478-.1.108-.192.241-.339.267-2.928.534-5.854,1.093-8.819,1.389a1.072,1.072,0,0,1-.562-.138,3.725,3.725,0,0,1-.918-.95,2.476,2.476,0,0,0-4.417,1.268,2.032,2.032,0,0,1-.353,1.261c-1.264.494-2.43,1.335-3.9,1.086" transform="translate(1.68 24.717)" fill="#c8f2fe"/>
    <path id="Trazado_136079" data-name="Trazado 136079" d="M80.976,66.023c-1.085,2.209-2.649,2.928-4.415,2.015a3.088,3.088,0,0,1-1.584-3.21c.831-1.8,2.009-2.581,3.475-2.3,1.549.3,2.38,1.454,2.524,3.491" transform="translate(29.271 24.391)" fill="#010101"/>
    <path id="Trazado_136080" data-name="Trazado 136080" d="M33.514,74.944a25.878,25.878,0,0,1,3.822-1.215c.435.068.628.448.911.715a2.573,2.573,0,0,0,2.682.816,2.354,2.354,0,0,0,1.706-2.191c.04-.382.026-.805.432-1.044,2.67.04,5.2-.95,7.85-1.065.637-.028,1.269-.131,1.9-.2Q57.363,76.5,61.9,82.239c.367.464.713.945,1.093,1.4,1.52,1.823,3.5,1.846,5-.024,2.225-2.77,4.442-5.551,6.546-8.412a3.26,3.26,0,0,1,3.509-1.554,79.943,79.943,0,0,1,18,3.954,25.238,25.238,0,0,1,6.52,3.419c2.632,1.979,2.7,3.783.157,5.863-3.445,2.814-7.594,4.149-11.8,5.218a104.347,104.347,0,0,1-29.659,2.835,91.01,91.01,0,0,1-24.051-3.687,28.309,28.309,0,0,1-8.145-3.774c-3.4-2.426-3.429-4.285-.111-6.752a24.3,24.3,0,0,1,2.373-1.492c2.168-1.253,2.51-1.908,2.179-4.291" transform="translate(10.346 27.626)" fill="#72d7fe"/>
    <path id="Trazado_136081" data-name="Trazado 136081" d="M40.024,72.266c.1,2.106-.523,3.194-2.1,3.673-1.374.417-2.61-.253-3.629-1.967-.022-2.946,1.866-4.554,4.121-3.525a3.264,3.264,0,0,1,1.61,1.819" transform="translate(13.389 27.382)" fill="#010101"/>
    <path id="Trazado_136082" data-name="Trazado 136082" d="M150.706,112.122c-1.781-5.026-5.352-8.675-9.488-11.83-5.913-4.509-12.671-7.332-19.638-9.711-1.721-.588-2.861.013-3.957,1.884a2.688,2.688,0,0,0,1.193,3.648,15.414,15.414,0,0,0,2.857,1.219,64.078,64.078,0,0,1,12.216,5.645,29.419,29.419,0,0,1,9.185,8.038c3.041,4.341,3.069,8.854.163,13.263-2.464,3.735-5.941,6.3-9.681,8.559-7.447,4.5-15.649,7.03-24.036,9.011a150.95,150.95,0,0,1-27.863,3.544,149.61,149.61,0,0,1-20.7-.612,134.727,134.727,0,0,1-24.456-4.4c-7.542-2.143-14.805-4.928-21.276-9.481a24.172,24.172,0,0,1-7.1-7.251,10.44,10.44,0,0,1-1.193-9.079,18.058,18.058,0,0,1,6.015-8.091c5.919-4.919,12.885-7.822,20.1-10.182a122.171,122.171,0,0,1,22.414-4.814,2.735,2.735,0,0,1,2.835,1.126c1.495,2.027,3.09,3.978,4.62,5.979q4.686,5.825,9.189,11.794c2.924,3.886,5.236,3.006,7.483-.038,1.934-2.621,4.025-5.122,6-7.714a2.059,2.059,0,0,1,1.987-.984,76.954,76.954,0,0,1,17.38,3.476,26.092,26.092,0,0,1,7.636,3.851c2.464,1.877,2.49,3.4.095,5.327a23.065,23.065,0,0,1-6.643,3.519c-9.113,3.343-18.648,4.085-28.226,4.476a101.936,101.936,0,0,1-12.843-.563,71.466,71.466,0,0,1-19.783-4.118c-2.66-1.025-5.306-2.18-7.243-4.448a2.093,2.093,0,0,1-.043-2.942,9.47,9.47,0,0,1,1.6-1.528c.962-.788,2.125-1.256,3.119-1.988a3.449,3.449,0,0,0,1.47-4.235c-1.285-2.015-2.588-2.425-4.761-1.479a18.431,18.431,0,0,0-5.792,4.052,9.552,9.552,0,0,0-2.747,4.5c-.941,4.091.738,7.254,3.782,9.787a32.835,32.835,0,0,0,11.595,5.783c9.145,2.825,18.584,3.61,28.074,3.907A119.757,119.757,0,0,0,89.6,128.2a75.1,75.1,0,0,0,19.743-4.424,28.273,28.273,0,0,0,8.073-4.611c4.8-4,5.047-9.769.7-14.231-2.85-2.93-6.456-4.5-10.17-5.88a77.624,77.624,0,0,0-14.969-3.547c-1.621-.259-1.625-.307-.58-1.625,1.168-1.47,2.293-2.973,3.482-4.426a2.258,2.258,0,0,0,.7-1.434c1.34-1.762,2.692-3.516,4.02-5.289,4.255-5.677,9.195-10.87,12.749-17.037,7.318-12.7,8.248-26.03,2.4-39.438-5.8-13.283-16.065-21.618-30.193-25.136C83.724.668,81.8.741,80.03,0h-.888c-.3.463-.594.382-.89,0H73.806c-.11.309-.349.3-.606.247-.243.033-.5.095-.58-.247H71.434c-1.77.416-3.607.275-5.386.713A44.018,44.018,0,0,0,41.475,16.258,42.907,42.907,0,0,0,32,46.937a43.028,43.028,0,0,0,8.889,23.349c3.43,4.526,7,8.942,10.455,13.45,1.016,1.326,1.008,1.356-.591,1.607a116.315,116.315,0,0,0-28.486,7.842c-6.624,2.881-12.792,6.478-17.574,12.029-2.617,3.037-4.619,6.417-4.54,10.642-.071.506.157,1.041-.153,1.523v1.482c.356.457-.028,1.046.264,1.514a18.758,18.758,0,0,0,4.854,9.946c5.042,5.717,11.51,9.362,18.427,12.251,12.03,5.024,24.683,7.443,37.6,8.559a167.488,167.488,0,0,0,39.278-1.162c11.4-1.7,22.487-4.523,32.846-9.744a41.957,41.957,0,0,0,13.444-9.993c4.515-5.3,6.414-11.272,3.992-18.11M45.7,66.125A36.932,36.932,0,0,1,38.2,43.51,37.723,37.723,0,0,1,68.478,6.664c17.806-3.689,36.4,6.57,42.561,23.675,4.918,13.655,2.521,26.184-6.367,37.562Q90.68,85.812,76.715,103.747c-.57.731-.868,1.162-1.662.139-9.765-12.6-19.6-25.146-29.353-37.761" transform="translate(0 0)"/>
    <path id="Trazado_136083" data-name="Trazado 136083" d="M57.169,0h-.89c.3.384.594.463.89,0" transform="translate(21.972 0)" fill="#7a7a7a"/>
    <path id="Trazado_136084" data-name="Trazado 136084" d="M52.81.248c.007-.082.011-.165.013-.247h-.594c.083.342.338.282.581.247" transform="translate(20.391 0)" fill="#7d7d7d"/>
    <path id="Trazado_136085" data-name="Trazado 136085" d="M52.647.248c.257.053.5.061.6-.247H52.66c0,.082-.006.165-.013.247" transform="translate(20.554 0)" fill="#646464"/>
    <path id="Trazado_136086" data-name="Trazado 136086" d="M65.991,102.087Q79.95,84.148,93.946,66.239c8.889-11.376,11.285-23.907,6.368-37.561C94.154,11.573,75.56,1.315,57.754,5A37.726,37.726,0,0,0,27.473,41.85a36.932,36.932,0,0,0,7.5,22.615c9.748,12.615,19.588,25.158,29.353,37.76.794,1.025,1.091.594,1.662-.138M38.752,46.349a26.645,26.645,0,0,1,32.865-29.6c2.547.62,3.274,1.548,3.062,4.15a26.448,26.448,0,0,1,4.955,2.956c1.221-.98,2.517-1.377,3.918-.393a2.849,2.849,0,0,1,1.182,3.233,4.828,4.828,0,0,1-.9,1.5,19.157,19.157,0,0,1,2.97,4.84c2.8-.143,3.48.467,4.195,3.383a26.814,26.814,0,0,1-15.06,30.573c-15.916,7.2-34.986-3.326-37.191-20.637" transform="translate(10.726 1.661)" fill="#fe5d5d"/>
    <path id="Trazado_136087" data-name="Trazado 136087" d="M72.842,63.707A26.816,26.816,0,0,0,87.9,33.133c-.715-2.914-1.39-3.526-4.195-3.381-1.831,1.274-2.169,2.113-1.613,4.4a20.2,20.2,0,0,1-.071,10.523A20.743,20.743,0,0,1,41.707,43.6a20.82,20.82,0,0,1,8.436-21.269,20.6,20.6,0,0,1,16.895-3.11c2.435.571,3.283.263,4.54-1.607.213-2.6-.514-3.53-3.062-4.152A26.648,26.648,0,0,0,35.651,43.07C37.856,60.379,56.925,70.9,72.842,63.707" transform="translate(13.827 4.941)"/>
    <path id="Trazado_136088" data-name="Trazado 136088" d="M65.33,22.666c1.005,1.039,2.309,1.133,4.042.292a4.8,4.8,0,0,0,.9-1.5,2.843,2.843,0,0,0-1.182-3.233c-1.4-.983-2.7-.588-3.918.393-.914,1.66-.861,2.994.161,4.048" transform="translate(25.19 6.893)" fill="#010101"/>
  </g>
</svg>
