<svg id="Grupo_162075" data-name="Grupo 162075" xmlns="http://www.w3.org/2000/svg" xmlns:xlink="http://www.w3.org/1999/xlink" width="122.728" height="152.3" viewBox="0 0 122.728 152.3">
  <defs>
    <clipPath id="clip-path">
      <rect id="Rectángulo_38829" data-name="Rectángulo 38829" width="122.728" height="152.3" fill="none"/>
    </clipPath>
  </defs>
  <g id="Grupo_162074" data-name="Grupo 162074" clip-path="url(#clip-path)">
    <path id="Trazado_142749" data-name="Trazado 142749" d="M84.284,17.4c1.838-.043,2.421.4,2.92,2.232A26.869,26.869,0,0,1,75.5,49.671c-1.138.715-2.047,1.471-2.082,2.99a2.444,2.444,0,0,0,1.417,2.656,6.46,6.46,0,0,1,3.473,6.268A6.978,6.978,0,0,1,74.5,67.707c-.422.243-1.255.241-.985,1.015.206.59.873.264,1.319.265Q89.918,69.016,105,69c4.946,0,7.806,2.879,7.822,7.847.005,1.986.012,2.09,1.9,1.968,4.283-.279,8.039,2.91,8,8.052q-.2,28.237,0,56.475c.031,4.459-1.459,7.506-5.77,8.954H40.517a2.237,2.237,0,0,1-1.867-2.519,2.755,2.755,0,0,1,2.658-2.366,10.135,10.135,0,0,1,1.483-.057q34.678-.007,69.356,0c.2,0,.4.006.592.024a19.457,19.457,0,0,0,2.671-.077,2.341,2.341,0,0,0,2.232-2.345c.037-.395.03-.792.03-1.189q0-28.173,0-56.346a10.281,10.281,0,0,0-.055-1.484,2.846,2.846,0,0,0-3.913-2.012.915.915,0,0,0-.469.856c-.037.544-.021,1.09-.021,1.635q-.007,24.754,0,49.507a7.688,7.688,0,0,1-6.964,6.966,16.966,16.966,0,0,1-1.931.067q-42.957,0-85.916.013a9.2,9.2,0,0,1-6.584-2.2,7.429,7.429,0,0,1-2.41-5.848q.018-9.365,0-18.73,0-15.014,0-30.028c0-2.107-.122-2.307-1.373-2.373a2.549,2.549,0,0,0-3.018,2.5c-.035.494-.018.991-.018,1.486Q5,115.5,5,143.219a18.582,18.582,0,0,0,.046,1.932,2.276,2.276,0,0,0,1.965,2.116,8.667,8.667,0,0,0,1.926.1c7.432,0,14.864-.013,22.3.01,2.272.006,2.874.436,3.584,2.367a2.363,2.363,0,0,1-1.737,2.557H5.419c-.639-.332-1.3-.624-1.913-1.005A7.016,7.016,0,0,1,0,144.991Q.008,132.8,0,120.614q0-16.871,0-33.743c0-5.23,2.83-8.079,8.1-8,1.378.021,1.928-.228,1.776-1.73-.511-5.031,3.458-8.294,8.1-8.2,9.955.2,19.916.064,29.874.045.445,0,1.111.327,1.314-.272.261-.771-.56-.766-.987-1.013a6.984,6.984,0,0,1-3.815-6.119,6.879,6.879,0,0,1,3.575-6.4,2.991,2.991,0,0,0,.335-4.755,8.737,8.737,0,0,0-1.1-.753A26.987,26.987,0,0,1,34.925,21.786,26.6,26.6,0,0,1,56.721.423c9.8-1.616,18.165,1.419,24.867,8.818,1.3,1.439,1.3,2.2.191,3.8-1.246,1.058-2.563.9-3.79-.548a21.941,21.941,0,0,0-8.85-6.233,18.085,18.085,0,0,0-3.275-.9C56.92,3.777,49.519,6.433,43.818,13.526c-6.394,7.955-5.787,20.655,1.247,28.06a26.456,26.456,0,0,0,4.889,4.085c2.455,1.578,4.186,3.644,4.078,6.788-.029.868.409,1.25,1.27,1.26,3.789.042,3.209.123,3.233-3,.024-3.221-.026-6.443.022-9.663.017-1.194-.4-1.775-1.626-1.686a3.022,3.022,0,0,1-.885-.091,2.667,2.667,0,0,1-2.168-2.5,2.492,2.492,0,0,1,2.225-2.57A78.511,78.511,0,0,1,66.5,34.2,2.514,2.514,0,0,1,68.8,36.7a2.671,2.671,0,0,1-2.237,2.59,8.094,8.094,0,0,1-1.332.11,1,1,0,0,0-1.081,1.131c-.029,4.113-.014,8.226-.01,12.339a.736.736,0,0,0,.385.743,4.658,4.658,0,0,0,1.031.121c2.787.093,2.77.092,3.184-2.64.379-2.5,1.993-4.148,4.01-5.427a22.715,22.715,0,0,0,7.435-7.516,21.779,21.779,0,0,0,2.59-16.132,8.993,8.993,0,0,1-.39-2.627c.108-1.156.576-1.991,1.9-2" transform="translate(0 0)"/>
    <path id="Trazado_142750" data-name="Trazado 142750" d="M72.766,5.6A20.654,20.654,0,0,1,84.821,12.64c1.062,1.21,2.149,1.674,3.63.928q1.255,2.177,2.507,4.356c-1.611.866-1.83,1.528-1.35,3.54q3.166,13.292-6.762,22.7a21.028,21.028,0,0,1-3.468,2.545,7.034,7.034,0,0,0-3.691,6.653c.059,1.178-.367,1.457-1.436,1.36s-2.175-.056-3.264-.076a4.629,4.629,0,0,1,.81-4.7,10.724,10.724,0,0,1,2.6-2.185C81.711,42.808,85.527,35.863,85.41,27.08,85.3,18.727,81.565,12.093,74.66,7.289c-.685-.476-1.709-.635-1.894-1.692" transform="translate(-6.672 -0.528)" fill="#fea338"/>
    <path id="Trazado_142751" data-name="Trazado 142751" d="M29.394,10.732a2.284,2.284,0,0,1-1.189,1.99,1.95,1.95,0,0,1-2.36-.165c-2.52-2.44-5.019-4.906-7.428-7.455a1.931,1.931,0,0,1,.18-2.814,1.971,1.971,0,0,1,2.93-.185c2.509,2.38,4.918,4.866,7.351,7.324a2.136,2.136,0,0,1,.517,1.3" transform="translate(-1.689 -0.145)" fill="#010101"/>
    <path id="Trazado_142752" data-name="Trazado 142752" d="M107.155,12.985a2.134,2.134,0,0,1-2.009-1.2,1.9,1.9,0,0,1,.245-2.346c2.41-2.481,4.833-4.953,7.341-7.333a1.968,1.968,0,0,1,2.93.18,2,2,0,0,1,.1,2.942c-2.351,2.468-4.8,4.844-7.221,7.245a1.791,1.791,0,0,1-1.39.513" transform="translate(-9.9 -0.145)" fill="#010101"/>
    <path id="Trazado_142753" data-name="Trazado 142753" d="M115.957,27.239c1.582,0,3.165-.024,4.746.007a2.214,2.214,0,1,1,.112,4.425q-4.893.092-9.788,0a2.221,2.221,0,1,1,.183-4.43c1.582-.024,3.164-.005,4.746-.005" transform="translate(-10.27 -2.571)"/>
    <path id="Trazado_142754" data-name="Trazado 142754" d="M18.133,27.239c1.582,0,3.164-.024,4.745.008a2.214,2.214,0,1,1,.1,4.425q-4.893.091-9.788,0a2.2,2.2,0,0,1-2.267-2.252,2.233,2.233,0,0,1,2.465-2.178c1.582-.022,3.163,0,4.746,0" transform="translate(-1.031 -2.571)"/>
    <path id="Trazado_142755" data-name="Trazado 142755" d="M29.39,47.3a2.659,2.659,0,0,1-.9,1.867c-2.172,2.164-4.323,4.348-6.511,6.5-1.175,1.153-2.418,1.2-3.388.2a2.209,2.209,0,0,1,.2-3.293c2.18-2.225,4.4-4.411,6.6-6.617a2.248,2.248,0,0,1,2.693-.6A2.218,2.218,0,0,1,29.39,47.3" transform="translate(-1.695 -4.262)"/>
    <path id="Trazado_142756" data-name="Trazado 142756" d="M107.1,45.127a2.807,2.807,0,0,1,1.855.893c2.16,2.175,4.347,4.322,6.494,6.51a2.256,2.256,0,0,1,.163,3.407c-.968.913-2.165.86-3.283-.237-2.221-2.182-4.412-4.4-6.609-6.606a2.171,2.171,0,0,1-.652-2.542,2.255,2.255,0,0,1,2.032-1.424" transform="translate(-9.903 -4.261)"/>
    <path id="Trazado_142757" data-name="Trazado 142757" d="M55.062,135.88c-12.583-.024-25.167-.067-37.75-.04-1.239,0-1.541-.308-1.539-1.538q.064-24.824.03-49.649c0-2.7.842-3.532,3.556-3.532,10.107,0,20.214.011,30.321-.021a1.669,1.669,0,0,1,1.889,1.133c.767,1.834,2.39,2.824,4.139,3.6.857,1.056.756,2.324.757,3.554q.014,19.993,0,39.984c0,1.733.066,3.47-.041,5.2-.049.784-.105,1.72-1.367,1.3" transform="translate(-1.489 -7.657)" fill="#e8eefe"/>
    <path id="Trazado_142758" data-name="Trazado 142758" d="M76.593,135.811a13.211,13.211,0,0,0-6.131,2.46c-.43-.4-.257-.871-.257-1.271q-.016-23.835-.008-47.672c0-.3,0-.594.023-.89.153-2.307.154-2.334,2.451-2.374a7.051,7.051,0,0,0,6.763-4.209,1.027,1.027,0,0,1,1.071-.745q14.551.052,29.1.064a2.16,2.16,0,0,1,1.123,1.655,11.392,11.392,0,0,1,.25,2.953q0,23.565,0,47.13c0,2.8-.007,2.8-2.733,2.8q-15.015,0-30.03,0a4.769,4.769,0,0,0-1.622.1" transform="translate(-6.625 -7.658)" fill="#e8eefe"/>
    <path id="Trazado_142759" data-name="Trazado 142759" d="M70.149,5.527a27.258,27.258,0,0,1,8.885,8.122,23.911,23.911,0,0,1,4.161,15.006A24.1,24.1,0,0,1,72.581,47.607c-.243.17-.482.349-.739.494a6.17,6.17,0,0,0-3.474,6.475c-.826.175-.734-.413-.734-.9,0-4.46.014-8.921-.016-13.381,0-.759.306-.928.97-.885A12.069,12.069,0,0,0,70.37,39.4a2.216,2.216,0,0,0,2.163-2.2A2.149,2.149,0,0,0,70.4,34.985q-4.978-.083-9.961,0a2.151,2.151,0,0,0-2.187,2.163A2.233,2.233,0,0,0,60.5,39.414c2.65.206,2.65.206,2.65,2.9,0,3.717-.024,7.435.017,11.151.01.873-.18,1.327-1.137,1.174a5.337,5.337,0,0,0-.743-.006c-1.088-.019-2.383.318-3.206-.159-.851-.493-.221-1.908-.443-2.9a7.442,7.442,0,0,0-3.554-4.906,22.386,22.386,0,0,1-10.55-14.466C39.846,16.616,53.961,2.049,69.6,5.317a3.632,3.632,0,0,1,.553.21" transform="translate(-4.055 -0.458)" fill="#fec45e"/>
    <path id="Trazado_142760" data-name="Trazado 142760" d="M39.376,158.795l-4.362-.018c-.6-1.928-1.055-2.274-3.073-2.275q-11.673-.005-23.343,0c-2.83,0-3.665-.811-3.665-3.586q0-28.7,0-57.4c0-2.9,2.042-4.368,4.895-3.557a.556.556,0,0,1,.485.609c0,.4,0,.793,0,1.19,0,16.406.1,32.813-.059,49.217-.049,5.046,3.534,8.213,8.217,8.2,28.993-.1,57.986-.048,86.979-.052,4.383,0,7.024-2.21,7.853-6.532a4.562,4.562,0,0,0,.1-1.62q.008-24.161.008-48.322a4.981,4.981,0,0,1,.135-1.8c.754.186.858.783.978,1.339a9.079,9.079,0,0,1,.1,1.927q0,28.1,0,56.2a9.649,9.649,0,0,1-.177,2.366,2.288,2.288,0,0,1-1.194,1.777c-.593.015-1.186.044-1.78.044l-68.948,0c-2.169,0-2.743.422-3.158,2.294" transform="translate(-0.466 -8.662)" fill="#368cf5"/>
    <path id="Trazado_142761" data-name="Trazado 142761" d="M124.555,156.473a6.7,6.7,0,0,0,.9-3.535q-.031-28.757-.012-57.512a4.224,4.224,0,0,0-.594-2.558v2.174q0,23.925-.009,47.852c0,.573.2,1.2-.242,1.715q-.018-20.658-.035-41.316c0-3.319.053-6.64-.029-9.957-.028-1.146.331-1.512,1.422-1.366a8.684,8.684,0,0,1,2.2.187,2.775,2.775,0,0,1,1.813,2.922c-.026,4.311-.009,8.621-.009,12.931v44.143c0,3.815-.569,4.384-4.373,4.364-.345,0-.691-.029-1.037-.044" transform="translate(-11.758 -8.681)" fill="#336fe6"/>
    <path id="Trazado_142762" data-name="Trazado 142762" d="M77.263,135.81c.518-.439,1.14-.248,1.713-.249,10.2-.013,20.4-.027,30.6.014,1.186.005,1.618-.256,1.616-1.541q-.064-24.733-.027-49.468a6.776,6.776,0,0,0-.888-3.393c4.288-.281,5.46-.017,5.424,5.067-.115,15.99-.058,31.981-.012,47.971,0,1.273-.254,1.641-1.6,1.635-12.275-.061-24.551-.035-36.826-.035" transform="translate(-7.295 -7.657)" fill="#d2dbfa"/>
    <path id="Trazado_142763" data-name="Trazado 142763" d="M59.158,136.373c.545-.023.976-.154.926-.848-.029-.393,0-.791,0-1.186q0-19.945-.005-39.892A51.393,51.393,0,0,0,59.8,86.33c1.137.074,2.275.234,3.407.2.928-.031,1.243.4,1.319,1.188.066.69.152,1.382.152,2.074q.015,23.864,0,47.729c0,.38-.043.761-.084,1.388a15.112,15.112,0,0,0-5.443-2.532" transform="translate(-5.586 -8.151)" fill="#d2dbf9"/>
    <path id="Trazado_142764" data-name="Trazado 142764" d="M17.588,151.555A4.065,4.065,0,0,1,15.8,146.78c.281-.64.862-.33,1.295-.331q10.828-.03,21.656-.011c4.646.007,9.291.043,13.937.067,1.756.781,2.383,2.428,3.036,4.029.327.8-.032,1.228-.916,1.156-.148-.012-.3,0-.446,0q-17.808,0-35.617,0a2.1,2.1,0,0,1-1.161-.13" transform="translate(-1.47 -13.82)" fill="#bdc7f6"/>
    <path id="Trazado_142765" data-name="Trazado 142765" d="M71.011,150.961a7.2,7.2,0,0,1,7.165-4.517q15.754-.014,31.509,0c.3,0,.59.044.886.067.874,1.482.463,2.957-.053,4.415a1.1,1.1,0,0,1-1.146.77c-.445-.012-.89,0-1.335,0q-17.878,0-35.754-.023c-.46,0-1.4.484-1.271-.712" transform="translate(-6.703 -13.826)" fill="#bdc7f6"/>
    <path id="Trazado_142766" data-name="Trazado 142766" d="M73.862,70.092c-5.779.022-11.557.07-17.336.045a2.513,2.513,0,0,1-2.605-2.331c-.147-1.4.484-2.3,1.993-2.827,3.787-.228,7.579-.047,11.368-.1,1.773-.023,3.547-.009,5.321,0,1.467.005,1.921.36,2.176,1.809a3.456,3.456,0,0,1-.917,3.4" transform="translate(-5.089 -6.124)" fill="#e8eefe"/>
    <path id="Trazado_142767" data-name="Trazado 142767" d="M61.523,80.947a2.083,2.083,0,0,1-2.1-1.844,5.714,5.714,0,0,1,.063-3.249c3.3-.3,6.6-.063,9.9-.129.648-.014.821.442.916.955a8.739,8.739,0,0,1,.071,1.921c-.082,2.164-.388,2.49-2.5,2.453a58.7,58.7,0,0,1-6.349-.108" transform="translate(-5.591 -7.147)" fill="#bcc6f4"/>
    <path id="Trazado_142768" data-name="Trazado 142768" d="M70.98,150.958c.117.724.684.586,1.156.586q18.319.005,36.638.018c.927,0,1.272-.374,1.5-1.23a16.236,16.236,0,0,0,.261-3.825c1.184-.023,2.373,0,3.553-.085.84-.06,1.026.317.949,1.04-.037.342,0,.691-.007,1.038-.021,2.369-.958,3.319-3.339,3.321q-19.139.015-38.278.014c-.692,0-1.385,0-2.077,0-.856.005-.79-.36-.36-.878" transform="translate(-6.673 -13.824)" fill="#a1b5f2"/>
    <path id="Trazado_142769" data-name="Trazado 142769" d="M17.8,151.567l36.4-.012c1.823,0,1.793.011,1.031-1.627a15.386,15.386,0,0,0-2.329-3.411,7.163,7.163,0,0,1,6.949,3.915c.77,1.311.7,1.4-.828,1.4q-18.568.008-37.135-.006c-1.36,0-2.759.317-4.091-.258" transform="translate(-1.68 -13.832)" fill="#a1b4f2"/>
    <path id="Trazado_142770" data-name="Trazado 142770" d="M61.551,80.937c2.277-.017,4.556-.092,6.831-.025.969.028,1.41-.4,1.486-1.217.1-1.031.058-2.077.05-3.116-.006-.86-.677-.7-1.19-.7-3.072-.02-6.143-.024-9.213-.033.578-.414,1.234-.2,1.849-.2,4-.018,8,.025,12-.015.951-.01,1.381.231,1.256,1.239-.084.682.008,1.389-.105,2.064a2.18,2.18,0,0,1-2.038,2.03,77.161,77.161,0,0,1-10.924-.025" transform="translate(-5.619 -7.137)" fill="#9fb3f0"/>
    <path id="Trazado_142771" data-name="Trazado 142771" d="M74.072,70.081c.254-1.185.854-2.29.465-3.6A1.717,1.717,0,0,0,72.579,65c-4.892.069-9.786.031-14.68.026-.591,0-1.184-.035-1.776-.055.334-.3.747-.208,1.132-.209,6.277,0,12.553-.008,18.83.015,2.014.007,3.242,1.219,3.05,2.973a2.413,2.413,0,0,1-2.263,2.342,23.316,23.316,0,0,1-2.8-.008" transform="translate(-5.299 -6.113)" fill="#d1daf9"/>
    <path id="Trazado_142772" data-name="Trazado 142772" d="M39.411,101.358c-1.636,0-3.273.028-4.906-.009a4.509,4.509,0,0,1-4.571-4.49c-.043-1.783-.048-3.569,0-5.352a4.5,4.5,0,0,1,4.341-4.421c3.467-.084,6.939-.073,10.406-.006a4.379,4.379,0,0,1,4.367,4.06,42.8,42.8,0,0,1,.014,6.086,4.426,4.426,0,0,1-4.452,4.129c-.1,0-.2.005-.3.005q-2.453,0-4.906,0" transform="translate(-2.823 -8.217)"/>
    <path id="Trazado_142773" data-name="Trazado 142773" d="M38.7,113.27q-7.054,0-14.108,0c-1.855,0-2.873-.831-2.839-2.257.032-1.377,1.028-2.2,2.788-2.2q14.256-.016,28.512,0c2.124,0,3.292,1.643,2.427,3.286a2.461,2.461,0,0,1-2.524,1.174c-4.752-.014-9.5-.006-14.257-.006" transform="translate(-2.054 -10.273)" fill="#010101"/>
    <path id="Trazado_142774" data-name="Trazado 142774" d="M38.7,130.623c4.8,0,9.6.008,14.4-.005a2.279,2.279,0,0,1,2.544,1.581c.453,1.508-.556,2.791-2.3,2.869-1.482.066-2.969.018-4.454.018q-11.88,0-23.759,0a8.027,8.027,0,0,1-1.478-.072,2.064,2.064,0,0,1-1.885-2.273,2.014,2.014,0,0,1,2.077-2.08c1.482-.068,2.969-.033,4.454-.034q5.2-.005,10.394,0" transform="translate(-2.056 -12.332)" fill="#010101"/>
    <path id="Trazado_142775" data-name="Trazado 142775" d="M38.694,124.172q-6.83,0-13.661,0a8.281,8.281,0,0,1-1.478-.08,2.009,2.009,0,0,1-1.781-2.05,2.031,2.031,0,0,1,1.75-2.227,6.361,6.361,0,0,1,1.328-.1q13.883-.008,27.766,0a6.225,6.225,0,0,1,1.472.122,2.182,2.182,0,0,1-.109,4.247,7.791,7.791,0,0,1-1.477.085q-6.9.009-13.809,0" transform="translate(-2.056 -11.302)" fill="#010101"/>
    <path id="Trazado_142776" data-name="Trazado 142776" d="M93.958,101.358c-1.635,0-3.271.024-4.906,0a4.511,4.511,0,0,1-4.717-4.506,52.714,52.714,0,0,1,.007-5.35A4.54,4.54,0,0,1,89,87.068q4.905-.06,9.812,0a4.575,4.575,0,0,1,4.712,4.676c.032,1.684.035,3.371,0,5.055a4.5,4.5,0,0,1-4.508,4.551c-1.684.043-3.37.008-5.055.01" transform="translate(-7.957 -8.218)"/>
    <path id="Trazado_142777" data-name="Trazado 142777" d="M93.06,113.27c-4.752,0-9.5-.008-14.256,0-1.341,0-2.347-.432-2.576-1.882-.237-1.5.762-2.539,2.5-2.575,2.029-.041,4.059-.01,6.088-.01q10.989,0,21.978,0a7.374,7.374,0,0,1,1.479.067,2.083,2.083,0,0,1,1.873,2.291,2.016,2.016,0,0,1-2.088,2.07c-1.631.063-3.266.03-4.9.031q-5.049,0-10.1,0" transform="translate(-7.194 -10.272)" fill="#010101"/>
    <path id="Trazado_142778" data-name="Trazado 142778" d="M93.095,135.087c-4.553,0-9.107.006-13.661-.007a6.18,6.18,0,0,1-1.758-.183,1.989,1.989,0,0,1-1.462-2.286,1.961,1.961,0,0,1,1.746-1.914,9.733,9.733,0,0,1,1.627-.071q13.588-.005,27.174,0a9.653,9.653,0,0,1,1.628.072,2.172,2.172,0,0,1,.272,4.2,6.046,6.046,0,0,1-1.758.183c-4.6.014-9.206.007-13.809.007" transform="translate(-7.195 -12.333)" fill="#010101"/>
    <path id="Trazado_142779" data-name="Trazado 142779" d="M93.066,124.172q-6.83,0-13.661,0a7.637,7.637,0,0,1-1.477-.088,2.183,2.183,0,0,1-.08-4.249,5.567,5.567,0,0,1,1.324-.119q14.032-.008,28.064,0a5.631,5.631,0,0,1,1.034.068,2.063,2.063,0,0,1,1.878,2.274,2.036,2.036,0,0,1-1.941,2.066,10.217,10.217,0,0,1-1.333.052q-6.9,0-13.809,0" transform="translate(-7.195 -11.302)" fill="#010101"/>
    <path id="Trazado_142780" data-name="Trazado 142780" d="M40.532,97.318c-1.618.02-3.238.018-4.856.072-.645.022-.864-.2-.838-.841.057-1.42.056-2.843.08-4.265a34.97,34.97,0,0,1,4.994-.14c.523-.026.906.209.949.718.128,1.5.512,3.027-.33,4.457" transform="translate(-3.289 -8.698)" fill="#76defe"/>
    <path id="Trazado_142781" data-name="Trazado 142781" d="M40.541,97.3c0-1.332-.025-2.665.01-4,.021-.759-.264-1.064-1.035-1.046-1.529.035-3.059.009-4.589.009.105-.427.458-.286.717-.287,2.812-.008,5.625.027,8.436-.017.837-.014,1.078.245,1.108,1.079.156,4.428.178,4.428-4.208,4.315a4.252,4.252,0,0,1-.439-.056" transform="translate(-3.298 -8.683)" fill="#68cbfc"/>
    <path id="Trazado_142782" data-name="Trazado 142782" d="M95.039,97.316c-1.665.021-3.331.033-5,.069-.528.011-.848-.129-.815-.73a31.129,31.129,0,0,1,.129-4.388,40.565,40.565,0,0,1,5.031-.127c.515-.024.925.171.974.695.145,1.507.523,3.042-.323,4.481" transform="translate(-8.423 -8.698)" fill="#76ddfd"/>
    <path id="Trazado_142783" data-name="Trazado 142783" d="M95.055,97.3c0-1.175-.08-2.357.024-3.524.113-1.275-.414-1.6-1.595-1.53-1.366.087-2.74.011-4.111.005.146-.379.481-.271.753-.271,2.809-.005,5.619.024,8.428-.014.764-.011.99.2,1.02.986.178,4.666.2,4.666-4.519,4.348" transform="translate(-8.438 -8.683)" fill="#69ccfe"/>
  </g>
</svg>
