<svg xmlns="http://www.w3.org/2000/svg" xmlns:xlink="http://www.w3.org/1999/xlink" width="256.777" height="257.338" viewBox="0 0 256.777 257.338">
  <defs>
    <clipPath id="clip-path">
      <rect id="Rectángulo_38700" data-name="Rectángulo 38700" width="237.338" height="248.132" fill="none"/>
    </clipPath>
    <clipPath id="clip-path-3">
      <path id="Trazado_142656" data-name="Trazado 142656" d="M233.348,71.05a6.179,6.179,0,0,0,6.516,5.822c6.2,0,6.958-5.976,6.958-5.976Z" transform="translate(-233.348 -70.896)" fill="none"/>
    </clipPath>
    <clipPath id="clip-path-5">
      <rect id="Rectángulo_38697" data-name="Rectángulo 38697" width="18.648" height="19.057" fill="none"/>
    </clipPath>
    <clipPath id="clip-path-6">
      <rect id="Rectángulo_38698" data-name="Rectángulo 38698" width="15.982" height="18.301" fill="none"/>
    </clipPath>
  </defs>
  <g id="Grupo_80932" data-name="Grupo 80932" transform="translate(12 -4.016)">
    <path id="Trazado_141266" data-name="Trazado 141266" d="M244.7,63.947c-1.862-31.613-23.964-61.8-53.9-63.67-34.38-2.89-65.937,17.8-100.183,18.015-17.463,1.643-33.84-5.694-50.858-8.063C1.33,8.681-4.526,58.239,2.642,90.183,32.874,240.777,246.8,220.287,244.7,63.947Z" transform="translate(203.084 4.016) rotate(90)" fill="#acade1"/>
    <path id="Trazado_114646" data-name="Trazado 114646" d="M71.033,116.477c1.7-29.837,21.877-58.325,49.2-60.092,31.386-2.727,60.194,16.8,91.458,17,15.942,1.55,30.893-5.374,46.429-7.609,35.089-1.461,40.435,45.312,33.891,75.461C264.414,283.371,69.122,264.033,71.033,116.477Z" transform="translate(-49.647 10.615)" fill="#8284d2"/>
    <g id="Grupo_161758" data-name="Grupo 161758" transform="translate(-12 13.222)">
      <g id="Grupo_161770" data-name="Grupo 161770" clip-path="url(#clip-path)">
        <path id="Trazado_142640" data-name="Trazado 142640" d="M270.5,181.278l-10.63,37.951,6.089,51.69-17.641-3.569L237.866,219.1l3.01-41.242Z" transform="translate(-36.668 -27.417)" fill="#ffb98a"/>
        <g id="Grupo_161759" data-name="Grupo 161759">
          <g id="Grupo_161758-2" data-name="Grupo 161758" clip-path="url(#clip-path)">
            <path id="Trazado_142641" data-name="Trazado 142641" d="M248.294,123.829s23,10.558,26.3,58.367l-32.932,6.512Z" transform="translate(-37.253 -19.089)" fill="#a8527e"/>
            <path id="Trazado_142642" data-name="Trazado 142642" d="M181.546,50.407s1.994,12.242-1.227,15.465c-6.147,6.149-25.023,9.011-15.065,35.314H252.11s4.3-10.472-5.4-16.561c0,0-3.377-2.358-1.306-9.46s-3.091-12.149-9.425-19.733L223.516,35.185Z" transform="translate(-25.035 -5.424)" fill="#f46eab"/>
            <path id="Trazado_142643" data-name="Trazado 142643" d="M184.886,45.882c0,15.639,13.284,28.317,29.671,28.317s29.671-12.678,29.671-28.317-13.284-28.317-29.671-28.317-29.671,12.678-29.671,28.317" transform="translate(-28.501 -2.708)" fill="#f46eab"/>
            <path id="Trazado_142644" data-name="Trazado 142644" d="M242.7,64.434a7.678,7.678,0,1,0,5.121-9.575,7.678,7.678,0,0,0-5.121,9.575" transform="translate(-37.362 -8.406)" fill="#f29b5f"/>
            <path id="Trazado_142645" data-name="Trazado 142645" d="M227.536,81.506l-.74,34.044-24.661-1.379,5.033-50.105Z" transform="translate(-31.16 -9.876)" fill="#ffaf78"/>
            <path id="Trazado_142646" data-name="Trazado 142646" d="M229.721,94.509s-11-1.133-11.473-13.656l11.672,6.176Z" transform="translate(-33.644 -12.464)" fill="#2f1a2a"/>
            <path id="Trazado_142647" data-name="Trazado 142647" d="M242.005,30.062a11.223,11.223,0,0,1,3.666,6.412c1.469,7.345,4.353,20.287,1.753,28.085-3.382,10.139-11.616,17.33-24.921,14.8,0,0-15.947-1.61-19.226-21.806-5.225-32.179,22.143-41.507,38.728-27.491" transform="translate(-31.235 -3.659)" fill="#ffaf78"/>
            <path id="Trazado_142648" data-name="Trazado 142648" d="M250.187,56.83a1.757,1.757,0,1,0,1.253-2.146,1.758,1.758,0,0,0-1.253,2.146" transform="translate(-38.558 -8.421)" fill="#2f1a2a"/>
            <path id="Trazado_142649" data-name="Trazado 142649" d="M232.634,57.182a1.757,1.757,0,1,0,1.253-2.146,1.758,1.758,0,0,0-1.253,2.146" transform="translate(-35.853 -8.475)" fill="#2f1a2a"/>
            <path id="Trazado_142650" data-name="Trazado 142650" d="M245.948,62.219l1.226,3.338a.8.8,0,0,1-.575.947l-1.895.35" transform="translate(-37.722 -9.591)" fill="none" stroke="#2f1a2a" stroke-linecap="round" stroke-linejoin="round" stroke-width="0.893"/>
            <path id="Trazado_142651" data-name="Trazado 142651" d="M229.956,40.882s5.447-.964,5.737,1.54c0,0,.154,1.7-4.608,2.437s-6.667.615-7.254-.945,3.549-2.8,6.125-3.032" transform="translate(-34.496 -6.274)" fill="#2f1a2a"/>
            <path id="Trazado_142652" data-name="Trazado 142652" d="M253.569,40.978s-4.745-1.034-5.426,1.363c0,0-.429,1.639,3.742,2.43,3.037.575,4.169.052,4.478-1.046.366-1.3-1-2.505-2.794-2.746" transform="translate(-38.25 -6.283)" fill="#2f1a2a"/>
            <path id="Trazado_142653" data-name="Trazado 142653" d="M246.823,70.9l-13.475.154a6.181,6.181,0,0,0,6.517,5.823c6.2,0,6.958-5.977,6.958-5.977" transform="translate(-35.972 -10.929)" fill="#221914"/>
          </g>
        </g>
        <g id="Grupo_161761" data-name="Grupo 161761" transform="translate(197.376 59.967)">
          <g id="Grupo_161760" data-name="Grupo 161760" clip-path="url(#clip-path-3)">
            <path id="Trazado_142654" data-name="Trazado 142654" d="M232.685,81.159a4.747,4.747,0,1,0,2.334-6.295,4.747,4.747,0,0,0-2.334,6.295" transform="translate(-233.179 -71.441)" fill="#e275c2"/>
            <path id="Trazado_142655" data-name="Trazado 142655" d="M247.567,72.464l-15.295-.023V69.855l15.295-.561Z" transform="translate(-233.182 -70.649)" fill="#fff"/>
          </g>
        </g>
        <g id="Grupo_161769" data-name="Grupo 161769">
          <g id="Grupo_161768" data-name="Grupo 161768" clip-path="url(#clip-path)">
            <g id="Grupo_161764" data-name="Grupo 161764" transform="translate(186.226 38.308)" opacity="0.11">
              <g id="Grupo_161763" data-name="Grupo 161763">
                <g id="Grupo_161762" data-name="Grupo 161762" clip-path="url(#clip-path-5)">
                  <path id="Trazado_142657" data-name="Trazado 142657" d="M238.813,54.925A9.327,9.327,0,1,1,229.6,45.29a9.429,9.429,0,0,1,9.215,9.635" transform="translate(-220.165 -45.289)" fill="#fff"/>
                </g>
              </g>
            </g>
            <g id="Grupo_161767" data-name="Grupo 161767" transform="translate(209.737 38.871)" opacity="0.11">
              <g id="Grupo_161766" data-name="Grupo 161766">
                <g id="Grupo_161765" data-name="Grupo 161765" clip-path="url(#clip-path-6)">
                  <path id="Trazado_142658" data-name="Trazado 142658" d="M263.942,55.2c-.058,5.053-3.683,9.109-8.1,9.057s-7.943-4.188-7.885-9.242,3.683-9.108,8.1-9.057S264,50.145,263.942,55.2" transform="translate(-247.961 -45.955)" fill="#fff"/>
                </g>
              </g>
            </g>
            <path id="Trazado_142659" data-name="Trazado 142659" d="M238.813,54.925A9.327,9.327,0,1,1,229.6,45.29,9.429,9.429,0,0,1,238.813,54.925Z" transform="translate(-33.939 -6.982)" fill="none" stroke="#fff" stroke-linecap="round" stroke-linejoin="round" stroke-width="1.261"/>
            <path id="Trazado_142660" data-name="Trazado 142660" d="M263.942,55.2c-.058,5.053-3.683,9.109-8.1,9.057s-7.943-4.188-7.885-9.242,3.683-9.108,8.1-9.057S264,50.145,263.942,55.2Z" transform="translate(-38.224 -7.084)" fill="none" stroke="#fff" stroke-linecap="round" stroke-linejoin="round" stroke-width="1.261"/>
            <path id="Trazado_142661" data-name="Trazado 142661" d="M242.212,56.489a3.348,3.348,0,0,1,4.864-.014" transform="translate(-37.338 -8.546)" fill="none" stroke="#fff" stroke-linecap="round" stroke-linejoin="round" stroke-width="1.261"/>
            <line id="Línea_359" data-name="Línea 359" x1="8.333" y2="3.169" transform="translate(177.893 47.729)" fill="none" stroke="#fff" stroke-linecap="round" stroke-linejoin="round" stroke-width="1.261"/>
            <path id="Trazado_142662" data-name="Trazado 142662" d="M204.958,52.413c1.267.53,24.5-13.452,12.714-28.67,0,0-17.675,4.149-16.656,28.658Z" transform="translate(-30.981 -3.66)" fill="#f46eab"/>
            <path id="Trazado_142663" data-name="Trazado 142663" d="M221.266,28.385s15.64-3.815,24.742,3.981c0,0-4.41-14.082-25.919-14.8l-8.095,18.007Z" transform="translate(-32.68 -2.708)" fill="#f46eab"/>
            <path id="Trazado_142664" data-name="Trazado 142664" d="M179.09,15.393a11.92,11.92,0,1,0,11.92-11.92,11.919,11.919,0,0,0-11.92,11.92" transform="translate(-27.607 -0.535)" fill="#f46eab"/>
            <path id="Trazado_142665" data-name="Trazado 142665" d="M210.16,48.179l-1.519,16.068L203.1,49.538Z" transform="translate(-31.309 -7.427)" fill="#f46eab"/>
            <path id="Trazado_142666" data-name="Trazado 142666" d="M189.814,66.884a9.317,9.317,0,1,0,6.214-11.619,9.317,9.317,0,0,0-6.214,11.619" transform="translate(-29.198 -8.457)" fill="#ffaf78"/>
            <path id="Trazado_142667" data-name="Trazado 142667" d="M195.461,62.62s6.83-1.962,8.648,5.556" transform="translate(-30.131 -9.618)" fill="none" stroke="#2f1a2a" stroke-linecap="round" stroke-linejoin="round" stroke-width="0.893"/>
            <path id="Trazado_142668" data-name="Trazado 142668" d="M182.364,119.453s-24.321,5.287-33.635,27.937-2.847,100.492-2.847,100.492,46.262,21.762,86.641-2.76l7.8-117.061s-9.029-6.488-16.392-10.659Z" transform="translate(-22.151 -18.098)" fill="#a8527e"/>
            <path id="Trazado_142669" data-name="Trazado 142669" d="M208.05,111.277s-6.813,1.523-18.639,7.232c0,0,17.68,13.737,31.657,30.262,0,0,10.871-11.169,9.912-32.314l-13.807-5.18Z" transform="translate(-29.198 -17.154)" fill="#ffaf78"/>
            <line id="Línea_360" data-name="Línea 360" x1="3.355" y2="50.346" transform="translate(212.986 137.434)" fill="none" stroke="#873964" stroke-linecap="round" stroke-linejoin="round" stroke-width="1.7"/>
            <path id="Trazado_142670" data-name="Trazado 142670" d="M164.24,176.919v50.225L187.8,268.413l-23.149-2.732-28.064-27.109,3.015-59.13Z" transform="translate(-21.055 -27.273)" fill="#fc9753"/>
            <path id="Trazado_142671" data-name="Trazado 142671" d="M148.764,118.639s18.27,10.664,21.2,37.035v37.5l-29.819-1.02Z" transform="translate(-21.604 -18.289)" fill="#fff"/>
            <path id="Trazado_142672" data-name="Trazado 142672" d="M109.482,108.522s14.966,2.856,22.482,8.557l2.222,134.675c-48.068,28.991-103.025.846-103.025.846L46.069,117.775s1.946-7.6,22.834-9.226Z" transform="translate(-4.804 -16.729)" fill="#fff"/>
            <path id="Trazado_142673" data-name="Trazado 142673" d="M75.782,108.243s17.239-3.806,40.579-.026c0,0,2.216,13.874-16.527,14.459-20.3.634-24.052-14.433-24.052-14.433" transform="translate(-11.682 -16.424)" fill="#fc9753"/>
            <line id="Línea_361" data-name="Línea 361" y1="47.238" x2="0.177" transform="translate(128.36 127.645)" fill="none" stroke="#dbdbdb" stroke-linecap="round" stroke-linejoin="round" stroke-width="1.748"/>
            <path id="Trazado_142674" data-name="Trazado 142674" d="M103.209,196.924s3.332-9.616,15.216-12.087l8.359-8.209a3.647,3.647,0,0,1,5.515,4.733l-4.117,5.718,2.258-.973a17.328,17.328,0,0,0,8.4-7.688l5.276-9.777a3.464,3.464,0,0,1,6.281,2.892l-5.283,13.692a19.743,19.743,0,0,1-11.624,11.429l-26.7,11.878Z" transform="translate(-15.91 -25.716)" fill="#fc9753"/>
            <path id="Trazado_142675" data-name="Trazado 142675" d="M88.267,202.41,14.014,230.821C7.592,233.6,4.482,244.528,7.352,250.91a12.542,12.542,0,0,0,18.458,5.251l66.034-42.143Z" transform="translate(-0.968 -31.202)" fill="#fc9753"/>
            <path id="Trazado_142676" data-name="Trazado 142676" d="M6.39,239.6l7.766-60.013,36.013-2.663L37.549,230.394Z" transform="translate(-0.985 -27.273)" fill="#fc9753"/>
            <path id="Trazado_142677" data-name="Trazado 142677" d="M50.315,111.611S5.311,119.026,0,192.089H55.344l3.641-47.279Z" transform="translate(0 -17.205)" fill="#fff"/>
            <path id="Trazado_142678" data-name="Trazado 142678" d="M51.106,199.88H61.53L68,162.155" transform="translate(-7.878 -24.997)" fill="none" stroke="#dbdbdb" stroke-linecap="round" stroke-linejoin="round" stroke-width="1.748"/>
            <path id="Trazado_142679" data-name="Trazado 142679" d="M80.355,63.841s-7.262,11.737,3.4,11.385A11.747,11.747,0,0,0,87.2,64.677Z" transform="translate(-12.015 -9.841)" fill="#793625"/>
            <path id="Trazado_142680" data-name="Trazado 142680" d="M146.444,21.282a18.7,18.7,0,0,0-2.217-6.991C128.875-14.087,95.489,8.562,95.489,8.562l5.846,19.884c13.918-8.42,30.478-11.857,45.108-7.164" transform="translate(-14.72 0)" fill="#793625"/>
            <path id="Trazado_142681" data-name="Trazado 142681" d="M102.4,31.684l6.524,25.8S149.75,45.758,147.509,24.52c-14.631-4.693-29.116-6.689-45.108,7.164" transform="translate(-15.786 -3.238)" fill="#6b2a1d"/>
            <path id="Trazado_142682" data-name="Trazado 142682" d="M125.334,58.633a8.37,8.37,0,1,0,5.987-10.211,8.37,8.37,0,0,0-5.987,10.211" transform="translate(-19.279 -7.422)" fill="#e8803a"/>
            <path id="Trazado_142683" data-name="Trazado 142683" d="M111.742,77.641l1.543,24.867a11.536,11.536,0,0,1-19.9,7.2L83.395,99.136l2.973-43.392Z" transform="translate(-12.856 -8.593)" fill="#fc9753"/>
            <path id="Trazado_142684" data-name="Trazado 142684" d="M114.622,93.02s-16.272-.7-17.484-17.1l16.722,4.835Z" transform="translate(-14.974 -11.703)" fill="#2f1a2a"/>
            <path id="Trazado_142685" data-name="Trazado 142685" d="M128.6,16.434s5.334,33.944,1.163,44.634S116.322,78.3,101.975,75.128c0,0-16.735-1.3-19.768-25.6-4.566-36.58,29.871-52.988,46.39-33.1" transform="translate(-12.609 -1.217)" fill="#fc9753"/>
            <path id="Trazado_142686" data-name="Trazado 142686" d="M133.825,50.666a1.915,1.915,0,1,0,1.456-2.284,1.914,1.914,0,0,0-1.456,2.284" transform="translate(-20.623 -7.451)" fill="#171717"/>
            <path id="Trazado_142687" data-name="Trazado 142687" d="M114.689,50.3a1.915,1.915,0,1,0,1.456-2.284,1.914,1.914,0,0,0-1.456,2.284" transform="translate(-17.673 -7.395)" fill="#171717"/>
            <path id="Trazado_142688" data-name="Trazado 142688" d="M129.459,52.744,131.3,59.29l-3.1,1.544" transform="translate(-19.763 -8.131)" fill="none" stroke="#2f1a2a" stroke-linecap="round" stroke-linejoin="round" stroke-width="0.983"/>
            <path id="Trazado_142689" data-name="Trazado 142689" d="M111.982,34.51s5.951-1.44,6.375,1.778c0,0,.242,2.186-4.964,3.309s-7.306,1.034-8.018-.955,3.784-3.741,6.607-4.132" transform="translate(-16.232 -5.27)" fill="#221914"/>
            <path id="Trazado_142690" data-name="Trazado 142690" d="M138.4,34s-5.54-1.372-6.138,1.781c0,0-.365,2.157,4.5,3.207,3.539.765,4.8.079,5.071-1.367.32-1.713-1.345-3.3-3.428-3.62" transform="translate(-20.387 -5.195)" fill="#221914"/>
            <path id="Trazado_142691" data-name="Trazado 142691" d="M117.32,65.624l11.1.817s-.11,4.338-5.77,3.956-5.333-4.773-5.333-4.773" transform="translate(-18.085 -10.116)" fill="#fff"/>
            <path id="Trazado_142692" data-name="Trazado 142692" d="M88.751,47.337,90.385,34.98s9.787-3.114,12.125-21.605c0,0-4.107-8.508-16.653-4.616S62.42,21.724,76.176,44.5Z" transform="translate(-10.757 -1.193)" fill="#793625"/>
            <path id="Trazado_142693" data-name="Trazado 142693" d="M68.909,58.294A10.157,10.157,0,1,0,76.174,45.9a10.158,10.158,0,0,0-7.266,12.392" transform="translate(-10.572 -7.025)" fill="#fc9753"/>
            <path id="Trazado_142694" data-name="Trazado 142694" d="M75.314,53.833s7.525-1.846,9.183,6.421" transform="translate(-11.61 -8.271)" fill="none" stroke="#2f1a2a" stroke-linecap="round" stroke-linejoin="round" stroke-width="0.983"/>
            <path id="Trazado_142695" data-name="Trazado 142695" d="M106.717,13.055A38.609,38.609,0,0,1,131.427,18.9l-2.6-10.981-16.25-2.25L97.075,11.5l3.826.361Z" transform="translate(-14.964 -0.873)" fill="#793625"/>
            <path id="Trazado_142696" data-name="Trazado 142696" d="M137.42,20.629s18.714.046,18.79,13.682a.235.235,0,0,0,.467.041c.877-5.066-.064-18.927-20.719-17.31Z" transform="translate(-20.958 -2.607)" fill="#793625"/>
          </g>
        </g>
      </g>
    </g>
  </g>
</svg>
