<svg xmlns="http://www.w3.org/2000/svg" xmlns:xlink="http://www.w3.org/1999/xlink" width="179.846" height="378.284" viewBox="0 0 179.846 378.284">
  <defs>
    <clipPath id="clip-path">
      <rect id="Rectángulo_38709" data-name="Rectángulo 38709" width="165.255" height="362.958" fill="none"/>
    </clipPath>
    <clipPath id="clip-path-3">
      <rect id="Rectángulo_38701" data-name="Rectángulo 38701" width="23.325" height="30.196" fill="none"/>
    </clipPath>
    <clipPath id="clip-path-4">
      <rect id="Rectángulo_38702" data-name="Rectángulo 38702" width="23.326" height="30.197" fill="none"/>
    </clipPath>
    <clipPath id="clip-path-5">
      <rect id="Rectángulo_38703" data-name="Rectángulo 38703" width="6.338" height="2.968" fill="none"/>
    </clipPath>
    <clipPath id="clip-path-6">
      <rect id="Rectángulo_38704" data-name="Rectángulo 38704" width="12.894" height="3.221" fill="none"/>
    </clipPath>
    <clipPath id="clip-path-7">
      <rect id="Rectángulo_38705" data-name="Rectángulo 38705" width="40.929" height="62.877" fill="none"/>
    </clipPath>
    <clipPath id="clip-path-8">
      <rect id="Rectángulo_38706" data-name="Rectángulo 38706" width="78.153" height="53.887" fill="none"/>
    </clipPath>
    <clipPath id="clip-path-9">
      <rect id="Rectángulo_38707" data-name="Rectángulo 38707" width="74.789" height="51.833" fill="none"/>
    </clipPath>
  </defs>
  <g id="Grupo_162282" data-name="Grupo 162282" transform="translate(-2)">
    <path id="Trazado_114544" data-name="Trazado 114544" d="M156.149,397.4c24.96-11.323,50.845-26.6,60.9-52.153,11.156-28.357-.521-60.114-.241-90.6.223-24.147,8.027-47.467,14.167-70.817s10.65-48.16,4.315-71.458c-4.241-15.6-13.249-29.708-24.879-40.905-20.479-19.718-49.985-30.388-78.02-25.878s-53.5,25.057-61.7,52.314c-11.612,38.617,11.071,79.839,6.25,119.882-1.886,15.668-7.923,30.485-12.017,45.725a187.793,187.793,0,0,0-6.415,49.748c.153,25.7,6.65,53.128,25.775,70.245C103.573,400.772,132.281,408.226,156.149,397.4Z" transform="translate(-56.504 -44.565)" fill="#ffdfe0"/>
    <g id="Grupo_161771" data-name="Grupo 161771" transform="translate(9 15.326)">
      <g id="Grupo_161794" data-name="Grupo 161794" clip-path="url(#clip-path)">
        <g id="Grupo_161793" data-name="Grupo 161793">
          <g id="Grupo_161792" data-name="Grupo 161792" clip-path="url(#clip-path)">
            <path id="Trazado_142697" data-name="Trazado 142697" d="M129.914,4.534s-22.8-4.978-34.046-1.175-20.4,16.1-18.658,38.1,2.723,43.783-7.695,60.492c-10.559,16.936,1.123,25.074,11.64,33.231s43.465-26.818,43.465-26.818Z" transform="translate(-21.425 -0.632)" fill="#6b1536"/>
            <path id="Trazado_142698" data-name="Trazado 142698" d="M122.093,4.457a66.428,66.428,0,0,0-7.4-1.484,64.005,64.005,0,0,0-8.611-.733,43.613,43.613,0,0,0-5.289.249,28.681,28.681,0,0,0-5.707,1.164,24.279,24.279,0,0,0-10.749,7.124A32.135,32.135,0,0,0,77.7,23.619,52.032,52.032,0,0,0,76.166,39.17c.317,5.362.731,10.89.881,16.4a151.548,151.548,0,0,1-.383,16.479A80.89,80.89,0,0,1,73.873,87.8a51.553,51.553,0,0,1-6.131,13.671,34.467,34.467,0,0,0-3.2,5.969,18.37,18.37,0,0,0-1.37,6.1,14.7,14.7,0,0,0,.892,5.655,19.168,19.168,0,0,0,2.5,4.6,40.344,40.344,0,0,0,5.9,6.271c1.8,1.584,3.261,2.792,4.252,3.615l1.521,1.262-1.572-1.2c-1.021-.787-2.54-1.914-4.394-3.457a40.75,40.75,0,0,1-6.161-6.158,19.816,19.816,0,0,1-2.729-4.673,15.091,15.091,0,0,1-1.064-5.937,19.275,19.275,0,0,1,1.313-6.422,35.641,35.641,0,0,1,3.177-6.207,53.476,53.476,0,0,0,5.8-13.449,79.485,79.485,0,0,0,2.644-15.51,149.959,149.959,0,0,0,.277-16.321q-.113-4.11-.33-8.211c-.13-2.739-.341-5.429-.456-8.173a53.34,53.34,0,0,1,1.685-15.955,36.063,36.063,0,0,1,2.823-7.18A29.6,29.6,0,0,1,83.5,10.032a25.268,25.268,0,0,1,11.323-7.2A34.362,34.362,0,0,1,106.094,1.67a64.39,64.39,0,0,1,8.645,1.009c2.373.43,4.208.9,5.454,1.231s1.9.547,1.9.547" transform="translate(-20.425 -0.534)" fill="#6b1536"/>
            <path id="Trazado_142699" data-name="Trazado 142699" d="M115.012,118.165s4.057,18.761-4.564,22.818-27.381,4.564-31.437,17.747,41.578,22.818,53.748,20.282,42.593-10.141,37.015-20.79-30.93-9.127-30.423-23.324-1.014-33.465-1.014-33.465Z" transform="translate(-25.815 -33.248)" fill="#ffb99a"/>
            <path id="Trazado_142700" data-name="Trazado 142700" d="M132.093,136.182c9.894-3.839,17.851-11.356,24.589-19.556-.329-8.449-.862-15.194-.862-15.194l-23.325,16.733s2.383,11.044-.4,18.017" transform="translate(-43.298 -33.248)" fill="#e09577"/>
            <path id="Trazado_142701" data-name="Trazado 142701" d="M121.617,20.231s-23.207.294-28.189,27.91,7.177,48.678,22.5,48.987,31.663-11.576,33.526-34.071-5.331-42.34-27.835-42.826" transform="translate(-30.253 -6.631)" fill="#ffb99a"/>
            <path id="Trazado_142702" data-name="Trazado 142702" d="M119.668,71.173a4.093,4.093,0,0,0-2.234-1.193,4.627,4.627,0,0,0-3.086.684,4.79,4.79,0,0,1,.216,1.48l0-.477a3.53,3.53,0,0,1,2.522-.789,3.4,3.4,0,0,1,2.222,1.855l.45.406a4.82,4.82,0,0,1-.086-1.966" transform="translate(-37.482 -22.922)" fill="#1b262c"/>
            <g id="Grupo_161773" data-name="Grupo 161773" transform="translate(54.004 31.995)" opacity="0.4">
              <g id="Grupo_161772" data-name="Grupo 161772">
                <g id="Grupo_161771-2" data-name="Grupo 161771" clip-path="url(#clip-path-3)">
                  <path id="Trazado_142703" data-name="Trazado 142703" d="M80.338,62.817c.087,8.338,5.379,15.043,11.82,14.976s11.591-6.881,11.5-15.22S98.283,47.53,91.842,47.6s-11.591,6.882-11.5,15.22" transform="translate(-80.338 -47.597)" fill="#fff"/>
                </g>
              </g>
            </g>
            <g id="Grupo_161776" data-name="Grupo 161776" transform="translate(81.747 32.469)" opacity="0.4">
              <g id="Grupo_161775" data-name="Grupo 161775">
                <g id="Grupo_161774" data-name="Grupo 161774" clip-path="url(#clip-path-4)">
                  <path id="Trazado_142704" data-name="Trazado 142704" d="M121.609,63.522c.087,8.338,5.379,15.043,11.819,14.976s11.591-6.881,11.5-15.22S139.554,48.235,133.113,48.3s-11.591,6.882-11.5,15.22" transform="translate(-121.609 -48.301)" fill="#fff"/>
                </g>
              </g>
            </g>
            <path id="Trazado_142705" data-name="Trazado 142705" d="M79.52,62.856c.1,5.708,2.757,12.162,8.41,14.394,5.046,1.992,10.452-.657,13.273-4.977a18.633,18.633,0,0,0,.78-18.148c-2.446-4.754-7.41-8-12.831-6.486-6.545,1.825-9.658,8.906-9.633,15.217,0,.2,1.1.039,1.1-.3-.021-5.292,2.14-11.426,7.145-13.963,4.859-2.462,10.072.682,12.617,4.926a18.63,18.63,0,0,1,.968,16.634c-2.039,4.666-6.627,8.583-11.961,6.85-5.917-1.923-8.672-8.7-8.77-14.447,0-.208-1.108-.037-1.1.3" transform="translate(-26.066 -15.493)" fill="#1b262c"/>
            <path id="Trazado_142706" data-name="Trazado 142706" d="M120.706,63.618c.1,5.7,2.766,12.2,8.421,14.434,5.134,2.027,10.539-.657,13.35-5.1a18.746,18.746,0,0,0,.693-18.06c-2.439-4.738-7.42-8.079-12.852-6.564-6.551,1.828-9.637,9.007-9.613,15.3,0,.325,1.1.122,1.1-.3-.02-5.281,2.161-11.432,7.191-13.907,4.819-2.372,9.9.555,12.493,4.743a18.53,18.53,0,0,1,1.041,16.74c-2.026,4.636-6.672,8.525-11.965,6.832-5.919-1.894-8.662-8.676-8.76-14.408-.005-.329-1.109-.122-1.1.3" transform="translate(-39.566 -15.718)" fill="#1b262c"/>
            <path id="Trazado_142707" data-name="Trazado 142707" d="M112.859,86.456a4.605,4.605,0,0,1-1.2-.264c-.19-.058-.359-.145-.54-.216a5.561,5.561,0,0,1-.51-.256,7.6,7.6,0,0,1-1.789-1.377l-.372-.388.15-.354c1.478-3.485,2.993-6.955,4.687-10.357-1.039,3.655-2.255,7.242-3.509,10.813l-.222-.741a7.587,7.587,0,0,1,1.882,1.25,5.435,5.435,0,0,1,.407.4c.126.148.262.28.378.441a4.606,4.606,0,0,1,.637,1.049" transform="translate(-35.548 -24.008)" fill="#af593c"/>
            <g id="Grupo_161779" data-name="Grupo 161779" transform="translate(73.884 59.512)" opacity="0.5">
              <g id="Grupo_161778" data-name="Grupo 161778">
                <g id="Grupo_161777" data-name="Grupo 161777" clip-path="url(#clip-path-5)">
                  <path id="Trazado_142708" data-name="Trazado 142708" d="M109.911,88.532l6.338,2.5-3.092.467Z" transform="translate(-109.911 -88.532)" fill="#af593c"/>
                </g>
              </g>
            </g>
            <path id="Trazado_142709" data-name="Trazado 142709" d="M108.424,105.582s.33.1.906.243,1.4.348,2.372.57c.494.091,1.02.218,1.583.31l.862.152c.3.032.6.082.9.126.608.114,1.248.116,1.887.2.641.041,1.3.072,1.945.071l.973-.017.485-.009.476-.054a15.6,15.6,0,0,0,1.856-.243c.3-.054.59-.12.882-.163s.558-.153.829-.225a11.634,11.634,0,0,0,1.508-.484c.454-.19.884-.348,1.266-.5.352-.2.672-.355.935-.49.529-.268.847-.413.847-.413s-.234.243-.672.659c-.22.206-.487.462-.808.741-.345.24-.742.506-1.188.784a8.12,8.12,0,0,1-1.51.768c-.279.114-.559.262-.86.358s-.617.175-.935.266a11.508,11.508,0,0,1-2,.4l-.518.071-.522.025-1.052.044c-.7-.017-1.4-.069-2.083-.131a19.366,19.366,0,0,1-1.982-.348c-.317-.075-.63-.14-.932-.221l-.874-.274c-.571-.161-1.088-.392-1.568-.578a14.731,14.731,0,0,1-3.016-1.642" transform="translate(-35.54 -34.307)" fill="#af593c"/>
            <g id="Grupo_161782" data-name="Grupo 161782" transform="translate(78.142 74.268)" opacity="0.5">
              <g id="Grupo_161781" data-name="Grupo 161781">
                <g id="Grupo_161780" data-name="Grupo 161780" clip-path="url(#clip-path-6)">
                  <path id="Trazado_142710" data-name="Trazado 142710" d="M116.246,111.569l.591.116c.371.073.9.165,1.519.258.31.049.646.087,1,.13s.725.05,1.1.1c.382,0,.772.044,1.168.034s.8,0,1.193-.043a9.833,9.833,0,0,0,1.184-.123c.394-.035.766-.138,1.137-.208a10.864,10.864,0,0,0,1.059-.269,8.841,8.841,0,0,0,.946-.309c.286-.116.577-.183.809-.291s.445-.192.62-.265c.352-.143.569-.214.569-.214s-.132.175-.393.461c-.13.142-.289.319-.484.51a5.875,5.875,0,0,1-.711.571,4.755,4.755,0,0,1-.918.584,6.779,6.779,0,0,1-1.111.515,7.443,7.443,0,0,1-1.262.367l-.666.127c-.225.032-.452.041-.679.061a8.844,8.844,0,0,1-1.355,0,10.9,10.9,0,0,1-1.292-.174,10.427,10.427,0,0,1-1.168-.327,7.139,7.139,0,0,1-1-.4,7.782,7.782,0,0,1-.8-.423c-.231-.143-.427-.272-.581-.391a3.664,3.664,0,0,1-.469-.391" transform="translate(-116.246 -110.483)" fill="#af593c"/>
                </g>
              </g>
            </g>
            <path id="Trazado_142711" data-name="Trazado 142711" d="M95.267,71.813l.184.731c.069.226.138.493.249.8a10.218,10.218,0,0,0,.4.983,8.272,8.272,0,0,0,.6,1.059,6.05,6.05,0,0,0,.834,1,3.863,3.863,0,0,0,1.068.739,2.453,2.453,0,0,0,.595.21c.1.015.2.048.308.052l.155.007.078,0,.038,0h.034c-.022,0,.056,0-.049,0l.4-.023c.13-.009.184-.04.282-.052a2.512,2.512,0,0,0,.582-.206,3.94,3.94,0,0,0,1.067-.741,6.131,6.131,0,0,0,.833-1,9.765,9.765,0,0,0,.6-1.059,10.386,10.386,0,0,0,.4-.982c.11-.3.18-.575.249-.8.118-.462.184-.726.184-.726s.012.067.034.194a5.618,5.618,0,0,1,.083.557,6.121,6.121,0,0,1,.021.881,5.866,5.866,0,0,1-.142,1.15,5.769,5.769,0,0,1-.432,1.33,5.308,5.308,0,0,1-.848,1.365,4.459,4.459,0,0,1-1.387,1.14,3.89,3.89,0,0,1-.911.353c-.165.036-.371.086-.508.1l-.4.034H99.78l-.031,0-.062,0-.124-.01-.247-.022a4.721,4.721,0,0,1-.483-.1,3.939,3.939,0,0,1-.9-.35,4.5,4.5,0,0,1-1.386-1.141,5.332,5.332,0,0,1-.848-1.364,5.811,5.811,0,0,1-.432-1.33,5.924,5.924,0,0,1-.142-1.15,6.205,6.205,0,0,1,.02-.885c.016-.241.066-.424.083-.552l.034-.195" transform="translate(-31.179 -23.539)" fill="#1b262c"/>
            <path id="Trazado_142712" data-name="Trazado 142712" d="M133.787,74.619l.184.731c.069.227.138.493.249.8a10,10,0,0,0,.4.982,8.233,8.233,0,0,0,.6,1.059,6.055,6.055,0,0,0,.834,1,3.865,3.865,0,0,0,1.068.739,2.484,2.484,0,0,0,.595.211c.1.015.2.047.308.052l.155.006.078,0,.038,0h.034c-.022,0,.056,0-.049,0l.4-.023c.13-.009.184-.04.282-.052a2.513,2.513,0,0,0,.582-.206,3.941,3.941,0,0,0,1.067-.741,6.108,6.108,0,0,0,.833-1,5.253,5.253,0,0,0,.323-.532,5.41,5.41,0,0,0,.276-.526,10.309,10.309,0,0,0,.4-.982c.11-.3.18-.575.249-.8.118-.462.184-.726.184-.726s.012.067.034.194.067.316.083.557a6.123,6.123,0,0,1,.021.881,5.857,5.857,0,0,1-.142,1.15,5.748,5.748,0,0,1-.432,1.33,5.308,5.308,0,0,1-.848,1.365,4.47,4.47,0,0,1-1.387,1.141,3.871,3.871,0,0,1-.911.352,5.1,5.1,0,0,1-.508.1l-.4.034h-.069l-.015,0-.031,0-.062,0-.124-.01-.247-.022a4.544,4.544,0,0,1-.483-.1,3.939,3.939,0,0,1-.9-.35,4.5,4.5,0,0,1-1.386-1.14,5.369,5.369,0,0,1-.848-1.365,5.84,5.84,0,0,1-.432-1.33,5.918,5.918,0,0,1-.142-1.15,6.209,6.209,0,0,1,.02-.885c.016-.241.066-.424.083-.552l.034-.195" transform="translate(-43.806 -24.459)" fill="#1b262c"/>
            <path id="Trazado_142713" data-name="Trazado 142713" d="M129.167,14.31S147.126,13,149.4,29.646s-15.837,65.678,2.724,77.789,22.576,7.9,39.757,17.539c0,0,7.878-13.582,1.217-20.643s-12.517-13.144-10.366-27.452,9.857-57.543-8.934-69.136S130.928-3.026,129.167,14.31" transform="translate(-42.339 0)" fill="#851d41"/>
            <path id="Trazado_142714" data-name="Trazado 142714" d="M200.539,146.119c-5.1-5.407-9.724-10.244-10.647-18.634a27.966,27.966,0,0,1-13.774,10.292c-8.549,2.727-16.727,1.568-24.233-1.938,1.083,5.852,3.409,10.6,7.681,13.384,18.561,12.112,22.575,7.9,39.757,17.539,0,0,7.878-13.582,1.217-20.643" transform="translate(-49.786 -41.788)" fill="#6b1536"/>
            <path id="Trazado_142715" data-name="Trazado 142715" d="M129.167,21.146a16.144,16.144,0,0,1,1.691-.225,21.967,21.967,0,0,1,4.851.159,17.063,17.063,0,0,1,7.183,2.712,14.886,14.886,0,0,1,5.821,8.251,13.365,13.365,0,0,1,.354,1.372,13.208,13.208,0,0,1,.265,1.414,18.773,18.773,0,0,1,.253,2.94,47.584,47.584,0,0,1-.319,6.034c-.444,4.084-1.223,8.3-2.064,12.646-.825,4.345-1.769,8.8-2.619,13.35s-1.6,9.177-2.113,13.831a72.715,72.715,0,0,0-.336,13.9,32.61,32.61,0,0,0,1.221,6.647,18.464,18.464,0,0,0,2.868,5.839,14.14,14.14,0,0,0,2.2,2.274c.4.331.827.639,1.272.953s.869.629,1.307.916a53.272,53.272,0,0,0,5.28,3.2,44.408,44.408,0,0,0,10.6,3.92c3.424.815,6.627,1.379,9.4,2.167a44.176,44.176,0,0,1,6.983,2.571c1.87.875,3.267,1.7,4.224,2.252l1.441.888-1.459-.858c-.967-.53-2.379-1.326-4.261-2.16a43.973,43.973,0,0,0-7-2.417c-2.771-.727-5.967-1.222-9.432-1.971A44.993,44.993,0,0,1,155.952,118a54.179,54.179,0,0,1-5.428-3.144c-.456-.287-.893-.592-1.336-.9s-.894-.609-1.337-.962a15.119,15.119,0,0,1-2.4-2.387,19.494,19.494,0,0,1-3.151-6.107,33.76,33.76,0,0,1-1.4-6.857,75.726,75.726,0,0,1,.056-14.165c.388-4.724,1.049-9.412,1.755-14.006s1.484-9.1,2.243-13.441c.373-2.172.729-4.307,1.045-6.395s.627-4.126.841-6.108a48.749,48.749,0,0,0,.365-5.732,19.809,19.809,0,0,0-.181-2.652,11.525,11.525,0,0,0-.2-1.275,11.4,11.4,0,0,0-.275-1.228,15.421,15.421,0,0,0-1.855-4.318,13.512,13.512,0,0,0-2.833-3.157,17.441,17.441,0,0,0-6.362-3.125,26.092,26.092,0,0,0-4.649-.819,16.131,16.131,0,0,0-1.69-.085" transform="translate(-42.339 -6.836)" fill="#851d41"/>
            <path id="Trazado_142716" data-name="Trazado 142716" d="M40.1,268.262S53.835,310.52,70.983,310.52s7.145-62.877,7.145-62.877Z" transform="translate(-13.144 -81.174)" fill="#ff6464"/>
            <g id="Grupo_161785" data-name="Grupo 161785" transform="translate(26.955 166.469)" opacity="0.8">
              <g id="Grupo_161784" data-name="Grupo 161784">
                <g id="Grupo_161783" data-name="Grupo 161783" clip-path="url(#clip-path-7)">
                  <path id="Trazado_142717" data-name="Trazado 142717" d="M40.1,268.262S53.835,310.52,70.983,310.52s7.145-62.877,7.145-62.877Z" transform="translate(-40.1 -247.643)" fill="#ba3a3a"/>
                </g>
              </g>
            </g>
            <path id="Trazado_142718" data-name="Trazado 142718" d="M81.017,284.393c.208-17.274-2.888-36.75-2.888-36.75L40.1,268.262s1.679,5.164,4.594,11.879q18.122,2.484,36.323,4.251" transform="translate(-13.144 -81.174)" fill="#ba3a3a"/>
            <path id="Trazado_142719" data-name="Trazado 142719" d="M73.713,304.65S44.3,332.285,47.346,374.116c2.115,29.086,12.075,55.721,17.948,69.251a16.1,16.1,0,0,0,14.223,9.681l68.918,2.363a16.091,16.091,0,0,0,14.985-8.944c11.33-22.93,34.883-84.02-5.028-134.211-50.2-63.129-84.679-7.606-84.679-7.606" transform="translate(-15.447 -92.463)" fill="#1b262c"/>
            <path id="Trazado_142720" data-name="Trazado 142720" d="M80.221,312.541c4.939,3.387,10.948,5.057,16.791,6.094,12.406,2.2,25.369,2.119,37.938,2.13a133.353,133.353,0,0,0,36.178-5.146c-.818-1.126-1.663-2.248-2.55-3.363-50.2-63.128-84.678-7.605-84.678-7.605a67.384,67.384,0,0,0-5.695,6.375c.651.528,1.318,1.038,2.015,1.516" transform="translate(-25.635 -92.463)" fill="#151f23"/>
            <path id="Trazado_142721" data-name="Trazado 142721" d="M95.052,460.512c-.416-8.864-.771-17.742-1.728-26.569-.547-5.044-1.121-3.257-.995-8.288-16.758-2.466-33.883-14.59-44.834-27.228a83.178,83.178,0,0,0-.148,13.826c2.122,29.177,12.137,55.886,18,69.377a16.107,16.107,0,0,0,30.775-8.262q-.761-6.359-1.072-12.856" transform="translate(-15.448 -130.6)" fill="#151f23"/>
            <path id="Trazado_142722" data-name="Trazado 142722" d="M54.267,405.684a24.353,24.353,0,0,0,1.939,2.2c.682.7,1.382,1.377,2.107,2.028s1.467,1.283,2.231,1.888,1.537,1.2,2.328,1.763a72.749,72.749,0,0,0,9.983,6.012c.865.442,1.745.854,2.627,1.262s1.777.787,2.669,1.17,1.792.751,2.7,1.087c.9.355,1.817.687,2.736,1,.912.334,1.842.618,2.765.922s1.859.567,2.788.852l2.81.778,2.83.7.487.121.052.5c.385,3.7.713,7.4,1.069,11.1l.979,11.108q.465,5.557.875,11.118l.376,5.565q.195,2.781.343,5.568-.4-2.763-.743-5.53l-.71-5.532q-.679-5.536-1.3-11.077L95.023,439.2c-.367-3.7-.764-7.394-1.1-11.1l.539.617-2.862-.727-2.842-.8c-.938-.3-1.888-.563-2.817-.887s-1.868-.625-2.788-.979c-.926-.336-1.846-.687-2.757-1.061-.919-.356-1.818-.759-2.724-1.146s-1.791-.819-2.676-1.252-1.763-.878-2.628-1.35c-.874-.454-1.724-.953-2.579-1.441s-1.685-1.019-2.51-1.557-1.643-1.085-2.44-1.662-1.591-1.16-2.358-1.776-1.525-1.243-2.258-1.9-1.451-1.326-2.15-2.016a30.617,30.617,0,0,1-3.8-4.481" transform="translate(-17.788 -132.978)" fill="#2e4149"/>
            <path id="Trazado_142723" data-name="Trazado 142723" d="M188.185,334.569s.754,1.3,1.892,3.842" transform="translate(-61.685 -109.668)" fill="none" stroke="#2e4149" stroke-miterlimit="10" stroke-width="1.063"/>
            <path id="Trazado_142724" data-name="Trazado 142724" d="M195.449,351.618c5.486,15.847,12.483,47.715,3.157,93.034" transform="translate(-64.066 -115.256)" fill="none" stroke="#2e4149" stroke-miterlimit="10" stroke-width="1.063" stroke-dasharray="12.181 12.181"/>
            <path id="Trazado_142725" data-name="Trazado 142725" d="M198.391,495.985q-.463,2.07-.971,4.176" transform="translate(-64.712 -162.578)" fill="none" stroke="#2e4149" stroke-miterlimit="10" stroke-width="1.063"/>
            <path id="Trazado_142726" data-name="Trazado 142726" d="M111.779,332.313s-.2,1.007-.559,2.769l-.629,3.178c-.229,1.229-.486,2.616-.768,4.128l-.879,4.887c-.32,1.732-.6,3.569-.93,5.46-.3,1.9-.608,3.856-.922,5.848-.278,2-.6,4.019-.849,6.051s-.561,4.057-.757,6.062-.475,3.97-.622,5.883c-.168,1.912-.372,3.757-.473,5.513q-.094,1.317-.182,2.558c-.073.826-.12,1.624-.146,2.391-.062,1.535-.14,2.942-.211,4.191-.048,1.249-.046,2.338-.067,3.236-.034,1.8-.074,2.825-.074,2.825s-.087-1.023-.2-2.819c-.05-.9-.137-1.989-.188-3.242-.031-1.253-.065-2.668-.077-4.212-.048-1.546.043-3.216.083-4.985s.15-3.633.284-5.559c.112-1.928.294-3.914.5-5.93.182-2.02.469-4.058.713-6.1.266-2.042.608-4.072.9-6.075.336-2,.687-3.96,1.049-5.854s.733-3.722,1.123-5.446c.366-1.73.756-3.354,1.123-4.853.35-1.5.733-2.864,1.051-4.076l.875-3.124c.243-.866.462-1.539.6-2l.224-.7" transform="translate(-33.838 -108.928)" fill="#2e4149"/>
            <path id="Trazado_142727" data-name="Trazado 142727" d="M97.519,327.2l-1.245,3.914q-.618,1.958-1.2,3.926l-1.162,3.934-1.128,3.943c-.379,1.313-.726,2.634-1.091,3.951s-.7,2.641-1.052,3.96-.688,2.643-1.006,3.971-.682,2.645-.972,3.978l-.92,3.99-.851,4c-.3,1.332-.549,2.673-.8,4.014s-.526,2.678-.744,4.024l-.665,4.037c-.229,1.345-.373,2.7-.573,4.05s-.384,2.7-.5,4.061l-.426,4.072-.247-.388c1.736.729,3.455,1.5,5.183,2.247s3.453,1.5,5.168,2.285c-1.783-.609-3.557-1.242-5.328-1.882s-3.55-1.26-5.313-1.921l-.263-.1.016-.289.233-4.113c.065-1.374.214-2.739.356-4.1s.251-2.738.459-4.1l.584-4.078c.184-1.362.46-2.707.7-4.06s.483-2.7.774-4.045.55-2.69.851-4.029l.953-4.005c.307-1.338.668-2.661,1.018-3.988s.709-2.651,1.094-3.967.737-2.642,1.159-3.948.805-2.622,1.231-3.925.858-2.6,1.305-3.9.891-2.593,1.383-3.873c.955-2.569,1.926-5.133,3.015-7.648" transform="translate(-27.007 -107.252)" fill="#2e4149"/>
            <path id="Trazado_142728" data-name="Trazado 142728" d="M83.314,169.319s24.846,17.24,60.34,0c0,0,24.846,2.536,28.395,15.719s-6.085,60.339-18.761,80.114c0,0-32.959,15.719-74.538,2.536V247.913s-15.291-12.988-16.226-34.48c-.507-11.662,5.071-36.508,20.79-44.114" transform="translate(-20.485 -55.501)" fill="#ff6464"/>
            <path id="Trazado_142729" data-name="Trazado 142729" d="M137.1,237.907c-12.657,5.37-26.254,7.775-39.96,6a76.071,76.071,0,0,1-34.1-13.685,51.84,51.84,0,0,0,15.9,30.622v19.775c41.578,13.183,74.537-2.535,74.537-2.535,10.264-16.012,18.532-49.973,19.424-69.318A85.859,85.859,0,0,1,137.1,237.907" transform="translate(-20.66 -68.431)" fill="#e04c4c"/>
            <g id="Grupo_161788" data-name="Grupo 161788" transform="translate(70.875 163.564)" opacity="0.5">
              <g id="Grupo_161787" data-name="Grupo 161787">
                <g id="Grupo_161786" data-name="Grupo 161786" clip-path="url(#clip-path-8)">
                  <path id="Trazado_142730" data-name="Trazado 142730" d="M176.45,250.61c-11.342,10.942-22.572,22.389-35.891,30.97a91.559,91.559,0,0,1-35.122,13.577c35.439,6.881,61.928-5.747,61.928-5.747,6.814-10.629,12.744-29.165,16.225-46.088-2.266,2.571-4.739,4.971-7.14,7.287" transform="translate(-105.436 -243.322)" fill="#ba3a3a"/>
                </g>
              </g>
            </g>
            <path id="Trazado_142731" data-name="Trazado 142731" d="M2.826,164.475s3.364-.934,5.228.631,9.016,21.395,7.513,26.538-12.74-27.168-12.74-27.168" transform="translate(-0.926 -53.822)" fill="#c4cace"/>
            <path id="Trazado_142732" data-name="Trazado 142732" d="M7.621,161.513s3.9,1.383,4.7,3.476,8.659,26.4,8.659,26.4l-4.355-.546s-3.893-22.286-9.006-29.327" transform="translate(-2.498 -52.942)" fill="#d9dbdd"/>
            <path id="Trazado_142733" data-name="Trazado 142733" d="M11.625,160.776s7.538,15.837,6.35,29.448l5.207-1.764s-5.749-21.331-11.557-27.684" transform="translate(-3.811 -52.7)" fill="#e8ebed"/>
            <path id="Trazado_142734" data-name="Trazado 142734" d="M21.072,201.562s10.421-8.816,50.889-5.414l22.414,54.8-15.864-.02Z" transform="translate(-6.907 -64.039)" fill="#fff"/>
            <path id="Trazado_142735" data-name="Trazado 142735" d="M21.072,202.433s10.525-6.826,49.948-3.491l22.795,54.435-15.447-.085Z" transform="translate(-6.907 -64.91)" fill="#e8ebed"/>
            <path id="Trazado_142736" data-name="Trazado 142736" d="M21.072,203.248s10.081-4.872,48.481-1.617l22.262,52.421-15.046-.1Z" transform="translate(-6.907 -65.725)" fill="#d9dbdd"/>
            <path id="Trazado_142737" data-name="Trazado 142737" d="M21.072,203.991s9.7-2.912,47.331.286L90.312,254.7l-14.743-.122Z" transform="translate(-6.907 -66.468)" fill="#c4cace"/>
            <path id="Trazado_142738" data-name="Trazado 142738" d="M21.072,204.583l46.545.462,23.677,52.148-50.931.626Z" transform="translate(-6.907 -67.06)" fill="#1b262c"/>
            <path id="Trazado_142739" data-name="Trazado 142739" d="M1.593,161.569l12.572,28.915,19.29,53.236-3.075-2.06L0,162.422Z" transform="translate(0 -52.96)" fill="#151f23"/>
            <path id="Trazado_142740" data-name="Trazado 142740" d="M33.319,253.3l.994,2.1s13.2-1.852,14.147-1.535c6.189,2.07-11.03,4.724-11.03,4.724s14.065-1.077,14.84-.007c1.54,2.128-13.585,4.523-13.585,4.523s14.05-1,13.5.434c-.59,1.539-10.487,3.078-10.487,3.078s-2.731,4.449-4.578,3.442c0,0-4.43.737-3.056-3.9,0,0-3.48-2.372-2.755-5.878,0,0-1.3-4.795,2.013-6.971" transform="translate(-10.18 -83.029)" fill="#ffb99a"/>
            <path id="Trazado_142741" data-name="Trazado 142741" d="M44.093,273.1s9.708-.706,10.078.191C55.2,275.776,40.1,276.52,40.1,276.52Z" transform="translate(-13.144 -89.431)" fill="#ffb99a"/>
            <path id="Trazado_142742" data-name="Trazado 142742" d="M83.446,259.257s15.972,5.324,18.482,7.751c1.734,1.677-.355,11.351-2.787,11.884s-6.382,5.143-7.679,4.859-3.23,3.335-5.17,2.8-8.645-12.572-3-11.849c0,0-3.879-6.253,2.759-3.512,0,0-5.284-6.16,2.969-5.087,0,0-19.664-9.307-5.577-6.845" transform="translate(-25.686 -84.845)" fill="#ffb99a"/>
            <path id="Trazado_142743" data-name="Trazado 142743" d="M105.793,270.991l2.647,10.845,34.9,15.63s42.846,32.705,7.859,23.831-52.227-27.888-52.227-27.888l-8.817-2.876Z" transform="translate(-29.552 -88.828)" fill="#ffb99a"/>
            <g id="Grupo_161791" data-name="Grupo 161791" transform="translate(60.604 182.163)" opacity="0.5">
              <g id="Grupo_161790" data-name="Grupo 161790">
                <g id="Grupo_161789" data-name="Grupo 161789" clip-path="url(#clip-path-9)">
                  <path id="Trazado_142744" data-name="Trazado 142744" d="M105.793,270.991l2.647,10.845,34.9,15.63s42.846,32.705,7.859,23.831-52.227-27.888-52.227-27.888l-8.817-2.876Z" transform="translate(-90.156 -270.991)" fill="#e09577"/>
                </g>
              </g>
            </g>
            <path id="Trazado_142745" data-name="Trazado 142745" d="M153.56,304.811,128.081,293.4c-2.087,5.862-4.166,11.729-6.75,17.383a124.422,124.422,0,0,0,40.088,17.859c34.987,8.874-7.86-23.831-7.86-23.831" transform="translate(-39.771 -96.173)" fill="#e09577"/>
            <path id="Trazado_142746" data-name="Trazado 142746" d="M159.874,216.772S173.35,181.155,185.7,182.7s11.23,32,6.738,66.588c-3.907,30.084-2.246,44.908-20.213,45.941S132.4,284.99,122.508,276.624c0,0,6.935-10.61,9.634-19.522,0,0,16.5,6.644,20.995,6.644,0,0-2.247-3.614,2.246-3.614s-2.246-23.745,4.492-43.36" transform="translate(-40.157 -59.872)" fill="#ff6464"/>
          </g>
        </g>
      </g>
    </g>
  </g>
</svg>
