<svg id="Grupo_157546" data-name="Grupo 157546" xmlns="http://www.w3.org/2000/svg" xmlns:xlink="http://www.w3.org/1999/xlink" width="391.809" height="835.445" viewBox="0 0 391.809 835.445">
  <defs>
    <clipPath id="clip-path">
      <rect id="Rect치ngulo_37370" data-name="Rect치ngulo 37370" width="292.624" height="835.445" fill="none"/>
    </clipPath>
    <clipPath id="clip-path-3">
      <rect id="Rect치ngulo_37368" data-name="Rect치ngulo 37368" width="11.324" height="7.265" fill="none"/>
    </clipPath>
  </defs>
  <path id="Trazado_114544" data-name="Trazado 114544" d="M271.23,813.24C325.607,788.571,382,755.287,403.9,699.621c24.305-61.778-1.136-130.963-.525-197.37.486-52.607,17.487-103.411,30.864-154.28s23.2-104.921,9.4-155.677c-9.239-33.978-28.864-64.721-54.2-89.116-44.615-42.957-108.9-66.2-169.972-56.377S102.906,101.39,85.051,160.77c-25.3,84.13,24.118,173.937,13.615,261.173-4.108,34.135-17.261,66.415-26.179,99.615a409.125,409.125,0,0,0-13.975,108.38c.333,56,14.488,115.744,56.153,153.035C156.691,820.59,219.233,836.83,271.23,813.24Z" transform="translate(-58.504 0.956)" fill="#e1e8ff"/>
  <g id="Grupo_157545" data-name="Grupo 157545" transform="translate(49.81 0)">
    <g id="Grupo_157544" data-name="Grupo 157544" transform="translate(0 0)" clip-path="url(#clip-path)">
      <g id="Grupo_157543" data-name="Grupo 157543">
        <g id="Grupo_157542" data-name="Grupo 157542" clip-path="url(#clip-path)">
          <path id="Trazado_128754" data-name="Trazado 128754" d="M91.83,66.863s22.558-7.36,36.768,2.681,19.679,37.112,19.679,37.112l-44.149-.849Z" transform="translate(117.689 82.358)" fill="#5b413c"/>
          <path id="Trazado_128755" data-name="Trazado 128755" d="M106.28,102.039s36.48-27.518,45.849,5.533c10.092,35.609-9.482,56.994-9.482,56.994L118.58,140.984Z" transform="translate(136.208 117.006)" fill="#5b413c"/>
          <path id="Trazado_128756" data-name="Trazado 128756" d="M76.587,66.4S129.618,38,171.894,107.02s16.745,151.89-20.532,172.8-79.97-5.43-79.97-5.43Z" transform="translate(91.496 77.679)" fill="#36251f"/>
          <path id="Trazado_128757" data-name="Trazado 128757" d="M13.235,334.588l-1.4,19.836H44.9l1.4-19.836Z" transform="translate(15.169 428.807)" fill="#ff9568"/>
          <path id="Trazado_128758" data-name="Trazado 128758" d="M29.866,163.312S5.709,342.47,31.078,368.211c10.142,10.29,41.8,13.468,52.794-5.12,17.276-29.22,23.364-102.838,25.346-142Z" transform="translate(24.965 209.3)" fill="#36251f"/>
          <path id="Trazado_128759" data-name="Trazado 128759" d="M96.085,273.625s9.459,18.682-6.432,74.866C77.519,391.383,51.678,483.534,51.678,483.534s-25.015,3-41.728-3.9L31.424,221.164Z" transform="translate(12.752 283.443)" fill="#36251f"/>
          <path id="Trazado_128760" data-name="Trazado 128760" d="M27.541,477.416a1.545,1.545,0,0,1-.392-.05,1.592,1.592,0,0,1-1.154-1.937c.235-.94,23.827-94.134,30.45-115.565C63,338.649,65.837,297.617,65.867,297.2a1.566,1.566,0,0,1,.13-.534c13.226-30.156,19.763-90.611,19.827-91.218a1.612,1.612,0,0,1,1.755-1.419A1.594,1.594,0,0,1,89,205.787c-.064.611-6.614,61.22-19.966,91.912-.276,3.961-3.085,42.225-9.539,63.107-6.6,21.354-30.167,114.468-30.4,115.405a1.6,1.6,0,0,1-1.547,1.2" transform="translate(33.25 261.479)" fill="#5b413c"/>
          <path id="Trazado_128761" data-name="Trazado 128761" d="M48.713,334.624c-17.361,0-36.223-4.552-37.094-4.764a1.6,1.6,0,0,1,.757-3.1c.23.057,23.211,5.59,41.267,4.538a1.6,1.6,0,1,1,.189,3.185c-1.679.1-3.393.144-5.12.144" transform="translate(13.331 418.714)" fill="#5b413c"/>
          <path id="Trazado_128762" data-name="Trazado 128762" d="M70.166,393.013c0,.278-.007.548-.014.815-.025,1.234-.08,2.345-.132,3.3-.125,2.1-.278,3.386-.278,3.386H.18a38.2,38.2,0,0,1-.08-6.683c.456-7.109,2.815-18.337,12.423-25.755,13.151-10.169,8.072-8.047,10.771-12.681.3-.516,2.669-8.392,2.923-8.933,2.261-4.814,4.342-7.089,16.806-7.089,16.53,0,17.984,8.02,19.749,12.245a78.68,78.68,0,0,1,2.752,9.82c.415,1.757.833,3.635,1.241,5.547,1.02,4.794,1.971,9.8,2.619,13.792a72.428,72.428,0,0,1,.78,12.238" transform="translate(0 434.935)" fill="#ff9918"/>
          <path id="Trazado_128763" data-name="Trazado 128763" d="M35.709,380.657c0,.278-.007.548-.014.815-.025,1.234-.08,2.345-.132,3.3a19.413,19.413,0,0,1-7.226-9.368c-4.305-11.723,2.314-25.793,2.592-26.389l.139.068c.415,1.757.833,3.635,1.241,5.547-1.565,4.787-3.37,12.834-.865,19.645a16.184,16.184,0,0,0,4.264,6.386" transform="translate(34.457 447.291)" fill="#dd6a18"/>
          <path id="Trazado_128764" data-name="Trazado 128764" d="M70.152,363.237c-.094,3.961-.411,6.685-.411,6.685H.178A38.4,38.4,0,0,1,.1,363.237Z" transform="translate(0 465.523)" fill="#dd6a18"/>
          <path id="Trazado_128765" data-name="Trazado 128765" d="M30.613,351.768a1.974,1.974,0,0,1-.5-.064,34.388,34.388,0,0,0-16.129-.331,1.984,1.984,0,0,1-1.056-3.824,38.078,38.078,0,0,1,18.177.315,1.983,1.983,0,0,1-.5,3.9" transform="translate(14.707 444.222)" fill="#f4ece1"/>
          <path id="Trazado_128766" data-name="Trazado 128766" d="M30.975,348.534a2,2,0,0,1-.5-.064,34.381,34.381,0,0,0-16.126-.331,1.984,1.984,0,0,1-1.056-3.824,38.076,38.076,0,0,1,18.177.315,1.983,1.983,0,0,1-.5,3.9" transform="translate(15.171 440.079)" fill="#f4ece1"/>
          <path id="Trazado_128767" data-name="Trazado 128767" d="M29.308,354.522a1.994,1.994,0,0,1-.5-.064,34.707,34.707,0,0,0-16.129-.331,1.985,1.985,0,0,1-1.056-3.826,38.14,38.14,0,0,1,18.18.317,1.984,1.984,0,0,1-.5,3.9" transform="translate(13.036 447.752)" fill="#f4ece1"/>
          <path id="Trazado_128768" data-name="Trazado 128768" d="M27.776,357.654a1.973,1.973,0,0,1-.5-.064,34.706,34.706,0,0,0-16.129-.331,1.983,1.983,0,0,1-1.054-3.824,38.09,38.09,0,0,1,18.177.313,1.985,1.985,0,0,1-.5,3.906" transform="translate(11.073 451.765)" fill="#f4ece1"/>
          <path id="Trazado_128769" data-name="Trazado 128769" d="M81.793,334.862l3.217,24.132h29.944l-3.217-24.132Z" transform="translate(104.826 429.158)" fill="#ff9568"/>
          <path id="Trazado_128770" data-name="Trazado 128770" d="M189.885,396.24H80.861a15.344,15.344,0,0,1-1.435-6.055c-.678-9.22,2.259-23.939,3.7-33.218.171-1.084.322-2.1.44-3.012a32.41,32.41,0,0,0,.322-3.79c0-7.573,6.706-6.277,6.706-6.277,11.034,10.819,23.523-5.405,30.817-.082,0,0,3.139,2.25,11.8,10.039s23.375,12.925,35.908,18.168c16.177,6.763,20.767,13.518,21.661,18.171a8.519,8.519,0,0,1-.894,6.055" transform="translate(101.664 439.205)" fill="#ff9918"/>
          <path id="Trazado_128771" data-name="Trazado 128771" d="M189.829,369.568H80.805a15.343,15.343,0,0,1-1.435-6.055H190.723a8.519,8.519,0,0,1-.894,6.055" transform="translate(101.72 465.877)" fill="#dd6a18"/>
          <path id="Trazado_128772" data-name="Trazado 128772" d="M89.849,389.919H86.612a23.936,23.936,0,0,0,5.859-17.457c-.525-10.771-6.989-18.034-11.479-21.816.173-1.084.324-2.1.44-3.012,4.842,3.7,13,11.8,13.635,24.7a26.453,26.453,0,0,1-5.218,17.586" transform="translate(103.799 445.527)" fill="#dd6a18"/>
          <path id="Trazado_128773" data-name="Trazado 128773" d="M103.143,353.374a1.8,1.8,0,0,1-.431-3.541l6.811-1.691a1.8,1.8,0,1,1,.865,3.489l-6.811,1.691a1.88,1.88,0,0,1-.434.053" transform="translate(129.885 446.109)" fill="#f4ece1"/>
          <path id="Trazado_128774" data-name="Trazado 128774" d="M100.507,350.744a1.8,1.8,0,0,1-.431-3.541l6.811-1.691a1.8,1.8,0,1,1,.865,3.486l-6.811,1.693a1.875,1.875,0,0,1-.433.052" transform="translate(126.507 442.738)" fill="#f4ece1"/>
          <path id="Trazado_128775" data-name="Trazado 128775" d="M106.126,355.109a1.8,1.8,0,0,1-.431-3.541l6.811-1.691a1.8,1.8,0,1,1,.865,3.486l-6.811,1.691a1.764,1.764,0,0,1-.434.055" transform="translate(133.711 448.333)" fill="#f4ece1"/>
          <path id="Trazado_128776" data-name="Trazado 128776" d="M109.112,356.777a1.8,1.8,0,0,1-.431-3.541l6.811-1.691a1.8,1.8,0,1,1,.865,3.486l-6.811,1.693a1.878,1.878,0,0,1-.434.053" transform="translate(137.536 450.47)" fill="#f4ece1"/>
          <path id="Trazado_128777" data-name="Trazado 128777" d="M112.367,358.319a1.8,1.8,0,0,1-.431-3.541l6.811-1.691a1.8,1.8,0,0,1,.865,3.489l-6.811,1.691a1.874,1.874,0,0,1-.434.053" transform="translate(141.707 452.447)" fill="#f4ece1"/>
          <path id="Trazado_128778" data-name="Trazado 128778" d="M115.9,359.635a1.8,1.8,0,0,1-.431-3.541l6.811-1.691a1.8,1.8,0,1,1,.865,3.486l-6.811,1.691a1.766,1.766,0,0,1-.434.055" transform="translate(146.23 454.133)" fill="#f4ece1"/>
          <path id="Trazado_128779" data-name="Trazado 128779" d="M140.749,172.485s6.411,146.791-2.918,181.709c-2.17,8.125-45.892,7.433-56.381-7.456-20.678-29.355-26.517-94.96-28.2-137.491Z" transform="translate(68.25 221.056)" fill="#36251f"/>
          <path id="Trazado_128780" data-name="Trazado 128780" d="M65.223,275.872a349.481,349.481,0,0,0,2.745,68.338c6.466,44.106,32.611,138.148,32.611,138.148s21.032.214,36.362-3.363l-9.015-253.134Z" transform="translate(82.839 289.464)" fill="#36251f"/>
          <path id="Trazado_128781" data-name="Trazado 128781" d="M79.8,334.787a1.6,1.6,0,0,1-.087-3.19l37.808-2.108a1.6,1.6,0,1,1,.178,3.19l-37.808,2.106c-.032,0-.062,0-.091,0" transform="translate(100.228 422.27)" fill="#5b413c"/>
          <path id="Trazado_128782" data-name="Trazado 128782" d="M105.882,479.395a1.6,1.6,0,0,1-1.547-1.209c-.233-.929-23.222-93.235-27.5-117.347-4.073-22.973,3.516-55.459,4.73-60.408-19.1-37.115-21.034-93.965-21.052-94.538a1.6,1.6,0,0,1,1.547-1.645h.05a1.6,1.6,0,0,1,1.595,1.549c.016.568,1.953,57.25,20.97,93.7a1.6,1.6,0,0,1,.132,1.132c-.091.356-9.031,35.942-4.83,59.654,4.257,24,27.219,116.2,27.452,117.133a1.6,1.6,0,0,1-1.164,1.932,1.517,1.517,0,0,1-.388.048" transform="translate(77.558 261.764)" fill="#5b413c"/>
          <path id="Trazado_128783" data-name="Trazado 128783" d="M86.951,102.234c-.039.123-.071.242-.11.36l-.094.3-1.923,6.046-1.917,6.124-3.762,12.293Q75.419,139.666,71.893,152q-1.342,4.723-2.653,9.443-1.492,5.383-2.932,10.76-.589,2.214-1.168,4.431c-2.14,8.193-4.166,16.377-5.932,24.434-.865,4.016-1.7,8.029-2.375,11.892-.189.981-.322,1.912-.484,2.868l-.226,1.408-.18,1.3-.185,1.291c-.057.436-.1.885-.148,1.326-.089.885-.208,1.757-.265,2.669a142.83,142.83,0,0,0,.062,22.627,221.41,221.41,0,0,0,3.105,23.594c.726,3.947,1.549,7.892,2.448,11.81.459,1.955.929,3.906,1.424,5.827l.757,2.85.721,2.551.212.762a20.473,20.473,0,0,1-39.2,11.812l-.621-1.932-.541-1.741L22.7,298.556c-.653-2.263-1.264-4.515-1.855-6.774q-1.769-6.766-3.228-13.605a265.56,265.56,0,0,1-4.463-27.9c-.488-4.757-.84-9.571-1-14.465s-.148-9.856.141-14.926c.052-1.259.171-2.542.269-3.815.052-.643.1-1.278.162-1.921l.212-1.937.219-1.935c.075-.63.164-1.2.251-1.809.169-1.189.326-2.409.52-3.564.714-4.707,1.556-9.213,2.432-13.7,1.761-8.948,3.726-17.662,5.788-26.311q.739-3.087,1.492-6.158c.488-1.974.974-3.947,1.476-5.916q1.718-6.852,3.509-13.662,3.357-12.786,6.911-25.476l3.591-12.686,1.837-6.343,1.885-6.4a22.988,22.988,0,0,1,44.1,12.989" transform="translate(15.435 93.233)" fill="#ff9568"/>
          <path id="Trazado_128784" data-name="Trazado 128784" d="M62.725,115.9q-1.492,5.383-2.93,10.76L17.125,114.2c.491-1.974.977-3.947,1.481-5.916Z" transform="translate(21.947 138.77)" fill="#e0693e"/>
          <path id="Trazado_128785" data-name="Trazado 128785" d="M84.47,106.162l-14.76,62.31L14.922,156.255s12.289-65.687,28.81-78.017c9.147-6.827,17.263-8.31,26.743-3.386a27.964,27.964,0,0,1,14,31.31" transform="translate(19.124 92.211)" fill="#236676"/>
          <path id="Trazado_128786" data-name="Trazado 128786" d="M27.063,159.713s-7.986,48.322-2.565,67.668,136.846,36.227,145.354,18.344c16.411-34.5,9.781-73.435,9.781-73.435-59.849,13.79-109.3,6.541-152.57-12.576" transform="translate(28.98 204.688)" fill="#36251f"/>
          <path id="Trazado_128787" data-name="Trazado 128787" d="M56.649,165.088q-.034.8-.071,1.631c-.614,14.493-1.376,35.016-1.775,55.958-.025,1.155-.043,2.318-.068,3.473-.11,6.681-.187,13.375-.208,19.9a1.683,1.683,0,0,0,1.663,1.684H56.2a1.679,1.679,0,0,0,1.682-1.675c.018-6.3.091-12.752.2-19.2.018-1.134.037-2.268.062-3.4.395-21.071,1.159-41.774,1.782-56.394.03-.668.057-1.323.084-1.969Z" transform="translate(69.882 211.576)" fill="#5b413c"/>
          <path id="Trazado_128788" data-name="Trazado 128788" d="M74.218,165.088c-.041.9-.084,1.812-.125,2.754-.9,18.962-2.268,45.805-3.174,52.144a3.752,3.752,0,0,1-1.891,3.03c-1.736.963-4.408.908-7.084.436a33.686,33.686,0,0,1-3.343-.773,39.4,39.4,0,0,1-4.684-1.645,1.678,1.678,0,1,0-1.348,3.073,42.882,42.882,0,0,0,5.964,2.044,33.478,33.478,0,0,0,3.349.705,23.221,23.221,0,0,0,3.194.276,11.265,11.265,0,0,0,5.588-1.184,7.133,7.133,0,0,0,3.582-5.492c.933-6.539,2.314-33.421,3.2-52.431.05-1,.1-1.976.139-2.936Z" transform="translate(66.084 211.576)" fill="#5b413c"/>
          <path id="Trazado_128789" data-name="Trazado 128789" d="M189.233,181.2c-.342,2.884-.634,6.443-.9,10.555q-.137,2.118-.274,4.41c-.753,12.8-1.405,29.624-2.617,47.081-.107,1.563-.226,3.142-.351,4.714-2.815,37.578,8.28,50.665-7.614,54.279-96.539,21.965-135.967-.059-147.715-9.254-12.973-10.153-4.226-50.834.554-98.8.157-1.622.308-3.217.468-4.78,1.278-13.053,2.231-23.767,2.257-30.026.1-29.1,3.911-60.116,8.264-73.41S94.155,62.128,94.155,62.128l53.77,2.279s16.927,9.948,36.172,29.978,8.745,56.269,5.136,86.819" transform="translate(29.435 79.623)" fill="#236676"/>
          <path id="Trazado_128790" data-name="Trazado 128790" d="M63.593,95.846,40.878,135.815l20.842,1.46L44.058,166.368,97.192,125.6l-26.213-4.317,25.264-22.9Z" transform="translate(52.389 122.836)" fill="#104151"/>
          <path id="Trazado_128791" data-name="Trazado 128791" d="M81.474,63.989s-9.391,59.6-15.02,85.494a174.336,174.336,0,0,1-25.159,59.3,184.065,184.065,0,0,1-15.834,19.8c-1.374.144-5.095-15.754,4.294-37.71C47.056,150.407,60.442,78,65.843,68.885s15.631-4.9,15.631-4.9" transform="translate(30.206 80.76)" fill="#36251f"/>
          <path id="Trazado_128792" data-name="Trazado 128792" d="M42.154,85.378a51.786,51.786,0,0,1,17.32-.281,5.306,5.306,0,0,1,4.285,6.026c-1.1,7.24-3.45,21.2-6.29,29.948a5.306,5.306,0,0,1-6,3.573L36.982,122a5.3,5.3,0,0,1-4.137-6.726c1.846-6.217,4.508-16.459,4.919-24.952a5.29,5.29,0,0,1,4.39-4.944" transform="translate(41.811 108.273)" fill="#5b413c"/>
          <path id="Trazado_128793" data-name="Trazado 128793" d="M104.944,96.389a68.028,68.028,0,0,1-36.83-10.913A70.414,70.414,0,0,1,50,69.13,1.6,1.6,0,0,1,52.6,67.269c.237.333,24.395,33.17,66.415,24.452a1.6,1.6,0,0,1,.65,3.126,72.352,72.352,0,0,1-14.719,1.542" transform="translate(63.7 85.359)" fill="#104151"/>
          <path id="Trazado_128794" data-name="Trazado 128794" d="M118.775,75.007S93.189,90.805,86.91,124.7s17.162,80.549,43.918,93.831c0,0,4.556,11.15-1.177,24.678,0,0-57.756-17.591-63.038-90.874s35.864-85,35.864-85c5.2-1.5,13.327,3.388,16.3,7.673" transform="translate(84.771 85.941)" fill="#36251f"/>
          <path id="Trazado_128795" data-name="Trazado 128795" d="M87.626,89.974a48.858,48.858,0,0,0-15.807-4.18,5.006,5.006,0,0,0-5.291,4.549c-.627,6.884-1.643,20.208-1.02,28.867a5.005,5.005,0,0,0,4.686,4.634l13.874.86a5.01,5.01,0,0,0,5.314-5.227c-.283-6.115-.4-16.1,1.145-23.977a4.993,4.993,0,0,0-2.9-5.526" transform="translate(83.706 109.94)" fill="#5b413c"/>
          <path id="Trazado_128796" data-name="Trazado 128796" d="M27.627,147.967h-.05a1.108,1.108,0,0,1-1.056-1.155c.018-.392,1.777-39.344,6.311-62.39a1.106,1.106,0,0,1,2.17.427c-4.5,22.884-6.252,61.672-6.27,62.059a1.105,1.105,0,0,1-1.1,1.059" transform="translate(33.987 107.051)" fill="#104151"/>
          <path id="Trazado_128797" data-name="Trazado 128797" d="M30.853,96.517a1.106,1.106,0,0,1-1.052-.762l-2.786-8.483a1.107,1.107,0,0,1,2.1-.689L31.9,95.066a1.108,1.108,0,0,1-.707,1.4,1.131,1.131,0,0,1-.345.055" transform="translate(34.552 109.986)" fill="#104151"/>
          <path id="Trazado_128798" data-name="Trazado 128798" d="M127.413,198.1c-20.968,1.316-42.766-6.829-63.928-24.048a179.644,179.644,0,0,1-32.91-35.613,1.53,1.53,0,1,1,2.555-1.684,176.693,176.693,0,0,0,32.346,34.97c18.1,14.716,46.266,30.195,77.627,20.363a1.531,1.531,0,1,1,.915,2.923,70.085,70.085,0,0,1-16.605,3.089" transform="translate(38.86 174.378)" fill="#104151"/>
          <path id="Trazado_128799" data-name="Trazado 128799" d="M91.716,175.954a1.4,1.4,0,0,1-.338-.014c-25.661-4.093-47.608-35.2-48.53-36.526a1.53,1.53,0,0,1,2.512-1.748c.219.313,22.129,31.363,46.5,35.251a1.529,1.529,0,0,1-.144,3.037" transform="translate(54.562 175.592)" fill="#104151"/>
          <path id="Trazado_128800" data-name="Trazado 128800" d="M53.8,57.167s2.875-14.636-.876-26.781c-3.692-11.951-3.692-19.092-1.389-21.212,7.246-6.676,14.061,9.564,14.061,9.564s-1.912-15.1,4.358-15.522S80.6,17.424,80.6,17.424,79.436-4.007,87.645.668,98.879,19.639,98.879,19.639s28.191,4.7,38.561,23.608c0,0,8.485-9.04,14.009-3.708s-5.95,14.155-5.95,14.155,8.816,5.8,7.456,14.13-11.835,2.622-11.835,2.622,1.764,44.576-36.1,56.825S53.8,57.167,53.8,57.167" transform="translate(64.011 0.001)" fill="#d65900"/>
          <path id="Trazado_128801" data-name="Trazado 128801" d="M57.288,72.159,55.472,85.653A40.064,40.064,0,0,0,59.5,89.6c20.064,17.023,46.1,2.793,46.1,2.793l6.293-46.78L63.8,68.995Z" transform="translate(71.093 58.457)" fill="#ff9568"/>
          <path id="Trazado_128802" data-name="Trazado 128802" d="M57.288,61.2,55.472,74.7A40.07,40.07,0,0,0,59.5,78.644c19.759-5.382,36.182-24.482,36.182-24.482L63.8,58.038Z" transform="translate(71.093 69.414)" fill="#36251f"/>
          <path id="Trazado_128803" data-name="Trazado 128803" d="M60.812,37.005s-6.039-9.45-11.241-1.51-4.387,25.531,6.92,24.192Z" transform="translate(59.586 41.42)" fill="#e0693e"/>
          <path id="Trazado_128804" data-name="Trazado 128804" d="M48.132,83.168S45.191,109.6,72.392,113.2c27.03,3.584,46.727-9.66,47.818-10.516l.032-.021,1.034-5.455,5.373-28.312,2.873-15.132s7.144-26.982-18.266-35.5c-18.565-6.222-36.861-5.46-47.218,3.27-.335.281-.662.573-.972.874A23.656,23.656,0,0,0,56.214,34.5L51.687,61.766l-1.109,6.683Z" transform="translate(61.567 18.188)" fill="#ff9568"/>
          <path id="Trazado_128805" data-name="Trazado 128805" d="M80.31,41.839s-3.922,11.346-13.356,12.9c-10.742,1.766-12.7-11.661-12.7-11.661Z" transform="translate(69.529 53.621)" fill="#f4ece1"/>
          <path id="Trazado_128806" data-name="Trazado 128806" d="M58.7,50.753a5.71,5.71,0,0,1-.627-.228.874.874,0,0,1,.719-1.593,5.6,5.6,0,0,0,5.512-.7A.873.873,0,1,1,65.4,49.6,7.208,7.208,0,0,1,58.7,50.753" transform="translate(73.77 61.572)" fill="#e0693e"/>
          <path id="Trazado_128807" data-name="Trazado 128807" d="M65.787,36.39c-.351,2.615.55,4.894,2.012,5.09s2.932-1.764,3.285-4.378-.55-4.892-2.012-5.09-2.934,1.764-3.285,4.378" transform="translate(84.215 41.009)" fill="#36251f"/>
          <path id="Trazado_128808" data-name="Trazado 128808" d="M54.451,34.864c-.351,2.615.55,4.894,2.012,5.09s2.932-1.764,3.285-4.378-.55-4.892-2.012-5.088-2.934,1.761-3.285,4.376" transform="translate(69.686 39.055)" fill="#36251f"/>
          <path id="Trazado_128809" data-name="Trazado 128809" d="M63.958,52.755c-6.375-.858-7.926-5.6-7.99-5.8a1.088,1.088,0,0,1,.132-.922c5.583-8.419,11.255-17.08,11.31-17.167a1.085,1.085,0,0,1,1.816,1.189c-.055.087-5.517,8.424-11,16.692.493.99,2.058,3.324,6.019,3.856a1.085,1.085,0,1,1-.29,2.152" transform="translate(71.667 36.367)" fill="#36251f"/>
          <path id="Trazado_128810" data-name="Trazado 128810" d="M96.9,29.117a6.371,6.371,0,0,1,5.344,5.971c.059,2.124,1.047,4.771,4.326,7.529,7.65,6.436,5.17,13.537,2.444,19.337s7.885,18.622,17.324,4.565,6.868-46.7-15.234-51.208-52.561-1.234-56.383,8.524a50.873,50.873,0,0,0-3.459,18.6s4.02-2.594,4.586-8.969,5.3-8.284,12.8-8.284c5.12,0,19.574,2.4,28.248,3.931" transform="translate(65.68 17.069)" fill="#d65900"/>
          <g id="Grupo_157541" data-name="Grupo 157541" transform="translate(112.142 79.954)" opacity="0.8">
            <g id="Grupo_157540" data-name="Grupo 157540" transform="translate(0)">
              <g id="Grupo_157539" data-name="Grupo 157539" clip-path="url(#clip-path-3)">
                <path id="Trazado_128811" data-name="Trazado 128811" d="M49.151,41.726c.666.157,1.371.287,2.1.386,4.83.65,8.96-.367,9.215-2.27s-3.457-3.977-8.289-4.627q-.982-.13-1.914-.171Z" transform="translate(-49.151 -35.043)" fill="#e0693e"/>
              </g>
            </g>
          </g>
          <path id="Trazado_128812" data-name="Trazado 128812" d="M64.991,39.993c-.256,1.9,3.457,3.975,8.294,4.625s8.962-.365,9.22-2.268-3.457-3.975-8.294-4.625-8.964.365-9.22,2.268" transform="translate(83.276 48.097)" fill="#e0693e"/>
          <path id="Trazado_128813" data-name="Trazado 128813" d="M82.985,33.694h0a6.2,6.2,0,0,1-8.451,2.042,34.538,34.538,0,0,0-5.887-2.85A5.7,5.7,0,0,1,65.317,25.3s12.818.543,17.669,8.392" transform="translate(83.129 32.427)" fill="#d65900"/>
          <path id="Trazado_128814" data-name="Trazado 128814" d="M51.253,28.37h0a6.2,6.2,0,0,0,7.614,4.2,34.6,34.6,0,0,1,6.427-1.193,5.7,5.7,0,0,0,5.216-6.434s-12.5-2.863-19.257,3.425" transform="translate(65.686 31.136)" fill="#d65900"/>
          <path id="Trazado_128815" data-name="Trazado 128815" d="M76.565,47.826c.084.306,2.453,8.75,7.087,11.753l.03-.023L84.715,54.1s-4.194-1.31-8.15-6.274" transform="translate(98.125 61.294)" fill="#36251f"/>
          <path id="Trazado_128816" data-name="Trazado 128816" d="M81.371,43.4s12.341-12.635,18.515-.57c5.088,9.941-10.03,32.029-21.429,22.232Z" transform="translate(100.55 48.205)" fill="#ff9568"/>
          <path id="Trazado_128817" data-name="Trazado 128817" d="M79.862,56.88c-.039,0-.078-.014-.119-.021a1.088,1.088,0,0,1-.792-1.316A20.311,20.311,0,0,1,92.92,40.881a1.085,1.085,0,0,1,.529,2.1,18.134,18.134,0,0,0-12.391,13.08,1.086,1.086,0,0,1-1.2.815" transform="translate(101.143 52.351)" fill="#36251f"/>
          <path id="Trazado_128818" data-name="Trazado 128818" d="M88.157,48.653a1.074,1.074,0,0,1-.646-.331c-.833-.885-3.418-3.128-5.337-2.9a1.085,1.085,0,0,1-.253-2.156c3.34-.392,6.79,3.165,7.171,3.571a1.085,1.085,0,0,1-.935,1.818" transform="translate(103.761 55.408)" fill="#36251f"/>
          <path id="Trazado_128819" data-name="Trazado 128819" d="M150.43,216.664l-.023,1.018c-.021,1.364-.091,2.708-.171,4.048-.171,2.679-.459,5.307-.828,7.89a120.967,120.967,0,0,1-8.052,28.757,162.371,162.371,0,0,1-12.989,24.867c-2.439,3.89-5.065,7.63-7.778,11.3-1.374,1.828-2.779,3.63-4.232,5.426-.723.9-1.476,1.784-2.238,2.683l-1.173,1.358-1.355,1.535a17.27,17.27,0,1,1-27.11-21.4c-.023.009.025-.066.066-.146l.144-.246.317-.541.657-1.141L87,279.689c.9-1.606,1.775-3.249,2.628-4.905,1.732-3.3,3.322-6.674,4.837-10.044a144.421,144.421,0,0,0,7.385-20.308,94.806,94.806,0,0,0,2.225-9.936q.39-2.447.666-4.823c.171-1.581.285-3.142.342-4.666s.066-3.03-.007-4.483c-.037-.73-.075-1.449-.141-2.154l-.2-2.51c-.294-3.541-.7-7.228-1.221-11s-1.113-7.593-1.766-11.456c-.63-3.854-1.335-7.748-2.069-11.645q-1.143-5.948-2.361-11.937-.739-3.652-1.52-7.315c-.3-1.419-.6-2.845-.913-4.269l-2.6-11.81L89.58,134.6l-2.77-11.81-2.793-11.641-.089-.37A25.23,25.23,0,1,1,133,99.009l0,.025,1.506,6.295c.486,2.069.942,4.132,1.405,6.2.924,4.127,1.784,8.259,2.638,12.4s1.666,8.282,2.446,12.444,1.563,8.321,2.263,12.51q.4,2.351.794,4.716.818,4.935,1.572,9.907.8,5.325,1.51,10.694c.554,4.269,1.088,8.554,1.547,12.893s.84,8.72,1.148,13.178.516,9.008.577,13.724l.018,1.78Z" transform="translate(103.507 102.089)" fill="#ff9568"/>
          <path id="Trazado_128820" data-name="Trazado 128820" d="M137.178,121.97l-48.3,6.315q-.739-3.652-1.52-7.315l48.249-8.907q.818,4.935,1.572,9.907" transform="translate(111.956 143.62)" fill="#e0693e"/>
          <path id="Trazado_128821" data-name="Trazado 128821" d="M81,110.409l15.227,62.2,54.692-12.629s-12.779-65.594-29.394-77.8C112.327,75.423,104.2,74,94.757,79A27.958,27.958,0,0,0,81,110.409" transform="translate(102.752 97.417)" fill="#236676"/>
          <path id="Trazado_128822" data-name="Trazado 128822" d="M94.406,144.827a1.1,1.1,0,0,1-1.075-.851L82.115,96.749a1.106,1.106,0,0,1,2.152-.513l11.216,47.229a1.106,1.106,0,0,1-.821,1.332,1.087,1.087,0,0,1-.256.03" transform="translate(105.199 122.243)" fill="#104151"/>
          <path id="Trazado_128823" data-name="Trazado 128823" d="M88.242,105.292a1.1,1.1,0,0,1-.625-.194L80.761,100.4a1.107,1.107,0,0,1,1.25-1.828l6.856,4.7a1.107,1.107,0,0,1-.625,2.019" transform="translate(102.887 126.089)" fill="#104151"/>
          <path id="Trazado_128824" data-name="Trazado 128824" d="M109.061,227.085c-9.108-7.719-18.515-15.405-26.832-24.059.034-.073.055-.109.055-.109l-.1.059a121.039,121.039,0,0,1-8.846-10.242c.764-1.447,1.453-2.7,2.008-3.657,2.526-4.392,8.629-10.577,13.345-13.728,3.578-2.391,6.863-7,10.117-7.2,10.3-.643,23.537,8.04,23.519,13.455-.03,7.974-4.194,23.927-5.243,29.937-.424,2.428-2.533,10.03-5.106,18.029q-1.455-1.242-2.914-2.482" transform="translate(93.987 215.453)" fill="#ff9568"/>
          <path id="Trazado_128825" data-name="Trazado 128825" d="M118.108,219.841a2.141,2.141,0,0,0-.678-1.561L74.869,178.542A2.107,2.107,0,0,0,72,178.531l-.032.027a2.119,2.119,0,0,0-.014,3.1L114.514,221.4a2.135,2.135,0,0,0,3.593-1.561" transform="translate(91.354 228.087)" fill="#5b413c"/>
          <path id="Trazado_128826" data-name="Trazado 128826" d="M43.122,169.934s-5.866,38.374-13.229,47.726c0,0-17.662-18.367-9.3-47.6,5.61-19.617,22.533-.123,22.533-.123" transform="translate(23.509 206.73)" fill="#ff9568"/>
        </g>
      </g>
    </g>
  </g>
</svg>
