<svg xmlns="http://www.w3.org/2000/svg" xmlns:xlink="http://www.w3.org/1999/xlink" width="175" height="122" viewBox="0 0 175 122">
  <defs>
    <clipPath id="clip-path">
      <rect id="Rect치ngulo_38690" data-name="Rect치ngulo 38690" width="115.943" height="79.036" transform="translate(0 0)" fill="none"/>
    </clipPath>
  </defs>
  <g id="Grupo_161750" data-name="Grupo 161750" transform="translate(-5320 8373)">
    <rect id="Rect치ngulo_38553" data-name="Rect치ngulo 38553" width="175" height="122" transform="translate(5320 -8373)" fill="#a6bbff"/>
    <g id="Grupo_161749" data-name="Grupo 161749" transform="translate(5350 -8352.001)">
      <g id="Grupo_161748" data-name="Grupo 161748" clip-path="url(#clip-path)">
        <path id="Trazado_142496" data-name="Trazado 142496" d="M26.85,6.912c-.137-1.457.2-1.994,1.571-2.431A96.552,96.552,0,0,1,60.717.042a88.885,88.885,0,0,1,23.8,3.742c9.063,2.8,17.431,6.891,24.1,13.852a24.534,24.534,0,0,1,7.148,14.4c.01.088.115.166.176.249v.452a1.731,1.731,0,0,0,0,1.358V35c-.239.387-.061.814-.117,1.22,0,.431,0,.863,0,1.294s0,.891,0,1.336,0,.908,0,1.362c0,.525,0,1.05,0,1.575s0,1.058,0,1.588c0,.6,0,1.2,0,1.8s0,1.2,0,1.8c0,.531,0,1.063,0,1.594s0,1.062,0,1.593a5.909,5.909,0,0,1-.069,1.387A29.927,29.927,0,0,1,90.451,78.485a69.45,69.45,0,0,1-16.573.107c-9.311-.805-16.949-5.078-23.8-11.114-3-2.638-5.786-5.515-9.039-7.861a4.382,4.382,0,0,0-3.257-.9,63.411,63.411,0,0,1-12.074.47c-5.265-.389-10.571-.949-15.321-3.425C3.843,52.353.429,46.75.1,39.384a79.776,79.776,0,0,1,.08-9.495c.328-4.4,2.393-8.113,5.21-11.416,4.065-4.766,9.249-8.008,14.814-10.706a1.776,1.776,0,0,1,2.418.786c.7.8.264,1.46-.281,2.07a4,4,0,0,1-1.318.862,41.724,41.724,0,0,0-10.913,7.374c-3.176,3.022-5.6,6.507-6.244,10.986a8.948,8.948,0,0,0,2.411,7.686c2.937,3.22,6.779,4.729,10.834,5.722a49.19,49.19,0,0,0,15.825,1c1.875-.155,3.749-.394,5.624-.455a15.188,15.188,0,0,1,7.007,1.516,31.568,31.568,0,0,1,7.4,5.145c3.608,3.191,7.006,6.63,11.008,9.357A23.845,23.845,0,0,0,75.916,63.9c1.215.087,2.334.329,2.851,1.632a1.523,1.523,0,0,1,.05.725,2.117,2.117,0,0,1-2.374,1.637,27.814,27.814,0,0,1-15.029-5A83.3,83.3,0,0,1,52.67,55.56,69.964,69.964,0,0,0,46.7,50.544a14.925,14.925,0,0,0-11.273-2.516,52.334,52.334,0,0,1-11.276.233A48.673,48.673,0,0,1,15.779,47,26.174,26.174,0,0,1,3.95,40.991a15.5,15.5,0,0,0,5.442,9.741c2.79,2.391,6.213,3.1,9.644,3.881a54.388,54.388,0,0,0,13.4.883c1.879-.044,3.749-.335,5.628-.466a7.62,7.62,0,0,1,5.169,1.61,73.334,73.334,0,0,1,6.693,5.738,57.786,57.786,0,0,0,11.426,8.645A33.787,33.787,0,0,0,74.924,75c1.577.13,3.157.174,4.732.3a13.356,13.356,0,0,0,3.717.135c5.31-.19,10.5-.856,15.252-3.555a26.877,26.877,0,0,0,9.937-9.661,25.069,25.069,0,0,0,3.162-8.426,3.889,3.889,0,0,1,.218-.9,16.464,16.464,0,0,1-2.069,3.456,23.464,23.464,0,0,1-2.814,3.24,27.123,27.123,0,0,1-3.389,2.813,31.091,31.091,0,0,1-3.691,2.194c-1.321.663-2.719,1.119-4.078,1.68a43.331,43.331,0,0,1-9.627,1.847c-2.249.182-2.863-.155-3.382-1.744.248-1.555.893-2.122,2.6-2.234a35.918,35.918,0,0,0,8.125-1.362c6.132-1.866,11.192-5.194,14.439-10.887a31.986,31.986,0,0,0,3.989-13.44,25.569,25.569,0,0,0-.15-7.314,21.265,21.265,0,0,0-4.223-8.9,39.382,39.382,0,0,0-13.1-10.379A72.123,72.123,0,0,0,70.579,4.53a27.88,27.88,0,0,0-4.828-.453,90.746,90.746,0,0,0-24.74,1.105A77.558,77.558,0,0,0,30.047,7.889a3.84,3.84,0,0,1-1.777.235c-.715-.107-1.3-.392-1.42-1.212"/>
        <path id="Trazado_142497" data-name="Trazado 142497" d="M115.754,45.189q0-.906-.006-1.811c.063-.109.127-.1.195,0v1.811c-.061.1-.124.1-.189.005" fill="#686868"/>
        <path id="Trazado_142498" data-name="Trazado 142498" d="M115.754,45.189c.062,0,.127,0,.189-.005v1.81c-.06.1-.123.1-.187.005q0-.9,0-1.81" fill="#767676"/>
        <path id="Trazado_142499" data-name="Trazado 142499" d="M115.744,41.794l.006-1.583c.061-.11.125-.107.193-.006v1.584c-.063.1-.13.1-.2,0" fill="#4d4d4d"/>
        <path id="Trazado_142500" data-name="Trazado 142500" d="M115.744,41.794c.066,0,.133,0,.2,0v1.584c-.065,0-.13,0-.195,0q0-.792,0-1.584" fill="#5b5b5b"/>
        <path id="Trazado_142501" data-name="Trazado 142501" d="M115.755,47c.063,0,.125,0,.188-.005v1.584c-.061.1-.124.1-.189,0q0-.791,0-1.582" fill="#858585"/>
        <path id="Trazado_142502" data-name="Trazado 142502" d="M115.754,48.581q.095,0,.189,0v1.584c-.061.1-.124.1-.189,0V48.581" fill="#8f8f8f"/>
        <path id="Trazado_142503" data-name="Trazado 142503" d="M115.943,34.093a1,1,0,0,1,0-1.357Z" fill="#272727"/>
        <path id="Trazado_142504" data-name="Trazado 142504" d="M115.739,37.494q0-.678-.01-1.356c.067-.108.139-.111.214-.008v1.358c-.065.1-.133.1-.2.006" fill="#2b2b2b"/>
        <path id="Trazado_142505" data-name="Trazado 142505" d="M115.739,37.494q.1,0,.2-.006v1.358c-.063.1-.13.1-.2.006q0-.68-.005-1.358" fill="#363636"/>
        <path id="Trazado_142506" data-name="Trazado 142506" d="M115.744,38.852c.066,0,.133-.005.2-.006V40.2l-.194.007q0-.679,0-1.359" fill="#414141"/>
        <path id="Trazado_142507" data-name="Trazado 142507" d="M115.754,50.167c.063,0,.126,0,.189,0v1.358l-.089.044-.1-.023,0-1.375" fill="#9e9e9e"/>
        <path id="Trazado_142508" data-name="Trazado 142508" d="M115.943,36.131c-.072,0-.143,0-.215.008.032-.388-.154-.816.215-1.14Z" fill="#191919"/>
        <path id="Trazado_142509" data-name="Trazado 142509" d="M78.573,65.566A2.222,2.222,0,0,0,76.5,64.258c-7.106-.253-12.754-3.636-17.86-8.243-2.993-2.7-5.87-5.534-9.1-7.971a18.358,18.358,0,0,0-14-3.72,51.268,51.268,0,0,1-18.322-.731A24.919,24.919,0,0,1,8.354,39.8C3.723,36.523,2.379,32.188,4.3,26.836a22.52,22.52,0,0,1,7.128-9.583,47.63,47.63,0,0,1,9.9-6.263,1.971,1.971,0,0,0,1.294-2.437A30.181,30.181,0,0,1,26.85,6.912c.684,1.091,1.618,1.123,2.745.758A91.722,91.722,0,0,1,57.359,3.365a57.737,57.737,0,0,1,8.566.419,58.566,58.566,0,0,1,18.8,6.734,3.366,3.366,0,0,1,.926.639c.227.246.362.515-.091.689a2.655,2.655,0,0,1-1.317-.252,76.942,76.942,0,0,0-18.584-3.7,88.615,88.615,0,0,0-9.023-.413C45.741,7.82,35.1,9.5,25.025,13.87A38.624,38.624,0,0,0,11.676,22.8a15.557,15.557,0,0,0-3.813,6.709A5.658,5.658,0,0,0,9.82,35.694c2.855,2.43,6.294,3.511,9.887,4.176a48.4,48.4,0,0,0,15.648.292c6.656-.94,12.321,1.186,17.467,5.184,3.278,2.547,6.2,5.5,9.341,8.2,2.821,2.428,5.777,4.613,9.417,5.673a32.08,32.08,0,0,0,7.144,1.03,45.193,45.193,0,0,0,11.465-.6,1.567,1.567,0,0,1,.783.042c.764.613.023.9-.313,1.162a22.558,22.558,0,0,1-4.168,2.438,34.155,34.155,0,0,1-6.706,2.255,1.726,1.726,0,0,1-1.212.019" fill="#f2e7d5"/>
        <path id="Trazado_142510" data-name="Trazado 142510" d="M79.669,75.546c-10.514.221-19.5-3.495-27.24-10.5-2.768-2.5-5.492-5.058-8.377-7.434a8.954,8.954,0,0,0-7.408-2.228A51.525,51.525,0,0,1,25.7,55.8a38.205,38.205,0,0,1-12.684-2.552C7.382,50.865,4.325,46.39,3.5,40.139a22.829,22.829,0,0,0,4.981,3.77,35.63,35.63,0,0,0,12.466,3.759,63.988,63.988,0,0,0,16.019-.049A13.993,13.993,0,0,1,47.037,50.43c3.638,2.591,6.717,5.83,10.081,8.739a33.58,33.58,0,0,0,12.467,7.324,34.185,34.185,0,0,0,7.006,1.173,1.846,1.846,0,0,0,2.015-1.443,6.335,6.335,0,0,1,4.5.008c.507,1.422.838,1.661,2.3,1.6a45.405,45.405,0,0,0,10.608-1.88c.309.41.025.708-.207,1a27.82,27.82,0,0,1-11.228,8.33c-1.576.656-3.266.334-4.914.272" fill="#dca47e"/>
        <path id="Trazado_142511" data-name="Trazado 142511" d="M83.111,66.23l-4.5-.007-.033-.657a49.34,49.34,0,0,0,6.746-2.061A27.907,27.907,0,0,0,90.708,60.5c.19-.136.636-.247.269-.648.458-.742,1.3-.688,1.981-.891a20.32,20.32,0,0,0,8.884-5.2,20.555,20.555,0,0,0,5.008-8.616,30.3,30.3,0,0,0,1.343-12.936,15.35,15.35,0,0,0-2.973-6.9A33.179,33.179,0,0,0,93.68,15.7a53.791,53.791,0,0,0-7.393-3.386c-.3-.108-.694-.156-.686-.622.23-.474-.241-.449-.438-.562A64.789,64.789,0,0,0,66.205,3.961a.966.966,0,0,1-.28-.177A64.528,64.528,0,0,1,77.309,5.4a62.884,62.884,0,0,1,22.605,9.283c4.945,3.4,9.133,7.5,11.4,13.236,1.4,3.541,1.405,7.2,1.027,10.908a31.893,31.893,0,0,1-4.23,13.561c-3.356,5.532-8.321,8.881-14.439,10.673a36.533,36.533,0,0,1-8.337,1.37,2.034,2.034,0,0,0-2.221,1.8" fill="#d7c9b7"/>
        <path id="Trazado_142512" data-name="Trazado 142512" d="M79.669,75.546a.441.441,0,0,1,.111-.02c4.851.472,8.4-2.216,11.97-4.9a29.144,29.144,0,0,0,3.892-3.9,1.025,1.025,0,0,0,.376-.785,38.732,38.732,0,0,0,6.667-3.236,26.3,26.3,0,0,0,8.769-9.388c.182-.328.384-.645.582-.964a.941.941,0,0,1,.15-.16c-1.623,14-13.9,25.246-32.517,23.347" fill="#b98470"/>
        <path id="Trazado_142513" data-name="Trazado 142513" d="M85.6,11.695a62.222,62.222,0,0,1,11,5.376,32.085,32.085,0,0,1,8.874,8.092A15.7,15.7,0,0,1,108.7,34.6a31.118,31.118,0,0,1-3.322,14.813c-3.012,5.616-7.844,8.748-13.886,10.251a5.391,5.391,0,0,0-.517.184,58.6,58.6,0,0,1-11.7.79,25.33,25.33,0,0,1-17.506-6.967c-2.988-2.763-5.931-5.587-9.154-8.082-3.627-2.807-7.583-4.9-12.266-5.264a53.869,53.869,0,0,0-7.553.426c-6.553.4-13.037.215-19.219-2.373a15.057,15.057,0,0,1-3.933-2.4,6.131,6.131,0,0,1-2.011-6.912,17.379,17.379,0,0,1,5.536-8.222c5.395-4.8,11.812-7.715,18.629-9.8a89.572,89.572,0,0,1,33.738-3.5A82.949,82.949,0,0,1,85.6,11.695"/>
        <path id="Trazado_142514" data-name="Trazado 142514" d="M80.593,57.2c-7.248.481-13.035-2.5-18.116-7.413a71.706,71.706,0,0,0-10.262-8.668A23.471,23.471,0,0,0,39.532,36.9c-2.285-.032-4.574.35-6.865.467-6.425.326-12.86.436-18.777-2.631-3.655-1.894-4.064-3.215-2.021-6.985,2.078-3.836,5.549-6.294,9.22-8.444a62.872,62.872,0,0,1,20.226-7.153A86.978,86.978,0,0,1,59.96,10.62a32.98,32.98,0,0,1,5.741.4A49.925,49.925,0,0,1,86.267,19.9a23.476,23.476,0,0,1,7.756,8.847A15.13,15.13,0,0,1,95.3,37.013,38.716,38.716,0,0,1,93.9,44.78c-1.769,5.521-5.054,9.714-10.444,12.1a4.646,4.646,0,0,1-2.861.316" fill="#a94035"/>
        <path id="Trazado_142515" data-name="Trazado 142515" d="M80.593,57.2c2.749,0,4.836-1.52,6.839-3.109,4.547-3.6,6.442-8.615,7.228-14.156a46.184,46.184,0,0,0,.446-4.693c.164-4.276-1.631-7.8-4.41-10.887-4.65-5.173-10.586-8.336-16.968-10.8C71.1,12.541,68.364,11.9,65.7,11.019a55.616,55.616,0,0,1,10.144,1.454,55.563,55.563,0,0,1,20.227,8.332c3.8,2.621,7.09,5.728,8.656,10.269a12.809,12.809,0,0,1,.564,4.789,28.46,28.46,0,0,1-2.366,10.959c-2.511,5.425-6.967,8.32-12.606,9.664a43.8,43.8,0,0,1-8.516.874,1.938,1.938,0,0,1-1.211-.16" fill="#98322c"/>
        <path id="Trazado_142516" data-name="Trazado 142516" d="M21,27.2a7.949,7.949,0,1,1,15.9.021A7.949,7.949,0,1,1,21,27.2"/>
        <path id="Trazado_142517" data-name="Trazado 142517" d="M28.936,31.8a4.581,4.581,0,1,1,4.593-4.517A4.637,4.637,0,0,1,28.936,31.8" fill="#f2e7d5"/>
      </g>
    </g>
  </g>
</svg>
