<svg xmlns="http://www.w3.org/2000/svg" xmlns:xlink="http://www.w3.org/1999/xlink" width="138" height="116" viewBox="0 0 138 116">
  <defs>
    <clipPath id="clip-path">
      <rect id="Rect치ngulo_38694" data-name="Rect치ngulo 38694" width="93.902" height="91.241" fill="none"/>
    </clipPath>
  </defs>
  <g id="Grupo_161644" data-name="Grupo 161644" transform="translate(-722 -7519)">
    <rect id="Rect치ngulo_36141" data-name="Rect치ngulo 36141" width="138" height="116" transform="translate(722 7519)" fill="#c4d1ff"/>
    <g id="Grupo_161754" data-name="Grupo 161754" transform="translate(744.049 7533)">
      <g id="Grupo_161754-2" data-name="Grupo 161754" clip-path="url(#clip-path)">
        <path id="Trazado_142556" data-name="Trazado 142556" d="M33.012,87.147c1.167.386,1.438.713,1.421,1.9-.046,3.112.145,6.228-.12,9.336a15.732,15.732,0,0,1-30.95,1.866c-.065-.254,0-.571-.295-.731A6.841,6.841,0,0,1,0,95.4V93.012c.215-.485.414-.979.65-1.454A6.366,6.366,0,0,1,4.38,88.42a3.358,3.358,0,0,1,2.637-.352,4.417,4.417,0,0,1,2.044.75,1.655,1.655,0,0,0,2.172-.155A3.168,3.168,0,0,0,12.586,86c0-.213,0-.427,0-.64.038-1.511.568-2.045,2.116-2.137,4.153-.013,8.307.054,12.459-.024A10.8,10.8,0,0,0,37.649,75.18,1.277,1.277,0,0,0,37.7,74.2c-.272-.3-.63-.195-.953-.195-6.291,0-12.582-.034-18.873.019-3.449.029-6.588.91-8.983,3.6a10.288,10.288,0,0,0-2.758,6.436,3.371,3.371,0,0,1-.375,1.588c-.319.537-.738.908-1.429.636-1.107-.293-1.4-.7-1.372-1.905A13.807,13.807,0,0,1,16.22,71.053c7.756-.137,15.516-.044,23.274-.038a1.406,1.406,0,0,1,1.6,1.652A13.631,13.631,0,0,1,33.858,84.6l-.86.5a1.646,1.646,0,0,1-.9.581,13.473,13.473,0,0,1-4.656.824c-3.446-.04-6.893.006-10.34-.026a1.172,1.172,0,0,0-1.374,1.064,6.558,6.558,0,0,1-4.713,4.9,3.571,3.571,0,0,1-3.352-.584,2.772,2.772,0,0,0-4.074.823A2.879,2.879,0,0,0,4.3,96.663a3.338,3.338,0,0,0,.622.385A2.137,2.137,0,0,1,6.18,98.723a13.11,13.11,0,0,0,3.681,7.028,10.977,10.977,0,0,0,1.881,1.451A12.607,12.607,0,0,0,31.231,98.14,60.684,60.684,0,0,0,31.292,92c.012-1.069-.047-2.14.026-3.206.077-1.113.76-1.749,1.694-1.651" transform="translate(0 -24.085)"/>
        <path id="Trazado_142557" data-name="Trazado 142557" d="M101.009,2.177h1.618a3.313,3.313,0,0,0,3.256,1.184,9.7,9.7,0,0,1,1.1,0,2.993,2.993,0,0,1,3.259,3.255c.032,1.71.008,3.422.009,5.133,0,3.82.007,7.64,0,11.46-.006,2.672-1.131,3.814-3.788,3.819-5.929.011-11.857,0-17.786,0-.366,0-.734-.017-1.1.02a1.255,1.255,0,0,0-1.329,1.335c-.067.854.01,1.711-.044,2.566-.017.274-.027.613-.3.719s-.5-.163-.687-.36q-1.52-1.592-2.929-3.281a2.582,2.582,0,0,0-2.145-1.006q-3.712.032-7.426,0c-2.5-.016-3.723-1.221-3.734-3.731-.023-5.409-.009-10.819-.007-16.227a5.127,5.127,0,0,1,.3-1.8,2.692,2.692,0,0,1,2.547-1.9c.4-.023.795-.014,1.192-.014,8.343,0,16.685-.014,25.028.015a3.129,3.129,0,0,0,2.967-1.194" transform="translate(-23.402 -0.739)" fill="#00c6a8"/>
        <path id="Trazado_142558" data-name="Trazado 142558" d="M46.156,15.8h1.951c.415.392.295.909.3,1.382.013,3.819-.022,7.637.017,11.456a5.15,5.15,0,0,0,5.246,5.211c.856.006,1.711-.013,2.566.009.358.009.747-.038,1,.315a9.122,9.122,0,0,0-.1,2.121,3.821,3.821,0,0,0-1.33,2.306,2.917,2.917,0,0,1-2.862,2.028c-2.536.036-5.073.05-7.608-.006a3.13,3.13,0,0,0-2.762,1.276,37.015,37.015,0,0,1-2.622,2.939c-.211.215-.437.558-.739.453-.355-.124-.322-.553-.336-.885-.029-.642,0-1.284-.017-1.925-.042-1.347-.486-1.814-1.851-1.828-3.025-.032-6.05-.009-9.075-.011-3.178,0-6.356.011-9.534,0-2.442-.012-3.55-1.1-3.556-3.523q-.02-8.25,0-16.5c0-2.563,1.069-3.638,3.619-3.641,8.25-.009,16.5-.019,24.75.015,1.193.005,2.24-.1,2.944-1.189" transform="translate(-5.035 -5.36)" fill="#3fabc8"/>
        <path id="Trazado_142559" data-name="Trazado 142559" d="M74.322,28.809c-1.278-.01-2.557.007-3.835-.034a5.393,5.393,0,0,1-5.256-5.367c-.038-4.323-.026-8.648-.036-12.972.009-1.527.02-3.054.026-4.58A5.488,5.488,0,0,1,70.99.018C74.779-.011,78.567.012,82.355.012q7.7,0,15.4,0c1.3,0,1.66.266,1.976,1.426-.312,1.155-.682,1.429-1.975,1.43-8.772,0-17.546.049-26.317-.028C68.8,2.817,67.982,4.321,68,6.292c.056,5.441.018,10.882.02,16.323,0,2.427.961,3.381,3.393,3.381,2.567,0,5.135.022,7.7-.013a2.188,2.188,0,0,1,1.827.829c1.17,1.358,2.379,2.682,3.729,4.2,0-1.208,0-2.2,0-3.19C84.684,26.469,85.147,26,86.49,26q9.444,0,18.89,0c2.3,0,3.292-.992,3.293-3.287q0-8.345,0-16.689c0-2.15-.986-3.14-3.126-3.149-.764,0-1.529,0-2.293,0-1.183-.009-1.529-.272-1.905-1.429.377-1.161.707-1.431,1.9-1.422a25.141,25.141,0,0,1,3.568.091,5.332,5.332,0,0,1,4.628,5.211q.056,9.072,0,18.144a5.3,5.3,0,0,1-5.312,5.306c-5.895.049-11.79.034-17.686.006-.745,0-1,.156-.968.941.065,1.525.009,3.054.023,4.581.007.751-.121,1.434-.9,1.73a1.57,1.57,0,0,1-1.835-.659c-1.775-2.018-3.583-4.006-5.349-6.032a1.436,1.436,0,0,0-1.249-.556c-1.282.042-2.565.022-3.848.026" transform="translate(-22.122 0)"/>
        <path id="Trazado_142560" data-name="Trazado 142560" d="M15.7,99.528c2.673-.91,4.425-2.629,4.791-5.527.073-.573.441-.477.794-.477,2.9,0,5.8-.044,8.7.011a18.754,18.754,0,0,0,7.892-1.185q.007,1.025.013,2.049c-1.19.4-1.422.714-1.424,2,0,2.443.011,4.886,0,7.33a12.829,12.829,0,0,1-13.931,13.036,11.154,11.154,0,0,1-6.1-2.183,7.5,7.5,0,0,1-1.319-3.165,20.594,20.594,0,0,1,.023-10.89c.1-.379.164-.784.564-1" transform="translate(-4.884 -31.336)" fill="#fbd1bd"/>
        <path id="Trazado_142561" data-name="Trazado 142561" d="M85.707,80.469a1.63,1.63,0,0,1-1.367-1.389c-1.561-5.967,1.471-11.151,7.52-12.156a38.929,38.929,0,0,1,18.428,1.245c.879.281,1.438.8,1.233,1.821-.112,1.054-.818,1.5-1.96,1.143a30.679,30.679,0,0,0-4.243-1.07,25.483,25.483,0,0,0-4.538-.39,25.633,25.633,0,0,0-8.742.336,6,6,0,0,0-5,6.405c.02.679.239.919.926.858a9.664,9.664,0,0,0,4.842-1.49c1.054-.732,1.559-.645,2.5.254A15.843,15.843,0,0,0,98.5,78.767a11.6,11.6,0,0,0,8.013.97,5.518,5.518,0,0,1,1.169-.211,1.588,1.588,0,0,1,1.542,1.7c.027.716.247,1.023.994.839a2.465,2.465,0,0,1,1.093.028,5.863,5.863,0,0,1,4.385,2.821,5.681,5.681,0,0,1-1.019,7.336,3.823,3.823,0,0,0-1.517,2.279,14.157,14.157,0,0,1-4.843,7.168,1.193,1.193,0,0,1-.794.4,16.581,16.581,0,0,1-6.925,2.62,14.655,14.655,0,0,1-15.981-11.9c-.484-3.029-.169-6.089-.207-9.136-.009-.7.486-1.077,1.124-1.267A1.381,1.381,0,0,1,87.4,83.78c.077,1.035,0,2.076.03,3.114a36.332,36.332,0,0,0,.166,5.028,11.409,11.409,0,0,0,9.423,9.61,10.715,10.715,0,0,0,7.443-1.231,11,11,0,0,0,5.8-7.686,3.462,3.462,0,0,1,1.7-2.435,2.485,2.485,0,0,0,.887-3.558,2.608,2.608,0,0,0-3.7-.723c-.2.131-.39.293-.608.4a1.653,1.653,0,0,1-2.51-1.31,5.423,5.423,0,0,1-.03-.639c-.026-1.166-.094-1.217-1.311-.985a13.189,13.189,0,0,1-10.03-3.3,1.832,1.832,0,0,0-2.186-.372,15.818,15.818,0,0,1-5.815.994,1.429,1.429,0,0,1-.958-.219" transform="translate(-28.481 -22.516)"/>
        <path id="Trazado_142562" data-name="Trazado 142562" d="M44.856,15.1c-.252,1.14-.629,1.444-1.843,1.444q-12.93,0-25.859,0c-2.4,0-3.334.922-3.334,3.307q0,8.344,0,16.689c0,2.139,1,3.125,3.145,3.126h18.8c1.621,0,2.045.433,2.048,2.078,0,.9,0,1.8,0,2.945,1.313-1.471,2.491-2.738,3.6-4.059a2.5,2.5,0,0,1,2.133-.982c2.628.047,5.257.02,7.886.015a2.632,2.632,0,0,0,2.976-2.546,1.56,1.56,0,0,1,1.428-1.525c1.185.306,1.56.86,1.388,2.051a5.377,5.377,0,0,1-5.256,4.811c-2.472.085-4.948.052-7.422.021a1.909,1.909,0,0,0-1.642.719c-1.693,1.968-3.453,3.877-5.164,5.83a1.6,1.6,0,0,1-1.913.671c-.769-.312-.883-1.008-.875-1.755.017-1.5-.056-3,.028-4.489.05-.863-.263-.982-1.025-.978q-8.569.047-17.139.012a5.479,5.479,0,0,1-5.653-4.134,6.7,6.7,0,0,1-.154-1.728q0-8.524,0-17.047c.007-3.6,2.238-5.834,5.817-5.836q13.061-.009,26.12,0c1.3,0,1.6.223,1.907,1.36" transform="translate(-3.734 -4.66)"/>
        <path id="Trazado_142563" data-name="Trazado 142563" d="M105.436,106.948c-3.432,2.226-8.835,1.952-12.412-.659a11.666,11.666,0,0,1-5.012-9.765c-.024-1.951,0-3.9-.006-5.853,0-1.281-.394-1.7-1.646-1.783.338-.625.119-1.3.17-1.95a17.018,17.018,0,0,0,7.721-1.457c.284-.145.449-.005.629.178a13.608,13.608,0,0,0,10.69,3.974c.493.005.464.429.525.719a41.026,41.026,0,0,1,.887,6.961,25.51,25.51,0,0,1-.556,7.605,4.686,4.686,0,0,1-.99,2.03" transform="translate(-29.304 -28.986)" fill="#fbd1bd"/>
        <path id="Trazado_142564" data-name="Trazado 142564" d="M109.364,71a25.489,25.489,0,0,1,8.675,1.416c1.128.388,1.614.183,2.106-.853.386.665,1.257.68,1.7,1.27.005,1.391.99,2.174,1.837,3.08a16.683,16.683,0,0,1,3.675,7.18,30.6,30.6,0,0,1,1.112,8.412,43.292,43.292,0,0,1-2.92,15.375c-.342.881-.679,1.768-1.1,2.612-.124.248-.151.83-.719.463a4.852,4.852,0,0,1-.129-2.172,58.424,58.424,0,0,0-.478-12.845,2.621,2.621,0,0,1,.02-1.175,6.118,6.118,0,0,0,1.822-4.245,5.612,5.612,0,0,0-4.664-5.508,1.56,1.56,0,0,1-.327-.143.887.887,0,0,0-.077-.622,25.6,25.6,0,0,0-9.131-11.084c-.357-.234-.739-.431-1.089-.677-.162-.114-.4-.2-.311-.484" transform="translate(-37.103 -24.093)" fill="#5b3d2d"/>
        <path id="Trazado_142565" data-name="Trazado 142565" d="M126.9,110.738a35.792,35.792,0,0,0,2.574-6.626,38.586,38.586,0,0,0,1.765-11.241c.015-4.876-.608-9.675-3.132-14.015a11.329,11.329,0,0,0-2.419-2.968A1.945,1.945,0,0,1,124.9,73.5c1.261-.772,1.6-.742,2.711.29a19.256,19.256,0,0,1,5.52,10.316c2.108,9.486.485,18.533-3.37,27.287-.55,1.251-1.217,2.454-1.879,3.653a1.418,1.418,0,0,1-2.209.673,14.149,14.149,0,0,1-7.174-8.17c-.349-1-.125-1.48.842-1.995.536-.5.993-.224,1.436.149a3.487,3.487,0,0,1,.877,1.575,11.323,11.323,0,0,0,3.539,4.555c.542.461.893.373,1.166-.277a1.575,1.575,0,0,1,.548-.82" transform="translate(-40.156 -24.759)"/>
        <path id="Trazado_142566" data-name="Trazado 142566" d="M6.556,87.721c1.15-.234,1.4-.555,1.482-1.917a10.959,10.959,0,0,1,9.1-10.353,38.14,38.14,0,0,1,6.668-.2c5.277-.037,10.555-.013,15.832-.007.23,0,.491-.1.687.12-.408.383-.92.268-1.4.269-4.487.009-8.978.129-13.457-.046-2.344-.092-3.876,1.021-5.29,2.546A12.083,12.083,0,0,0,17.2,84.123a1.281,1.281,0,0,1-.3.749c-1.459.112-1.817.511-1.823,2.028q-.012,3.149-2.463,3.941a.863.863,0,0,1-.864-.035A6.243,6.243,0,0,0,6.6,89.854l-.048-2.133" transform="translate(-2.225 -25.519)" fill="#e1a01e"/>
        <path id="Trazado_142567" data-name="Trazado 142567" d="M127.346,121.763c-1,2.344-.723,2.241-2.559.666a10.53,10.53,0,0,1-3.16-4.7,1.437,1.437,0,0,0-1.847-1.147,4.365,4.365,0,0,0-.139-1.216,14.667,14.667,0,0,0,5.495-7.914,2.91,2.91,0,0,1,1.5-1.994,21.733,21.733,0,0,1,.682,4.549,53.9,53.9,0,0,1,.187,8.026c-.067,1.243-.152,2.485-.156,3.731" transform="translate(-40.597 -35.785)" fill="#6b4b3d"/>
        <path id="Trazado_142568" data-name="Trazado 142568" d="M22.208,84.941A11.111,11.111,0,0,1,24.731,78.7a14.482,14.482,0,0,1,1.4-1.561,6.522,6.522,0,0,1,5.058-1.73c4.813.122,9.632.028,14.448.02a9.912,9.912,0,0,1-3.35,6.578,10.154,10.154,0,0,1-6.912,2.919c-4.386.085-8.775.017-13.163.013" transform="translate(-7.536 -25.588)" fill="#f8cd55"/>
        <path id="Trazado_142569" data-name="Trazado 142569" d="M12.263,102.572a25.957,25.957,0,0,0-.939,4.631A22.265,22.265,0,0,0,13,117.622a12.136,12.136,0,0,1-5.466-8.007,2.834,2.834,0,0,0-1.623-2.307,3.079,3.079,0,0,1-1.212-4.334,3.06,3.06,0,0,1,4.423-1.1,3.629,3.629,0,0,0,3.146.7" transform="translate(-1.445 -34.381)" fill="#f9b897"/>
        <path id="Trazado_142570" data-name="Trazado 142570" d="M87.745,31.194q-4.809,0-9.619,0a1.586,1.586,0,0,1-1.663-.879,1.341,1.341,0,0,1,.819-1.848,3.587,3.587,0,0,1,1.082-.121q9.39-.011,18.78,0a5.452,5.452,0,0,1,.641.014,1.412,1.412,0,0,1-.055,2.823c-.853.042-1.709.013-2.565.013h-7.42" transform="translate(-25.904 -9.617)" fill="#000101"/>
        <path id="Trazado_142571" data-name="Trazado 142571" d="M87.357,19.638q4.714,0,9.427,0a1.413,1.413,0,0,1,1.4.826,1.289,1.289,0,0,1-.137,1.381,1.421,1.421,0,0,1-1.27.583q-9.473-.008-18.947-.009a1.39,1.39,0,1,1,0-2.773c3.173-.015,6.346-.006,9.519-.006" transform="translate(-25.905 -6.663)"/>
        <path id="Trazado_142572" data-name="Trazado 142572" d="M105.138,10.835h7.242a7.124,7.124,0,0,1,.733.011,1.393,1.393,0,0,1,1.4,1.407,1.377,1.377,0,0,1-1.376,1.421c-.455.042-.916.014-1.374.014H98.1c-.184,0-.367,0-.55,0-1.091-.024-1.766-.591-1.742-1.459.023-.824.689-1.383,1.721-1.389,2.536-.012,5.073,0,7.609,0" transform="translate(-32.51 -3.675)" fill="#000101"/>
        <path id="Trazado_142573" data-name="Trazado 142573" d="M81.8,13.687c-1.251,0-2.5.011-3.749,0-1.055-.013-1.68-.537-1.7-1.387-.022-.886.622-1.453,1.723-1.459q3.75-.019,7.5,0c1.091,0,1.767.575,1.758,1.434s-.676,1.4-1.779,1.413c-1.249.011-2.5,0-3.749,0" transform="translate(-25.906 -3.675)" fill="#000101"/>
        <path id="Trazado_142574" data-name="Trazado 142574" d="M116.3,22.416c-.794,0-1.589.02-2.382,0a1.387,1.387,0,1,1-.01-2.771q2.427-.035,4.856,0a1.383,1.383,0,1,1,.009,2.766c-.824.029-1.649.007-2.474.007" transform="translate(-38.16 -6.659)"/>
        <path id="Trazado_142575" data-name="Trazado 142575" d="M35.229,32.427q6.007,0,12.012,0c1.057,0,1.677.529,1.667,1.4A1.291,1.291,0,0,1,47.8,35.186a4.471,4.471,0,0,1-.914.046q-11.738,0-23.474,0c-.091,0-.183,0-.275,0-1.1-.025-1.763-.579-1.733-1.444.029-.843.667-1.358,1.726-1.359q6.051-.008,12.1,0" transform="translate(-7.261 -11.003)"/>
        <path id="Trazado_142576" data-name="Trazado 142576" d="M41.7,44.011c-1.773,0-3.545.006-5.317,0-1.128-.005-1.739-.523-1.726-1.437.013-.89.571-1.362,1.687-1.365q5.363-.014,10.726,0c1.05,0,1.679.565,1.659,1.415s-.675,1.381-1.71,1.386c-1.773.009-3.545,0-5.318,0" transform="translate(-11.76 -13.98)"/>
        <path id="Trazado_142577" data-name="Trazado 142577" d="M26.836,26.5c-1.249,0-2.5.013-3.749,0-1.039-.014-1.68-.564-1.689-1.406s.636-1.425,1.662-1.434q3.84-.032,7.68,0a1.458,1.458,0,0,1,1.639,1.452c-.021.846-.651,1.374-1.7,1.387-1.28.015-2.56,0-3.841,0" transform="translate(-7.261 -8.021)" fill="#000101"/>
        <path id="Trazado_142578" data-name="Trazado 142578" d="M47.749,26.5c-1.253,0-2.507.013-3.759,0a1.472,1.472,0,0,1-1.65-1.354c-.04-.863.564-1.469,1.607-1.481q3.9-.042,7.794,0A1.369,1.369,0,0,1,53.285,25.1c-.013.843-.6,1.378-1.593,1.394-1.314.021-2.629.005-3.943.005" transform="translate(-14.366 -8.021)" fill="#000101"/>
        <path id="Trazado_142579" data-name="Trazado 142579" d="M24.743,44.006c-.641,0-1.284.027-1.923-.007A1.415,1.415,0,0,1,21.4,42.612a1.373,1.373,0,0,1,1.392-1.395c1.373-.034,2.748-.038,4.12.005a1.279,1.279,0,0,1,1.308,1.358A1.391,1.391,0,0,1,26.941,44a1.3,1.3,0,0,1-.183.009H24.743" transform="translate(-7.261 -13.977)"/>
        <path id="Trazado_142580" data-name="Trazado 142580" d="M28.815,119.97c-3.079-.24-5.381-1.284-6.934-3.672-.606-.932-.521-1.75.21-2.242s1.492-.283,2.134.677a5.3,5.3,0,0,0,4.035,2.346c.182.02.367.019.546.052a1.428,1.428,0,0,1,1.313,1.571,1.382,1.382,0,0,1-1.3,1.268" transform="translate(-7.288 -38.614)"/>
        <path id="Trazado_142581" data-name="Trazado 142581" d="M38.636,101.691a10.223,10.223,0,0,1,.009-1.281,1.348,1.348,0,0,1,1.384-1.317,1.3,1.3,0,0,1,1.408,1.278,16.078,16.078,0,0,1,.007,2.56,1.32,1.32,0,0,1-1.465,1.307,1.353,1.353,0,0,1-1.341-1.358,10.506,10.506,0,0,1-.008-1.19h0" transform="translate(-13.104 -33.625)" fill="#020101"/>
        <path id="Trazado_142582" data-name="Trazado 142582" d="M32.143,101.717a12.532,12.532,0,0,1-.009,1.28,1.34,1.34,0,0,1-1.438,1.235,1.249,1.249,0,0,1-1.317-1.246,22.2,22.2,0,0,1,0-2.652,1.284,1.284,0,0,1,1.329-1.251,1.36,1.36,0,0,1,1.426,1.261c.045.453.009.914.008,1.372" transform="translate(-9.956 -33.62)"/>
        <path id="Trazado_142583" data-name="Trazado 142583" d="M102.209,70.893a25.129,25.129,0,0,1,6.017,4.827,29.11,29.11,0,0,1,4.717,7.337c.091.195.435.568-.127.7-.092,0-.184-.007-.275,0-.6.044-1.313.309-1.788.082-.6-.283-.128-1.107-.3-1.672a1.38,1.38,0,0,0-1.759-.873,12.955,12.955,0,0,1-6.163.192,10.4,10.4,0,0,1-5.653-3.524c-1.119-1.269-1.383-1.276-2.753-.326-1.632,1.132-3.536,1.256-5.418,1.426-.5.045-.406-.441-.426-.753-.238-3.746,1.524-6.191,5.2-7.088a25.587,25.587,0,0,1,8.731-.331" transform="translate(-29.949 -23.982)" fill="#6b4b3d"/>
        <path id="Trazado_142584" data-name="Trazado 142584" d="M115.234,109.023a21.737,21.737,0,0,0,1.149-4.287,36.32,36.32,0,0,0,.057-6.894,35.317,35.317,0,0,0-.852-5.655c-.042-.182-.054-.36-.219-.478a1.441,1.441,0,0,1,.258-.087c1.241-.18,1.24-.179,1.242,1.035a7.631,7.631,0,0,0,.017,1.007,1.4,1.4,0,0,0,2.142,1.022,5.781,5.781,0,0,0,.5-.392,2.854,2.854,0,0,1,4.163.71,2.762,2.762,0,0,1-1.063,4,2.511,2.511,0,0,0-1.471,2,11.2,11.2,0,0,1-5.926,8.017" transform="translate(-39.102 -31.061)" fill="#f9b897"/>
        <path id="Trazado_142585" data-name="Trazado 142585" d="M102.292,111.814a1.438,1.438,0,0,1-1.52-1.276,1.389,1.389,0,0,1,1.248-1.525c.387-.079.789-.083,1.174-.168a4.746,4.746,0,0,0,3.136-2.166,1.4,1.4,0,0,1,2.041-.5,1.411,1.411,0,0,1,.319,2.015,7.623,7.623,0,0,1-6.4,3.62" transform="translate(-34.192 -35.942)"/>
        <path id="Trazado_142586" data-name="Trazado 142586" d="M95.845,94.836a8.166,8.166,0,0,1-.012,1.278,1.306,1.306,0,0,1-1.377,1.207,1.28,1.28,0,0,1-1.379-1.2,12,12,0,0,1,0-2.559,1.27,1.27,0,0,1,1.378-1.2,1.292,1.292,0,0,1,1.379,1.2,8.166,8.166,0,0,1,.012,1.278" transform="translate(-31.56 -31.34)" fill="#020101"/>
        <path id="Trazado_142587" data-name="Trazado 142587" d="M101.65,94.731a6.986,6.986,0,0,1,.01-1.1,1.33,1.33,0,0,1,1.415-1.27,1.256,1.256,0,0,1,1.358,1.212,13.852,13.852,0,0,1,.011,2.466,1.291,1.291,0,0,1-1.4,1.279,1.341,1.341,0,0,1-1.388-1.309,9.628,9.628,0,0,1-.01-1.281Z" transform="translate(-34.485 -31.341)" fill="#020101"/>
      </g>
    </g>
  </g>
</svg>
