<svg xmlns="http://www.w3.org/2000/svg" xmlns:xlink="http://www.w3.org/1999/xlink" width="138" height="116" viewBox="0 0 138 116">
  <defs>
    <clipPath id="clip-path">
      <rect id="Rect치ngulo_38691" data-name="Rect치ngulo 38691" width="51.827" height="96.088" fill="none"/>
    </clipPath>
  </defs>
  <g id="Grupo_161640" data-name="Grupo 161640" transform="translate(-722 -7519)">
    <rect id="Rect치ngulo_36141" data-name="Rect치ngulo 36141" width="138" height="116" transform="translate(722 7519)" fill="#c4d1ff"/>
    <g id="Grupo_161751" data-name="Grupo 161751" transform="translate(765 7529)">
      <g id="Grupo_161751-2" data-name="Grupo 161751" clip-path="url(#clip-path)">
        <path id="Trazado_142518" data-name="Trazado 142518" d="M35.85,55.582a11.072,11.072,0,0,1,11.331-.247c1.84,1.009,2.456,1.162.83,3.384.848,0,1.608,0,2.367,0,1.182.007,1.5.315,1.442,1.517-.266,5.242-.556,10.483-.83,15.724-.233,4.462-.45,8.926-.685,13.388-.1,1.871-.224,3.741-.341,5.612a1.047,1.047,0,0,1-1.145,1.089c-.219.006-.438,0-.656,0-13.972,0-27.945-.052-41.916.036A6.007,6.007,0,0,1,0,89.835C.083,71.425.049,53.015.023,34.6A9.387,9.387,0,0,1,2.1,28.55c2.414-3.067,4.747-6.2,7.144-9.277a11.21,11.21,0,0,0,1.945-4.509,13.21,13.21,0,0,1,.477-1.807c.916-2.366.278-4.747.114-7.124-.049-.716-.164-1.429-.206-2.145-.1-1.656.758-2.8,2.728-3.687h8.067C24.685,1.089,25.187,1.933,25,4.538,24.89,6,24.791,7.469,24.571,8.917a5.993,5.993,0,0,0,.28,2.84c.329,1.006.648,2.018.907,3.044a15.218,15.218,0,0,0,2.735,5.476c2.126,2.813,4.177,5.683,6.293,8.5a8.94,8.94,0,0,1,1.826,5.578q-.028,6.278,0,12.557c0,.735-.179,1.291-.949,1.51-.787.283-1.076-.246-1.287-.828a3.772,3.772,0,0,1-.1-1.3c0-3.813-.025-7.625.009-11.438a7.634,7.634,0,0,0-1.683-5.045,22.746,22.746,0,0,1-1.449-1.959,1.941,1.941,0,0,0-1.811-.933c-2.313.019-4.625.009-6.938.006a7.527,7.527,0,0,1-1.029-.04,1.13,1.13,0,0,1-1.09-.987,1.253,1.253,0,0,1,.741-1.382,2.7,2.7,0,0,1,1.28-.223c1.687-.008,3.375,0,5.062-.006a1.916,1.916,0,0,0,1.009-.14,18.13,18.13,0,0,0-1.92-2.531,1.338,1.338,0,0,0-1.051-.31c-4.625-.016-9.25-.006-13.875-.009a1.586,1.586,0,0,0-1.374.654c-.411.551-.856,1.076-1.269,1.626-.37.494-.264.712.359.711q2.25,0,4.5,0a6.56,6.56,0,0,1,1.308.076c.842.173,1.337.69,1.3,1.354A1.334,1.334,0,0,1,14.916,26.9a37.35,37.35,0,0,1-5.432-.016,4.988,4.988,0,0,0-5.141,2.487,9.7,9.7,0,0,0-1.975,5.783c.058,16.75.031,33.5.032,50.251,0,.375-.013.751.01,1.125A1.576,1.576,0,0,0,4.1,88.248c.561.035,1.125.013,1.687.013q8.579,0,17.157,0c1.3,0,1.305-.007,1.226-1.276a20.729,20.729,0,0,0-.138-2.993q-.209-4.16-.444-8.317c-.173-3.145-.35-6.291-.505-9.437-.1-1.993-.323-3.984-.247-5.986.052-1.358.458-1.788,1.823-1.816,1.4-.029,2.811-.024,4.215,0,.122.011.249.006.372.024,2.049.3,3.8-.106,5.051-1.942a1.984,1.984,0,0,1,1.557-.936" transform="translate(0 -0.001)" fill="#262626"/>
        <path id="Trazado_142519" data-name="Trazado 142519" d="M38.051,77.905A11.844,11.844,0,0,0,35.06,80.7a.817.817,0,0,1-.793.351c-1-.022-2-.025-3-.035a.811.811,0,0,1-.2-.515,42.388,42.388,0,0,1,.076-5.614,3.128,3.128,0,0,0,.847-2.64c-.029-4.907-.043-9.816.009-14.723a2.486,2.486,0,0,0-1.417-2.5,20.181,20.181,0,0,0-20.08,0,2.447,2.447,0,0,0-1.417,2.405q.042,23.961.021,47.922c0,1.535.135,1.662,1.657,1.664,3.032,0,6.065-.024,9.1.017a2.862,2.862,0,0,0,2.292-.8,9.091,9.091,0,0,1,4.321.121c.272,1.355.111,2.74.292,4.1.08.6-.4.432-.7.434-2.282.012-4.563.006-6.844.006q-6.282,0-12.563,0c-1.769,0-2.346-.587-2.347-2.364Q4.3,82.842,4.269,57.154A7.412,7.412,0,0,1,6.038,51.98a3.933,3.933,0,0,0,.57-.741,4.023,4.023,0,0,1,4.5-2.259c1.915.206,3.87.032,5.808.049.734.006,1.335-.153,1.421-1,.067-.659-.5-1.066-1.454-1.07-2.24-.008-4.479,0-6.959,0,.977-1.266,1.824-2.362,2.669-3.46.186-.242.451-.177.692-.177q7.406,0,14.813,0c.278,0,.558-.036.758.241.783,1.08,1.574,2.154,2.485,3.4H26.812c-.969,0-1.938-.01-2.906,0-.707.011-1.253.272-1.225,1.085.026.76.552.975,1.225.974,2.719,0,5.438.018,8.156-.015a1.421,1.421,0,0,1,1.31.677c3.618,4.975,3.385,4,3.374,10.279-.006,3.125.012,6.25-.009,9.375-.005.818.274,1.324,1.131,1.408,0,2.058,0,4.115.009,6.173,0,.334-.09.693.175.983" transform="translate(-2.2 -22.323)" fill="#9bfefb"/>
        <path id="Trazado_142520" data-name="Trazado 142520" d="M33.179,117.59H28.821a4.231,4.231,0,0,0-3.155-.827c-2.281.036-4.563.023-6.845.005-1.327-.01-1.524-.2-1.525-1.532q-.011-22.973-.015-45.946a2.013,2.013,0,0,1,1.192-2.029,19.049,19.049,0,0,1,7.8-2.126,18.608,18.608,0,0,1,9.674,2.118,2.089,2.089,0,0,1,1.264,2.069c-.024,4.657,0,9.314-.022,13.971a3.679,3.679,0,0,0,.782,2.777q0,3.088,0,6.177-2.294.015-4.588.032c-1.107.009-1.444.312-1.391,1.373.287,5.7.6,11.405.888,17.108.116,2.274.2,4.551.3,6.827" transform="translate(-8.906 -33.562)" fill="#fec036"/>
        <path id="Trazado_142521" data-name="Trazado 142521" d="M70.148,149.181c-.185,3.371-.376,6.741-.545,10.112-.021.424-.123.618-.587.6-1.089-.044-2.447.339-3.188-.178-.66-.46-.177-1.919-.191-2.934-.033-2.345-.01-4.69-.011-7.034a6.3,6.3,0,0,0-.008-.656c-.067-.636-.369-1.079-1.064-1.06s-.987.457-.988,1.114q-.006,2.392,0,4.783c0,1.751-.014,3.5.009,5.252.006.49-.071.751-.651.717a23.242,23.242,0,0,0-2.438,0c-.5.023-.621-.157-.642-.636-.175-3.934-.381-7.867-.572-11.8-.06-1.229-.382-1.774-1.082-1.776-.755,0-1.046.531-.981,1.866.186,3.809.367,7.617.589,11.424.042.716-.119,1.03-.885.924a9.624,9.624,0,0,0-1.312-.011c-1.818,0-1.814,0-1.906-1.782-.322-6.212-.634-12.423-.985-18.634-.042-.751.081-1.052.915-.992a29.257,29.257,0,0,0,3.468,0c.635-.031.906.136,1.059.791a10.622,10.622,0,0,0,3.485,5.641c1.015.89,1.494.846,2.294-.2q2.134-2.794,4.262-5.591a2.578,2.578,0,0,1,2.348-.6c.379.2.178.561.164.835-.174,3.277-.37,6.553-.56,9.829Z" transform="translate(-27.159 -71.337)" fill="#9bfefb"/>
        <path id="Trazado_142522" data-name="Trazado 142522" d="M93.726,159.874c-1.957,0-1.947,0-1.833-1.963q.542-9.357,1.055-18.715c.031-.572.17-.757.746-.72.962.063,2.2-.3,2.816.168s.066,1.745.022,2.662c-.287,5.992-.624,11.981-.917,17.973-.026.518-.212.636-.67.6-.4-.03-.812-.006-1.218-.006" transform="translate(-47.337 -71.327)" fill="#9bfefb"/>
        <path id="Trazado_142523" data-name="Trazado 142523" d="M37.779,31.164H24.805a34.667,34.667,0,0,0,1.894-6.4c.132-.513.32-.708.869-.7,2.4.03,4.805.037,7.207,0,.6-.01.789.228.945.74a51.388,51.388,0,0,0,2.058,6.363" transform="translate(-12.784 -12.4)" fill="#fefefe"/>
        <path id="Trazado_142524" data-name="Trazado 142524" d="M4.427,186.164a5.276,5.276,0,0,0,2.428.417c6.4-.008,12.8.008,19.194-.021.718,0,.949.193.995.908.159,2.465.186,2.463-2.257,2.463q-8.38,0-16.76,0a3.458,3.458,0,0,1-3.6-3.763" transform="translate(-2.28 -95.943)" fill="#9bfefb"/>
        <path id="Trazado_142525" data-name="Trazado 142525" d="M65.892,186.851c3.282,0,6.565.014,9.848-.012.59,0,.788.115.771.761-.069,2.627-.044,2.628-2.6,2.628-5.909,0-11.817-.013-17.726.017-.7,0-.934-.177-.9-.876.037-.8-.361-1.9.03-2.344.472-.531,1.587-.161,2.422-.167,2.72-.02,5.44-.008,8.16-.008" transform="translate(-28.416 -96.24)" fill="#9bfefb"/>
        <path id="Trazado_142526" data-name="Trazado 142526" d="M32.845,11.757c-1.154,0-2.309-.008-3.464,0-.4,0-.63-.09-.659-.56-.11-1.8-.287-3.593-.376-5.392-.055-1.108.4-1.547,1.492-1.554q3.089-.019,6.179,0a1.349,1.349,0,0,1,1.525,1.558c-.091,1.737-.253,3.469-.389,5.2a.71.71,0,0,1-.844.751c-1.154-.033-2.309-.01-3.464-.01" transform="translate(-14.607 -2.188)" fill="#7c4231"/>
        <path id="Trazado_142527" data-name="Trazado 142527" d="M78.36,125.741c-1.057,1.4-1.981,2.612-2.889,3.835a.89.89,0,0,1-.833.3c-2.156,0-4.311-.018-6.466.01-.58.008-.785-.186-.736-.755a9.788,9.788,0,0,1,.716-2.888.724.724,0,0,1,.79-.508,7.186,7.186,0,0,0,1.123,0c.792-.085,1.251.1,1.125,1.04a.963.963,0,0,0,.988,1.2,1,1,0,0,0,1.04-1.185c-.087-.909.294-1.1,1.116-1.064,1.271.061,2.547.016,4.025.016" transform="translate(-34.751 -64.79)" fill="#519056"/>
        <path id="Trazado_142528" data-name="Trazado 142528" d="M72.4,118.382a9.213,9.213,0,0,1,4.824-2.734,8.983,8.983,0,0,1,5.814.706c.66.3.6.555.23,1.093a2.115,2.115,0,0,1-2.034.956c-2.864-.057-5.73-.021-8.834-.021" transform="translate(-37.313 -59.494)" fill="#509055"/>
        <path id="Trazado_142529" data-name="Trazado 142529" d="M58.144,125.7a12.194,12.194,0,0,0-.742,3.669c0,.394-.2.457-.527.457-1.4,0-2.81,0-4.215.026-.347.005-.5-.091-.511-.466-.035-1.029-.1-2.058-.174-3.086-.031-.417.045-.618.535-.611,1.84.026,3.68.01,5.634.01" transform="translate(-26.783 -64.778)" fill="#fefefe"/>
        <path id="Trazado_142530" data-name="Trazado 142530" d="M88.978,129.719c1.043-1.373,1.977-2.577,2.879-3.8.279-.379.643-.331,1.007-.316.867.036,1.988-.366,2.526.16.489.476.052,1.587.026,2.417-.061,1.9.128,1.511-1.56,1.537-1.554.024-3.109,0-4.878,0" transform="translate(-45.857 -64.672)" fill="#fdfdfd"/>
        <path id="Trazado_142531" data-name="Trazado 142531" d="M73.963,138.556c-1.127,1.488-2.139,2.819-3.144,4.156-.224.3-.414.3-.66.016a10.055,10.055,0,0,1-2.038-3.536c-.168-.53-.024-.649.487-.644,1.715.019,3.43.007,5.356.007" transform="translate(-35.073 -71.404)" fill="#519056"/>
        <path id="Trazado_142532" data-name="Trazado 142532" d="M36.073,84.159c-.86-.2-1.069-.79-1.065-1.611.022-5.158,0-10.317.026-15.475a1.264,1.264,0,0,0-.771-1.308,18.193,18.193,0,0,0-17.841,0,1.276,1.276,0,0,0-.761,1.315q.029,23.307,0,46.614c0,.71.144.961.912.948,2.938-.048,5.877-.006,8.816-.028a1.355,1.355,0,0,1,1.532,1.062c-.2.815-.747,1.031-1.537,1.025-3.437-.026-6.874-.007-10.311-.013-1.207,0-1.461-.27-1.461-1.512q0-24.512-.016-49.024a1.771,1.771,0,0,1,.876-1.616c6.093-4.188,15.731-4.17,21.793.038a1.691,1.691,0,0,1,.829,1.543q-.036,8.249,0,16.5c0,.8-.227,1.329-1.023,1.544" transform="translate(-7.008 -31.648)" fill="#262626"/>
        <path id="Trazado_142533" data-name="Trazado 142533" d="M22.295,96.268c0-6.563.035-13.126-.029-19.688a2.549,2.549,0,0,1,1.609-2.631,12.766,12.766,0,0,1,12.213.187,2.163,2.163,0,0,1,1.265,2.169c-.043,4.749-.015,9.5-.022,14.25,0,1.287-.3,1.762-1.037,1.766s-1.048-.473-1.05-1.753c-.008-4.531-.023-9.063.016-13.594a1.312,1.312,0,0,0-.907-1.408,10.677,10.677,0,0,0-9.232.084,1.086,1.086,0,0,0-.7,1.151q.025,19.125,0,38.251c0,.735.239.887.911.867,1.53-.045,3.062,0,4.593-.019.735-.01,1.337.148,1.422.992.066.647-.525,1.07-1.461,1.074-1.969.01-3.938.007-5.907,0-1.37,0-1.661-.257-1.665-1.638-.017-5.5-.01-11-.012-16.5q0-1.781,0-3.563" transform="translate(-11.475 -37.358)" fill="#262626"/>
      </g>
    </g>
  </g>
</svg>
