<svg xmlns="http://www.w3.org/2000/svg" xmlns:xlink="http://www.w3.org/1999/xlink" width="138" height="116" viewBox="0 0 138 116">
  <defs>
    <clipPath id="clip-path">
      <rect id="Rect치ngulo_38685" data-name="Rect치ngulo 38685" width="90.22" height="83.256" fill="none"/>
    </clipPath>
  </defs>
  <g id="Grupo_161742" data-name="Grupo 161742" transform="translate(-722 -7519)">
    <rect id="Rect치ngulo_36141" data-name="Rect치ngulo 36141" width="138" height="116" transform="translate(722 7519)" fill="#c4d1ff"/>
    <g id="Grupo_161741" data-name="Grupo 161741" transform="translate(746 7535)">
      <g id="Grupo_161741-2" data-name="Grupo 161741" clip-path="url(#clip-path)">
        <path id="Trazado_142257" data-name="Trazado 142257" d="M90.22,56.593v1.76a4.677,4.677,0,0,1-4.966,4.113c-2.066.022-2.052.026-2.57,2.032a13.812,13.812,0,0,0,.271,7.707,1.285,1.285,0,0,0,1.454,1.059,5.793,5.793,0,0,1,4.663,1.618,4.268,4.268,0,0,1,1.148,2.481v1.76a4.763,4.763,0,0,1-4.893,4.127c-.205.007-.411.005-.616.005H8.408A8.306,8.306,0,0,1,2.25,80.911,7.066,7.066,0,0,1,0,75.737q0-7.877,0-15.752A7.077,7.077,0,0,1,3.444,53.9,1.125,1.125,0,0,0,4,52.345a4.933,4.933,0,0,1,4.516-6.552c.263-.022.528-.019.792-.021,1.518-.012,1.609-.073,2.026-1.5a13.374,13.374,0,0,0-.063-7.967c-.395-1.242-.432-1.276-1.719-1.282a6.042,6.042,0,0,1-3.831-1.051,4.684,4.684,0,0,1-1.916-4.8,4.739,4.739,0,0,1,3.507-3.905,8.239,8.239,0,0,0,1.365-.353,18.517,18.517,0,0,1-1.821-1.911A13.958,13.958,0,0,1,6.679,5.5,13.718,13.718,0,0,1,16.16.165,25.129,25.129,0,0,1,19.231,0q21.078,0,42.156,0a6.8,6.8,0,0,1,3.084.566A5.109,5.109,0,0,1,67.318,5.6a5,5,0,0,1-4.33,4.439c-2.072.3-2.037.3-2.441,2.378a10.806,10.806,0,0,0,.28,4.613,1.28,1.28,0,0,0,1.4,1.129A5.027,5.027,0,0,1,67.318,22.7a3.674,3.674,0,0,1-.107,1.567c-.15.556.053.741.6.739a24.553,24.553,0,0,1,3.6.149,7.941,7.941,0,0,1,6.917,7.951c.011,4.811-.013,9.621.011,14.432a8.188,8.188,0,0,1-1.128,4.28c-.434.741-.385.813.476.816,2.611.009,5.222.018,7.833,0a4.96,4.96,0,0,1,3.912,1.862,4.092,4.092,0,0,1,.786,2.1" transform="translate(0 0)"/>
        <path id="Trazado_142258" data-name="Trazado 142258" d="M37.587,108.76c.639.591,1.271,1.19,1.921,1.769s1.328,1.1,2.265.7,1.043-1.239,1.046-2.118a2.566,2.566,0,0,1,.044-.344,1.6,1.6,0,0,1,1.166-.286q20.137-.007,40.275,0c1.179,0,1.264.1,1.188,1.048a17.337,17.337,0,0,0,.851,6.06c.156.483.106.713-.457.63a2.431,2.431,0,0,0-.352,0q-34.371,0-68.742-.008c-.352,0-.763.176-1.054-.2-.16-2.248-.029-4.5-.069-6.748-.007-.393.249-.57.575-.676a3.641,3.641,0,0,1,1.131-.1q5.092,0,10.184,0c1.4,0,1.4.008,1.539,1.337.5,1.658,1.723,2.04,3.048.921.759-.64,1.472-1.334,2.206-2a4.485,4.485,0,0,1,3.235.025" transform="translate(-6.159 -42.665)" fill="#f8f6f7"/>
        <path id="Trazado_142259" data-name="Trazado 142259" d="M8.846,116.167A4.885,4.885,0,0,1,4.5,111.424q-.067-7.563,0-15.126a4.875,4.875,0,0,1,4.759-4.824c4.953-.086,9.908-.034,14.862-.055.469,0,.6.164.59.614-.028.878-.049,1.761.006,2.637.041.667-.127.893-.851.886-3.928-.039-7.856-.021-11.785-.018-2.342,0-3.5,1.165-3.507,3.511q-.006,4.837,0,9.674a3.124,3.124,0,0,0,2.431,3.41,3.441,3.441,0,0,0,1.049.053q28.192,0,56.384,0c.235,0,.47.013.7,0,.562-.036.684.269.511.714a14.835,14.835,0,0,1-1.642,3,.768.768,0,0,1-.684.331c-.234-.007-.469,0-.7,0q-28.412,0-56.824,0a2.5,2.5,0,0,1-.957-.062" transform="translate(-1.758 -35.967)" fill="#fedf7c"/>
        <path id="Trazado_142260" data-name="Trazado 142260" d="M41.865,9.189a1.455,1.455,0,0,0-.947,1.277,5.731,5.731,0,0,1-3.8,0,1.484,1.484,0,0,0-1.671-1.316c-4.483.02-8.966-.029-13.448.025a6.841,6.841,0,0,0-6.833,6.177,6.952,6.952,0,0,0,4.91,7.337,8.579,8.579,0,0,0,1.9.312,3.105,3.105,0,0,0,.959.051q13.828,0,27.656,0c1.127,0,1.215.078.85,1.124s-.548,2.232-1.486,3.02c-.174.016-.348.045-.522.046-9.084,0-18.169.032-27.253-.01a11.093,11.093,0,0,1-11.031-8.678c-1.56-6.508,3.445-13.391,9.871-13.573a2.45,2.45,0,0,1,.871-.058c9.342,0,18.686.01,28.028-.022a1.326,1.326,0,0,1,1.518,1.083c.2.7.448,1.4.6,2.11.184.839,0,1.044-.866,1.045-2.782,0-5.565,0-8.347,0a3.477,3.477,0,0,0-.961.045" transform="translate(-4.272 -1.929)" fill="#fedf7c"/>
        <path id="Trazado_142261" data-name="Trazado 142261" d="M75.508,69.751c-.409.013-.819.038-1.228.038q-13.682,0-27.365.018c-.689,0-.908-.167-.858-.86a17.09,17.09,0,0,0,0-2.637c-.065-.774.235-.9.937-.892,2.551.042,5.1.018,7.655.015a5.473,5.473,0,0,0,.876-.041,1.2,1.2,0,0,0,1.08-1.287,1.186,1.186,0,0,0-1.026-1.245A5.76,5.76,0,0,0,54.53,62.8q-14.562,0-29.125.013c-.858,0-1.489-.041-1.394-1.134a4.272,4.272,0,0,0-.1-.868c.019-.416.358-.409.631-.454a7.1,7.1,0,0,1,1.142-.035h47c2.582,0,3.111.523,3.114,3.074,0,1.7.006,3.4,0,5.1a1.71,1.71,0,0,1-.284,1.254" transform="translate(-9.407 -23.729)" fill="#f8f6f7"/>
        <path id="Trazado_142262" data-name="Trazado 142262" d="M42.034,66.955c.26-.3.6-.135.9-.136q15.048-.012,30.1,0c2.544,0,3.639-1.1,3.641-3.641q0-4.8,0-9.592A3.039,3.039,0,0,0,73.3,50.211q-29.261,0-58.522,0a2.353,2.353,0,0,1-1.291-.137c.471-.428,1.055-.288,1.6-.288q16.715-.014,33.431-.007H62.592c.293,0,.587,0,.88-.013.451-.018.65-.218.52-.676-.016-.056-.032-.113-.047-.17-.58-2.309-.755-2.444-3.15-2.444q-22.741,0-45.483-.007c-.567,0-1.184.162-1.676-.3a1.78,1.78,0,0,1,.949-.1c20.185,0,40.371.028,60.556-.018A5.37,5.37,0,0,1,80.787,51.7q-.188,6.815,0,13.639a5.333,5.333,0,0,1-5.58,5.623c-10.8-.056-21.593-.015-32.39-.018-.252,0-.529.1-.757-.1.416-.389.938-.276,1.424-.277,5.716-.009,11.434-.038,17.15.021a2.122,2.122,0,0,0,2.275-1.45c.833-1.913.88-1.895-1.152-1.895q-9.147,0-18.294,0a1.91,1.91,0,0,1-1.427-.28" transform="translate(-5.307 -18.116)" fill="#7edaad"/>
        <path id="Trazado_142263" data-name="Trazado 142263" d="M66.391,22.007a15.834,15.834,0,0,0,.691,4.828c-.23.189-.47.11-.69.11q-19.692.007-39.384,0a4.151,4.151,0,0,1-4.28-2.817,1.1,1.1,0,0,1,.512-1.283,4.943,4.943,0,0,1,3.173-1.12c1.965-.009,3.931,0,5.9,0q16.237,0,32.474,0a2.292,2.292,0,0,1,1.608.278" transform="translate(-8.917 -8.542)" fill="#f8f6f7"/>
        <path id="Trazado_142264" data-name="Trazado 142264" d="M12.609,46.243c.381.011.761.031,1.142.031q23.665,0,47.329-.021c.835,0,1.289.24,1.531,1.007s.489,1.5.775,2.236c.183.468.075.665-.429.644-.234-.009-.469,0-.7,0H13.077c-.205,0-.41.008-.615.012a1.983,1.983,0,0,1,.147-3.909" transform="translate(-4.28 -18.193)" fill="#a6e8a5"/>
        <path id="Trazado_142265" data-name="Trazado 142265" d="M103.094,106.136c.067-.8-.451-.768-1.017-.768q-20.806.011-41.612,0c-.015-.965.012-1.933-.06-2.893-.057-.764.131-1.023.971-1.016,5.712.043,11.424.012,17.136.033a1.6,1.6,0,0,0,1.794-1.186c-.005-.375.291-.416.543-.434a18.345,18.345,0,0,1,2.72,0c.258.019.54.078.549.44a1.59,1.59,0,0,0,1.8,1.179c5.719-.021,11.439-.01,17.158-.01h1.059a24.183,24.183,0,0,0-1.041,4.651" transform="translate(-23.761 -39.274)" fill="#dcd9eb"/>
        <path id="Trazado_142266" data-name="Trazado 142266" d="M66.248,19Q46.24,19,26.232,19a4.8,4.8,0,0,0-3,1.055c-.342.263-.7.555-.65,1.074a4.193,4.193,0,0,1,3.208-5.647,8.97,8.97,0,0,1,1.315-.07q6.334-.007,12.668-.005c1.2,0,1.486-.217,1.842-1.33h3.8c.277,1.1.587,1.33,1.9,1.33,6.231,0,12.463.018,18.695-.018.834,0,.956.17.719.951A22.2,22.2,0,0,0,66.248,19" transform="translate(-8.774 -5.537)" fill="#dedbec"/>
        <path id="Trazado_142267" data-name="Trazado 142267" d="M75.063,68.537q0-3.52,0-7.04c0-1.558-.556-2.106-2.115-2.106q-24.2,0-48.4.007c-.362,0-.772-.151-1.078.2l-.687-2.347h.915q26.433,0,52.868-.019c.871,0,1.165.193,1.147,1.111-.058,3.107-.038,6.216-.009,9.323.006.668-.153,1-.883.923-.58-.058-1.169-.035-1.754-.049" transform="translate(-8.962 -22.515)" fill="#dcd9eb"/>
        <path id="Trazado_142268" data-name="Trazado 142268" d="M84.119,97.007c-.283-.378-.7-.238-1.041-.208-.923.084-1.88-.266-2.772.2-.23-1.2-.547-1.465-1.766-1.465-5.745,0-11.491-.018-17.236.018-.752.005-.955-.2-.9-.924a16.563,16.563,0,0,0,0-2.46c-.045-.645.207-.759.8-.758,6.771.019,13.542.007,20.314.015,3.545,0,7.09.034,10.634.052a9.005,9.005,0,0,1,1.159,3.362c.116.537-.214.625-.667.622-2.1-.013-4.2-.008-6.3,0a2.7,2.7,0,0,0-.869.05,1.417,1.417,0,0,0-1.352,1.5" transform="translate(-23.762 -35.964)" fill="#fedf7c"/>
        <path id="Trazado_142269" data-name="Trazado 142269" d="M48.177,89.512c-1.9-1.549-1.9-1.547-3.71.193-.7.67-1.4,1.33-2.091,1.983-.237-.047-.185-.218-.185-.348q-.005-11.028,0-22.057a2.487,2.487,0,0,1,.072-.426c1.865-.19,3.735-.033,5.6-.084.381-.01.5.239.565.545a5.2,5.2,0,0,1,.056,1.05q0,8.822-.005,17.644c0,.512.121,1.065-.3,1.5" transform="translate(-16.597 -27.051)" fill="#ea5468"/>
        <path id="Trazado_142270" data-name="Trazado 142270" d="M11.685,129.6c.352-.008.7-.023,1.055-.023q28.339,0,56.677.022a1.547,1.547,0,0,0,1.615-1.009c.35-.739.75-1.458,1.163-2.165.361-.616.126-.768-.479-.714-.2.018-.411,0-.616,0q-28.074,0-56.149-.006c-.368,0-.765.127-1.1-.143.821.005,1.641.015,2.462.015q36.423,0,72.845.011a7.573,7.573,0,0,1,1.4.091,2,2,0,0,1,1.621,1.925,2.058,2.058,0,0,1-1.437,1.993,3.526,3.526,0,0,1-1.13.124q-38.4,0-76.8,0a2.087,2.087,0,0,1-1.118-.126" transform="translate(-4.597 -49.402)" fill="#fecf64"/>
        <path id="Trazado_142271" data-name="Trazado 142271" d="M60.495,80.516l21.013.01c1.054,0,1.047,0,.64,1.008-.385.95-.622,2.13-1.391,2.687-.749.542-1.928.158-2.917.161-5.773.02-11.546.016-17.32.021a20,20,0,0,1-.025-3.886" transform="translate(-23.768 -31.677)" fill="#a6e7a5"/>
        <path id="Trazado_142272" data-name="Trazado 142272" d="M48.454,9.156c.28-.242.617-.136.929-.138,2.756-.008,5.511,0,8.268-.007.9,0,.957-.1.692-.98-.218-.727-.478-1.445-.646-2.183-.161-.705-.534-.889-1.242-.887q-13.9.037-27.793.015c-.351,0-.7-.018-1.054-.029a2.327,2.327,0,0,1,1.124-.12q22,0,44,0c1.688,0,2.744,1,2.551,2.4a2.055,2.055,0,0,1-1.755,1.821,7.884,7.884,0,0,1-1.227.069q-11.924.021-23.848.033" transform="translate(-10.861 -1.895)" fill="#fdcf63"/>
        <path id="Trazado_142273" data-name="Trazado 142273" d="M57.161,38.918A32.8,32.8,0,0,0,58.517,35.5c.16-.483.1-.66-.467-.653-2.255.027-4.51.012-6.765.012q-10.543,0-21.087-.006c-.34,0-.706.117-1.017-.133.293-.01.585-.027.878-.027l43.127,0a3.635,3.635,0,0,1,1.387.164A2.123,2.123,0,0,1,75.9,37.106a2.063,2.063,0,0,1-1.849,1.826A9.859,9.859,0,0,1,73,38.964q-7.481,0-14.962,0c-.292,0-.583-.03-.875-.045" transform="translate(-11.481 -13.65)" fill="#fecf64"/>
        <path id="Trazado_142274" data-name="Trazado 142274" d="M101.734,95.515a2.914,2.914,0,0,1,1.539-.129c1.75-.022,3.5-.062,5.251.013.9.038.918-.278.734-.991a22.775,22.775,0,0,1-.842-2.924c1.727-.018,3.454-.049,5.181-.052,3.9-.007,7.8-.016,11.694.006,1.735.01,2.769,1.418,2.131,2.847a2,2,0,0,1-1.95,1.249q-11.869,0-23.737-.02" transform="translate(-40.025 -35.969)" fill="#fecf64"/>
        <path id="Trazado_142275" data-name="Trazado 142275" d="M19.859,80.283c2.229,0,4.458.017,6.687-.013.547-.007.715.155.692.7-.039.937-.028,1.877,0,2.815.012.436-.1.632-.579.63-4.546-.014-9.092.008-13.638-.021a2.016,2.016,0,0,1-2.139-2.077,2.064,2.064,0,0,1,2.2-2.023c2.258-.022,4.517-.006,6.775-.007" transform="translate(-4.281 -31.58)" fill="#a6e8a5"/>
        <path id="Trazado_142276" data-name="Trazado 142276" d="M48.225,89.476q.008-9.96.028-19.921c0-.593-.212-.745-.767-.736-1.726.025-3.452,0-5.178,0a6.15,6.15,0,0,1,2.155-.111c1.815-.026,3.632.011,5.448-.01.538-.006.779.108.777.722q-.033,10.938-.021,21.877c0,.107-.015.214-.04.553l-2.4-2.375" transform="translate(-16.645 -27.016)" fill="#e3384e"/>
        <path id="Trazado_142277" data-name="Trazado 142277" d="M29.054,107.492c-.038-1.01-.651-1.083-1.5-1.072-3.544.047-7.088.018-10.633.021-1.155,0-1.194.046-1.2,1.179q-.012,3.031-.028,6.061c-.231-.216-.127-.5-.127-.747,0-3.137.025-6.275-.009-9.412-.009-.781.243-.994,1.007-.987q5.85.053,11.7,0c.666-.006.842.17.815.826-.056,1.375-.022,2.754-.025,4.132" transform="translate(-6.115 -40.34)" fill="#dcd9eb"/>
        <path id="Trazado_142278" data-name="Trazado 142278" d="M22.767,73.109a18.226,18.226,0,0,0,.876-3.916c.029-.35.182-.442.5-.442q3.642.008,7.284,0c.4,0,.488.174.482.533-.016,1.111-.011,2.223,0,3.334,0,.3-.037.5-.414.5-2.889-.008-5.778,0-8.726,0" transform="translate(-8.957 -27.048)" fill="#f8f6f7"/>
        <path id="Trazado_142279" data-name="Trazado 142279" d="M49.714,108.073l-3.235-.025a.266.266,0,0,1,.035-.079c1.584-1.709,1.584-1.709,3.2.1" transform="translate(-18.286 -41.978)" fill="#d9d6e8"/>
      </g>
    </g>
  </g>
</svg>
