<svg xmlns="http://www.w3.org/2000/svg" xmlns:xlink="http://www.w3.org/1999/xlink" width="165" height="116" viewBox="0 0 165 116">
  <defs>
    <clipPath id="clip-path">
      <rect id="Rect치ngulo_38688" data-name="Rect치ngulo 38688" width="90.051" height="87.212" transform="translate(0 0)" fill="none"/>
    </clipPath>
  </defs>
  <g id="Grupo_161612" data-name="Grupo 161612" transform="translate(-722 -7519)">
    <rect id="Rect치ngulo_36141" data-name="Rect치ngulo 36141" width="165" height="116" transform="translate(722 7519)" fill="#c4d1ff"/>
    <g id="Grupo_161745" data-name="Grupo 161745" transform="translate(759 7533)">
      <g id="Grupo_161745-2" data-name="Grupo 161745" clip-path="url(#clip-path)">
        <path id="Trazado_142459" data-name="Trazado 142459" d="M90.051,17.416c-1.129,1.281-2.027,1.187-2.91-.308-2.986-5.052-7.446-8.4-12.615-10.939a3.88,3.88,0,0,1-.839-.465,1.266,1.266,0,0,1-.364-1.653,1.24,1.24,0,0,1,1.594-.734,14.981,14.981,0,0,1,2.065.951c5.4,2.835,9.931,6.6,12.929,12.017.022.039.092.051.14.076Z"/>
        <path id="Trazado_142460" data-name="Trazado 142460" d="M40.367,87.207A39.4,39.4,0,1,1,78.785,47.135,39.422,39.422,0,0,1,40.367,87.207"/>
        <path id="Trazado_142461" data-name="Trazado 142461" d="M86.372,36.407a1.408,1.408,0,1,1-2.8.321c-.307-1.338-.548-2.694-.916-4.016A38.167,38.167,0,0,0,70.843,13.4c-.355-.3-.737-.578-1.11-.861-.833-.634-1.017-1.4-.5-2.106a1.393,1.393,0,0,1,2.093-.2,28.577,28.577,0,0,1,5.507,5.142,43.579,43.579,0,0,1,9.343,19.952c.081.4.146.8.2,1.082"/>
        <path id="Trazado_142462" data-name="Trazado 142462" d="M64.853,0a28.285,28.285,0,0,1,4.694,1.24A1.237,1.237,0,0,1,70.3,2.83,1.26,1.26,0,0,1,68.78,3.851c-1.538-.327-3.064-.721-4.571-1.167a1.227,1.227,0,0,1-.849-1.538A1.4,1.4,0,0,1,64.853,0"/>
        <path id="Trazado_142463" data-name="Trazado 142463" d="M84.4,44.334c-.043-.67-.117-1.34-.122-2.011a1.4,1.4,0,1,1,2.8-.074c.071,1.312.129,2.625.154,3.938a1.431,1.431,0,0,1-1.407,1.649c-.845,0-1.381-.635-1.4-1.662-.01-.613,0-1.227,0-1.84H84.4"/>
        <path id="Trazado_142464" data-name="Trazado 142464" d="M43.618,78.266a60.29,60.29,0,0,1-9.634-11.358A59.1,59.1,0,0,1,24.872,44.19c-.355-2.034-.376-2.021,1.437-2.961A14.38,14.38,0,0,0,33.214,33.8c.3-.728.68-.792,1.313-.7a58.623,58.623,0,0,1,21.41,7.7A66.416,66.416,0,0,1,73.516,56.158a2.643,2.643,0,0,1,.184.295c.253.352.072.672-.078.988a35.842,35.842,0,0,1-6.3,9.145,38.127,38.127,0,0,1-11.145,8.282,38.735,38.735,0,0,1-11.719,3.547,1.132,1.132,0,0,1-.84-.149" fill="#f8ba3d"/>
        <path id="Trazado_142465" data-name="Trazado 142465" d="M75.407,53.965c-1.118-1.26-2.112-2.447-3.174-3.569A64.683,64.683,0,0,0,39.721,31.238c-1.647-.392-3.325-.66-5-.938-.444-.074-.593-.224-.569-.665a7.156,7.156,0,0,0-1.569-5c-.451-.565.126-.658.363-.826a34.792,34.792,0,0,1,9.992-4.832,39.519,39.519,0,0,1,13.537-1.545c1.167.055,2.329.228,3.494.335a1.853,1.853,0,0,1,.918.483A35.976,35.976,0,0,1,75.274,40.9a34.079,34.079,0,0,1,.133,13.063" fill="#e54042"/>
        <path id="Trazado_142466" data-name="Trazado 142466" d="M9.009,63.49a36.3,36.3,0,0,1,6.3-22.044c.389-.576.656-.685,1.262-.207a6.1,6.1,0,0,0,4.259,1.337c.813-.054,1.045.266,1.141.98A56.931,56.931,0,0,0,26.1,58.186,65.927,65.927,0,0,0,39.173,77.9c.16.169.3.354.456.531-.305.321-.706.23-1.075.236a34.417,34.417,0,0,1-12.265-2.236A38.219,38.219,0,0,1,10.794,65.865,10.712,10.712,0,0,1,9.009,63.49" fill="#0e87cb"/>
        <path id="Trazado_142467" data-name="Trazado 142467" d="M9.009,63.49c1.544,1.669,3,3.42,4.675,4.966a37.772,37.772,0,0,0,10.484,6.87,39.815,39.815,0,0,0,9.016,2.7,28.671,28.671,0,0,0,6.445.4c1.916,1.794,3.785,3.641,5.934,5.378a20.676,20.676,0,0,1-4.935.568A36.512,36.512,0,0,1,9.7,69.172,2.907,2.907,0,0,1,9.273,67.6a22.5,22.5,0,0,1-.264-4.107" fill="#0071bb"/>
        <path id="Trazado_142468" data-name="Trazado 142468" d="M54.271,14.565a39.681,39.681,0,0,0-20.688,5.488c-1.106.655-2.152,1.413-3.207,2.149a1.082,1.082,0,0,1-1.038.266,9.239,9.239,0,0,0-6.344.35c-.812.321-.979.083-1.109-.646a12.728,12.728,0,0,1,.647-6.468c.144-.423.488-.562.826-.724a36.847,36.847,0,0,1,12.754-3.586A36.07,36.07,0,0,1,53.281,14a2.27,2.27,0,0,1,.99.568" fill="#0e87cb"/>
        <path id="Trazado_142469" data-name="Trazado 142469" d="M3.173,52.409a25.551,25.551,0,0,1-.3-6.642,36.712,36.712,0,0,1,3.6-13.828,1.975,1.975,0,0,1,1.306-1.155A12.088,12.088,0,0,1,14,30.373c.505.113.7.221.471.793a9.869,9.869,0,0,0-.406,6.691.916.916,0,0,1-.241.88A38.631,38.631,0,0,0,6.57,56.305C6.461,57,6.4,57.7,6.316,58.394c-.495.476-.645-.044-.79-.319a21.448,21.448,0,0,1-2.247-5.438.442.442,0,0,0-.106-.228" fill="#e54042"/>
        <path id="Trazado_142470" data-name="Trazado 142470" d="M43.618,78.266a38.718,38.718,0,0,0,9.805-2.432A37.955,37.955,0,0,0,67.91,65.642a33.657,33.657,0,0,0,5.622-8.519,3.691,3.691,0,0,0,.168-.67,1.9,1.9,0,0,1,.573,2.448q-6.2,18.085-24.367,23.959a1.32,1.32,0,0,1-1.418-.3,56.862,56.862,0,0,1-4.87-4.292" fill="#e7a42d"/>
        <path id="Trazado_142471" data-name="Trazado 142471" d="M21.084,27.075a8.455,8.455,0,0,1,6.806-2.093,4.018,4.018,0,0,1,3.436,3.682,6.949,6.949,0,0,1-.349,3.2,11.593,11.593,0,0,1-8.467,7.772c-3.911.948-6.532-1.5-5.971-5.486a8.851,8.851,0,0,1,2.1-4.632c.281.351.017.671-.072.989a2.458,2.458,0,0,0,.4,2.707,2.547,2.547,0,0,0,2.9.232,5.5,5.5,0,0,0,3.327-3.827c.473-1.983-.709-3.148-2.7-2.733-.46.1-.893.5-1.412.19" fill="#f2e1b2"/>
        <path id="Trazado_142472" data-name="Trazado 142472" d="M8.992,27.589A35.664,35.664,0,0,1,19.135,17.427a12.583,12.583,0,0,0,.068,5.362,2.273,2.273,0,0,1-1.026,3.034,7.92,7.92,0,0,0-1.652,1.8.674.674,0,0,1-.814.308,13.793,13.793,0,0,0-6.719-.344" fill="#f8ba3d"/>
        <path id="Trazado_142473" data-name="Trazado 142473" d="M21.084,27.075c.445-.128.886-.27,1.334-.382,2.058-.514,3.293.52,3.09,2.606-.237,2.433-3.174,4.835-5.069,4.676-1.68-.14-2.628-1.2-2.266-2.876.115-.536.311-1.055.47-1.582a8.759,8.759,0,0,1,2.441-2.442" fill="#fbf1d8"/>
        <path id="Trazado_142474" data-name="Trazado 142474" d="M3.173,52.409A5.025,5.025,0,0,1,4,54.3c.5,1.274,1.114,2.487,1.721,3.706.114.229.161.628.6.389-.048.7-.114,1.4-.138,2.1s-.005,1.406-.1,2.132a30.032,30.032,0,0,1-2.9-10.213" fill="#d12f37"/>
        <path id="Trazado_142475" data-name="Trazado 142475" d="M31.332,47.114c.678.038,1.035.563,1.258,1.307a47.708,47.708,0,0,0,5.486,12.007c.284.444.591.872.877,1.314a1.47,1.47,0,0,1-.219,2.167,1.426,1.426,0,0,1-2.1-.567A49.293,49.293,0,0,1,31.3,53.294a40.322,40.322,0,0,1-1.47-4.312,1.412,1.412,0,0,1,1.507-1.868"/>
        <path id="Trazado_142476" data-name="Trazado 142476" d="M42.691,67a1.468,1.468,0,0,1-1.477,1.426A1.435,1.435,0,1,1,42.691,67" fill="#272625"/>
        <path id="Trazado_142477" data-name="Trazado 142477" d="M61.882,23.92a1.661,1.661,0,0,1,1.28.668A35.982,35.982,0,0,1,70.879,36.84c.212.545.427,1.091.6,1.649a1.4,1.4,0,0,1-.771,1.748,1.381,1.381,0,0,1-1.826-.77c-.414-.935-.753-1.9-1.148-2.847a31.526,31.526,0,0,0-6.669-10.136,1.463,1.463,0,0,1-.465-1.662,1.353,1.353,0,0,1,1.282-.9"/>
        <path id="Trazado_142478" data-name="Trazado 142478" d="M57.425,20.114a1.552,1.552,0,0,1,1.44,1.494,1.463,1.463,0,1,1-1.44-1.494" fill="#262525"/>
      </g>
    </g>
  </g>
</svg>
