<svg xmlns="http://www.w3.org/2000/svg" xmlns:xlink="http://www.w3.org/1999/xlink" width="165" height="116" viewBox="0 0 165 116">
  <defs>
    <clipPath id="clip-path">
      <rect id="Rect치ngulo_38687" data-name="Rect치ngulo 38687" width="49.218" height="95.973" fill="none"/>
    </clipPath>
  </defs>
  <g id="Grupo_161611" data-name="Grupo 161611" transform="translate(-722 -7519)">
    <rect id="Rect치ngulo_36141" data-name="Rect치ngulo 36141" width="165" height="116" transform="translate(722 7519)" fill="#c4d1ff"/>
    <g id="Grupo_161744" data-name="Grupo 161744" transform="translate(780 7529)">
      <g id="Grupo_161744-2" data-name="Grupo 161744" clip-path="url(#clip-path)">
        <path id="Trazado_142448" data-name="Trazado 142448" d="M39.549,88.606c.72,1.355.541,2.129-.725,3.007a23.631,23.631,0,0,1-11.2,4.2c-.362.187-.787-.071-1.142.163H22.173a14.862,14.862,0,0,0-3.026-.705A24.478,24.478,0,0,1,.718,69.92c.361-5.149,2.1-9.824,4.114-14.469,1.606-3.711,3.13-7.458,4.728-11.172.3-.708.224-.871-.566-.856-2.216.044-4.433.011-6.648,0C.658,43.408.005,42.772,0,41.112Q-.006,30.339,0,19.568c0-1.675.653-2.306,2.332-2.307,1.873,0,3.746-.013,5.618.018a.837.837,0,0,0,.91-.566,13.006,13.006,0,0,1,4.75-5.531c.507-.331.483-.53.163-.987-1.59-2.273-3.127-4.583-4.708-6.862A2.044,2.044,0,0,1,8.744.989,2.066,2.066,0,0,1,10.823.023a13.9,13.9,0,0,1,3.854.661,11,11,0,0,0,6.889,0A13.825,13.825,0,0,1,30.121.672a11.1,11.1,0,0,0,6.978,0A13,13,0,0,1,41.144.024,1.877,1.877,0,0,1,43,1.038a1.9,1.9,0,0,1-.282,2.177Q38.631,8.4,34.552,13.582c-.107.137-.3.236-.261.562.726,0,1.46,0,2.194,0a5.692,5.692,0,0,1,5.47,3.25,5.525,5.525,0,0,1-.712,6.22.549.549,0,0,0-.029.789,5.616,5.616,0,0,1-.709,7.559c-.311.323-.273.5-.093.851a5.69,5.69,0,0,1-1.718,7.478c-.426.314-.44.524-.257.978a5.321,5.321,0,0,1-.116,4.53,1.3,1.3,0,0,0,.123,1.44c2.635,4.376,5.317,8.725,7.846,13.163a23.057,23.057,0,0,1,2.626,15.19c-.225,1.523-.667,1.942-2.118,2.153a1.861,1.861,0,0,1-1.889-2.381,22.516,22.516,0,0,0-.127-7.726A18.758,18.758,0,0,0,42.563,61.9c-2.285-3.834-4.609-7.645-6.872-11.492a1.817,1.817,0,0,0-1.918-1.071c-2.022.119-4.054.046-6.083.034a5.957,5.957,0,0,1-5.478-8.115,1.961,1.961,0,0,1,.232-.51,2.033,2.033,0,0,0,.046-2.527,5.583,5.583,0,0,1,.616-6.323c.432-.583.421-.864-.217-1.206a6.085,6.085,0,0,1-2.165-2.361,3.752,3.752,0,0,0-.733,1.382c-4.447,10.657-8.981,21.278-13.38,31.955A26.667,26.667,0,0,0,4.78,69.847,20.016,20.016,0,0,0,9.518,84.78a19.606,19.606,0,0,0,12.749,6.992,19.946,19.946,0,0,0,14.228-3.4c1.179-.788,2.034-.843,2.751-.236a1.6,1.6,0,0,1,.3.467" transform="translate(0 0)"/>
        <path id="Trazado_142449" data-name="Trazado 142449" d="M37.74,136.688a1.443,1.443,0,0,1,1.142-.163.205.205,0,0,0-.018.163Z" transform="translate(-11.258 -40.715)" fill="#7f7f7f"/>
        <path id="Trazado_142450" data-name="Trazado 142450" d="M41.42,100.332a1.963,1.963,0,0,0-2.857-.079A20.486,20.486,0,0,1,6.73,87.429,24.69,24.69,0,0,1,8.489,72.688q6.855-16.426,13.771-32.826c.058-.138.133-.267.276-.555a6.117,6.117,0,0,0,3.5,3.49A6.206,6.206,0,0,0,24,46.484a5.571,5.571,0,0,0,1.009,4.161.768.768,0,0,1,.036,1.106A5.758,5.758,0,0,0,29.711,60.9c2.3-.013,4.617.281,6.9-.219a.441.441,0,0,1,.526.271c2.852,5.009,6.227,9.722,8.665,14.961a18.916,18.916,0,0,1,1.251,11.005c-.222,1.48.181,2.1,1.613,2.556a.654.654,0,0,0-.6.479c-.519,1.224-1.054,2.442-1.583,3.662-.133.182-.326.126-.506.135a1.649,1.649,0,0,0-1.612,2.4,1.007,1.007,0,0,1,.114.622l-3.063,3.564" transform="translate(-1.871 -11.726)" fill="#fdcb71"/>
        <path id="Trazado_142451" data-name="Trazado 142451" d="M60.49,119.814a1.919,1.919,0,0,1-.2-2.456,1.883,1.883,0,0,1,2.2-.7c1.17.789,1.495,1.758.914,2.729-.6,1-1.645,1.153-2.918.427" transform="translate(-17.878 -34.771)" fill="#010101"/>
        <path id="Trazado_142452" data-name="Trazado 142452" d="M5.348,35.714c0-2.873.019-5.745-.015-8.617-.008-.618.166-.783.773-.767,1.622.044,3.245.022,4.868.02a2.09,2.09,0,0,0,2.443-1.683,10.106,10.106,0,0,1,10.4-6.781,6.252,6.252,0,0,1,5.759,5.458,67.955,67.955,0,0,1,.06,7.674,1.95,1.95,0,1,1-3.9-.03c-.046-2.247.01-4.5-.02-6.743A1.86,1.86,0,0,0,24.17,22.3a1.914,1.914,0,0,0-2.085,1.222c-.079.169-.141.346-.213.518-2.8,6.656-5.609,13.306-8.375,19.975a1.31,1.31,0,0,1-1.47,1.013c-1.932-.076-3.871-.055-5.8-.008-.693.018-.9-.158-.89-.874.044-2.81.018-5.62.018-8.43" transform="translate(-1.59 -5.329)" fill="#fddddd"/>
        <path id="Trazado_142453" data-name="Trazado 142453" d="M20.646,6.162a16.019,16.019,0,0,0,8.565-.406,9.176,9.176,0,0,1,5.807.044,15.912,15.912,0,0,0,7.9.476l-6.608,8.4c-.093-.049-.2-.071-.243-.134-2.94-3.871-6.9-4.76-11.434-3.861a1.019,1.019,0,0,1-1.282-.515c-.842-1.309-1.74-2.581-2.708-4" transform="translate(-6.159 -1.583)" fill="#fdcb71"/>
        <path id="Trazado_142454" data-name="Trazado 142454" d="M42.6,47.829c1.215,0,2.43-.017,3.645,0a1.991,1.991,0,0,1,2.1,1.926,1.942,1.942,0,0,1-2,2.112c-2.49.053-4.983.048-7.474,0a2.028,2.028,0,1,1,.087-4.052c1.215-.019,2.43,0,3.645,0v.008" transform="translate(-10.976 -14.264)" fill="#fddddd"/>
        <path id="Trazado_142455" data-name="Trazado 142455" d="M41.428,63.024c-.871,0-1.743.03-2.612-.007A2.011,2.011,0,1,1,38.864,59Q41.43,58.957,44,59a2.014,2.014,0,1,1,.044,4.026c-.87.032-1.742.006-2.613.006v0" transform="translate(-10.969 -17.594)" fill="#fddddd"/>
        <path id="Trazado_142456" data-name="Trazado 142456" d="M42.93,40.735A6.035,6.035,0,0,0,44.6,37.076c.021-.38.234-.44.558-.437,1.4.013,2.8-.033,4.2.027A2.074,2.074,0,0,1,51.387,38.7a2.026,2.026,0,0,1-2.123,2.023c-2.047.031-4.094.008-6.335.008" transform="translate(-12.807 -10.928)" fill="#fddddd"/>
        <path id="Trazado_142457" data-name="Trazado 142457" d="M48,29.579c-.766-.095-2,.413-2.521-.189-.45-.519-.117-1.719-.131-2.617-.02-1.278-.02-1.278,1.227-1.278,1.151,0,2.3-.016,3.452,0a2.112,2.112,0,0,1,2.3,2.054,2.08,2.08,0,0,1-2.3,2.024c-.622.008-1.243,0-2.02,0" transform="translate(-13.496 -7.604)" fill="#fcdddd"/>
        <path id="Trazado_142458" data-name="Trazado 142458" d="M35.932,97.235a2.6,2.6,0,0,0-1.878-2.619,44,44,0,0,1-5.216-2.278c-4.32-2.393-3.425-8.021-.328-10.106a2.114,2.114,0,0,1,.554-.343,1.788,1.788,0,0,0,1.521-2.005,1.729,1.729,0,0,1,1.928-1.523,1.761,1.761,0,0,1,1.693,1.786c-.046.9.342,1.154,1.118,1.3A10.482,10.482,0,0,1,38.6,82.775a1.87,1.87,0,0,1,.86,2.616,1.85,1.85,0,0,1-2.664.655,8.217,8.217,0,0,0-4.823-1.19,2.434,2.434,0,0,0-2.313,2.379,1.705,1.705,0,0,0,.871,1.722,28.231,28.231,0,0,0,4.777,2.111,6.458,6.458,0,0,1,4.146,4.381,7.244,7.244,0,0,1-4.337,8.544c-.632.251-.926.513-.9,1.246.054,1.343-.654,2.132-1.778,2.165a1.853,1.853,0,0,1-1.932-2.129c.01-.657-.222-.846-.827-.923a8.048,8.048,0,0,1-3.492-1.494,1.83,1.83,0,0,1-.613-2.537,1.8,1.8,0,0,1,2.6-.6,6.826,6.826,0,0,0,4.36,1.076,3.562,3.562,0,0,0,3.388-3.56" transform="translate(-7.548 -23.374)"/>
      </g>
    </g>
  </g>
</svg>
