<svg xmlns="http://www.w3.org/2000/svg" xmlns:xlink="http://www.w3.org/1999/xlink" width="138" height="116" viewBox="0 0 138 116">
  <defs>
    <clipPath id="clip-path">
      <rect id="Rect치ngulo_38695" data-name="Rect치ngulo 38695" width="91.832" height="91.721" fill="none"/>
    </clipPath>
  </defs>
  <g id="Grupo_161645" data-name="Grupo 161645" transform="translate(-722 -7519)">
    <rect id="Rect치ngulo_36141" data-name="Rect치ngulo 36141" width="138" height="116" transform="translate(722 7519)" fill="#c4d1ff"/>
    <g id="Grupo_161755" data-name="Grupo 161755" transform="translate(745 7531)">
      <g id="Grupo_161755-2" data-name="Grupo 161755" clip-path="url(#clip-path)">
        <path id="Trazado_142588" data-name="Trazado 142588" d="M80.905,115.5H10.683A6.915,6.915,0,0,1,4.8,109.378C3.211,100.12,1.635,90.86.182,81.58a33.7,33.7,0,0,1-.144-5.444A3.61,3.61,0,0,1,1.367,73.5,4.562,4.562,0,0,1,4.8,72.274c.646.039.965-.178,1.055-.871a14.283,14.283,0,0,1,1.325-4.057,16.969,16.969,0,0,1,2.087-2.971c.584-.623.54-.668-.219-1.151C8.387,62.8,7.6,62.509,7.24,61.717a1.689,1.689,0,0,1,.042-1.506,8.5,8.5,0,0,1,3.076-2.074,10.7,10.7,0,0,1,7.536-1.426,4.91,4.91,0,0,1,2.12.88,3.657,3.657,0,0,1,1.25,1.368,1.078,1.078,0,0,0,.914.614,14.33,14.33,0,0,1,10.439,6.91c.4.624.585.475.9-.028a13.4,13.4,0,0,1,1.294-1.818c.843-.952.833-.964-.276-1.553a10.456,10.456,0,0,1-1.093-.775,1.556,1.556,0,0,1-.055-2.435c3.087-2.186,6.342-3.944,10.348-3.153a5.467,5.467,0,0,1,2.211.914,1.862,1.862,0,0,1,.689.685c.428,1.019,1.266,1.224,2.25,1.419a14.246,14.246,0,0,1,9.54,6.756c.322.511.514.563.848.024a13.563,13.563,0,0,1,1.34-1.889c.836-.943.825-.957-.288-1.548a12.173,12.173,0,0,1-1.025-.717,1.583,1.583,0,0,1-.051-2.559c3.139-2.159,6.42-3.951,10.466-3.052a6.577,6.577,0,0,1,2.116.947,1.752,1.752,0,0,1,.622.629c.408.99,1.217,1.194,2.175,1.38a14.374,14.374,0,0,1,9.528,6.644c.195.3.377.606.562.911a14.025,14.025,0,0,1,1.357,4.049c.107.761.462.992,1.184.966a4.176,4.176,0,0,1,3.2,1.11,3.878,3.878,0,0,1,1.38,2.523v4.657c-1.28,9.491-3.087,18.9-4.585,28.352a7.589,7.589,0,0,1-4.277,6.109,10.6,10.6,0,0,1-2.065.471" transform="translate(0 -23.783)"/>
        <path id="Trazado_142589" data-name="Trazado 142589" d="M1.611,45.89C.48,45.583.168,45.217.186,44.079.245,40.32.017,36.557.335,32.8A34.866,34.866,0,0,1,8.594,12.821,35.4,35.4,0,0,1,30.518.429a35.055,35.055,0,0,1,5.8-.43C42.79.011,49.268,0,55.745,0a35.83,35.83,0,0,1,34.988,26.79,32.358,32.358,0,0,1,1,5.715c.013.162-.064.369.168.455v12a1.414,1.414,0,0,1-1.517,1.114c-1.179-.266-1.581-.74-1.591-2-.023-2.746.018-5.492-.013-8.237A32.808,32.808,0,0,0,59.816,3.348a29.159,29.159,0,0,0-3.747-.24c-6.656.023-13.312-.009-19.968.016A31.9,31.9,0,0,0,15.78,10.186,32.118,32.118,0,0,0,3.524,32.1c-.464,3.774-.149,7.572-.226,11.359A6.045,6.045,0,0,1,3.221,44.8a1.3,1.3,0,0,1-1.61,1.093" transform="translate(-0.068 0)"/>
        <path id="Trazado_142590" data-name="Trazado 142590" d="M8.579,35.062a8.351,8.351,0,0,0-.018,3.552,1.808,1.808,0,0,0,0,1.442,30.85,30.85,0,0,1,0,5.546,14.607,14.607,0,0,0-1.44,4.753c-.049.585-.457.46-.782.438a5.145,5.145,0,0,0-3.685,1.059q0-1.945,0-3.89c1.134-.305,1.433-.671,1.435-1.806.008-3.014-.031-6.028.02-9.042A33,33,0,0,1,31.327,5.461a31.147,31.147,0,0,1,5.155-.508c7.192-.008,14.385-.078,21.575.021A32.976,32.976,0,0,1,89.206,30.389a35.733,35.733,0,0,1,.881,7.98c-.01,2.6-.005,5.192,0,7.788,0,1.134.3,1.5,1.435,1.8q0,1.945.005,3.89a4.762,4.762,0,0,0-3.5-1.043c-.722.076-.944-.179-1.023-.906a13.851,13.851,0,0,0-1.388-4.3,4.454,4.454,0,0,0,.159-2.068c.042-.911.009-1.825.008-2.738,1.085-.565,1.221-1.51,1.21-2.63a29.535,29.535,0,0,0-9.5-22.051A28.844,28.844,0,0,0,59.856,8.2c-1.493-.136-2.978-.142-4.468-.145q-9-.014-18,0a30.077,30.077,0,0,0-29.731,24.6,2.287,2.287,0,0,0,.922,2.407" transform="translate(-1.118 -2.071)" fill="#e5e5e5"/>
        <path id="Trazado_142591" data-name="Trazado 142591" d="M78.709,93.4c-.323-1.186-.66-1.43-1.988-1.43l-65.755,0c-.357,0-.714-.019-1.071-.028a2.41,2.41,0,0,1,.356-2.807c.238-.01.475-.028.713-.028q39.058,0,78.115,0c.238,0,.476.019.714.028a2.443,2.443,0,0,1,.354,2.807q-3.42.015-6.84.031c-1.119.006-1.489.306-1.79,1.43a3.2,3.2,0,0,1-2.81,0" transform="translate(-4.046 -37.509)" fill="#e5e5e5"/>
        <path id="Trazado_142592" data-name="Trazado 142592" d="M22.173,123.773c.328-.01.655-.028.983-.028q35.735,0,71.471-.014c.763,0,1.085.045.877.979-.42,1.886-.353,1.9-2.322,1.9H45.8c-1.332,0-1.671.246-1.989,1.43a3.2,3.2,0,0,1-2.81,0c-.314-1.155-.671-1.427-1.889-1.43l-14.8-.031a6.337,6.337,0,0,1-2.142-2.806" transform="translate(-9.334 -52.085)" fill="#e5e5e5"/>
        <path id="Trazado_142593" data-name="Trazado 142593" d="M61.764,44.144a20.4,20.4,0,0,1,1.272,2.4,3.287,3.287,0,0,1,.555,1.225,3.2,3.2,0,0,1,.167,1.114c-.076.349.081.4.316.471a1.451,1.451,0,0,1-.32,1.382,8.282,8.282,0,0,0-7.445-.536,18.885,18.885,0,0,0-4.5,2.3c-1.278.87-1.259,1.926.041,2.8.244.164.471.351.706.527a2.727,2.727,0,0,1-3.376.106A5.352,5.352,0,0,1,48.1,54.869a14.436,14.436,0,0,0-4.277-3.623,2.466,2.466,0,0,1-1.387-3.271,11.351,11.351,0,0,1,3.056-5.668c.927-.266,1.9-.046,2.837-.27a4.693,4.693,0,0,0,3.242-2.008c.423-.7,1.131-.582,1.775-.446a11.546,11.546,0,0,1,5.488,2.855,4.22,4.22,0,0,1,.566.571,2.5,2.5,0,0,0,2.363,1.134" transform="translate(-17.799 -16.62)" fill="#f7c360"/>
        <path id="Trazado_142594" data-name="Trazado 142594" d="M108.488,48.186a4.515,4.515,0,0,1,.2,1.391,2.33,2.33,0,0,1-1.877.218c-3.768-.752-6.927.74-9.947,2.715-1.3.848-1.269,1.924.033,2.8.244.164.472.351.707.528a2.726,2.726,0,0,1-2.99.34,2.969,2.969,0,0,1-.986-.763,47.442,47.442,0,0,0-3.85-3.856,5.669,5.669,0,0,1-.738-7.359,5.62,5.62,0,0,1,1.485-1.88c.984-.265,2.013-.042,3.008-.3a4.6,4.6,0,0,0,3.072-1.953c.427-.708,1.107-.6,1.757-.442a11.341,11.341,0,0,1,8.063,6.324c.47.988.9,1.924,2.057,2.236" transform="translate(-37.054 -16.632)" fill="#f7c360"/>
        <path id="Trazado_142595" data-name="Trazado 142595" d="M31.425,137.227c.01,2.445.011,4.891.037,7.336,0,.433-.143.558-.565.555q-5.191-.034-10.381-.029c-.466,0-.533-.211-.532-.6q.014-5.145,0-10.291c0-.428.134-.565.561-.559,1.968.028,3.936.028,5.9.039a3.334,3.334,0,0,1,1.131.682c1.2,1.068,2.6,1.859,3.846,2.867" transform="translate(-8.412 -56.256)" fill="#df4b4b"/>
        <path id="Trazado_142596" data-name="Trazado 142596" d="M119.018,142.242c-.01-2.681-.012-5.363-.037-8.044,0-.424.124-.562.555-.56q5.185.022,10.37,0c.43,0,.559.135.555.56-.025,2.681-.027,5.363-.037,8.044a1.526,1.526,0,0,1-1.182.288q-4.52.014-9.041,0a1.526,1.526,0,0,1-1.182-.288" transform="translate(-50.086 -56.256)" fill="#e95b5a"/>
        <path id="Trazado_142597" data-name="Trazado 142597" d="M94.269,142.242c-.01-2.681-.012-5.363-.037-8.044,0-.424.124-.562.555-.56q5.185.022,10.37,0c.43,0,.559.135.555.56-.025,2.681-.027,5.363-.037,8.044a1.526,1.526,0,0,1-1.182.288q-4.52.014-9.041,0a1.526,1.526,0,0,1-1.182-.288" transform="translate(-39.667 -56.256)" fill="#e95b5a"/>
        <path id="Trazado_142598" data-name="Trazado 142598" d="M69.519,142.242c-.01-2.681-.012-5.363-.037-8.044,0-.424.124-.562.555-.56q5.185.022,10.37,0c.43,0,.559.135.555.56-.025,2.681-.027,5.363-.037,8.044a1.526,1.526,0,0,1-1.182.288q-4.52.014-9.041,0a1.526,1.526,0,0,1-1.182-.288" transform="translate(-29.249 -56.256)" fill="#e95b5a"/>
        <path id="Trazado_142599" data-name="Trazado 142599" d="M130.423,103.744c.01,2.681.012,5.363.037,8.044,0,.424-.124.562-.555.56q-5.185-.022-10.37,0c-.43,0-.559-.135-.555-.56.025-2.681.027-5.363.037-8.044a1.526,1.526,0,0,1,1.182-.288q4.52-.014,9.041,0a1.526,1.526,0,0,1,1.182.288" transform="translate(-50.086 -43.547)" fill="#e95b5a"/>
        <path id="Trazado_142600" data-name="Trazado 142600" d="M105.674,103.744c.01,2.681.012,5.363.037,8.044,0,.424-.124.562-.555.56q-5.185-.022-10.37,0c-.43,0-.559-.135-.555-.56.025-2.681.027-5.363.037-8.044a1.526,1.526,0,0,1,1.182-.288q4.52-.014,9.041,0a1.526,1.526,0,0,1,1.182.288" transform="translate(-39.667 -43.547)" fill="#e95b5a"/>
        <path id="Trazado_142601" data-name="Trazado 142601" d="M80.924,103.744c.01,2.681.012,5.363.037,8.044,0,.424-.124.562-.555.56q-5.185-.022-10.37,0c-.43,0-.559-.135-.555-.56.025-2.681.027-5.363.037-8.044a1.526,1.526,0,0,1,1.182-.288q4.52-.014,9.041,0a1.526,1.526,0,0,1,1.182.288" transform="translate(-29.249 -43.547)" fill="#e95b5a"/>
        <path id="Trazado_142602" data-name="Trazado 142602" d="M56.174,103.744c.01,2.681.012,5.363.037,8.044,0,.424-.124.562-.555.56q-5.185-.022-10.37,0c-.43,0-.559-.135-.555-.56.025-2.681.027-5.363.037-8.044a1.526,1.526,0,0,1,1.182-.288q4.52-.014,9.041,0a1.526,1.526,0,0,1,1.182.288" transform="translate(-18.83 -43.547)" fill="#e95b5a"/>
        <path id="Trazado_142603" data-name="Trazado 142603" d="M31.425,103.734c.01,2.682.012,5.363.037,8.044,0,.425-.126.561-.555.559q-5.185-.022-10.371,0c-.432,0-.559-.139-.554-.562.027-2.085.027-4.171.037-6.256a4.508,4.508,0,0,1,3.713-1.984c2.338-.2,4.694-.072,7.042-.05a.876.876,0,0,1,.65.248" transform="translate(-8.412 -43.538)" fill="#e95b5a"/>
        <path id="Trazado_142604" data-name="Trazado 142604" d="M50.5,131.173h2.81c.316,1.184.657,1.477,1.984,1.416.745-.034.947.174.929.925-.06,2.5-.039,5.007-.049,7.511a.832.832,0,0,1-.749.18,33.922,33.922,0,0,1-10-2.779,1.807,1.807,0,0,1-.658-.446c-.01-1.609-.008-3.218-.038-4.827-.009-.436.143-.561.564-.552,1.132.023,2.265.012,3.4.006s1.5-.3,1.807-1.434" transform="translate(-18.83 -55.218)" fill="#e95b5a"/>
        <path id="Trazado_142605" data-name="Trazado 142605" d="M37.2,75.856c.43.86.992,1.92.625,2.68-.273.566-1.523.174-2.334.176-6.437.021-12.875,0-19.313.03-.815,0-.932-.24-.76-.956a13.094,13.094,0,0,1,2.726-5.353,2.5,2.5,0,0,1,3.3-.88,1.4,1.4,0,0,1-.011.877,2.586,2.586,0,0,0,2.575,3.141c.954.051,1.91.014,2.865.015,3.015,0,6.029,0,9.043,0a1.773,1.773,0,0,1,1.282.266" transform="translate(-6.46 -29.994)" fill="#e9ab47"/>
        <path id="Trazado_142606" data-name="Trazado 142606" d="M81.744,75.855c.431.86.994,1.92.627,2.68-.273.566-1.523.174-2.334.177-6.437.02-12.875,0-19.313.03-.815,0-.932-.24-.76-.957a13.088,13.088,0,0,1,2.726-5.353,2.494,2.494,0,0,1,3.3-.88,1.4,1.4,0,0,1-.011.876,2.586,2.586,0,0,0,2.575,3.141c.953.051,1.909.014,2.864.016,3.015,0,6.028,0,9.042,0a1.773,1.773,0,0,1,1.282.265" transform="translate(-25.213 -29.994)" fill="#e9ab47"/>
        <path id="Trazado_142607" data-name="Trazado 142607" d="M126.294,75.855c.431.86.994,1.92.627,2.68-.273.566-1.523.174-2.334.177-6.437.02-12.875,0-19.313.03-.815,0-.932-.24-.76-.957a13.088,13.088,0,0,1,2.726-5.353,2.493,2.493,0,0,1,3.3-.88,1.4,1.4,0,0,1-.011.876,2.586,2.586,0,0,0,2.575,3.141c.953.051,1.909.014,2.864.016,3.014,0,6.028,0,9.042,0a1.773,1.773,0,0,1,1.282.265" transform="translate(-43.967 -29.994)" fill="#e9ab47"/>
        <path id="Trazado_142608" data-name="Trazado 142608" d="M41.357,74.083c-4.283,0-8.569-.087-12.849.036a2.965,2.965,0,0,1-2.9-4.339,13.366,13.366,0,0,0,2.839-.175,4.4,4.4,0,0,0,3.283-2.193c.223-.438.522-.395.88-.328a11.1,11.1,0,0,1,8.752,7" transform="translate(-10.621 -28.222)" fill="#f7c360"/>
        <path id="Trazado_142609" data-name="Trazado 142609" d="M85.9,74.083c-4.283,0-8.569-.087-12.848.036a2.965,2.965,0,0,1-2.9-4.338,13.442,13.442,0,0,0,2.839-.175,4.4,4.4,0,0,0,3.283-2.193c.223-.438.522-.4.88-.328a11.1,11.1,0,0,1,8.751,7" transform="translate(-29.374 -28.222)" fill="#f7c360"/>
        <path id="Trazado_142610" data-name="Trazado 142610" d="M130.455,74.083c-4.283,0-8.569-.087-12.848.036a2.965,2.965,0,0,1-2.9-4.338,13.442,13.442,0,0,0,2.839-.175,4.4,4.4,0,0,0,3.283-2.193c.223-.438.522-.4.88-.328a11.1,11.1,0,0,1,8.751,7" transform="translate(-48.128 -28.222)" fill="#f7c360"/>
        <path id="Trazado_142611" data-name="Trazado 142611" d="M86.912,44.114c-.922,1.363-2.039,2.6-2.219,4.372a5.3,5.3,0,0,0,1.2,4.2,11.628,11.628,0,0,0,1.75,1.64,9.548,9.548,0,0,1,1.693,1.7c1.545,2,2.274,2.26,4.629,1.517l1.269.635a15.748,15.748,0,0,0-2.88,3.888c-.331-.066-.348-.339-.458-.526a14.181,14.181,0,0,0-10.683-7.223c-.368-.052-.675-.113-.832-.533a4.38,4.38,0,0,0-1.014-1.338q.095-.757.19-1.511a.819.819,0,0,1,.074-1.095,2.584,2.584,0,0,0,2-1.893,10.334,10.334,0,0,1,2.853-3.939,1.739,1.739,0,0,1,2.427.1" transform="translate(-33.409 -18.34)" fill="#e9ab47"/>
        <path id="Trazado_142612" data-name="Trazado 142612" d="M42.328,44.114a14.257,14.257,0,0,0-2.936,6.016A2.121,2.121,0,0,0,40.458,52.6a14.617,14.617,0,0,1,4.737,3.971c1.151,1.479,2.039,1.65,4.185.972l1.267.635a15.335,15.335,0,0,0-2.935,4.03c-.23-.38-.389-.646-.55-.91a14.133,14.133,0,0,0-10.5-6.974c-.4-.057-.734-.126-.9-.583a3.883,3.883,0,0,0-1.034-1.318,15.992,15.992,0,0,1,.372-2.534c1.17-.282,1.644-1.182,2.065-2.2a10.189,10.189,0,0,1,2.736-3.686,1.737,1.737,0,0,1,2.422.106" transform="translate(-14.621 -18.339)" fill="#e9ab47"/>
        <path id="Trazado_142613" data-name="Trazado 142613" d="M11.124,104.817c0,1.668-.019,3.336.012,5,.009.517-.158.666-.659.644-.921-.041-2.041.294-2.714-.119-.7-.432-.468-1.675-.626-2.563-.474-2.664-.9-5.336-1.374-8-.111-.625.049-.829.7-.806,1.339.047,2.68.036,4.02,0,.511-.012.658.149.65.654-.028,1.727-.011,3.455-.011,5.182" transform="translate(-2.412 -41.664)" fill="#df4b4b"/>
        <path id="Trazado_142614" data-name="Trazado 142614" d="M44.766,142.928a22.564,22.564,0,0,1,2.885,1.114,35.179,35.179,0,0,0,8.52,1.932c.034.977.4,2.222-.12,2.856-.5.609-1.789.173-2.728.183-2.62.026-5.241-.009-7.862.023-.593.007-.752-.171-.738-.749.044-1.785.033-3.572.043-5.358" transform="translate(-18.826 -60.166)" fill="#df4b4b"/>
        <path id="Trazado_142615" data-name="Trazado 142615" d="M130.342,100.829H118.936c-.029-.919-.384-2.085.114-2.684.477-.572,1.679-.132,2.56-.181.416-.024.834,0,1.251-.005,1.135-.01,1.5-.3,1.805-1.434h2.81c.308,1.157.667,1.481,1.892,1.416.811-.043,1.117.186,1.016,1.014a17.7,17.7,0,0,0-.043,1.873" transform="translate(-50.004 -40.633)" fill="#df4b4b"/>
        <path id="Trazado_142616" data-name="Trazado 142616" d="M148.5,104.293c-.407,2.526-.823,5.05-1.212,7.578-.06.387-.224.511-.579.463-.03,0-.06,0-.089,0-.95-.017-2.188.322-2.771-.149-.611-.494-.175-1.785-.186-2.725-.023-1.907.01-3.815.02-5.722a.875.875,0,0,1,.645-.263,35.3,35.3,0,0,1,3.57.013c.466.031.836.213.6.805" transform="translate(-60.415 -43.542)" fill="#e95b5a"/>
        <path id="Trazado_142617" data-name="Trazado 142617" d="M31.425,101.867c-1.965,0-3.933.076-5.894-.024a7.5,7.5,0,0,0-5.512,1.81c-.01-1.369-.006-2.738-.037-4.105-.01-.43.137-.559.561-.557q5.179.021,10.358,0c.423,0,.58.126.561.556-.035.772-.027,1.547-.036,2.32" transform="translate(-8.412 -41.671)" fill="#df4b4b"/>
        <path id="Trazado_142618" data-name="Trazado 142618" d="M105.593,101.784H94.187c-.031-.918-.382-2.082.112-2.682.473-.574,1.675-.17,2.555-.178,2.678-.024,5.357.008,8.036-.022.581-.006.789.151.743.742-.056.71-.031,1.426-.041,2.14" transform="translate(-39.586 -41.587)" fill="#df4b4b"/>
        <path id="Trazado_142619" data-name="Trazado 142619" d="M80.843,101.784H69.437c-.031-.918-.382-2.082.112-2.682.473-.574,1.675-.17,2.555-.178,2.678-.024,5.357.008,8.036-.022.581-.006.789.151.743.742-.056.71-.031,1.426-.041,2.14" transform="translate(-29.167 -41.587)" fill="#df4b4b"/>
        <path id="Trazado_142620" data-name="Trazado 142620" d="M56.093,101.784H44.687c-.031-.918-.382-2.082.112-2.682.473-.574,1.675-.17,2.555-.178,2.678-.024,5.357.008,8.035-.022.581-.006.789.151.743.742-.056.71-.031,1.426-.041,2.14" transform="translate(-18.748 -41.587)" fill="#df4b4b"/>
        <path id="Trazado_142621" data-name="Trazado 142621" d="M119.017,148.5h11.405c.01.745,0,1.492.037,2.236.024.47-.145.613-.613.611q-5.149-.01-10.3.028c-.415,0-.591-.108-.57-.549.037-.774.027-1.551.037-2.326" transform="translate(-50.084 -62.511)" fill="#df4b4b"/>
        <path id="Trazado_142622" data-name="Trazado 142622" d="M69.512,148.5H80.918c.031.918.382,2.082-.112,2.682-.473.574-1.675.17-2.555.178-2.679.024-5.357-.008-8.036.022-.581.006-.789-.151-.743-.742.056-.71.031-1.426.041-2.14" transform="translate(-29.242 -62.511)" fill="#df4b4b"/>
        <path id="Trazado_142623" data-name="Trazado 142623" d="M94.262,148.5h11.405c.031.918.382,2.082-.112,2.682-.473.574-1.675.17-2.555.178-2.678.024-5.357-.008-8.036.022-.581.006-.789-.151-.743-.742.056-.71.031-1.426.041-2.14" transform="translate(-39.66 -62.511)" fill="#df4b4b"/>
        <path id="Trazado_142624" data-name="Trazado 142624" d="M16.965,123.707l2.142,2.806c-2.775.01-5.55.011-8.324.039-.461.005-.617-.145-.655-.6-.063-.737-.534-1.719-.219-2.134.347-.46,1.394-.13,2.134-.135,1.64-.012,3.281.013,4.922.023" transform="translate(-4.126 -52.019)" fill="#cdcdcd"/>
        <path id="Trazado_142625" data-name="Trazado 142625" d="M148.5,102.344c.023-.485-.258-.568-.674-.563-1.381.017-2.762.008-4.143.009-.028-.919-.385-2.086.115-2.684.478-.571,1.679-.141,2.561-.178.684-.03,1.372.019,2.057-.014.488-.023.728.088.614.636-.192.929-.354,1.863-.529,2.8" transform="translate(-60.422 -41.593)" fill="#df4b4b"/>
        <path id="Trazado_142626" data-name="Trazado 142626" d="M108.743,63.331c2.085-1.022,3.941-1.757,6.051-1.281.675.152,1.284.417,1.307,1.23.025.869-.6,1.151-1.312,1.316-2.114.489-3.958-.288-6.046-1.264" transform="translate(-45.776 -26.058)" fill="#84b17b"/>
        <path id="Trazado_142627" data-name="Trazado 142627" d="M64.26,63.331c2.065-1.047,3.953-1.766,6.088-1.266.677.159,1.252.47,1.236,1.291-.016.773-.577,1.065-1.215,1.219-2.138.516-4.029-.222-6.108-1.245" transform="translate(-27.051 -26.058)" fill="#84b17b"/>
        <path id="Trazado_142628" data-name="Trazado 142628" d="M19.7,63.338c2.056-1.05,3.935-1.766,6.068-1.277.677.155,1.265.452,1.258,1.272s-.6,1.1-1.277,1.256c-2.114.5-3.972-.258-6.048-1.25" transform="translate(-8.294 -26.059)" fill="#84b17b"/>
        <path id="Trazado_142629" data-name="Trazado 142629" d="M13.546,143.322a5.408,5.408,0,0,1-.956-2.695c-.342-2.141-.685-4.281-1.08-6.412-.1-.538.078-.575.517-.585,1.521-.038,1.52-.052,1.52,1.464v8.228" transform="translate(-4.834 -56.248)" fill="#de4a4a"/>
        <path id="Trazado_142630" data-name="Trazado 142630" d="M143.736,143.3c0-3.156.009-6.108-.009-9.059,0-.458.112-.651.6-.611s.95.008,1.424.008c.014,2.063-1.283,8.552-2.011,9.663" transform="translate(-60.503 -56.251)" fill="#e85a59"/>
        <path id="Trazado_142631" data-name="Trazado 142631" d="M36.125,137.227a19.3,19.3,0,0,1-4.119-2.808c-.3-.229-.573-.493-.858-.741,1.486-.01,2.973-.008,4.459-.039.427-.009.57.13.556.557-.034,1.009-.027,2.02-.037,3.031" transform="translate(-13.112 -56.256)" fill="#e95b5a"/>
        <path id="Trazado_142632" data-name="Trazado 142632" d="M148.439,91.94a5.711,5.711,0,0,0-.354-2.807c.561-.01,1.122-.043,1.681-.025a1.942,1.942,0,0,1,1.528,2.712c-.113.2-.3.147-.464.147-.8,0-1.594-.017-2.39-.027" transform="translate(-62.337 -37.508)" fill="#f8f3f3"/>
        <path id="Trazado_142633" data-name="Trazado 142633" d="M8.361,89.134a5.459,5.459,0,0,0-.356,2.807c-.768.01-1.537-.009-2.3.039-.49.031-.571-.163-.579-.606-.035-1.829.37-2.272,2.175-2.269.354,0,.708.019,1.062.028" transform="translate(-2.156 -37.51)" fill="#cdcdcd"/>
        <path id="Trazado_142634" data-name="Trazado 142634" d="M120.476,57.109a7.764,7.764,0,0,1,1.877-.218,1.914,1.914,0,0,1,.1,1.148l-1.977-.93" transform="translate(-50.715 -23.948)" fill="#e6aa48"/>
        <path id="Trazado_142635" data-name="Trazado 142635" d="M11.955,37.158c-1.153-.443-1.425-.917-1.213-2.115A30.292,30.292,0,0,1,36.879,10.127a29.9,29.9,0,0,1,3.75-.228c6.565.01,13.13-.007,19.694.007A30.08,30.08,0,0,1,89.56,32.236,31.782,31.782,0,0,1,90.6,41.265a1.519,1.519,0,0,1-1.44,1.627c-1.186-.323-1.447-.658-1.427-1.99a26.85,26.85,0,0,0-6.942-19.009,26.413,26.413,0,0,0-19.981-9.1c-6.864-.1-13.731-.069-20.6-.011A27.358,27.358,0,0,0,13.578,35.495c-.2,1.2-.482,1.48-1.622,1.663" transform="translate(-4.494 -4.167)"/>
        <path id="Trazado_142636" data-name="Trazado 142636" d="M86.389,36.2a2.215,2.215,0,0,0-3,.751,12.91,12.91,0,0,0-2.33,3.76,1.649,1.649,0,0,1-1.872,1.268c-.375.089-.552-.143-.7-.428a2.316,2.316,0,0,1-.373-1.2,16.571,16.571,0,0,1,1.5-3.129,16.763,16.763,0,0,1,2.158-2.661c-.763-.481-1.5-.907-2.2-1.395a1.4,1.4,0,0,1-.036-2.448,17,17,0,0,1,6.8-3,9.344,9.344,0,0,1,3.979.315c0-.642-.021-1.228.005-1.812a1.427,1.427,0,1,1,2.852.017c.028,1.222.031,2.445,0,3.667-.014.512.122.69.664.781a14.106,14.106,0,0,1,11.3,9.022c.464,1.112.256,1.62-.826,2.272a1.7,1.7,0,0,1-1.874-1.283,11.337,11.337,0,0,0-8.47-7.1,1.2,1.2,0,0,0-1.522.594c-.94,1.517-2.551,1.851-4.188,2-.62.057-1.251.005-1.877,0" transform="translate(-32.886 -10.422)"/>
        <path id="Trazado_142637" data-name="Trazado 142637" d="M41.86,36.2a2.218,2.218,0,0,0-3,.756,12.6,12.6,0,0,0-2.3,3.691,1.691,1.691,0,0,1-1.926,1.331c-1.1-.709-1.236-1.152-.749-2.38a14.368,14.368,0,0,1,3.379-5.032c-.778-.49-1.519-.917-2.217-1.405a1.4,1.4,0,0,1-.029-2.449,16.889,16.889,0,0,1,6.8-2.993,8.638,8.638,0,0,1,3.972.339c0-.641-.014-1.2,0-1.755a1.434,1.434,0,1,1,2.858.033c.018,1.222.023,2.446-.005,3.668-.01.454.136.6.589.664a13.931,13.931,0,0,1,8.879,4.858c.807.931.8,1.45,0,2.424a1.631,1.631,0,0,1-2.191-.569,11.057,11.057,0,0,0-6.86-3.85c-.3-.047-.632-.206-.852.219-.959,1.854-2.7,2.293-4.569,2.454-.591.051-1.191,0-1.786,0" transform="translate(-14.152 -10.423)"/>
        <path id="Trazado_142638" data-name="Trazado 142638" d="M86.532,36.105c2.068-1.046,3.955-1.766,6.09-1.265.677.159,1.252.471,1.235,1.292-.017.773-.579,1.065-1.217,1.218-2.138.515-4.028-.223-6.108-1.246" transform="translate(-36.426 -14.598)" fill="#84b17b"/>
        <path id="Trazado_142639" data-name="Trazado 142639" d="M41.97,36.083c2.045-.981,3.872-1.729,5.958-1.272.707.155,1.356.4,1.37,1.266s-.625,1.136-1.334,1.3c-2.111.475-3.953-.273-5.994-1.29" transform="translate(-17.667 -14.596)" fill="#84b17b"/>
      </g>
    </g>
  </g>
</svg>
