<svg xmlns="http://www.w3.org/2000/svg" xmlns:xlink="http://www.w3.org/1999/xlink" width="138" height="116" viewBox="0 0 138 116">
  <defs>
    <clipPath id="clip-path">
      <rect id="Rect치ngulo_38686" data-name="Rect치ngulo 38686" width="96.604" height="96.598" fill="none"/>
    </clipPath>
  </defs>
  <g id="Grupo_161610" data-name="Grupo 161610" transform="translate(-722 -7519)">
    <rect id="Rect치ngulo_36141" data-name="Rect치ngulo 36141" width="138" height="116" transform="translate(722 7519)" fill="#c4d1ff"/>
    <g id="Grupo_161743" data-name="Grupo 161743" transform="translate(743 7529)">
      <g id="Grupo_161743-2" data-name="Grupo 161743" clip-path="url(#clip-path)">
        <path id="Trazado_142280" data-name="Trazado 142280" d="M2.028,96.608c2.29-.048,4.584-.01,6.876-.019,1.219,0,1.716-.5,1.721-1.707.009-2.2.045-4.4-.019-6.593-.024-.808.219-.956.981-.955q25.809.035,51.618.018c1.26,0,1.566-.217,1.919-1.336-.245-1.221-.615-1.491-2.065-1.491q-25.589,0-51.179,0c-1.454,0-1.232.2-1.251-1.235-.011-.816.024-1.635-.011-2.45-.022-.519.133-.774.683-.705a3.662,3.662,0,0,0,.47,0q34.261,0,68.523,0c.344,0,.688.031,1.032.047,1.374-.014,2.748-.018,4.122-.049.457-.01.594.182.586.613-.019,1.063-.022,2.125,0,3.188.01.444-.143.605-.591.6-1.374-.031-2.748-.03-4.123-.042q-5.342.017-10.685.038c-1.153.005-1.538.342-1.768,1.488.188,1.02.839,1.351,1.827,1.347,4.806-.022,9.612,0,14.417-.026.707,0,.957.133.936.9-.06,2.2-.026,4.4-.019,6.6,0,1.275.485,1.751,1.77,1.755,2.262.007,4.523,0,6.785,0,1.6,0,2.016-.415,2.016-1.99q0-22.756,0-45.513,0-15.17.01-30.341c0-1-.27-1.724-1.35-1.923-1.227.25-1.487.609-1.487,2.065q0,36.666,0,73.331c0,1.545,0,1.546-1.505,1.542-.314,0-.628-.019-.941-.029-2.469.129-2.469.129-2.469-2.348V4.225c0-1.343,0-1.346,1.339-1.342.377,0,.753.019,1.129.029,2.446-.125,2.446-.125,2.446,2.266,0,2.042-.005,4.084,0,6.125,0,1.163.343,1.555,1.488,1.776a1.519,1.519,0,0,0,1.344-1.732c-.016-3.107-.031-6.215.01-9.322A2.009,2.009,0,0,0,95.657.054H86.983c-.983.508-.98,1.4-.964,2.338.029,1.809.009,1.81-1.773,1.81H57.392c-1.633,0-2.038.412-2.041,2.07,0,1.539-.031,3.079.014,4.616.019.627-.169.791-.787.787-4.208-.026-8.417-.012-12.625-.015-.7,0-1.391,0-1.814.719-.22.373-.494.1-.729.012-1.456-.572-2.905-1.163-4.362-1.733-1.181-.461-1.811-.193-2.288,1.005Q28.642,22,24.535,32.339a1.606,1.606,0,0,0,.82,2.234c-2.393,0-4.536.013-6.678-.008-.614-.006-.317-.526-.318-.794-.02-4.742-.015-9.484-.015-14.227q0-2.967,0-5.936c0-1.5-.44-1.937-1.972-1.944-1.634-.008-3.269-.044-4.9.017-.739.027-.871-.223-.863-.9.039-2.92-.01-5.842.033-8.762A1.96,1.96,0,0,0,9.671.054H1L.055,1V95.65a2,2,0,0,0,1.973.959m21.05-19.42h0a31.585,31.585,0,0,1-4.843.1c-.773.006-1.776.349-2.262-.156s-.137-1.494-.144-2.271c-.019-2.326-.007-2.351,2.311-2.335a32.153,32.153,0,0,1,4.94.1,15.344,15.344,0,0,1,0,4.56m10.28-.015h0a14.3,14.3,0,0,1-3.325.126c-1.094.038-2.19-.018-3.284.009-.5.012-.737-.1-.718-.664.04-1.156.017-2.314.009-3.471,0-.372,0-.667.522-.663,2.22.022,4.44.013,6.66.022.046,0,.091.072.137.111a32.371,32.371,0,0,1,0,4.53M26.534,56.486c2.228.02,4.456.012,6.684.019.047,0,.092.073.139.112.022,2.473.049,4.945.063,7.418.01,1.661-.018,3.322.014,4.983.01.533-.148.7-.684.684-1.345-.048-2.691-.043-4.037-.059-.688.016-1.38,0-2.066.056-.53.04-.613-.2-.612-.66.014-3.954.008-7.908.008-11.863,0-.346-.06-.694.492-.69m6.9-3.318c.013.456-.215.507-.577.5-1.38-.026-2.76-.036-4.14-.052-2.669.217-2.669.217-2.669-2.376,0-1.488,0-1.492,1.455-1.486.4,0,.808.033,1.213.05,1.411-.018,2.823-.029,4.233-.058.371-.008.49.142.483.5-.016.973-.024,1.948,0,2.921m3.6,3.311c1.976.033,3.952,0,5.928.009.2,0,.443-.1.6.127.022,2.351.05,4.7.064,7.052.01,1.79-.008,3.579.009,5.368,0,.441-.051.688-.6.667-1.378-.052-2.759-.045-4.137-.061-2.646.221-2.646.221-2.646-2.407,0-3.324.018-6.649-.015-9.974-.006-.632.182-.792.791-.782m-.781-3.368q.027-1.4,0-2.8c-.007-.374.069-.585.507-.56.713.04,1.428.042,2.143.06,1.407-.019,2.814-.025,4.22-.063.431-.012.522.171.515.555q-.029,1.408,0,2.817c.009.383-.077.567-.512.556-1.407-.037-2.814-.041-4.221-.057-.715.016-1.431.015-2.144.055-.439.026-.515-.182-.508-.559m7.314,24.065h0a14.414,14.414,0,0,1-3.324.124c-1.094.038-2.19-.019-3.285.009-.5.013-.732-.1-.712-.663.042-1.156.017-2.315.01-3.473,0-.367-.017-.667.514-.662,2.221.022,4.443.011,6.664.018.044,0,.089.074.133.114A31.834,31.834,0,0,1,43.558,77.175Zm10.192,0h0a3.622,3.622,0,0,1-1.735.122c-1.632.029-3.265-.006-4.9.009-.45,0-.693-.068-.677-.608.036-1.192.016-2.386.009-3.579,0-.345.009-.609.479-.606,2.229.016,4.458.008,6.687.015.045,0,.09.074.135.113A25.4,25.4,0,0,1,53.75,77.176Zm.074-17.857c.018,3.189-.012,6.378.023,9.567.007.666-.182.852-.834.819-1.309-.064-2.622-.048-3.934-.065-2.629.228-2.629.228-2.629-2.328q0-5.026,0-10.05c0-.421-.061-.791.59-.782,2.16.031,4.32.008,6.481.012.076,0,.153.079.229.122a13.432,13.432,0,0,1,.076,2.705m-7.373-8.031c0-1.536,0-1.54,1.508-1.533.374,0,.746.034,1.12.053,1.411-.019,2.821-.026,4.231-.064.422-.012.536.156.528.551q-.03,1.411,0,2.824c.009.395-.1.563-.526.552-1.41-.037-2.821-.042-4.232-.059-2.629.229-2.629.229-2.629-2.325M61.467,77.2H61.46a24.644,24.644,0,0,1-4.383.088c-.6.006-.467-.547-.4-.857.137-.683-.506-1.841.35-1.978a12.71,12.71,0,0,1,4.461.038,10.956,10.956,0,0,1-.017,2.708ZM56.652,57.531a.392.392,0,0,1,.458-.339c.4.009.808.021,1.212.031.564-.011,1.128-.029,1.691-.03,1.587,0,1.817.3,1.539,1.894-.075.429-.328.384-.6.381-.877-.007-1.754-.022-2.631-.033a1.659,1.659,0,0,1-.184.029c-1.465.051-1.857-.474-1.484-1.932m4.88,7.8c.036,1.818-.016,3.637.025,5.454.014.631-.191.815-.8.774-.812-.055-1.628-.036-2.442-.05-1.665.107-1.665.107-1.665-1.542,0-2.188.049-4.378-.022-6.564-.03-.914.23-1.269,1.133-1.108a5.373,5.373,0,0,0,.56.043c1.029-.047,2.332-.43,3.007.122.656.537.181,1.883.2,2.871M69.322,77.3c-1.446-.019-2.892-.026-4.337,0-.515.011-.624-.184-.622-.657.015-4.336.009-8.672.009-13.007l.166-.025q1.981,5.012,3.962,10.025c.4,1.019.781,2.049,1.21,3.056.2.46.126.612-.388.6M65.858,58.032c.371-.153.752-.285,1.129-.426.812-.331,1.642-.625,2.431-1.006.507-.244.629-.015.8.388.635,1.508.648,1.507-.872,2.1-.523.206-1.057.386-1.586.577-.077.05-.148.129-.231.143-.436.078-.915.657-1.257.271a5.267,5.267,0,0,1-.739-1.689c-.092-.25.169-.3.327-.362M70.229,70.34c-.837-2.131-1.62-4.285-2.537-6.381-.379-.866-.233-1.242.646-1.424a4.082,4.082,0,0,0,.531-.188c.78-.318,1.577-.6,2.335-.964.549-.263.727-.064.918.434q1.411,3.668,2.892,7.307c.2.481.153.718-.37.887-.856.277-1.694.614-2.54.926h0a.716.716,0,0,1-.144.119c-1.229.56-1.229.559-1.731-.717M76.9,75.256c-.9.34-1.806.668-2.71,1v0c-.275.129-.558.246-.825.391-.384.208-.631.154-.758-.3a8.035,8.035,0,0,0-.31-.773c-.577-1.45-.576-1.45.937-1.94.374-.157.74-.33,1.121-.466.636-.228,1.463-.922,1.856-.591.549.459.668,1.422,1,2.156.164.364-.084.438-.311.523m8.048,2.059c-1.682-.059-3.368-.018-5.249-.018,1.122-.828.915-1.687.522-2.67-2.671-6.687-5.3-13.391-7.945-20.089-.553-1.4-1.132-1.651-2.548-1.1-1.574.618-3.15,1.232-4.714,1.873-.395.161-.637.244-.871-.255a1.412,1.412,0,0,0-1.436-.7c-1.791.01-3.582-.016-5.373.015-.528.009-.7-.133-.69-.677.036-1.476.013-2.953.012-4.43,0-2.094-.246-2.346-2.3-2.346H22.4c-2.514,0-5.027,0-7.542,0-1.449,0-1.865.409-1.868,1.843-.008,3.676.016,7.352-.014,11.029a1.645,1.645,0,0,0,1.411,1.89c1.2-.4,1.419-.7,1.429-1.974.008-.879,0-1.758,0-2.636,0-.3,0-.589.42-.578,2.278.059,4.561-.162,6.836.108.244.194.132.465.133.7.008,3.856-.011,7.713.02,11.569.005.663-.186.863-.841.833-1.344-.061-2.692-.049-4.038-.067-2.514.233-2.514.233-2.53-2.208-.009-1.441-.267-1.794-1.491-2.038-1.041.171-1.353.848-1.346,1.823.019,3.048-.013,6.1.022,9.144.009.708-.13,1.082-.917.945a2.082,2.082,0,0,0-.658,0c-.687.108-.815-.207-.815-.841Q10.643,61,10.607,45.544c0-.787.26-.9.952-.9q19.325.027,38.649.013,17.393,0,34.785-.022c.889,0,1.055.26,1.053,1.088q-.043,15.27.005,30.541c0,.908-.281,1.079-1.1,1.05M18.349,53.61c-2.53.233-2.53.233-2.53-2.227,0-1.634,0-1.637,1.6-1.628.31,0,.619.037.929.057,1.442-.02,2.883-.033,4.324-.064.4-.009.556.143.547.55q-.03,1.413,0,2.825c.009.408-.143.556-.545.547C21.233,53.639,19.791,53.628,18.349,53.61ZM80.109,7.032c.4,0,.81.018,1.215.028,1.375-.01,2.751-.005,4.125-.038.441-.01.65.116.579.575a.756.756,0,0,0,0,.094c-.019,1.058.362,2.444-.165,3.084-.55.668-1.99.153-3.039.2-.5.023-1-.016-1.5-.026-2.679.143-2.679.143-2.679-2.462,0-1.459,0-1.461,1.464-1.457m-1.473,7.416c0-.474.1-.682.619-.646.688.048,1.379.03,2.069.04l4.535.007h0c.331.184.165.5.166.743.012,3.86-.005,7.721.023,11.581,0,.632-.122.87-.812.852-1.945-.051-3.892-.038-5.837-.013-.535.007-.774-.075-.77-.7.03-3.954.022-7.909.006-11.863m7.4,15.967q-.038,1.787,0,3.574c.01.443-.115.605-.576.594-1.378-.036-2.758-.032-4.137-.043-2.678.153-2.678.153-2.678-2.478,0-2.263,0-2.263,2.305-2.229.125,0,.249.022.373.033,1.379-.011,2.759-.007,4.137-.043.46-.012.586.151.576.593m-10.2-4.289c.005.681-.135.925-.869.9-1.913-.057-3.829-.04-5.743-.016-.562.007-.832-.075-.827-.749.033-3.923.025-7.846.005-11.77,0-.522.124-.737.675-.691.623.052,1.253.033,1.88.044,1.571-.047,3.143-.082,4.713.019h0c.3.209.14.519.141.774.012,3.829-.008,7.658.024,11.486m-.017,7.91c.007.408-.132.551-.539.543-1.441-.028-2.883-.031-4.324-.043-2.543.162-2.543.162-2.543-2.334s0-2.5,2.543-2.334c1.442-.012,2.883-.016,4.324-.043.407-.009.546.136.539.543q-.03,1.835,0,3.668m-5.981-27c.373,0,.746.02,1.118.031,1.439-.011,2.879-.012,4.318-.039.4-.008.556.115.545.532q-.036,1.454,0,2.911c.011.427-.173.528-.559.522-1.376-.025-2.753-.026-4.13-.036-.867.026-1.956.366-2.534-.115-.556-.461-.157-1.577-.175-2.4-.033-1.4-.009-1.406,1.417-1.4M58.722,7.025c.684.029,1.37.026,2.056.037,1.408-.011,2.817-.007,4.224-.04.446-.011.608.122.594.58q-.044,1.408,0,2.817c.013.466-.174.582-.608.572-1.345-.031-2.691-.028-4.037-.038-.748.01-1.5.006-2.242.036-.408.016-.546-.139-.537-.542.02-.966.022-1.933,0-2.9-.01-.421.163-.539.551-.523M58.9,13.8c.622.054,1.25.033,1.876.044,1.408-.012,2.814-.019,4.221-.037.344,0,.6.008.594.478-.058,4.186.095,8.374-.084,12.56-.136.264-.385.157-.584.157-2,.006-4.01-.019-6.015.011-.57.009-.747-.151-.743-.734q.036-5.874,0-11.746c0-.581.154-.784.736-.733M65.6,30.415q-.037,1.787,0,3.575c.009.447-.131.6-.588.593-1.409-.036-2.821-.033-4.23-.046-2.6.163-2.6.163-2.6-2.382,0-2.4,0-2.4,2.414-2.319a1.188,1.188,0,0,1,.185.032c1.41-.012,2.821-.01,4.23-.046.457-.012.6.146.588.593m-12.37,4.157c-.374,0-.747-.022-1.121-.033h0c-1.642.1-1.642.1-1.642-1.349,0-1.549,0-1.549,1.642-1.444.873-.012,1.747,0,2.619-.045.5-.025.618.169.636.645.082,2.229.1,2.23-2.133,2.227M52.1,14.546c.867-.016,1.734-.016,2.6-.053.463-.02.7.118.653.622a7.038,7.038,0,0,1-.085,1.568h-.007a27.525,27.525,0,0,1-4.356.108.375.375,0,0,1-.43-.385,1.681,1.681,0,0,1-.01-.188c.025-1.939-.268-1.766,1.635-1.673m-.462,5.074c.153.027.311.029.466.043.879-.014,1.759-.005,2.636-.051.528-.027.619.216.617.673-.015,2.64-.02,5.28,0,7.919.005.545-.18.713-.706.685-.846-.046-1.694-.035-2.542-.048a1.174,1.174,0,0,1-.185.033c-1.785.026-1.441.091-1.455-1.426-.021-2.224.05-4.452-.031-6.673-.036-.98.264-1.319,1.2-1.153M47.6,33.478c.061.342.43,1.1-.5,1.093-.908-.007-1.815-.022-2.724-.035-1.573.1-1.573.1-1.573-1.441,0-1.449,0-1.449,1.573-1.347a16.332,16.332,0,0,1,2.718-.009c1.129.177.4,1.146.508,1.739m-3.086-4.631c-1.714.1-1.714.1-1.714-1.607V21.121c0-1.568,0-1.568,1.572-1.456.909-.015,1.819-.019,2.728-.049.411-.013.545.16.544.556-.01,2.7-.015,5.4,0,8.1,0,.529-.233.63-.687.612C46.15,28.853,45.334,28.858,44.518,28.847Zm-.146-14.3c.9-.016,1.8-.026,2.705-.053.379-.012.6.11.566.527a5.728,5.728,0,0,1-.1,1.663h-.007a28.351,28.351,0,0,1-4.346.1c-.274.009-.377-.171-.381-.422,0-.125,0-.25-.006-.374-.035-1.563-.036-1.563,1.57-1.441M39.78,22.519l.185.043c0,3.24.011,6.48-.009,9.721,0,.743.336,1.725-.157,2.159-.415.364-1.372.122-2.089.13-.87.01-1.74,0-2.728,0l4.8-12.055m-5.315-7.546c.6-1.356.563-1.374,2.131-.6.787.3,1.566.623,2.364.888.485.161.515.375.345.828-.576,1.539-.557,1.549-2.054.951-.522-.208-1.04-.427-1.56-.642a5.5,5.5,0,0,0-.7-.255c-.713-.158-.829-.486-.526-1.166M30.217,25.706q1.182-2.967,2.363-5.936c.565-1.419.565-1.419,1.99-.691a.688.688,0,0,1,.186.022c.922.381,2.23.529,2.65,1.217.4.661-.517,1.744-.855,2.639-.663,1.757-1.391,3.489-2.067,5.242-.182.474-.377.648-.891.4-.786-.38-1.606-.691-2.411-1.03h0c-1.525-.457-1.525-.457-.965-1.863m-2.092,5.263c.542-1.368.542-1.368,2.24-.579.321.115.645.222.961.348,1.852.736,1.814.723,1.14,2.575-.273.752-.59.856-1.263.5s-1.415-.619-2.126-.923c-1.532-.46-1.532-.46-.953-1.921M12.3,14.543c.407-.015.814-.042,1.221-.043,2.164,0,2.164,0,1.941,2.179H15.45A28.635,28.635,0,0,1,11,16.789a.322.322,0,0,1-.367-.332c0-.062-.007-.125-.006-.188.036-2.056-.309-1.788,1.67-1.726m-.557,5.076a5.2,5.2,0,0,0,.561.04c1.031-.058,2.342-.429,3.012.112.646.522.177,1.883.2,2.874.033,1.849-.007,3.7.02,5.55.008.525-.136.727-.682.694-.844-.05-1.691-.035-2.537-.047-1.682.111-1.682.111-1.682-1.526,0-2.2.05-4.394-.024-6.587-.03-.919.233-1.269,1.136-1.109M12.3,34.54c-1.678.093-1.678.093-1.678-1.3,0-1.59,0-1.59,1.677-1.492.376-.012.752-.033,1.129-.033,2.12,0,2.1,0,2.1,2.09,0,.61-.155.83-.781.784-.812-.06-1.631-.034-2.446-.045m-.746,2.834q18.383.029,36.766.014V37.4q18.337,0,36.672-.018c.8,0,1.139.151,1.05,1.02a13.813,13.813,0,0,0,0,2.448c.058.767-.167,1.052-.979,1.022-1.57-.059-3.142-.007-4.713-.007H11.814c-1.2,0-1.2,0-1.2-1.221,0-.785.057-1.576-.016-2.355s.256-.917.96-.916M2.883,4.328c0-1.446,0-1.448,1.422-1.444.345,0,.69.019,1.035.029C7.8,2.785,7.8,2.785,7.8,5.168V92.421c0,1.344,0,1.346-1.33,1.342-.376,0-.753-.019-1.129-.03-2.456.129-2.456.129-2.456-2.262Z" transform="translate(-0.012 -0.012)"/>
        <path id="Trazado_142281" data-name="Trazado 142281" d="M.985.042Q-.2-.2.043.984A1.17,1.17,0,0,1,.985.042" transform="translate(0 0)" fill="#ececec"/>
        <path id="Trazado_142282" data-name="Trazado 142282" d="M.054,1,1,.055A1.17,1.17,0,0,0,.054,1" transform="translate(-0.012 -0.012)" fill="#ececec"/>
        <path id="Trazado_142283" data-name="Trazado 142283" d="M73.914,107.577c3.5-.027,7.006-.041,10.508.005h.052l0-3.78H84.4a8.48,8.48,0,0,1-1.131.027q-33.641,0-67.281,0c-1.911,0-1.911,0-1.91,1.9,0,1.823,0,1.825,1.8,1.825H65.25c.471,0,.943-.018,1.413.025a1.757,1.757,0,0,1,1.82,1.719,5.46,5.46,0,0,1,3.347,0c.158-1.2.732-1.712,2.084-1.723" transform="translate(-3.165 -23.347)" fill="#bb7c63"/>
        <path id="Trazado_142284" data-name="Trazado 142284" d="M68.395,109.2a1.757,1.757,0,0,0-1.82-1.719c-.47-.043-.942-.024-1.413-.024H15.784c-1.8,0-1.8,0-1.8-1.825,0-1.9,0-1.9,1.91-1.9H83.177a8.485,8.485,0,0,0,1.131-.027h.082c0-.095,0-.189,0-.283-.344-.017-.688-.048-1.032-.048q-34.261,0-68.523,0a3.81,3.81,0,0,1-.47,0c-.55-.07-.7.186-.683.705.034.815,0,1.633.011,2.45.019,1.435-.2,1.234,1.251,1.234q25.589.008,51.179,0c1.449,0,1.819.271,2.065,1.491.069-.024.137-.033.206-.054" transform="translate(-3.077 -23.246)" fill="#bb7c63"/>
        <path id="Trazado_142285" data-name="Trazado 142285" d="M101.181,108.671c-3.5-.047-7-.033-10.508-.005-1.353.011-1.926.526-2.084,1.724.064.019.127.027.191.05.23-1.146.615-1.483,1.768-1.488q5.342-.028,10.685-.038c0-.081,0-.161,0-.243h-.052" transform="translate(-19.925 -24.435)" fill="#bb7c63"/>
        <path id="Trazado_142286" data-name="Trazado 142286" d="M84.272,110.816c0,.016.007.029.009.044l0,.01h3.333c0-.018.005-.033.008-.05a5.46,5.46,0,0,0-3.347,0" transform="translate(-18.954 -24.866)" fill="#bb7c63"/>
        <path id="Trazado_142287" data-name="Trazado 142287" d="M88.588,110.9c0,.017-.005.033-.008.05h.2c-.064-.022-.127-.03-.191-.05" transform="translate(-19.923 -24.943)" fill="#bb7c63"/>
        <path id="Trazado_142288" data-name="Trazado 142288" d="M84.212,110.892c-.069.022-.137.03-.206.054h.212l0-.01c0-.015-.007-.029-.009-.044" transform="translate(-18.894 -24.942)" fill="#bb7c63"/>
        <path id="Trazado_142289" data-name="Trazado 142289" d="M119.981,12.139c-.045-2.152-.011-4.306-.016-6.459,0-1.59,0-1.592-1.583-1.6-.191,0-.381-.015-.573-.014v90.32c2.139-.1,2.14-.105,2.14-2.243q0-35.655,0-71.311c0-.5-.021-1.005.026-1.506a1.75,1.75,0,0,1,1.714-1.805,5.508,5.508,0,0,1,0-3.344c-1.189-.182-1.687-.736-1.714-2.037" transform="translate(-26.497 -0.914)" fill="#bb7c63"/>
        <path id="Trazado_142290" data-name="Trazado 142290" d="M118.382,3.993c1.582.01,1.58.011,1.584,1.6,0,2.153-.03,4.306.015,6.459.028,1.3.525,1.855,1.714,2.037.02-.065.028-.129.05-.195-1.145-.22-1.484-.612-1.487-1.776-.008-2.042,0-4.083,0-6.125,0-2.39,0-2.39-2.447-2.266v.25c.191,0,.382.012.573.014" transform="translate(-26.497 -0.829)" fill="#bb7c63"/>
        <path id="Trazado_142291" data-name="Trazado 142291" d="M121.69,21.424a1.749,1.749,0,0,0-1.714,1.8c-.047.5-.026,1-.026,1.507v71.31c0,2.138,0,2.145-2.14,2.244v.251c.313.01.627.028.94.029,1.506,0,1.506,0,1.506-1.542V23.7c0-1.456.261-1.815,1.488-2.065h0c-.023-.069-.033-.138-.053-.207" transform="translate(-26.498 -4.819)" fill="#bb7c63"/>
        <path id="Trazado_142292" data-name="Trazado 142292" d="M122.741,20.454c.017,0,.03-.007.047-.009a30.929,30.929,0,0,1,0-3.327l-.044-.008a5.5,5.5,0,0,0-.005,3.344" transform="translate(-27.549 -3.848)" fill="#bb7c63"/>
        <path id="Trazado_142293" data-name="Trazado 142293" d="M122.869,21.628h0c0-.072,0-.144-.006-.216-.017,0-.031.006-.047.009.021.069.029.138.053.207" transform="translate(-27.623 -4.816)" fill="#bb7c63"/>
        <path id="Trazado_142294" data-name="Trazado 142294" d="M122.823,17.054l.045.009c0-.067,0-.135.006-.2-.023.064-.031.129-.051.194" transform="translate(-27.625 -3.792)" fill="#bb7c63"/>
        <path id="Trazado_142295" data-name="Trazado 142295" d="M6.159,94.554V3.734c-.345-.011-.69-.028-1.035-.029C3.7,3.7,3.7,3.7,3.7,5.15V92.291c0,2.391,0,2.391,2.456,2.262" transform="translate(-0.833 -0.833)" fill="#a96a51"/>
        <path id="Trazado_142296" data-name="Trazado 142296" d="M7.177,8.465q0,42.089-.008,84.178c0,.643.172,1.33-.3,1.907.376.011.753.029,1.129.03,1.331,0,1.331,0,1.331-1.342V5.986c0-2.383,0-2.383-2.459-2.255a1.643,1.643,0,0,1,.3,1.247c.015,1.163.005,2.325.005,3.488" transform="translate(-1.546 -0.829)" fill="#bb7c63"/>
        <path id="Trazado_142297" data-name="Trazado 142297" d="M7.17,92.656q.013-42.089.008-84.178c0-1.163.009-2.325-.005-3.488a1.643,1.643,0,0,0-.3-1.247v90.82c.468-.577.3-1.265.3-1.907" transform="translate(-1.546 -0.842)" fill="#bb7c63"/>
        <path id="Trazado_142298" data-name="Trazado 142298" d="M116.871,92.733q0-43.507.008-87.014a3.461,3.461,0,0,1,.143-1.652c-1.982.1-1.986.124-1.986,2.147q0,43,0,86c0,2.014.006,2.067,1.971,2.162a1.885,1.885,0,0,1-.126-.7c-.016-.314-.01-.629-.01-.943" transform="translate(-25.873 -0.915)" fill="#a86950"/>
        <path id="Trazado_142299" data-name="Trazado 142299" d="M114.944,92.134v-86c0-2.023,0-2.051,1.986-2.147a1.359,1.359,0,0,1,.164-.252c-.377-.01-.753-.028-1.129-.029-1.339,0-1.339,0-1.339,1.342v87.16c0,2.477,0,2.477,2.469,2.348a.8.8,0,0,1-.178-.258c-1.966-.095-1.972-.149-1.972-2.162" transform="translate(-25.781 -0.833)" fill="#a86950"/>
        <path id="Trazado_142300" data-name="Trazado 142300" d="M117.629,4.062l-.081,0a3.475,3.475,0,0,0-.143,1.652q-.013,43.505-.007,87.014c0,.314-.006.628.01.942a1.882,1.882,0,0,0,.126.7l.162.008h.016V4.064c-.028,0-.055,0-.083,0" transform="translate(-26.4 -0.914)" fill="#a86950"/>
        <path id="Trazado_142301" data-name="Trazado 142301" d="M117.679,3.99c.028,0,.055,0,.083,0v-.25a1.31,1.31,0,0,0-.164.251l.081,0" transform="translate(-26.45 -0.842)" fill="#a86950"/>
        <path id="Trazado_142302" data-name="Trazado 142302" d="M117.741,120.593l-.161-.008a.81.81,0,0,0,.178.258v-.251h-.017" transform="translate(-26.446 -27.122)" fill="#a86950"/>
        <path id="Trazado_142303" data-name="Trazado 142303" d="M24.532,73.023c-.718-.026-.9.222-.893.912.029,4.037.014,8.074.014,12.111h0c1.346.018,2.694.006,4.039.067.654.03.846-.171.84-.833-.03-3.856-.012-7.713-.019-11.57,0-.233.112-.505-.133-.7-1.283.009-2.567.057-3.848.01" transform="translate(-5.317 -16.422)" fill="#fde87c"/>
        <path id="Trazado_142304" data-name="Trazado 142304" d="M84.5,34.622Z" transform="translate(-19.006 -7.787)" fill="#fde87c"/>
        <path id="Trazado_142305" data-name="Trazado 142305" d="M78.372,29.841c-.008.781.218,1.033,1,1,1.248-.056,2.5-.005,3.751,0,.179-4.185.026-8.373.084-12.56.007-.47-.25-.483-.594-.478-1.407.019-2.814.026-4.221.037,0,4,.018,8-.019,12" transform="translate(-17.627 -4.003)" fill="#fde87c"/>
        <path id="Trazado_142306" data-name="Trazado 142306" d="M37.909,73.026c-.71-.028-.9.208-.9.907.029,4.041.013,8.082.012,12.122,1.346.016,2.693.011,4.038.06.536.019.694-.151.684-.685-.032-1.66,0-3.321-.013-4.983-.015-2.473-.042-4.945-.064-7.418-1.253,0-2.507.047-3.758,0" transform="translate(-8.324 -16.424)" fill="#fde87c"/>
        <path id="Trazado_142307" data-name="Trazado 142307" d="M91.512,29.877c-.006.738.195,1.008.95.956a19.287,19.287,0,0,1,2.727,0c.814.061,1.074-.179,1.065-1.032-.043-3.982-.013-7.965-.01-11.947h0c-1.571-.1-3.142-.066-4.714-.019,0,4.014.015,8.028-.019,12.042" transform="translate(-20.583 -4.001)" fill="#fde87c"/>
        <path id="Trazado_142308" data-name="Trazado 142308" d="M51.156,73.024c-.773-.036-1.018.193-1.01.989.038,4.013.016,8.027.016,12.04,1.379.016,2.759.009,4.137.061.546.021.6-.226.6-.667-.016-1.789,0-3.579-.009-5.367-.014-2.352-.043-4.7-.064-7.053-1.223,0-2.448.054-3.668,0" transform="translate(-11.279 -16.424)" fill="#fde87c"/>
        <path id="Trazado_142309" data-name="Trazado 142309" d="M64.394,73.022c-.841-.044-1.126.182-1.115,1.078.05,3.983.021,7.967.021,11.95,1.311.017,2.624,0,3.934.066.652.032.841-.154.834-.82-.036-3.189-.005-6.378-.023-9.567a13.432,13.432,0,0,0-.076-2.705c-1.192.005-2.386.06-3.575,0" transform="translate(-14.233 -16.423)" fill="#fde87c"/>
        <path id="Trazado_142310" data-name="Trazado 142310" d="M104.883,29.9c-.007.756.222,1,.962.947a17.267,17.267,0,0,1,2.541,0c.817.065,1.076-.185,1.067-1.036-.045-3.986-.018-7.972-.016-11.96l-4.535-.007c0,4.018.018,8.036-.018,12.053" transform="translate(-23.59 -4.014)" fill="#fde87c"/>
        <path id="Trazado_142311" data-name="Trazado 142311" d="M13.67,51.476c0,1.219,0,1.22,1.2,1.22H83.407c1.571,0,3.144-.052,4.713.007.812.03,1.038-.255.98-1.022a13.8,13.8,0,0,1,0-2.448c.089-.87-.248-1.022-1.05-1.021q-18.336.038-36.672.018v-.012Q33,48.218,14.614,48.2c-.7,0-1.034.126-.96.916s.016,1.57.016,2.355m.173-.045a15.587,15.587,0,0,0,.008-2.259c-.025-.557.15-.838.743-.769a4.9,4.9,0,0,0,.565,0H83.1c1.281,0,1.311,0,1.272,1.256-.029.929.413,2.116-.2,2.713-.571.552-1.739.16-2.641.162q-16.255.016-32.509.007-17.008,0-34.017.019c-.889,0-1.251-.2-1.155-1.132" transform="translate(-3.069 -10.842)" fill="#a96950"/>
        <path id="Trazado_142312" data-name="Trazado 142312" d="M18.471,81.761h0c1.224.244,1.482.6,1.491,2.038.016,2.441.016,2.441,2.53,2.207a1.613,1.613,0,0,1-.307-1.15c-.009-3.565-.016-7.132,0-10.7.006-1.19.1-1.277,1.289-1.256a32.4,32.4,0,0,1,3.741.07c-2.275-.27-4.557-.049-6.836-.108-.417-.011-.42.281-.42.578,0,.879.006,1.758,0,2.637-.011,1.277-.231,1.576-1.429,1.973h0a4.858,4.858,0,0,1-.06,3.706" transform="translate(-4.154 -16.382)" fill="#fed05b"/>
        <path id="Trazado_142313" data-name="Trazado 142313" d="M18.47,83.275h0a4.864,4.864,0,0,0,.059-3.707q-.029,1.853-.06,3.707" transform="translate(-4.154 -17.896)" fill="#fed05b"/>
        <path id="Trazado_142314" data-name="Trazado 142314" d="M24.551,72.916c-1.186-.02-1.282.066-1.288,1.256-.019,3.566-.012,7.132,0,10.7a1.607,1.607,0,0,0,.307,1.15c0-4.037.015-8.075-.015-12.112-.005-.689.176-.939.893-.912,1.28.047,2.565,0,3.848-.01a32.763,32.763,0,0,0-3.742-.07" transform="translate(-5.229 -16.396)" fill="#fed05b"/>
        <path id="Trazado_142315" data-name="Trazado 142315" d="M87.16,92.089Q85.18,87.076,83.2,82.064l-.167.025c0,4.336.006,8.672-.009,13.007,0,.474.109.668.623.657,1.445-.03,2.89-.023,4.336,0,.514.007.584-.145.388-.6-.429-1.008-.808-2.037-1.21-3.056" transform="translate(-18.673 -18.458)" fill="#fdfdfd"/>
        <path id="Trazado_142316" data-name="Trazado 142316" d="M102.2,31c1.945-.025,3.892-.038,5.837.013.69.018.815-.22.812-.852-.028-3.86-.011-7.721-.023-11.581,0-.246.165-.56-.166-.744a3.79,3.79,0,0,1,.078,1.4c.01,3.61-.008,7.22.019,10.829,0,.639-.147.894-.831.857a29.455,29.455,0,0,0-3.107,0c-.71.037-.97-.274-.986-.92-.032-1.287-.012-2.574-.014-3.861,0-2.323-.007-4.646,0-6.969a1.781,1.781,0,0,1,.3-1.341c-.69-.01-1.381.008-2.069-.04-.515-.036-.621.171-.619.646.016,3.954.024,7.908-.006,11.863,0,.627.235.709.77.7" transform="translate(-22.814 -4.001)" fill="#fed05b"/>
        <path id="Trazado_142317" data-name="Trazado 142317" d="M104.516,19.185c-.011,2.323-.007,4.646,0,6.969,0,1.287-.018,2.574.014,3.861.016.646.276.956.986.92a29.456,29.456,0,0,1,3.107,0c.684.036.836-.219.831-.857-.027-3.61-.009-7.22-.019-10.83a3.785,3.785,0,0,0-.078-1.4c0,3.986-.029,7.973.015,11.96.01.852-.249,1.1-1.067,1.036a17.267,17.267,0,0,0-2.541,0c-.739.05-.968-.191-.962-.946.036-4.018.018-8.036.019-12.054a1.78,1.78,0,0,0-.3,1.34" transform="translate(-23.506 -4.014)" fill="#fed05b"/>
        <path id="Trazado_142318" data-name="Trazado 142318" d="M95.507,17.855a2.888,2.888,0,0,1,.081,1.207c.009,3.64-.015,7.28.021,10.919.008.733-.178.994-.936.945a23.706,23.706,0,0,0-3.1,0c-.807.053-1.075-.291-1.081-1.023-.012-1.349-.005-2.7-.007-4.047,0-2.228-.007-4.455,0-6.683a1.744,1.744,0,0,1,.309-1.336c-.626-.012-1.256.007-1.88-.044-.551-.046-.677.169-.675.691.02,3.923.027,7.846-.005,11.769-.005.674.266.756.828.75,1.914-.024,3.83-.043,5.743.016.735.022.875-.222.87-.9-.033-3.829-.012-7.658-.024-11.487,0-.254.157-.563-.142-.773" transform="translate(-19.845 -4)" fill="#fed05b"/>
        <path id="Trazado_142319" data-name="Trazado 142319" d="M91.135,19.185c-.012,2.228-.006,4.455,0,6.683,0,1.349-.006,2.7.006,4.047.007.732.275,1.077,1.081,1.023a23.718,23.718,0,0,1,3.1,0c.758.049.943-.212.936-.944-.036-3.64-.012-7.28-.021-10.919a2.89,2.89,0,0,0-.081-1.208h0c0,3.982-.033,7.966.01,11.947.009.853-.251,1.094-1.065,1.032a19.287,19.287,0,0,0-2.727,0c-.756.051-.956-.219-.95-.956.034-4.013.018-8.028.019-12.042a1.742,1.742,0,0,0-.309,1.336" transform="translate(-20.496 -4.015)" fill="#fed05b"/>
        <path id="Trazado_142320" data-name="Trazado 142320" d="M75.771,31c2-.029,4.01,0,6.015-.011.2,0,.447.106.584-.157-1.439.163-2.882.024-4.322.075-.45.015-.605-.245-.67-.625a5.6,5.6,0,0,1-.049-.939q0-5.04,0-10.08a1.888,1.888,0,0,1,.308-1.432c-.625-.012-1.254.01-1.876-.044-.581-.05-.739.153-.736.733q.038,5.872,0,11.746c0,.583.172.743.743.734" transform="translate(-16.875 -3.999)" fill="#fdd05a"/>
        <path id="Trazado_142321" data-name="Trazado 142321" d="M84.5,34.622" transform="translate(-19.006 -7.787)" fill="#fdd05a"/>
        <path id="Trazado_142322" data-name="Trazado 142322" d="M78,19.28q-.014,5.04,0,10.08a5.681,5.681,0,0,0,.05.939c.064.38.219.64.67.625,1.44-.051,2.884.088,4.323-.075-1.251-.005-2.5-.057-3.751,0-.782.036-1.006-.217-1-1,.038-4,.019-8,.019-12A1.89,1.89,0,0,0,78,19.28" transform="translate(-17.542 -4.014)" fill="#fdd05a"/>
        <path id="Trazado_142323" data-name="Trazado 142323" d="M62.242,74.236c.005-1.263.095-1.353,1.318-1.328a26.449,26.449,0,0,1,3.651.081c-.077-.043-.153-.122-.229-.122-2.16,0-4.321.019-6.481-.012-.65-.009-.59.361-.59.781q.007,5.026,0,10.05c0,2.555,0,2.555,2.628,2.328a1.765,1.765,0,0,1-.3-1.249c-.006-3.51-.012-7.02,0-10.529" transform="translate(-13.475 -16.386)" fill="#fed05b"/>
        <path id="Trazado_142324" data-name="Trazado 142324" d="M63.2,74.073c-.012-.9.274-1.122,1.115-1.078,1.189.063,2.383.008,3.575,0a26.7,26.7,0,0,0-3.651-.081c-1.224-.025-1.313.065-1.318,1.328-.015,3.51-.009,7.019,0,10.529a1.763,1.763,0,0,0,.3,1.249c0-3.983.029-7.967-.021-11.95" transform="translate(-14.149 -16.395)" fill="#fed05b"/>
        <path id="Trazado_142325" data-name="Trazado 142325" d="M46.748,83.605c0,2.628,0,2.628,2.645,2.407a1.778,1.778,0,0,1-.3-1.25c-.005-3.507-.012-7.016,0-10.524.005-1.285.084-1.361,1.405-1.334a24.294,24.294,0,0,1,3.555.081c-.161-.228-.4-.126-.6-.126-1.976-.005-3.952.023-5.928-.009-.608-.011-.8.15-.791.781.033,3.325.015,6.649.015,9.974" transform="translate(-10.511 -16.382)" fill="#fed05b"/>
        <path id="Trazado_142326" data-name="Trazado 142326" d="M51.185,72.917c-1.322-.028-1.4.049-1.405,1.333-.015,3.508-.009,7.016,0,10.525a1.778,1.778,0,0,0,.3,1.249c0-4.013.022-8.028-.016-12.04-.007-.8.238-1.025,1.011-.989,1.22.056,2.445.007,3.668,0a24.189,24.189,0,0,0-3.555-.081" transform="translate(-11.194 -16.394)" fill="#fed05b"/>
        <path id="Trazado_142327" data-name="Trazado 142327" d="M34.184,86.076c.686-.052,1.377-.04,2.066-.057a1.783,1.783,0,0,1-.3-1.249c-.006-3.506-.012-7.011,0-10.516.005-1.294.082-1.372,1.39-1.344a23.7,23.7,0,0,1,3.55.082c-.046-.039-.091-.111-.138-.111-2.228-.008-4.456,0-6.684-.019-.553,0-.492.343-.492.69,0,3.954.005,7.908-.009,11.862,0,.46.082.7.612.661" transform="translate(-7.551 -16.388)" fill="#fed05b"/>
        <path id="Trazado_142328" data-name="Trazado 142328" d="M38.033,72.917c-1.308-.028-1.385.05-1.39,1.344-.014,3.5-.008,7.01,0,10.516a1.787,1.787,0,0,0,.3,1.249c0-4.041.017-8.082-.012-12.122-.005-.7.189-.935.9-.907,1.251.05,2.505.007,3.758,0a23.716,23.716,0,0,0-3.551-.082" transform="translate(-8.24 -16.394)" fill="#fed05b"/>
        <path id="Trazado_142329" data-name="Trazado 142329" d="M47.846,41.091c.717-.009,1.674.234,2.089-.13.494-.433.153-1.416.157-2.159.019-3.241.009-6.48.009-9.721l-.185-.043c-1.585,3.983-3.17,7.966-4.8,12.055.988,0,1.859.008,2.728,0" transform="translate(-10.148 -6.531)" fill="#fdfdfd"/>
        <path id="Trazado_142330" data-name="Trazado 142330" d="M92.071,88.7h0c.846-.312,1.683-.65,2.54-.925.524-.169.566-.407.37-.887q-1.479-3.64-2.892-7.307c-.191-.5-.37-.7-.918-.434-.758.364-1.555.646-2.335.964q1.5,3.892,3,7.786c.1.26.157.536.235.8" transform="translate(-19.981 -17.775)" fill="#528ed7"/>
        <path id="Trazado_142331" data-name="Trazado 142331" d="M40.215,33.09c.805.34,1.625.65,2.411,1.031.514.249.709.074.891-.4.676-1.752,1.4-3.484,2.067-5.241.338-.9,1.257-1.979.855-2.64-.42-.688-1.728-.836-2.65-1.217A.688.688,0,0,0,43.6,24.6Q41.91,28.846,40.215,33.09Z" transform="translate(-9.045 -5.533)" fill="#528ed7"/>
        <path id="Trazado_142332" data-name="Trazado 142332" d="M75.231,80.36q0,4.585-.005,9.172c.815.014,1.631-.005,2.442.05.6.041.811-.143.8-.774-.041-1.818.012-3.637-.025-5.456-.019-.987.456-2.332-.2-2.869-.675-.553-1.978-.169-3.007-.123" transform="translate(-16.92 -18.036)" fill="#528ed7"/>
        <path id="Trazado_142333" data-name="Trazado 142333" d="M18.4,34.528c.546.033.691-.17.683-.694-.028-1.85.012-3.7-.021-5.55-.018-.991.451-2.352-.2-2.874-.669-.541-1.98-.171-3.011-.112q0,4.591.009,9.182c.846.012,1.693,0,2.536.047" transform="translate(-3.566 -5.65)" fill="#528ed7"/>
        <path id="Trazado_142334" data-name="Trazado 142334" d="M67.212,34.516c.848.013,1.7,0,2.542.047.526.029.712-.14.706-.684-.023-2.64-.018-5.28,0-7.919,0-.457-.09-.7-.617-.673-.877.045-1.757.036-2.636.05q0,4.59.008,9.179" transform="translate(-15.115 -5.687)" fill="#528ed7"/>
        <path id="Trazado_142335" data-name="Trazado 142335" d="M60.512,33.951c-.019-2.7-.014-5.4,0-8.1,0-.4-.133-.57-.544-.556-.908.029-1.818.034-2.728.049q0,4.087,0,8.172a1.93,1.93,0,0,0,.145,1.008c.815.012,1.632.007,2.446.04.454.018.691-.084.688-.612" transform="translate(-12.872 -5.689)" fill="#528ed7"/>
        <path id="Trazado_142336" data-name="Trazado 142336" d="M95.86,38.464c-1.441.028-2.883.031-4.324.044v4.667c1.442.012,2.883.016,4.324.043.407.009.546-.136.539-.543q-.03-1.835,0-3.668c.007-.408-.132-.551-.539-.543" transform="translate(-20.588 -8.651)" fill="#fde87c"/>
        <path id="Trazado_142337" data-name="Trazado 142337" d="M82.627,38.46c-1.41.036-2.821.033-4.231.046v4.669c1.411.013,2.821.009,4.231.046.457.012.6-.146.588-.592q-.037-1.788,0-3.575c.009-.447-.132-.6-.588-.593" transform="translate(-17.633 -8.65)" fill="#fce87c"/>
        <path id="Trazado_142338" data-name="Trazado 142338" d="M104.906,38.5v4.675c1.379.012,2.758.007,4.137.043.46.012.585-.151.576-.593q-.04-1.786,0-3.574c.009-.443-.115-.605-.576-.593-1.379.036-2.758.031-4.137.043" transform="translate(-23.595 -8.65)" fill="#fde87c"/>
        <path id="Trazado_142339" data-name="Trazado 142339" d="M29.757,99.572h0" transform="translate(-6.692 -22.396)" fill="#fce77c"/>
        <path id="Trazado_142340" data-name="Trazado 142340" d="M28.382,93.69c-1.314.009-2.628.046-3.941.014-.622-.015-.823.2-.8.812.041.968.041,1.941,0,2.909-.025.609.177.826.8.812,1.313-.032,2.628,0,3.941.014a15.344,15.344,0,0,0,0-4.56" transform="translate(-5.317 -21.073)" fill="#fce77c"/>
        <path id="Trazado_142341" data-name="Trazado 142341" d="M41.67,93.708c-1.316,0-2.631.026-3.947,0-.532-.009-.719.185-.705.712q.043,1.55,0,3.1c-.014.527.174.72.705.712,1.315-.022,2.631,0,3.947,0a32.243,32.243,0,0,0,0-4.53" transform="translate(-8.326 -21.077)" fill="#fce77c"/>
        <path id="Trazado_142342" data-name="Trazado 142342" d="M43.02,99.553Z" transform="translate(-9.676 -22.391)" fill="#fce77c"/>
        <path id="Trazado_142343" data-name="Trazado 142343" d="M54.826,93.706c-1.319,0-2.638.026-3.958.005-.527-.009-.726.174-.712.707q.043,1.553,0,3.109c-.015.534.184.716.712.708,1.318-.022,2.638,0,3.957,0a31.834,31.834,0,0,0,0-4.533" transform="translate(-11.281 -21.076)" fill="#fce77c"/>
        <path id="Trazado_142344" data-name="Trazado 142344" d="M56.181,99.555h0" transform="translate(-12.636 -22.392)" fill="#fce77c"/>
        <path id="Trazado_142345" data-name="Trazado 142345" d="M69.331,99.556Z" transform="translate(-15.594 -22.392)" fill="#fce77c"/>
        <path id="Trazado_142346" data-name="Trazado 142346" d="M67.972,93.7c-1.28,0-2.562.043-3.841,0-.671-.022-.87.219-.839.862.044.935.044,1.875,0,2.81-.031.643.169.884.839.862,1.279-.043,2.56,0,3.841,0a25.466,25.466,0,0,0,0-4.535" transform="translate(-14.235 -21.076)" fill="#fce77c"/>
        <path id="Trazado_142347" data-name="Trazado 142347" d="M105,107.582c1.143-.026,2.288-.019,3.432-.006.687.008.96-.28.929-.955-.029-.654-.016-1.311-.005-1.966.011-.6-.275-.836-.853-.84-1.163-.006-2.326.014-3.49-.011a6.568,6.568,0,0,1-.012,3.779" transform="translate(-23.616 -23.347)" fill="#a96a51"/>
        <path id="Trazado_142348" data-name="Trazado 142348" d="M108.478,103.718c.578,0,.864.24.854.839-.012.656-.025,1.312,0,1.966.031.676-.243.963-.929.956-1.144-.013-2.289-.021-3.432.006-.025.081-.045.162-.074.243,1.374.012,2.749.01,4.123.041.449.01.6-.15.591-.6-.023-1.062-.02-2.125,0-3.187.008-.431-.129-.624-.586-.613-1.373.031-2.748.034-4.122.049.03.095.053.189.08.284,1.164.025,2.328,0,3.49.011" transform="translate(-23.594 -23.251)" fill="#a96a51"/>
        <path id="Trazado_142349" data-name="Trazado 142349" d="M104.976,107.581a6.568,6.568,0,0,0,.012-3.779h-.081q0,1.89-.005,3.78h.074" transform="translate(-23.594 -23.347)" fill="#a96a51"/>
        <path id="Trazado_142350" data-name="Trazado 142350" d="M104.909,103.72h.081c-.026-.095-.05-.189-.081-.284v.283" transform="translate(-23.596 -23.265)" fill="#a96a51"/>
        <path id="Trazado_142351" data-name="Trazado 142351" d="M104.9,108.679v.243c.028-.081.048-.162.074-.243H104.9" transform="translate(-23.594 -24.444)" fill="#a96a51"/>
        <path id="Trazado_142352" data-name="Trazado 142352" d="M91.7,12.975h0c1.377.01,2.754.012,4.13.036.385.007.569-.095.559-.522q-.035-1.454,0-2.911c.011-.417-.146-.539-.545-.532-1.439.026-2.879.028-4.318.039.088,1.3-.2,2.607.174,3.889" transform="translate(-20.581 -2.035)" fill="#fde87c"/>
        <path id="Trazado_142353" data-name="Trazado 142353" d="M78.563,12.976h0c1.346.01,2.692.006,4.037.037.434.01.622-.105.608-.571-.027-.939-.029-1.88,0-2.817.014-.459-.149-.591-.594-.581-1.408.033-2.817.029-4.225.04.088,1.3-.2,2.609.174,3.892" transform="translate(-17.626 -2.034)" fill="#fce77c"/>
        <path id="Trazado_142354" data-name="Trazado 142354" d="M104.908,12.974c.5.011,1,.05,1.5.026,1.049-.05,2.49.466,3.039-.2.527-.639.146-2.026.165-3.084a.757.757,0,0,1,0-.094c.071-.458-.138-.585-.579-.575-1.374.033-2.75.028-4.125.038q0,1.946,0,3.892" transform="translate(-23.595 -2.034)" fill="#fde87c"/>
        <path id="Trazado_142355" data-name="Trazado 142355" d="M27.982,68.089c.4.009.554-.14.545-.548q-.031-1.411,0-2.824c.009-.407-.146-.558-.547-.55-1.441.031-2.883.044-4.324.064q0,1.9,0,3.8c1.442.018,2.884.029,4.326.059" transform="translate(-5.32 -14.432)" fill="#fde87c"/>
        <path id="Trazado_142356" data-name="Trazado 142356" d="M41.258,64.167c-1.411.029-2.822.04-4.233.058q0,1.906,0,3.811c1.38.016,2.761.026,4.14.052.363.007.59-.045.577-.5-.028-.973-.019-1.947,0-2.921.006-.36-.112-.508-.483-.5" transform="translate(-8.328 -14.432)" fill="#fde87c"/>
        <path id="Trazado_142357" data-name="Trazado 142357" d="M50.166,68.034c1.407.017,2.814.019,4.221.057.436.012.521-.173.513-.556q-.03-1.409,0-2.817c.009-.384-.083-.567-.515-.555-1.406.038-2.814.045-4.22.062q0,1.906,0,3.809" transform="translate(-11.283 -14.431)" fill="#fde87d"/>
        <path id="Trazado_142358" data-name="Trazado 142358" d="M67.538,68.091c.426.011.535-.157.526-.552q-.031-1.411,0-2.824c.009-.395-.106-.562-.529-.551-1.41.037-2.82.045-4.23.064q0,1.9,0,3.806c1.411.017,2.822.022,4.232.058" transform="translate(-14.238 -14.431)" fill="#fde87d"/>
        <path id="Trazado_142359" data-name="Trazado 142359" d="M13.686,32.983c0,1.637,0,1.637,1.683,1.526h0a1.466,1.466,0,0,1-.294-1.15q-.019-3.436,0-6.872a1.65,1.65,0,0,1,.288-1.16,5.168,5.168,0,0,1-.56-.04c-.9-.16-1.167.189-1.136,1.109.073,2.193.023,4.392.023,6.587" transform="translate(-3.072 -5.679)" fill="#0672cc"/>
        <path id="Trazado_142360" data-name="Trazado 142360" d="M15.481,33.382a1.467,1.467,0,0,0,.295,1.15q0-4.591-.009-9.182a1.65,1.65,0,0,0-.288,1.16q-.013,3.436,0,6.872" transform="translate(-3.48 -5.702)" fill="#0672cc"/>
        <path id="Trazado_142361" data-name="Trazado 142361" d="M74.439,88.4q-.014-3.434,0-6.87a1.436,1.436,0,0,1,.3-1.146,5.341,5.341,0,0,1-.559-.043c-.9-.16-1.164.194-1.134,1.108.071,2.187.023,4.376.023,6.564,0,1.649,0,1.649,1.664,1.542a1.58,1.58,0,0,1-.3-1.155" transform="translate(-16.429 -18.062)" fill="#0572cc"/>
        <path id="Trazado_142362" data-name="Trazado 142362" d="M75.143,80.41a1.436,1.436,0,0,0-.3,1.146q-.02,3.437,0,6.871a1.579,1.579,0,0,0,.3,1.154q0-4.585.005-9.172" transform="translate(-16.831 -18.086)" fill="#0572cc"/>
        <path id="Trazado_142363" data-name="Trazado 142363" d="M65.087,33.113c.014,1.518-.33,1.453,1.456,1.426a1.187,1.187,0,0,0,.185-.032h0a1.406,1.406,0,0,1-.307-1.145c-.014-2.293-.011-4.585,0-6.878a1.6,1.6,0,0,1,.3-1.156c-.156-.013-.313-.016-.467-.043-.934-.165-1.234.174-1.2,1.153.082,2.222.011,4.449.031,6.673" transform="translate(-14.632 -5.678)" fill="#0571cb"/>
        <path id="Trazado_142364" data-name="Trazado 142364" d="M66.814,33.387a1.406,1.406,0,0,0,.307,1.145h0q0-4.59-.008-9.179a1.6,1.6,0,0,0-.3,1.156c-.009,2.293-.012,4.585,0,6.878" transform="translate(-15.026 -5.702)" fill="#0571cb"/>
        <path id="Trazado_142365" data-name="Trazado 142365" d="M39.835,32.95h0c-.161-.361.041-.671.162-.979.876-2.23,1.781-4.449,2.67-6.673a1.45,1.45,0,0,1,.556-.836c-1.425-.729-1.425-.729-1.99.69q-1.181,2.968-2.363,5.936c-.56,1.406-.56,1.406.966,1.863" transform="translate(-8.665 -5.394)" fill="#0572cd"/>
        <path id="Trazado_142366" data-name="Trazado 142366" d="M43.03,25.437c-.89,2.224-1.794,4.444-2.67,6.673-.121.308-.323.618-.163.979L43.585,24.6a1.454,1.454,0,0,0-.556.836" transform="translate(-9.028 -5.533)" fill="#0572cd"/>
        <path id="Trazado_142367" data-name="Trazado 142367" d="M91.674,89.015h0a12.7,12.7,0,0,1-1.415-3.151c-.608-1.445-1.147-2.919-1.725-4.377-.133-.337-.369-.683-.094-1.063a4.082,4.082,0,0,1-.531.188c-.879.181-1.025.558-.646,1.425.917,2.1,1.7,4.25,2.537,6.38.5,1.276.5,1.277,1.731.717a.711.711,0,0,0,.144-.119" transform="translate(-19.583 -18.089)" fill="#0572cd"/>
        <path id="Trazado_142368" data-name="Trazado 142368" d="M88.895,81.487c.578,1.458,1.118,2.932,1.725,4.377a12.678,12.678,0,0,0,1.415,3.15c-.077-.268-.136-.543-.235-.8q-1.494-3.895-3-7.786c-.275.381-.04.725.094,1.063" transform="translate(-19.944 -18.089)" fill="#0572cd"/>
        <path id="Trazado_142369" data-name="Trazado 142369" d="M62.909,98.287c-.458.015-.6-.3-.625-.665a22.7,22.7,0,0,1,0-3.374c.026-.364.167-.681.625-.665a42.562,42.562,0,0,1,4.3.084c-.045-.04-.09-.113-.136-.113-2.228-.007-4.457,0-6.687-.015-.47,0-.482.261-.48.606.009,1.193.029,2.386-.008,3.579-.017.54.226.613.676.608,1.632-.015,3.265.019,4.9-.009A3.625,3.625,0,0,0,67.21,98.2a42.335,42.335,0,0,1-4.3.084" transform="translate(-13.472 -21.039)" fill="#fccf5a"/>
        <path id="Trazado_142370" data-name="Trazado 142370" d="M69.331,99.556Z" transform="translate(-15.594 -22.392)" fill="#fccf5a"/>
        <path id="Trazado_142371" data-name="Trazado 142371" d="M64.043,98.211c-.67.022-.87-.219-.839-.862.044-.935.044-1.875,0-2.81-.031-.643.168-.884.839-.862,1.279.043,2.56,0,3.841,0a42.559,42.559,0,0,0-4.3-.084c-.458-.016-.6.3-.626.665a22.908,22.908,0,0,0,0,3.374c.027.364.168.681.626.665a42.562,42.562,0,0,0,4.3-.084c-1.28,0-2.562-.043-3.841,0" transform="translate(-14.146 -21.047)" fill="#fccf5a"/>
        <path id="Trazado_142372" data-name="Trazado 142372" d="M56.182,99.555Z" transform="translate(-12.636 -22.392)" fill="#fdcf5a"/>
        <path id="Trazado_142373" data-name="Trazado 142373" d="M49.762,98.287c-.458.015-.6-.3-.622-.667a23.059,23.059,0,0,1,0-3.369c.026-.363.164-.683.622-.667a41.989,41.989,0,0,1,4.294.084c-.044-.04-.088-.114-.133-.114-2.221-.007-4.443,0-6.664-.017-.531-.005-.516.3-.514.662.008,1.157.032,2.316-.009,3.472-.02.567.208.677.712.663,1.094-.028,2.191.029,3.285-.009a14.5,14.5,0,0,0,3.324-.124,41.993,41.993,0,0,1-4.294.084" transform="translate(-10.511 -21.038)" fill="#fdcf5a"/>
        <path id="Trazado_142374" data-name="Trazado 142374" d="M50.78,98.206c-.527.009-.727-.174-.712-.707q.044-1.554,0-3.11c-.015-.533.184-.715.712-.707,1.318.022,2.638,0,3.957-.005a41.989,41.989,0,0,0-4.294-.084c-.458-.016-.6.3-.622.667a23.059,23.059,0,0,0,0,3.369c.027.363.164.683.622.667a41.77,41.77,0,0,0,4.294-.085h0c-1.319,0-2.639-.026-3.958,0" transform="translate(-11.192 -21.047)" fill="#fdcf5a"/>
        <path id="Trazado_142375" data-name="Trazado 142375" d="M43.021,99.553" transform="translate(-9.676 -22.391)" fill="#fdcf5a"/>
        <path id="Trazado_142376" data-name="Trazado 142376" d="M36.582,98.282c-.463.012-.568-.349-.592-.7a24.53,24.53,0,0,1,0-3.29c.024-.353.129-.713.592-.7a37.913,37.913,0,0,1,4.311.081c-.046-.039-.091-.112-.137-.112-2.22-.008-4.44,0-6.66-.021-.523-.005-.523.29-.521.662.008,1.157.031,2.315-.009,3.471-.019.57.219.677.719.664,1.094-.026,2.19.029,3.283-.009a14.3,14.3,0,0,0,3.326-.126,38.1,38.1,0,0,1-4.311.081" transform="translate(-7.549 -21.038)" fill="#fdcf5a"/>
        <path id="Trazado_142377" data-name="Trazado 142377" d="M37.634,98.205c-.532.009-.719-.184-.705-.712.029-1.032.029-2.068,0-3.1-.014-.527.174-.721.705-.712,1.315.022,2.631,0,3.947,0A38.279,38.279,0,0,0,37.27,93.6c-.463-.012-.568.349-.592.7a24.52,24.52,0,0,0,0,3.289c.024.353.129.714.592.7a38.083,38.083,0,0,0,4.31-.082h0c-1.315,0-2.631-.026-3.947,0" transform="translate(-8.237 -21.046)" fill="#fdcf5a"/>
        <path id="Trazado_142378" data-name="Trazado 142378" d="M56.483,33.452q-.031-3.573,0-7.145a1.338,1.338,0,0,1,.3-.963C55.21,25.23,55.21,25.23,55.21,26.8v6.119c0,1.705,0,1.705,1.714,1.607h0c-.421-.246-.436-.667-.439-1.073" transform="translate(-12.418 -5.691)" fill="#0572cd"/>
        <path id="Trazado_142379" data-name="Trazado 142379" d="M57.144,33.529q0-4.087,0-8.172a1.333,1.333,0,0,0-.3.963q-.023,3.573,0,7.145c0,.407.019.828.439,1.073h0a1.93,1.93,0,0,1-.145-1.008" transform="translate(-12.783 -5.703)" fill="#0572cd"/>
        <path id="Trazado_142380" data-name="Trazado 142380" d="M29.758,99.572" transform="translate(-6.693 -22.395)" fill="#fdcf5a"/>
        <path id="Trazado_142381" data-name="Trazado 142381" d="M23.308,98.282c-.507.018-.658-.308-.685-.712a24.485,24.485,0,0,1,0-3.287c.027-.4.178-.729.685-.712,1.437.05,2.878-.091,4.313.075a32.254,32.254,0,0,0-4.94-.1c-2.318-.015-2.331.01-2.311,2.336.006.776-.336,1.772.144,2.271s1.488.161,2.261.155a31.58,31.58,0,0,0,4.843-.1c-1.434.165-2.874.026-4.31.075" transform="translate(-4.556 -21.03)" fill="#fdcf5a"/>
        <path id="Trazado_142382" data-name="Trazado 142382" d="M24.35,98.211c-.622.015-.824-.2-.8-.812.04-.968.04-1.94,0-2.909-.026-.609.176-.826.8-.812,1.312.032,2.628,0,3.941-.014-1.435-.166-2.876-.026-4.313-.075-.507-.018-.658.308-.685.712a24.485,24.485,0,0,0,0,3.287c.027.4.178.729.685.712,1.436-.049,2.876.091,4.31-.075h0c-1.314-.009-2.628-.046-3.941-.014" transform="translate(-5.227 -21.048)" fill="#fdcf5a"/>
        <path id="Trazado_142383" data-name="Trazado 142383" d="M77.642,38.5a1.4,1.4,0,0,0-.185-.032c-2.414-.08-2.414-.08-2.414,2.32,0,2.544,0,2.544,2.6,2.382a.951.951,0,0,1-.279-.761c.091-1.3-.333-2.644.279-3.909" transform="translate(-16.878 -8.648)" fill="#fdcf5a"/>
        <path id="Trazado_142384" data-name="Trazado 142384" d="M78.019,42.427a.951.951,0,0,0,.279.761v-4.67c-.612,1.265-.188,2.606-.279,3.909" transform="translate(-17.534 -8.663)" fill="#fdcf5a"/>
        <path id="Trazado_142385" data-name="Trazado 142385" d="M103.855,42.415c.089-1.3-.326-2.644.274-3.911-.124-.011-.249-.03-.373-.033-2.306-.034-2.306-.034-2.306,2.229,0,2.631,0,2.631,2.679,2.478a.961.961,0,0,1-.274-.763" transform="translate(-22.818 -8.651)" fill="#fed05b"/>
        <path id="Trazado_142386" data-name="Trazado 142386" d="M104.81,38.516c-.6,1.267-.184,2.607-.274,3.911a.961.961,0,0,0,.274.763Z" transform="translate(-23.499 -8.663)" fill="#fed05b"/>
        <path id="Trazado_142387" data-name="Trazado 142387" d="M90.8,38.5c-2.544-.162-2.544-.162-2.544,2.334s0,2.5,2.544,2.333a.945.945,0,0,1-.281-.76c.091-1.3-.335-2.643.281-3.907" transform="translate(-19.85 -8.647)" fill="#fed05b"/>
        <path id="Trazado_142388" data-name="Trazado 142388" d="M91.157,42.427a.945.945,0,0,0,.281.76V38.52c-.615,1.264-.19,2.605-.281,3.907" transform="translate(-20.489 -8.664)" fill="#fed05b"/>
        <path id="Trazado_142389" data-name="Trazado 142389" d="M75.573,13.012c.746-.03,1.494-.026,2.242-.036-.139-.077-.3-.16-.323-.32a6.286,6.286,0,0,1,.15-3.572c-.685-.011-1.371-.009-2.056-.036-.388-.016-.561.1-.55.523.022.966.02,1.933,0,2.9-.009.4.129.558.538.542" transform="translate(-16.877 -2.035)" fill="#fccf5a"/>
        <path id="Trazado_142390" data-name="Trazado 142390" d="M78.15,12.668c.022.16.184.243.323.32-.377-1.283-.085-2.6-.174-3.892a6.286,6.286,0,0,0-.15,3.572" transform="translate(-17.536 -2.046)" fill="#fccf5a"/>
        <path id="Trazado_142391" data-name="Trazado 142391" d="M104.13,12.976h0a5.572,5.572,0,0,1,0-3.892c-.4-.01-.81-.027-1.215-.028-1.465,0-1.465,0-1.465,1.457,0,2.606,0,2.606,2.68,2.462" transform="translate(-22.818 -2.037)" fill="#fed05b"/>
        <path id="Trazado_142392" data-name="Trazado 142392" d="M104.806,12.985h0q0-1.946,0-3.892a5.572,5.572,0,0,0,0,3.892" transform="translate(-23.494 -2.045)" fill="#fed05b"/>
        <path id="Trazado_142393" data-name="Trazado 142393" d="M36.251,64.227c-.4-.018-.808-.049-1.213-.05-1.455-.006-1.455,0-1.455,1.487,0,2.592,0,2.592,2.669,2.375a5.4,5.4,0,0,1,0-3.811" transform="translate(-7.553 -14.434)" fill="#fed05b"/>
        <path id="Trazado_142394" data-name="Trazado 142394" d="M36.924,64.242a5.4,5.4,0,0,0,0,3.811q0-1.906,0-3.811" transform="translate(-8.227 -14.449)" fill="#fed05b"/>
        <path id="Trazado_142395" data-name="Trazado 142395" d="M49.4,68.034h0a5.361,5.361,0,0,1,0-3.809c-.715-.017-1.43-.019-2.143-.059-.438-.025-.513.188-.507.56q.027,1.4,0,2.8c-.008.377.069.584.508.56.713-.041,1.429-.039,2.144-.056" transform="translate(-10.514 -14.432)" fill="#fed05b"/>
        <path id="Trazado_142396" data-name="Trazado 142396" d="M50.064,68.052h0q0-1.9,0-3.809a5.365,5.365,0,0,0,0,3.809" transform="translate(-11.182 -14.449)" fill="#fed05b"/>
        <path id="Trazado_142397" data-name="Trazado 142397" d="M62.544,68.036a5.315,5.315,0,0,1,0-3.806c-.374-.019-.746-.052-1.12-.053-1.508-.006-1.508,0-1.508,1.533,0,2.554,0,2.554,2.629,2.326" transform="translate(-13.476 -14.434)" fill="#fed05b"/>
        <path id="Trazado_142398" data-name="Trazado 142398" d="M63.2,68.052q0-1.9,0-3.806a5.315,5.315,0,0,0,0,3.806" transform="translate(-14.136 -14.45)" fill="#fed05b"/>
        <path id="Trazado_142399" data-name="Trazado 142399" d="M88.405,12.863c.578.481,1.667.14,2.534.115-.14-.075-.3-.16-.324-.319a6.256,6.256,0,0,1,.151-3.571c-.374-.011-.746-.03-1.119-.031-1.425,0-1.449,0-1.417,1.4.019.826-.38,1.942.175,2.4" transform="translate(-19.817 -2.037)" fill="#fed05b"/>
        <path id="Trazado_142400" data-name="Trazado 142400" d="M91.288,12.668c.022.16.184.243.324.319-.376-1.282-.085-2.594-.173-3.889a6.256,6.256,0,0,0-.151,3.571" transform="translate(-20.491 -2.046)" fill="#fed05b"/>
        <path id="Trazado_142401" data-name="Trazado 142401" d="M97.45,93.6c-.394-.329-1.22.364-1.856.591-.381.136-.747.309-1.121.466a18.037,18.037,0,0,1,.956,2.622h0c.9-.333,1.81-.66,2.71-1,.226-.086.475-.159.311-.523-.332-.735-.451-1.7-1-2.156" transform="translate(-21.249 -21.032)" fill="#518ed6"/>
        <path id="Trazado_142402" data-name="Trazado 142402" d="M37.5,41.693h0c.711.3,1.445.564,2.126.924s.989.25,1.263-.5c.674-1.852.712-1.84-1.141-2.576-.316-.126-.64-.233-.96-.348-.844.62-.808,1.693-1.287,2.5" transform="translate(-8.434 -8.815)" fill="#518ed6"/>
        <path id="Trazado_142403" data-name="Trazado 142403" d="M22.922,64.233c-.31-.02-.619-.055-.929-.057-1.6-.009-1.6-.005-1.6,1.628,0,2.46,0,2.46,2.53,2.227a5.22,5.22,0,0,1,0-3.8" transform="translate(-4.587 -14.434)" fill="#fed05b"/>
        <path id="Trazado_142404" data-name="Trazado 142404" d="M23.553,68.049q0-1.9,0-3.8a5.224,5.224,0,0,0,0,3.8" transform="translate(-5.217 -14.451)" fill="#fed05b"/>
        <path id="Trazado_142405" data-name="Trazado 142405" d="M19.086,42.986c0-2.093.019-2.094-2.1-2.09-.377,0-.753.022-1.129.033q0,1.4,0,2.8c.815.011,1.634-.015,2.446.045.626.046.783-.174.781-.784" transform="translate(-3.567 -9.198)" fill="#528ed7"/>
        <path id="Trazado_142406" data-name="Trazado 142406" d="M69.826,40.882c-.872.043-1.745.033-2.619.045v2.793c.374.012.747.033,1.122.033,2.23,0,2.214,0,2.132-2.227-.017-.476-.135-.67-.636-.645" transform="translate(-15.116 -9.195)" fill="#528ed7"/>
        <path id="Trazado_142407" data-name="Trazado 142407" d="M59.958,40.916a16.331,16.331,0,0,0-2.718.009v2.788c.908.012,1.815.028,2.724.035.932.008.564-.751.5-1.093-.1-.592.62-1.562-.508-1.739" transform="translate(-12.874 -9.189)" fill="#518ed7"/>
        <path id="Trazado_142408" data-name="Trazado 142408" d="M78.387,96.1c-.781.007-1.563.043-2.342.012-.578-.023-.853.119-.835.772.064,2.335-.277,1.84,1.85,1.9.436.012.874.016,1.311.024a10.988,10.988,0,0,0,.016-2.707" transform="translate(-16.916 -21.614)" fill="#518dd5"/>
        <path id="Trazado_142409" data-name="Trazado 142409" d="M79.285,99.59h0l-.007,0h.007" transform="translate(-17.831 -22.399)" fill="#518dd5"/>
        <path id="Trazado_142410" data-name="Trazado 142410" d="M46.032,20.549h0c.52.214,1.038.433,1.56.642,1.5.6,1.478.588,2.055-.952.169-.453.14-.667-.345-.827-.8-.265-1.577-.589-2.364-.888a6.2,6.2,0,0,0-.906,2.025" transform="translate(-10.353 -4.166)" fill="#518ed6"/>
        <path id="Trazado_142411" data-name="Trazado 142411" d="M88.766,75.473c1.52-.6,1.507-.6.872-2.1-.169-.4-.291-.631-.8-.387-.789.38-1.619.674-2.431,1.005l.771,2.063c.529-.191,1.063-.372,1.586-.577" transform="translate(-19.435 -16.392)" fill="#518ed6"/>
        <path id="Trazado_142412" data-name="Trazado 142412" d="M77.859,76.049c.273,0,.526.048.6-.381.277-1.589.048-1.9-1.539-1.894-.563,0-1.128.019-1.691.03l0,2.211c.877.012,1.754.026,2.631.033" transform="translate(-16.92 -16.593)" fill="#528ed7"/>
        <path id="Trazado_142413" data-name="Trazado 142413" d="M17.973,20.851c.346,0,.691.013,1.036.021.223-2.18.223-2.183-1.941-2.179-.407,0-.814.028-1.221.043.027,2.114.027,2.113,2.126,2.115" transform="translate(-3.564 -4.204)" fill="#518dd5"/>
        <path id="Trazado_142414" data-name="Trazado 142414" d="M19.924,21.5h0" transform="translate(-4.48 -4.837)" fill="#518dd5"/>
        <path id="Trazado_142415" data-name="Trazado 142415" d="M59.385,20.851c.339,0,.679.018,1.018.028a5.7,5.7,0,0,0,.1-1.663c.034-.417-.186-.539-.565-.528-.9.026-1.8.036-2.706.053,0,2.107,0,2.106,2.153,2.109" transform="translate(-12.872 -4.203)" fill="#518dd5"/>
        <path id="Trazado_142416" data-name="Trazado 142416" d="M61.321,21.515h0l-.007,0h.007" transform="translate(-13.791 -4.839)" fill="#518dd5"/>
        <path id="Trazado_142417" data-name="Trazado 142417" d="M69.348,20.849c.339,0,.679.015,1.018.024a7.075,7.075,0,0,0,.085-1.567c.05-.5-.189-.642-.653-.622-.866.036-1.733.037-2.6.053.007,2.111.007,2.109,2.149,2.112" transform="translate(-15.114 -4.202)" fill="#518dd5"/>
        <path id="Trazado_142418" data-name="Trazado 142418" d="M71.284,21.509h0l-.007,0h.007" transform="translate(-16.031 -4.838)" fill="#518dd5"/>
        <path id="Trazado_142419" data-name="Trazado 142419" d="M75.141,98.8a.541.541,0,0,1-.627-.439,4.456,4.456,0,0,1,0-1.962.545.545,0,0,1,.639-.423c.908.035,1.819-.067,2.727.055A12.71,12.71,0,0,0,73.422,96c-.856.137-.213,1.3-.35,1.979-.063.309-.2.863.4.856a24.707,24.707,0,0,0,4.382-.088,26.073,26.073,0,0,1-2.718.06" transform="translate(-16.412 -21.551)" fill="#0570c8"/>
        <path id="Trazado_142420" data-name="Trazado 142420" d="M79.288,99.59Z" transform="translate(-17.833 -22.4)" fill="#0570c8"/>
        <path id="Trazado_142421" data-name="Trazado 142421" d="M75.123,96.863c-.018-.653.256-.8.834-.772.78.031,1.562,0,2.343-.012-.908-.121-1.818-.02-2.728-.055a.546.546,0,0,0-.638.424,4.441,4.441,0,0,0,0,1.961.54.54,0,0,0,.627.439,25.856,25.856,0,0,0,2.718-.06l.007,0c-.436-.008-.874-.012-1.311-.024-2.127-.058-1.786.436-1.849-1.9" transform="translate(-16.829 -21.596)" fill="#0570c8"/>
        <path id="Trazado_142422" data-name="Trazado 142422" d="M66.731,40.931c-1.642-.106-1.642-.106-1.642,1.444,0,1.449,0,1.449,1.642,1.349a3.02,3.02,0,0,1,0-2.793" transform="translate(-14.64 -9.197)" fill="#0570c9"/>
        <path id="Trazado_142423" data-name="Trazado 142423" d="M67.109,43.734V40.941a3.022,3.022,0,0,0,0,2.793" transform="translate(-15.017 -9.208)" fill="#0570c9"/>
        <path id="Trazado_142424" data-name="Trazado 142424" d="M15.37,40.929c-1.677-.1-1.677-.1-1.677,1.493,0,1.4,0,1.4,1.678,1.3h0a3.162,3.162,0,0,1,0-2.8" transform="translate(-3.08 -9.198)" fill="#0672cc"/>
        <path id="Trazado_142425" data-name="Trazado 142425" d="M15.763,43.736h0q0-1.4,0-2.8a3.161,3.161,0,0,0,0,2.8" transform="translate(-3.472 -9.208)" fill="#0672cc"/>
        <path id="Trazado_142426" data-name="Trazado 142426" d="M37.12,41.538a3.987,3.987,0,0,1,.808-2.376.335.335,0,0,1,.479-.125c-1.7-.789-1.7-.789-2.24.579-.579,1.461-.579,1.461.953,1.921" transform="translate(-8.054 -8.66)" fill="#0571cb"/>
        <path id="Trazado_142427" data-name="Trazado 142427" d="M38.305,39.3a3.992,3.992,0,0,0-.808,2.376c.481-.808.443-1.88,1.287-2.5a.335.335,0,0,0-.479.125" transform="translate(-8.431 -8.8)" fill="#0571cb"/>
        <path id="Trazado_142428" data-name="Trazado 142428" d="M93.16,96.927a8.048,8.048,0,0,1,.31.774c.127.454.374.508.758.3.267-.145.55-.261.825-.391h0a4.285,4.285,0,0,1-.956-2.622c-1.513.49-1.514.49-.937,1.94" transform="translate(-20.873 -21.364)" fill="#0572cb"/>
        <path id="Trazado_142429" data-name="Trazado 142429" d="M95.427,97.609a18.038,18.038,0,0,0-.956-2.622,4.284,4.284,0,0,0,.956,2.622" transform="translate(-21.248 -21.364)" fill="#0572cb"/>
        <path id="Trazado_142430" data-name="Trazado 142430" d="M13.693,20.462c0,.063,0,.125.006.188a.321.321,0,0,0,.367.331,28.635,28.635,0,0,0,4.451-.108c-.894.128-1.792.015-2.687.06-.489.024-.667-.257-.71-.674a2.04,2.04,0,0,1,.243-1.523c-1.979-.062-1.633-.33-1.67,1.726" transform="translate(-3.079 -4.204)" fill="#0671ca"/>
        <path id="Trazado_142431" data-name="Trazado 142431" d="M19.927,21.5Z" transform="translate(-4.482 -4.837)" fill="#0671ca"/>
        <path id="Trazado_142432" data-name="Trazado 142432" d="M15.524,20.272c.043.416.221.7.71.674.894-.044,1.794.068,2.687-.06h.006c-.345-.008-.69-.02-1.036-.021-2.1,0-2.1,0-2.126-2.115a2.044,2.044,0,0,0-.242,1.524" transform="translate(-3.483 -4.217)" fill="#0671ca"/>
        <path id="Trazado_142433" data-name="Trazado 142433" d="M71.286,21.509Z" transform="translate(-16.033 -4.838)" fill="#056ec6"/>
        <path id="Trazado_142434" data-name="Trazado 142434" d="M65.088,20.41a1.682,1.682,0,0,0,.01.188.376.376,0,0,0,.43.386,27.622,27.622,0,0,0,4.356-.108,16.515,16.515,0,0,1-2.325.049c-.97.012-1.127-.16-1.127-1.129a1.554,1.554,0,0,1,.291-1.058c-1.9-.094-1.611-.267-1.635,1.672" transform="translate(-14.639 -4.203)" fill="#056ec6"/>
        <path id="Trazado_142435" data-name="Trazado 142435" d="M67.95,20.94a16.515,16.515,0,0,0,2.325-.049l.007,0c-.339-.009-.679-.023-1.018-.024-2.142,0-2.142,0-2.149-2.112a1.554,1.554,0,0,0-.291,1.058c0,.969.157,1.141,1.127,1.129" transform="translate(-15.03 -4.218)" fill="#056ec6"/>
        <path id="Trazado_142436" data-name="Trazado 142436" d="M56.783,40.934c-1.573-.1-1.573-.1-1.573,1.347,0,1.537,0,1.537,1.573,1.441a2.962,2.962,0,0,1,0-2.788" transform="translate(-12.418 -9.198)" fill="#0573cd"/>
        <path id="Trazado_142437" data-name="Trazado 142437" d="M57.139,43.733V40.945a2.962,2.962,0,0,0,0,2.788" transform="translate(-12.773 -9.209)" fill="#0573cd"/>
        <path id="Trazado_142438" data-name="Trazado 142438" d="M61.324,21.514Z" transform="translate(-13.793 -4.839)" fill="#0571cb"/>
        <path id="Trazado_142439" data-name="Trazado 142439" d="M55.211,20.558c0,.252.108.431.381.422a28.251,28.251,0,0,0,4.346-.1,17.842,17.842,0,0,1-2.33.045c-.974.012-1.132-.16-1.132-1.125a1.52,1.52,0,0,1,.3-1.057c-1.6-.122-1.6-.122-1.569,1.44,0,.125,0,.249.005.374" transform="translate(-12.415 -4.205)" fill="#0571cb"/>
        <path id="Trazado_142440" data-name="Trazado 142440" d="M57.981,20.94a17.982,17.982,0,0,0,2.33-.045l.007,0c-.339-.01-.679-.027-1.018-.027-2.152,0-2.152,0-2.152-2.11a1.52,1.52,0,0,0-.3,1.057c0,.967.157,1.137,1.132,1.126" transform="translate(-12.786 -4.219)" fill="#0571cb"/>
        <path id="Trazado_142441" data-name="Trazado 142441" d="M74.521,76.044a1.689,1.689,0,0,0,.184-.029,2.1,2.1,0,0,1,0-2.211c-.4-.01-.808-.022-1.212-.031a.391.391,0,0,0-.458.339c-.374,1.459.019,1.983,1.484,1.932" transform="translate(-16.398 -16.593)" fill="#0571ca"/>
        <path id="Trazado_142442" data-name="Trazado 142442" d="M75.137,76.024h0l0-2.211a2.1,2.1,0,0,0,0,2.211" transform="translate(-16.829 -16.602)" fill="#0571ca"/>
        <path id="Trazado_142443" data-name="Trazado 142443" d="M44.931,20.144a5.452,5.452,0,0,1,.7.255,1.954,1.954,0,0,1,.906-2.025c-1.57-.77-1.528-.753-2.131.6-.3.681-.188,1.009.526,1.167" transform="translate(-9.952 -4.017)" fill="#0571ca"/>
        <path id="Trazado_142444" data-name="Trazado 142444" d="M46.027,20.549h0a6.2,6.2,0,0,1,.906-2.025,1.954,1.954,0,0,0-.906,2.025" transform="translate(-10.348 -4.166)" fill="#0571ca"/>
        <path id="Trazado_142445" data-name="Trazado 142445" d="M86.52,76.514c.083-.015.154-.094.231-.143a2.026,2.026,0,0,1-.771-2.063c-.377.14-.757.273-1.129.426-.158.065-.419.112-.327.362a5.279,5.279,0,0,0,.739,1.688c.343.387.821-.193,1.257-.271" transform="translate(-19.007 -16.713)" fill="#0571cb"/>
        <path id="Trazado_142446" data-name="Trazado 142446" d="M87.169,76.37q-.386-1.03-.771-2.063a2.026,2.026,0,0,0,.771,2.063" transform="translate(-19.424 -16.713)" fill="#0571cb"/>
        <path id="Trazado_142447" data-name="Trazado 142447" d="M15.051,52.617q17.008-.045,34.017-.02,16.255,0,32.509-.007c.9,0,2.071.391,2.641-.161.618-.6.176-1.785.205-2.713.039-1.254.009-1.256-1.272-1.256H15.213a4.9,4.9,0,0,1-.565,0c-.593-.069-.769.212-.744.769a15.478,15.478,0,0,1-.007,2.259c-.1.932.265,1.134,1.155,1.132" transform="translate(-3.122 -10.897)" fill="#bb7b62"/>
      </g>
    </g>
  </g>
</svg>
