<svg xmlns="http://www.w3.org/2000/svg" xmlns:xlink="http://www.w3.org/1999/xlink" width="154.612" height="138" viewBox="0 0 154.612 138">
  <defs>
    <clipPath id="clip-path">
      <rect id="Rectángulo_38675" data-name="Rectángulo 38675" width="154.612" height="138" fill="none"/>
    </clipPath>
  </defs>
  <g id="Grupo_161730" data-name="Grupo 161730" transform="translate(0 0)">
    <g id="Grupo_161730-2" data-name="Grupo 161730" transform="translate(0 0)" clip-path="url(#clip-path)">
      <path id="Trazado_142020" data-name="Trazado 142020" d="M119.383,41.812l3.366,2.936c-.432,2.093.75,3.382,2.078,4.8A121.4,121.4,0,0,1,139.45,69.059a2.132,2.132,0,0,1,.386,1.208,47.388,47.388,0,0,1-6.5,11.057c-11.137,15.222-26.14,24.086-44.711,27.139-9.174,1.509-18.047.215-26.824-2.358A64.216,64.216,0,0,1,37.134,92.317,69.466,69.466,0,0,1,22.717,74.309c-.757-1.338-1.8-2.562-1.965-4.187a4.753,4.753,0,0,1,1-2.169,148.527,148.527,0,0,1,8.725-12.361,3.78,3.78,0,0,1,3.445-1.655,27.211,27.211,0,0,0,5.285-.432,4.439,4.439,0,0,1,3.045.67,49.831,49.831,0,0,0,17.686,6.613,4.478,4.478,0,0,0,4.742-1.578,4.532,4.532,0,0,0,.536-4.854q-1.678-4.01-3.422-7.992a2.206,2.206,0,0,1,.66-2.956,29.464,29.464,0,0,0,3.733-3.774,1.988,1.988,0,0,1,2.531-.707,30.629,30.629,0,0,1,8.977,4.95c.331.274.647.565,1,.812,1.413.988,1.946,1.023,3.276-.115a29.145,29.145,0,0,1,11.1-6.005,31.08,31.08,0,0,1,14.166-.924,20.627,20.627,0,0,1,7.521,3.173c1.439.931,2.861,1.678,4.623.993" transform="translate(9.012 16.159)" fill="#fe3d43"/>
      <path id="Trazado_142021" data-name="Trazado 142021" d="M5.29,19.482c.449-1.444,1.533-2.491,2.332-3.718,2.259.172,3.646-1.211,5.158-2.632A38.118,38.118,0,0,1,32.593,3.58a43.493,43.493,0,0,1,15.629-.063,7.877,7.877,0,0,1,2.318.611,48.767,48.767,0,0,1,10.7,6.784c6.087,5.466,10.1,12.034,10.895,20.324,1.021,10.592-3.272,18.953-10.913,25.9-1.026.932-2.5,1.555-1.969,3.455.158.559-.66.736-1.114,1a42.075,42.075,0,0,1-18.978,3.593c-12.293-.611-23-4.841-30.63-14.932-6.134-8.118-7.332-17.1-3.4-26.594a5.524,5.524,0,0,0,.171-4.169" transform="translate(1.239 1.234)" fill="#fef4ce"/>
      <path id="Trazado_142022" data-name="Trazado 142022" d="M51.678,5.753a41.044,41.044,0,0,0-19.559-.146A37.252,37.252,0,0,0,12.455,16.434,2.649,2.649,0,0,1,8.862,17c-1.037-1.747-.981-2.372.4-3.809A42.508,42.508,0,0,1,35.293.459c12.51-1.593,24.147.9,34.325,8.571,9.133,6.887,14.287,15.959,13.918,27.684a27.973,27.973,0,0,1-3.673,13.009c-.757,1.34-.469,1.671.832,2.134a25.518,25.518,0,0,1,7.546,4.185c.856.693,1.368.513,2.174-.055a34.1,34.1,0,0,1,29.44-5.457,23.447,23.447,0,0,1,7.4,3.784c1.647,1.149,1.824,1.728,1.145,3.656a2.4,2.4,0,0,1-3.468.232c-9.574-7.7-25.85-4.313-33.509,2.735-1.771,1.629-2.45,1.6-4.251.022A29.678,29.678,0,0,0,77.6,55.486a1.528,1.528,0,0,0-2.045.524,23.854,23.854,0,0,1-4.1,4.078,1.314,1.314,0,0,0-.452,1.88c1.233,2.731,2.365,5.509,3.573,8.251a5.025,5.025,0,0,1-.545,5.453c-1.317,1.691-3.058,2.06-5.172,1.682a49.808,49.808,0,0,1-18.2-6.89,2.351,2.351,0,0,0-1.779-.482,37.423,37.423,0,0,1-6.722.536,1.679,1.679,0,0,0-1.565.558,125.148,125.148,0,0,0-10.559,15.14,5.47,5.47,0,0,0,.106,4.884,72.52,72.52,0,0,0,16.673,24.715c1.145,1.124,2.453,2.073,3.624,3.17a2.29,2.29,0,0,1,.145,3.6A2.443,2.443,0,0,1,47,122.521,74.332,74.332,0,0,1,24.268,89.456a3.636,3.636,0,0,1,.409-3.333A162.294,162.294,0,0,1,34.434,71.6c.317-.417.617-.846,1.046-1.437a59.315,59.315,0,0,1-8.273-1.876c-10.031-3.306-18.241-9-23.363-18.433C-.985,40.96-1.219,31.768,2.89,22.5c.879-1.984,1.529-2.272,3.639-1.784a2.575,2.575,0,0,1,.66,3.313C1.546,35.84,5.231,49,15.827,57.156,28.6,66.991,42.8,68.261,57.794,63.019c.555-.194,1.094-.433,1.639-.653a2.267,2.267,0,0,1,2.727.952,2.331,2.331,0,0,1-.139,2.782,10.61,10.61,0,0,1-5.063,2.351,54.856,54.856,0,0,0,7.318,2.75c1.5.423,3.006.8,4.531,1.12,1.036.217,1.249-.115.828-1.089-1.235-2.856-2.44-5.726-3.672-8.583-1.275-2.955-1.142-3.553,1.394-5.6C72.5,52.882,76.318,47.8,77.868,41.27,80.068,32,77.425,24,71.187,17.042,65.919,11.166,59,8.1,51.678,5.753" transform="translate(0 0.001)"/>
      <path id="Trazado_142023" data-name="Trazado 142023" d="M41.809,96.478c.846-1.44.518-2.566-.757-3.632A71.258,71.258,0,0,1,20.626,64.294a3.456,3.456,0,0,1,.634-4.182,57.3,57.3,0,0,0,6.834,11.382,65.148,65.148,0,0,0,24.152,20.4,70.057,70.057,0,0,0,21.567,6.368c10.756,1.5,20.932-.653,30.824-4.558a62.193,62.193,0,0,0,19.056-11.959,72.777,72.777,0,0,0,16.159-21.547,2.4,2.4,0,0,1,1.266,3.412,73.45,73.45,0,0,1-4.382,9.492A69.474,69.474,0,0,1,125.3,88.582a63.49,63.49,0,0,1-32.58,17.781,55.3,55.3,0,0,1-12.429,1.519,60.828,60.828,0,0,1-12.89-1.74,63.268,63.268,0,0,1-17.088-6.492c-1.517-.866-3.029-1.621-4.8-.723l-3.7-2.45" transform="translate(8.777 26.106)" fill="#d62e2e"/>
      <path id="Trazado_142024" data-name="Trazado 142024" d="M37.928,106.784c1.149-1.2,2.344-1.178,3.748-.349a63.693,63.693,0,0,0,30.577,8.814A56.909,56.909,0,0,0,93.5,111.415c16.92-6.1,28.813-17.749,36.821-33.619.939-1.862,1.631-3.85,2.56-5.717a3.114,3.114,0,0,0-.605-4.029,118.133,118.133,0,0,0-16.265-21.572c-1.149-1.192-1.616-2.355-.6-3.821,1.363-1.007,2.527-.769,3.683.43a136.141,136.141,0,0,1,18.742,25.24,3.2,3.2,0,0,1,.146,2.916A73.557,73.557,0,0,1,112.9,106.079a65.814,65.814,0,0,1-39.415,13.66c-12.3.217-23.889-3.335-34.546-9.63a2.438,2.438,0,0,1-1.015-3.326" transform="translate(16.357 18.251)"/>
      <path id="Trazado_142025" data-name="Trazado 142025" d="M33.66,67.371c4.594.092,8.555-1.773,12.323-4.109,10.347-6.417,21.559-9.9,33.747-9.057A56.665,56.665,0,0,1,106.779,63.1c4.286,2.754,8.841,4.866,14.2,4.158a2.063,2.063,0,0,1,2.49,1.943,2.088,2.088,0,0,1-1.823,2.448,17.236,17.236,0,0,1-8.421-.561,14.677,14.677,0,0,1-3.6-1.358c-1.659-1.033-3.082-.723-4.779-.069a77.765,77.765,0,0,1-28.535,4.785c-10.272-.033-20.3-1.457-29.85-5.452a2.157,2.157,0,0,0-1.949.254c-3.733,1.747-7.583,2.992-11.785,2.608a6.511,6.511,0,0,1-1.88-.377,2.057,2.057,0,0,1-1.291-2.487,1.991,1.991,0,0,1,2.018-1.738c.693-.02,1.39.076,2.085.12" transform="translate(12.811 23.486)"/>
      <path id="Trazado_142026" data-name="Trazado 142026" d="M46.1,64.261c.879-2.285.135-3.455-2.311-3.634.437-.288,1.2-.377.61-1.219-.5-.717-.209-1.159.475-1.7,6.384-5.033,10.73-11.365,12.236-19.479A26.611,26.611,0,0,0,55.2,22.446C51.438,13.824,44.845,8.092,36.382,4.321a1.541,1.541,0,0,1-.351-.31c12.913,2.412,27.943,13.66,27.333,30.45-.316,8.689-4.512,15.461-11.057,20.926a13.607,13.607,0,0,1-1.14.891,2.493,2.493,0,0,0-.937,3.477c1.441,3.279,2.837,6.576,4.245,9.869.182.429.621.9.343,1.327-.376.579-1.008.132-1.476.044a21.121,21.121,0,0,1-4.79-1.215A58.691,58.691,0,0,1,46.1,64.261" transform="translate(15.647 1.742)" fill="#feeba0"/>
      <path id="Trazado_142027" data-name="Trazado 142027" d="M36.593,22.642H17.934a4.547,4.547,0,0,1-1.9-.227,2.105,2.105,0,0,1-1.364-2.3,2.005,2.005,0,0,1,1.809-1.945,8.956,8.956,0,0,1,1.443-.06q18.659,0,37.318,0a9.687,9.687,0,0,1,1.444.057A2.024,2.024,0,0,1,58.511,20.1a2.108,2.108,0,0,1-1.36,2.309,4.5,4.5,0,0,1-1.9.235H36.593" transform="translate(6.364 7.863)" fill="#010100"/>
      <path id="Trazado_142028" data-name="Trazado 142028" d="M28.236,32.581c-3.594,0-7.189.009-10.783,0-1.885-.007-2.837-.816-2.8-2.326.037-1.427.971-2.186,2.772-2.187q10.783-.013,21.566,0c1.87,0,2.843.829,2.8,2.325-.039,1.423-.978,2.182-2.778,2.187-3.594.013-7.189,0-10.783,0" transform="translate(6.364 12.186)"/>
      <path id="Trazado_142029" data-name="Trazado 142029" d="M44.7,46.018c1.054.366.934,1.463,1.3,2.223.495,1.043,1.244,2.037,1.159,3.3a32.834,32.834,0,0,1-7.92-3.074c1.893-.9,3.913-1.153,5.465-2.445" transform="translate(17.041 19.985)" fill="#fcf2cd"/>
      <path id="Trazado_142030" data-name="Trazado 142030" d="M87.57,59.539a34.27,34.27,0,0,1,8.184,3.835c-17.039,5.6-34.088,5.564-51.614.12A37.118,37.118,0,0,1,52.8,59.517a92.076,92.076,0,0,0,18.518,1.725,88.812,88.812,0,0,0,12.63-1.107c1.208-.194,2.424-.326,3.619-.6" transform="translate(19.169 25.847)" fill="#545456"/>
      <path id="Trazado_142031" data-name="Trazado 142031" d="M84.947,60.531c-.415,1.07-1.489.737-2.2.853a86.354,86.354,0,0,1-17.36,1.32A90.963,90.963,0,0,1,50.95,61.138c-.409-.082-.733-.149-.77-.63a47.605,47.605,0,0,1,34.767.023" transform="translate(21.792 24.855)" fill="#67676b"/>
    </g>
  </g>
</svg>
