<svg xmlns="http://www.w3.org/2000/svg" xmlns:xlink="http://www.w3.org/1999/xlink" width="138" height="116" viewBox="0 0 138 116">
  <defs>
    <clipPath id="clip-path">
      <rect id="Rect치ngulo_38693" data-name="Rect치ngulo 38693" width="97.59" height="97.5" fill="none"/>
    </clipPath>
  </defs>
  <g id="Grupo_161642" data-name="Grupo 161642" transform="translate(-722 -7519)">
    <rect id="Rect치ngulo_36141" data-name="Rect치ngulo 36141" width="138" height="116" transform="translate(722 7519)" fill="#c4d1ff"/>
    <g id="Grupo_161753" data-name="Grupo 161753" transform="translate(742 7528)">
      <g id="Grupo_161753-2" data-name="Grupo 161753" clip-path="url(#clip-path)">
        <path id="Trazado_142548" data-name="Trazado 142548" d="M16.263,14.237A1.6,1.6,0,0,1,16.7,11.98,48.006,48.006,0,0,1,43.138.314,48.756,48.756,0,0,1,59.994,96.2a45.341,45.341,0,0,1-7.225,1.124c-.151.01-.324-.028-.379.181H44.96a48.365,48.365,0,0,1-6.659-.864A48.393,48.393,0,0,1,17.413,86.393,49.03,49.03,0,0,1,5.285,71.415,47.51,47.51,0,0,1,.221,55.448C.1,54.485.169,53.5,0,52.537v-7.43A19.11,19.11,0,0,0,.539,41.5,48.833,48.833,0,0,1,12.023,16.649a1.6,1.6,0,0,1,2.259-.431,1.468,1.468,0,0,1,.2,2.292c-1.056,1.388-2.193,2.713-3.189,4.149a44.8,44.8,0,0,0-7.82,20.606,46.016,46.016,0,0,0-.37,5.593A46.094,46.094,0,0,0,6.113,64.95,44.513,44.513,0,0,0,17.859,82.282a45.525,45.525,0,0,0,46.466,9.344A41.817,41.817,0,0,0,75.544,85.68,45.614,45.614,0,0,0,90.937,31.2,44.784,44.784,0,0,0,83.224,18.82,46.245,46.245,0,0,0,68.87,7.717a30.109,30.109,0,0,0-4.565-1.892A44.173,44.173,0,0,0,47.016,3.1,45.777,45.777,0,0,0,18.953,14.187c-1.075.93-2.008.919-2.689.05" transform="translate(0 0)"/>
        <path id="Trazado_142549" data-name="Trazado 142549" d="M17.78,15.752c.99.664,1.474.638,2.442-.2A45.89,45.89,0,0,1,65.769,7.036a.722.722,0,0,1,.155.106,43.5,43.5,0,0,1,10.2,6.347A47.592,47.592,0,0,1,87.367,26.9a45.3,45.3,0,0,1,5.553,16A47.526,47.526,0,0,1,89.5,69.335a48.264,48.264,0,0,1-8.173,12.65A47.78,47.78,0,0,1,68.145,92.313c-.718.389-1.511.618-2.221,1.027A39.622,39.622,0,0,1,54.86,95.931a44.324,44.324,0,0,1-23.72-4C18.462,85.913,9.888,76.182,6.153,62.645c-4.281-15.516-1.005-29.613,9.141-42.1,1.139-1.4,1.226-1.73.5-2.808l1.981-1.981" transform="translate(-1.516 -1.515)" fill="#f95e96"/>
        <path id="Trazado_142550" data-name="Trazado 142550" d="M99.268,94.87c1.361-.79,2.724-1.575,4.082-2.371a48.12,48.12,0,0,0,7.471-5.491A46.8,46.8,0,0,0,121.9,72.347a46.471,46.471,0,0,0,4.546-24.239,45.4,45.4,0,0,0-4.088-15.871,47.958,47.958,0,0,0-20.237-21.92,15.367,15.367,0,0,1-2.855-1.645A38.312,38.312,0,0,1,109.4,13.808c10.664,7.428,17.349,17.526,19.474,30.349,2.324,14.026-1.278,26.589-10.432,37.48a44.675,44.675,0,0,1-18.091,12.887c-.351.138-.72.232-1.08.346" transform="translate(-34.861 -3.045)" fill="#d84f87"/>
        <path id="Trazado_142551" data-name="Trazado 142551" d="M24.21,22.189c-.564-1.163-.485-1.552.5-2.379a41.806,41.806,0,0,1,24.578-10A41.574,41.574,0,0,1,78.04,18.46c1.9,1.436,2.028,3.345.354,5.03q-3.726,3.748-7.472,7.477c-.215.215-.421.439-.766.8a7.1,7.1,0,0,1,3.733.686c.4.215.572-.157.778-.361q3.039-3.021,6.065-6.057c1.822-1.816,3.663-1.688,5.215.36A41.875,41.875,0,0,1,94.62,53.749,42.524,42.524,0,0,1,60.339,93.793a41.7,41.7,0,0,1-33.946-7.952c-1.966-1.475-2.1-3.358-.382-5.086,1.364-1.375,2.726-2.752,4.113-4.1a.687.687,0,0,0,.132-1.041c-.513-.79-.943-1.635-1.451-2.534-1.7,1.7-3.373,3.38-5.054,5.058-1.957,1.954-3.742,1.832-5.406-.38A41.468,41.468,0,0,1,9.778,50.465,41.705,41.705,0,0,1,19.933,24.581c.772-.912,1.178-.982,2.316-.43a1.373,1.373,0,0,1,.287,2.118c-.518.76-1.147,1.438-1.7,2.173A39.43,39.43,0,0,0,17.2,70.159a35.345,35.345,0,0,0,3.28,5.241c.573.765.714.777,1.4.1,1.647-1.63,3.271-3.284,4.925-4.908a1.6,1.6,0,0,0,.481-1.624,26,26,0,0,1-.512-5.39c.03-5.175,0-10.35.014-15.525a6.886,6.886,0,0,1,2.016-5.178,6,6,0,0,1,6.753-1.405c.632.243.764.118.761-.511-.018-3.048-.014-6.1-.006-9.143a6.393,6.393,0,0,1,8.666-6.175c.67.234.861.189.876-.574a6.24,6.24,0,0,1,4.81-6,6.434,6.434,0,0,1,6.991,2.905c.587.958.587.958,1.654.518a6.465,6.465,0,0,1,8.755,5.6,4.465,4.465,0,0,0,.058,1.078,2.159,2.159,0,0,0,.7-.6q3.306-3.294,6.6-6.6c.854-.858.848-.95-.11-1.652a39.244,39.244,0,0,0-40.078-3.65,36.559,36.559,0,0,0-8.226,5.294A4.294,4.294,0,0,1,26,22.67a1.321,1.321,0,0,1-1.791-.481" transform="translate(-3.421 -3.406)"/>
        <path id="Trazado_142552" data-name="Trazado 142552" d="M25.768,23.724a1.685,1.685,0,0,0,2.379-.21,38.285,38.285,0,0,1,18.581-8.8A38.863,38.863,0,0,1,77.7,22.145c.279.208.737.361.247.847-2.809,2.792-5.6,5.6-8.479,8.475-.211-.938-.021-1.789-.2-2.619a6.132,6.132,0,0,0-9-4.237c-.532.287-.673.247-.927-.3a6.136,6.136,0,0,0-11.738,2.526c-.007.311,0,.622,0,1.03a8.394,8.394,0,0,0-3.335-.882,6.152,6.152,0,0,0-6.138,6.1c-.026,3.491-.005,6.982-.005,10.565a9.5,9.5,0,0,0-2.717-.856,6.186,6.186,0,0,0-6.753,6.166c-.064,5.968-.021,11.937.005,17.906a16.582,16.582,0,0,0,.555,4.138.89.89,0,0,1-.277,1c-1.921,1.9-3.836,3.8-5.72,5.729-.455.466-.655.354-1-.105a38.607,38.607,0,0,1-7.925-20.841,39.007,39.007,0,0,1,9.3-28.722,1.7,1.7,0,0,0,.211-2.381l1.961-1.963" transform="translate(-4.979 -4.942)" fill="#eeeef8"/>
        <path id="Trazado_142553" data-name="Trazado 142553" d="M72.646,88.194a11.115,11.115,0,0,1-3.906.7c-3.746.033-7.493.075-11.237,0a17.474,17.474,0,0,1-16.508-15.47c-.351-4.054-.089-8.122-.146-12.183-.031-2.254-.014-4.508,0-6.762a3.4,3.4,0,0,1,3.366-3.7c1.921.007,3.257,1.5,3.263,3.67.006,2.412,0,4.825,0,7.238a3.066,3.066,0,0,0,2.871,3.387,11.061,11.061,0,0,1,9.6,9.416c.087.5.079,1.01.119,1.515.079,1,.7,1.63,1.542,1.574.808-.053,1.3-.683,1.315-1.666A14.041,14.041,0,0,0,51.883,62.422c-1.548-.31-1.549-.31-1.548-1.916q0-11.095.005-22.19a3.289,3.289,0,0,1,6.345-1.272,4.542,4.542,0,0,1,.271,1.773q0,8.905,0,17.81a3.256,3.256,0,0,0,.106,1.127,1.29,1.29,0,0,0,1.339.871,1.338,1.338,0,0,0,1.294-.939,3.382,3.382,0,0,0,.114-1.225q0-12.143.007-24.286a3.285,3.285,0,0,1,6.541-.594c.038.409.029.825.029,1.237q0,11.619,0,23.239c0,.254,0,.508,0,.762.021,1.192.54,1.826,1.477,1.809.9-.016,1.376-.613,1.377-1.784q.008-10.667.006-21.334a3.4,3.4,0,0,1,2.421-3.562,3.287,3.287,0,0,1,4.189,3.272c.016,5.4.006,10.794.006,16.191,0,2.349-.006,4.7,0,7.047,0,1.116.535,1.747,1.435,1.746s1.417-.627,1.418-1.75c0-4.54,0-9.08.005-13.619A3.193,3.193,0,0,1,81.2,41.466a3.318,3.318,0,0,1,1.387,2.571,6.318,6.318,0,0,1,.034,1.235c0,8.881.082,17.763-.027,26.643C82.515,78.427,79.531,83.5,74.3,87.3c-.515.375-1.156.5-1.656.892" transform="translate(-14.331 -10.072)" fill="#f0afa1"/>
        <path id="Trazado_142554" data-name="Trazado 142554" d="M87.118,62.577c0-5.418-.007-9.831,0-14.243a6.745,6.745,0,0,0-.788-3.48c-.252-.436-.132-.66.177-.965,2.007-1.987,4.015-3.976,5.985-6,.477-.49.694-.4,1.066.1a38.808,38.808,0,0,1,7.906,20.946,38.511,38.511,0,0,1-8.611,27.726,38.368,38.368,0,0,1-25.952,14.519A38.79,38.79,0,0,1,38.231,93.6c-.632-.464-.776-.725-.133-1.316,1.237-1.138,2.4-2.355,3.577-3.56.338-.346.538-.482.965-.049a20.251,20.251,0,0,0,15.4,6.229c3.078-.055,6.159.016,9.237-.021a20.3,20.3,0,0,0,19.7-18.364c.391-4.973.033-9.963.144-13.939" transform="translate(-13.233 -13.191)" fill="#eeeef8"/>
        <path id="Trazado_142555" data-name="Trazado 142555" d="M89.878,95.038a13.075,13.075,0,0,1,2.544-1.9A18.809,18.809,0,0,0,99.2,82.147a14.763,14.763,0,0,0,.377-3.09c-.007-9.009-.025-18.018.018-27.027a6.1,6.1,0,0,0-1.165-3.72,3.273,3.273,0,0,1,4.146,3,5.391,5.391,0,0,1,.014.57c0,8.791.031,17.582-.01,26.373a17.5,17.5,0,0,1-11.969,16.61c-.238.079-.489.119-.734.176" transform="translate(-31.563 -16.917)" fill="#ea9b8c"/>
      </g>
    </g>
  </g>
</svg>
