<svg xmlns="http://www.w3.org/2000/svg" xmlns:xlink="http://www.w3.org/1999/xlink" width="138" height="116" viewBox="0 0 138 116">
  <defs>
    <clipPath id="clip-path">
      <rect id="Rect치ngulo_38692" data-name="Rect치ngulo 38692" width="71.61" height="92.103" fill="none"/>
    </clipPath>
  </defs>
  <g id="Grupo_161641" data-name="Grupo 161641" transform="translate(-722 -7519)">
    <rect id="Rect치ngulo_36141" data-name="Rect치ngulo 36141" width="138" height="116" transform="translate(722 7519)" fill="#c4d1ff"/>
    <g id="Grupo_161752" data-name="Grupo 161752" transform="translate(755 7531)">
      <g id="Grupo_161752-2" data-name="Grupo 161752" clip-path="url(#clip-path)">
        <path id="Trazado_142534" data-name="Trazado 142534" d="M65.654,81.009c1.118.342,1.345.71,1.218,1.89-.151,1.4-.237,2.8-.429,4.2a5.387,5.387,0,0,1-4.633,4.871c-.037.008-.058.09-.087.137H42.661c-2.48-.47-3.865-2.068-4.54-4.5-.631.425-.942,1.091-1.484,1.532A11.38,11.38,0,0,1,29.892,92.1H10.29a4.568,4.568,0,0,0-1.511-.428A11.965,11.965,0,0,1,.065,80.24c-.022-2.7-.009-5.391,0-8.086a6.439,6.439,0,0,1,1.333-4.363c.263-.31.082-.443-.084-.66a4.967,4.967,0,0,1-.069-6.643.481.481,0,0,0,0-.734,4.927,4.927,0,0,1,.077-6.632c.255-.32.2-.458-.027-.718a5.249,5.249,0,0,1-1.24-3.645q.023-5.615,0-11.231a5.148,5.148,0,0,1,1.223-3.56c.264-.3.3-.464.01-.784A5.13,5.13,0,0,1,.051,29.721,13.523,13.523,0,0,1,1.834,21.8c.644-1.018,1.014-1.151,2.149-.733.856.541,1.027,1.145.452,2.12a10.986,10.986,0,0,0-1.425,6.127c.064,1.873.774,2.614,2.644,2.615q11.911.011,23.823,0c.509,0,1.019-.014,1.527.011q2.018.041,4.039.006a2.154,2.154,0,0,0,2.337-2.358,10.109,10.109,0,0,0-1.733-6.816,8.34,8.34,0,0,0-6.868-3.63c-.688-.005-1.376.009-2.066-.009a2.021,2.021,0,0,1-1.935-2.266c-.041-1.048-.021-2.1-.009-3.145.007-.611-.249-.858-.858-.855-2.486.01-4.972.005-7.459,0-.616,0-.855.282-.853.876,0,1.018.016,2.037-.006,3.055-.033,1.572-.736,2.328-2.318,2.343a14.914,14.914,0,0,0-4.958.639,1.207,1.207,0,0,1-1.73-.733c-.323-1.264-.128-1.659,1.08-2.126A10.615,10.615,0,0,1,11.7,16.17c.776.014.972-.274.9-.991a13.485,13.485,0,0,1,0-1.976c.024-.458-.105-.605-.59-.623-1.907-.068-2.621-.835-2.624-2.735,0-1.828-.011-3.656,0-5.484a4.242,4.242,0,0,1,4.3-4.346q6.516-.031,13.033,0A4.2,4.2,0,0,1,30.988,4.2c.035,2.007.025,4.016.005,6.023a2.183,2.183,0,0,1-2.361,2.351c-.681-.007-.886.173-.831.845.068.833-.253,1.852.124,2.464s1.484.232,2.261.373A12.111,12.111,0,0,1,40.15,26.968a8.834,8.834,0,0,1,.158,2.324c-.12.868.273.938.994.937q14.111-.034,28.222-.015c1.874,0,2.224.436,2.042,2.336-.6,6.29-1.176,12.583-1.766,18.874q-.952,10.152-1.912,20.3c-.112,1.193-.232,2.386-.314,3.58a1.423,1.423,0,0,1-1.512,1.525c-1.027.012-1.513-.523-1.448-1.654.105-1.852.315-3.7.486-5.543q.595-6.389,1.2-12.778c.22-2.294.417-4.589.631-6.882.092-.985.006-1.11-.978-1.116-8.111-.048-16.222-.03-24.334-.03a1.094,1.094,0,0,0-.845.2,11.106,11.106,0,0,1-1.3,3.412c-.213.275-.024.578.148.829a5.273,5.273,0,0,1,.037,6.376.839.839,0,0,0,.045,1.065,5.038,5.038,0,0,1-.017,6.119,1.173,1.173,0,0,0-.048,1.464,6.612,6.612,0,0,1,.939,3.6q0,3.326,0,6.652c0,2.64.382,5.252.616,7.874a2.826,2.826,0,0,0,3.173,2.724q6.246.016,12.492,0,1.792.02,3.584,0a2.864,2.864,0,0,0,3.139-2.857c.156-1.333.182-2.681.416-4.006a1.583,1.583,0,0,1,1.012-1.365c.219-.078.463-.167.643.094" transform="translate(0 0)"/>
        <path id="Trazado_142535" data-name="Trazado 142535" d="M9.12,30.687a1.372,1.372,0,0,0,1.74.512,11.471,11.471,0,0,1,4.835-.75c1.8.014,2.126-.328,2.127-2.163,0-1.167.016-2.335-.009-3.5-.009-.42.1-.567.546-.564q4.354.03,8.708,0c.5,0,.593.175.584.621-.025,1.227-.011,2.455-.007,3.682,0,1.449.272,1.754,1.723,1.984a10.325,10.325,0,0,1,5.112,8.361,11.735,11.735,0,0,1-.016,3.386,2.493,2.493,0,0,1-.778,1.564c-2.187.012-4.374.032-6.56.033q-9.529.007-19.058,0c-1.946,0-2.731-.834-2.784-2.79a10.72,10.72,0,0,1,1.564-6.519A1.349,1.349,0,0,0,6.516,32.7c.895-.636,1.481-1.671,2.6-2.013" transform="translate(-2.533 -11.635)" fill="#c5e6f6"/>
        <path id="Trazado_142536" data-name="Trazado 142536" d="M77.66,93.626c.2-.362.532-.17.792-.17,8.44-.008,16.88.008,25.319-.016.746,0,.889.224.823.907q-.984,10.137-1.926,20.277c-.171,1.817-.321,3.635-.5,5.451a1.427,1.427,0,0,0,1.2,1.627,35.951,35.951,0,0,1-.408,4.176,1.35,1.35,0,0,0-1.454,1.453c-.08,1.221-.234,2.436-.333,3.656-.182,2.252-1.276,3.288-3.507,3.286-1.164,0-2.328-.019-3.492-.029a.471.471,0,0,1,.01-.352c1.052-1.82.933-3.877,1.127-5.854.485-4.942.939-9.888,1.39-14.835.386-4.231.8-8.46,1.166-12.693.151-1.729.329-3.456.5-5.183.136-1.39.086-1.426-1.283-1.427q-8.981,0-17.962-.006c-.5,0-1.028.11-1.461-.269" transform="translate(-37.306 -44.869)" fill="#59abd8"/>
        <path id="Trazado_142537" data-name="Trazado 142537" d="M14.414,108.928a1.353,1.353,0,0,0-.858,1.743c.22.807.883.947,1.629.946q8.787-.012,17.575,0c.357,0,.714.029,1.071.044a3.784,3.784,0,0,1-.839,5.435c-.738.475-.736.473-.076,1.009a4.1,4.1,0,0,1,1.467,2.7,18.765,18.765,0,0,1,.241,3.128c-.071,2.481.1,4.964-.181,7.443a10.742,10.742,0,0,1-4.4,7.716,5.737,5.737,0,0,1-.888.42c-5.092,0-10.186.11-15.275-.019a9.064,9.064,0,0,1-8.6-8.846c-.092-2.933-.058-5.872-.011-8.808.034-2.114.967-2.961,3.067-2.961q10.47,0,20.94,0c1.066,0,1.558-.332,1.67-1.1a1.311,1.311,0,0,0-1.2-1.582,6.75,6.75,0,0,0-.808-.015q-10.649,0-21.3,0a2.272,2.272,0,0,1-2.207-3.256,2.114,2.114,0,0,1,1.628-1.27c1.249-.21,1.62-.531,1.618-1.391,0-1.081-.739-1.27-1.61-1.407a2.159,2.159,0,0,1-1.839-2.121,2.128,2.128,0,0,1,1.611-2.271,1.777,1.777,0,0,1,.882-.078q12.568-.006,25.137,0c1.141,0,1.393.2,1.674,1.3a3.984,3.984,0,0,1,.1,1.338c-.128,1.476-.541,1.858-2,1.858q-8.619,0-17.238,0a2.848,2.848,0,0,0-.979.058" transform="translate(-2.5 -50.133)" fill="#c5e6f6"/>
        <path id="Trazado_142538" data-name="Trazado 142538" d="M76.351,93.811c6.735,0,13.47.012,20.205-.021.761,0,.9.152.831.921-.281,3.167-.576,6.333-.906,9.5-.234,2.247-.356,4.506-.565,6.757-.206,2.218-.47,4.43-.685,6.648-.15,1.539-.247,3.083-.39,4.623-.218,2.336-.462,4.67-.681,7.007-.067.711-.162,1.429-.18,2.132a5.427,5.427,0,0,1-1.114,3.057c-4.341.009-8.681.036-13.022.019a2.78,2.78,0,0,1-2.825-2.5c-.325-2.642-.623-5.289-.7-7.954-.079-2.811.173-5.628-.141-8.434a4.734,4.734,0,0,0-1.047-2.536c-.308-.37-.217-.559.055-.887a4.928,4.928,0,0,0,.054-6.564c-.275-.352-.2-.509.028-.812a4.979,4.979,0,0,0-.1-6.577c-.2-.251-.379-.4-.077-.729a5.224,5.224,0,0,0,1.254-3.644" transform="translate(-35.997 -45.054)" fill="#73c2ed"/>
        <path id="Trazado_142539" data-name="Trazado 142539" d="M33.518,83.763q-6.194.015-12.388.029-6.554.007-13.108,0a2.381,2.381,0,0,1-2.717-2.685q-.011-5.613,0-11.225A2.206,2.206,0,0,1,7.021,67.4a2.692,2.692,0,0,1,.891-.055q12.44,0,24.881,0c1.207,0,1.541.327,1.718,1.558a34.284,34.284,0,0,1,.188,5.38,64.473,64.473,0,0,1-.186,7.806c-.1.7-.239,1.37-.995,1.676" transform="translate(-2.546 -32.346)" fill="#72c2ed"/>
        <path id="Trazado_142540" data-name="Trazado 142540" d="M97.744,76.276l-16.069.034c-1.527,0-3.054-.036-4.579.018-.658.023-.774-.2-.766-.8.035-2.544,0-5.089.02-7.633a5.248,5.248,0,0,0-1.18-3.487.621.621,0,0,1,.4-1.063,2.339,2.339,0,0,1,.448-.01q11.268,0,22.537,0c.149,0,.3.021.446.033a4.563,4.563,0,0,1,.025,2.464c-.271,3.072-.592,6.14-.838,9.215a1.666,1.666,0,0,1-.446,1.231" transform="translate(-36.022 -30.42)" fill="#c5e6f6"/>
        <path id="Trazado_142541" data-name="Trazado 142541" d="M51.3,146.221a12.949,12.949,0,0,0,3.667-3.858,12.331,12.331,0,0,0,1.4-4.664c.246-2.665.127-5.325.116-7.984a7.657,7.657,0,0,0-.684-3.656,4.73,4.73,0,0,0-1.953-1.724c.546-.568,1.3-.631,1.747-1.174a3.922,3.922,0,0,0,.694-3.955c-.094-.282-.209-.557-.314-.835,1.436-.011,2.873-.06,4.307-.022a2.2,2.2,0,0,1,2.124,2.234,2.227,2.227,0,0,1-1.984,2.279c-.862.086-1.458.423-1.5,1.331a1.236,1.236,0,0,0,1.029,1.374c1.511.361,2.208.954,2.252,2.469a64.335,64.335,0,0,1-.11,10.5,9.021,9.021,0,0,1-8.9,7.714c-.628.011-1.256-.016-1.885-.025" transform="translate(-24.644 -56.845)" fill="#b4dff4"/>
        <path id="Trazado_142542" data-name="Trazado 142542" d="M35.108,83.674c.932-.958.831-2.229.864-3.379.091-3.231.042-6.466.023-9.7a11.346,11.346,0,0,0-.191-2.042,1.274,1.274,0,0,0-1.423-1.237c-8.261.041-16.522.024-24.784.022-.329,0-.657-.019-.986-.03a1.589,1.589,0,0,1,1.043-.143q14.7,0,29.4.008c1.843,0,2.709.858,2.711,2.678q.006,5.575,0,11.149a2.373,2.373,0,0,1-2.7,2.7c-1.318,0-2.636-.018-3.953-.028" transform="translate(-4.137 -32.256)" fill="#59abd8"/>
        <path id="Trazado_142543" data-name="Trazado 142543" d="M118.783,76.268c.256-2.029.4-4.068.562-6.107.178-2.272.46-4.535.7-6.8,1.705-.011,3.411,0,5.116-.048.564-.016.709.134.653.7-.291,2.888-.544,5.78-.811,8.67-.091.983-.211,1.965-.268,2.95-.027.459-.1.7-.652.686-1.764-.044-3.53-.035-5.3-.046" transform="translate(-57.06 -30.412)" fill="#b4dff4"/>
        <path id="Trazado_142544" data-name="Trazado 142544" d="M33.5,12.378c-3.229.009-6.458.006-9.687.037-.508,0-.581-.2-.576-.63.02-1.645-.006-3.29.016-4.935a1.526,1.526,0,0,1,1.636-1.628c2.75-.012,5.5.011,8.252.02a1.673,1.673,0,0,1,.783,1.6c.067,1.544.037,3.09.015,4.635-.006.359-.041.724-.438.9" transform="translate(-11.165 -2.507)" fill="#73c2ed"/>
        <path id="Trazado_142545" data-name="Trazado 142545" d="M55.957,49.577c1.515-4.381.531-8.245-2.469-11.657-.54-.614-1.326-.995-1.849-1.653,5.132-.512,9.283,2.232,10.51,6.935a13.927,13.927,0,0,1,.241,4.461,2.118,2.118,0,0,1-2.126,1.931c-1.435.033-2.871-.008-4.307-.017" transform="translate(-24.806 -17.392)" fill="#b4dff4"/>
        <path id="Trazado_142546" data-name="Trazado 142546" d="M42.661,12.376a1.662,1.662,0,0,0,.178-1.042c0-1.319-.023-2.638.009-3.955A3.87,3.87,0,0,0,42.3,5.24c1.556-.009,3.112-.037,4.668-.02a1.5,1.5,0,0,1,1.637,1.529c.034,1.706,0,3.413.023,5.12.006.453-.177.547-.583.541-1.8-.025-3.591-.025-5.386-.034" transform="translate(-20.321 -2.505)" fill="#59abd8"/>
        <path id="Trazado_142547" data-name="Trazado 142547" d="M15.93,108.867c.313-.269.69-.149,1.036-.149,5.813-.008,11.627-.022,17.439.015A1.178,1.178,0,0,0,35.7,107.8a3.967,3.967,0,0,0,.165-1.86c-.163-1.254-.524-1.539-1.793-1.539L8.362,104.4a1.216,1.216,0,0,1,.862-.153q15.014,0,30.027,0a2.3,2.3,0,0,1,2.374,3.11,2.339,2.339,0,0,1-2.5,1.494q-8.046.007-16.092.007-3.55,0-7.1.008" transform="translate(-4.017 -50.072)" fill="#b4dff4"/>
      </g>
    </g>
  </g>
</svg>
