<svg xmlns="http://www.w3.org/2000/svg" xmlns:xlink="http://www.w3.org/1999/xlink" width="133" height="116" viewBox="0 0 133 116">
  <defs>
    <clipPath id="clip-path">
      <rect id="Rect치ngulo_38676" data-name="Rect치ngulo 38676" width="74.426" height="90.099" fill="none"/>
    </clipPath>
  </defs>
  <g id="Grupo_161732" data-name="Grupo 161732" transform="translate(-537 -868)">
    <rect id="Rect치ngulo_36141" data-name="Rect치ngulo 36141" width="133" height="116" transform="translate(537 868)" fill="#c4d1ff"/>
    <g id="Grupo_161731" data-name="Grupo 161731" transform="translate(566 881)">
      <g id="Grupo_161731-2" data-name="Grupo 161731" clip-path="url(#clip-path)">
        <path id="Trazado_142032" data-name="Trazado 142032" d="M36.553,133.036a1.9,1.9,0,0,1-1-1.881c.029-2.111-.011-4.222.014-6.332A11.363,11.363,0,0,1,46.2,113.3a50.79,50.79,0,0,1,9.921.033,11.323,11.323,0,0,1,9.638,10.249c.148,2.631.055,5.274.091,7.912a1.78,1.78,0,0,1-.967,1.543Z" transform="translate(-13.498 -42.936)"/>
        <path id="Trazado_142033" data-name="Trazado 142033" d="M59.623,0a1.826,1.826,0,0,1,.888,1.834c-.055.813,0,1.633-.018,2.448a1.32,1.32,0,1,1-2.631-.009c-.017-.816.04-1.636-.017-2.448A1.767,1.767,0,0,1,58.743,0Z" transform="translate(-21.963)"/>
        <path id="Trazado_142034" data-name="Trazado 142034" d="M0,58.74a1.769,1.769,0,0,1,1.825-.9c.813.056,1.632,0,2.448.017a1.32,1.32,0,1,1,.009,2.631c-.816.02-1.635-.038-2.448.017A1.822,1.822,0,0,1,0,59.62Z" transform="translate(0 -21.961)"/>
        <path id="Trazado_142035" data-name="Trazado 142035" d="M57.9,64.937c.327,1.077.182,1.486-.754,2.043a27.464,27.464,0,0,1-7.256,3.034,3.029,3.029,0,0,0-1.485.824,8.147,8.147,0,0,1-11.594-.076,2.552,2.552,0,0,0-1.258-.716A28.307,28.307,0,1,1,70.636,38.568c1.362,9.232-1.4,17.3-7.912,24.042-.735.762-1.218.8-2.167.221-.7-.641-.7-1.258.043-2.088a34.533,34.533,0,0,0,3.438-4.325A25.691,25.691,0,0,0,65.6,31.673a23.757,23.757,0,0,0-5.858-7.806,24.2,24.2,0,0,0-14.589-6.517A24.818,24.818,0,0,0,26.078,23.39a24.528,24.528,0,0,0-8.725,16.726,24.786,24.786,0,0,0,6.064,19.153,25.783,25.783,0,0,0,10.014,7.1c.834.341.709.31.844-.574.272-1.791-.531-2.587-2.088-3.406A21.517,21.517,0,0,1,20.569,46.326a21.625,21.625,0,0,1,3.683-16.458c.752-1.1,1.384-1.284,2.526-.776a1.745,1.745,0,0,1,.057,2.465A19.286,19.286,0,0,0,28.714,55.94a18.657,18.657,0,0,0,6.03,4.313.792.792,0,0,0,1.127-.27,8.456,8.456,0,0,1,13.49-.114c.311.568.68.644,1.292.343,6.371-3.129,10.24-8.17,11.119-15.2a18.352,18.352,0,0,0-5.12-15.573,17.58,17.58,0,0,0-3.995-3.274,18.65,18.65,0,0,0-10.086-2.827,18.43,18.43,0,0,0-10.506,3.183c-.29.2-.579.4-.88.577a1.551,1.551,0,0,1-2.264-.274c-.481-1.089-.294-1.693.772-2.454a21.344,21.344,0,0,1,9.271-3.807,21.905,21.905,0,0,1,18.455,5.3,21.205,21.205,0,0,1,7.489,14.385,21.634,21.634,0,0,1-6.3,18.055,21.657,21.657,0,0,1-6.868,4.81.96.96,0,0,0-.682,1.148,7.964,7.964,0,0,1,.016,1.142,6.353,6.353,0,0,0-.012,1.2,17.817,17.817,0,0,0,3.69-1.568c.447-.215.858-.509,1.314-.7a1.307,1.307,0,0,1,1.834.61" transform="translate(-5.436 -5.443)"/>
        <path id="Trazado_142036" data-name="Trazado 142036" d="M82.086,29.356a24.16,24.16,0,0,1,7.881,13.563,25.158,25.158,0,0,1-6.65,23.319c-.95,1.016-1.012,1.231-.506,2.3a17.06,17.06,0,0,1-2.658,2.106,1.537,1.537,0,0,0-2.182-.2,23.583,23.583,0,0,1-5.047,2.293c.075-.558.143-1.068.212-1.578a1.748,1.748,0,0,1,.682-.535c7.82-4.345,12.6-10.878,13.987-19.746a26.17,26.17,0,0,0-5.335-20.4c-.238-.318-.73-.589-.385-1.123" transform="translate(-27.692 -11.147)" fill="#fcd230"/>
        <path id="Trazado_142037" data-name="Trazado 142037" d="M113.632,57.868c.525,0,1.051-.026,1.574.007a1.307,1.307,0,0,1,.019,2.613c-1.077.042-2.159.043-3.235,0a1.307,1.307,0,0,1,.068-2.611c.524-.03,1.05-.006,1.574,0" transform="translate(-42.058 -21.97)" fill="#010101"/>
        <path id="Trazado_142038" data-name="Trazado 142038" d="M107.734,28.932a1.275,1.275,0,0,1,1.143.906,1.151,1.151,0,0,1-.416,1.412c-.986.625-2,1.211-3.039,1.745a1.142,1.142,0,0,1-1.527-.487,1.1,1.1,0,0,1,.081-1.53,14.457,14.457,0,0,1,3.464-2.028.985.985,0,0,1,.3-.018" transform="translate(-39.349 -10.986)" fill="#010101"/>
        <path id="Trazado_142039" data-name="Trazado 142039" d="M31.8,13.033a1.323,1.323,0,0,1-1.205-.735c-.483-.83-.979-1.652-1.437-2.5a1.3,1.3,0,0,1,.4-1.84,1.279,1.279,0,0,1,1.866.507c.537.865,1.067,1.738,1.525,2.645A1.286,1.286,0,0,1,31.8,13.033" transform="translate(-10.99 -2.94)" fill="#010101"/>
        <path id="Trazado_142040" data-name="Trazado 142040" d="M13.028,31.767a1.249,1.249,0,0,1-1.741,1.213,24.386,24.386,0,0,1-3.025-1.726,1.157,1.157,0,0,1-.306-1.7,1.18,1.18,0,0,1,1.664-.481c.953.5,1.874,1.057,2.8,1.6a1.228,1.228,0,0,1,.605,1.095" transform="translate(-2.93 -10.975)" fill="#010101"/>
        <path id="Trazado_142041" data-name="Trazado 142041" d="M105.074,84.275a3.444,3.444,0,0,1,.6.214c.862.484,1.724.971,2.566,1.489a1.316,1.316,0,1,1-1.306,2.28q-1.341-.729-2.638-1.538a1.216,1.216,0,0,1-.539-1.517,1.357,1.357,0,0,1,1.312-.928" transform="translate(-39.371 -32.002)" fill="#010101"/>
        <path id="Trazado_142042" data-name="Trazado 142042" d="M88.525,9.139a3.776,3.776,0,0,1-.235.657c-.466.839-.941,1.675-1.442,2.493a1.348,1.348,0,0,1-1.861.585,1.316,1.316,0,0,1-.422-1.893q.714-1.3,1.49-2.565a1.222,1.222,0,0,1,1.5-.589,1.375,1.375,0,0,1,.974,1.312" transform="translate(-32.027 -2.947)" fill="#010101"/>
        <path id="Trazado_142043" data-name="Trazado 142043" d="M9.211,88.5a1.453,1.453,0,0,1-1.364-.9,1.155,1.155,0,0,1,.428-1.473c.978-.626,2-1.192,3.024-1.735a1.127,1.127,0,0,1,1.415.357,1.09,1.09,0,0,1,.164,1.448c-1.008,1.175-2.471,1.656-3.668,2.3" transform="translate(-2.941 -31.999)" fill="#010101"/>
        <path id="Trazado_142044" data-name="Trazado 142044" d="M62.223,131.946c-1.731.089-1.731.089-1.731-1.629,0-1.084.014-2.168-.007-3.253a1.413,1.413,0,0,0-1.361-1.529,1.459,1.459,0,0,0-1.456,1.548c-.027,1.406-.033,2.814,0,4.22.014.554-.172.687-.7.682-3.019-.024-6.038-.03-9.056,0-.629.007-.716-.245-.705-.773.027-1.347.031-2.7,0-4.044-.026-1.2-.9-1.888-1.888-1.536a1.364,1.364,0,0,0-.938,1.43c0,1.406-.021,2.814.007,4.22.011.534-.161.72-.7.7-1-.038-1.993-.012-2.989-.011-.274,0-.554.01-.545-.383.052-2.282-.265-4.591.183-6.842a8.4,8.4,0,0,1,8.033-6.871,62.645,62.645,0,0,1,9.13.029,2.655,2.655,0,0,1,.5.146,8.294,8.294,0,0,1,3.6,4.026,11.33,11.33,0,0,1,1.038,4.849c-.011,1.315.009,2.631-.009,3.946,0,.394.073.844-.4,1.071" transform="translate(-15.225 -44.704)" fill="#5bbc92"/>
        <path id="Trazado_142045" data-name="Trazado 142045" d="M73.182,132.148a.246.246,0,0,0,.037-.079c.192-3.872.654-7.788-1.772-11.244a19.622,19.622,0,0,0-2.492-2.569,8.445,8.445,0,0,1,6.674,7.505c.094,1.925.024,3.858.058,5.787.009.512-.183.664-.666.635-.611-.038-1.226-.026-1.839-.035" transform="translate(-26.184 -44.905)" fill="#2db17f"/>
        <path id="Trazado_142046" data-name="Trazado 142046" d="M54.621,65.359a8.374,8.374,0,0,0-6.194-3.206,7.966,7.966,0,0,0-7.095,3.462.745.745,0,0,1-1.116.3A19.549,19.549,0,0,1,31.94,36.949c.554-.8.865-1.525.157-2.365a.378.378,0,0,1,.113-.471,10.706,10.706,0,0,1,2.224-2.052c.934.751,1.228.726,2.324,0,6.829-4.519,13.856-4.8,21.063-.945a2.779,2.779,0,0,1,.345.256,19.889,19.889,0,0,1,7.278,15.46,20.3,20.3,0,0,1-3.088,11.458A20.52,20.52,0,0,1,55.75,65c-.341.213-.671.5-1.129.362" transform="translate(-10.822 -10.795)" fill="#f8c42d"/>
        <path id="Trazado_142047" data-name="Trazado 142047" d="M30.637,28.3,28.3,30.828c-1.113-.439-1.506-.318-2.217.682a22.172,22.172,0,0,0,9.277,33.04c.614.269.809.543.718,1.208a6.846,6.846,0,0,0,.2,2.885A24.068,24.068,0,0,1,26.635,62.9c-7.288-7.214-9.839-15.916-7-25.744s9.617-15.974,19.634-18.042c8.3-1.714,15.783.435,22.155,6.137-.056.6.476.857.759,1.23a26.867,26.867,0,0,1,3.441,26.71,26.2,26.2,0,0,1-6.638,9.483,21.864,21.864,0,0,1-6.512,4.378c-.326-1.495.135-2.291,1.657-3.034A21.969,21.969,0,0,0,66.311,42a22.234,22.234,0,0,0-23.4-19.876,21.979,21.979,0,0,0-11.59,4.1c-.942.673-1.042,1-.685,2.081" transform="translate(-7.025 -7.039)" fill="#fce265"/>
        <path id="Trazado_142048" data-name="Trazado 142048" d="M70.613,67.16A19.555,19.555,0,0,0,76.728,62a19.733,19.733,0,0,0,4.411-10.61,20.7,20.7,0,0,0-2.887-13.211,35.453,35.453,0,0,0-4.094-5,18.765,18.765,0,0,1,8.437,10.6,19.559,19.559,0,0,1-10.6,23.882c-.714.322-1.134.265-1.381-.5" transform="translate(-26.814 -12.597)" fill="#e6b629"/>
        <path id="Trazado_142049" data-name="Trazado 142049" d="M55.535,97.928A4.959,4.959,0,0,1,51.543,94.3a5.059,5.059,0,0,1,1.481-5.52,5.007,5.007,0,0,1,5.354-1.121A2.578,2.578,0,0,1,59.3,88.9a7.033,7.033,0,0,1-2.628,8.728,1.346,1.346,0,0,1-1.133.3" transform="translate(-19.467 -33.157)" fill="#5bbc92"/>
        <path id="Trazado_142050" data-name="Trazado 142050" d="M58.148,98.134A6.584,6.584,0,0,0,62.223,92.6a7.8,7.8,0,0,0-1.232-4.737,5.335,5.335,0,0,1-2.843,10.274" transform="translate(-22.08 -33.363)" fill="#2db17f"/>
        <path id="Trazado_142051" data-name="Trazado 142051" d="M59.252,56.516a1.762,1.762,0,0,0-1.206-1.489c-.9-.417-1.856-.715-2.757-1.129-2.962-1.361-3.762-4.5-1.752-6.783a1.526,1.526,0,0,1,.374-.368c1.047-.553,1.879-1.172,1.813-2.585-.026-.559.657-.843,1.284-.793a1.165,1.165,0,0,1,1.126.938,2.937,2.937,0,0,1,.065.872.613.613,0,0,0,.55.733,6.006,6.006,0,0,1,2.1,1.069A1.365,1.365,0,0,1,61.29,48.9a1.315,1.315,0,0,1-1.933.258,3.8,3.8,0,0,0-2.434-.846A1.816,1.816,0,0,0,55.137,49.6c-.187.881.332,1.366,1,1.758a14.884,14.884,0,0,0,2.518,1.012,4.5,4.5,0,0,1,3.233,4.156,4.773,4.773,0,0,1-2.932,4.679,1.078,1.078,0,0,0-.77,1.234c.027,1.012-.457,1.539-1.273,1.553s-1.34-.517-1.335-1.5c0-.631-.132-.941-.826-1.04a5.087,5.087,0,0,1-2-.853,1.32,1.32,0,0,1-.532-1.817,1.292,1.292,0,0,1,1.831-.455,5.108,5.108,0,0,0,2.937.721,2.37,2.37,0,0,0,2.265-2.531" transform="translate(-19.762 -16.466)"/>
      </g>
    </g>
  </g>
</svg>
