<svg xmlns="http://www.w3.org/2000/svg" xmlns:xlink="http://www.w3.org/1999/xlink" width="133" height="116" viewBox="0 0 133 116">
  <defs>
    <clipPath id="clip-path">
      <rect id="Rect치ngulo_38677" data-name="Rect치ngulo 38677" width="86.275" height="86.251" fill="none"/>
    </clipPath>
  </defs>
  <g id="Grupo_161623" data-name="Grupo 161623" transform="translate(-722 -7519)">
    <rect id="Rect치ngulo_36141" data-name="Rect치ngulo 36141" width="133" height="116" transform="translate(722 7519)" fill="#c4d1ff"/>
    <g id="Grupo_161733" data-name="Grupo 161733" transform="translate(745 7534)">
      <g id="Grupo_161733-2" data-name="Grupo 161733" clip-path="url(#clip-path)">
        <path id="Trazado_142052" data-name="Trazado 142052" d="M71.857,33.534,69.03,41.057c-.122.324-.232.653-.362.974a1.414,1.414,0,0,1-2.526.533C64.51,40.958,62.9,39.332,61.288,37.7a8.285,8.285,0,0,1-.6-.794c-1.1,1.82-2.1,3.454-3.07,5.106-.39.664-.826,1.234-1.69,1.081s-1.091-.814-1.231-1.581c-.28-1.536-.68-3.052-.906-4.594a2.461,2.461,0,0,0-1.409-2.083,11.774,11.774,0,0,1-1.214-.783c-.964,2.072-1.91,4.111-2.863,6.148-.735,1.57-1.64,1.773-2.858.549-6.625-6.654-8.993-14.612-6.4-23.629C41.618,8.154,47.756,2.5,56.9.534a23.477,23.477,0,0,1,28.235,19.8,23.074,23.074,0,0,1-6.194,19.509c-.96,1.051-1.777.979-2.632-.189-1.469-2.007-2.929-4.02-4.456-6.118" transform="translate(-18.584 0)"/>
        <path id="Trazado_142053" data-name="Trazado 142053" d="M148.626,74.774c0,1.738.015,3.477-.011,5.215-.007.454.118.6.577.577.723-.037,1.449-.014,2.173-.008a1.354,1.354,0,0,1,1.305.838,1.269,1.269,0,0,1-.275,1.52q-3.455,3.49-6.943,6.946a1.315,1.315,0,0,1-2.014-.016q-3.465-3.419-6.888-6.88a1.308,1.308,0,0,1-.343-1.511,1.365,1.365,0,0,1,1.354-.9,13.139,13.139,0,0,1,1.823.015c.818.113.92-.237.912-.951-.038-3.274-.019-6.548-.015-9.822,0-1.295.477-1.761,1.791-1.763,1.623,0,3.245-.007,4.868,0,1.183.005,1.68.5,1.685,1.7.007,1.681,0,3.361,0,5.042" transform="translate(-66.535 -33.26)"/>
        <path id="Trazado_142054" data-name="Trazado 142054" d="M12.529,102.038c0,1.71.018,3.419-.011,5.128-.009.491.127.651.621.621.693-.042,1.39-.01,2.085-.01a1.373,1.373,0,0,1,1.367.879,1.3,1.3,0,0,1-.32,1.515q-3.428,3.456-6.885,6.882a1.332,1.332,0,0,1-2.076-.018q-3.432-3.39-6.826-6.818a1.328,1.328,0,0,1-.356-1.581,1.376,1.376,0,0,1,1.379-.86c.522,0,1.043,0,1.565,0,1.11,0,1.11,0,1.11-1.152q0-4.781,0-9.561c0-1.351.464-1.8,1.835-1.807,1.623,0,3.245-.008,4.868,0,1.126.007,1.635.519,1.641,1.652.009,1.71,0,3.419,0,5.129" transform="translate(0 -46.568)"/>
        <path id="Trazado_142055" data-name="Trazado 142055" d="M69.684,128.068a1.4,1.4,0,0,1-1.741,1.411q-4.883-1.355-9.745-2.787a1.337,1.337,0,0,1-.7-2.22q2.726-3.491,5.534-6.918a1.307,1.307,0,0,1,2.294.227c1.468,3.3,2.865,6.625,4.284,9.943a1.357,1.357,0,0,1,.069.343" transform="translate(-27.94 -57.189)"/>
        <path id="Trazado_142056" data-name="Trazado 142056" d="M71.028,95.417a5.565,5.565,0,1,1-5.547-5.6,5.581,5.581,0,0,1,5.547,5.6" transform="translate(-29.284 -43.909)"/>
        <path id="Trazado_142057" data-name="Trazado 142057" d="M90.082,152.6a5.564,5.564,0,1,1-5.529-5.623,5.578,5.578,0,0,1,5.529,5.623" transform="translate(-38.599 -71.855)"/>
        <path id="Trazado_142058" data-name="Trazado 142058" d="M103.555,130.886a5.565,5.565,0,1,1,5.582-5.482,5.572,5.572,0,0,1-5.582,5.482" transform="translate(-47.915 -58.547)"/>
        <path id="Trazado_142059" data-name="Trazado 142059" d="M99.39,102.231c-2.822-.469-5.651-.908-8.466-1.422a1.33,1.33,0,0,1-.747-2.235q2.791-2.917,5.71-5.71a1.29,1.29,0,0,1,2.148.5q1.476,3.509,2.825,7.07a1.359,1.359,0,0,1-1.47,1.8" transform="translate(-43.904 -45.208)"/>
        <path id="Trazado_142060" data-name="Trazado 142060" d="M148.5,49.033c-1.246,0-2.492-.018-3.737.01-.425.009-.515-.128-.53-.536-.083-2.257-.1-2.256,2.1-2.256,1.883,0,3.767.018,5.649-.012.5-.008.613.143.618.626.024,2.169.04,2.169-2.105,2.169h-2" transform="translate(-70.501 -22.605)"/>
        <path id="Trazado_142061" data-name="Trazado 142061" d="M148.418,59.921c-1.217,0-2.434-.017-3.65.009-.417.009-.52-.116-.536-.531-.085-2.262-.1-2.261,2.187-2.261,1.854,0,3.709.017,5.562-.011.491-.008.618.129.624.62.025,2.174.042,2.174-2.1,2.174h-2.086" transform="translate(-70.5 -27.929)"/>
        <path id="Trazado_142062" data-name="Trazado 142062" d="M12.327,76.255c-1.188,0-2.377-.027-3.563.012-.513.017-.6-.163-.609-.634-.022-2.16-.037-2.16,2.112-2.16,1.854,0,3.709.014,5.562-.009.481-.006.7.041.7.631,0,2.16.03,2.16-2.119,2.16H12.327" transform="translate(-3.985 -35.915)"/>
        <path id="Trazado_142063" data-name="Trazado 142063" d="M12.411,84.362c1.188,0,2.376.015,3.563-.008.4-.008.531.085.548.518.093,2.273.108,2.273-2.176,2.273-1.854,0-3.708-.015-5.562.01-.472.007-.63-.1-.636-.607-.027-2.186-.047-2.186,2.09-2.186h2.173" transform="translate(-3.981 -41.239)"/>
        <path id="Trazado_142064" data-name="Trazado 142064" d="M87.18,118.47c0,1.345,0,1.345-1.35,1.345-1.432,0-1.432,0-1.432-1.437,0-1.345,0-1.345,1.35-1.345,1.432,0,1.432,0,1.432,1.437" transform="translate(-41.261 -57.216)"/>
        <path id="Trazado_142065" data-name="Trazado 142065" d="M49.072,96.58c0,1.46,0,1.46-1.5,1.46-1.286,0-1.286,0-1.286-1.322,0-1.46,0-1.46,1.5-1.46,1.286,0,1.286,0,1.286,1.322" transform="translate(-22.63 -46.57)"/>
        <path id="Trazado_142066" data-name="Trazado 142066" d="M58.648,149.758c-1.471,0-1.471,0-1.471-1.485,0-1.3,0-1.3,1.312-1.3,1.47,0,1.47,0,1.47,1.485,0,1.3,0,1.3-1.312,1.3" transform="translate(-27.953 -71.854)"/>
        <path id="Trazado_142067" data-name="Trazado 142067" d="M119.843,91.268c0,1.328,0,1.328-1.368,1.328-1.415,0-1.415,0-1.415-1.454,0-1.328,0-1.328,1.367-1.328,1.416,0,1.416,0,1.416,1.454" transform="translate(-57.229 -43.909)"/>
        <path id="Trazado_142068" data-name="Trazado 142068" d="M114.4,156.579c0,1.345,0,1.345-1.351,1.345-1.432,0-1.432,0-1.432-1.437,0-1.345,0-1.345,1.35-1.345,1.433,0,1.433,0,1.433,1.437" transform="translate(-54.568 -75.847)"/>
        <path id="Trazado_142069" data-name="Trazado 142069" d="M59.047,38.548h-.928c-.652.165-1.305.44-1.949-.026A14.685,14.685,0,0,1,56.8,23.348a15.229,15.229,0,0,1,20.768-4.97c.172.1.326.237.488.356a1.715,1.715,0,0,1,.266,1.075c0,4.835.012,9.67-.007,14.5a4.451,4.451,0,0,1-2.183,3.83c-.386.256-.912.74-1.388.035a5.661,5.661,0,0,0-.006-4.79,5.484,5.484,0,0,0-5.055-3.217,2.778,2.778,0,0,1-.6-5.486,2.721,2.721,0,0,1,3.3,2.064c.127.543.325.706.837.651a9.967,9.967,0,0,1,1.042-.007c1.118,0,1.115,0,.889-1.065a5.334,5.334,0,0,0-3.41-4.07.842.842,0,0,1-.651-1c.043-.547-.022-1.1.019-1.649.036-.479-.158-.56-.593-.57-2.193-.053-2.209-.066-2.188,2.169a.922.922,0,0,1-.685,1.069,5.491,5.491,0,0,0-3.43,5.984,5.557,5.557,0,0,0,5.343,4.7,2.783,2.783,0,0,1,.779,5.49A2.747,2.747,0,0,1,67.008,36.3c-.109-.464-.259-.619-.719-.572a11.893,11.893,0,0,1-1.215.009c-1.028,0-1.01,0-.834.982a11.651,11.651,0,0,0,.61,1.8.7.7,0,0,1-.539.245,19.815,19.815,0,0,1-5.264-.217" transform="translate(-26.577 -7.922)" fill="#f8cd69"/>
        <path id="Trazado_142070" data-name="Trazado 142070" d="M49.076,40.317a20.839,20.839,0,1,1,31.43-.767c-.485-.661-.938-1.329-1.446-1.953-.328-.4-.036-.629.154-.9A18.065,18.065,0,0,0,67.275,8.386,17.99,17.99,0,0,0,46.631,23.341a17.357,17.357,0,0,0,3.3,13.627,1.077,1.077,0,0,1,.157,1.377c-.341.566-.575,1.2-.86,1.8a1.06,1.06,0,0,1-.149.173" transform="translate(-21.322 -2.656)" fill="#f2a23a"/>
        <path id="Trazado_142071" data-name="Trazado 142071" d="M90.728,40.6c.49.359.931.01,1.253-.221a4.315,4.315,0,0,0,2.06-3.6q-.008-7.812,0-15.623a14.782,14.782,0,0,1,6.777,10.534,14.828,14.828,0,0,1-1.868,9.871q-.214.378-.451.742a1.085,1.085,0,0,1-.218.181c-.5-.687-1-1.36-1.484-2.045a1.565,1.565,0,0,0-1.577-.859c-.677.113-.991.606-1.217,1.218-1.013,2.737-2.051,5.465-3.082,8.2-.06.158-.142.308-.262.565-1.145-1.163-2.247-2.27-3.333-3.392-.494-.51-.124-1.166-.244-1.74-.151-.723.226-.988.85-1.219a5.609,5.609,0,0,0,2.8-2.607" transform="translate(-42.556 -10.342)" fill="#f6c144"/>
        <path id="Trazado_142072" data-name="Trazado 142072" d="M63.529,59.893l5.8-.028a6.215,6.215,0,0,0,3.7,2.656,2.618,2.618,0,0,0-1.864,1.53C70.6,65.039,70,66.006,69.3,67.162c-.246-1.182-.475-2.151-.643-3.131a1.858,1.858,0,0,0-.879-1.315c-1.421-.931-2.832-1.88-4.246-2.823" transform="translate(-31.058 -29.267)" fill="#f6c144"/>
        <path id="Trazado_142073" data-name="Trazado 142073" d="M57.9,59.871l1.949.026a3.008,3.008,0,0,0-1.141,1.416,6.051,6.051,0,0,1-.808-1.441" transform="translate(-28.306 -29.27)" fill="#f1bd42"/>
        <path id="Trazado_142074" data-name="Trazado 142074" d="M149.747,76.575c-.01-.869,0-1.738-.037-2.606-.017-.419.134-.524.543-.545,2.247-.112,2.246-.124,2.246,2.14q0,4.086,0,8.172c0,1.823.212,2.067,2.108,2.308a45.86,45.86,0,0,1-3.5,3.377,2.2,2.2,0,0,1-.262-1.337c0-2.4-.043-4.8.015-7.193a5.982,5.982,0,0,0-1.112-4.317" transform="translate(-73.19 -35.878)" fill="#97bf5c"/>
        <path id="Trazado_142075" data-name="Trazado 142075" d="M147.616,79.625a3.158,3.158,0,0,1,1.376,2.89c-.045,3.318-.016,6.637-.017,9.956-1.28-.977-2.269-2.247-3.625-3.46.811,0,1.422.031,1.87-.466a2.437,2.437,0,0,0,.364-1.816c.016-2.368.022-4.736.033-7.1" transform="translate(-71.059 -38.928)" fill="#accc7c"/>
        <path id="Trazado_142076" data-name="Trazado 142076" d="M13.648,103.794c-.01-.869,0-1.738-.037-2.606-.017-.419.134-.524.543-.545,2.247-.112,2.246-.124,2.246,2.14q0,4.086,0,8.172c0,1.823.212,2.067,2.108,2.308a45.951,45.951,0,0,1-3.5,3.377,2.2,2.2,0,0,1-.262-1.337c0-2.4-.044-4.8.015-7.193a5.982,5.982,0,0,0-1.112-4.317" transform="translate(-6.654 -49.185)" fill="#97bf5c"/>
        <path id="Trazado_142077" data-name="Trazado 142077" d="M11.517,106.844a3.158,3.158,0,0,1,1.376,2.89c-.045,3.318-.016,6.637-.017,9.956-1.28-.977-2.269-2.247-3.625-3.46.811,0,1.422.031,1.87-.466a2.437,2.437,0,0,0,.364-1.816c.016-2.368.022-4.736.033-7.1" transform="translate(-4.522 -52.235)" fill="#accc7c"/>
        <path id="Trazado_142078" data-name="Trazado 142078" d="M69.493,129.912l-4.9-1.392,2.8-3.5,2.1,4.894" transform="translate(-31.579 -61.12)" fill="#f1a239"/>
        <path id="Trazado_142079" data-name="Trazado 142079" d="M70.906,98.058a2.781,2.781,0,1,1-2.743-2.8,2.8,2.8,0,0,1,2.743,2.8" transform="translate(-31.946 -46.572)" fill="#f6c144"/>
        <path id="Trazado_142080" data-name="Trazado 142080" d="M89.961,155.228a2.781,2.781,0,1,1-2.737-2.8,2.808,2.808,0,0,1,2.737,2.8" transform="translate(-41.261 -74.519)" fill="#f6c144"/>
        <path id="Trazado_142081" data-name="Trazado 142081" d="M109.015,128a2.781,2.781,0,1,1-2.748-2.791A2.808,2.808,0,0,1,109.015,128" transform="translate(-50.577 -61.212)" fill="#f6c144"/>
        <path id="Trazado_142082" data-name="Trazado 142082" d="M98.16,102.4c.708-.691,1.3-1.264,1.89-1.849.248-.247.368-.177.481.123.271.72.564,1.432.895,2.264L98.16,102.4" transform="translate(-47.989 -49.087)" fill="#ed9f39"/>
      </g>
    </g>
  </g>
</svg>
