<svg xmlns="http://www.w3.org/2000/svg" xmlns:xlink="http://www.w3.org/1999/xlink" width="133" height="116" viewBox="0 0 133 116">
  <defs>
    <clipPath id="clip-path">
      <rect id="Rectángulo_38679" data-name="Rectángulo 38679" width="90.602" height="87.1" fill="none"/>
    </clipPath>
  </defs>
  <g id="Grupo_161624" data-name="Grupo 161624" transform="translate(-722 -7519)">
    <rect id="Rectángulo_36141" data-name="Rectángulo 36141" width="133" height="116" transform="translate(722 7519)" fill="#c4d1ff"/>
    <g id="Grupo_161734" data-name="Grupo 161734" transform="translate(75 6512)">
      <g id="Grupo_161735" data-name="Grupo 161735" transform="translate(668 1021)">
        <g id="Grupo_161734-2" data-name="Grupo 161734" clip-path="url(#clip-path)">
          <path id="Trazado_142083" data-name="Trazado 142083" d="M26.553,15.8c.241-.925.547-1.2,1.46-1.2q16.66-.007,33.321,0a2.018,2.018,0,0,1,2.18,2.225c.01.811.019,1.624,0,2.436a1.907,1.907,0,0,1-1.652,1.987c-.525.081-.563.307-.528.7a2.08,2.08,0,0,1,0,.471c-.094.638.063.94.816.888a1.169,1.169,0,1,1,.049,2.312c-.737-.04-.894.21-.887.9.007.74.019,1.216.995,1.115A1.119,1.119,0,0,1,63.51,28.82,1.149,1.149,0,0,1,62.2,29.961c-.725-.05-.893.182-.888.893q.049,7.74,0,15.48c-.005.726.212.845.87.835q3.85-.057,7.7,0c.585.008.705-.13.552-.682q-.452-1.622-.815-3.269a3.817,3.817,0,0,1,3.617-4.727c1.413-.052,2.83-.056,4.242,0a3.845,3.845,0,0,1,3.583,4.9c-.261,1.093-.541,2.181-.831,3.265-.1.377-.019.541.394.5.26-.024.524,0,.786-.005a1.29,1.29,0,0,1,1.47,1.2,1.1,1.1,0,0,1-.924,1.293,5.1,5.1,0,0,1-1.172.065q-10,0-20,0a2.106,2.106,0,0,0-1.219.167.938.938,0,0,0-.223.8c.013,3.455-.031,6.91.023,10.365.016.983.02.983,1,1.068,1.081.094,1.5.491,1.618,1.535-.295.969-.69,1.281-1.777,1.3-2.121.031-4.243,0-6.365.016-.8.007-1.007.263-.885.991a.528.528,0,0,0,.494.512,6.964,6.964,0,0,0,.863.031H92.187c.184,0,.367-.009.55,0,.491.016.715-.209.71-.707-.006-.478-.117-.828-.691-.823-.288,0-.576-.007-.864-.007H67.374c-.367,0-.734.014-1.1-.019a1.49,1.49,0,0,1-1.525-1.309,1.462,1.462,0,0,1,1.476-1.507,10.689,10.689,0,0,1,1.1-.023H89.615c.262,0,.524-.014.785,0,.592.03.854-.229.854-.831q0-5.376,0-10.753c0-.557-.229-.809-.8-.8-.915.01-1.831.007-2.747,0a2.447,2.447,0,0,1-1.152-.177c-.371-.3-.835-.565-.579-1.179a1.278,1.278,0,0,1,1.454-1.2c2.4,0,4.8.012,7.2-.006a1.775,1.775,0,0,1,1.436.741v.943a1.245,1.245,0,0,1-1.2.85c-.712,0-.769.455-.768,1q.006,4.393,0,8.786c0,.418.023.838-.005,1.254-.053.784-.006,1.43,1.01,1.586.549.084.8.623.96,1.142v4.559a2.041,2.041,0,0,1-1.841,1.064c-.508-.026-.332.373-.334.612-.012,2.122,0,4.243-.008,6.365a3.575,3.575,0,0,1-3.867,3.864q-35.988,0-71.978,0c-1.714,0-2.453-.734-2.457-2.421,0-.76-.016-1.52.005-2.279a1.886,1.886,0,0,1,1.6-1.945c.548-.082.616-.306.58-.743a4.117,4.117,0,0,1,0-.785c.047-.427-.14-.564-.539-.525a2.586,2.586,0,0,1-.549-.016,1.159,1.159,0,0,1-.066-2.307c.358-.057.885.069,1.048-.127.269-.324.042-.856.1-1.293.075-.519-.165-.626-.621-.588a1.954,1.954,0,0,1-.769-.09,1.071,1.071,0,0,1-.779-1.213,1.1,1.1,0,0,1,1.012-1.032,1.565,1.565,0,0,1,.47-.009c.547.086.7-.124.695-.679q-.025-16.579,0-33.158c0-.575-.121-.841-.724-.726a.746.746,0,0,1-.157,0,1.192,1.192,0,0,1-1.31-1.153,1.223,1.223,0,0,1,1.278-1.209c.3-.025.784.17.85-.142a6.859,6.859,0,0,0,0-1.711c0-.04-.167-.092-.261-.1-.155-.018-.314,0-.471-.008-.874-.036-1.38-.461-1.391-1.165s.492-1.131,1.358-1.2c.3-.025.9.249.787-.376-.1-.556.632-1.432-.574-1.661a1.911,1.911,0,0,1-1.57-1.978q-.029-1.3,0-2.592a1.966,1.966,0,0,1,2.011-2.063c1.518-.045,3.038-.023,4.557-.009a1.247,1.247,0,0,1,1.309,1.2c.053.821-.342,1.282-1.231,1.342-1.072.072-2.147.03-3.221.023-.608,0-.85.251-.812.85.029.445.214.677.671.682.262,0,.524.009.786.009H59.486c.209,0,.419-.012.628,0,.565.027.8-.227.792-.8-.009-.543-.266-.75-.776-.739-.288.006-.576,0-.864,0H28.782a6.083,6.083,0,0,1-1.254-.057,1.083,1.083,0,0,1-.975-1.311" transform="translate(-5.461 -5.118)"/>
          <path id="Trazado_142084" data-name="Trazado 142084" d="M82.841,67.846c.288-.19.612-.093.916-.093q10.52-.01,21.04-.006c1.129,0,1.348-.158,1.653-1.151h3.1a1.715,1.715,0,0,0,.488.971,4.213,4.213,0,0,1,.216,2.3,9.23,9.23,0,0,1-1.3,4.861c-.212.354-.39.752-.843.878-.393-.1-.421-.439-.446-.742a4.623,4.623,0,0,1,.451-2.823,4.192,4.192,0,0,0,.242-.494c.415-.966,0-1.6-1.067-1.592a6.111,6.111,0,0,0-2.915.836,12,12,0,0,0-1.922,1.357.828.828,0,0,1-1.251,0,7.365,7.365,0,0,0-.684-.527c-3.377-2.557-6.576-2.1-9.625.52a11.726,11.726,0,0,0-1.11,1.111,1.177,1.177,0,0,0-.084,1.76,9.974,9.974,0,0,0,4.212,3.052,3.255,3.255,0,0,1,.719.31c.172.123.267.258.05.431a2.066,2.066,0,0,1-1,.154q-4.858.007-9.716,0c-1.155,0-1.2-.058-1.2-1.173q0-4.544,0-9.088a1.933,1.933,0,0,1,.064-.85" transform="translate(-29.033 -23.362)" fill="#e84444"/>
          <path id="Trazado_142085" data-name="Trazado 142085" d="M27.825,16.46c.279.974.526,1.152,1.649,1.153q15.992,0,31.982.008c.315,0,.825-.195.912.169a4.586,4.586,0,0,1,0,1.707c-.034.224-.419.113-.643.114-2.331.007-4.663,0-6.994,0q-17.327,0-34.653-.008c-.283,0-.754.186-.823-.173a5.43,5.43,0,0,1,.024-1.711c.025-.189.373-.1.574-.105,1.126-.006,2.253-.025,3.378,0a1.3,1.3,0,0,0,1.5-1.159h3.094" transform="translate(-6.734 -5.774)" fill="#6baac9"/>
          <path id="Trazado_142086" data-name="Trazado 142086" d="M56.223,51.177c-2.133-2.236-4.541-2.825-6.9-1.628a5.324,5.324,0,0,0-3.038,4.372,9.623,9.623,0,0,1-.193,1.474,3.126,3.126,0,0,1-3.064,2.239,5.516,5.516,0,0,0-.521,11A14.12,14.12,0,0,0,55.893,60.6l.371-.777c.373.1.353.435.349.7-.041,3.043.192,6.091-.145,9.13a1.382,1.382,0,0,1-.4.987c-.523.009-1.046.016-1.57.028a1.544,1.544,0,0,0-1.721,1.611c-.011.528-.216.58-.652.579q-14.457-.015-28.914,0c-.508,0-.658-.128-.658-.649q.022-16.656.006-33.311c0-.383.014-.619.525-.619q16.538.029,33.076.027a.531.531,0,0,1,.077.012c.4.211.387.6.388.961q.022,5.5-.005,11c0,.33.1.769-.4.9" transform="translate(-7.913 -13.429)" fill="#fcb341"/>
          <path id="Trazado_142087" data-name="Trazado 142087" d="M82.8,68.37c0,3.349.019,6.7,0,10.047,0,.573.094.833.763.826,3.506-.034,7.013-.015,10.519-.018.229,0,.477.064.669-.133.772-.323,1.588-.005,2.372-.167a20.37,20.37,0,0,0,7.385-.542c.7-.049,1.263.431,1.94.481.282.021.556.129.843.13.979.006,1.406-.638,1.046-1.542-.175-.438-.575-.826-.351-1.369a7.144,7.144,0,0,0,1.841-3.876A19.482,19.482,0,0,0,110,68.089a10.654,10.654,0,0,0,3.273.169c1.783.038,1.783.01,1.783,1.814,0,3.432-.018,6.863.016,10.294.006.641-.2.769-.793.767q-12.1-.028-24.2-.012c-1.08,0-1.358.207-1.627,1.185a3.678,3.678,0,0,1-3.1,0c-.288-1-.55-1.239-1.7-1.166-.8.051-.993-.191-.984-.983.043-3.656.012-7.313.018-10.969,0-.272-.118-.576.121-.817" transform="translate(-28.995 -23.886)" fill="#d73131"/>
          <path id="Trazado_142088" data-name="Trazado 142088" d="M52.944,73.337a3.179,3.179,0,0,1-3.539-3.957,3.142,3.142,0,0,1,3.01-2.327,5.673,5.673,0,0,0,5.575-5.377c.086-2.422,2-3.8,4.071-3.162a3.207,3.207,0,0,1,2.253,3.23,11.864,11.864,0,0,1-11.37,11.593" transform="translate(-17.293 -20.472)" fill="#e84444"/>
          <path id="Trazado_142089" data-name="Trazado 142089" d="M81.836,89.988h3.1c.285.98.547,1.171,1.643,1.171q13.086,0,26.17.008c.316,0,.832-.191.917.161a5.627,5.627,0,0,1,0,1.713c-.012.153-.264.122-.417.124-.341,0-.681,0-1.022,0q-19.333,0-38.666-.008c-.284,0-.74.183-.823-.2a3.149,3.149,0,0,1,.035-1.7c.077-.217.43-.1.656-.1,2.279-.006,4.558,0,6.837-.005,1.009,0,1.277-.209,1.568-1.171" transform="translate(-25.483 -31.568)" fill="#0680ae"/>
          <path id="Trazado_142090" data-name="Trazado 142090" d="M74.415,51.179c.216-.18.156-.429.156-.657q0-5.722,0-11.443a1.33,1.33,0,0,0-.141-.758c1.568-.01,3.136-.009,4.7-.036.382-.007.486.127.486.5q-.014,8.077,0,16.155c0,.406-.113.553-.528.536-.7-.029-1.411,0-2.117-.011a1.843,1.843,0,0,0-1.64.664,6.51,6.51,0,0,0-.924-4.945" transform="translate(-26.105 -13.43)" fill="#fda613"/>
          <path id="Trazado_142091" data-name="Trazado 142091" d="M53.888,110.494h-.8q-16.5,0-33-.008c-.283,0-.752.186-.822-.183a7.536,7.536,0,0,1,.007-1.71c0-.036.174-.087.269-.094.208-.015.419-.006.628-.006q16.305,0,32.61-.016c.743,0,1.135.106,1.006.955a4.5,4.5,0,0,0,.1,1.063" transform="translate(-6.74 -38.054)" fill="#6baac9"/>
          <path id="Trazado_142092" data-name="Trazado 142092" d="M56.371,33.572c-.261.01-.522.03-.784.03q-16.069,0-32.137.016c-.686,0-.957-.126-.908-.877.071-1.1.018-1.1,1.148-1.1q15.872,0,31.744,0c.313,0,.625.029.938.045a1.762,1.762,0,0,1,0,1.885" transform="translate(-7.906 -11.099)" fill="#fcb341"/>
          <path id="Trazado_142093" data-name="Trazado 142093" d="M22.621,26.853a.269.269,0,0,1-.033-.071c-.214-1.831-.214-1.831,1.591-1.831q15.619,0,31.236,0c.314,0,.626.018.94.027a1.8,1.8,0,0,1,.2,1.5.466.466,0,0,1-.547.436c-.156-.009-.314,0-.471,0q-16.069,0-32.14,0a1.694,1.694,0,0,1-.774-.063" transform="translate(-7.891 -8.753)" fill="#fbb340"/>
          <path id="Trazado_142094" data-name="Trazado 142094" d="M52.445,97.071c-.26.014-.521.041-.782.041q-14.105,0-28.211.016c-.692,0-.957-.138-.909-.885.069-1.089.016-1.093,1.146-1.093q13.948,0,27.9-.014c.747,0,1.35-.028,1.219.985-.018.14.089.3.138.444-.032.3-.342.327-.5.505" transform="translate(-7.907 -33.374)" fill="#fcb341"/>
          <path id="Trazado_142095" data-name="Trazado 142095" d="M54.8,101.891c.3.534.084,1.109.126,1.664.016.21-.168.23-.332.232-.209,0-.419,0-.628,0H23.683c-1.112,0-1.113,0-1.107-1.111,0-.208.018-.417.027-.625a.941.941,0,0,1,.671-.154c2.952-.017,5.905.037,8.854.106,4.125.1,8.247.28,12.374.273a12.63,12.63,0,0,0,2.1-.2,43.232,43.232,0,0,1,8.2-.188" transform="translate(-7.92 -35.708)" fill="#fda613"/>
          <path id="Trazado_142096" data-name="Trazado 142096" d="M74.181,80.74c.566-3.1.221-6.238.3-9.357a2.833,2.833,0,0,0-.107-1.459,18.564,18.564,0,0,0,.79-2.841,1.59,1.59,0,0,0,1.731.839c.408-.045.467.186.466.525q-.009,5.891,0,11.783c0,.39-.082.565-.515.547-.889-.038-1.779-.027-2.669-.036" transform="translate(-26.023 -23.533)" fill="#fda613"/>
          <path id="Trazado_142097" data-name="Trazado 142097" d="M126.2,102.766c0-1.2.019-2.4-.009-3.6-.012-.479.081-.7.63-.675.991.045,1.986.029,2.978.005.4-.01.542.1.539.524-.019,2.22,0,4.44-.016,6.661a1.176,1.176,0,0,1-1.251,1.3c-.782.036-1.568-.011-2.351.018-.423.016-.533-.149-.527-.545.019-1.228.007-2.456.007-3.684" transform="translate(-44.269 -34.549)" fill="#89bad4"/>
          <path id="Trazado_142098" data-name="Trazado 142098" d="M105.763,55.011c.653,0,1.307-.025,1.959.005a1.431,1.431,0,0,1,1.485,1.771c-.273,1.406-.662,2.79-.994,4.184-.08.335-.31.36-.593.359-1.228-.008-2.457-.016-3.684,0-.382.006-.54-.125-.627-.5-.3-1.3-.654-2.578-.96-3.872a1.5,1.5,0,0,1,1.455-1.942c.651-.034,1.306-.006,1.959-.006" transform="translate(-35.886 -19.295)" fill="#89bad4"/>
          <path id="Trazado_142099" data-name="Trazado 142099" d="M76.1,104.987c-.012-2.007-.014-4.015-.043-6.023-.006-.4.16-.473.509-.467q1.565.025,3.13,0c.349-.006.514.058.508.464-.028,2.008-.027,4.016-.036,6.024a.882.882,0,0,1-.638.236q-1.394.043-2.789,0a.958.958,0,0,1-.641-.234" transform="translate(-26.68 -34.553)" fill="#b3d1e1"/>
          <path id="Trazado_142100" data-name="Trazado 142100" d="M54.818,101.872c-1.256,0-2.514.048-3.767-.005a15.574,15.574,0,0,0-4.951.545,4.029,4.029,0,0,1-1.008.1c-3.947.116-7.89-.129-11.834-.207-1.981-.039-3.973.036-5.946-.137-1.568-.138-3.129-.088-4.693-.129.084-.464.454-.248.683-.248q12.671-.017,25.342-.006c1.8,0,3.61,0,5.414.006.253,0,.523-.084.76.085" transform="translate(-7.935 -35.69)" fill="#eba73c"/>
          <path id="Trazado_142101" data-name="Trazado 142101" d="M22.691,26.849,55,26.838c1.426,0,1.426,0,1.424-1.393,0-.156,0-.314,0-.47,1.518-.01,3.036-.011,4.553-.035.358-.006.488.084.506.473.069,1.52.086,1.519-1.435,1.519q-18.261,0-36.522,0c-.278,0-.573.1-.837-.083" transform="translate(-7.96 -8.749)" fill="#fba513"/>
          <path id="Trazado_142102" data-name="Trazado 142102" d="M92.811,104.962c-.011-2.009-.018-4.019-.039-6.028,0-.325.082-.441.434-.465,1.528-.1,1.531-.12,1.526,1.407-.007,1.7-.023,3.391-.036,5.088a1.806,1.806,0,0,1-1.885,0" transform="translate(-32.545 -34.529)" fill="#b3d1e1"/>
          <path id="Trazado_142103" data-name="Trazado 142103" d="M99.557,98.539c1.883-.227,1.887-.227,1.882,1.583,0,1.613-.016,3.226-.024,4.838a1.8,1.8,0,0,1-1.5.195.433.433,0,0,1-.434-.461c.036-2.051-.1-4.105.071-6.156" transform="translate(-34.895 -34.532)" fill="#b2d0e0"/>
          <path id="Trazado_142104" data-name="Trazado 142104" d="M106.159,104.983c-.008-2.007-.012-4.015-.03-6.022,0-.314.052-.5.422-.464a7.317,7.317,0,0,1,1.473.073c.172,1.4.033,2.8.075,4.2.012.416,0,.833,0,1.249,0,1.141-.244,1.352-1.378,1.2a.892.892,0,0,1-.564-.234" transform="translate(-37.231 -34.552)" fill="#b2d0e0"/>
          <path id="Trazado_142105" data-name="Trazado 142105" d="M112.87,104.964c-.015-2.011-.025-4.02-.048-6.031,0-.325.091-.441.437-.467,1.532-.116,1.535-.129,1.529,1.4-.005,1.7-.018,3.4-.028,5.093a1.82,1.82,0,0,1-1.89.006" transform="translate(-39.579 -34.526)" fill="#b3d1e1"/>
          <path id="Trazado_142106" data-name="Trazado 142106" d="M86.235,98.538a6.914,6.914,0,0,1,1.737.016,35.751,35.751,0,0,1,.071,3.739c.017.6,0,1.2,0,1.8,0,1.036-.472,1.385-1.454,1.088-.244-.074-.43-.185-.425-.475.035-2.056-.09-4.113.067-6.167" transform="translate(-30.223 -34.551)" fill="#b2d0e0"/>
          <path id="Trazado_142107" data-name="Trazado 142107" d="M119.652,98.543a6.766,6.766,0,0,1,1.737.005c.159,1.715.062,3.434.053,5.15,0,.571-.986,1.277-1.538,1.213a.315.315,0,0,1-.32-.358c.038-2-.094-4.009.068-6.011" transform="translate(-41.946 -34.551)" fill="#b2d0e0"/>
          <path id="Trazado_142108" data-name="Trazado 142108" d="M74.654,33.571l0-1.885c1.542-.015,3.084-.026,4.626-.049.291,0,.4.09.428.4.16,1.535.143,1.57-1.368,1.565-1.229,0-2.458-.019-3.687-.03" transform="translate(-26.189 -11.098)" fill="#fda613"/>
          <path id="Trazado_142109" data-name="Trazado 142109" d="M76.108,108.493l4.068,0c.114,2.008.114,2.008-1.828,2.008h-.391c-1.641,0-1.964-.353-1.848-2.005" transform="translate(-26.692 -38.059)" fill="#89b9d3"/>
          <path id="Trazado_142110" data-name="Trazado 142110" d="M119.6,98.572c0,1.879.018,3.759-.005,5.638-.007.584.127.661.662.418a1.6,1.6,0,0,0,1.1-1.745c-.081-1.431-.018-2.87-.016-4.305.277.158.136.423.136.632.008,2.377-.018,4.755.01,7.132.007.563-.173.7-.71.692-1.311-.021-1.311,0-1.312-1.328,0-2.142-.012-4.284,0-6.426,0-.234-.151-.522.141-.706" transform="translate(-41.893 -34.58)" fill="#87b7d1"/>
          <path id="Trazado_142111" data-name="Trazado 142111" d="M86.179,98.563c0,1.929.033,3.86-.014,5.788-.019.78.45.656.912.663s.86.061.845-.649c-.04-1.928-.009-3.858-.006-5.786.254.134.132.371.133.557.005,2.4-.02,4.807.008,7.209.007.577-.2.69-.723.682-1.3-.017-1.3.007-1.3-1.258,0-2.167-.012-4.335,0-6.5,0-.232-.153-.522.145-.7" transform="translate(-30.168 -34.576)" fill="#87b7d0"/>
          <path id="Trazado_142112" data-name="Trazado 142112" d="M99.529,98.6c0,1.85.046,3.7-.008,5.55-.022.752.237.972.929.886a8.047,8.047,0,0,1,.937-.014c.008.26.024.52.025.78,0,1.24,0,1.209-1.225,1.245-.6.018-.8-.133-.795-.772.036-2.422.007-4.846.006-7.269,0-.143-.063-.319.13-.406" transform="translate(-34.866 -34.588)" fill="#87b7d0"/>
          <path id="Trazado_142113" data-name="Trazado 142113" d="M106.161,105.025c1.851.021,1.85.021,1.852-1.8q0-2.3.014-4.609c.166.106.113.277.113.425,0,2.457-.017,4.912,0,7.369,0,.458-.106.638-.608.641-1.394.009-1.4.034-1.391-1.319,0-.235.016-.469.025-.7" transform="translate(-37.233 -34.594)" fill="#87b7d0"/>
          <path id="Trazado_142114" data-name="Trazado 142114" d="M92.814,108.493l1.885,0a9.02,9.02,0,0,0,.044,1.095c.124.784-.207.974-.948.926-1.153-.075-1,.119-1.012-1,0-.34.02-.678.032-1.018" transform="translate(-32.548 -38.06)" fill="#89b9d2"/>
          <path id="Trazado_142115" data-name="Trazado 142115" d="M112.855,108.5l1.89-.006a7.581,7.581,0,0,0,.037,1.018c.142.846-.229,1-1.019,1.023-.837.021-1.069-.257-.958-1.019a9.969,9.969,0,0,0,.049-1.016" transform="translate(-39.564 -38.059)" fill="#89b9d2"/>
          <path id="Trazado_142116" data-name="Trazado 142116" d="M68.606,97.843a.994.994,0,0,1,.5-.505l.655.392a1.918,1.918,0,0,1-1.153.113" transform="translate(-24.067 -34.147)" fill="#f3a116"/>
          <path id="Trazado_142117" data-name="Trazado 142117" d="M100.577,80.264a8.128,8.128,0,0,1-2.371-.011,10.488,10.488,0,0,1-5.255-3.4,1.282,1.282,0,0,1,.031-2,13.06,13.06,0,0,1,1.964-1.8c3.046-2.251,6.156-2.191,9.233.184,1.051.811,1.042.8,2.078.019a7.746,7.746,0,0,1,4.5-1.836c1.246-.029,1.775.811,1.172,1.911a4.771,4.771,0,0,0-.488,3.924,4.428,4.428,0,0,0,.517,1.214,1.212,1.212,0,0,1-1.235,1.895,7.34,7.34,0,0,1-2.625-.7,4.509,4.509,0,0,1-2.29-1.28.8.8,0,0,0-1.209.023c-1.189.926-2.381,1.9-4.022,1.869" transform="translate(-32.444 -25.047)"/>
          <path id="Trazado_142118" data-name="Trazado 142118" d="M42.571,44.753c3.172-.088,5.581,1.8,6.005,4.574a5.494,5.494,0,0,1-3.948,6.223A7.3,7.3,0,0,1,43,55.784a3.081,3.081,0,0,0-2.969,2.725c-.076.544-.071,1.1-.195,1.635a5.517,5.517,0,0,1-10.9-1.213,14.3,14.3,0,0,1,11.6-13.969,11.9,11.9,0,0,1,2.029-.208" transform="translate(-10.151 -15.699)"/>
          <path id="Trazado_142119" data-name="Trazado 142119" d="M104.95,83.693a9.34,9.34,0,0,0,4.229-2.3c.321-.3.521-.294.837,0a10.718,10.718,0,0,0,2.455,1.681,5.907,5.907,0,0,1-3.012.658,18.358,18.358,0,0,1-4.509-.045" transform="translate(-36.817 -28.476)" fill="#e74343"/>
          <path id="Trazado_142120" data-name="Trazado 142120" d="M59.525,73.418a1.12,1.12,0,0,1-1.087-.758,1.082,1.082,0,0,1,.31-1.287,8.212,8.212,0,0,1,.8-.5,7.848,7.848,0,0,0,2.893-3.235c.4-.816,1.055-1.068,1.715-.712.612.33.762.987.378,1.779a9.819,9.819,0,0,1-4.269,4.464,1.474,1.474,0,0,1-.737.245" transform="translate(-20.47 -23.424)"/>
          <path id="Trazado_142121" data-name="Trazado 142121" d="M106.445,58.1c.367,0,.734-.018,1.1,0a1.13,1.13,0,0,1,1.154,1.141,1.109,1.109,0,0,1-1.046,1.173,14.888,14.888,0,0,1-2.43,0,1.163,1.163,0,0,1,.124-2.317c.365-.016.732,0,1.1,0" transform="translate(-36.551 -20.38)" fill="#000101"/>
          <path id="Trazado_142122" data-name="Trazado 142122" d="M100.989,75.025a6.281,6.281,0,0,1,3.97,1.876c.233.2.119.354-.056.512-2.683,2.414-5.008,2.5-7.749.017-.217-.2-.263-.369-.023-.578a6.03,6.03,0,0,1,3.858-1.827" transform="translate(-34.018 -26.319)" fill="#017196"/>
          <path id="Trazado_142123" data-name="Trazado 142123" d="M116.749,78.959a5.183,5.183,0,0,1-1.3-.819c-.889-.7-.893-.7.021-1.411.267-.207.549-.4.832-.582a5.367,5.367,0,0,1,.5-.248,16.148,16.148,0,0,0-.047,3.06" transform="translate(-40.266 -26.626)" fill="#017094"/>
          <path id="Trazado_142124" data-name="Trazado 142124" d="M32.57,59.964A11.857,11.857,0,0,1,44.264,48.377a3.156,3.156,0,0,1,3.328,3.046,3.226,3.226,0,0,1-3.064,3.262c-3.51.278-5.292,2.048-5.647,5.61a3.15,3.15,0,0,1-2.993,3.056,3.207,3.207,0,0,1-3.319-3.387" transform="translate(-11.426 -16.971)" fill="#e84444"/>
          <path id="Trazado_142125" data-name="Trazado 142125" d="M38.192,58.93a1.169,1.169,0,0,1-1.027-1.644,9.41,9.41,0,0,1,5.029-4.727,1.074,1.074,0,0,1,1.45.594,1.12,1.12,0,0,1-.541,1.535,8.192,8.192,0,0,0-3.87,3.645,1.139,1.139,0,0,1-1.041.6" transform="translate(-12.999 -18.404)"/>
          <path id="Trazado_142126" data-name="Trazado 142126" d="M43.55,87.1A43.55,43.55,0,1,1,87.1,43.55,43.6,43.6,0,0,1,43.55,87.1m0-82.935A39.385,39.385,0,1,0,82.935,43.55,39.429,39.429,0,0,0,43.55,4.165" fill="#fe0000"/>
          <rect id="Rectángulo_38678" data-name="Rectángulo 38678" width="4.165" height="85.692" transform="translate(13.714 13.333) rotate(-45)" fill="#fe0000"/>
        </g>
      </g>
    </g>
  </g>
</svg>
