<svg xmlns="http://www.w3.org/2000/svg" xmlns:xlink="http://www.w3.org/1999/xlink" width="133" height="116" viewBox="0 0 133 116">
  <defs>
    <clipPath id="clip-path">
      <rect id="Rect치ngulo_38680" data-name="Rect치ngulo 38680" width="88.61" height="88.687" transform="translate(0 0)" fill="none"/>
    </clipPath>
  </defs>
  <g id="Grupo_161625" data-name="Grupo 161625" transform="translate(-722 -7519)">
    <rect id="Rect치ngulo_36141" data-name="Rect치ngulo 36141" width="133" height="116" transform="translate(722 7519)" fill="#c4d1ff"/>
    <g id="Grupo_161736" data-name="Grupo 161736" transform="translate(744 7533)">
      <g id="Grupo_161736-2" data-name="Grupo 161736" clip-path="url(#clip-path)">
        <path id="Trazado_142127" data-name="Trazado 142127" d="M13.983,74.823c-.973.569-1.4.529-2.118-.251A43.336,43.336,0,0,1,.293,49.529,43.905,43.905,0,0,1,24.933,4.5,44.273,44.273,0,0,1,87.4,34.067a40.638,40.638,0,0,1,1.045,6.652c.01.136-.022.294.16.354v6.752a44.2,44.2,0,0,1-.784,6.052,43.961,43.961,0,0,1-9.311,18.984,44.958,44.958,0,0,1-11.5,9.839,43.532,43.532,0,0,1-16.45,5.76c-.99.137-2,.054-2.988.226h-6.58a18.587,18.587,0,0,0-3.36-.5,44.466,44.466,0,0,1-21.5-9.583c-.716-.582-.776-1.08-.3-1.965a1.225,1.225,0,0,1,1.909-.328c.856.585,1.644,1.264,2.494,1.863A41.23,41.23,0,0,0,39.4,85.54a40.6,40.6,0,0,0,24.114-4.4A41.1,41.1,0,0,0,79.446,66.381a30.792,30.792,0,0,0,2.573-4.791,38.618,38.618,0,0,0,3.545-13.135,40.735,40.735,0,0,0-6-25.9A41.235,41.235,0,0,0,61.946,6.8,40.634,40.634,0,0,0,47.465,3.018a40.632,40.632,0,0,0-22.252,4.5A41.181,41.181,0,0,0,8.351,23.608,40.372,40.372,0,0,0,3.19,38.566,41.6,41.6,0,0,0,4.465,56.028a45.453,45.453,0,0,0,2.057,5.506A38.3,38.3,0,0,0,11.7,70.072c.73.926,1.512,1.81,2.3,2.685.71.786.684,1.434-.021,2.066"/>
        <path id="Trazado_142128" data-name="Trazado 142128" d="M82.2,61.676a32.921,32.921,0,0,1-4.49,7.649A40.683,40.683,0,0,1,52.4,85.259c-12.5,2.386-23.838-.43-33.953-8.154q-.345-.263-.683-.532a1.322,1.322,0,0,0-1.93.061l-1.849-1.811a1.534,1.534,0,0,0-.316-2.146A40.832,40.832,0,0,1,6.618,62.312c-.1-.2-.163-.424-.244-.636.421-.06.531.285.68.547A43.045,43.045,0,0,0,28.785,81.059a42.661,42.661,0,0,0,11.234,2.7,42.746,42.746,0,0,0,29.933-8.371,43.786,43.786,0,0,0,11.482-13.01c.177-.3.257-.742.762-.7" fill="#e5485d"/>
        <path id="Trazado_142129" data-name="Trazado 142129" d="M82.2,61.676a8.149,8.149,0,0,0-1.307,2,41.03,41.03,0,0,1-7.848,9.459,41.872,41.872,0,0,1-17.465,9.517,48.166,48.166,0,0,1-8.113,1.389,41.613,41.613,0,0,1-12.73-.938A42.745,42.745,0,0,1,11.089,68.437,43.289,43.289,0,0,1,6.678,61.97a1.443,1.443,0,0,0-.3-.294A37.717,37.717,0,0,1,2.94,49.964a39.989,39.989,0,0,1,1.874-19.09C9.464,17.94,18.277,9.037,31.344,4.758A39.984,39.984,0,0,1,67,9.418,40.342,40.342,0,0,1,85.335,37.052a40.737,40.737,0,0,1-2.9,24.17c-.069.156-.162.3-.243.454" fill="#fe5876"/>
        <path id="Trazado_142130" data-name="Trazado 142130" d="M69.711,19.086c.507.69,1.274,1.163,1.652,1.962a4.081,4.081,0,0,0,1.15,2.929,33.807,33.807,0,0,1,6.418,16.651,34.212,34.212,0,0,1-2.907,18.023,2.9,2.9,0,0,1-.372.68c-.9.984-1.51,2.17-2.3,3.229a35.78,35.78,0,0,1-23.51,14.316,38.3,38.3,0,0,1-4.291.416c-.336.018-.859.2-.943-.436a3.03,3.03,0,0,0,.834-2.451c-.032-.633,0-1.268-.007-1.9a3.3,3.3,0,0,0-.087-.858c-.153-.563-.4-1.046-1.083-1.034-.638.011-.877.465-1.023,1a3.556,3.556,0,0,0-.1.942c0,.691.015,1.383-.005,2.074a2.844,2.844,0,0,0,.8,2.205c.015.635-.5.472-.8.461a36.21,36.21,0,0,1-4.3-.4A36.081,36.081,0,0,1,14.35,61.333a13.4,13.4,0,0,0-1.4-1.969A26.893,26.893,0,0,1,10.4,52.4a32.479,32.479,0,0,1-.965-8.478,35.224,35.224,0,0,1,3.019-13.665A34.859,34.859,0,0,1,39.921,9.821,34.4,34.4,0,0,1,60.44,13.5a32.01,32.01,0,0,1,6.817,4.7,2.643,2.643,0,0,0,2.454.883" fill="#e3edf8"/>
        <path id="Trazado_142131" data-name="Trazado 142131" d="M69.711,19.086a1.506,1.506,0,0,1-2.087-.245,33.433,33.433,0,0,0-18.268-8.692,33.736,33.736,0,0,0-27.371,7.816,33.52,33.52,0,0,0-11.9,21.211,33.123,33.123,0,0,0,3.029,20.078,43,43,0,0,0,7.288,9.821A34.36,34.36,0,0,0,39.77,78.428,34.337,34.337,0,0,0,73.47,62.5c.671-1.074,1.346-2.146,1.981-3.243A31.659,31.659,0,0,0,78.6,48.64a34.086,34.086,0,0,0-3.943-20.872,31.84,31.84,0,0,0-3.146-4.748,1.489,1.489,0,0,1-.145-1.971c.973-.625,1.484-.549,2.2.375a36.1,36.1,0,0,1,7.8,20.244A37.037,37.037,0,0,1,58.872,78.589a34.879,34.879,0,0,1-19.023,2.669C25.281,79.193,15.1,71.26,9.586,57.684a36.8,36.8,0,0,1,8.7-39.92A35.942,35.942,0,0,1,39.01,7.551a36.607,36.607,0,0,1,30.3,9.3c.915.81.973,1.2.4,2.237"/>
        <path id="Trazado_142132" data-name="Trazado 142132" d="M31.643,37.419a1.333,1.333,0,0,1-1.927-.183c-2.386-2.134-4.791-4.247-7.165-6.394a3.9,3.9,0,1,1,5.209-5.807q7.375,6.547,14.731,13.119a2.43,2.43,0,0,0,3.129-.074c2.369-2.4,4.715-4.83,7.114-7.2a3.872,3.872,0,0,1,6.524,1.757,3.811,3.811,0,0,1-1.06,3.81c-2.557,2.583-5.083,5.2-7.67,7.751-.776.766-.555,1.833-1.031,2.677-.128.228.274.4.463.555q6.456,5.427,12.918,10.846a8.916,8.916,0,0,1,.714.629,1.288,1.288,0,0,1-1.693,1.94c-.281-.2-.536-.437-.8-.659Q54.7,54.814,48.321,49.436a.844.844,0,0,0-1.171-.12,5.7,5.7,0,0,1-8.421-3.565,1.994,1.994,0,0,0-.646-1.074c-1.327-1.154-2.635-2.331-3.947-3.5-.873-.782-.941-1.136-.441-2.174a1.244,1.244,0,0,1,1.859-.277c.876.566,1.526,1.4,2.369,2.007.356.251.566.932,1.046.724.5-.216.751-.833,1.076-1.3.11-.158-.011-.33-.128-.465-.187-.217-.4-.406-.609-.608q-3.657-3.229-7.291-6.486c-1.841-1.657-3.729-3.26-5.532-4.959a5.367,5.367,0,0,0-.724-.614,1.1,1.1,0,0,0-1.5.071,1.081,1.081,0,0,0,.07,1.56c.608.61,1.264,1.177,1.918,1.74,1.79,1.541,3.526,3.141,5.306,4.693,1.005.876,1,1.687.086,2.333"/>
        <path id="Trazado_142133" data-name="Trazado 142133" d="M75.451,59.253a31.932,31.932,0,0,1-7.089,9.916A34.311,34.311,0,0,1,47.87,78.785,34.768,34.768,0,0,1,13.175,59.5a1.12,1.12,0,0,1-.057-.248,26.747,26.747,0,0,1,2.243,3.132A36.6,36.6,0,0,0,22.5,69.671a35.325,35.325,0,0,0,14.246,6.6,42.415,42.415,0,0,0,6.37.807c.274.017.582.093.819-.149a.45.45,0,0,1,.695,0,2.009,2.009,0,0,0,1.422.139,39.463,39.463,0,0,0,9.829-1.907,36.252,36.252,0,0,0,11.78-6.794,39.933,39.933,0,0,0,7.345-8.608c.124-.19.2-.421.442-.508" fill="#d4dff1"/>
        <path id="Trazado_142134" data-name="Trazado 142134" d="M37.846,40.932c-.692-.6-1.4-1.173-2.072-1.792A1.473,1.473,0,0,0,33.7,39c-.721-.48-1.185-1.293-2.053-1.581.682-.9.665-1.367-.2-2.142-2.248-2.019-4.515-4.016-6.781-6.015-.48-.425-1-.833-.934-1.556a1.3,1.3,0,0,1,2.21-.8c1.218,1.009,2.378,2.088,3.56,3.141q4.8,4.278,9.6,8.56a4.845,4.845,0,0,1,.346.382,2.979,2.979,0,0,1-1.6,1.945" fill="#405b6c"/>
        <path id="Trazado_142135" data-name="Trazado 142135" d="M44.632,76.931h-.695a1.385,1.385,0,0,1-.953-1.449c-.013-1.241-.023-2.482,0-3.722.02-.91.506-1.424,1.275-1.436.805-.013,1.3.515,1.321,1.479.024,1.211-.007,2.424.01,3.635a1.531,1.531,0,0,1-.961,1.493" fill="#020202"/>
        <path id="Trazado_142136" data-name="Trazado 142136" d="M45.579,15.153c0,.66.034,1.323-.009,1.98A1.286,1.286,0,0,1,43,17.119q-.063-2.022,0-4.047a1.2,1.2,0,0,1,1.248-1.265,1.264,1.264,0,0,1,1.332,1.279,1.649,1.649,0,0,1,.007.172q0,.948,0,1.895h-.009" fill="#020202"/>
        <path id="Trazado_142137" data-name="Trazado 142137" d="M15.108,43.06c.632,0,1.265-.032,1.894.008a1.26,1.26,0,0,1,1.321,1.292,1.245,1.245,0,0,1-1.315,1.295q-1.98.063-3.962,0a1.248,1.248,0,0,1-1.321-1.29,1.287,1.287,0,0,1,1.316-1.3,1.649,1.649,0,0,1,.172-.007h1.895v.006" fill="#020202"/>
        <path id="Trazado_142138" data-name="Trazado 142138" d="M73.539,43.06c.66,0,1.323-.032,1.981.008a1.262,1.262,0,0,1,1.324,1.289,1.249,1.249,0,0,1-1.314,1.3c-1.319.043-2.642.042-3.961,0a1.245,1.245,0,0,1-1.323-1.287,1.258,1.258,0,0,1,1.312-1.3c.658-.042,1.321-.009,1.981-.009" fill="#020202"/>
        <path id="Trazado_142139" data-name="Trazado 142139" d="M48.775,38.636c1.916-1.949,3.827-3.905,5.753-5.844a1.339,1.339,0,0,1,1.861-.108,1.315,1.315,0,0,1,.007,1.867c-2,2.03-4.025,4.031-6.041,6.042a3.959,3.959,0,0,1-1.58-1.957" fill="#405b6b"/>
        <path id="Trazado_142140" data-name="Trazado 142140" d="M41.191,44.536a3.1,3.1,0,1,1,6.187,0c-1.3,1.814-4.89,1.812-6.187,0" fill="#fe5875"/>
        <path id="Trazado_142141" data-name="Trazado 142141" d="M41.191,44.536a7.982,7.982,0,0,0,2.3,1.065,4.429,4.429,0,0,0,3.439-.817,4.066,4.066,0,0,1,.449-.247,3.1,3.1,0,0,1-6.187,0" fill="#e5485d"/>
        <path id="Trazado_142142" data-name="Trazado 142142" d="M37.846,40.932l1.6-1.945c.195.165.381.343.588.491.5.36.48.7,0,1.067a1.811,1.811,0,0,0-.291.314c-.894,1.129-.894,1.13-1.9.073" fill="#2d4355"/>
        <path id="Trazado_142143" data-name="Trazado 142143" d="M48.775,38.636a18.21,18.21,0,0,1,1.579,1.957c-.846,1-.846,1-1.679.1-.019-.021-.039-.041-.059-.062-.962-1.019-.962-1.019.159-1.99" fill="#2d4355"/>
      </g>
    </g>
  </g>
</svg>
