<svg xmlns="http://www.w3.org/2000/svg" xmlns:xlink="http://www.w3.org/1999/xlink" width="133" height="116" viewBox="0 0 133 116">
  <defs>
    <clipPath id="clip-path">
      <rect id="Rect치ngulo_38681" data-name="Rect치ngulo 38681" width="78.768" height="93.807" fill="none"/>
    </clipPath>
  </defs>
  <g id="Grupo_161626" data-name="Grupo 161626" transform="translate(-722 -7519)">
    <rect id="Rect치ngulo_36141" data-name="Rect치ngulo 36141" width="133" height="116" transform="translate(722 7519)" fill="#c4d1ff"/>
    <g id="Grupo_161737" data-name="Grupo 161737" transform="translate(749 7530)">
      <g id="Grupo_161737-2" data-name="Grupo 161737" clip-path="url(#clip-path)">
        <path id="Trazado_142144" data-name="Trazado 142144" d="M9.691,6.23c-.215-.716-.139-1.4.592-1.716C13.645,3.064,16.862,1.254,20.465.4A3.668,3.668,0,0,0,21.993,0h3.663c.734.194,1.511.085,2.239.329a7.125,7.125,0,0,1,4.754,4.82,1.253,1.253,0,0,0,1.435,1.024c3.571-.038,7.142-.032,10.713,0a1.149,1.149,0,0,0,1.314-.937,7.2,7.2,0,0,1,4.7-4.881C51.443.128,52.132.209,52.768,0h3.664a7.967,7.967,0,0,0,2.079.443c2.79.626,5.286,1.987,7.881,3.1,2.4,1.029,4.734,2.241,7.174,3.168,4.341,1.648,5.563,5.269,5.116,9.239-.533,4.731-2.532,8.924-4.89,12.969a30.467,30.467,0,0,1-4.363,5.961,5.891,5.891,0,0,1-3.2,1.821c-.619.11-.736.442-.826.963-.722,4.17-1.425,8.345-2.22,12.5a23.108,23.108,0,0,1-3.442,8.391c-.221.337-.386.584-.049,1.016,4.091,5.241,6.417,11.284,7.9,17.688a68.5,68.5,0,0,1,1.646,14.785c.008.68-.1,1.28-.813,1.581-.9.378-1.639-.046-1.954-1.132a1.474,1.474,0,0,1-.213-.962,76.378,76.378,0,0,0-1.059-11,48.637,48.637,0,0,0-4.52-13.782,14.3,14.3,0,0,1-1.956,2.356,1.725,1.725,0,0,1-2.281.518,1.634,1.634,0,0,1-.327-.294,1.608,1.608,0,0,1,.205-2.372,25.943,25.943,0,0,0,2.06-2.447,1.865,1.865,0,0,0-.62-2.5c-.387-.207-.554.128-.757.326a27.946,27.946,0,0,1-3.049,2.76,24.565,24.565,0,0,1-29.989-.671c-.745-.588-1.365-1.309-2.044-1.965-.708-.684-.78-.682-1.368.144-.318.447-.6.923-.922,1.365a1.062,1.062,0,0,0,.192,1.593,26.44,26.44,0,0,0,12.667,7.152,27.184,27.184,0,0,0,17.048-1.147c.678-.28,1.311-.652,1.987-.935,1.117-.466,1.716-.239,2.318.86.153,1.208,0,1.553-1.176,2.179A25.961,25.961,0,0,1,43.9,76.444a13.6,13.6,0,0,1-2.184.207c-.456-.012-.653.212-.629.682.056,1.1.01,2.2.028,3.295.006.337-.008.706.443.785a.861.861,0,0,0,1.024-.4c.2-.376.368-.771.582-1.141a5.358,5.358,0,0,1,9.566,4.806,1.954,1.954,0,0,0-.005,1.738,5.229,5.229,0,0,1-.584,5.375,1.456,1.456,0,0,1-.84.663c-2.524,1.8-4.374,1.806-6.854.033a3.13,3.13,0,0,1-1.653-1.958,1.278,1.278,0,0,0-1.392-.894c-1.367.04-2.736.031-4.1,0a1.179,1.179,0,0,0-1.259.809,3.3,3.3,0,0,1-1.695,2.039c-2.48,1.775-4.342,1.766-6.853-.033-.566-.14-.817-.608-1.083-1.052a5.079,5.079,0,0,1-.371-4.905,2.061,2.061,0,0,0-.009-1.818,5.371,5.371,0,0,1,9.693-4.624c.211.335.334.721.56,1.05a.857.857,0,0,0,.982.3c.394-.085.406-.416.41-.723.014-1.068,0-2.137,0-3.205,0-.568-.254-.8-.829-.84A30.155,30.155,0,0,1,19.26,69.469c-.329-.274-.628-.579-.932-.879-.752-.742-.8-.737-1.22.2a45.122,45.122,0,0,0-2.177,5.927A58.709,58.709,0,0,0,12.69,88.5c-.049,1.094-.173,2.187-.166,3.286a.942.942,0,0,1-.2.686,1.321,1.321,0,0,1-1.5,1.267,1.3,1.3,0,0,1-1.262-1.5c.1-9.721,1.708-19.1,6.345-27.788a30.419,30.419,0,0,1,3.134-4.821c.237-.294.412-.51.121-.933a27.368,27.368,0,0,1-4.119-11.505c-.517-3.25-1.121-6.485-1.682-9.728-.065-.375-.142-.632-.634-.719a6.443,6.443,0,0,1-3.877-2.416A39.406,39.406,0,0,1,.3,17.278a11.216,11.216,0,0,1,.228-5.965,6.76,6.76,0,0,1,3.172-3.86c1.073-.61,1.566-.515,2.346.433a1.149,1.149,0,0,1-.312,1.759C2.737,11.413,2.653,14.134,3.3,17.025A37.18,37.18,0,0,0,11.28,32.6a3.432,3.432,0,0,0,1.839,1.142,2.3,2.3,0,0,0,3.011-1.763c1.791-6.087,3.631-12.16,5.37-18.261a10.067,10.067,0,0,1,6.945-7.036c1.234-.423,1.337-.669.533-1.756A5.311,5.311,0,0,0,24.522,3a16.37,16.37,0,0,0-7.171,1.61c-1.843.808-3.677,1.64-5.52,2.45-1.133.5-1.8.216-2.14-.829" transform="translate(0)" fill="#060606"/>
        <path id="Trazado_142145" data-name="Trazado 142145" d="M11.158,7.688c.768.975,1.038,1.039,2.178.555,2.521-1.07,4.951-2.364,7.554-3.232a12.965,12.965,0,0,1,6.663-.62,4.557,4.557,0,0,1,3.579,2.667c.306.689.208.978-.583,1.164a9.885,9.885,0,0,0-6.624,5.059,21.466,21.466,0,0,0-1.4,4.335c-1.579,5.278-3.2,10.544-4.652,15.858A2.768,2.768,0,0,1,13.6,35.063a6.6,6.6,0,0,1-1.819-1.784A37.94,37.94,0,0,1,4.512,18.466,9.526,9.526,0,0,1,4.4,14.293,4.088,4.088,0,0,1,6.5,11.338a1.633,1.633,0,0,0,1.01-1.994l3.65-1.656" transform="translate(-1.467 -1.458)" fill="#be7645"/>
        <path id="Trazado_142146" data-name="Trazado 142146" d="M18.888,128.429c0-8.663,1.358-17.046,5.121-25.021.847.757,1.623,1.5,2.452,2.185a29.4,29.4,0,0,0,17.134,6.759c.791.052,1.053.279,1,1.078-.072,1.125-.005,2.258-.027,3.386-.007.315.192.86-.417.795-.551-.059-1.289.427-1.614-.489a5.36,5.36,0,0,0-3.864-3.682,4.772,4.772,0,0,0-5.13,1.8,4.9,4.9,0,0,0-.589,5.57,1.323,1.323,0,0,1,0,1.395c-1.078,2.07-.68,4.16,1.1,6.2l-15.17.024" transform="translate(-6.567 -35.954)" fill="#f4a16a"/>
        <path id="Trazado_142147" data-name="Trazado 142147" d="M77.986,106.142l.181.173a10.491,10.491,0,0,1,1.565,3.665,61.055,61.055,0,0,1,2.58,13.976c.081,1.307.134,2.611.15,3.919.012,1,.094,1.075,1.113,1.085,1.157.011,2.314-.016,3.47.014.362.009.815-.117.995.394l-15.013-.013a5.207,5.207,0,0,0,.932-6.524.757.757,0,0,1,.052-.825,5.185,5.185,0,0,0-3.707-7.711,5.352,5.352,0,0,0-5.683,3.514,1.521,1.521,0,0,1-1.872.761c-.264-.111-.239-.324-.24-.53-.006-1.373.012-2.746-.016-4.119-.016-.8.58-.568.967-.594a27.3,27.3,0,0,0,10.924-3.023,1.551,1.551,0,0,0,.986-1.98c-.033-.086-.076-.21-.023-.26a7.883,7.883,0,0,1,2.639-1.922" transform="translate(-21.728 -36.904)" fill="#f4a16a"/>
        <path id="Trazado_142148" data-name="Trazado 142148" d="M96.395,127.846a22.509,22.509,0,0,0-4.26-.132c-1.847-.06-1.573.239-1.588-1.61a60.708,60.708,0,0,0-3.078-18.659c-.294-.891-.631-1.768-.948-2.652a1.531,1.531,0,0,0,2.1-.44c.721-.857,1.474-1.687,2.266-2.588,4.155,8.243,5.645,17.016,5.661,26.111a.236.236,0,0,1-.157-.029" transform="translate(-30.083 -35.382)" fill="#e58d53"/>
        <path id="Trazado_142149" data-name="Trazado 142149" d="M52.648,140.144a6.244,6.244,0,0,0,1.646-2.577.557.557,0,0,1,.625-.488c1.854.022,3.709.016,5.563,0,.311,0,.5.064.593.4a6.282,6.282,0,0,0,1.676,2.661h-10.1" transform="translate(-18.305 -47.661)" fill="#f3a16a"/>
        <path id="Trazado_142150" data-name="Trazado 142150" d="M61.468,59.537a13.179,13.179,0,0,0-7.583-5.083,12.917,12.917,0,0,0-3.269-.313c-2.56.074-5.138-.252-7.678.187a12.647,12.647,0,0,0-10.4,10.438,1.667,1.667,0,0,1-.085.249c-.406-.116-.581-.46-.81-.727a22.555,22.555,0,0,1-5.1-11.263c-.616-3.7-1.271-7.389-1.94-11.078-.079-.436-.023-.646.382-.858a5.251,5.251,0,0,0,2.609-3.462c1.753-6.118,3.564-12.219,5.364-18.324a7.228,7.228,0,0,1,6.859-5.222q8.1-.07,16.21.006a6.859,6.859,0,0,1,5.492,2.653A43.166,43.166,0,0,1,62.8,23c.575,2.992,1.13,5.992,1.42,9.029A83.362,83.362,0,0,1,64.7,41.6a2.356,2.356,0,0,1-.034.455c-.044.2-.044.481-.289.518-.327.05-.311-.3-.436-.485-.664-2.548-2.082-4.376-4.776-4.978a5.912,5.912,0,0,0-6.943,5.231,1.517,1.517,0,0,0,.32,1.286,1.089,1.089,0,0,0,1.808-.364,3.723,3.723,0,0,0,.17-.895,3.565,3.565,0,0,1,7.043-.161c.059.267.1.54.174.8a1.125,1.125,0,0,0,1.754.777c.237-.116.426-.369.742-.263a3.669,3.669,0,0,1,.235,2.486c-.218,2.516-.472,5.029-.9,7.522a26.38,26.38,0,0,1-1.286,4.848c-.168.447-.3.943-.811,1.156" transform="translate(-8.543 -4.883)" fill="#f4a16a"/>
        <path id="Trazado_142151" data-name="Trazado 142151" d="M80.767,4.235a17.171,17.171,0,0,1,6.8,1.594c3.639,1.634,7.254,3.328,10.944,4.836,2.859,1.168,3.975,3.025,3.508,6.591-.627,4.787-2.8,8.975-5.288,13.017a26.809,26.809,0,0,1-2.766,3.748,3.856,3.856,0,0,1-2.711,1.522,2.387,2.387,0,0,1-2.662-1.863q-2.3-7.745-4.582-15.5c-.294-.992-.606-1.978-.881-2.976A9.553,9.553,0,0,0,75.84,8.251c-.864-.234-.909-.536-.592-1.232.925-2.026,2.7-2.579,4.695-2.78.272-.027.549,0,.823,0" transform="translate(-26.1 -1.469)" fill="#be7645"/>
        <path id="Trazado_142152" data-name="Trazado 142152" d="M83.761,43.322l.311.636a82.166,82.166,0,0,0-.3-8.417c-.162-2.143-.405-4.269-.773-6.384-.518-2.973-1.051-5.945-1.553-8.92a7.088,7.088,0,0,1-.258-2.061,4.4,4.4,0,0,1,1.251,2.08c1.875,6.363,3.772,12.719,5.614,19.092A5.109,5.109,0,0,0,90.5,42.5c.286.166.581.25.485.731-.948,4.777-1.5,9.631-2.707,14.355a20.4,20.4,0,0,1-4.615,8.419c-.095.108-.175.262-.427.215a14.265,14.265,0,0,0-2.1-5.246,22.068,22.068,0,0,0,2-7.035,58.931,58.931,0,0,0,.772-8.108c0-.292.1-.615-.171-.858a1.252,1.252,0,0,1,.027-1.65" transform="translate(-28.209 -6.32)" fill="#e58d53"/>
        <path id="Trazado_142153" data-name="Trazado 142153" d="M66.417,101.983c-.8.82-1.881,1.292-2.615,2.183-.777-.965-1.134-1.04-2.265-.474a27.618,27.618,0,0,1-31.76-5.257c-.679-.687-.74-1.16-.177-1.893.59-.768,1.051-1.635,1.71-2.362a24.331,24.331,0,0,0,36.462.023.8.8,0,0,1,.2.154c1.7,2.507,1.814,1.553-.05,4.074A10.836,10.836,0,0,1,66.71,99.8a1.5,1.5,0,0,0-.293,2.183" transform="translate(-10.159 -32.745)" fill="#f44c5a"/>
        <path id="Trazado_142154" data-name="Trazado 142154" d="M43.853,131.1a2.473,2.473,0,0,1,.645-1.549c1.073-1.221,1.067-1.395-.025-2.674a2.342,2.342,0,0,1-.573-2.038,2.461,2.461,0,0,1,2.408-2.1,2.813,2.813,0,0,1,2.429,2.472c.171,1.662.419,1.885,2.1,1.886q3.89,0,7.781,0c1.466,0,1.8-.321,1.926-1.785a2.728,2.728,0,0,1,2.545-2.53,2.659,2.659,0,0,1,2.367,2.68,2.381,2.381,0,0,1-.8,1.585c-.875.9-.871,1.423-.026,2.344a2.469,2.469,0,0,1,.517,3.079,2.434,2.434,0,0,1-2.7,1.063,2.713,2.713,0,0,1-1.9-2.521c-.072-1.209-.489-1.646-1.689-1.654q-4.211-.026-8.423,0c-1.224.008-1.6.427-1.692,1.742a2.743,2.743,0,0,1-2.563,2.611,2.547,2.547,0,0,1-2.324-2.612" transform="translate(-15.247 -42.676)" fill="#f2f2fe"/>
        <path id="Trazado_142155" data-name="Trazado 142155" d="M68.072,81.031a9.9,9.9,0,0,1,6.1,9.277.784.784,0,0,1-.411.654,21.693,21.693,0,0,1-10.614,4.064c-.524.057-.709-.094-.672-.628a13.9,13.9,0,0,0,0-1.828c-.075-1.2-.1-2.324,1.3-2.9.485-.2.74-.785,1.012-1.267.808-1.431,1.612-2.863,2.447-4.277a4.78,4.78,0,0,0,.832-3.09" transform="translate(-21.713 -28.174)" fill="#fef2a6"/>
        <path id="Trazado_142156" data-name="Trazado 142156" d="M46.56,81.151a5.037,5.037,0,0,0,.884,3.076c.826,1.386,1.618,2.792,2.4,4.2a4.144,4.144,0,0,0,1.834,1.849.725.725,0,0,1,.488.767c-.021,1.159-.034,2.319,0,3.477.018.547-.237.588-.664.542a21.482,21.482,0,0,1-10.469-3.958.793.793,0,0,1-.354-.678,10,10,0,0,1,5.877-9.278" transform="translate(-14.14 -28.215)" fill="#fef2a6"/>
        <path id="Trazado_142157" data-name="Trazado 142157" d="M58.223,79.722c.914,0,1.828-.02,2.742.007a1.3,1.3,0,0,1,1.213,2.021c-.877,1.635-1.79,3.254-2.755,4.838a1.391,1.391,0,0,1-2.585-.034q-1.287-2.208-2.535-4.44c-.812-1.451-.277-2.38,1.362-2.392.853-.006,1.706,0,2.559,0" transform="translate(-18.75 -27.716)" fill="#be7545"/>
        <path id="Trazado_142158" data-name="Trazado 142158" d="M41.679,48.865a6.121,6.121,0,0,1,6.044,5.992,1.333,1.333,0,0,1-1.255,1.5,1.366,1.366,0,0,1-1.487-1.387,3.372,3.372,0,0,0-3.3-3.355A3.3,3.3,0,0,0,38.3,54.872a1.476,1.476,0,0,1-1.594,1.476c-.844-.119-1.245-.728-1.157-1.764a6.121,6.121,0,0,1,6.129-5.719" transform="translate(-12.356 -16.99)" fill="#060606"/>
        <path id="Trazado_142159" data-name="Trazado 142159" d="M78.7,53.981l-.027,1.65a1.476,1.476,0,0,1-1.663.654c-.733-.2-.916-.761-1-1.457A3.36,3.36,0,0,0,72.587,51.6c-1.8.032-3.063,1.329-3.278,3.365a1.365,1.365,0,0,1-1.49,1.377,1.336,1.336,0,0,1-1.252-1.5A6.089,6.089,0,0,1,78.46,53.1c.093.289.158.587.235.881" transform="translate(-23.144 -16.978)" fill="#060606"/>
      </g>
    </g>
  </g>
</svg>
