<svg xmlns="http://www.w3.org/2000/svg" xmlns:xlink="http://www.w3.org/1999/xlink" width="133" height="116" viewBox="0 0 133 116">
  <defs>
    <clipPath id="clip-path">
      <rect id="Rect치ngulo_38910" data-name="Rect치ngulo 38910" width="89.189" height="82.213" fill="none"/>
    </clipPath>
  </defs>
  <g id="Grupo_161631" data-name="Grupo 161631" transform="translate(-722 -7519)">
    <rect id="Rect치ngulo_36141" data-name="Rect치ngulo 36141" width="133" height="116" transform="translate(722 7519)" fill="#c4d1ff"/>
    <g id="Grupo_162309" data-name="Grupo 162309" transform="translate(744 7536)">
      <g id="Grupo_162308" data-name="Grupo 162308" clip-path="url(#clip-path)">
        <path id="Trazado_143601" data-name="Trazado 143601" d="M0,29.784a4.466,4.466,0,0,1,3.407-3.205c.5-.09.3-.4.221-.646a17.6,17.6,0,0,1-.66-6.54,14.927,14.927,0,0,1,2.454-7.417A11.358,11.358,0,0,1,18.53,7.568l.814.271A5.485,5.485,0,0,0,14.14,2.8a1.779,1.779,0,0,1-1.284-.418A1.3,1.3,0,0,1,12.544.867,1.429,1.429,0,0,1,14.009,0a8.514,8.514,0,0,1,8.107,6.851c.06.336.113.673.179,1.063a11.712,11.712,0,0,1,8.96-.1.688.688,0,0,0,.708-.161,11.36,11.36,0,0,1,10.191-1.5c.159.048.3.184.486.074a5.446,5.446,0,0,0-4.96-3.438c-1.21-.072-1.9-1.014-1.428-1.982A1.479,1.479,0,0,1,37.758,0a8.482,8.482,0,0,1,7.8,5.9c.187.589.307.668.907.451A11.306,11.306,0,0,1,57.22,7.668a.761.761,0,0,0,.794.116,11.611,11.611,0,0,1,8.708.075A3.417,3.417,0,0,0,66.175,5.8a5.568,5.568,0,0,0-4.688-3c-1.094-.086-1.725-.61-1.691-1.454.035-.882.735-1.378,1.875-1.331a8.505,8.505,0,0,1,7.822,6.865c.054.311.106.623.171,1a20.56,20.56,0,0,1,2.675-.744c6.358-.945,11.721,2.735,13.354,9.186a17.933,17.933,0,0,1-.11,9.454c-.134.472-.18.726.447.879A4.043,4.043,0,0,1,89.17,30.64c.022,1.886.029,3.773,0,5.659a4.113,4.113,0,0,1-3.769,4.07.82.82,0,0,0-.879.768q-3.84,16.539-7.7,33.072c-.23.987-.436,1.98-.709,2.955A6.837,6.837,0,0,1,69.557,82.2q-24.946.024-49.891,0a6.737,6.737,0,0,1-6.615-5.163C11.619,71.191,10.274,65.321,8.9,59.457Q6.772,50.324,4.669,41.182a.874.874,0,0,0-.932-.825,4.026,4.026,0,0,1-3.551-2.9c-.045-.13-.017-.294-.186-.36Z" transform="translate(0 0)"/>
        <path id="Trazado_143602" data-name="Trazado 143602" d="M88.271,47.074c.28.294.161.661.164,1,.012,1.538.006,3.075.005,4.613,0,1.462-.441,1.891-1.935,1.891H25.754q-9.487,0-18.974-.006c-.362,0-.759.129-1.083-.164a4.231,4.231,0,0,0,.255-1.619c-.01-1.1-.021-2.205,0-3.307.035-1.52.618-2.1,2.115-2.149.406-.012.813-.005,1.218-.005q38.507,0,77.013,0a4.855,4.855,0,0,0,1.968-.252" transform="translate(-2.052 -16.952)" fill="#e6ecf4"/>
        <path id="Trazado_143603" data-name="Trazado 143603" d="M47.019,65.686q.542,10.771,1.085,21.542c.248,4.952.479,9.9.756,14.855.034.607-.124.722-.683.717q-4.219-.036-8.439,0c-.529.005-.763-.131-.843-.675q-1.307-8.9-2.648-17.788Q34.9,75.317,33.541,66.3c-.056-.371-.074-.747-.109-1.122a1.436,1.436,0,0,1,1.142-.283q5.591-.013,11.181,0c.576,0,1.207-.048,1.264.8" transform="translate(-12.04 -23.366)" fill="#c9a68b"/>
        <path id="Trazado_143604" data-name="Trazado 143604" d="M97.246,65.173c-.438,3.066-.863,6.135-1.319,9.2Q94.5,84,93.038,93.617c-.425,2.835-.854,5.671-1.255,8.509-.077.546-.315.68-.843.674q-4.219-.039-8.439,0c-.561,0-.714-.113-.683-.718.459-8.889.882-17.78,1.323-26.67.161-3.243.345-6.485.519-9.727.045-.78.616-.792,1.179-.793,3.033-.013,6.066,0,9.1-.005.751,0,1.5-.011,2.253.006a1.344,1.344,0,0,1,1.055.282" transform="translate(-29.463 -23.366)" fill="#c9a68b"/>
        <path id="Trazado_143605" data-name="Trazado 143605" d="M51.669,14.1a8.461,8.461,0,0,1,6.967-.566c1.748.569,1.743.585,1.742,2.4,0,.283,0,.568,0,.878-.5-.037-.742-.388-1.055-.619a1.379,1.379,0,0,0-1.952.1,1.406,1.406,0,0,0,.1,1.957,6.184,6.184,0,0,0,8.56.047,1.4,1.4,0,0,0,.125-1.955,1.357,1.357,0,0,0-1.948-.133c-.3.215-.593.437-1.039.765,0-.927.01-1.692,0-2.458-.006-.291.15-.363.386-.469,5.859-2.609,11.488.175,13,6.476a15.684,15.684,0,0,1-.978,10.116.708.708,0,0,1-.747.54q-12.711-.035-25.422-.039a1.271,1.271,0,0,1-.468-.612c-1.843-5.332-1.81-10.465,1.589-15.256.326-.459.843-.706,1.145-1.173" transform="translate(-17.183 -4.697)" fill="#bfe565"/>
        <path id="Trazado_143606" data-name="Trazado 143606" d="M14.668,16.264a8.153,8.153,0,0,1,7.361-.4,6.555,6.555,0,0,0,5.445.015,8.211,8.211,0,0,1,5.824-.267,15.561,15.561,0,0,0-2.6,6.265,18.4,18.4,0,0,0,.788,9.083c.336.976.335.978-.733.976L11.872,31.91a1.416,1.416,0,0,1-.51-.883A16.317,16.317,0,0,1,12.4,19.192a11.211,11.211,0,0,1,2.268-2.929" transform="translate(-3.863 -5.464)" fill="#de552d"/>
        <path id="Trazado_143607" data-name="Trazado 143607" d="M97.907,15.39a6.84,6.84,0,0,1,2.666.7,4.989,4.989,0,0,0,4.216.033c4.727-2.243,10.944-.427,12.693,6.422a15.27,15.27,0,0,1-.344,8.736c-.135.408-.27.689-.817.686-6.38-.032-12.761-.034-19.141-.044-.263-.412,0-.781.107-1.156,1.2-4.384,1.353-8.72-.532-12.98-.259-.584-.6-1.12-.87-1.7-.288-.621-.194-.77.474-.764a5.741,5.741,0,0,1,1.549.061" transform="translate(-34.475 -5.479)" fill="#de552d"/>
        <path id="Trazado_143608" data-name="Trazado 143608" d="M66.171,96.062c-1.625,0-3.249-.022-4.873.012-.549.012-.776-.148-.8-.708-.141-3.331-.291-6.662-.47-9.991-.035-.644.389-.452.683-.453,2.524-.012,5.047-.007,7.57-.007,1.161,0,2.321.015,3.481-.007.466-.009.639.07.607.621q-.273,4.776-.437,9.557c-.026.786-.273,1.028-1.063,1-1.564-.065-3.132-.019-4.7-.019" transform="translate(-21.617 -30.573)" fill="#a1795d"/>
        <path id="Trazado_143609" data-name="Trazado 143609" d="M72.645,65.17c-.134,3.066-.273,6.131-.395,9.2-.019.458-.218.565-.648.563q-5.736-.022-11.471,0c-.43,0-.63-.106-.648-.563-.122-3.066-.261-6.131-.395-9.2a1.527,1.527,0,0,1,1.147-.281q5.631-.012,11.263,0a1.522,1.522,0,0,1,1.146.281" transform="translate(-21.279 -23.366)" fill="#c2947a"/>
        <path id="Trazado_143610" data-name="Trazado 143610" d="M87.784,46.589c0,.337-.1.561-.5.535-.26-.017-.522,0-.783,0H7.778c-1.688,0-2.032.344-2.033,2.03,0,1.364-.008,2.728.005,4.093,0,.394-.038.705-.539.674a1.232,1.232,0,0,1-.856-1.344c-.008-1.77-.015-3.539,0-5.308a1.4,1.4,0,0,1,1.5-1.536c.145-.006.29,0,.435,0H86c.736,0,1.477-.028,1.779.861" transform="translate(-1.565 -16.467)" fill="#f2fcfe"/>
        <path id="Trazado_143611" data-name="Trazado 143611" d="M71.821,112.189c-.075,1.623-.163,3.246-.218,4.869-.018.545-.131.813-.784.8-2.814-.04-5.63-.025-8.445-.009-.465,0-.753-.037-.777-.618q-.21-5.045-.482-10.086c-.019-.359.1-.455.43-.454,3.366.006,6.733.01,10.1,0,.534,0,.427.308.41.63-.082,1.623-.155,3.246-.23,4.869h0" transform="translate(-22.008 -38.422)" fill="#c2947b"/>
        <path id="Trazado_143612" data-name="Trazado 143612" d="M111.48,84.919c1.421,0,2.842.012,4.264-.006.473-.006.664.045.523.622q-1.2,4.933-2.309,9.89c-.113.5-.307.655-.8.651q-3.785-.031-7.57,0c-.447,0-.673-.021-.583-.6.518-3.317,1-6.641,1.481-9.964.066-.452.259-.617.734-.606,1.421.033,2.842.012,4.263.012" transform="translate(-37.807 -30.577)" fill="#a1795d"/>
        <path id="Trazado_143613" data-name="Trazado 143613" d="M120.32,65.7q-1,4.4-2,8.8c-.081.362-.286.427-.618.426-3.014-.011-6.029-.007-9.043-.005-.28,0-.493.015-.426-.41.5-3.112.971-6.229,1.453-9.345a.935.935,0,0,1,.628-.255c3.112-.049,6.223-.054,9.335.005.454.008.905.138.667.788" transform="translate(-38.974 -23.361)" fill="#c2947b"/>
        <path id="Trazado_143614" data-name="Trazado 143614" d="M18.677,84.947c2.61-.01,5.219,0,7.829-.041.48-.007.6.218.652.6.49,3.322.975,6.644,1.481,9.964.065.429.036.617-.477.61-2.348-.033-4.7-.029-7.046-.038a1.744,1.744,0,0,1-.4-.947C20.037,92.035,19.28,89,18.6,85.941c-.075-.336-.194-.681.076-.994" transform="translate(-6.666 -30.577)" fill="#a1795d"/>
        <path id="Trazado_143615" data-name="Trazado 143615" d="M104.285,117.834h-1.39c-1.28,0-1.261,0-1.059-1.3.459-2.973.91-5.948,1.331-8.926.094-.669.273-.968,1.057-.944,2.316.07,4.635.042,6.952.014.6-.008.82.085.65.758-.585,2.327-1.1,4.67-1.668,7a4.138,4.138,0,0,1-4.309,3.4c-.521,0-1.043,0-1.564,0" transform="translate(-36.637 -38.411)" fill="#c2947b"/>
        <path id="Trazado_143616" data-name="Trazado 143616" d="M23.458,65.169q.524,3.3,1.046,6.6c.134.858.219,1.724.385,2.576.091.468-.019.594-.492.589-2.7-.028-5.39-.028-8.085-.038-.312-.129-.367-.417-.438-.7-.658-2.625-1.225-5.272-1.854-7.9-.1-.418-.329-.9.165-1.267a2.306,2.306,0,0,1,.937-.132q3.594-.01,7.187,0a1.581,1.581,0,0,1,1.149.278" transform="translate(-4.998 -23.367)" fill="#c2947b"/>
        <path id="Trazado_143617" data-name="Trazado 143617" d="M23.637,106.721c2.261-.009,4.523,0,6.783-.042.482-.008.59.214.646.593.517,3.493,1.037,6.986,1.568,10.558a48.6,48.6,0,0,1-5.237-.09,2.273,2.273,0,0,1-1.332-.566,2.4,2.4,0,0,1-.442-1.021c-.644-2.778-1.282-5.559-1.949-8.332a1.661,1.661,0,0,1-.036-1.1" transform="translate(-8.482 -38.418)" fill="#c2947b"/>
        <path id="Trazado_143618" data-name="Trazado 143618" d="M97.054,15.4H94.929a24.82,24.82,0,0,1,1.7,3.554,17.726,17.726,0,0,1,.795,8.1,23.918,23.918,0,0,1-1.092,4.881,4.515,4.515,0,0,1-1.435-.045c1.971-5.627,1.944-11.071-1.529-16.257a6.891,6.891,0,0,1,3.691-.232" transform="translate(-33.622 -5.485)" fill="#d53c28"/>
        <path id="Trazado_143619" data-name="Trazado 143619" d="M51.018,14.7c-.067.687-.71.969-1.062,1.45a13.806,13.806,0,0,0-2.6,7.654,18.2,18.2,0,0,0,1.4,7.938c-.955.271-1.368-.2-1.683-1.058a15.2,15.2,0,0,1-.057-11.5A8.19,8.19,0,0,1,51.018,14.7" transform="translate(-16.532 -5.293)" fill="#d1f47c"/>
        <path id="Trazado_143620" data-name="Trazado 143620" d="M14,16.877c.01.589-.538.829-.83,1.194a13.469,13.469,0,0,0-2.847,8.423,18.348,18.348,0,0,0,.882,6.029c-1.469.04-1.228.255-1.644-1.149a14.474,14.474,0,0,1,.427-10.019A8.162,8.162,0,0,1,14,16.877" transform="translate(-3.194 -6.078)" fill="#e56345"/>
        <path id="Trazado_143621" data-name="Trazado 143621" d="M46.9,65.047c-.169-.433-.481-.532-.938-.53-4.217.022-8.433.016-12.649.018-.371-1.4-.371-1.4,1.031-1.4,3.8,0,7.6.036,11.406-.026.943-.015,1.243.287,1.15,1.158a7.221,7.221,0,0,0,0,.781" transform="translate(-11.922 -22.727)" fill="#c2947b"/>
        <path id="Trazado_143622" data-name="Trazado 143622" d="M98.281,64.549c-4.216,0-8.432,0-12.647-.017-.457,0-.77.1-.939.529-.034-1.911-.034-1.911,1.846-1.911H97.25c1.4,0,1.4,0,1.031,1.4" transform="translate(-30.498 -22.742)" fill="#c2947a"/>
        <path id="Trazado_143623" data-name="Trazado 143623" d="M72.61,64.546H59.054c-.145-1.4-.145-1.4,1.209-1.4H71.4c1.354,0,1.354,0,1.21,1.4" transform="translate(-21.244 -22.742)" fill="#af876d"/>
        <path id="Trazado_143624" data-name="Trazado 143624" d="M121.144,65.082c.024-.654-.45-.537-.84-.538q-4.9,0-9.791,0c.04-1.394.04-1.394,1.364-1.394h9.709a7.518,7.518,0,0,1-.443,1.932" transform="translate(-39.799 -22.742)" fill="#af876d"/>
        <path id="Trazado_143625" data-name="Trazado 143625" d="M18.028,84.937c.377,2.209.991,4.365,1.462,6.552.326,1.513.793,3,.976,4.539-1.273.064-1.267.062-1.552-1.173-.7-3.033-1.375-6.073-2.135-9.091-.2-.809.025-.96.731-.857.17.025.345.021.518.031" transform="translate(-6.017 -30.566)" fill="#c2947a"/>
        <path id="Trazado_143626" data-name="Trazado 143626" d="M13.19,64.543q1.129,4.861,2.257,9.724c-1.376.074-1.381.075-1.687-1.23q-1.142-4.887-2.281-9.793a2.037,2.037,0,0,1,1.007-.066c.289.427.351.971.7,1.366" transform="translate(-4.134 -22.741)" fill="#c9a68b"/>
        <path id="Trazado_143627" data-name="Trazado 143627" d="M13.757,64.546c-.773-.178-.676-.8-.7-1.366,3.119-.01,6.238-.025,9.357-.025,1.075,0,.6.872.75,1.39h-9.4" transform="translate(-4.701 -22.744)" fill="#b0886d"/>
        <path id="Trazado_143628" data-name="Trazado 143628" d="M23.008,106.711q1.044,4.386,2.086,8.773c.131.555.228,1.12.341,1.68a3.692,3.692,0,0,1-1.907-2.614c-.552-2.295-1.027-4.609-1.628-6.89-.218-.827-.086-1.112.764-.978.113.018.23.02.344.029" transform="translate(-7.853 -38.407)" fill="#c9a68b"/>
      </g>
    </g>
  </g>
</svg>
