<svg xmlns="http://www.w3.org/2000/svg" xmlns:xlink="http://www.w3.org/1999/xlink" width="133" height="116" viewBox="0 0 133 116">
  <defs>
    <clipPath id="clip-path">
      <rect id="Rect치ngulo_38683" data-name="Rect치ngulo 38683" width="85.254" height="88.464" fill="none"/>
    </clipPath>
  </defs>
  <g id="Grupo_161632" data-name="Grupo 161632" transform="translate(-722 -7519)">
    <rect id="Rect치ngulo_36141" data-name="Rect치ngulo 36141" width="133" height="116" transform="translate(722 7519)" fill="#c4d1ff"/>
    <g id="Grupo_161739" data-name="Grupo 161739" transform="translate(747.709 7532.536)">
      <g id="Grupo_161739-2" data-name="Grupo 161739" clip-path="url(#clip-path)">
        <path id="Trazado_142175" data-name="Trazado 142175" d="M47.19,31.063c-.492-1.035-.4-1.445.486-2.142a32.516,32.516,0,0,1,16.69-6.966c.712-.082.6-.314.382-.789a18.6,18.6,0,0,1,.993-17.961A14.648,14.648,0,0,1,68.273,0h1.036a30.656,30.656,0,0,0,2.95,1.066A18.74,18.74,0,0,1,83.336,14.29c.165.666.255,1.351.394,2.109.442-.273.862-.557,1.3-.8q10.513-5.833,20.588.732a1.8,1.8,0,0,1,.884,2.092,18.908,18.908,0,0,1-6.656,11.631,17.744,17.744,0,0,1-5.343,3.083c-.608.223-.759.35-.288.924a32.219,32.219,0,0,1,6.033,11.417,33.287,33.287,0,0,1-7.029,31.575c-.694.791-1.13.866-2.108.363a1.177,1.177,0,0,1-.364-1.7,7.748,7.748,0,0,1,.89-1.164,29.572,29.572,0,0,0,6.585-13.69,30.2,30.2,0,0,0-4.082-22.114,28.987,28.987,0,0,0-2.722-3.671,1.648,1.648,0,0,0-1.591-.621A18.147,18.147,0,0,1,79.24,32.42a13.853,13.853,0,0,0-2.651-1.013,18.593,18.593,0,0,1-9.371-6.015,1.73,1.73,0,0,0-2.025-.681,29.451,29.451,0,0,0-14.477,5.457c-.562.4-1.079.858-1.67,1.213a1.263,1.263,0,0,1-1.857-.318" transform="translate(-21.302)"/>
        <path id="Trazado_142176" data-name="Trazado 142176" d="M39.358,51.469c.815.641,1.516.367,2.243-.21a29.837,29.837,0,0,1,12.33-5.851,13.372,13.372,0,0,1,3.4-.483,1.532,1.532,0,0,1,.72.59A19.636,19.636,0,0,0,68.9,52.734a31.239,31.239,0,0,1,3.711,1.62,17.983,17.983,0,0,0,8.263,1.389,2.659,2.659,0,0,1,2.688,1.4,32.492,32.492,0,0,1,5.457,15.088,32.111,32.111,0,0,1-16.087,31.061,7.373,7.373,0,0,0-1.219.811,19.267,19.267,0,0,1-5.348,1.614,30.093,30.093,0,0,1-9.772.3c-.327-.046-.712-.01-.887-.407.019-.449.4-.612.689-.82a27.7,27.7,0,0,0,8.237-9.158,26.446,26.446,0,0,0,3.5-12.145c.014-.375.074-.744.1-1.116a2.472,2.472,0,0,0-2.17-2.749,8.071,8.071,0,0,0-1.377-.059q-16.477,0-32.955,0a4.248,4.248,0,0,1-1.453-.11.951.951,0,0,1-.463-.866A30.664,30.664,0,0,1,32.24,63.01,27.879,27.879,0,0,1,36.415,56.1a3.136,3.136,0,0,0,.976-2.7,13.744,13.744,0,0,1,1.967-1.932" transform="translate(-13.47 -20.406)" fill="#fe7400"/>
        <path id="Trazado_142177" data-name="Trazado 142177" d="M23.92,60.171a1.594,1.594,0,0,1-.259,2.172,30.641,30.641,0,0,0-7.05,23.242,3.4,3.4,0,0,0,.133.5c.279,1.059,1.057,1.131,1.99,1.125,4.967-.032,9.934-.016,14.9-.015.915,0,1.737.144,2.04,1.186-.021,1.272-.551,1.844-1.818,1.883s-2.524.006-3.894.011c3.159,3.149,6.248,6.255,9.357,9.34,1.608,1.619,1.351,1.738,2.735-.165a18.634,18.634,0,0,0,3.278-8.317c.086-.57-.079-.89-.713-.859-.372.018-.745.005-1.119.028-1.2.01-2.4.051-3.594-.014a1.629,1.629,0,0,1-1.78-1.483c.223-1.156.652-1.562,1.778-1.568,3.592-.017,7.184-.035,10.776.006A3.238,3.238,0,0,1,53.864,91a27.307,27.307,0,0,1-11.852,20.214,2.957,2.957,0,0,0-.888.669c.337.315.878.1,1.167.484a24.543,24.543,0,0,0,7.266.315,26.173,26.173,0,0,0,8.646-2.031,43.99,43.99,0,0,0,7.317-4.281c.93-.7,1.747-.622,2.3.126.4,1.039.288,1.428-.563,2.074a32.771,32.771,0,0,1-17.1,6.678,32.4,32.4,0,0,1-12.619-1.272,2.52,2.52,0,0,0-1.651.051,26.231,26.231,0,0,1-23.322-2.545A26.054,26.054,0,0,1,.518,94.14C.286,93.046.148,91.929.023,90.817a2.922,2.922,0,0,1,3.032-3.367c3.4-.022,6.792-.033,10.188.013.8.011,1.023-.179.9-.981a31.77,31.77,0,0,1,.685-12.406,33.153,33.153,0,0,1,7.045-13.644c.622-.735,1.09-.776,2.044-.259" transform="translate(0 -27.176)"/>
        <path id="Trazado_142178" data-name="Trazado 142178" d="M104.324,99.6a1.55,1.55,0,0,0-2.166.027,29.685,29.685,0,0,1-6.957,3.988,4.741,4.741,0,0,1-.49.14c1.2-.775,2.412-1.528,3.591-2.331a31.38,31.38,0,0,0,7.833-7.772A30.947,30.947,0,0,0,111.388,81.5a32.212,32.212,0,0,0,.294-10.678,33.492,33.492,0,0,0-4.721-12.9c-.044-.074-.1-.139-.14-.216-.748-1.566-1.952-2.018-3.677-1.881a16.468,16.468,0,0,1-9.091-2.123c-1.517-.8-3.2-1.08-4.763-1.733a19.736,19.736,0,0,1-8.454-6.562c-.153-.207-.313-.408-.47-.612a1.746,1.746,0,0,1,2.209.664A18.219,18.219,0,0,0,92.742,51.7a4.29,4.29,0,0,1,1.108.447,18.368,18.368,0,0,0,11.2,2.34,1.765,1.765,0,0,1,1.757.7,30.245,30.245,0,0,1,7.344,22.418,29.771,29.771,0,0,1-6.6,16.732c-.34.428-.684.854-1.052,1.257a1.49,1.49,0,0,0-.178,2.1l-2,1.9" transform="translate(-36.508 -20.281)" fill="#fd4100"/>
        <path id="Trazado_142179" data-name="Trazado 142179" d="M125.057,28.645c-.337,2.034-.671,3.957-.962,5.886a.838.838,0,0,1-.575.749c-1.619.669-3.237,1.339-4.837,2.048-.58.257-.754.171-.666-.474.256-1.878.485-3.76.722-5.64a.811.811,0,0,1,.449-.679,16.075,16.075,0,0,1,5.869-1.89" transform="translate(-53.602 -13.012)" fill="#00c279"/>
        <path id="Trazado_142180" data-name="Trazado 142180" d="M98.428,26.651c-.668-2.1-1.29-4.066-1.916-6.028a.683.683,0,0,1,.229-.691q1.646-1.937,3.28-3.884c.236-.283.382-.332.628.014a16.548,16.548,0,0,1,2.428,4.914c.065.219.157.422-.041.637-1.509,1.643-3.012,3.291-4.609,5.038" transform="translate(-43.829 -7.186)" fill="#00c279"/>
        <path id="Trazado_142181" data-name="Trazado 142181" d="M126.558,49.833l-4.592-3.392c2.024-.859,3.924-1.662,5.821-2.475a.663.663,0,0,1,.711.134q1.962,1.4,3.934,2.8c.089.316-.126.49-.331.638a15,15,0,0,1-5.049,2.36.539.539,0,0,1-.494-.061" transform="translate(-55.405 -19.948)" fill="#00c279"/>
        <path id="Trazado_142182" data-name="Trazado 142182" d="M84.011,25.9c1.332.338,2.66.688,4,1a.71.71,0,0,1,.553.567c.593,1.883,1.19,3.764,1.835,5.8-1.7-.344-3.3-.655-4.864-1.123a1.593,1.593,0,0,1-.648-.772,15.9,15.9,0,0,1-1.41-4.386c-.069-.4-.388-1.1.538-1.09" transform="translate(-37.87 -11.767)" fill="#00c279"/>
        <path id="Trazado_142183" data-name="Trazado 142183" d="M134.19,33.776c.285-1.735.542-3.284.792-4.834.051-.315.136-.514.536-.488a16.075,16.075,0,0,1,6.656,1.942l-7.984,3.38" transform="translate(-60.958 -12.924)" fill="#00c279"/>
        <path id="Trazado_142184" data-name="Trazado 142184" d="M90.631,5.988a16.026,16.026,0,0,1,4.9,2.931c.293.255.395.407.095.743-.915,1.03-1.793,2.093-2.787,3.263l-2.2-6.937" transform="translate(-41.171 -2.72)" fill="#00c279"/>
        <path id="Trazado_142185" data-name="Trazado 142185" d="M85.034,9.048l2.318,7.271a39.415,39.415,0,0,1-4.018-1.055,1.174,1.174,0,0,1-.224-.969,15.272,15.272,0,0,1,1.214-4.862c.118-.249.164-.84.711-.385" transform="translate(-37.747 -4.034)" fill="#00c279"/>
        <path id="Trazado_142186" data-name="Trazado 142186" d="M138.41,39.241l6.683-2.829a14.549,14.549,0,0,1-2.553,5.221c-.177.231-.341.268-.572.1-1.145-.806-2.293-1.61-3.558-2.5" transform="translate(-62.875 -16.541)" fill="#00c279"/>
        <path id="Trazado_142187" data-name="Trazado 142187" d="M106.048,43.99a15.877,15.877,0,0,1,4.431-7.346c-.232,1.833-.461,3.511-.647,5.194a.873.873,0,0,1-.6.828c-1.012.4-2.012.834-3.179,1.323" transform="translate(-48.174 -16.646)" fill="#00c279"/>
        <path id="Trazado_142188" data-name="Trazado 142188" d="M116.16,54.424,118,55.751a16.5,16.5,0,0,1-10.184-1.8l1.634-.683c.876.141,1.7.493,2.557.69a21.029,21.029,0,0,0,4.158.463" transform="translate(-48.975 -24.199)" fill="#009454"/>
        <path id="Trazado_142189" data-name="Trazado 142189" d="M82.955,25.519c-.661.224-.4.758-.314,1.143a17.982,17.982,0,0,0,1.834,5.1,7.477,7.477,0,0,1-1.51-.292.763.763,0,0,1-.59-.535,17.271,17.271,0,0,1-1.327-5.39c-.042-.427.069-.593.522-.434s.923.271,1.386.4" transform="translate(-36.813 -11.383)" fill="#009555"/>
        <path id="Trazado_142190" data-name="Trazado 142190" d="M117.521,53.32a5.279,5.279,0,0,1-2.927,0,9.568,9.568,0,0,1-3.788-1.153c.951-.407,1.908-.8,2.847-1.228a.79.79,0,0,1,.931.123c.969.766,1.956,1.507,2.937,2.258" transform="translate(-50.336 -23.095)" fill="#00c279"/>
        <path id="Trazado_142191" data-name="Trazado 142191" d="M93.77,45.806l.619,1.635a16.087,16.087,0,0,1-7-5.118l2.945.712a7.271,7.271,0,0,0,3.438,2.772" transform="translate(-39.697 -19.226)" fill="#009454"/>
        <path id="Trazado_142192" data-name="Trazado 142192" d="M106.145,32.166c.085.571.178.978-.124,1.3a20.472,20.472,0,0,0-3.507,5.308c-.846-1.442-.828-1.691.152-2.77,1.13-1.244,2.257-2.491,3.48-3.84" transform="translate(-46.291 -14.612)" fill="#009454"/>
        <path id="Trazado_142193" data-name="Trazado 142193" d="M84.281,8.527c-.27-.177-.348.032-.423.219a15.558,15.558,0,0,0-1.276,6c-1.244-.207-1.268-.212-1.026-1.4a15.5,15.5,0,0,1,2.323-5.612.99.99,0,0,1,.4.793" transform="translate(-36.993 -3.513)" fill="#009554"/>
        <path id="Trazado_142194" data-name="Trazado 142194" d="M130.381,52.317a16.421,16.421,0,0,0,5.267-2.36,1.514,1.514,0,0,0,.607-.577c.654.266.654.5.083.956a24.369,24.369,0,0,1-3.587,2.326,1.644,1.644,0,0,1-2.37-.344" transform="translate(-59.228 -22.432)" fill="#009554"/>
        <path id="Trazado_142195" data-name="Trazado 142195" d="M96.008,46.4a.343.343,0,0,1-.521.1A15.165,15.165,0,0,1,92.439,44c-.223-.244-.132-.326.131-.374a4.835,4.835,0,0,0,.916.17c1.758-.01,2.368,1.069,2.521,2.6" transform="translate(-41.935 -19.818)" fill="#00c179"/>
        <path id="Trazado_142196" data-name="Trazado 142196" d="M56.23,134.207a9.328,9.328,0,0,1-1.838-.278c.152-.362.472-.449.713-.608a26.616,26.616,0,0,0,12.382-20.053,4.417,4.417,0,0,0,.027-1.708,2.839,2.839,0,0,0-2.709-2.25c-3.713-.033-7.426-.016-11.139-.019a1.368,1.368,0,0,0-1.42,1.239,3.325,3.325,0,0,1-2.744,0c-.238-.985-.9-1.258-1.859-1.253-5.2.028-10.4.013-15.6.013-1.339,0-1.339,0-1.361-1.361q17.618,0,35.236-.015a2.934,2.934,0,0,1,3.02,3.524,37.167,37.167,0,0,1-1.125,7.015,28.2,28.2,0,0,1-5.76,10.566,35.781,35.781,0,0,1-5.824,5.189" transform="translate(-13.938 -49.021)" fill="#fd4100"/>
        <path id="Trazado_142197" data-name="Trazado 142197" d="M51.726,115.212c.143-.011.285-.031.429-.033,1.107-.014,1.095-.015.986,1.087a23.254,23.254,0,0,1-7.157,14.9c-5.736,5.517-12.618,7.912-20.519,6.678C16.217,136.394,9.889,131.1,6.3,122.5A23.438,23.438,0,0,1,4.773,115.9c-.057-.529.129-.76.66-.72.286.021.574.025.86.035a3.13,3.13,0,0,1,.37,1.572,21.966,21.966,0,0,0,5.523,12.038,21.7,21.7,0,0,0,15.043,7.516,21.8,21.8,0,0,0,16.942-5.868,22.138,22.138,0,0,0,7.181-13.863,2.67,2.67,0,0,1,.372-1.4" transform="translate(-2.164 -52.319)" fill="#fe7300"/>
        <path id="Trazado_142198" data-name="Trazado 142198" d="M53,115.22a22.862,22.862,0,0,1-3.243,10.392,22.577,22.577,0,0,1-8.871,8.405,21.843,21.843,0,0,1-7.827,2.445A22.8,22.8,0,0,1,7.974,118.534a13.6,13.6,0,0,1-.41-3.314c1.283-.08,1.233-.073,1.407,1.2a20.783,20.783,0,0,0,10.078,15.694,21.175,21.175,0,0,0,27.1-3.855A20.816,20.816,0,0,0,51.582,116.3c.139-1.156.137-1.156,1.415-1.077" transform="translate(-3.434 -52.327)" fill="#fd4100"/>
        <path id="Trazado_142199" data-name="Trazado 142199" d="M60.288,112.706h2.744c.282,1.058.614,1.332,1.678,1.347,1.236.019,2.472.024,3.707.035a1.174,1.174,0,0,1,.108,1.151,22.2,22.2,0,0,1-3.737,8c-.2.265-.348.719-.856.514l-9.5-9.7c1.284,0,2.64,0,3.995,0,1.215,0,1.493-.208,1.865-1.35" transform="translate(-24.725 -51.199)" fill="#fdbf07"/>
        <path id="Trazado_142200" data-name="Trazado 142200" d="M17.924,115.246H32.032L22.559,124.9c-.358.215-.542-.068-.707-.283a21.3,21.3,0,0,1-4.032-8.975.433.433,0,0,1,.1-.4" transform="translate(-8.09 -52.352)" fill="#fdbf07"/>
        <path id="Trazado_142201" data-name="Trazado 142201" d="M29.677,129.154l9.316-9.085V133.31a.851.851,0,0,1-.8.151,15.915,15.915,0,0,1-7.9-3.507,1.408,1.408,0,0,1-.613-.8" transform="translate(-13.481 -54.543)" fill="#fdbf07"/>
        <path id="Trazado_142202" data-name="Trazado 142202" d="M51.61,133.28V120l9.148,8.954c.209.42-.093.654-.35.869a15.908,15.908,0,0,1-8.072,3.623.788.788,0,0,1-.725-.166" transform="translate(-23.445 -54.513)" fill="#fdbf07"/>
        <path id="Trazado_142203" data-name="Trazado 142203" d="M16.545,115.194a22.194,22.194,0,0,0,3.614,8.57c.288.4.441.952,1.022,1.088-.191.21-.374.428-.574.629-1.073,1.077-1.085,1.083-1.993-.108a18.775,18.775,0,0,1-3.822-9.426c-.075-.66.062-.892.725-.8a9.327,9.327,0,0,0,1.028.042" transform="translate(-6.711 -52.3)" fill="#fe9200"/>
        <path id="Trazado_142204" data-name="Trazado 142204" d="M71.842,124.872c.375-.039.492-.388.667-.62a22.472,22.472,0,0,0,3.778-8.19,4.356,4.356,0,0,0,.042-.856c2.27-.013,2.1-.467,1.707,1.921a18.307,18.307,0,0,1-4.169,8.916c-.3.355-.5.489-.85.073-.366-.437-.781-.831-1.174-1.244" transform="translate(-32.635 -52.315)" fill="#fe9200"/>
        <path id="Trazado_142205" data-name="Trazado 142205" d="M51.582,140.733a14.582,14.582,0,0,0,6.447-2.077c.731-.437,1.416-.952,2.109-1.448a1.125,1.125,0,0,0,.59-.8c.393.373.763.775,1.184,1.113.472.379.311.582-.09.891a19.123,19.123,0,0,1-9.081,3.817c-1.2.176-1.206.179-1.19-1.068,0-.142.02-.285.03-.428" transform="translate(-23.417 -61.966)" fill="#fe9200"/>
        <path id="Trazado_142206" data-name="Trazado 142206" d="M28.6,136.717a17.378,17.378,0,0,0,5.474,3.332,13.529,13.529,0,0,0,3.841.823c.024,1.785.391,1.711-1.591,1.413A18.76,18.76,0,0,1,27.72,138.6c-.494-.373-.562-.628-.062-1.018.336-.262.632-.576.946-.867" transform="translate(-12.408 -62.106)" fill="#fe9200"/>
      </g>
    </g>
  </g>
</svg>
