<svg xmlns="http://www.w3.org/2000/svg" xmlns:xlink="http://www.w3.org/1999/xlink" width="133" height="116" viewBox="0 0 133 116">
  <defs>
    <clipPath id="clip-path">
      <rect id="Rect치ngulo_38684" data-name="Rect치ngulo 38684" width="92.158" height="73.871" fill="none"/>
    </clipPath>
  </defs>
  <g id="Grupo_161633" data-name="Grupo 161633" transform="translate(-722 -7519)">
    <rect id="Rect치ngulo_36141" data-name="Rect치ngulo 36141" width="133" height="116" transform="translate(722 7519)" fill="#c4d1ff"/>
    <g id="Grupo_161740" data-name="Grupo 161740" transform="translate(742 7540)">
      <g id="Grupo_161740-2" data-name="Grupo 161740" transform="translate(0 0)" clip-path="url(#clip-path)">
        <path id="Trazado_142207" data-name="Trazado 142207" d="M92.158,20.011a3.572,3.572,0,0,1-4.1,2.476c1.1,3.446.515,6.912.645,10.336a2.447,2.447,0,0,0,.508,1.536,4.342,4.342,0,0,1-1.291,5.98.643.643,0,0,0-.39.7c.006.66.023,1.321-.018,1.978a3.054,3.054,0,0,1-2.981,2.91q-4.228.055-8.458,0a3.112,3.112,0,0,1-2.978-2.937c-.03-.418-.011-.84-.011-1.259,0-1.2,0-1.2-1.15-1.2-1.247,0-1.247,0-1.247,1.269,0,.75,0,1.5,0,2.25-.016,2.437-1.338,3.748-3.8,3.78a1.277,1.277,0,0,0-.812.106c1.258,3.455.581,7.05.735,10.589a4.968,4.968,0,0,0,.761,2.991,4.459,4.459,0,0,1-1.686,6.186.561.561,0,0,0-.344.63c0,.72.013,1.439,0,2.159a3.285,3.285,0,0,1-3.277,3.347q-4.589.055-9.178,0a3.268,3.268,0,0,1-3.249-3.28c-.022-.689-.03-1.381,0-2.07.021-.448-.082-.637-.584-.629-1.889.027-3.78.01-5.669.012-.149,0-.335-.029-.44.046-1.147.823-2.464.616-3.739.621-3.479.014-6.959,0-10.438.006a3.7,3.7,0,0,1-2.318-.542,1.06,1.06,0,0,0-.689-.131c-1.829,0-3.659.024-5.488-.017-.571-.013-.725.153-.684.7a17.918,17.918,0,0,1,.006,1.978,3.321,3.321,0,0,1-3.335,3.308q-4.544.049-9.088,0A3.253,3.253,0,0,1,4.08,70.788a22.965,22.965,0,0,1-.038-2.337c0-.382-.035-.621-.494-.8a2.863,2.863,0,0,1-1.966-2.914c.01-1.452-.252-2.972,1.074-4.091.211-.177.086-.515.091-.778.066-3.057-.13-6.117.117-9.172a8.619,8.619,0,0,1,.56-2.35c.139-.368.068-.478-.342-.556a3.335,3.335,0,0,1-3.076-3.73c0-1.05-.018-2.1,0-3.149a3.3,3.3,0,0,1,3.238-3.3,23.175,23.175,0,0,1,2.428,0c.6.038.741-.2.821-.753a20.532,20.532,0,0,1,3.364-8.9,10.079,10.079,0,0,1,9-4.8c3.807.1,7.618.022,11.428.022.21,0,.42,0,.629-.008.279-.018.3-.278.35-.456.09-.291-.187-.225-.332-.27-2.112-.658-2.746-1.509-2.752-3.705,0-.87-.024-1.741.009-2.61a3.114,3.114,0,0,1,3.218-3.154c.808-.016,1.807.26,2.371-.117s.387-1.48.583-2.254a16.6,16.6,0,0,1,4.325-8.135A8.2,8.2,0,0,1,44.578,0q15.028,0,30.055,0a8.537,8.537,0,0,1,6.185,2.646c.921.905.953,1.361.192,2.395-.465.623-1.034.475-1.6.2a4.513,4.513,0,0,1-.916-.721A6.03,6.03,0,0,0,74.378,3q-14.4.035-28.791.008c-2.868-.35-4.82,1.087-6.281,3.334a16.089,16.089,0,0,0-2.519,9.574c.007.211-.078.58.317.484.478-.117,1.051-.19,1.145-.837.078-.535.006-1.078.035-1.616a13.574,13.574,0,0,1,2.466-7.391,5.668,5.668,0,0,1,3.077-2.21,2.61,2.61,0,0,1,.64-.065q15.258,0,30.513,0A4.579,4.579,0,0,1,78.25,6.116a12.568,12.568,0,0,1,2.814,7.978c.006.389-.014.779.008,1.168a1.28,1.28,0,0,0,1.318,1.174c.512-.066.339-.5.311-.78a27.13,27.13,0,0,0-.859-5.491,1.638,1.638,0,0,1,.143-1.549c.195-.266.393-.542.788-.5,1.236-.078,1.537.125,1.895,1.273a14.847,14.847,0,0,1,.65,2.969c.049.5.239.662.73.633.656-.038,1.321.042,1.973-.019a3.7,3.7,0,0,1,4.138,2.356Z" transform="translate(0 0)" fill="#050402"/>
        <path id="Trazado_142208" data-name="Trazado 142208" d="M56.258,3.41c1.619-.011,3.238-.032,4.856-.032,8.007,0,16.013.022,24.019-.019A6.246,6.246,0,0,1,89.885,5.3a1.6,1.6,0,0,0,2.021.409A13.918,13.918,0,0,1,93.668,8.79,1.622,1.622,0,0,0,93,10.958a21.808,21.808,0,0,1,.833,6.622c-.638-.21-1.2-.4-1.76-.579-.5-.161-.345-.581-.334-.909a13.909,13.909,0,0,0-1.311-6.9c-.939-1.85-2.069-3.536-4.3-4.027a1.769,1.769,0,0,0-.712-.059q-14.754,0-29.509,0a2.165,2.165,0,0,0-.714.048l-.552.052c.179-.924.946-1.319,1.618-1.8" transform="translate(-10.896 -0.67)" fill="#00b965"/>
        <path id="Trazado_142209" data-name="Trazado 142209" d="M24.154,37.6c3.729-.018,7.458-.044,11.187-.046.948,0,1.638-.283,1.829-1.3a4.267,4.267,0,0,1,3.527-.006c.254,1.026.954,1.323,1.949,1.316,4.048-.026,8.1.044,12.143-.04a3.47,3.47,0,0,1,3.167,1.651,12.662,12.662,0,0,1,2.186,7.012c.051,1.877.042,1.877-1.822,1.877q-18.127,0-36.254,0c-.329,0-.657-.022-.986-.034-.355-.407-.249-.9-.244-1.371a14.67,14.67,0,0,1,2.1-7.661A3.482,3.482,0,0,1,24.154,37.6" transform="translate(-4.151 -7.151)" fill="#60b7fd"/>
        <path id="Trazado_142210" data-name="Trazado 142210" d="M17.816,54.489c2.741-.149,2.741-.15,4.135,2.124.845,1.379,1.679,2.765,2.536,4.136a6.466,6.466,0,0,0,5.737,3.267q7.061.03,14.123.006a6.527,6.527,0,0,0,5.873-3.353c1.124-1.84,2.283-3.659,3.366-5.523a1.216,1.216,0,0,1,1.285-.7,43.68,43.68,0,0,1,4.667.143,8.366,8.366,0,0,1,7.08,8c.066,2.547.01,5.1.035,7.646,0,.47-.138.612-.61.611q-9.941-.02-19.881-.01c-.149,0-.335.036-.442-.036-1.388-.927-2.954-.616-4.461-.631-3.3-.031-6.6-.008-9.9-.01a3.707,3.707,0,0,0-2.15.513,1,1,0,0,1-.591.166L12.974,70.8a4.716,4.716,0,0,1-.163-2.873c.316-.516.757-.251,1.12-.126a5.073,5.073,0,1,0,2.025-9.879,3.529,3.529,0,0,1-1.505-.151c-.3-.331-.062-.612.109-.871a9.43,9.43,0,0,1,1.992-2.116c.39-.317.848-.186,1.265-.3" transform="translate(-2.526 -10.855)" fill="#fe656f"/>
        <path id="Trazado_142211" data-name="Trazado 142211" d="M58.263,9.031c.3-.014.6-.039.9-.039,8.667,0,17.334.011,26-.022a2.4,2.4,0,0,1,2.131,1.055,10.53,10.53,0,0,1,1.861,7.658,2.258,2.258,0,0,1-.89.062q-15.7.006-31.406,0c-1.107,0-1.19-.07-1.216-1.138a12.338,12.338,0,0,1,1.608-6.467,2.431,2.431,0,0,1,1.015-1.112" transform="translate(-11.095 -1.789)" fill="#60b7fd"/>
        <path id="Trazado_142212" data-name="Trazado 142212" d="M76.22,35.8c1.965,0,3.7.007,5.439,0a1.356,1.356,0,0,0,1.39-.932,1.268,1.268,0,0,0-.412-1.455,1.607,1.607,0,0,0-1.186-.307c-1.889,0-3.781-.051-5.668.024-.854.034-1.246-.342-1.6-1.147,1.457,0,2.823.006,4.188,0,.959-.006,1.92-.008,2.876-.059a5.992,5.992,0,0,0,4.98-3.083c.991-1.606,1.987-3.21,2.945-4.836a1.1,1.1,0,0,1,1.134-.656,26.156,26.156,0,0,1,4.748.219,7.42,7.42,0,0,1,5.719,6.9c.091,2.246.015,4.5.04,6.748,0,.474-.152.616-.617.614q-8.864-.018-17.727-.007c-1.7-.773-3.508-.5-5.283-.6-.733-.043-.474-.9-.97-1.411" transform="translate(-14.794 -4.655)" fill="#43ca8d"/>
        <path id="Trazado_142213" data-name="Trazado 142213" d="M31.907,54.5q7.151-.017,14.3-.032c2.758,0,5.516,0,8.334,0a4.13,4.13,0,0,1-.747,1.429c-.7,1.186-1.426,2.358-2.157,3.526a3.537,3.537,0,0,1-3,1.873c-4.2.039-8.393,0-12.591,0a2.294,2.294,0,0,1-.99-1c-.935-1.562-1.891-3.112-2.852-4.659-.207-.333-.549-.666-.3-1.135" transform="translate(-6.346 -10.861)" fill="#fe4756"/>
        <path id="Trazado_142214" data-name="Trazado 142214" d="M40.627,35.533,37.1,35.54c-.247-1.122-.558-1.392-1.705-1.394-4.359-.006-8.718,0-13.078-.006a6.4,6.4,0,0,0-1.846.3c.114-.972.909-1.365,1.588-1.851.115-.082.282-.09.39-.2.329-.015.657-.043.986-.043,10.524,0,21.049.028,31.573-.024a7.136,7.136,0,0,1,6.114,2.988c2.815,3.765,3.7,8.11,3.645,12.71,0,.134.046.3-.139.38-.454.195-1.861-.8-1.843-1.334a17.537,17.537,0,0,0-1.453-7.97,11.987,11.987,0,0,0-1.572-2.609,5.77,5.77,0,0,0-4.878-2.37c-4.136.089-8.276.024-12.413.028-1.256,0-1.471.172-1.842,1.388" transform="translate(-4.082 -6.445)" fill="#fe4756"/>
        <path id="Trazado_142215" data-name="Trazado 142215" d="M64.052,23.38q9.175-.017,18.35-.025c.583,0,1.435-.291,1.684.148s-.462,1.008-.746,1.52c-.421.759-.924,1.472-1.347,2.23a3.707,3.707,0,0,1-3.46,2.017c-2.969.007-5.938.03-8.906-.01-1.076-.014-1.889-.847-2.89-1.134A23.959,23.959,0,0,1,64,23.877a.4.4,0,0,1,.05-.5" transform="translate(-12.75 -4.639)" fill="#00b966"/>
        <path id="Trazado_142216" data-name="Trazado 142216" d="M11.8,67.744q0,1.534-.006,3.067c-1.468.01-2.937.014-4.406.038-.39.006-.612-.066-.6-.536.067-2.786-.175-5.583.118-8.36a8.413,8.413,0,0,1,8.205-7.481c.508-.012,1.018.015,1.527.024a5.764,5.764,0,0,0-3.4,3.175c-.1.358-.432.369-.7.482a5.083,5.083,0,0,0-3.322,4.324,4.859,4.859,0,0,0,2.051,4.609c.229.171.543.288.537.657" transform="translate(-1.348 -10.862)" fill="#fe4756"/>
        <path id="Trazado_142217" data-name="Trazado 142217" d="M65.747,78.29c3.21,0,6.419.026,9.628-.018.79-.01,1.045.2,1.009,1-.075,1.713.189,1.5-1.475,1.505-6.209.006-12.417-.012-18.626.02-.76,0-1.034-.129-.991-.959.078-1.548.021-1.552,1.548-1.552h8.908" transform="translate(-11.025 -15.609)" fill="#deeaf8"/>
        <path id="Trazado_142218" data-name="Trazado 142218" d="M57.43,9.018a12.657,12.657,0,0,0-2.261,5.771c0,.03-.025.057-.026.086-.054.888-.367,1.919.124,2.612.351.5,1.351.154,2.058.155q15.5.028,30.995.028c-.266.215-.577.1-.864.1q-17.5.007-35.006.019c-.792,0-.99-.187-.989-.983A12.117,12.117,0,0,1,52.774,11c.723-1.359,1.654-2.362,3.4-2.033a8.263,8.263,0,0,0,1.255.05" transform="translate(-10.262 -1.776)" fill="#23a7fd"/>
        <path id="Trazado_142219" data-name="Trazado 142219" d="M94.7,46.764c-2.844,0-5.689-.041-8.531.022-1,.022-.71-.6-.747-1.1-.038-.531-.07-.921.739-.916q8.577.062,17.153,0c.929-.007.807.48.826,1.058.019.6.006.978-.82.96-2.872-.058-5.747-.022-8.621-.022" transform="translate(-17.031 -8.928)" fill="#deeaf8"/>
        <path id="Trazado_142220" data-name="Trazado 142220" d="M23.382,38a15.459,15.459,0,0,0-2.616,5.359,19.424,19.424,0,0,0-.46,5.065c-.925.011-1.851.01-2.775.04-.408.014-.582-.1-.586-.547a15.18,15.18,0,0,1,1.593-7.352C19.58,38.576,21.05,37.5,23.382,38" transform="translate(-3.379 -7.554)" fill="#23a7fd"/>
        <path id="Trazado_142221" data-name="Trazado 142221" d="M20.579,32.4A11.229,11.229,0,0,0,18.6,34.451c-2.982,1.636-4.209,4.453-5.026,7.528a20.067,20.067,0,0,0-.5,5.171c0,.476-1.4,1.439-1.825,1.271-.177-.07-.168-.229-.167-.374.045-5.054.841-9.871,4.577-13.672A5.946,5.946,0,0,1,20.579,32.4" transform="translate(-2.211 -6.456)" fill="#fb2d39"/>
        <path id="Trazado_142222" data-name="Trazado 142222" d="M49.569,77.574a6.993,6.993,0,0,1,0,3.611c-1.725.182-3.455.039-5.183.078-.837.018-1.674-.019-2.51.011-.516.019-.8-.168-.837-.685a15.418,15.418,0,0,1,0-2.417c.032-.384.171-.691.652-.681,2.624.053,5.249-.1,7.872.083" transform="translate(-8.175 -15.451)" fill="#afd9f9"/>
        <path id="Trazado_142223" data-name="Trazado 142223" d="M54.453,3.413l-1.618,1.8c-2.724,1.1-3.859,3.439-4.662,6.013a12.879,12.879,0,0,0-.547,4.7c.046.7-.106,1.141-.878,1.249a6.793,6.793,0,0,0-1.154.4,24.038,24.038,0,0,1,.219-4.3,15.085,15.085,0,0,1,3.208-7.5,5.99,5.99,0,0,1,5.432-2.373" transform="translate(-9.091 -0.673)" fill="#00a86b"/>
        <path id="Trazado_142224" data-name="Trazado 142224" d="M50.452,23.411l3.041-.052c.243,0,.48,0,.62.253a38.137,38.137,0,0,1,2.4,4.145c-2.957.134-5.916.022-8.875.06-.721.01-.614-.435-.428-.84a6.638,6.638,0,0,1,3.238-3.567" transform="translate(-9.388 -4.658)" fill="#42c98d"/>
        <path id="Trazado_142225" data-name="Trazado 142225" d="M30.861,54.5a51.7,51.7,0,0,0,2.856,4.857c.385.671.856,1.292,1.287,1.936-.745.009-1.491.038-2.236.023a3.377,3.377,0,0,1-2.84-1.466c-1.15-1.7-2.188-3.475-3.355-5.35Z" transform="translate(-5.299 -10.869)" fill="#fb2d39"/>
        <path id="Trazado_142226" data-name="Trazado 142226" d="M48.366,77.566c-2.489,0-4.978.026-7.466,0-.629-.007-.86.186-.816.817a14.186,14.186,0,0,1,0,1.978c-.045.635.193.821.818.815,2.489-.026,4.978,0,7.467,0-.259.232-.573.117-.858.117-3.835.006-7.67-.018-11.505.014-.76.006-1.111-.166-1.032-.993a14.577,14.577,0,0,0,.006-2.066c-.026-.561.144-.811.753-.809,4.075.015,8.15,0,12.225,0,.147,0,.3-.014.408.122" transform="translate(-6.972 -15.443)" fill="#8bc9fe"/>
        <path id="Trazado_142227" data-name="Trazado 142227" d="M15.891,80.781c-3.207,0-6.414-.016-9.621.014-.668.006-.974-.113-.946-.877C5.4,77.97,5.131,78.3,6.942,78.294c6.175-.016,12.349,0,18.524-.03.739,0,.968.176.941.933-.056,1.59-.013,1.592-1.613,1.592h-8.9v-.008" transform="translate(-1.061 -15.607)" fill="#b0dafb"/>
        <path id="Trazado_142228" data-name="Trazado 142228" d="M14.548,84.819c1.588-.011,3.178-.011,4.765-.039.452-.008.66.122.632.608-.033.6-.006,1.2-.009,1.8a.777.777,0,0,1-.9.867c-1.439-.013-2.877-.018-4.316-.026a3.3,3.3,0,0,1-.175-3.209" transform="translate(-2.835 -16.907)" fill="#665e68"/>
        <path id="Trazado_142229" data-name="Trazado 142229" d="M71.873,84.814c1.523-.01,3.046,0,4.568-.037.5-.011.676.155.668.664-.038,2.909.32,2.611-2.463,2.612-.925,0-1.851-.017-2.776-.026a4.055,4.055,0,0,1,0-3.213" transform="translate(-14.266 -16.906)" fill="#665e68"/>
        <path id="Trazado_142230" data-name="Trazado 142230" d="M13.382,84.822a13.3,13.3,0,0,0,.175,3.209c-1.409.006-2.818,0-4.226.026-.491.008-.867-.164-.909-.658-.065-.744-.05-1.5-.042-2.243,0-.4.331-.36.6-.359q2.2.008,4.406.026" transform="translate(-1.67 -16.91)" fill="#544e55"/>
        <path id="Trazado_142231" data-name="Trazado 142231" d="M70.685,84.817q0,1.607,0,3.213c-1.378.007-2.756,0-4.134.029-.636.013-.91-.223-.935-.887-.091-2.379-.108-2.38,2.286-2.377.929,0,1.857.014,2.786.022" transform="translate(-13.079 -16.91)" fill="#544e55"/>
        <path id="Trazado_142232" data-name="Trazado 142232" d="M49.566,23.422a10.6,10.6,0,0,0-2.919,3.43c-.406.9-.432.889.574.893q4.205.013,8.411.022c-.2.207-.451.118-.678.118-3.886,0-7.771-.012-11.657,0-.576,0-.885-.046-.475-.7a7.194,7.194,0,0,1,6.744-3.767" transform="translate(-8.502 -4.669)" fill="#00b965"/>
        <path id="Trazado_142233" data-name="Trazado 142233" d="M63.242,23.4a29.978,29.978,0,0,0,2.18,3.821,3.21,3.21,0,0,1,.505.925,12.064,12.064,0,0,0-2.941-.276.815.815,0,0,1-.812-.438c-.709-1.18-1.424-2.356-2.157-3.522-.305-.484-.071-.55.351-.543.957.016,1.915.022,2.872.033" transform="translate(-11.941 -4.66)" fill="#00a86b"/>
        <path id="Trazado_142234" data-name="Trazado 142234" d="M99.512,53.3c-1.348.01-2.7.007-4.043.033-.553.011-.807-.174-.833-.77-.085-1.937-.1-1.94,1.824-1.935,1.018,0,2.036.02,3.054.03a3.01,3.01,0,0,1,0,2.642" transform="translate(-18.866 -10.096)" fill="#544e55"/>
        <path id="Trazado_142235" data-name="Trazado 142235" d="M81.544,50.387c3.141-.141,2.6-.183,2.644,2.433.008.476.006.951,0,1.426-.006.363-.03.727-.486.831a2.231,2.231,0,0,1-.974.074c-1.46.01-1.465,0-1.472-1.506,0-.778-.011-1.557.007-2.335a1.324,1.324,0,0,1,.283-.922" transform="translate(-16.203 -10.038)" fill="#dce8f7"/>
        <path id="Trazado_142236" data-name="Trazado 142236" d="M100.734,53.3q0-1.321,0-2.642c1.193-.01,2.386-.011,3.578-.036.409-.009.627.122.584.558a.837.837,0,0,0,0,.09c-.011,2.463.214,2.028-1.928,2.06-.745.011-1.491-.018-2.236-.03" transform="translate(-20.088 -10.095)" fill="#655d67"/>
        <path id="Trazado_142237" data-name="Trazado 142237" d="M5.866,55.068a4.507,4.507,0,0,1-1.847.074c-.532-.025-.647-.436-.642-.906.01-.989.016-1.979,0-2.968-.011-.64.261-.956.911-.923.358.018.716.03,1.074.044.341.4.243.889.27,1.352a10.731,10.731,0,0,0,.235,3.326" transform="translate(-0.673 -10.039)" fill="#b0d9fa"/>
        <path id="Trazado_142238" data-name="Trazado 142238" d="M81.127,50.384c0,1.26.04,2.522-.018,3.779-.034.726.214.972.917.9a10.156,10.156,0,0,1,1.258.014,7.254,7.254,0,0,1-2.831.044,1.55,1.55,0,0,1-1.267-1.506c-.038-.834.034-1.674-.025-2.506-.046-.653.2-.846.809-.773.383.046.772.035,1.158.05" transform="translate(-15.785 -10.035)" fill="#b0d9fa"/>
        <path id="Trazado_142239" data-name="Trazado 142239" d="M40.815,23.38c-.559.646-1.287.357-1.9.226-.57-.122-.313-.756-.334-1.172-.034-.687.009-1.378-.013-2.066-.018-.579.225-.823.805-.781.477.034.957.023,1.436.032a5.471,5.471,0,0,1,0,3.762" transform="translate(-7.686 -3.905)" fill="#b0dafa"/>
        <path id="Trazado_142240" data-name="Trazado 142240" d="M109.377,19.623c1.8-.1,1.8-.1,1.8,1.7,0,.536,0,1.074,0,1.611,0,.264.046.556-.307.659-1.8.169-1.961.042-1.944-1.767.007-.755-.184-1.569.452-2.2" transform="translate(-21.717 -3.906)" fill="#dce9f8"/>
        <path id="Trazado_142241" data-name="Trazado 142241" d="M108.984,19.621a9.917,9.917,0,0,0-.175,2.651c0,1.244.011,1.252,1.223,1.283.148,0,.3.023.444.036a5.524,5.524,0,0,1-2.468.068,1.274,1.274,0,0,1-1.061-1.34c0-.717.03-1.436-.011-2.15-.029-.495.164-.623.616-.585.475.04.954.027,1.431.038" transform="translate(-21.324 -3.904)" fill="#b0dafb"/>
        <path id="Trazado_142242" data-name="Trazado 142242" d="M6.359,55.068c-.547.018-.512-.359-.511-.731.006-1.316,0-2.632.006-3.948,1.491-.118,1.491-.118,1.491,1.335a8.342,8.342,0,0,0,.009,1.158,2.127,2.127,0,0,1-1,2.186" transform="translate(-1.166 -10.039)" fill="#deeaf9"/>
        <path id="Trazado_142243" data-name="Trazado 142243" d="M55.329,5.569c.29-.238.634-.133.953-.134q14.517-.008,29.034,0c.318,0,.664-.108.948.145L55.329,5.569" transform="translate(-11.034 -1.079)" fill="#00a86b"/>
        <path id="Trazado_142244" data-name="Trazado 142244" d="M79.51,44.112a6.832,6.832,0,0,1,1.8.019,7.261,7.261,0,0,1,.084,1.508c.062.545-.138.72-.7.72-1.517,0-1.929-.745-1.188-2.246" transform="translate(-15.784 -8.787)" fill="#add6f7"/>
        <path id="Trazado_142245" data-name="Trazado 142245" d="M41.38,23.38q0-1.881,0-3.762c.323-.042.668-.151.656.4-.018.826,0,1.653-.009,2.479,0,.44-.345.652-.643.886" transform="translate(-8.251 -3.905)" fill="#ccd7e5"/>
        <path id="Trazado_142246" data-name="Trazado 142246" d="M79.392,44.109a11.036,11.036,0,0,1-.011,1.251c-.083.713.195.924.9.913.671-.01,1.014-.148.92-.894a9.72,9.72,0,0,1-.006-1.251c.375.633.08,1.32.153,1.978.025.227-.167.288-.365.288-.568,0-1.138-.009-1.706,0-.3,0-.42-.126-.444-.424a4.486,4.486,0,0,0-.175-1.061c-.25-.75,0-.988.735-.8" transform="translate(-15.667 -8.784)" fill="#8ac9fd"/>
        <path id="Trazado_142247" data-name="Trazado 142247" d="M12.352,68.53a5.659,5.659,0,0,1-2.731-3.708,5.343,5.343,0,0,1,3.572-6.16c.2-.066.395-.136.592-.2a5.691,5.691,0,0,1,4.6,1.285,5.338,5.338,0,0,1-5.355,9.015c-.224-.079-.45-.152-.675-.228" transform="translate(-1.898 -11.649)" fill="#050402"/>
        <path id="Trazado_142248" data-name="Trazado 142248" d="M74.754,63.733a5.335,5.335,0,1,1-5.294-5.306,5.269,5.269,0,0,1,5.294,5.306" transform="translate(-12.779 -11.651)" fill="#050402"/>
        <path id="Trazado_142249" data-name="Trazado 142249" d="M41.237,68.333c2.544,0,5.089,0,7.634,0,1.062,0,1.681.488,1.7,1.3.021.845-.635,1.392-1.723,1.393q-7.768.008-15.537,0c-1.287,0-2.008-.978-1.5-1.97a1.479,1.479,0,0,1,1.518-.728c2.635.01,5.269,0,7.9,0" transform="translate(-6.312 -13.626)" fill="#060402"/>
        <path id="Trazado_142250" data-name="Trazado 142250" d="M97.888,26.556a4.947,4.947,0,1,1-4.88,4.935,4.879,4.879,0,0,1,4.88-4.935" transform="translate(-18.547 -5.296)" fill="#050402"/>
        <path id="Trazado_142251" data-name="Trazado 142251" d="M19.518,80.66c-2.336,0-4.673-.041-7.007.02-.93.025-.834-.508-.817-1.083.016-.536-.2-1.13.777-1.121,4.761.04,9.523.03,14.284,0,.677,0,.783.274.777.853-.014,1.327.01,1.327-1.277,1.327H19.518" transform="translate(-2.33 -15.65)" fill="#dde9f8"/>
        <path id="Trazado_142252" data-name="Trazado 142252" d="M16.25,66.893a2.48,2.48,0,0,1-2.9-.971,2.551,2.551,0,0,1,.069-3.1,2.507,2.507,0,0,1,3.041-.8,8.611,8.611,0,0,0-.688,2.106,4.362,4.362,0,0,0,.285,1.838c.125.291.342.576.2.929" transform="translate(-2.564 -12.327)" fill="#fdc10c"/>
        <path id="Trazado_142253" data-name="Trazado 142253" d="M16.908,66.944a4.2,4.2,0,0,1-.255-4.349.962.962,0,0,1,.463-.524,2.549,2.549,0,0,1-.207,4.873" transform="translate(-3.223 -12.378)" fill="#fed101"/>
        <path id="Trazado_142254" data-name="Trazado 142254" d="M70.872,66.887a2.5,2.5,0,0,1-2.91-.929,2.58,2.58,0,0,1,.066-3.162,2.515,2.515,0,0,1,3.041-.77A9.961,9.961,0,0,0,70.4,64.04a4.35,4.35,0,0,0,.277,1.922c.126.29.339.573.2.925" transform="translate(-13.451 -12.327)" fill="#fdc10c"/>
        <path id="Trazado_142255" data-name="Trazado 142255" d="M71.538,66.94a4.194,4.194,0,0,1-.219-4.414.885.885,0,0,1,.416-.448,2.561,2.561,0,0,1-.2,4.861" transform="translate(-14.117 -12.38)" fill="#fed101"/>
        <path id="Trazado_142256" data-name="Trazado 142256" d="M96.377,32.164a2.2,2.2,0,0,1,2.208-2.233,2.225,2.225,0,0,1,2.266,2.186,2.238,2.238,0,1,1-4.474.046" transform="translate(-19.219 -5.969)" fill="#fdc807"/>
      </g>
    </g>
  </g>
</svg>
