<svg xmlns="http://www.w3.org/2000/svg" xmlns:xlink="http://www.w3.org/1999/xlink" width="88.346" height="108.085" viewBox="0 0 88.346 108.085">
  <defs>
    <clipPath id="clip-path">
      <rect id="Rectángulo_38667" data-name="Rectángulo 38667" width="81.099" height="70.017" fill="none"/>
    </clipPath>
  </defs>
  <g id="Grupo_162282" data-name="Grupo 162282" transform="translate(-748 -616)">
    <g id="Grupo_161699" data-name="Grupo 161699" transform="translate(55 2)">
      <circle id="Elipse_4855" data-name="Elipse 4855" cx="44" cy="44" r="44" transform="translate(693 614)" fill="#ffd947"/>
      <g id="Grupo_161698" data-name="Grupo 161698" transform="translate(700.246 652.068)">
        <rect id="Rectángulo_38664" data-name="Rectángulo 38664" width="7.135" height="14.205" transform="translate(30.583 33.586)" fill="#00d068"/>
        <g id="Grupo_161697" data-name="Grupo 161697" transform="translate(0 0)">
          <g id="Grupo_161696" data-name="Grupo 161696" clip-path="url(#clip-path)">
            <path id="Trazado_141804" data-name="Trazado 141804" d="M42.983,37.185q4.03-.005,8.06,0c2.687,0,5.373-.006,8.06.009a.554.554,0,0,0,.618-.421,19.365,19.365,0,0,0-.032-14.324,11.978,11.978,0,0,0-4.336-5.73,7.121,7.121,0,0,0-6.42-1.065,9.011,9.011,0,0,0-5,3.992C40.5,25.13,40.259,30.918,42.457,36.9c.1.286.294.283.527.283M49.4,19.272a.662.662,0,0,0,.328-.39A1.359,1.359,0,0,1,51.05,17.8a1.274,1.274,0,0,1,1.307,1.07.555.555,0,0,0,.421.446,4.3,4.3,0,0,1,2.786,3.9A1.345,1.345,0,0,1,54.256,24.6a1.306,1.306,0,0,1-1.364-1.269,1.617,1.617,0,0,0-1.158-1.551,1.874,1.874,0,0,0-2.009.4,1.383,1.383,0,0,0-.406,1.52,1.64,1.64,0,0,0,1.391,1.131c.457.076.931.068,1.382.165a4.328,4.328,0,0,1,3.461,3.883,4.274,4.274,0,0,1-2.8,4.24.487.487,0,0,0-.365.471,1.326,1.326,0,0,1-2.644-.035c-.022-.306-.186-.357-.4-.442a4.276,4.276,0,0,1-2.772-3.86,1.339,1.339,0,1,1,2.674-.163,1.819,1.819,0,0,0,2.675,1.48,1.513,1.513,0,0,0,.956-1.408,1.489,1.489,0,0,0-.988-1.428,2.708,2.708,0,0,0-.961-.187,4.431,4.431,0,0,1-4.3-3.6A4.272,4.272,0,0,1,49.4,19.272" transform="translate(-16.921 -6.313)" fill="#009568"/>
            <rect id="Rectángulo_38665" data-name="Rectángulo 38665" width="25.135" height="5.745" transform="translate(2.705 33.585)" fill="#00d068"/>
            <path id="Trazado_141805" data-name="Trazado 141805" d="M119.8,44.193c.332,0,.351-.183.351-.434,0-1.484,0-2.969,0-4.454v-.7a6.9,6.9,0,0,0-5.538,5.545.721.721,0,0,0,.152.037c1.679,0,3.358,0,5.038.009" transform="translate(-47.262 -15.918)" fill="#aed35d"/>
            <rect id="Rectángulo_38666" data-name="Rectángulo 38666" width="25.132" height="5.746" transform="translate(2.715 42.054)" fill="#00d068"/>
            <path id="Trazado_141806" data-name="Trazado 141806" d="M100.577,44.2h5.079c-.2-2.532-3.18-5.529-5.51-5.565q0,2.632,0,5.263c0,.323.216.3.432.3" transform="translate(-41.297 -15.934)" fill="#aed35d"/>
            <path id="Trazado_141807" data-name="Trazado 141807" d="M68.5,20.936a1.3,1.3,0,0,1-1-1.294c-.021-.75-.008-1.5-.008-2.252q0-6.128,0-12.254V4.586H4.592V32.733H7.9c.008-.14.021-.27.021-.4q0-8.672,0-17.345c0-1.111.42-1.558,1.517-1.618A3.833,3.833,0,0,0,13.06,9.636a1.316,1.316,0,0,1,1.412-1.407q4.437-.011,8.875,0a1.3,1.3,0,0,1,1.375,1.109,1.288,1.288,0,0,1-.809,1.447,2.1,2.1,0,0,1-.7.1c-2.358.007-4.716,0-7.074.005h-.509l-.125.4A6.423,6.423,0,0,1,11,15.8c-.287.087-.414.18-.414.507q.015,8.064.007,16.129c0,.088.012.176.021.3H24.6c-.258-.979-.568-1.937-.76-2.919a21.3,21.3,0,0,1,2.234-15.071,13.337,13.337,0,0,1,5.258-5.306,9.88,9.88,0,0,1,11.2,1.2,16.427,16.427,0,0,1,5.384,8.7,22.1,22.1,0,0,1-.378,13.037c-.038.111-.066.226-.113.39h.562q4.056,0,8.11,0a1.338,1.338,0,1,1,.06,2.676c-.12.008-.24.006-.36.006H42.309v5.791h.555q4.91,0,9.822,0a1.34,1.34,0,0,1,1.378,1.773,1.365,1.365,0,0,1-1.406.908q-3.289,0-6.578,0H42.315v5.793h.531q3.582,0,7.164,0a1.355,1.355,0,0,1,1.391.936,3.4,3.4,0,0,1,1.95.975q.1-.375.209-.749,1.518-5.51,3.033-11.02a5.744,5.744,0,0,1,3.1-3.777.482.482,0,0,0,.333-.5c-.018-.871.005-1.742-.012-2.613a.485.485,0,0,0-.224-.356,2.872,2.872,0,0,1-1.722-2.777q-.011-3.289,0-6.578a1.345,1.345,0,0,1,1.536-1.51c.315,0,.631.021.944.052.295.029.587.086.908.135V15.923a6.627,6.627,0,0,1-5-5.034H55.96c-2.4,0-4.806,0-7.208,0a1.316,1.316,0,0,1-1.362-1.738,1.3,1.3,0,0,1,1.3-.914c1.772-.01,3.545-.007,5.316-.008,1.156,0,2.313,0,3.469,0A1.355,1.355,0,0,1,59.015,9.7a3.822,3.822,0,0,0,3.632,3.673c1.065.057,1.51.521,1.511,1.588,0,2.538.006,5.076-.006,7.614a.6.6,0,0,0,.331.608,9.676,9.676,0,0,1,3.272,3.31l.34-.484a11.367,11.367,0,0,1,1.282-1.5,4.15,4.15,0,0,1-.872-3.567" transform="translate(-1.894 -1.891)" fill="#00d068"/>
            <path id="Trazado_141808" data-name="Trazado 141808" d="M111.857,60.346a3.126,3.126,0,0,0-3.088-2.353c-.991,0-1.981.007-2.973,0a1.341,1.341,0,1,1,0-2.678c.45-.011.9,0,1.351,0h1.209c0-.772,0-1.461,0-2.152,0-.341-.163-.483-.5-.482q-4.571.006-9.143,0c-.341,0-.5.154-.5.488,0,.69,0,1.38,0,2.146.891,0,1.728-.009,2.564,0a1.361,1.361,0,0,1,1.4,1.345,1.342,1.342,0,0,1-1.406,1.331c-.9.011-1.8.005-2.7.005a3.19,3.19,0,0,0-3.432,2.617c-.922,3.355-1.865,6.7-2.761,10.065a29.627,29.627,0,0,0-1.071,4.683,12.542,12.542,0,1,0,24.616-2.043c-1.17-4.328-2.378-8.646-3.573-12.968m-6.832,22.275a.488.488,0,0,0-.4.568,1.312,1.312,0,0,1-1.354,1.414,1.329,1.329,0,0,1-1.319-1.411c0-.134,0-.268,0-.427a5.556,5.556,0,0,1-2.617-1.537,4.81,4.81,0,0,1-1.345-3.161,1.344,1.344,0,1,1,2.675-.136,2.488,2.488,0,0,0,2.316,2.3,2.666,2.666,0,0,0,2.835-1.684,2.351,2.351,0,0,0-1.967-2.979c-.53-.091-1.079-.075-1.608-.173a5.129,5.129,0,0,1-4.249-4.568,5.047,5.047,0,0,1,3.585-5.134c.27-.089.373-.189.385-.485a1.331,1.331,0,0,1,2.66,0,.461.461,0,0,0,.383.489,5.023,5.023,0,0,1,3.577,4.322c.133,1.019-.391,1.74-1.249,1.773a1.333,1.333,0,0,1-1.412-1.366,2.48,2.48,0,0,0-2.294-2.315,2.66,2.66,0,0,0-2.864,1.7,2.353,2.353,0,0,0,1.992,2.961c.531.087,1.08.074,1.608.173A5.119,5.119,0,0,1,108.6,77.57a5.033,5.033,0,0,1-3.571,5.051" transform="translate(-37.424 -21.721)" fill="#aed38a"/>
            <path id="Trazado_141809" data-name="Trazado 141809" d="M48.287,50.5a1.318,1.318,0,0,0,1.28-1.4,1.332,1.332,0,0,0-1.451-1.279q-3.581-.007-7.163,0h-.532V42.031h3.766q3.289,0,6.578,0a1.366,1.366,0,0,0,1.406-.908,1.34,1.34,0,0,0-1.379-1.773q-4.91-.007-9.822,0h-.555V33.555H53.9c.12,0,.24,0,.36-.005a1.338,1.338,0,1,0-.06-2.676c-2.7-.006-5.406,0-8.109,0h-.562c.047-.164.075-.279.112-.39a22.092,22.092,0,0,0,.378-13.037,16.424,16.424,0,0,0-5.384-8.7,9.879,9.879,0,0,0-11.2-1.2,13.34,13.34,0,0,0-5.259,5.307,21.3,21.3,0,0,0-2.233,15.071c.192.981.5,1.94.76,2.919H8.717c-.008-.12-.021-.209-.021-.3q0-8.064-.007-16.129c0-.326.128-.42.414-.507a6.424,6.424,0,0,0,4.5-4.509c.039-.126.079-.253.125-.4h.51c2.358,0,4.716,0,7.073-.005a2.1,2.1,0,0,0,.7-.1,1.288,1.288,0,0,0,.809-1.447,1.3,1.3,0,0,0-1.374-1.109q-4.438-.01-8.875,0a1.316,1.316,0,0,0-1.412,1.407,3.833,3.833,0,0,1-3.623,3.733c-1.1.061-1.517.508-1.517,1.618q0,8.672,0,17.345c0,.13-.013.261-.021.4H2.7V2.695H65.609v.549q0,6.127,0,12.254c0,.751-.013,1.5.008,2.252A1.3,1.3,0,0,0,67,19.088a1.336,1.336,0,0,0,1.29-1.486q0-8.042,0-16.084c0-.09,0-.18-.006-.27C68.2.432,67.64,0,66.658,0q-14.89,0-29.78.008Q19.285.008,1.692,0C.456,0,0,.452,0,1.675v47.17c0,.12,0,.24,0,.36a1.311,1.311,0,0,0,1.206,1.289c.223.021.45.014.675.014h45.5c.3,0,.6.011.9,0M27.013,13.332a9.008,9.008,0,0,1,5-3.992,7.119,7.119,0,0,1,6.42,1.064,11.977,11.977,0,0,1,4.336,5.73A19.365,19.365,0,0,1,42.8,30.458a.555.555,0,0,1-.618.421c-2.687-.015-5.373-.009-8.06-.009s-5.373,0-8.06,0c-.233,0-.421,0-.527-.283-2.2-5.985-1.957-11.773,1.478-17.258M2.7,33.585H27.84v5.745H2.7ZM27.847,47.8H2.715V42.054H27.847Zm9.871-.009H30.583v-14.2h7.135Z" transform="translate(0 0)"/>
            <path id="Trazado_141810" data-name="Trazado 141810" d="M95.065,42.47a5.8,5.8,0,0,0-3.139-3.85.453.453,0,0,1-.3-.48c.014-.87-.011-1.742.009-2.613a.534.534,0,0,1,.256-.378,2.809,2.809,0,0,0,1.674-2.622c.019-2.268.013-4.535,0-6.8A1.3,1.3,0,0,0,92.094,24.3a9.493,9.493,0,0,0-7.877,4.26l-.34.484a9.678,9.678,0,0,0-3.272-3.31.6.6,0,0,1-.331-.608c.013-2.538.008-5.076.006-7.614,0-1.066-.445-1.531-1.51-1.588a3.822,3.822,0,0,1-3.633-3.673,1.355,1.355,0,0,0-1.538-1.47c-1.156,0-2.312,0-3.469,0-1.772,0-3.544,0-5.316.008a1.3,1.3,0,0,0-1.3.914,1.317,1.317,0,0,0,1.362,1.738c2.4.006,4.806,0,7.208,0h.485a6.626,6.626,0,0,0,5,5.034v6.007c-.32-.048-.613-.105-.908-.135-.313-.031-.629-.048-.944-.051a1.344,1.344,0,0,0-1.536,1.51q-.01,3.289,0,6.577a2.873,2.873,0,0,0,1.721,2.777.486.486,0,0,1,.224.356c.017.871-.006,1.742.012,2.613a.481.481,0,0,1-.332.5,5.745,5.745,0,0,0-3.1,3.778Q71.2,47.923,69.682,53.433a21.759,21.759,0,0,0-1.007,4.883,15.124,15.124,0,0,0,6.095,13.131c.111.088.22.177.424.344H45.4c-.166,0-.331-.006-.5.007a1.316,1.316,0,0,0-1.221,1.32c0,.84.6,1.344,1.615,1.344q19.26,0,38.521-.009a15.961,15.961,0,0,0,2.554-.207A15.137,15.137,0,0,0,98.662,55.667c-1.1-4.423-2.4-8.8-3.6-13.2M90.9,27.129v.7c0,1.484,0,2.969,0,4.454,0,.251-.019.435-.351.434-1.679-.011-3.359-.006-5.038-.009a.759.759,0,0,1-.152-.037A6.9,6.9,0,0,1,90.9,27.129m-14.037.021c2.331.037,5.307,3.034,5.51,5.565H77.3c-.216,0-.433.021-.432-.3q0-2.632,0-5.264m8.143,44.581a12.5,12.5,0,0,1-13.6-13.651A29.628,29.628,0,0,1,72.476,53.4c.9-3.361,1.839-6.71,2.761-10.065a3.19,3.19,0,0,1,3.432-2.617c.9,0,1.8.006,2.7-.005a1.342,1.342,0,0,0,1.406-1.331,1.362,1.362,0,0,0-1.4-1.345c-.837-.012-1.674,0-2.564,0,0-.766,0-1.456,0-2.147,0-.333.156-.488.5-.487q4.572.006,9.143,0c.337,0,.5.142.5.482,0,.69,0,1.38,0,2.152H87.742c-.451,0-.9-.008-1.352,0a1.34,1.34,0,1,0,0,2.678c.991.012,1.982,0,2.973,0a3.127,3.127,0,0,1,3.088,2.354c1.2,4.321,2.4,8.639,3.572,12.968A12.543,12.543,0,0,1,85.008,71.731" transform="translate(-18.016 -4.445)"/>
            <path id="Trazado_141811" data-name="Trazado 141811" d="M54.805,29.3a2.708,2.708,0,0,1,.961.187,1.489,1.489,0,0,1,.988,1.428,1.513,1.513,0,0,1-.957,1.408,1.819,1.819,0,0,1-2.675-1.481A1.339,1.339,0,1,0,50.45,31a4.276,4.276,0,0,0,2.772,3.86c.212.085.376.136.4.442a1.326,1.326,0,0,0,2.644.035.487.487,0,0,1,.365-.471,4.274,4.274,0,0,0,2.8-4.24,4.327,4.327,0,0,0-3.461-3.883c-.451-.1-.925-.088-1.382-.165A1.639,1.639,0,0,1,53.2,25.451a1.384,1.384,0,0,1,.406-1.521,1.873,1.873,0,0,1,2.009-.4,1.616,1.616,0,0,1,1.159,1.551,1.3,1.3,0,0,0,1.364,1.268,1.344,1.344,0,0,0,1.308-1.384,4.3,4.3,0,0,0-2.785-3.9.555.555,0,0,1-.421-.446,1.274,1.274,0,0,0-1.307-1.07,1.358,1.358,0,0,0-1.318,1.084.667.667,0,0,1-.328.39A4.272,4.272,0,0,0,50.506,25.7a4.431,4.431,0,0,0,4.3,3.6" transform="translate(-20.8 -8.059)"/>
            <path id="Trazado_141812" data-name="Trazado 141812" d="M109.433,80.838c-.528-.1-1.077-.086-1.608-.173a2.354,2.354,0,0,1-1.992-2.962A2.661,2.661,0,0,1,108.7,76a2.481,2.481,0,0,1,2.294,2.315,1.333,1.333,0,0,0,1.412,1.367c.859-.034,1.383-.755,1.249-1.774a5.022,5.022,0,0,0-3.576-4.321c-.267-.1-.37-.2-.384-.49a1.331,1.331,0,0,0-2.66,0c-.014.3-.116.4-.386.485a5.048,5.048,0,0,0-3.585,5.134,5.129,5.129,0,0,0,4.249,4.568c.529.1,1.078.082,1.608.173a2.351,2.351,0,0,1,1.967,2.978,2.665,2.665,0,0,1-2.835,1.684,2.488,2.488,0,0,1-2.316-2.3,1.344,1.344,0,1,0-2.675.136,4.813,4.813,0,0,0,1.345,3.16,5.564,5.564,0,0,0,2.617,1.538c0,.159,0,.293,0,.427a1.329,1.329,0,0,0,1.319,1.411,1.312,1.312,0,0,0,1.354-1.413.488.488,0,0,1,.4-.568,5.034,5.034,0,0,0,3.572-5.051,5.121,5.121,0,0,0-4.234-4.629" transform="translate(-42.495 -29.618)"/>
          </g>
        </g>
      </g>
    </g>
  </g>
</svg>
