<svg xmlns="http://www.w3.org/2000/svg" xmlns:xlink="http://www.w3.org/1999/xlink" width="287" height="154.997" viewBox="0 0 287 154.997">
  <defs>
    <clipPath id="clip-path">
      <rect id="Rectángulo_38672" data-name="Rectángulo 38672" width="178.401" height="110.997" fill="none"/>
    </clipPath>
  </defs>
  <g id="Grupo_161716" data-name="Grupo 161716" transform="translate(-951 -1048)">
    <path id="Imagen_41" data-name="Imagen 41" d="M19,0H268a19,19,0,0,1,19,19V121a0,0,0,0,1,0,0H0a0,0,0,0,1,0,0V19A19,19,0,0,1,19,0Z" transform="translate(951 1048)" fill="#e1e8ff"/>
    <g id="Grupo_161715" data-name="Grupo 161715" transform="translate(1005 1092)">
      <g id="Grupo_161714" data-name="Grupo 161714" clip-path="url(#clip-path)">
        <path id="Trazado_141902" data-name="Trazado 141902" d="M30.081,129.388c-1.581-1.4-3.157-2.811-4.746-4.2A84.5,84.5,0,0,1,8.117,104.12,75.619,75.619,0,0,1,.659,87.29C-.013,85-.389,82.649.623,80.322c.382-.98.793-.327,1.076.031.777.984,1.48,2.026,2.207,3.048a27.831,27.831,0,0,0,2.517,3.171,97.913,97.913,0,0,0,18.215,17.365,95.92,95.92,0,0,0,71.5,17.643,93.663,93.663,0,0,0,40.4-16.226,90.858,90.858,0,0,0,18.628-17.367c1.586-1.967,3.187-3.92,4.65-5.983a110.764,110.764,0,0,0,6.853-11.526c.251-.464.346-1.185,1.182-.923a83.1,83.1,0,0,1-7.388,28.411c-.961,2.151-2.069,4.237-3.109,6.353l-6.64,9.967a17.613,17.613,0,0,0-2.361,3.1,77.81,77.81,0,0,1-18.568,16.52A81.309,81.309,0,0,1,104.8,144.982a87.15,87.15,0,0,1-59.233-5.766c-1.743-.844-3.272-2.056-5.033-2.864l-10.453-6.965" transform="translate(0 -36.741)" fill="#f7a900"/>
        <path id="Trazado_141903" data-name="Trazado 141903" d="M138.853,27.346c3.223-2.45,5.753-5.626,8.739-8.322C152.7,14.412,155.619,8.2,159.6,2.76c.678-.925,1.074-2.064,2.058-2.76.171.876-.416,1.465-.833,2.1-2.542,3.85-5.115,7.68-7.664,11.526-1.092,1.647-1.047,1.768.533,2.869,2.071,1.442,4.282,2.679,6.234,4.29a1.4,1.4,0,0,1,.262.435,2.088,2.088,0,0,1-.525,1.472c-3.715,5.6-7.267,11.31-11.223,16.732A82.378,82.378,0,0,1,135.38,53.291a86.038,86.038,0,0,1-12.555,8.99,92.057,92.057,0,0,1-19.712,8.666,89.778,89.778,0,0,1-41.543,2.67A85.022,85.022,0,0,1,37.518,65.83c-2.871-1.434-5.672-2.978-8.445-4.592-.147-.1-.289-.2-.435-.3C20.572,55.622,12.579,50.2,4.5,44.918a7.559,7.559,0,0,1-2.467-2.212,6.977,6.977,0,0,1,2.759-3.1,4.51,4.51,0,0,1,5.235-.09c5.015,3.028,10.217,5.746,15.345,8.588.208.115.412.265.666.113,2.5.958,4.764,2.4,7.21,3.476a83.354,83.354,0,0,0,31.007,6.96,88.164,88.164,0,0,0,15.375-.81,97.539,97.539,0,0,0,14.622-3.179A98.729,98.729,0,0,0,111.8,47.612,100,100,0,0,0,137.333,28.7a14.988,14.988,0,0,1,1.52-1.357" transform="translate(-1.075)" fill="#fed500"/>
        <path id="Trazado_141904" data-name="Trazado 141904" d="M34.251,74.073l.245.163c1.4,1.726,3.466,2.474,5.322,3.452a88.171,88.171,0,0,0,16.948,6.862,94.3,94.3,0,0,0,18.45,3.293,84.036,84.036,0,0,0,16.55-.275A91.562,91.562,0,0,0,112.3,82.8a90.508,90.508,0,0,0,28.381-16.524A87,87,0,0,0,153.06,53.215c4.108-5.362,7.646-11.129,11.429-16.722.439-.649.723-1.558,1.787-1.5a51.1,51.1,0,0,1,6.043,3.8c1.666,1.047,1.752,1.061,2.854-.586,2.573-3.843,5.124-7.7,7.7-11.539.424-.631.749-1.4,1.62-1.583.161.574-.324.873-.571,1.248C181.2,30.46,178.5,34.6,175.692,38.658a7.312,7.312,0,0,0-1.505,4.548,26.07,26.07,0,0,1-.211,2.871c-1.053.658-1.283,1.888-1.8,2.856a93.779,93.779,0,0,1-8.283,12.949,100.113,100.113,0,0,1-10.96,12.133,93.871,93.871,0,0,1-29.807,18.9,103.865,103.865,0,0,1-12.314,3.894A93.725,93.725,0,0,1,81.4,99.4a93.726,93.726,0,0,1-31.39-7.477,105.8,105.8,0,0,1-12.1-6.23A94.743,94.743,0,0,1,12.52,63.676a2.959,2.959,0,0,1-.226-.375,5.3,5.3,0,0,1-.707-2.2c.009-.778.351-1.071,1.106-.772a7.586,7.586,0,0,1,1.37.821Q22.244,66.6,30.419,72.05a20.919,20.919,0,0,0,3.832,2.023" transform="translate(-6.126 -13.264)" fill="#fcbe00"/>
        <path id="Trazado_141905" data-name="Trazado 141905" d="M155.452,35.322c-1.855,2.7-4.426,4.709-6.834,6.85a95.852,95.852,0,0,1-31.785,18.851,38.7,38.7,0,0,1-6.055,1.915A85.851,85.851,0,0,1,75.7,53.413,93.8,93.8,0,0,1,53.393,37.388C47.062,31.407,40.652,25.511,34.311,19.54c-.351-.331-.785-.592-.879-1.122a4.6,4.6,0,0,1,1.768-1.9c3.109-1.9,4.471-2.054,7.413.38,5.579,4.616,11.2,9.19,17.071,13.441C73.526,40.37,89.14,45.25,106.1,45.962a97.851,97.851,0,0,0,48.535-10.381,5.387,5.387,0,0,1,.821-.259" transform="translate(-17.674 -7.975)" fill="#fcbe00"/>
        <path id="Trazado_141906" data-name="Trazado 141906" d="M33.25,22.155a104.733,104.733,0,0,1,8.086,7.253c4.4,3.989,8.706,8.078,13.029,12.149A95.085,95.085,0,0,0,69.609,53.378a89.2,89.2,0,0,0,14.4,7.134,93.146,93.146,0,0,0,23.707,5.7c.955.107,2.032-.34,2.88.467a87.448,87.448,0,0,1-24.96,4.046,27.851,27.851,0,0,1-4.779-.009A83.7,83.7,0,0,1,66.519,62.7,99.7,99.7,0,0,1,39,33.9c-1.9-3.011-3.513-6.164-5.148-9.313a5,5,0,0,1-.764-2.182l.163-.247" transform="translate(-17.491 -11.712)" fill="#f7a900"/>
        <path id="Trazado_141907" data-name="Trazado 141907" d="M31.467,22.677c.987,1.829,2,3.644,2.958,5.49A94.7,94.7,0,0,0,51.584,51.3a87.354,87.354,0,0,0,10.4,8.978,71.745,71.745,0,0,0,5.924,4.2,91.069,91.069,0,0,0,10.43,5.66c.4.167.834.318.894.852a84.206,84.206,0,0,1-16.88-2.122A79.945,79.945,0,0,1,46.193,63.26a18.838,18.838,0,0,1-5.36-3.059,78.427,78.427,0,0,1-7.813-17.632,63.15,63.15,0,0,1-2.933-13.513,9.022,9.022,0,0,1,1.379-6.38" transform="translate(-15.871 -11.988)" fill="#fe9000"/>
        <path id="Trazado_141908" data-name="Trazado 141908" d="M356.732,18.333c-3.128,4.687-6.3,9.347-9.355,14.08-.784,1.213-1.361,1.25-2.472.447-2.2-1.591-4.513-3.036-6.779-4.542a.643.643,0,0,1-.726-.493l.013-.005a2.606,2.606,0,0,1,.671-1.862q4.089-6.167,8.208-12.315c.372-.555.7-1.177,1.453-1.334l8.988,6.024" transform="translate(-178.363 -6.507)" fill="#fe9000"/>
        <path id="Trazado_141909" data-name="Trazado 141909" d="M338.362,5.8,328.031,21.312c-2.507-1.667-4.983-3.384-7.536-4.976-1.068-.666-1.045-1.19-.387-2.159C323.3,9.477,326.419,4.73,329.564,0c3.03,1.786,5.9,3.812,8.8,5.8" transform="translate(-168.981 0.001)" fill="#f7a900"/>
        <path id="Trazado_141910" data-name="Trazado 141910" d="M28.786,108.707a9.9,9.9,0,0,1-3.976-1.6q-8.5-5.65-16.994-11.318l-1.389-.925c.157,1.2.28,2.138.4,3.075-1.881-1.829-3.164-4.116-4.734-6.184-.2-.268-.323-.835-.812-.273a.829.829,0,0,1,.336-.875l27.167,18.1" transform="translate(-0.66 -47.898)" fill="#fcc000"/>
        <path id="Trazado_141911" data-name="Trazado 141911" d="M190.855,45.228l.727.493c-3.1,4.655-6.11,9.376-9.324,13.952a92.527,92.527,0,0,1-24.453,24.179,91.945,91.945,0,0,1-24.243,11.4A97.143,97.143,0,0,1,120.8,98.009,86.549,86.549,0,0,1,93.748,98,86.855,86.855,0,0,1,70.7,91.228c-2.6-1.176-5.081-2.563-7.649-3.789a5.556,5.556,0,0,1-2.861-2.557,91.423,91.423,0,0,0,21.737,9.81,89.6,89.6,0,0,0,28.3,3.684,90.609,90.609,0,0,0,20.656-3.083,88.912,88.912,0,0,0,20.167-8.113,86.968,86.968,0,0,0,20.494-15.6,85.8,85.8,0,0,0,10.835-13.594c2.754-4.3,5.646-8.512,8.477-12.763" transform="translate(-31.819 -23.91)" fill="#fcc000"/>
      </g>
    </g>
  </g>
</svg>
