<svg xmlns="http://www.w3.org/2000/svg" xmlns:xlink="http://www.w3.org/1999/xlink" width="287" height="170.142" viewBox="0 0 287 170.142">
  <defs>
    <clipPath id="clip-path">
      <rect id="Rectángulo_38673" data-name="Rectángulo 38673" width="160.493" height="161.804" fill="none"/>
    </clipPath>
  </defs>
  <g id="Grupo_161720" data-name="Grupo 161720" transform="translate(-951 -2126)">
    <path id="Imagen_40" data-name="Imagen 40" d="M19,0H268a19,19,0,0,1,19,19V121a0,0,0,0,1,0,0H0a0,0,0,0,1,0,0V19A19,19,0,0,1,19,0Z" transform="translate(951 2126)" fill="#e1e8ff"/>
    <g id="Grupo_161718" data-name="Grupo 161718" transform="translate(1014 2134.339)">
      <g id="Grupo_161717" data-name="Grupo 161717" clip-path="url(#clip-path)">
        <path id="Trazado_141912" data-name="Trazado 141912" d="M196.144,54.989c2.046,1.533,2.15,3.7.1,5.008a57.925,57.925,0,0,1-25.975,9.267c-4.977,1.482-9.965.461-14.956.013-.228.607.2.943.456,1.291a71.523,71.523,0,0,1,6.573,11.677,3.593,3.593,0,0,0,2.53,2.139,50.333,50.333,0,0,0,11.033,1.8,28.24,28.24,0,0,0,5.18-.009,3.161,3.161,0,0,1,2.138.382c1.207,1.962.2,3.873-2.15,4.109a53.988,53.988,0,0,1-21.944-2.15,1.517,1.517,0,0,0-.314-.032c-.652,0-.687-.57-.843-.974a71.274,71.274,0,0,0-13.417-21.5,16.716,16.716,0,0,0-2.351-2.523,91.379,91.379,0,0,0-22.567-18.579,48.832,48.832,0,0,0-8.455-3.885c-.721-.253-1.579-.332-1.943-1.19a46.826,46.826,0,0,1-3.757-22.9c.1-1.358.357-2.707.584-4.053.341-2.013,1.553-2.638,3.512-1.845a3.744,3.744,0,0,1,.372,2.447c-.813,6.484.22,12.758,2.1,18.946a4.485,4.485,0,0,0,2.98,3.154,38.933,38.933,0,0,1,6.7,3.132,2.769,2.769,0,0,0,1.955.684,24.4,24.4,0,0,0-.18-2.958,49.323,49.323,0,0,1,.14-10.68,1.734,1.734,0,0,1,.422-1.154,54.611,54.611,0,0,1,5.689-16.754A31.56,31.56,0,0,1,135.151,0h1.9c.424.526,1.239.712,1.33,1.529a3.158,3.158,0,0,1-.792,2.01A51.262,51.262,0,0,0,130,24.611,48.981,48.981,0,0,0,131.72,44.12a4.17,4.17,0,0,0,1.481,2.171,98.817,98.817,0,0,1,8.507,7.53c1.181,1.217,1.487,1.131,2.114-.5a53.912,53.912,0,0,0,2.506-9.128c.167-.865.478-1.473,1.463-1.472l4.085-.35c.69.782.44,1.687.3,2.558a53.062,53.062,0,0,1-3.859,12.808c-.674,1.559-.66,1.719.941,2.286a48.414,48.414,0,0,0,13.1,2.7,57.025,57.025,0,0,0,30.5-6.4c1.043-.544,1.937-1.523,3.287-1.331" transform="translate(-37.239)" fill="#54cd3e"/>
        <path id="Trazado_141913" data-name="Trazado 141913" d="M72,60.716A67.587,67.587,0,0,1,91.643,71.47a105.033,105.033,0,0,1,12.583,11.411c.348.376.626.816.937,1.227a67.421,67.421,0,0,1,10.36,15.013c3.034,6.165,5.017,12.617,4.918,19.568-.12,8.395-3.209,15.68-8.42,22.151a68.841,68.841,0,0,1-13.579,12.451,139.435,139.435,0,0,1-16.947,10.4c-2.027,1.063-2.043,1.033-3.431-.78a7.476,7.476,0,0,0-11.983-.156,15.034,15.034,0,0,0-3.45,8.009,2.087,2.087,0,0,1-1.559,1.93,110.931,110.931,0,0,1-27.423,6.528,48.49,48.49,0,0,1-5.661.394c-1.949-.036-2.141-.231-2.152-2.2a7.328,7.328,0,0,0-6.058-7.413c-3.172-.619-5.645.652-7.608,3.092a10.141,10.141,0,0,0-.623.913c-1.251,1.959-1.513,2.014-3.448.712a1.367,1.367,0,0,0-.571-.246c-3.651-3.8-5.576-8.456-6.625-13.52-1.462-7.059-.943-14.116.135-21.167.445-2.91,1.1-5.774,1.8-8.63,1.194-.471,2.473-.012,3.7-.4,3.517-1.12,6.884-2.426,8.651-6.021a7.4,7.4,0,0,0-5.4-10.508c-.459-.077-.959-.026-1.307-.437C14.654,98.548,22.269,84.146,33.56,72,40,65.076,47.71,60.295,57.35,59.26a35.363,35.363,0,0,1,12.513.972c.709.179,1.427.324,2.14.484" transform="translate(0 -20.884)" fill="#fe4d4d"/>
        <path id="Trazado_141914" data-name="Trazado 141914" d="M11.641,188.166c.442-.584.758-.046,1.027.168,1.23.977,1.88.554,2.591-.729,2.41-4.343,7.121-5.75,11.272-3.341a7.022,7.022,0,0,1,3.807,6.909c-.121,1.506.362,1.775,1.7,1.72a100.4,100.4,0,0,0,23.2-3.741c3.232-.91,6.422-1.938,9.59-3.048a2.027,2.027,0,0,0,1.562-1.948c.641-4.1,2.2-7.844,5.97-10.054s8.085-.961,10.636,2.924c.5.756.776.859,1.547.451a128.649,128.649,0,0,0,23.531-15.4c4.881-4.154,9.2-8.775,12.171-14.5a33.47,33.47,0,0,0,2.931-23.8c-2.064-8.777-6.529-16.3-11.978-23.332a9.666,9.666,0,0,1-1.92-2.641,56.914,56.914,0,0,1,7.51,8.854,67.983,67.983,0,0,1,8.905,16.406,56.878,56.878,0,0,1,1.967,10.329c.613,10.285-3.158,18.891-9.865,26.409-5.7,6.39-12.607,11.293-19.849,15.724a153.818,153.818,0,0,1-39.871,17.444,85.045,85.045,0,0,1-23.768,3.406,45.449,45.449,0,0,1-10.743-1.343c0-.687.582-.946.988-1.336a3.246,3.246,0,0,0,.088-4.983,3.45,3.45,0,0,0-5,.639c-.815,1.018-1.1,2.4-2.232,3.185a19.045,19.045,0,0,1-5.767-4.364" transform="translate(-4.115 -34.574)" fill="#fe1010"/>
        <path id="Trazado_141915" data-name="Trazado 141915" d="M219.241,78.111A71.733,71.733,0,0,1,208.7,83.048,56.743,56.743,0,0,1,192.593,86.3a58.064,58.064,0,0,1-18.818-2.21c-3.622-1.048-3.631-.954-2.279-4.346a56.6,56.6,0,0,0,3.469-12.219,13.068,13.068,0,0,0,.007-2.038c10.463-.549,20.424,1.636,30.067,5.533a96.213,96.213,0,0,1,14.2,7.089" transform="translate(-60.335 -23.123)" fill="#c6f0a2"/>
        <path id="Trazado_141916" data-name="Trazado 141916" d="M160.875,43.553a1.613,1.613,0,0,0-1.01,1.363,51.132,51.132,0,0,1-3.053,10.551c-.418.957-.766,1.072-1.517.29A86.478,86.478,0,0,0,145.39,47,2.306,2.306,0,0,1,144.6,45.7,53.524,53.524,0,0,1,142.51,34.61c-.826-9.827,1.5-18.931,6.081-27.539.862-1.619,1.908-3.139,2.869-4.706a78.722,78.722,0,0,1,8.495,25.566,55.664,55.664,0,0,1,.355,13.67c-.065.618-.7,1.629.564,1.953" transform="translate(-50.322 -0.836)" fill="#a3e769"/>
        <path id="Trazado_141917" data-name="Trazado 141917" d="M209.794,124.023a51.913,51.913,0,0,1-18.788-1.831,3.411,3.411,0,0,1-2.433-2.127,66.854,66.854,0,0,0-6.86-12.19c-.356-.5-.663-1.027-1.219-1.894a55.9,55.9,0,0,0,16.347.749c-.792.257-1.027.493-.259,1.219a85.417,85.417,0,0,1,13.213,16.074" transform="translate(-63.809 -37.467)" fill="#a3e769"/>
        <path id="Trazado_141918" data-name="Trazado 141918" d="M126.211,30.642a80.112,80.112,0,0,0-.306,8.649,40.536,40.536,0,0,0,.561,6.091c.047.312.18.661-.061.9-.284.284-.6.011-.851-.131a65.545,65.545,0,0,0-10.106-4.75,2.082,2.082,0,0,1-1.148-1.433,50.935,50.935,0,0,1-2.631-10.964c-.518-4-.122-7.959.059-11.936a71.293,71.293,0,0,1,13.69,12.836,7.034,7.034,0,0,0,.794.734" transform="translate(-39.386 -6.035)" fill="#a3e769"/>
        <path id="Trazado_141919" data-name="Trazado 141919" d="M10.022,143.685c3.494-.449,6.652,2.462,7.552,5.491a8.155,8.155,0,0,1-3.746,9.355,18.162,18.162,0,0,1-6.5,2.7,9.738,9.738,0,0,1-2.946-.175q.507-2.091,1.013-4.181a18.4,18.4,0,0,0,5.313-1.852c1.228-.778,2.3-1.652,2.38-3.285a3.132,3.132,0,0,0-3.014-3.5c-.56-.053-1.154.226-1.68-.161a28.591,28.591,0,0,1,1.631-4.388" transform="translate(-1.548 -50.78)" fill="#fe1010"/>
        <path id="Trazado_141920" data-name="Trazado 141920" d="M8.944,150.368c2.239-.618,3.92-.01,4.829,1.745a3.792,3.792,0,0,1-1.466,4.931c-1.891,1.336-3.884,2.489-6.361,2.128a65.669,65.669,0,0,1,3-8.8" transform="translate(-2.102 -53.076)" fill="#fdbf07"/>
        <path id="Trazado_141921" data-name="Trazado 141921" d="M20.562,241.56a26.268,26.268,0,0,1,1.817-3.292,3.761,3.761,0,0,1,4.078-1.691,3.42,3.42,0,0,1,2.8,2.847,3.611,3.611,0,0,1-1.7,3.922,10.719,10.719,0,0,0-.838.71,24.712,24.712,0,0,1-6.158-2.5" transform="translate(-7.269 -83.604)" fill="#fdbf07"/>
        <path id="Trazado_141922" data-name="Trazado 141922" d="M106.132,170.909a7.666,7.666,0,0,1-3.588,6.619,15.8,15.8,0,0,1-7.826,2.969,5.782,5.782,0,0,1-6.275-6.527c.542-3.7,1.892-7.092,4.973-9.505a7.873,7.873,0,0,1,12.716,6.444" transform="translate(-31.246 -57.518)" fill="#fe1010"/>
        <path id="Trazado_141923" data-name="Trazado 141923" d="M76.163,135.039a13.1,13.1,0,0,1,5.688-9.442c3.372-2.259,8.3-1.017,10.587,2.393a8.017,8.017,0,0,1-1.813,10.96c-2.444,1.762-5.085,3.21-8.194,3.311-4,.13-6.3-2.179-6.268-7.222" transform="translate(-26.925 -43.997)" fill="#fe1010"/>
        <path id="Trazado_141924" data-name="Trazado 141924" d="M116.613,193.2c.555-4.413,2.042-8.33,6.112-10.742a7.909,7.909,0,0,1,9.665,12.2,14.365,14.365,0,0,1-9.694,4.684,5.614,5.614,0,0,1-6.084-6.138" transform="translate(-41.22 -64.16)" fill="#fe1010"/>
        <path id="Trazado_141925" data-name="Trazado 141925" d="M56.093,216.151c.036-4.692,3.509-9.934,7.374-11.132a8.084,8.084,0,0,1,9.325,3.749,7.969,7.969,0,0,1-2.228,10.276,19.2,19.2,0,0,1-6.752,3.233c-3.773.968-8.232-1.522-7.718-6.127" transform="translate(-19.816 -72.361)" fill="#fe1010"/>
        <path id="Trazado_141926" data-name="Trazado 141926" d="M124.485,148.687c-3.459.368-6.677-3.528-5.98-6.859.99-4.732,2.549-8.95,7.592-10.66a7.925,7.925,0,0,1,8.46,12.4c-2.586,3.2-6.118,4.6-10.072,5.114" transform="translate(-41.86 -46.243)" fill="#fe1010"/>
        <path id="Trazado_141927" data-name="Trazado 141927" d="M107.613,88.324c.1,4.614-2.723,6.849-6.151,8.546A13.556,13.556,0,0,1,96.2,98.325a5.694,5.694,0,0,1-6.242-6.4c.448-3.944,1.954-7.548,5.344-9.951a7.32,7.32,0,0,1,8.449-.286c2.568,1.521,4.066,3.753,3.864,6.633" transform="translate(-31.787 -28.454)" fill="#fe1010"/>
        <path id="Trazado_141928" data-name="Trazado 141928" d="M46.948,123.784a6.656,6.656,0,0,1-2.4,5.656,14.056,14.056,0,0,1-9.137,4.039,5.918,5.918,0,0,1-6.1-7.036,15.664,15.664,0,0,1,4.112-8.334,8.015,8.015,0,0,1,8.859-1.753c2.272.977,5.056,3.884,4.67,7.427" transform="translate(-10.325 -40.907)" fill="#fe1010"/>
        <path id="Trazado_141929" data-name="Trazado 141929" d="M22.458,184.753a7.944,7.944,0,0,1,7.391,4.933,8.072,8.072,0,0,1-1.864,8.585,14.835,14.835,0,0,1-8.485,4.145c-4.5.61-7.742-2.932-6.847-7.444a15.779,15.779,0,0,1,4.033-7.879,7.2,7.2,0,0,1,5.771-2.34" transform="translate(-4.421 -65.313)" fill="#fe1010"/>
        <path id="Trazado_141930" data-name="Trazado 141930" d="M139.858,103.968a7.971,7.971,0,0,1-3.484,6.607,21.287,21.287,0,0,1-6.356,3.012c-3.841,1.08-8.42-1.3-7.883-6.4.417-3.953,1.981-7.439,5.3-9.787a7.4,7.4,0,0,1,8.319-.361,7.8,7.8,0,0,1,4.11,6.927" transform="translate(-43.162 -33.916)" fill="#fe1010"/>
        <path id="Trazado_141931" data-name="Trazado 141931" d="M49.569,172.637A14.435,14.435,0,0,1,55,161.553c2.108-1.727,6.312-1.666,8.63-.063a8.216,8.216,0,0,1,3.558,8.444,8.5,8.5,0,0,1-3.862,5.333,16.325,16.325,0,0,1-7.728,2.8c-2.944.2-6.463-2.743-6.026-5.429" transform="translate(-17.511 -56.66)" fill="#fe1010"/>
        <path id="Trazado_141932" data-name="Trazado 141932" d="M152.329,168.408c-2.982.3-6.24-3.81-4.335-9.3a19.732,19.732,0,0,1,2.792-5.26c2.9-3.927,8.22-4.339,12.052-.949,3.167,2.8,3.192,8.093.015,11.265-2.585,2.579-5.692,4.024-10.524,4.243" transform="translate(-52.119 -53.243)" fill="#fe1010"/>
        <path id="Trazado_141933" data-name="Trazado 141933" d="M70.418,96.953a6.439,6.439,0,0,1-2.4,5.441c-3,2.618-6.4,4.5-10.536,3.838a5.689,5.689,0,0,1-4.724-6.718,15.021,15.021,0,0,1,4.066-8.359A7.735,7.735,0,0,1,65.3,89.132c3.466,1.435,5.141,3.949,5.122,7.821" transform="translate(-18.621 -31.322)" fill="#fe1010"/>
        <path id="Trazado_141934" data-name="Trazado 141934" d="M132.56,83.587a2.891,2.891,0,0,1-2.453,2.616,2.477,2.477,0,0,1-2.592-2.389,2.946,2.946,0,0,1,2.647-2.654,2.475,2.475,0,0,1,2.4,2.428" transform="translate(-45.079 -28.692)" fill="#fe1111"/>
        <path id="Trazado_141935" data-name="Trazado 141935" d="M47.039,147.344a2.729,2.729,0,0,1-2.614,2.409,2.523,2.523,0,0,1-2.391-2.435,2.9,2.9,0,0,1,2.677-2.605,2.466,2.466,0,0,1,2.329,2.631" transform="translate(-14.86 -51.159)" fill="#fe1111"/>
        <path id="Trazado_141936" data-name="Trazado 141936" d="M62.669,147.378a2.52,2.52,0,1,1-5.026.361,2.727,2.727,0,0,1,2.5-2.56,2.321,2.321,0,0,1,2.527,2.2" transform="translate(-20.378 -51.323)" fill="#fe1010"/>
        <path id="Trazado_141937" data-name="Trazado 141937" d="M42.01,226.063a2.5,2.5,0,0,1-2.4-2.417,3.045,3.045,0,0,1,2.781-2.532,2.389,2.389,0,0,1,2.215,2.415,2.464,2.464,0,0,1-2.591,2.534" transform="translate(-14.001 -78.169)" fill="#fe1010"/>
        <path id="Trazado_141938" data-name="Trazado 141938" d="M161.2,136.487a2.439,2.439,0,0,1,2.537-2.546,2.319,2.319,0,0,1,2.229,2.322,2.543,2.543,0,0,1-2.471,2.676,2.381,2.381,0,0,1-2.3-2.452" transform="translate(-56.99 -47.351)" fill="#fe1010"/>
        <path id="Trazado_141939" data-name="Trazado 141939" d="M154.744,131.974a2.558,2.558,0,0,1-2.432,2.561,2.4,2.4,0,0,1-2.334-2.606,2.454,2.454,0,0,1,2.561-2.391,2.111,2.111,0,0,1,2.205,2.436" transform="translate(-53.02 -45.795)" fill="#fe1010"/>
        <path id="Trazado_141940" data-name="Trazado 141940" d="M100.327,206.59a2.465,2.465,0,0,1-2.632,2.477,2.374,2.374,0,0,1-2.363-2.417,2.532,2.532,0,0,1,2.641-2.35,2.1,2.1,0,0,1,2.354,2.29" transform="translate(-33.701 -72.225)" fill="#fe1010"/>
        <path id="Trazado_141941" data-name="Trazado 141941" d="M70.826,187.223a2.328,2.328,0,0,1,2.282,2.3,2.536,2.536,0,0,1-2.48,2.7,2.371,2.371,0,0,1-2.288-2.332,2.474,2.474,0,0,1,2.486-2.668" transform="translate(-24.16 -66.188)" fill="#fe1010"/>
        <path id="Trazado_141942" data-name="Trazado 141942" d="M102.971,227.617a10.211,10.211,0,0,1,3-5.772,3.663,3.663,0,0,1,5.008.013,3.6,3.6,0,0,1,.233,5.094,9.69,9.69,0,0,1-6.173,3.111c-1.575.162-2.1-.432-2.069-2.445" transform="translate(-36.402 -78.08)" fill="#fdbf07"/>
        <path id="Trazado_141943" data-name="Trazado 141943" d="M95.194,176.09a10.4,10.4,0,0,1,3.081-5.778,3.733,3.733,0,0,1,5.209.445,3.693,3.693,0,0,1-.441,5.222,11.908,11.908,0,0,1-5.461,2.645c-1.691.328-2.465-.381-2.387-2.534" transform="translate(-33.651 -59.905)" fill="#fdbf07"/>
        <path id="Trazado_141944" data-name="Trazado 141944" d="M91.758,134.953a2.932,2.932,0,0,1-.476,1.791,10.028,10.028,0,0,1-7.041,3.669,1.549,1.549,0,0,1-1.659-1.389c-.456-2,2.279-6.947,4.216-7.626a3.655,3.655,0,0,1,4.959,3.554" transform="translate(-29.177 -46.371)" fill="#fdbf07"/>
        <path id="Trazado_141945" data-name="Trazado 141945" d="M132.316,192.14a2.635,2.635,0,0,1-.624,1.788,9.647,9.647,0,0,1-6.659,3.406c-1.383.1-2.086-.657-1.9-2.039a10.474,10.474,0,0,1,3.1-6.2,3.343,3.343,0,0,1,3.947-.586,3.661,3.661,0,0,1,2.137,3.635" transform="translate(-43.519 -66.504)" fill="#fdbf07"/>
        <path id="Trazado_141946" data-name="Trazado 141946" d="M64.942,220.422c-1.947.026-2.678-.721-2.411-2.251a11.389,11.389,0,0,1,2.788-5.723,3.707,3.707,0,1,1,5.011,5.427,10.811,10.811,0,0,1-5.388,2.547" transform="translate(-22.087 -74.685)" fill="#fdbf07"/>
        <path id="Trazado_141947" data-name="Trazado 141947" d="M126.96,146.653c-1.329.034-2.014-.571-1.9-1.906a9.534,9.534,0,0,1,3.216-6.432,3.5,3.5,0,0,1,4.952.279,3.583,3.583,0,0,1,.083,4.988,10.12,10.12,0,0,1-6.351,3.071" transform="translate(-44.207 -48.581)" fill="#fdbf07"/>
        <path id="Trazado_141948" data-name="Trazado 141948" d="M96.67,93.926a10.46,10.46,0,0,1,3.073-5.8,3.687,3.687,0,1,1,4.821,5.579A11.742,11.742,0,0,1,99.126,96.4c-1.709.344-2.5-.341-2.456-2.475" transform="translate(-34.174 -30.823)" fill="#fdbf07"/>
        <path id="Trazado_141949" data-name="Trazado 141949" d="M37.9,131.5c-1.37.037-1.976-.646-1.862-1.955a9.859,9.859,0,0,1,3.129-6.361,3.666,3.666,0,0,1,5.306,4.986A9.862,9.862,0,0,1,37.9,131.5" transform="translate(-12.736 -43.225)" fill="#fdbf07"/>
        <path id="Trazado_141950" data-name="Trazado 141950" d="M21.668,200.4c-2.05.024-2.713-.677-2.451-2.226A11.124,11.124,0,0,1,22,192.455a3.7,3.7,0,1,1,5,5.4,10.318,10.318,0,0,1-5.334,2.542" transform="translate(-6.774 -67.609)" fill="#fdbf07"/>
        <path id="Trazado_141951" data-name="Trazado 141951" d="M131.2,111.829c-2.175.025-2.862-.754-2.557-2.372a11.73,11.73,0,0,1,2.749-5.579,3.687,3.687,0,0,1,5.6,4.8,10.646,10.646,0,0,1-5.79,3.152" transform="translate(-45.455 -36.279)" fill="#fdbf07"/>
        <path id="Trazado_141952" data-name="Trazado 141952" d="M65.354,170.864a2.639,2.639,0,0,1-.663,1.844,10.093,10.093,0,0,1-6.7,3.413,1.558,1.558,0,0,1-1.828-1.846,9.675,9.675,0,0,1,3.556-6.775,3.263,3.263,0,0,1,3.7-.193,3.631,3.631,0,0,1,1.929,3.557" transform="translate(-19.851 -58.977)" fill="#fdbf07"/>
        <path id="Trazado_141953" data-name="Trazado 141953" d="M159.39,157.34a3.484,3.484,0,0,1,3.5,2.124,3.308,3.308,0,0,1-.575,3.931,10.493,10.493,0,0,1-6.045,3.111c-1.51.249-2.466-.637-2.27-2.015a11.337,11.337,0,0,1,2.959-6.137,2.853,2.853,0,0,1,2.432-1.014" transform="translate(-54.433 -55.616)" fill="#fdbf07"/>
        <path id="Trazado_141954" data-name="Trazado 141954" d="M64.928,95.289a3.588,3.588,0,0,1,3.4,2.11,3.314,3.314,0,0,1-.548,3.953,9.955,9.955,0,0,1-6.189,3.108c-1.574.173-2.2-.429-2.077-1.974a9.665,9.665,0,0,1,3.36-6.532,2.783,2.783,0,0,1,2.054-.665" transform="translate(-21.035 -33.685)" fill="#fdbf07"/>
      </g>
    </g>
  </g>
</svg>
