<svg xmlns="http://www.w3.org/2000/svg" xmlns:xlink="http://www.w3.org/1999/xlink" width="287" height="155.419" viewBox="0 0 287 155.419">
  <defs>
    <clipPath id="clip-path">
      <rect id="Rectángulo_38670" data-name="Rectángulo 38670" width="122.776" height="128.419" fill="none"/>
    </clipPath>
  </defs>
  <g id="Grupo_161709" data-name="Grupo 161709" transform="translate(-377 -1865)">
    <path id="Imagen_37" data-name="Imagen 37" d="M19,0H268a19,19,0,0,1,19,19V121a0,0,0,0,1,0,0H0a0,0,0,0,1,0,0V19A19,19,0,0,1,19,0Z" transform="translate(377 1865)" fill="#e1e8ff"/>
    <g id="Grupo_161708" data-name="Grupo 161708" transform="translate(-4)">
      <g id="Grupo_161706" data-name="Grupo 161706" transform="translate(420 1892)">
        <g id="Grupo_161705" data-name="Grupo 161705" clip-path="url(#clip-path)">
          <path id="Trazado_141883" data-name="Trazado 141883" d="M9.291,69.658c4.564-6.454,10.59-10.7,18.467-12.034,9.063-1.532,16.934,1.467,24.19,6.607a17.791,17.791,0,0,0,5.825,2.815,2.9,2.9,0,0,0,1.235.088c1.762-.258,3.548.092,5.305-.222a14.336,14.336,0,0,0,6.433-2.684,40.29,40.29,0,0,1,11.68-5.9,4.036,4.036,0,0,1,2.544-.368,29.6,29.6,0,0,1,13.86.4,4.49,4.49,0,0,1,2.68,1.474c2.86,3.627,4.612,7.831,6.237,12.091a61.261,61.261,0,0,1-2.11,47.019,61.441,61.441,0,0,1-8.306,13.116,60.847,60.847,0,0,1-26.065,18.349,60.61,60.61,0,0,1-41.784.036,66.534,66.534,0,0,1-12.974-6.541,17.383,17.383,0,0,1-5.788-6.115,75.281,75.281,0,0,1-8.636-23.366A67.833,67.833,0,0,1,.8,97.252c.551-9.577,2.748-18.691,8.159-26.806a1.256,1.256,0,0,0,.333-.789" transform="translate(-0.411 -33.731)" fill="#ec7061"/>
          <path id="Trazado_141884" data-name="Trazado 141884" d="M8.88,73.415c.456.346.04.571-.121.819A50.291,50.291,0,0,0,1.325,94.618a62.069,62.069,0,0,0-.673,12.964,77.47,77.47,0,0,0,6.534,27.287,65.816,65.816,0,0,0,4.684,8.7c1.386,2.143,3.628,3.3,5.688,4.6A58.607,58.607,0,0,0,35.919,155.9a61.074,61.074,0,0,0,10.1,1.487c1.749.1,3.5.248,5.245.181a64.313,64.313,0,0,0,15.726-2.469,60.442,60.442,0,0,0,32.116-22.653,61.282,61.282,0,0,0,9.629-20.37,62.076,62.076,0,0,0,1.7-9.94A65.2,65.2,0,0,0,110.6,94a56.087,56.087,0,0,0-2.338-14.488,59.427,59.427,0,0,0-7.048-15.436,1.54,1.54,0,0,1-.118-.478c8.7,3.786,14.052,10.675,17.592,19.159,3.719,8.915,4.65,18.257,3.787,27.807a73.944,73.944,0,0,1-10.92,33.008A53.828,53.828,0,0,1,98,158.57c-9.2,6.809-19.149,9.426-30.321,5.5a18.536,18.536,0,0,0-12.559-.008c-11.632,4.105-21.836,1.067-31.026-6.331A61.433,61.433,0,0,1,4.654,130.04,83.024,83.024,0,0,1,.641,113.811a66.332,66.332,0,0,1-.482-13.87A53.645,53.645,0,0,1,6.089,77.8a27.889,27.889,0,0,1,2.791-4.39" transform="translate(0 -37.488)" fill="#d46455"/>
          <path id="Trazado_141885" data-name="Trazado 141885" d="M174.868,24.338A37.238,37.238,0,0,0,161.75,30.27c-.268.19-.571.334-.857.5-2.126.714-4.3.376-6.461.3-.581-.153-.733-.623-.826-1.133a23.592,23.592,0,0,1-.4-2.592,2.146,2.146,0,0,1,.853-1.473Q166.505,13.411,178.96.959a3.26,3.26,0,0,1,1.121-.781c.479.285.252.753.255,1.131.022,2.755-.029,5.512.021,8.267a20.405,20.405,0,0,1-4.965,14.059c-.189.222-.35.468-.524.7" transform="translate(-90.309 -0.105)" fill="#97d762"/>
          <path id="Trazado_141886" data-name="Trazado 141886" d="M175.248.073c-.607.634-1.2,1.279-1.822,1.9q-11.894,11.9-23.792,23.8c-.353.353-.672.74-1.007,1.112-.484.05-.521-.36-.6-.648a40.374,40.374,0,0,0-2.906-7.713.707.707,0,0,1-.027-.717,20.707,20.707,0,0,1,6.943-12.823A19.3,19.3,0,0,1,163.848.1c3.79-.2,7.6-.029,11.4-.023" transform="translate(-85.476 0)" fill="#87bf57"/>
          <path id="Trazado_141887" data-name="Trazado 141887" d="M126.46,31.542A47.662,47.662,0,0,1,130,40.621l.666,3.761a2.645,2.645,0,0,1,.28,2.8,12.059,12.059,0,0,1-5.5-.044,54.523,54.523,0,0,0-1.579-6.164,20.124,20.124,0,0,0-7.49-9.928,21.694,21.694,0,0,1-1.763-1.4,3.63,3.63,0,1,1,4.853-5.394,39.87,39.87,0,0,1,7,7.293" transform="translate(-66.845 -13.735)" fill="#be8d5f"/>
          <path id="Trazado_141888" data-name="Trazado 141888" d="M45.264,91.2c-6.841,5.053-9.971,11.9-11.7,19.77-1.626,7.422-1.509,14.863-1.4,22.346.008.544.025,1.088.03,1.632a2.837,2.837,0,0,1-.1.431,27.309,27.309,0,0,1-2.039-5.442,38.1,38.1,0,0,1,2.8-29.305c2.34-4.473,5.707-7.94,10.818-9.271a5.858,5.858,0,0,1,.734-.156,8.5,8.5,0,0,1,.854-.005" transform="translate(-16.714 -53.756)" fill="#fefefe"/>
        </g>
      </g>
      <g id="Grupo_161707" data-name="Grupo 161707" transform="translate(506 1892)">
        <g id="Grupo_161705-2" data-name="Grupo 161705" clip-path="url(#clip-path)">
          <path id="Trazado_141883-2" data-name="Trazado 141883" d="M9.291,69.658c4.564-6.454,10.59-10.7,18.467-12.034,9.063-1.532,16.934,1.467,24.19,6.607a17.791,17.791,0,0,0,5.825,2.815,2.9,2.9,0,0,0,1.235.088c1.762-.258,3.548.092,5.305-.222a14.336,14.336,0,0,0,6.433-2.684,40.29,40.29,0,0,1,11.68-5.9,4.036,4.036,0,0,1,2.544-.368,29.6,29.6,0,0,1,13.86.4,4.49,4.49,0,0,1,2.68,1.474c2.86,3.627,4.612,7.831,6.237,12.091a61.261,61.261,0,0,1-2.11,47.019,61.441,61.441,0,0,1-8.306,13.116,60.847,60.847,0,0,1-26.065,18.349,60.61,60.61,0,0,1-41.784.036,66.534,66.534,0,0,1-12.974-6.541,17.383,17.383,0,0,1-5.788-6.115,75.281,75.281,0,0,1-8.636-23.366A67.833,67.833,0,0,1,.8,97.252c.551-9.577,2.748-18.691,8.159-26.806a1.256,1.256,0,0,0,.333-.789" transform="translate(-0.411 -33.731)" fill="#ec7061"/>
          <path id="Trazado_141884-2" data-name="Trazado 141884" d="M8.88,73.415c.456.346.04.571-.121.819A50.291,50.291,0,0,0,1.325,94.618a62.069,62.069,0,0,0-.673,12.964,77.47,77.47,0,0,0,6.534,27.287,65.816,65.816,0,0,0,4.684,8.7c1.386,2.143,3.628,3.3,5.688,4.6A58.607,58.607,0,0,0,35.919,155.9a61.074,61.074,0,0,0,10.1,1.487c1.749.1,3.5.248,5.245.181a64.313,64.313,0,0,0,15.726-2.469,60.442,60.442,0,0,0,32.116-22.653,61.282,61.282,0,0,0,9.629-20.37,62.076,62.076,0,0,0,1.7-9.94A65.2,65.2,0,0,0,110.6,94a56.087,56.087,0,0,0-2.338-14.488,59.427,59.427,0,0,0-7.048-15.436,1.54,1.54,0,0,1-.118-.478c8.7,3.786,14.052,10.675,17.592,19.159,3.719,8.915,4.65,18.257,3.787,27.807a73.944,73.944,0,0,1-10.92,33.008A53.828,53.828,0,0,1,98,158.57c-9.2,6.809-19.149,9.426-30.321,5.5a18.536,18.536,0,0,0-12.559-.008c-11.632,4.105-21.836,1.067-31.026-6.331A61.433,61.433,0,0,1,4.654,130.04,83.024,83.024,0,0,1,.641,113.811a66.332,66.332,0,0,1-.482-13.87A53.645,53.645,0,0,1,6.089,77.8a27.889,27.889,0,0,1,2.791-4.39" transform="translate(0 -37.488)" fill="#d46455"/>
          <path id="Trazado_141885-2" data-name="Trazado 141885" d="M174.868,24.338A37.238,37.238,0,0,0,161.75,30.27c-.268.19-.571.334-.857.5-2.126.714-4.3.376-6.461.3-.581-.153-.733-.623-.826-1.133a23.592,23.592,0,0,1-.4-2.592,2.146,2.146,0,0,1,.853-1.473Q166.505,13.411,178.96.959a3.26,3.26,0,0,1,1.121-.781c.479.285.252.753.255,1.131.022,2.755-.029,5.512.021,8.267a20.405,20.405,0,0,1-4.965,14.059c-.189.222-.35.468-.524.7" transform="translate(-90.309 -0.105)" fill="#97d762"/>
          <path id="Trazado_141886-2" data-name="Trazado 141886" d="M175.248.073c-.607.634-1.2,1.279-1.822,1.9q-11.894,11.9-23.792,23.8c-.353.353-.672.74-1.007,1.112-.484.05-.521-.36-.6-.648a40.374,40.374,0,0,0-2.906-7.713.707.707,0,0,1-.027-.717,20.707,20.707,0,0,1,6.943-12.823A19.3,19.3,0,0,1,163.848.1c3.79-.2,7.6-.029,11.4-.023" transform="translate(-85.476 0)" fill="#87bf57"/>
          <path id="Trazado_141887-2" data-name="Trazado 141887" d="M126.46,31.542A47.662,47.662,0,0,1,130,40.621l.666,3.761a2.645,2.645,0,0,1,.28,2.8,12.059,12.059,0,0,1-5.5-.044,54.523,54.523,0,0,0-1.579-6.164,20.124,20.124,0,0,0-7.49-9.928,21.694,21.694,0,0,1-1.763-1.4,3.63,3.63,0,1,1,4.853-5.394,39.87,39.87,0,0,1,7,7.293" transform="translate(-66.845 -13.735)" fill="#be8d5f"/>
          <path id="Trazado_141888-2" data-name="Trazado 141888" d="M45.264,91.2c-6.841,5.053-9.971,11.9-11.7,19.77-1.626,7.422-1.509,14.863-1.4,22.346.008.544.025,1.088.03,1.632a2.837,2.837,0,0,1-.1.431,27.309,27.309,0,0,1-2.039-5.442,38.1,38.1,0,0,1,2.8-29.305c2.34-4.473,5.707-7.94,10.818-9.271a5.858,5.858,0,0,1,.734-.156,8.5,8.5,0,0,1,.854-.005" transform="translate(-16.714 -53.756)" fill="#fefefe"/>
        </g>
      </g>
    </g>
  </g>
</svg>
