<svg xmlns="http://www.w3.org/2000/svg" xmlns:xlink="http://www.w3.org/1999/xlink" width="287" height="195.659" viewBox="0 0 287 195.659">
  <defs>
    <clipPath id="clip-path">
      <rect id="Rectángulo_38674" data-name="Rectángulo 38674" width="127.084" height="186.988" fill="none"/>
    </clipPath>
  </defs>
  <g id="Grupo_161719" data-name="Grupo 161719" transform="translate(-951 -2126)">
    <path id="Imagen_40" data-name="Imagen 40" d="M19,0H268a19,19,0,0,1,19,19V121a0,0,0,0,1,0,0H0a0,0,0,0,1,0,0V19A19,19,0,0,1,19,0Z" transform="translate(951 2126)" fill="#e1e8ff"/>
    <g id="Grupo_161721" data-name="Grupo 161721" transform="translate(1031 2134.671)">
      <g id="Grupo_161721-2" data-name="Grupo 161721" clip-path="url(#clip-path)">
        <path id="Trazado_141955" data-name="Trazado 141955" d="M98.214,207.962a51.588,51.588,0,0,1-10.133-2.747,36.05,36.05,0,0,1-14.168-10.868c-.37-.471-.823-.877-1.238-1.312-2.069-1.818-2.936-4.386-4.043-6.761A31.2,31.2,0,0,1,65.937,176a19.812,19.812,0,0,1-.066-7.35A35.725,35.725,0,0,1,69.665,155.5c3.728-6.537,8.723-11.754,15.63-14.978.439-.205.86-.453.955-.466-.924.306-2.245.674-3.513,1.185-1.349.544-2.7,1.08-4,1.748-.522.27-1.006.734-1.679.418-.5-3.562-2.673-6.312-4.521-9.2a79.311,79.311,0,0,0-6.129-7.934c-1.9-2.276-2.613-2.215-4.536-.005a82.294,82.294,0,0,0-9.365,13c-1.174,2.041-1.337,3.609.288,5.555,2.194,2.63,2.043,2.757,4.691.49.185-.159.383-.3.57-.456,4.848-4.014,9.195-3.514,13.972,2.036a1.359,1.359,0,0,1-.546,1.275c-1.364,1.281-2.492,2.788-3.88,4.045a1.032,1.032,0,0,1-.518,0,4.889,4.889,0,0,1-1.258-1.03c-1.6-1.507-2.044-1.565-3.572.087a60.919,60.919,0,0,0-10.463,15.008,2.11,2.11,0,0,0,.238,2.51,33,33,0,0,1,2.317,3.26c.522.829,1.07.843,1.752.176a22.2,22.2,0,0,1,2.769-2.621c.663-.456,1.462-1.117,2.1.108a48,48,0,0,1,.111,7.465,2.331,2.331,0,0,1-.111.572,81.769,81.769,0,0,1-6.584,8.45,4.378,4.378,0,0,1-3.49-2.744c.374-1.178,1.093-1.588,2.2-.9.764.473,1.253.179,1.674-.457a38.009,38.009,0,0,1,3.133-4.033,2.786,2.786,0,0,0,.448-2.414c-.1-.778.06-1.568-.086-2.369-3.113,3.232-3.672,3.181-6.3-.525-.74-1.041-1.472-2.087-2.271-3.087a3.4,3.4,0,0,1-.339-3.916A73.055,73.055,0,0,1,60.115,149.96c2.184-2.533,3.275-2.789,6.49-1.516.857.34,1.251-.1,1.632-.692.467-.722.149-1.235-.448-1.711a5.734,5.734,0,0,0-6.509-.507,19.113,19.113,0,0,0-4.019,3.414c-1.983,1.92-3.058,1.837-4.715-.409-1.011-1.37-1.923-2.81-2.943-4.175a3.451,3.451,0,0,1-.341-3.792,62.284,62.284,0,0,1,12.072-17.045,4.1,4.1,0,0,1,6.119.407A73.742,73.742,0,0,1,78,138.545c.654,1.23,1.285,1.5,2.572.881a37.3,37.3,0,0,1,9.592-2.706,7.161,7.161,0,0,0-5.586.847c-2.113,1.331-3.4.9-4.624-1.288-1.04-1.861-2.194-3.649-3.371-5.424a3.214,3.214,0,0,1-.09-3.767,70.856,70.856,0,0,1,9.147-11.806,3.684,3.684,0,0,1,5.762.134,71.9,71.9,0,0,1,9.694,12.763c1.139,1.969,2.491,3.9.559,6.155-.273.318-.2.665.227.885a2.037,2.037,0,0,0,2.813-1.583c.619-3.849-.921-7-3.1-9.965-.468-.637-.962-1.257-1.38-1.93a3.463,3.463,0,0,1,0-3.951c.488-.773,1.055-1.49,1.616-2.209,1.524-1.955,1.529-1.951.087-4.287a16.019,16.019,0,0,0-2.706,3.09c-1.575,2.006-2.653,2.1-4.487.343a20.08,20.08,0,0,0-2.5-2.119,6.423,6.423,0,0,0-7.511-.3c-2.245,1.345-3.265,1.05-4.621-1.182-1.137-1.873-2.252-3.757-3.442-5.6A3.336,3.336,0,0,1,76.6,101.6,83,83,0,0,1,82.179,93.7c.809-.963,1.64-1.559,2.608-.179.173.786-.428,1.216-.821,1.727a78.826,78.826,0,0,0-4.88,7.024,2.129,2.129,0,0,0,.021,2.659c1.09,1.534,1.965,3.207,2.95,4.81.366.594.764.963,1.46.494,4.573-3.076,8.384-1.291,12,1.859,1.478,1.288,1.446,1.23,2.716-.306,1.283-1.551,2.349-3.344,4.292-4.233a19.835,19.835,0,0,1,2.679,6.851c-.114,1.593-1.387,2.483-2.27,3.57a2.32,2.32,0,0,0-.1,3.343,43.564,43.564,0,0,1,4.058,6.664v7.676a2.1,2.1,0,0,1-2.221,1.528,39.538,39.538,0,0,0-5.816.344c-.584.091-1.314.113-1.661-.476-.361-.613.114-1.158.475-1.641a13.138,13.138,0,0,1,1.366-1.707c1.223-1.162,1.219-2.284.356-3.719A82.243,82.243,0,0,0,90.3,117.685c-1.323-1.486-2.04-1.526-3.465-.094a62.284,62.284,0,0,0-7.749,9.886,2.255,2.255,0,0,0,.068,2.851,28.227,28.227,0,0,1,2.473,4.042c.614,1.24,1.186,1.553,2.5.74,3.595-2.231,6.658-1.491,10.095,1.106,1.325,1,1.186,1.691-.388,2.276a38.969,38.969,0,0,0-6.052,2.516c-10.7,6.177-16.048,15.466-16.5,27.771-.553,14.973,9.639,29.922,24.812,34.807a32.208,32.208,0,0,0,17.979.729c.672-.167,1.483-.814,2.025.264a30.876,30.876,0,0,1-9.936,3.039c-.469.064-.974-.019-1.369.342Z" transform="translate(-11.051 -20.974)" fill="#fe9724"/>
        <path id="Trazado_141956" data-name="Trazado 141956" d="M80.915,91.279c-.835-.755-1.462-.772-2.173.282-1.69,2.506-3.482,4.944-5.269,7.383a3.383,3.383,0,0,0-.059,4.342c1.263,1.85,2.4,3.787,3.568,5.7.867,1.423,1.958,1.879,3.278.826,3.491-2.786,7.735-1.13,10.287,1.5.423.436.847.875,1.295,1.288a1.683,1.683,0,0,0,2.8-.233c1.151-1.469,2.288-2.95,3.456-4.458,1.887,3.555,2.772,2.866.084,5.859-.363.4-.672.857-.994,1.3-1.267,1.729-1.339,2.947-.015,4.6,1.186,1.48,1.957,3.219,3.082,4.711,1.875,2.485,1.083,5.281,1.007,7.929-.043,1.513-1.794,1.141-2.809,1.1-1.994-.074-2.153-.4-.885-1.852a2.971,2.971,0,0,0,.316-3.812,62.54,62.54,0,0,0-8.967-12.53,12.44,12.44,0,0,0-2.341-2.506,3.1,3.1,0,0,0-4.241.369A76.767,76.767,0,0,0,72.973,125.1a2.44,2.44,0,0,0,.042,2.908,70.21,70.21,0,0,1,3.912,6.35c.772,1.432,2.081,1.633,3.72.406,1.736-1.3,3.641-1.172,5.577-1.081a2.392,2.392,0,0,1,1.565.883c-2.979.736-5.878.955-8.569,2.009-.451.177-.929.286-1.381.46-2.982,1.153-3.086,1.212-4.506-1.469-2.748-5.186-6.5-9.618-10.246-14.062a3.686,3.686,0,0,0-5.073-.18,64.347,64.347,0,0,0-12.17,17.111,2.972,2.972,0,0,0,.271,3.263q1.686,2.362,3.4,4.707c1.083,1.485,1.886,1.54,3.249.247A26.961,26.961,0,0,1,56.809,143a6.623,6.623,0,0,1,7.908.53c1.387,1.126.327,1.879-.245,2.7s-1.133,1.07-2.039.2a3.181,3.181,0,0,0-4.689.38,85.807,85.807,0,0,0-10.377,13.968c-1.981,3.236-2.3,5.908.641,8.626a13.444,13.444,0,0,1,1.616,2.4,1.976,1.976,0,0,0,3.358.092,6.255,6.255,0,0,1,1.89-1.928,32.159,32.159,0,0,1,.292,4.853c.031.932-1.312,1.912-2.044,2.865-.553.72-1.162,1.4-1.664,2.155-.671,1.006-1.164,2.065-2.509.6-.8-.877-1.2.147-1.623.688-1.089.116-1.465-.762-1.994-1.428a1.415,1.415,0,0,1-.063-.515c1.171-1.642.686-3.032-.432-4.547a85.64,85.64,0,0,0-6.581-8.385A8.636,8.636,0,0,0,35.035,164,15.059,15.059,0,0,1,33.13,157.9a1.281,1.281,0,0,1,.173-.515c2.487-1.311,4.852-.677,7.052.645,1.223.734,1.862.7,2.509-.652a28.4,28.4,0,0,1,2.573-4.178,2,2,0,0,0,.067-2.509,71.851,71.851,0,0,0-7.752-10.077c-1.518-1.626-1.718-1.548-3.416-.142-.524.433-1.055,1.623-1.974.385a34.71,34.71,0,0,1-.043-7.445,2.447,2.447,0,0,1,2.4-1.633,8.252,8.252,0,0,1,5.773,1.16c.879.628,1.474.58,2.024-.45a36.158,36.158,0,0,1,2.81-4.476,2.229,2.229,0,0,0,.012-2.843,69.019,69.019,0,0,0-7.708-9.917c-1-1.052-1.911-1.438-3.059-.24-.307.32-.731.71-1.267.277-.435-1.332.269-2.491.594-3.694a20.449,20.449,0,0,1,1.855-4.916.96.96,0,0,1,.458-.28,7.51,7.51,0,0,1,4.444,1.385c.894.589,1.394.376,1.855-.523a34.98,34.98,0,0,1,2.846-4.66,2.224,2.224,0,0,0-.047-2.826c-.824-1.317-2.076-2.41-2.286-4.076a11.545,11.545,0,0,1,4.628-4.591,1.189,1.189,0,0,1,.521.053,4.5,4.5,0,0,1,1.5,1.557c1.407,1.995,1.407,1.993,3.22.224a19,19,0,0,1,3.951-2.906c2.624-1.488,5.118-1.138,7.6.322a18.267,18.267,0,0,1,4.044,3.377c.709.759,1.305.8,1.858-.156a3.648,3.648,0,0,1,.72-1.048c2.867-2.329,1.975-4.752.321-7.3-.541-.835-1.592-1.623-.919-2.892,1.125-.347,2.126.186,3.151.472a43.542,43.542,0,0,1,6.193,2.462,2.435,2.435,0,0,1,1.479,1.241l2.592,1.782c-.393,1.586-1.761,2.2-2.964,2.984" transform="translate(-7.271 -18.602)" fill="#fe9724"/>
        <path id="Trazado_141957" data-name="Trazado 141957" d="M122.476,211.371c-1.367-.539-2.591.316-3.817.564-16.779,3.388-33.87-7.934-39.278-23.3-3.877-11.012-2.971-21.549,3.434-31.276a29.393,29.393,0,0,1,16.116-12.126c.768-.239,2.073-.25,2.119-1.019.049-.808-1.161-1.277-1.9-1.727-3.149-1.91-6.328-1.967-9.3.345-.885.688-1.227.407-1.655-.334a32.526,32.526,0,0,0-2.688-4.523,3.225,3.225,0,0,1-.115-4.6,85.95,85.95,0,0,1,7.853-9.749c1.226-1.218,2.242-1.215,3.374.048a79.869,79.869,0,0,1,10.057,13.755,2.069,2.069,0,0,1-.453,2.885,41.844,41.844,0,0,0-2.9,3.555c3.2-.155,5.932-.244,8.655-.46.453-.036.862-.626,1.291-.96-.175,1.171.47,1.561,1.512,1.73,14.095,2.282,27.427,14.354,29.479,31.637,1.689,14.22-5.014,27.123-17.381,33.38-1.46.739-2.936,1.447-4.4,2.17" transform="translate(-17.436 -27.764)" fill="#fec126"/>
        <path id="Trazado_141958" data-name="Trazado 141958" d="M88.646,79.333c-3.538-1.615-7-3.434-10.939-3.953-.823.47-1.611.006-2.415-.084a39.7,39.7,0,0,0-7.886-.522,6,6,0,0,1-2.142-.2c-1.017-.588-.49-1.327-.137-1.982a34.9,34.9,0,0,1,2.268-3.628A43.96,43.96,0,0,1,85.453,54.178c.813-.36,1.452-1.111,2.43-1.1.739.733,1.344-.067,1.926-.255a44.555,44.555,0,0,1,28.657.064c.611.205,1.206.46,2.174.833C107.567,59.59,96.865,67.932,88.646,79.333" transform="translate(-14.631 -11.422)" fill="#51b442"/>
        <path id="Trazado_141959" data-name="Trazado 141959" d="M53.2,69.129c-1.019,1.662-2.308,3.168-2.929,5.06-1.3.958-2.886.747-4.344,1.058-.891.19-1.8.276-2.689.473a39.639,39.639,0,0,0-9.048,3.066c-.686.315-1.326.9-2.187.548A77.433,77.433,0,0,0,0,53.747a40.776,40.776,0,0,1,10.906-2.888,44.944,44.944,0,0,1,20.631,2.222c.367.125.819.713,1.213,0a44.66,44.66,0,0,1,12.669,7.49c1.4,1.228,3,2.256,4.069,3.844A42.5,42.5,0,0,1,53.2,69.129" transform="translate(0 -11.423)" fill="#419335"/>
        <path id="Trazado_141960" data-name="Trazado 141960" d="M67.583,63.672c-1.725-1.11-2.568-3.026-4.017-4.39-.1-4.821,1.418-9.229,3.438-13.508,2.394-4.472,5.224-8.606,9.321-11.722.917-.7,1.709-1.532,2.629-2.221.752.819,1.206-.093,1.673-.365,9.593-5.622,19.648-6.562,30.661-2.98A62.919,62.919,0,0,0,87.632,47.623c-1.311,1.461-3.233,1.855-4.868,2.737A44.575,44.575,0,0,0,67.583,63.672" transform="translate(-14.38 -5.965)" fill="#307825"/>
        <path id="Trazado_141961" data-name="Trazado 141961" d="M28.41,139.611q.006,4.2.011,8.408a.606.606,0,0,1,.118.484c-1.333,2.314-3.313,4.144-4.772,6.374-.9,1.37-1.725,2.775-2.6,4.157a1.739,1.739,0,0,0,.173,2.307c1.021,1.2,2.018,2.418,2.933,3.7.625.874,1.232.948,2.122.312.784-.56,1.542-1.455,2.727-.9a39.176,39.176,0,0,0,1.851,6.215.446.446,0,0,1,.027.482,87.545,87.545,0,0,0-7.622,9.438c-.356.521-.669,1.207-1.527,1.016a21.6,21.6,0,0,1-3.711-5.783c-.226-.894.35-1.488.847-2.063a2.169,2.169,0,0,0,.036-3.078q-2-2.674-4.066-5.3a6.249,6.249,0,0,1-1.085-1.652,26.549,26.549,0,0,1-.731-8.4,3.837,3.837,0,0,0,2.687-2.141,19.983,19.983,0,0,1,2.367-3.456,2.162,2.162,0,0,0,.021-3.092c-1.271-1.708-2.537-3.416-3.952-5.005a5.1,5.1,0,0,1-1.119-1.643l0-7.67c1.417-2.261,2.711-4.6,4.291-6.758a2.1,2.1,0,0,0-.036-2.942c-.662-.789-1.228-1.656-1.907-2.435-.419-.482-1.006-.94-.6-1.723a21.476,21.476,0,0,1,2.557-6.6c1.052-.179,1.5.678,2.006,1.284.89,1.066,1.808,2.111,2.664,3.208,1.185,1.519,1.274,1.531,2.6.193a13.467,13.467,0,0,1,4.173-2.838,3.693,3.693,0,0,1,2.79-.376c-.79,2.933-2.162,5.7-2.537,8.752.171.382-.035.672-.231.966a79.207,79.207,0,0,0-8.276,11.5c-.8,1.356-.809,2.444.423,3.525a16.67,16.67,0,0,1,2.269,2.836c.634.864,1.221,1.033,2.068.227a4.976,4.976,0,0,1,2.772-1.626l.238.1" transform="translate(-2.958 -25.301)" fill="#d8811f"/>
        <path id="Trazado_141962" data-name="Trazado 141962" d="M55.844,45.758a34.118,34.118,0,0,0-3.668,12.916c-.019.21-.216.407-.33.609a42.506,42.506,0,0,0-12.062-9.16c-1.493-.764-3.169-1.231-4.376-2.5A63.142,63.142,0,0,0,11.754,28.486c11.011-3.586,21.07-2.643,30.674,3,.484.285,1.177,1.483,1.705-.03a27.711,27.711,0,0,0,4.024,3.887,29.854,29.854,0,0,1,7.687,10.419" transform="translate(-2.659 -5.965)" fill="#1f5c16"/>
        <path id="Trazado_141963" data-name="Trazado 141963" d="M65.311,39.793c-1.548-1.694-2.387-3.863-3.85-5.638a37.452,37.452,0,0,0-6.5-6.463,2.619,2.619,0,0,1-1.36-2.205A39.167,39.167,0,0,1,57.958,10.94,54.576,54.576,0,0,1,65.11,0a52.676,52.676,0,0,1,9.34,15.962,32.6,32.6,0,0,1,2.249,9.9c-.373,1.684-1.985,2.213-3.091,3.148a34.435,34.435,0,0,0-8.3,10.779" transform="translate(-12.126 0)" fill="#15470d"/>
        <path id="Trazado_141964" data-name="Trazado 141964" d="M93.217,93.054c.7-1.278,2.1-1.863,2.964-2.984a39.369,39.369,0,0,1,14.864,16.891c-1.493,1.822-3.364,3.333-4.6,5.358-.671,1.1-1.1,1.124-2.013.222a23.753,23.753,0,0,0-3.55-2.814c-3.015-2.014-6-1.513-8.807.443-.778.543-1.058.7-1.587-.247-1.119-2.01-2.363-3.952-3.617-5.883a1.687,1.687,0,0,1,.045-2.109,79.744,79.744,0,0,1,6.3-8.876" transform="translate(-19.574 -20.377)" fill="#fec126"/>
        <path id="Trazado_141965" data-name="Trazado 141965" d="M32.966,108.322a12.78,12.78,0,0,0-7.521,4.413c-.563.651-.9.634-1.536-.071-1.736-1.928-3.033-4.252-5.177-5.813A40.278,40.278,0,0,1,34.067,89.7a35.9,35.9,0,0,1,5.586,6.357,2.025,2.025,0,0,1,.433,1.349,1.7,1.7,0,0,1-.426,1.331,36.816,36.816,0,0,0-5.544,8.6,2.549,2.549,0,0,1-.783.972l-.366.015" transform="translate(-4.238 -20.292)" fill="#d8a420"/>
        <path id="Trazado_141966" data-name="Trazado 141966" d="M24.423,198.9c2.1-2.092,3.46-4.768,5.466-6.929,1.167-1.257,2.05-2.8,3.62-3.661.681.183.9.785,1.135,1.328a38.159,38.159,0,0,0,8.334,12.443,2.928,2.928,0,0,1,.765,1.216c0,.12,0,.24.005.36a56.386,56.386,0,0,1-4.366,7.535A40.3,40.3,0,0,1,24.423,198.9" transform="translate(-5.525 -42.602)" fill="#d8a420"/>
        <path id="Trazado_141967" data-name="Trazado 141967" d="M67.082,200.067a36.236,36.236,0,0,0,5.232,14.952c.37.609.971,1.11,1.009,1.9a42.666,42.666,0,0,1-21.6-1.088,8.948,8.948,0,0,1,3.21-5.7c1.194-.083,2.026.695,2.923,1.277a33.807,33.807,0,0,0,7.118,3.366c-.2-1.591-1.659-2.638-1.175-4.207.448-.368,1.035-.291,1.537-.48a2.052,2.052,0,0,0,1.422-2.553,2.187,2.187,0,0,0-2.777-1.373c-.6.156-1.073.9-1.818.409a7.563,7.563,0,0,1-.908-4.677c.005-.125.01-.249.015-.374.371-.549.567-1.192.991-1.718,1.693-2.1,3.412-2.017,4.824.268" transform="translate(-11.7 -44.858)" fill="#d8a420"/>
        <path id="Trazado_141968" data-name="Trazado 141968" d="M44.4,95.78a31.851,31.851,0,0,0-4.517-5.824c-.515-.559-1.3-.944-1.332-1.855l2.178-1.493c3.533-1.657,7.023-3.432,10.964-3.964.422.479.086.9-.126,1.306-.358.689-.77,1.35-1.183,2.009-1.039,1.657-1.9,3.356-1.237,5.4a31.158,31.158,0,0,0-4.387,4.413.2.2,0,0,1-.359,0" transform="translate(-8.721 -18.697)" fill="#d8811f"/>
        <path id="Trazado_141969" data-name="Trazado 141969" d="M13.168,148.214a37.748,37.748,0,0,1,6.076,7.383,1.292,1.292,0,0,1-.091,1.766,48.911,48.911,0,0,0-3.9,5.879c-.572,1.107-1.406.116-2.086.31q0-7.668,0-15.338" transform="translate(-2.978 -33.531)" fill="#d8a420"/>
        <path id="Trazado_141970" data-name="Trazado 141970" d="M53.243,212.529a25.546,25.546,0,0,0-3.325,5.533,21.837,21.837,0,0,1-6.161-2.381,25.877,25.877,0,0,1,4.366-7.535l1.828,1.468a10.551,10.551,0,0,0,3.266,2.564.212.212,0,0,1,.1.227c-.024.082-.05.123-.077.123" transform="translate(-9.899 -47.089)" fill="#d8811f"/>
        <path id="Trazado_141971" data-name="Trazado 141971" d="M14.9,120.391c.771,1.726,2.333,2.876,3.267,4.49.341.59.782,1.089.329,1.8-1.521,2.392-3.026,4.793-4.571,7.171-.137.21-.511.267-.775.4A38.213,38.213,0,0,1,14.9,120.391" transform="translate(-2.966 -27.236)" fill="#d8a521"/>
        <path id="Trazado_141972" data-name="Trazado 141972" d="M122.307,134.332c-1.12-.642-1.428-1.874-2.068-2.862-.69-1.066-1.311-2.177-2.013-3.235-1.658-2.5-1.663-2.484.257-4.785.734-.881,1.426-1.8,2.137-2.7a39.7,39.7,0,0,1,1.686,13.578" transform="translate(-26.472 -27.318)" fill="#fec127"/>
        <path id="Trazado_141973" data-name="Trazado 141973" d="M14.11,178.894a48.6,48.6,0,0,1,6.084,7.585,1.439,1.439,0,0,1-.112,1.964,29.5,29.5,0,0,0-1.7,2.545,34.615,34.615,0,0,1-4.269-12.094" transform="translate(-3.192 -40.471)" fill="#d8a421"/>
        <path id="Trazado_141974" data-name="Trazado 141974" d="M72.558,156.15a35.394,35.394,0,0,0-4.292-3.331c-3.018-1.763-5.681-1.055-8.312.744a19.168,19.168,0,0,0-3.506,3.158c-.746.842-1.236.748-1.773-.177a9.19,9.19,0,0,0-1.609-2.407c-2.209-1.922-1.531-3.781-.333-5.926a86.964,86.964,0,0,1,10.095-13.943c1.279-1.5,2.323-1.551,3.628-.108A67.983,67.983,0,0,1,77.9,150.667a1.53,1.53,0,0,1-.237,1.793,8.411,8.411,0,0,1-5.1,3.69" transform="translate(-11.678 -30.114)" fill="#fec126"/>
        <path id="Trazado_141975" data-name="Trazado 141975" d="M61.167,185.817c-2.008.443-2.968,2.212-4.307,3.477-.911.861-1.416,1.083-2.151-.185a29.455,29.455,0,0,0-2.842-3.969,1.573,1.573,0,0,1-.145-1.965,59.229,59.229,0,0,1,8.381-12.87c.857-1.014,1.708-2.037,2.633-2.987,1.7-1.751,2.134-1.736,3.846-.007.423.427.795.906,1.19,1.361.108,1.952-1.262,3.059-2.44,4.277-1.242.318-2.539.567-2.855,2.127-.2,1,.546,1.7.824,2.546a71.518,71.518,0,0,1-1.685,7.823,1.1,1.1,0,0,1-.45.371" transform="translate(-11.639 -37.557)" fill="#fec126"/>
        <path id="Trazado_141976" data-name="Trazado 141976" d="M56.009,211.352c0-.117-.012-.234-.025-.351a54.5,54.5,0,0,1,6.232-8.056q.558,2.38,1.116,4.761a6.026,6.026,0,0,1,1.443,4.019,24.448,24.448,0,0,0,2.352,4.764c-4.4-.858-7.647-3.254-11.118-5.137" transform="translate(-12.665 -45.913)" fill="#fec126"/>
        <path id="Trazado_141977" data-name="Trazado 141977" d="M64.075,186.256l1.8-8.037a.669.669,0,0,1,.474-.137,2.252,2.252,0,0,0,3.125-1.291c.725-1.5-.447-2.165-1.441-2.865a.358.358,0,0,1,.035-.458,17.438,17.438,0,0,0,2.561-4.017l.346-.005a5.383,5.383,0,0,1,2.567,3.292,48.582,48.582,0,0,0-3.453,10.809c-.121.782-.162,1.552-.215,2.331-1.935.109-3.858.394-5.8.381" transform="translate(-14.496 -38.334)" fill="#d8a420"/>
        <path id="Trazado_141978" data-name="Trazado 141978" d="M75.562,168.995,73,165.7c1.082-2.024,3.024-3.3,4.4-5.075l5.1-3.689c3.525-1.7,7.044-3.4,11.034-4.031-.1.936-.83.758-1.255.949A34,34,0,0,0,76.55,167.7a13.361,13.361,0,0,1-.988,1.291" transform="translate(-16.514 -34.593)" fill="#d9821f"/>
        <path id="Trazado_141979" data-name="Trazado 141979" d="M64.06,190.936a7.527,7.527,0,0,1,5.8-.381c-.666,2.556-.251,5.112,0,7.667-2.577-2.05-2.789-2.013-5,.771a5.158,5.158,0,0,1-.81.679q-.019-4.2-.038-8.4c.012-.114.029-.227.05-.339" transform="translate(-14.481 -43.014)" fill="#d8811f"/>
        <path id="Trazado_141980" data-name="Trazado 141980" d="M73.372,124.829a9.158,9.158,0,0,1-.532-.877c-.74-1.489-2.174-2.279-3.4-3.214-3.353-2.553-7.229-2.136-10.552.9-1.14,1.041-2.075,3.087-3.422,2.879-1.053-.163-1.708-2.317-2.729-3.409-1.417-1.514-1.424-2.839-.447-4.683a65.322,65.322,0,0,1,10.631-14.859c1.492-1.551,2.068-1.538,3.6.039a67.319,67.319,0,0,1,11.369,16.11,1.579,1.579,0,0,1-.255,2.071c-1.134,1.331-2.1,2.807-3.124,4.229a1.309,1.309,0,0,1-1.132.816" transform="translate(-11.675 -22.716)" fill="#fec126"/>
        <path id="Trazado_141981" data-name="Trazado 141981" d="M72.8,82.04a5.494,5.494,0,0,1,2.194.437c1,1.868,1.971,3.749,3,5.6a1.708,1.708,0,0,1-.171,2.386,24.649,24.649,0,0,0-2.775,3.789c-.672,1.062-1.16.871-1.895.08a20.4,20.4,0,0,0-3.779-3.38c-3.251-2.107-6.138-2.026-9.221.279a27.823,27.823,0,0,0-4.429,4.193L52.7,91.185c-.154-.72.31-1.152.792-1.506C58.667,85.9,64.2,82.894,70.66,81.958a4.042,4.042,0,0,1,2.136.082" transform="translate(-11.915 -18.518)" fill="#fec126"/>
        <path id="Trazado_141982" data-name="Trazado 141982" d="M33.081,125.253q.188-.364.375-.728c2.871-2.432,2.309-2.746,5.228.354a60.4,60.4,0,0,1,7.519,9.975,1.6,1.6,0,0,1-.144,1.984,48.031,48.031,0,0,0-3.614,5.874c-.677,1.375-1.322.306-1.821-.025a7.6,7.6,0,0,0-7.907-.634h-.012a2.091,2.091,0,0,1-.547-1.676c-.029-3.878-.109-7.758.043-11.634a6.922,6.922,0,0,1,.879-3.49" transform="translate(-7.265 -27.742)" fill="#fec126"/>
        <path id="Trazado_141983" data-name="Trazado 141983" d="M32.67,158.187c.01-.119.022-.238.036-.356a4.021,4.021,0,0,0,.582-.432c2.97-3.131,2.782-2.772,5.536.234A67.716,67.716,0,0,1,46.21,167.5a1.4,1.4,0,0,1,.1,1.681,55.9,55.9,0,0,0-3.784,6.2c-.235.466-.6.878-1.136.4-2.317-2.072-5.04-2.368-7.955-1.893a1.54,1.54,0,0,1-.785-1.161,42.083,42.083,0,0,1,.024-14.541" transform="translate(-7.244 -35.113)" fill="#fec126"/>
        <path id="Trazado_141984" data-name="Trazado 141984" d="M30.508,159.058l.021,10.173a27.149,27.149,0,0,0,.74,5.53l-.019.371a6.246,6.246,0,0,0-2.848,1.525c-.714.608-1.358.875-2.037-.249a13.8,13.8,0,0,0-2.786-3.559c-1.754-1.453-1.137-2.709-.217-4.195a69.135,69.135,0,0,1,7.145-9.6" transform="translate(-5.082 -35.984)" fill="#d8a420"/>
        <path id="Trazado_141985" data-name="Trazado 141985" d="M72.472,81.873a34.389,34.389,0,0,0-14.759,5.168c-1.894,1.127-3.973,2.1-5.341,3.977l-.179,0-.179,0c-1.871-2.254.1-3.925.909-5.746.457-1.031,1.086-1.985,1.638-2.974a39.213,39.213,0,0,1,7.3-1.181c3.076.16,6.174-.151,9.233.417.467.087.979-.037,1.373.338" transform="translate(-11.591 -18.351)" fill="#d8a420"/>
        <path id="Trazado_141986" data-name="Trazado 141986" d="M44.184,99.619c.119-.006.239-.008.359,0a22.951,22.951,0,0,0,2.664,4.3,1.888,1.888,0,0,1,.033,2.45c-1.243,1.787-2.293,3.709-3.4,5.591-.46.785-.809,1.277-1.751.411-1.237-1.138-2.93-1.36-4.492-1.815a31.694,31.694,0,0,1,5.624-9.448c.383-.457.945-.791.959-1.483" transform="translate(-8.507 -22.536)" fill="#fec126"/>
        <path id="Trazado_141987" data-name="Trazado 141987" d="M46.4,203.2c-4.091-3.324-6.719-7.723-9.045-12.339-.435-.864-.795-1.764-1.189-2.647.011-.116.022-.231.035-.347,2.455.005,3.419,2.142,4.715,3.577a77.758,77.758,0,0,1,5.546,7.365c1.142,1.615,1.44,2.945-.062,4.392" transform="translate(-8.182 -42.501)" fill="#fec126"/>
        <path id="Trazado_141988" data-name="Trazado 141988" d="M120.509,209.821c-.812,3.368-1.264,7.053-5.626,7.5-4.8.491-6.087-3.333-7.762-6.84a11.762,11.762,0,0,1-2.895,2.782,5.7,5.7,0,0,1-5.845.718,6.025,6.025,0,0,1-3.512-5.16,13.82,13.82,0,0,1,0-3.1c.157-1.356-.511-1.372-1.48-1.1a8.272,8.272,0,0,1-6.187-.306c-3.512-1.81-4.068-6.511-1.155-10.048.944-1.146,1.524-1.621-.553-1.951a8.109,8.109,0,0,1-4.538-2.529,5.539,5.539,0,0,1,1.319-9.052c1.005-.559,2.056-1.035,3.252-1.631a22.367,22.367,0,0,1-2.587-2.854c-1.46-2.273-2.47-4.765-.72-7.309s4.52-2.784,7.208-2.206c1.978.425,1.612-.327,1.132-1.457a8.88,8.88,0,0,1-.405-4.671c.482-3.779,4.675-5.5,8.355-3.507a8.214,8.214,0,0,0,.905.6c.98.364,1.408,1.9,2.406,1.614.457-.129.47-1.707.749-2.607.766-2.468,2.116-4.4,4.91-4.722,3.046-.354,4.857,1.455,6.259,3.824.522.883.911,1.845,1.406,2.861a5.919,5.919,0,0,0,1.683-1.486c1.856-1.8,4.005-2.922,6.575-2.015,2.824,1,4.012,3.364,4.293,6.216a6.288,6.288,0,0,1-.1,2.352c-.419,1.414.047,1.444,1.212,1.079a7.763,7.763,0,0,1,6.35.288c3.2,1.8,3.962,5.772,1.808,9.158-.511.8-1.129,1.54-1.712,2.327,2.6.649,5.041,1.413,6.7,3.652a5.544,5.544,0,0,1-1.277,7.969,12.1,12.1,0,0,1-2.7,1.492c-1.354.465-1.062.937-.264,1.679,1.824,1.7,3.23,3.592,3.162,6.281a4.921,4.921,0,0,1-4.838,5.061,9.638,9.638,0,0,1-3.086-.077c-1.967-.6-1.53.361-1.2,1.5a8.951,8.951,0,0,1,.638,4.086c-.92,5.125-5.313,5.777-9.029,3.759a23.66,23.66,0,0,1-2.854-2.174" transform="translate(-17.913 -34.375)" fill="#fedb14"/>
        <path id="Trazado_141989" data-name="Trazado 141989" d="M102.185,133.567a2.56,2.56,0,1,1-5.113-.067,2.739,2.739,0,0,1,2.784-2.693,2.808,2.808,0,0,1,2.329,2.76" transform="translate(-21.961 -29.592)" fill="#fe9824"/>
        <path id="Trazado_141990" data-name="Trazado 141990" d="M30.668,126.021c-.6,5.59-.3,11.2-.375,16.8a8.77,8.77,0,0,0-2.951,2.073c-.932,1.141-1.589.683-2.276-.219a25.09,25.09,0,0,0-2.47-3.112c-1.241-1.177-1.529-2.2-.6-3.778A91.237,91.237,0,0,1,29.826,126.7a5.036,5.036,0,0,1,.843-.676" transform="translate(-4.852 -28.51)" fill="#d8a420"/>
        <path id="Trazado_141991" data-name="Trazado 141991" d="M99.652,99.111c1.706.006,2.52.766,2.533,2.365.015,1.8-.943,2.806-2.629,2.752a2.691,2.691,0,0,1-2.484-2.8c.027-1.585.85-2.325,2.58-2.319" transform="translate(-21.961 -22.422)" fill="#fe9824"/>
        <path id="Trazado_141992" data-name="Trazado 141992" d="M35.932,99.114a2.293,2.293,0,0,1,2.537,2.583,2.708,2.708,0,0,1-2.553,2.532c-1.667.014-2.6-1-2.558-2.806.032-1.582.849-2.314,2.574-2.309" transform="translate(-7.547 -22.423)" fill="#d8811f"/>
        <path id="Trazado_141993" data-name="Trazado 141993" d="M38.472,197.656a2.809,2.809,0,0,1-2.581,2.741,2.8,2.8,0,0,1-2.532-2.789,2.835,2.835,0,0,1,2.489-2.649,2.807,2.807,0,0,1,2.624,2.7" transform="translate(-7.547 -44.105)" fill="#d8811f"/>
        <path id="Trazado_141994" data-name="Trazado 141994" d="M66.924,212.771a14.435,14.435,0,0,1-1.443-4.019c1.206-1.072,2.509-1.753,3.974-.535a2.263,2.263,0,0,1,.94,2.69,2.886,2.886,0,0,1-3.471,1.865" transform="translate(-14.814 -46.958)" fill="#d8811f"/>
        <path id="Trazado_141995" data-name="Trazado 141995" d="M67.8,147.082a2.822,2.822,0,0,1-2.811-2.725,2.734,2.734,0,0,1,5.46-.159,2.833,2.833,0,0,1-2.649,2.884" transform="translate(-14.702 -32.048)" fill="#fe9824"/>
        <path id="Trazado_141996" data-name="Trazado 141996" d="M66.432,179.386c-.118,0-.236,0-.354.006a2.278,2.278,0,0,1-.862-3,2.8,2.8,0,0,1,3.056-1.751c0,.118,0,.236.005.354a7.943,7.943,0,0,1-1.845,4.391" transform="translate(-14.699 -39.507)" fill="#fd9924"/>
        <path id="Trazado_141997" data-name="Trazado 141997" d="M66.859,179.49A17.376,17.376,0,0,1,68.7,175.1c1.3-.086,1.852.812,2.091,1.829.286,1.212-.541,2.033-1.405,2.712a1.647,1.647,0,0,1-2.532-.15" transform="translate(-15.126 -39.612)" fill="#d8821f"/>
        <path id="Trazado_141998" data-name="Trazado 141998" d="M67.765,109.026a2.808,2.808,0,0,1,2.678,2.63A2.726,2.726,0,0,1,65,111.574a2.8,2.8,0,0,1,2.76-2.548" transform="translate(-14.706 -24.665)" fill="#fe9824"/>
        <path id="Trazado_141999" data-name="Trazado 141999" d="M38.471,133.416a2.718,2.718,0,0,1-2.461,2.815c-1.678.068-2.656-.935-2.656-2.722a2.81,2.81,0,0,1,2.408-2.708,2.752,2.752,0,0,1,2.709,2.615" transform="translate(-7.546 -29.591)" fill="#fe9824"/>
        <path id="Trazado_142000" data-name="Trazado 142000" d="M38.471,165.573a2.813,2.813,0,0,1-2.742,2.743,2.736,2.736,0,0,1-2.375-2.694,2.814,2.814,0,0,1,2.535-2.758,2.811,2.811,0,0,1,2.582,2.71" transform="translate(-7.546 -36.845)" fill="#fe9824"/>
        <path id="Trazado_142001" data-name="Trazado 142001" d="M141.528,184.9c-1.326,3.117-4.1,3.765-7.017,3.884a50.823,50.823,0,0,1-5.969-.4c-.618-.049-1.514-.589-1.695.332-.171.873.879.778,1.448.99,2.94,1.094,6.052,1.824,8.514,3.935a6.183,6.183,0,0,1,2.578,4.786c-1.087.606-1.845-.73-2.949-.484.385,1.079,1.771,1,2.2,1.953-1.127,1.425-2.675,1.5-4.27,1.25-3.617-.573-6.315-2.916-9.23-4.848-.43-.285-.836-1.193-1.476-.477s.284,1.045.636,1.415a39.367,39.367,0,0,1,4.665,5.553c1.5,2.306,2.383,4.767,1.249,7.535-1.3,0-1.234-1.674-2.392-1.938-.192,1.185,1.379,1.842.922,3.072-3.233.327-5.177-1.664-6.866-3.953a40.359,40.359,0,0,1-3.518-6.342c-.214-.435-.245-1.23-1-1-.834.259-.28.973-.174,1.387.777,3.047,1.724,6.07,1.419,9.268-.193,2.021-.623,3.974-2.91,4.746-.8-.679-.213-1.886-.989-2.646-.87.771.213,1.9-.54,2.63-2.365-.44-3.043-2.411-3.687-4.274-1.035-2.991-.623-6.114-.546-9.2.012-.528.6-1.32-.393-1.455-.727-.1-.68.664-.832,1.172a61.331,61.331,0,0,1-1.849,5.886c-1.124,2.723-2.751,5.031-6.1,5.237-.819-1.083.809-1.9.3-3.008-.93.4-.821,1.746-1.834,2.032-1.832-1.509-1.63-3.541-1.265-5.508.532-2.869,2.313-5.164,3.774-7.6.338-.563,1.356-1.219.624-1.841-.9-.765-1.25.542-1.744.977-2.223,1.961-4.236,4.2-7.167,5.16a5.57,5.57,0,0,1-4.9-.37c.019-1.216,1.49-1.317,1.8-2.406-1.129-.328-1.66,1.277-2.769.881-.888-2.228.286-3.884,1.635-5.387,2.047-2.278,4.923-3.271,7.57-4.61.433-.219,1.258-.156,1.071-.951-.239-1.015-1-.376-1.487-.284-2.618.493-5.206,1.217-7.9,1.067-2.478-.137-4.631-.938-5.946-3.242.7-.86,2-.177,2.762-1.052-.869-.7-2.065.018-2.864-.745.718-2.608,2.888-3.357,5.136-3.668a27.643,27.643,0,0,1,7.454.149c.662.089,1.679.592,1.912-.244.286-1.025-.91-.85-1.518-1.075-2.558-.949-5.248-1.628-7.487-3.264-1.839-1.343-3.538-2.857-3.319-5.484.958-.411,1.636.656,2.619.476-.255-1.048-1.641-.966-1.912-1.94.968-1.449,2.461-1.407,3.9-1.257,2.623.272,4.77,1.7,6.9,3.1,1.014.666,1.969,1.419,2.96,2.121.327.233.669.655,1.093.19s.009-.77-.268-1.079c-1.174-1.312-2.375-2.6-3.522-3.935a13.5,13.5,0,0,1-3.08-5.506,4.975,4.975,0,0,1,.505-4.189c1.289.075,1.261,1.681,2.424,2.045.177-1.2-1.374-1.869-.911-3.083a7.436,7.436,0,0,1,6.148,3.317,39.4,39.4,0,0,1,4.027,7.1c.2.4.2,1.284,1.009.941.73-.31.248-.925.139-1.425-.481-2.185-1.013-4.362-1.419-6.561-.613-3.319.5-6.213,2.759-7.439.839.747.222,2.03,1.052,2.847.812-.874-.255-2.036.484-2.871,2.327.559,4.16,3.282,4.325,6.653.1,2.117-.016,4.244.043,6.364.019.655-.478,1.732.425,1.89.987.172.778-1.034.956-1.633a49.844,49.844,0,0,1,1.913-5.858c1.378-3.145,3.5-4.676,6.1-4.464.333,1-.7,1.768-.422,2.877,1-.392.854-1.871,1.955-2.075,1.739,1.936,1.4,4.2.8,6.371-.716,2.6-2.31,4.794-3.778,7.027-.293.446-1.064.952-.376,1.545.724.624,1.05-.283,1.424-.638a44.365,44.365,0,0,1,4.78-4.215c2.868-2.035,5.539-2.285,7.7-.741-.205.95-1.391,1.127-1.667,2.1,1.1.432,1.688-1.26,2.776-.628.364,2.724-.953,4.679-2.963,6.254a32.7,32.7,0,0,1-6.528,3.585c-.466.217-1.225.293-.969,1.042.275.8.908.247,1.394.174,3.213-.484,6.367-1.7,9.691-.815,1.726.461,3.375,1.06,4.128,2.913-.648.751-1.742.255-2.544.93.8.891,2.157.022,2.861.944" transform="translate(-18.643 -35.133)" fill="#feebc1"/>
        <path id="Trazado_142002" data-name="Trazado 142002" d="M157.685,193c-1.023-.055-2.05-.074-3.067-.185-.315-.034-.768-.155-.795-.608-.026-.433.354-.569.686-.724a7.437,7.437,0,0,1,2.859-.357c1.829.333,1.547,1.023.317,1.874" transform="translate(-34.799 -43.239)" fill="#fe9c2a"/>
        <path id="Trazado_142003" data-name="Trazado 142003" d="M82.142,194.99a9.33,9.33,0,0,1,3.215.125c.324.115.783.231.7.672-.039.22-.382.439-.634.559a8,8,0,0,1-3.183.44c-1.475-.516-1.174-1.134-.1-1.8" transform="translate(-18.378 -44.095)" fill="#fe9c2b"/>
        <path id="Trazado_142004" data-name="Trazado 142004" d="M116.971,154.946a6.481,6.481,0,0,1,.225,3.015c-.074.335-.157.767-.549.843-.45.087-.566-.371-.72-.669a7.028,7.028,0,0,1-.493-3.166c.071-.453-.065-1.143.493-1.212.717-.089.909.6,1.044,1.189" transform="translate(-26.115 -34.783)" fill="#fe9b29"/>
        <path id="Trazado_142005" data-name="Trazado 142005" d="M123.358,232.1a5.948,5.948,0,0,1-.187-3.008c.074-.278.2-.583.551-.626s.525.237.669.494a6.325,6.325,0,0,1,.5,3.155c-.039.517.005,1.235-.626,1.265-.709.034-.739-.745-.9-1.281" transform="translate(-27.837 -51.685)" fill="#fe9d2c"/>
        <path id="Trazado_142006" data-name="Trazado 142006" d="M136.432,159.7c-.508.882-1,1.775-1.537,2.637a.64.64,0,0,1-.757.354c-.351-.134-.3-.485-.3-.771A5.66,5.66,0,0,1,134.9,158.9c.255-.395.546-.86,1.069-.692.77.248.342.98.463,1.493" transform="translate(-30.278 -35.783)" fill="#fe9b29"/>
        <path id="Trazado_142007" data-name="Trazado 142007" d="M151.192,173.6c-.73.4-1.45.818-2.194,1.189-.419.21-.977.551-1.317.082-.4-.556.119-1.019.522-1.356.594-.5,1.25-.927,1.879-1.384.543-.155,1.2-.664,1.615-.092.389.533-.573.946-.505,1.561" transform="translate(-33.377 -38.86)" fill="#fe9a27"/>
        <path id="Trazado_142008" data-name="Trazado 142008" d="M98.608,160.5c.52.935,1.05,1.865,1.553,2.809.168.314.328.719.01.994-.421.363-.81.036-1.073-.272-.693-.809-1.339-1.659-2-2.492-.277-1.485.442-1.519,1.513-1.038" transform="translate(-21.953 -36.248)" fill="#fe9a27"/>
        <path id="Trazado_142009" data-name="Trazado 142009" d="M154.138,212.153a6.206,6.206,0,0,1-2.81-1.557c-.208-.2-.481-.429-.36-.767.162-.457.584-.326.92-.309,1.124.059,1.928.963,3,1.163.141.476.927.735.529,1.375-.346.556-.842.2-1.282.094" transform="translate(-34.147 -47.393)" fill="#fe9b27"/>
        <path id="Trazado_142010" data-name="Trazado 142010" d="M88.918,214.144a12.526,12.526,0,0,1,1.637-1.138c.594-.293,1.394-1.083,1.9-.292.465.731-.518,1.233-1.015,1.717a18.765,18.765,0,0,1-1.546,1.238c-1.342.14-2.095-.1-.973-1.525" transform="translate(-19.993 -48.045)" fill="#fe9927"/>
        <path id="Trazado_142011" data-name="Trazado 142011" d="M141.764,226.719c-.431-.721-.915-1.418-1.274-2.173-.239-.5-.852-1.2-.253-1.622.7-.491,1.157.37,1.575.816a22.143,22.143,0,0,1,1.422,1.846c.3,1.41-.245,1.712-1.471,1.133" transform="translate(-31.668 -50.399)" fill="#fe9a27"/>
        <path id="Trazado_142012" data-name="Trazado 142012" d="M104.131,227.629c.367-.748.709-1.51,1.109-2.24.229-.417.573-.891,1.11-.7.593.213.4.842.284,1.245-.255.909-.638,1.782-.969,2.669-.435.145-.717.829-1.182.605-.647-.312-.237-1.045-.352-1.582" transform="translate(-23.552 -50.822)" fill="#fe9a26"/>
        <path id="Trazado_142013" data-name="Trazado 142013" d="M85.667,175.552a7.513,7.513,0,0,1,2.593,1.578c.2.219.446.456.292.782s-.5.274-.788.255a7.594,7.594,0,0,1-2.8-1.151c-.4-.306-1.079-.6-.853-1.141.263-.634,1.025-.225,1.561-.323" transform="translate(-19.017 -39.706)" fill="#fe9a27"/>
        <path id="Trazado_142014" data-name="Trazado 142014" d="M125.04,192.666a5.982,5.982,0,0,1-5.8,6.044,6.9,6.9,0,0,1-6.54-6.592,6.029,6.029,0,0,1,5.812-6.053,6.888,6.888,0,0,1,6.533,6.6" transform="translate(-25.495 -42.094)" fill="#fec126"/>
      </g>
    </g>
  </g>
</svg>
